<?xml version="1.0" encoding="utf-8"?>
<!-- Generator: Adobe Illustrator 27.7.0, SVG Export Plug-In . SVG Version: 6.00 Build 0)  -->
<svg version="1.1" id="Capa_1" xmlns="http://www.w3.org/2000/svg" xmlns:xlink="http://www.w3.org/1999/xlink" x="0px" y="0px"
	 viewBox="0 0 173.6 93.2" style="enable-background:new 0 0 173.6 93.2;" xml:space="preserve">
<style type="text/css">
	.st0{opacity:0.2;fill:#010101;enable-background:new    ;}
	.st1{fill:#422B6B;}
	.st2{fill:#65499D;}
	.st3{fill:#5B4290;}
	.st4{fill:#543B84;}
	.st5{fill:#4B3378;}
	.st6{fill:#8E7AB8;}
	.st7{fill:#654A9E;}
	.st8{fill:#39245F;}
	.st9{fill:#371611;}
	.st10{clip-path:url(#SVGID_00000182502857466845262830000009982897809855247026_);}
	.st11{fill:#A65F35;}
	.st12{fill:#CC7A39;}
	.st13{fill:#6E4024;}
	.st14{fill:#FAB886;}
</style>
<ellipse class="st0" cx="85.3" cy="66.1" rx="81.8" ry="22"/>
<path class="st1" d="M14.9,62.3c0,11.1,31.9,20.1,71.2,20.1s71.2-9,71.2-20.1v-4h-142L14.9,62.3z"/>
<path class="st2" d="M157.3,60.2c0,11.1-31.9,20.1-71.2,20.1s-71.2-9-71.2-20.1s31.9-20.1,71.2-20.1
	C125.4,40.1,157.3,49.1,157.3,60.2z"/>
<path class="st1" d="M22.4,55.9c0,9.9,28.5,18,63.7,18s63.7-8,63.7-18v-3.6h-127L22.4,55.9z"/>
<path class="st3" d="M22.4,54c0,9.9,28.5,18,63.7,18s63.7-8,63.7-18l-6.3-25.2H28.7l-6,23.5L22.4,54z"/>
<path class="st4" d="M143.5,28.8h-35.7c3.7,1.1,7.5,1.9,11.2,3.3c5,1.9,9.9,4.4,14.5,7.1c2.7,1.6,6.2,3.3,7.8,6.1
	c4.8,8.5-11.8,12.9-17,14.3c-10.1,2.7-20.7,4.2-31.1,4.8c-3,0.2-6.1,0.2-9.1,0.2c-4.4,0-8.8-0.2-13.2-0.6c-4.8-0.4-10-1-14.5-3
	c-4.8-2.1-8.2-7-4.8-11.9c4-5.9,11-9,17.1-12.1c4.9-2.4,9.6-5.3,14.6-7.5c0.7-0.3,1.4-0.6,2.1-0.9H28.7l-6,23.5L22.4,54
	c0,9.9,28.5,18,63.7,18s63.7-8,63.7-18L143.5,28.8z"/>
<path class="st5" d="M117,31c6.3,2.4,12.5,3.9,19,5.7c4.3,1.2,7.9,3.1,10.9,5.7l-3.4-13.5h-32.6C112.9,29.5,115,30.2,117,31z"/>
<path class="st5" d="M148,46.8c-0.3,2.1-0.8,4.1-1.8,5.9c-3.2,6.2-10.6,8.8-16.9,10.7c-8.5,2.5-17.2,3.6-26,4.5
	c-9.3,0.9-18.5,1.8-27.8,1.2C66.7,68.6,58.4,67,50,64.3c-5.6-1.8-10.5-4.4-9.6-11.1c1-7.3,7.7-12.4,13.7-15.7
	c8.1-4.4,17.1-6,25.8-8.8H28.7l-6,23.5L22.4,54c0,9.9,28.5,18,63.7,18s63.7-8,63.7-18L148,46.8z"/>
<path class="st6" d="M143.5,29.1c0,6.1-25.7,11-57.4,11s-57.4-4.9-57.4-11s25.7-11,57.4-11C117.8,18.1,143.5,23,143.5,29.1z"/>
<path class="st7" d="M138.3,29c0,4.6-23.4,8.3-52.2,8.3S33.9,33.6,33.9,29s23.4-8.3,52.2-8.3S138.3,24.4,138.3,29z"/>
<path class="st8" d="M40.9,33.2c9,2.5,25.9,4.1,45.2,4.1s36.2-1.7,45.2-4.1c-9-2.5-25.9-4.1-45.2-4.1S49.9,30.7,40.9,33.2z"/>
<path class="st2" d="M131.2,50c0.3,5.3-15.7,10.4-35.7,11.4S59.1,59,58.8,53.8c-0.3-5.3,15.7-10.4,35.7-11.4
	C114.5,41.3,131,44.7,131.2,50z"/>
<g>
	<path class="st9" d="M79.2,63.8c0,0,1.3,2.3,7.5,2.1c6.1,0.1,7.5-2.1,7.5-2.1c1.2-1.3,1.6-3.5,0.9-5.2c0,0-2.4-3.7-6.1-5.2
		c0,0-1.3-0.6-2.2-0.6l0,0l0,0l0,0l0,0c-0.9,0-2.2,0.6-2.2,0.6c-3.7,1.5-6.1,5.2-6.1,5.2C77.5,60.3,78,62.6,79.2,63.8z"/>
	<path class="st9" d="M92.4,48c-0.3,2.2-1.8,3.8-3.4,3.6s-2.6-2.2-2.3-4.4c0.3-2.2,1.8-3.8,3.4-3.6S92.7,45.8,92.4,48z"/>
	<path class="st9" d="M85.1,47.2c0.6,2.1-0.1,4.2-1.6,4.7s-3.3-0.9-3.9-3c-0.7-2.1,0.1-4.2,1.6-4.7S84.5,45,85.1,47.2z"/>
	<path class="st9" d="M79.3,51.2c1.3,1.8,1.3,4,0,4.9s-3.4,0.2-4.7-1.6c-1.3-1.8-1.3-4,0-4.9C75.9,48.6,78,49.4,79.3,51.2z"/>
	<path class="st9" d="M92.7,50.8c-0.9,2-0.4,4.2,1,4.8c1.5,0.6,3.4-0.5,4.2-2.5c0.9-2,0.4-4.2-1-4.8C95.5,47.7,93.6,48.8,92.7,50.8z
		"/>
</g>
<g>
	<defs>
		<path id="SVGID_1_" d="M85.3,0C36.3,0.6,33.9,24.4,33.9,29c0,4.6,23.4,8.3,52.2,8.3c28.8,0,52.2-3.7,52.2-8.3
			C138.3,24.4,134.2,1.2,85.3,0z"/>
	</defs>
	<clipPath id="SVGID_00000165943808242783673710000001360642073619799943_">
		<use xlink:href="#SVGID_1_"  style="overflow:visible;"/>
	</clipPath>
	<g style="clip-path:url(#SVGID_00000165943808242783673710000001360642073619799943_);">
		<g>
			<path class="st11" d="M69.9,31.7c1.4-0.5,2.4-1.7,2.4-3.1c0-1.8-1.7-3.3-3.7-3.3c-2.1,0-3.7,1.5-3.7,3.3c0,0.1,0,0.1,0,0.2h-5.1
				c0-0.1,0-0.1,0-0.2c0-1.8-1.7-3.3-3.7-3.3c-2.1,0-3.7,1.5-3.7,3.3c0,1.4,1,2.6,2.4,3.1c-1.4,0.5-2.4,1.7-2.4,3.1
				c0,1.8,1.7,3.3,3.7,3.3c2.1,0,3.7-1.5,3.7-3.3c0-0.1,0-0.1,0-0.2h5.1c0,0.1,0,0.1,0,0.2c0,1.8,1.7,3.3,3.7,3.3
				c2.1,0,3.7-1.5,3.7-3.3C72.4,33.4,71.4,32.2,69.9,31.7z"/>
			<path class="st12" d="M67.5,30.7c0.5-0.4,3.4-2.1,1.8-2.8c-1-0.4-1.6,0.8-2.1,1.4c-0.4,0.4-0.9,0.9-1.5,1.1
				c-1.9,0.8-4.5,1.2-6.5,0.5c-0.7-0.2-1.1-0.9-1.5-1.5c-0.3-0.5-0.8-1.3-1.4-1.6c-0.4-0.2-1-0.1-1.3,0.3c-0.3,0.5,0.2,1.3,0.6,1.5
				c0.4,0.2,0.8,0.4,1.1,0.7c0.6,0.5,1,1.1,0.7,1.9c-0.3,0.8-1.2,1.1-1.8,1.6c-0.5,0.5,0,2.1,1,1.4c0.3-0.2,0.6-0.5,0.8-0.9
				c0.2-0.4,0.5-0.9,0.9-1.3c0.7-0.6,1.4-0.8,2.4-0.9c1.1-0.1,2.4-0.4,3.5-0.1c1,0.3,1.6,0.8,2.3,1.6c0.4,0.4,0.8,1.1,1.4,1.3
				c1.8,0.7,0.7-0.6,0.4-0.9C67.4,33.1,66.1,32,67.5,30.7z"/>
			<path class="st13" d="M69.9,31.7c1.4-0.5,2.4-1.7,2.4-3.1c0-1.8-1.7-3.3-3.7-3.3c-2.1,0-3.7,1.5-3.7,3.3c0,0.1,0,0.1,0,0.2h-5.1
				c0-0.1,0-0.1,0-0.2c0-1.8-1.7-3.3-3.7-3.3c-2.1,0-3.7,1.5-3.7,3.3c0,1.4,1,2.6,2.4,3.1c-1.4,0.5-2.4,1.7-2.4,3.1
				c0,1.8,1.7,3.3,3.7,3.3c2.1,0,3.7-1.5,3.7-3.3c0-0.1,0-0.1,0-0.2h5.1c0,0.1,0,0.1,0,0.2c0,1.8,1.7,3.3,3.7,3.3
				c2.1,0,3.7-1.5,3.7-3.3C72.4,33.4,71.4,32.2,69.9,31.7z M68.6,35.8c-1.1,0.3-2.1-0.9-2.7-1.6c-0.5-0.6-1-1.2-1.9-1.4
				c-0.9-0.1-1.7,0-2.6,0.1c-1.1,0.1-2.3,0.2-2.9,1.2c-0.3,0.6-0.6,1.1-1.1,1.5c-0.7,0.7-1.7,0.7-2.4-0.1c-0.6-0.7-0.8-1.5-0.1-2.1
				c0.4-0.3,0.8-0.6,1.2-0.9c1.4-1,0-1.7-0.8-2.2c-1.2-0.8-1.5-2.6-0.3-3.1c0,0,0,0,0,0c0.5-0.2,1-0.4,1.5-0.2
				c0.9,0.3,1.4,1.4,1.8,2.1c0.9,1.4,2.8,1.7,4.4,1.5c1-0.1,2.3-0.3,3.2-0.9c0.8-0.5,1.3-1.3,1.9-2c0.6-0.7,1.4-0.9,2.1-0.4
				c0.7,0.5,0.7,1.5,0.3,2.2c-0.4,0.7-3.5,1.9-2.4,3C68.8,33.4,70.8,35.2,68.6,35.8z"/>
			<path class="st13" d="M69.9,31.7c1.4-0.5,2.4-1.7,2.4-3.1c0-1.8-1.7-3.3-3.7-3.3c-2.1,0-3.7,1.5-3.7,3.3c0,0.1,0,0.1,0,0.2h-5.1
				c0-0.1,0-0.1,0-0.2c0-1.8-1.7-3.3-3.7-3.3c-2.1,0-3.7,1.5-3.7,3.3c0,1.4,1,2.6,2.4,3.1c-1.4,0.5-2.4,1.7-2.4,3.1
				c0,1.8,1.7,3.3,3.7,3.3c2.1,0,3.7-1.5,3.7-3.3c0-0.1,0-0.1,0-0.2h5.1c0,0.1,0,0.1,0,0.2c0,1.8,1.7,3.3,3.7,3.3
				c2.1,0,3.7-1.5,3.7-3.3C72.4,33.4,71.4,32.2,69.9,31.7z M71.1,35.2c-0.1,0.5-0.3,0.9-0.7,1.3c-1.2,1-3.3,0.5-4.3-0.6
				c-0.7-0.7-0.4-1.7-1.4-2.1c-0.7-0.3-1.9-0.2-2.6-0.2c-0.9,0-1.6-0.2-2.7,0.7c-0.6,0.5-0.6,1.4-1.2,2c-0.5,0.6-1.3,0.9-2.2,0.8
				c-1.2-0.2-2.6-1.2-2.4-2.5c0.1-0.9,0.7-1.6,1.4-2.2c0.6-0.5,0.7-0.9,0-1.4c-0.6-0.5-1.4-0.8-1.7-1.6c-0.3-0.9,0.1-1.9,0.8-2.5
				C55.2,25.8,57,26,58,27c0.6,0.6,0.6,0.6,0.8,1.4C59.2,29.8,61,30,62,30c1.5-0.1,3.3,0.2,4.2-1.3c0.6-1,0.4-1.9,2.5-2.4
				c1-0.2,2.6,0.6,2.7,1.9c0.2,2-1.5,2.2-2.4,3.2c-0.8,1,1.1,1.9,1.6,2.5C71,34.3,71.1,34.8,71.1,35.2z"/>
		</g>
		<g>
			<path class="st11" d="M74.5,19.3c1.1-1,1.5-2.5,0.9-3.8c-0.8-1.6-2.9-2.3-4.8-1.4c-1.9,0.9-2.8,2.9-2,4.5c0,0.1,0.1,0.1,0.1,0.2
				l-4.6,2.1c0-0.1,0-0.1-0.1-0.2c-0.8-1.6-2.9-2.3-4.8-1.4c-1.9,0.9-2.8,2.9-2,4.5c0.6,1.3,2,1.9,3.5,1.8c-1.1,1-1.5,2.5-0.9,3.8
				c0.8,1.6,2.9,2.3,4.8,1.4c1.9-0.9,2.8-2.9,2-4.5c0-0.1-0.1-0.1-0.1-0.2l4.6-2.1c0,0.1,0,0.1,0.1,0.2c0.8,1.6,2.9,2.3,4.8,1.4
				c1.9-0.9,2.8-2.9,2-4.5C77.4,19.8,75.9,19.1,74.5,19.3z"/>
			<path class="st12" d="M71.9,19.4c0.3-0.6,2.3-3.3,0.5-3.3c-1.1,0-1.1,1.4-1.3,2.1c-0.2,0.6-0.5,1.2-0.9,1.6
				c-1.4,1.6-3.6,2.9-5.7,3.2c-0.7,0.1-1.4-0.4-2-0.7c-0.5-0.3-1.3-0.9-1.9-0.8c-0.4,0-1,0.3-1.1,0.8c-0.1,0.6,0.7,1.1,1.2,1.1
				c0.4,0,0.9,0,1.3,0.2c0.8,0.2,1.3,0.6,1.4,1.4c0.1,0.8-0.7,1.5-1,2.2c-0.3,0.7,0.9,1.9,1.5,0.9c0.2-0.3,0.3-0.7,0.3-1.1
				c0-0.5,0.1-1.1,0.3-1.5c0.4-0.8,1-1.4,1.7-1.8c1-0.6,2-1.4,3.1-1.6c1-0.2,1.8,0.1,2.7,0.5c0.5,0.2,1.2,0.6,1.8,0.6
				c1.9-0.1,0.4-0.9,0-1C72.7,21.6,71.1,21.1,71.9,19.4z"/>
			<path class="st13" d="M74.5,19.3c1.1-1,1.5-2.5,0.9-3.8c-0.8-1.6-2.9-2.3-4.8-1.4c-1.9,0.9-2.8,2.9-2,4.5c0,0.1,0.1,0.1,0.1,0.2
				l-4.6,2.1c0-0.1,0-0.1-0.1-0.2c-0.8-1.6-2.9-2.3-4.8-1.4c-1.9,0.9-2.8,2.9-2,4.5c0.6,1.3,2,1.9,3.5,1.8c-1.1,1-1.5,2.5-0.9,3.8
				c0.8,1.6,2.9,2.3,4.8,1.4c1.9-0.9,2.8-2.9,2-4.5c0-0.1-0.1-0.1-0.1-0.2l4.6-2.1c0,0.1,0,0.1,0.1,0.2c0.8,1.6,2.9,2.3,4.8,1.4
				c1.9-0.9,2.8-2.9,2-4.5C77.4,19.8,75.9,19.1,74.5,19.3z M74.9,23.6c-0.9,0.7-2.2,0-3.1-0.3c-0.7-0.3-1.5-0.7-2.3-0.4
				c-0.8,0.2-1.5,0.7-2.3,1.1c-0.9,0.5-2,1.2-2.1,2.3c-0.1,0.6-0.1,1.2-0.4,1.9c-0.3,0.9-1.3,1.3-2.2,0.9c-0.8-0.4-1.4-1-1-1.9
				c0.2-0.5,0.4-0.9,0.7-1.3c0.8-1.5-0.7-1.6-1.7-1.7c-1.4-0.2-2.5-1.7-1.6-2.7c0,0,0,0,0,0c0.4-0.4,0.7-0.7,1.3-0.8
				c0.9-0.1,1.8,0.7,2.6,1.2c1.4,0.9,3.3,0.4,4.6-0.4c0.9-0.5,2-1.2,2.5-2.1c0.5-0.8,0.6-1.7,0.9-2.6c0.3-0.9,0.9-1.4,1.8-1.2
				c0.9,0.2,1.3,1.1,1.2,1.9c0,0.8-2.4,3.2-0.9,3.7C74.2,21.3,76.7,22.1,74.9,23.6z"/>
			<path class="st13" d="M74.5,19.3c1.1-1,1.5-2.5,0.9-3.8c-0.8-1.6-2.9-2.3-4.8-1.4c-1.9,0.9-2.8,2.9-2,4.5c0,0.1,0.1,0.1,0.1,0.2
				l-4.6,2.1c0-0.1,0-0.1-0.1-0.2c-0.8-1.6-2.9-2.3-4.8-1.4c-1.9,0.9-2.8,2.9-2,4.5c0.6,1.3,2,1.9,3.5,1.8c-1.1,1-1.5,2.5-0.9,3.8
				c0.8,1.6,2.9,2.3,4.8,1.4c1.9-0.9,2.8-2.9,2-4.5c0-0.1-0.1-0.1-0.1-0.2l4.6-2.1c0,0.1,0,0.1,0.1,0.2c0.8,1.6,2.9,2.3,4.8,1.4
				c1.9-0.9,2.8-2.9,2-4.5C77.4,19.8,75.9,19.1,74.5,19.3z M77,22c0.1,0.4,0.1,1-0.1,1.5c-0.7,1.4-2.8,1.8-4.2,1.2
				c-0.9-0.4-1.1-1.4-2.2-1.3c-0.7,0-1.8,0.6-2.4,0.9c-0.8,0.4-1.6,0.5-2.2,1.8c-0.3,0.7,0,1.6-0.2,2.3c-0.2,0.8-0.8,1.4-1.6,1.6
				c-1.1,0.4-2.8,0-3.2-1.3c-0.3-0.9,0-1.8,0.4-2.5c0.4-0.7,0.3-1.1-0.6-1.3c-0.8-0.2-1.7-0.2-2.2-0.8c-0.6-0.7-0.7-1.8-0.3-2.6
				c0.6-1.3,2.3-1.9,3.7-1.4c0.8,0.3,0.8,0.3,1.3,0.9c0.9,1.1,2.6,0.5,3.5,0c1.3-0.7,3.1-1.2,3.3-2.9c0.1-1.2-0.4-1.9,1.3-3.2
				c0.8-0.6,2.6-0.5,3.3,0.6c1,1.7-0.4,2.6-0.8,3.9c-0.4,1.2,1.8,1.3,2.5,1.6C76.5,21.2,76.8,21.6,77,22z"/>
		</g>
		<g>
			<path class="st11" d="M83.9,27.9c1.1-1,1.5-2.5,0.9-3.8c-0.8-1.6-2.9-2.3-4.8-1.4c-1.9,0.9-2.8,2.9-2,4.5c0,0.1,0.1,0.1,0.1,0.2
				l-4.6,2.1c0-0.1,0-0.1-0.1-0.2c-0.8-1.6-2.9-2.3-4.8-1.4c-1.9,0.9-2.8,2.9-2,4.5c0.6,1.3,2,1.9,3.5,1.8c-1.1,1-1.5,2.5-0.9,3.8
				c0.8,1.6,2.9,2.3,4.8,1.4c1.9-0.9,2.8-2.9,2-4.5c0-0.1-0.1-0.1-0.1-0.2l4.6-2.1c0,0.1,0,0.1,0.1,0.2c0.8,1.6,2.9,2.3,4.8,1.4
				c1.9-0.9,2.8-2.9,2-4.5C86.8,28.4,85.4,27.7,83.9,27.9z"/>
			<path class="st12" d="M81.3,28c0.3-0.6,2.3-3.3,0.5-3.3c-1.1,0-1.1,1.4-1.3,2.1c-0.2,0.6-0.5,1.2-0.9,1.6
				c-1.4,1.6-3.6,2.9-5.7,3.2c-0.7,0.1-1.4-0.4-2-0.7C71.4,30.6,70.6,30,70,30c-0.4,0-1,0.3-1.1,0.8c-0.1,0.6,0.7,1.1,1.2,1.1
				c0.4,0,0.9,0,1.3,0.2c0.8,0.2,1.3,0.6,1.4,1.4c0.1,0.8-0.7,1.5-1,2.2c-0.3,0.7,0.9,1.9,1.5,0.9c0.2-0.3,0.3-0.7,0.3-1.1
				c0-0.5,0.1-1.1,0.3-1.5c0.4-0.8,1-1.4,1.7-1.8c1-0.6,2-1.4,3.1-1.6c1-0.2,1.8,0.1,2.7,0.5c0.5,0.2,1.2,0.6,1.8,0.6
				c1.9-0.1,0.4-0.9,0-1C82.1,30.2,80.5,29.7,81.3,28z"/>
			<path class="st13" d="M83.9,27.9c1.1-1,1.5-2.5,0.9-3.8c-0.8-1.6-2.9-2.3-4.8-1.4c-1.9,0.9-2.8,2.9-2,4.5c0,0.1,0.1,0.1,0.1,0.2
				l-4.6,2.1c0-0.1,0-0.1-0.1-0.2c-0.8-1.6-2.9-2.3-4.8-1.4c-1.9,0.9-2.8,2.9-2,4.5c0.6,1.3,2,1.9,3.5,1.8c-1.1,1-1.5,2.5-0.9,3.8
				c0.8,1.6,2.9,2.3,4.8,1.4c1.9-0.9,2.8-2.9,2-4.5c0-0.1-0.1-0.1-0.1-0.2l4.6-2.1c0,0.1,0,0.1,0.1,0.2c0.8,1.6,2.9,2.3,4.8,1.4
				c1.9-0.9,2.8-2.9,2-4.5C86.8,28.4,85.4,27.7,83.9,27.9z M84.3,32.2c-0.9,0.7-2.2,0-3.1-0.3c-0.7-0.3-1.5-0.7-2.3-0.4
				c-0.8,0.2-1.5,0.7-2.3,1.1c-0.9,0.5-2,1.2-2.1,2.3c-0.1,0.6-0.1,1.2-0.3,1.9c-0.3,0.9-1.3,1.3-2.2,0.9c-0.8-0.4-1.4-1-1-1.9
				c0.2-0.5,0.4-0.9,0.7-1.3c0.8-1.5-0.7-1.6-1.7-1.7c-1.4-0.2-2.5-1.7-1.6-2.7c0,0,0,0,0,0c0.4-0.4,0.7-0.7,1.3-0.8
				c0.9-0.1,1.8,0.7,2.6,1.2c1.4,0.9,3.3,0.4,4.6-0.4c0.9-0.5,2-1.2,2.5-2.1c0.5-0.8,0.6-1.7,0.8-2.6c0.3-0.9,0.9-1.4,1.8-1.2
				c0.9,0.2,1.3,1.1,1.2,1.9c0,0.8-2.4,3.2-0.9,3.7C83.6,29.9,86.1,30.7,84.3,32.2z"/>
			<path class="st13" d="M83.9,27.9c1.1-1,1.5-2.5,0.9-3.8c-0.8-1.6-2.9-2.3-4.8-1.4c-1.9,0.9-2.8,2.9-2,4.5c0,0.1,0.1,0.1,0.1,0.2
				l-4.6,2.1c0-0.1,0-0.1-0.1-0.2c-0.8-1.6-2.9-2.3-4.8-1.4c-1.9,0.9-2.8,2.9-2,4.5c0.6,1.3,2,1.9,3.5,1.8c-1.1,1-1.5,2.5-0.9,3.8
				c0.8,1.6,2.9,2.3,4.8,1.4c1.9-0.9,2.8-2.9,2-4.5c0-0.1-0.1-0.1-0.1-0.2l4.6-2.1c0,0.1,0,0.1,0.1,0.2c0.8,1.6,2.9,2.3,4.8,1.4
				c1.9-0.9,2.8-2.9,2-4.5C86.8,28.4,85.4,27.7,83.9,27.9z M86.4,30.6c0.1,0.4,0.1,1-0.1,1.5c-0.7,1.4-2.8,1.8-4.2,1.2
				c-0.9-0.4-1.1-1.4-2.2-1.3c-0.7,0-1.8,0.6-2.4,0.9c-0.8,0.4-1.6,0.5-2.2,1.8c-0.3,0.7,0,1.6-0.2,2.3c-0.2,0.8-0.9,1.4-1.6,1.6
				c-1.1,0.4-2.8,0-3.2-1.3c-0.3-0.9,0-1.8,0.4-2.5c0.4-0.7,0.3-1.1-0.6-1.3c-0.8-0.2-1.7-0.2-2.2-0.8c-0.6-0.7-0.7-1.8-0.3-2.6
				c0.6-1.3,2.3-1.9,3.7-1.4c0.8,0.3,0.8,0.3,1.3,0.9c0.9,1.1,2.6,0.5,3.5,0c1.3-0.7,3.1-1.2,3.3-2.9c0.1-1.2-0.4-1.9,1.3-3.2
				c0.8-0.6,2.6-0.5,3.3,0.6c1,1.7-0.4,2.6-0.8,3.9c-0.4,1.2,1.8,1.3,2.5,1.6C85.9,29.8,86.2,30.2,86.4,30.6z"/>
		</g>
		<g>
			<path class="st11" d="M59.3,22.2c1.1-1,1.5-2.5,0.9-3.8c-0.8-1.6-2.9-2.3-4.8-1.4c-1.9,0.9-2.8,2.9-2,4.5c0,0.1,0.1,0.1,0.1,0.2
				l-4.6,2.1c0-0.1,0-0.1-0.1-0.2C48,22,45.9,21.4,44,22.2c-1.9,0.9-2.8,2.9-2,4.5c0.6,1.3,2,1.9,3.5,1.8c-1.1,1-1.5,2.5-0.9,3.8
				c0.8,1.6,2.9,2.3,4.8,1.4c1.9-0.9,2.8-2.9,2-4.5c0-0.1-0.1-0.1-0.1-0.2l4.6-2.1c0,0.1,0,0.1,0.1,0.2c0.8,1.6,2.9,2.3,4.8,1.4
				c1.9-0.9,2.8-2.9,2-4.5C62.1,22.7,60.7,22.1,59.3,22.2z"/>
			<path class="st14" d="M56.6,22.3c0.3-0.6,2.3-3.3,0.5-3.3c-1.1,0-1.1,1.4-1.3,2.1c-0.2,0.6-0.5,1.2-0.9,1.6
				c-1.4,1.6-3.6,2.9-5.7,3.2c-0.7,0.1-1.4-0.4-2-0.7c-0.5-0.3-1.3-0.9-1.9-0.9c-0.4,0-1,0.3-1.1,0.8c-0.1,0.6,0.7,1.1,1.2,1.1
				c0.4,0,0.9,0,1.3,0.2c0.8,0.2,1.3,0.6,1.4,1.4c0.1,0.8-0.7,1.5-1,2.2c-0.3,0.7,0.9,1.9,1.5,0.9c0.2-0.3,0.3-0.7,0.3-1.1
				c0-0.5,0.1-1.1,0.3-1.5c0.4-0.8,1-1.4,1.7-1.8c1-0.6,2-1.4,3.1-1.6c1-0.2,1.8,0.1,2.7,0.5c0.5,0.2,1.2,0.6,1.8,0.6
				c1.9-0.1,0.4-0.9,0-1C57.5,24.5,55.9,24,56.6,22.3z"/>
			<path class="st13" d="M59.3,22.2c1.1-1,1.5-2.5,0.9-3.8c-0.8-1.6-2.9-2.3-4.8-1.4c-1.9,0.9-2.8,2.9-2,4.5c0,0.1,0.1,0.1,0.1,0.2
				l-4.6,2.1c0-0.1,0-0.1-0.1-0.2C48,22,45.9,21.4,44,22.2c-1.9,0.9-2.8,2.9-2,4.5c0.6,1.3,2,1.9,3.5,1.8c-1.1,1-1.5,2.5-0.9,3.8
				c0.8,1.6,2.9,2.3,4.8,1.4c1.9-0.9,2.8-2.9,2-4.5c0-0.1-0.1-0.1-0.1-0.2l4.6-2.1c0,0.1,0,0.1,0.1,0.2c0.8,1.6,2.9,2.3,4.8,1.4
				c1.9-0.9,2.8-2.9,2-4.5C62.1,22.7,60.7,22.1,59.3,22.2z M59.7,26.5c-0.9,0.7-2.2,0-3.1-0.3c-0.7-0.3-1.5-0.7-2.3-0.4
				c-0.8,0.2-1.6,0.7-2.3,1.1c-0.9,0.5-2,1.2-2.1,2.3c-0.1,0.6-0.1,1.2-0.3,1.9c-0.3,0.9-1.3,1.3-2.2,0.9c-0.8-0.4-1.4-1-1-1.9
				c0.2-0.5,0.4-0.9,0.7-1.3c0.8-1.5-0.7-1.6-1.7-1.7c-1.4-0.2-2.5-1.7-1.6-2.7c0,0,0,0,0,0c0.4-0.4,0.7-0.7,1.3-0.8
				c0.9-0.1,1.8,0.7,2.6,1.2c1.4,0.9,3.3,0.4,4.6-0.4c0.9-0.5,2-1.2,2.5-2.1c0.5-0.8,0.6-1.7,0.9-2.6c0.3-0.9,0.9-1.4,1.8-1.2
				c0.9,0.2,1.3,1.1,1.2,1.9c0,0.8-2.4,3.2-0.9,3.7C58.9,24.2,61.5,25,59.7,26.5z"/>
			<path class="st13" d="M59.3,22.2c1.1-1,1.5-2.5,0.9-3.8c-0.8-1.6-2.9-2.3-4.8-1.4c-1.9,0.9-2.8,2.9-2,4.5c0,0.1,0.1,0.1,0.1,0.2
				l-4.6,2.1c0-0.1,0-0.1-0.1-0.2C48,22,45.9,21.4,44,22.2c-1.9,0.9-2.8,2.9-2,4.5c0.6,1.3,2,1.9,3.5,1.8c-1.1,1-1.5,2.5-0.9,3.8
				c0.8,1.6,2.9,2.3,4.8,1.4c1.9-0.9,2.8-2.9,2-4.5c0-0.1-0.1-0.1-0.1-0.2l4.6-2.1c0,0.1,0,0.1,0.1,0.2c0.8,1.6,2.9,2.3,4.8,1.4
				c1.9-0.9,2.8-2.9,2-4.5C62.1,22.7,60.7,22.1,59.3,22.2z M61.7,24.9c0.1,0.4,0.1,1-0.1,1.5c-0.7,1.4-2.8,1.8-4.2,1.2
				c-0.9-0.4-1.1-1.4-2.2-1.3c-0.7,0-1.8,0.6-2.4,0.9c-0.8,0.4-1.6,0.5-2.2,1.8c-0.3,0.7,0,1.6-0.2,2.3c-0.2,0.8-0.8,1.4-1.6,1.6
				c-1.1,0.4-2.8,0-3.2-1.3c-0.3-0.9,0-1.8,0.4-2.5c0.4-0.7,0.3-1.1-0.6-1.3c-0.8-0.2-1.7-0.2-2.2-0.8c-0.6-0.7-0.7-1.8-0.3-2.6
				c0.6-1.3,2.3-1.9,3.7-1.4c0.8,0.3,0.8,0.3,1.3,0.9c0.9,1.1,2.6,0.5,3.5,0c1.3-0.7,3.1-1.2,3.3-2.9c0.1-1.2-0.4-1.9,1.3-3.2
				c0.8-0.6,2.6-0.5,3.3,0.6c1,1.7-0.4,2.6-0.8,3.9c-0.4,1.2,1.8,1.3,2.5,1.6C61.3,24.1,61.6,24.5,61.7,24.9z"/>
		</g>
		<g>
			<path class="st11" d="M95.2,38.6c1.3,0.7,2.9,0.6,3.9-0.4c1.3-1.3,1.2-3.5-0.2-5c-1.4-1.5-3.6-1.7-5-0.4
				c-0.1,0.1-0.1,0.1-0.1,0.2l-3.5-3.7c0.1,0,0.1-0.1,0.2-0.1c1.3-1.3,1.2-3.5-0.2-5c-1.4-1.5-3.6-1.7-5-0.4c-1,1-1.2,2.5-0.5,3.9
				c-1.3-0.7-2.9-0.6-3.9,0.4c-1.3,1.3-1.2,3.5,0.2,5c1.4,1.5,3.6,1.7,5,0.4c0,0,0.1-0.1,0.1-0.2l3.5,3.7c-0.1,0-0.1,0.1-0.2,0.1
				c-1.3,1.3-1.2,3.5,0.2,5c1.4,1.5,3.6,1.7,5,0.4C95.7,41.5,95.9,40,95.2,38.6z"/>
			<path class="st12" d="M94.3,36.2c0.6,0.1,3.9,1,3.3-0.6c-0.4-1-1.7-0.6-2.5-0.6c-0.6,0-1.2-0.1-1.8-0.3c-1.9-0.8-3.9-2.4-4.9-4.4
				c-0.3-0.6-0.1-1.4,0-2.1c0.1-0.6,0.4-1.5,0.2-2.1c-0.1-0.4-0.7-0.8-1.1-0.8c-0.6,0.1-0.8,1-0.7,1.5c0.1,0.4,0.2,0.9,0.3,1.3
				c0.1,0.8-0.1,1.4-0.9,1.8c-0.8,0.3-1.7-0.1-2.4-0.2c-0.7,0-1.5,1.5-0.3,1.7c0.4,0.1,0.8,0.1,1.2,0c0.5-0.1,1-0.3,1.5-0.2
				c0.9,0.1,1.6,0.5,2.3,1.1c0.9,0.7,1.9,1.5,2.5,2.5c0.5,0.9,0.5,1.7,0.4,2.7c-0.1,0.6-0.2,1.3,0,1.9c0.7,1.8,1,0.1,1-0.3
				C92.5,37.7,92.4,36,94.3,36.2z"/>
			<path class="st13" d="M95.2,38.6c1.3,0.7,2.9,0.6,3.9-0.4c1.3-1.3,1.2-3.5-0.2-5c-1.4-1.5-3.6-1.7-5-0.4
				c-0.1,0.1-0.1,0.1-0.1,0.2l-3.5-3.7c0.1,0,0.1-0.1,0.2-0.1c1.3-1.3,1.2-3.5-0.2-5c-1.4-1.5-3.6-1.7-5-0.4c-1,1-1.2,2.5-0.5,3.9
				c-1.3-0.7-2.9-0.6-3.9,0.4c-1.3,1.3-1.2,3.5,0.2,5c1.4,1.5,3.6,1.7,5,0.4c0,0,0.1-0.1,0.1-0.2l3.5,3.7c-0.1,0-0.1,0.1-0.2,0.1
				c-1.3,1.3-1.2,3.5,0.2,5c1.4,1.5,3.6,1.7,5,0.4C95.7,41.5,95.9,40,95.2,38.6z M91.3,40.4c-1-0.6-0.8-2.1-0.7-3
				c0.1-0.8,0.2-1.6-0.3-2.3c-0.5-0.7-1.2-1.2-1.8-1.8c-0.8-0.7-1.7-1.5-2.9-1.3c-0.6,0.1-1.2,0.3-1.9,0.3c-0.9,0-1.7-0.8-1.6-1.7
				c0.1-0.9,0.5-1.6,1.5-1.6c0.5,0,1,0.1,1.5,0.2c1.7,0.3,1.2-1.2,1.1-2.1c-0.3-1.4,0.8-2.9,2.1-2.4c0,0,0,0,0,0
				c0.5,0.2,0.9,0.4,1.2,1c0.4,0.8-0.1,2-0.3,2.8c-0.4,1.7,0.7,3.2,1.9,4.2c0.8,0.7,1.8,1.5,2.8,1.7c0.9,0.2,1.8,0,2.7,0
				c0.9,0,1.6,0.4,1.7,1.3c0.1,0.9-0.6,1.5-1.4,1.8c-0.8,0.2-3.8-1.2-3.8,0.3C93.2,39,93.3,41.7,91.3,40.4z"/>
			<path class="st13" d="M95.2,38.6c1.3,0.7,2.9,0.6,3.9-0.4c1.3-1.3,1.2-3.5-0.2-5c-1.4-1.5-3.6-1.7-5-0.4
				c-0.1,0.1-0.1,0.1-0.1,0.2l-3.5-3.7c0.1,0,0.1-0.1,0.2-0.1c1.3-1.3,1.2-3.5-0.2-5c-1.4-1.5-3.6-1.7-5-0.4c-1,1-1.2,2.5-0.5,3.9
				c-1.3-0.7-2.9-0.6-3.9,0.4c-1.3,1.3-1.2,3.5,0.2,5c1.4,1.5,3.6,1.7,5,0.4c0,0,0.1-0.1,0.1-0.2l3.5,3.7c-0.1,0-0.1,0.1-0.2,0.1
				c-1.3,1.3-1.2,3.5,0.2,5c1.4,1.5,3.6,1.7,5,0.4C95.7,41.5,95.9,40,95.2,38.6z M93.5,41.9c-0.4,0.3-0.9,0.4-1.4,0.3
				c-1.6-0.2-2.6-2.1-2.5-3.6c0.1-1,0.9-1.5,0.6-2.5c-0.2-0.7-1.1-1.5-1.6-2c-0.7-0.7-1-1.3-2.4-1.5c-0.8-0.1-1.5,0.5-2.3,0.6
				c-0.8,0-1.6-0.4-2.1-1c-0.7-1-0.9-2.7,0.2-3.5c0.7-0.5,1.7-0.6,2.5-0.5c0.8,0.1,1.1-0.1,1-1c-0.1-0.8-0.4-1.6,0-2.4
				c0.4-0.8,1.5-1.3,2.4-1.2c1.5,0.2,2.5,1.6,2.5,3c0,0.9,0,0.8-0.5,1.6c-0.7,1.2,0.4,2.7,1.1,3.3c1.1,1,2.2,2.5,3.8,2.1
				c1.2-0.3,1.6-1,3.5,0.2c0.8,0.6,1.3,2.3,0.5,3.3c-1.3,1.5-2.6,0.4-3.9,0.5c-1.3,0.1-0.6,2.1-0.7,2.8
				C94.1,41.2,93.8,41.6,93.5,41.9z"/>
		</g>
		<g>
			<path class="st11" d="M87.6,25.6c1.3,0.7,2.9,0.6,3.9-0.4c1.3-1.3,1.2-3.5-0.2-5c-1.4-1.5-3.6-1.7-5-0.4
				c-0.1,0.1-0.1,0.1-0.1,0.2l-3.5-3.7c0.1,0,0.1-0.1,0.2-0.1c1.3-1.3,1.2-3.5-0.2-5c-1.4-1.5-3.6-1.7-5-0.4c-1,1-1.2,2.5-0.5,3.9
				c-1.3-0.7-2.9-0.6-3.9,0.4c-1.3,1.3-1.2,3.5,0.2,5c1.4,1.5,3.6,1.7,5,0.4c0.1,0,0.1-0.1,0.1-0.2l3.5,3.7c-0.1,0-0.1,0.1-0.2,0.1
				c-1.3,1.3-1.2,3.5,0.2,5c1.4,1.5,3.6,1.7,5,0.4C88.1,28.5,88.2,26.9,87.6,25.6z"/>
			<path class="st12" d="M86.7,23.2c0.6,0.1,3.9,1,3.3-0.6c-0.4-1-1.7-0.6-2.5-0.6c-0.6,0-1.2-0.1-1.8-0.3c-1.9-0.8-3.9-2.4-4.9-4.4
				c-0.3-0.6-0.1-1.4,0-2.1c0.1-0.6,0.4-1.5,0.2-2.1c-0.1-0.4-0.6-0.8-1.1-0.8c-0.6,0.1-0.8,1-0.7,1.5c0.1,0.4,0.2,0.9,0.3,1.3
				c0.1,0.8-0.1,1.4-0.9,1.8c-0.8,0.3-1.6-0.1-2.4-0.2c-0.8,0-1.5,1.5-0.3,1.7c0.4,0.1,0.8,0.1,1.2,0c0.5-0.1,1-0.3,1.5-0.2
				c0.9,0.1,1.6,0.5,2.3,1.1c0.9,0.7,1.9,1.5,2.5,2.5c0.5,0.9,0.5,1.7,0.4,2.7c-0.1,0.6-0.2,1.3,0,1.9c0.7,1.8,1,0.1,1-0.3
				C84.8,24.7,84.8,23,86.7,23.2z"/>
			<path class="st13" d="M87.6,25.6c1.3,0.7,2.9,0.6,3.9-0.4c1.3-1.3,1.2-3.5-0.2-5c-1.4-1.5-3.6-1.7-5-0.4
				c-0.1,0.1-0.1,0.1-0.1,0.2l-3.5-3.7c0.1,0,0.1-0.1,0.2-0.1c1.3-1.3,1.2-3.5-0.2-5c-1.4-1.5-3.6-1.7-5-0.4c-1,1-1.2,2.5-0.5,3.9
				c-1.3-0.7-2.9-0.6-3.9,0.4c-1.3,1.3-1.2,3.5,0.2,5c1.4,1.5,3.6,1.7,5,0.4c0.1,0,0.1-0.1,0.1-0.2l3.5,3.7c-0.1,0-0.1,0.1-0.2,0.1
				c-1.3,1.3-1.2,3.5,0.2,5c1.4,1.5,3.6,1.7,5,0.4C88.1,28.5,88.2,26.9,87.6,25.6z M83.7,27.4c-1-0.6-0.8-2.1-0.7-3
				c0.1-0.8,0.2-1.6-0.3-2.3c-0.5-0.7-1.2-1.2-1.8-1.8c-0.8-0.7-1.7-1.5-2.9-1.3c-0.6,0.1-1.2,0.3-1.9,0.3c-0.9,0-1.7-0.8-1.6-1.7
				c0.1-0.9,0.5-1.6,1.5-1.6c0.5,0,1,0.1,1.5,0.2c1.7,0.3,1.2-1.2,1.1-2.1c-0.3-1.4,0.8-2.9,2.1-2.4c0,0,0,0,0,0
				c0.5,0.2,0.9,0.4,1.2,1c0.4,0.8-0.1,2-0.3,2.8c-0.4,1.7,0.7,3.2,1.9,4.2c0.8,0.7,1.8,1.5,2.8,1.7c0.9,0.2,1.8,0,2.7,0
				c0.9,0,1.6,0.4,1.7,1.3c0.1,0.9-0.6,1.5-1.4,1.8c-0.8,0.2-3.8-1.2-3.8,0.3C85.6,26,85.7,28.7,83.7,27.4z"/>
			<path class="st13" d="M87.6,25.6c1.3,0.7,2.9,0.6,3.9-0.4c1.3-1.3,1.2-3.5-0.2-5c-1.4-1.5-3.6-1.7-5-0.4
				c-0.1,0.1-0.1,0.1-0.1,0.2l-3.5-3.7c0.1,0,0.1-0.1,0.2-0.1c1.3-1.3,1.2-3.5-0.2-5c-1.4-1.5-3.6-1.7-5-0.4c-1,1-1.2,2.5-0.5,3.9
				c-1.3-0.7-2.9-0.6-3.9,0.4c-1.3,1.3-1.2,3.5,0.2,5c1.4,1.5,3.6,1.7,5,0.4c0.1,0,0.1-0.1,0.1-0.2l3.5,3.7c-0.1,0-0.1,0.1-0.2,0.1
				c-1.3,1.3-1.2,3.5,0.2,5c1.4,1.5,3.6,1.7,5,0.4C88.1,28.5,88.2,26.9,87.6,25.6z M85.8,28.8c-0.4,0.3-0.9,0.4-1.4,0.3
				c-1.6-0.2-2.6-2.1-2.5-3.6c0.1-1,0.9-1.5,0.6-2.5c-0.3-0.7-1.1-1.5-1.6-2c-0.7-0.7-1-1.3-2.4-1.5c-0.8-0.1-1.5,0.5-2.3,0.6
				c-0.8,0-1.6-0.4-2.1-1c-0.7-1-0.9-2.7,0.2-3.5c0.7-0.5,1.7-0.6,2.5-0.5c0.8,0.1,1.1-0.1,1-1c-0.1-0.8-0.4-1.6,0-2.4
				c0.4-0.8,1.5-1.3,2.4-1.2c1.5,0.2,2.5,1.6,2.5,3c0,0.9,0,0.8-0.5,1.6c-0.7,1.2,0.4,2.7,1.1,3.3c1.1,1,2.2,2.5,3.8,2.1
				c1.2-0.3,1.6-1,3.5,0.2c0.8,0.6,1.3,2.3,0.5,3.3c-1.3,1.5-2.6,0.4-3.9,0.5c-1.3,0.1-0.6,2.1-0.7,2.8
				C86.5,28.1,86.2,28.6,85.8,28.8z"/>
		</g>
		<g>
			<path class="st11" d="M105.9,29.2c1.5-0.2,2.7-1.2,2.9-2.6c0.3-1.8-1-3.5-3.1-3.9c-2-0.4-3.9,0.8-4.3,2.5c0,0.1,0,0.1,0,0.2
				l-5-0.9c0-0.1,0-0.1,0.1-0.2c0.3-1.8-1-3.5-3.1-3.9c-2-0.4-3.9,0.8-4.3,2.5c-0.3,1.4,0.5,2.7,1.8,3.5c-1.5,0.2-2.7,1.2-2.9,2.6
				c-0.3,1.8,1,3.5,3.1,3.9c2,0.4,3.9-0.8,4.3-2.5c0-0.1,0-0.1,0-0.2l5,0.9c0,0.1,0,0.1,0,0.2c-0.3,1.8,1,3.5,3.1,3.9
				c2,0.4,3.9-0.8,4.3-2.5C108,31.2,107.2,29.9,105.9,29.2z"/>
			<path class="st12" d="M103.7,27.7c0.6-0.3,3.8-1.4,2.3-2.4c-0.9-0.6-1.7,0.5-2.3,1c-0.5,0.4-1,0.7-1.6,0.8
				c-2.1,0.5-4.6,0.3-6.5-0.7c-0.6-0.3-0.9-1.1-1.2-1.7c-0.2-0.6-0.6-1.4-1.1-1.8c-0.4-0.2-1-0.3-1.3,0c-0.4,0.4-0.1,1.3,0.3,1.6
				c0.3,0.3,0.7,0.5,1,0.9c0.5,0.6,0.7,1.2,0.3,2c-0.4,0.7-1.4,0.9-2.1,1.3c-0.6,0.4-0.4,2.1,0.7,1.5c0.4-0.2,0.7-0.4,0.9-0.7
				c0.3-0.4,0.7-0.8,1.1-1.1c0.8-0.4,1.6-0.6,2.5-0.5c1.1,0.1,2.4,0.1,3.5,0.5c1,0.4,1.4,1.1,1.9,2c0.3,0.5,0.6,1.2,1.1,1.5
				c1.6,1.1,0.8-0.5,0.6-0.8C103.1,30,102.1,28.7,103.7,27.7z"/>
			<path class="st13" d="M105.9,29.2c1.5-0.2,2.7-1.2,2.9-2.6c0.3-1.8-1-3.5-3.1-3.9c-2-0.4-3.9,0.8-4.3,2.5c0,0.1,0,0.1,0,0.2
				l-5-0.9c0-0.1,0-0.1,0.1-0.2c0.3-1.8-1-3.5-3.1-3.9c-2-0.4-3.9,0.8-4.3,2.5c-0.3,1.4,0.5,2.7,1.8,3.5c-1.5,0.2-2.7,1.2-2.9,2.6
				c-0.3,1.8,1,3.5,3.1,3.9c2,0.4,3.9-0.8,4.3-2.5c0-0.1,0-0.1,0-0.2l5,0.9c0,0.1,0,0.1,0,0.2c-0.3,1.8,1,3.5,3.1,3.9
				c2,0.4,3.9-0.8,4.3-2.5C108,31.2,107.2,29.9,105.9,29.2z M103.8,32.9c-1.1,0.1-1.9-1.3-2.3-2.1c-0.4-0.7-0.8-1.4-1.6-1.7
				c-0.8-0.3-1.7-0.3-2.5-0.4c-1.1-0.1-2.3-0.2-3.1,0.7c-0.4,0.5-0.8,0.9-1.4,1.3c-0.8,0.5-1.8,0.3-2.3-0.5
				c-0.4-0.8-0.5-1.6,0.3-2.1c0.4-0.3,0.9-0.5,1.3-0.7c1.5-0.7,0.3-1.7-0.4-2.3c-1.1-1-1-2.8,0.3-3.1c0,0,0,0,0,0
				c0.6-0.2,1-0.2,1.5,0.1c0.8,0.4,1.1,1.6,1.4,2.4c0.6,1.6,2.4,2.2,4,2.3c1,0.1,2.3,0.1,3.3-0.3c0.9-0.4,1.5-1.1,2.2-1.6
				c0.7-0.6,1.5-0.6,2.2,0c0.6,0.6,0.4,1.6-0.1,2.2c-0.5,0.6-3.8,1.2-2.9,2.5C104.5,30.6,106.2,32.7,103.8,32.9z"/>
			<path class="st13" d="M105.9,29.2c1.5-0.2,2.7-1.2,2.9-2.6c0.3-1.8-1-3.5-3.1-3.9c-2-0.4-3.9,0.8-4.3,2.5c0,0.1,0,0.1,0,0.2
				l-5-0.9c0-0.1,0-0.1,0.1-0.2c0.3-1.8-1-3.5-3.1-3.9c-2-0.4-3.9,0.8-4.3,2.5c-0.3,1.4,0.5,2.7,1.8,3.5c-1.5,0.2-2.7,1.2-2.9,2.6
				c-0.3,1.8,1,3.5,3.1,3.9c2,0.4,3.9-0.8,4.3-2.5c0-0.1,0-0.1,0-0.2l5,0.9c0,0.1,0,0.1,0,0.2c-0.3,1.8,1,3.5,3.1,3.9
				c2,0.4,3.9-0.8,4.3-2.5C108,31.2,107.2,29.9,105.9,29.2z M106.4,32.8c-0.1,0.5-0.5,0.9-1,1.1c-1.4,0.7-3.3-0.1-4.1-1.4
				c-0.5-0.8-0.1-1.8-1-2.3c-0.6-0.4-1.8-0.6-2.5-0.7c-0.9-0.2-1.6-0.5-2.8,0.2c-0.7,0.4-0.9,1.3-1.5,1.8c-0.7,0.5-1.5,0.6-2.3,0.4
				c-1.1-0.4-2.3-1.6-1.9-2.9c0.3-0.9,1-1.4,1.8-1.9c0.7-0.4,0.9-0.8,0.2-1.4c-0.5-0.6-1.3-1.1-1.4-1.9c-0.1-0.9,0.4-1.9,1.2-2.3
				c1.3-0.7,3-0.2,3.8,1c0.5,0.7,0.5,0.7,0.5,1.5c0.1,1.4,1.9,1.9,2.9,2.1c1.5,0.2,3.2,0.8,4.3-0.5c0.8-0.9,0.7-1.8,2.9-1.9
				c1,0,2.4,1.1,2.3,2.4c-0.1,2-1.8,1.9-2.9,2.7c-1,0.8,0.7,2.1,1.1,2.7C106.5,31.9,106.5,32.4,106.4,32.8z"/>
		</g>
		<g>
			<path class="st11" d="M88.5,37c1.5-0.2,2.7-1.2,2.9-2.6c0.3-1.8-1-3.5-3.1-3.9c-2-0.4-3.9,0.8-4.3,2.5c0,0.1,0,0.1,0,0.2l-5-0.9
				c0-0.1,0-0.1,0-0.2c0.3-1.8-1-3.5-3.1-3.9c-2-0.4-3.9,0.8-4.3,2.5c-0.3,1.4,0.5,2.7,1.8,3.5c-1.5,0.2-2.7,1.2-2.9,2.6
				c-0.3,1.8,1,3.5,3.1,3.9c2,0.4,3.9-0.8,4.3-2.5c0-0.1,0-0.1,0-0.2l5,0.9c0,0.1,0,0.1-0.1,0.2c-0.3,1.8,1,3.5,3.1,3.9
				c2,0.4,3.9-0.8,4.3-2.5C90.6,39,89.8,37.7,88.5,37z"/>
			<path class="st12" d="M86.3,35.5c0.6-0.3,3.8-1.4,2.3-2.4c-0.9-0.6-1.7,0.5-2.3,1c-0.5,0.4-1,0.7-1.6,0.8
				c-2.1,0.5-4.6,0.3-6.5-0.7c-0.6-0.3-0.9-1.1-1.2-1.7c-0.2-0.6-0.6-1.4-1.1-1.8c-0.4-0.2-1-0.3-1.3,0c-0.4,0.4-0.1,1.3,0.3,1.6
				c0.3,0.3,0.7,0.6,1,0.9c0.5,0.6,0.7,1.2,0.3,2c-0.4,0.7-1.4,0.9-2.1,1.3c-0.6,0.4-0.4,2.1,0.7,1.5c0.4-0.2,0.7-0.4,0.9-0.7
				c0.3-0.4,0.7-0.8,1.1-1.1c0.8-0.4,1.6-0.6,2.5-0.5c1.1,0.1,2.4,0.1,3.5,0.5c1,0.4,1.4,1.1,1.9,2c0.3,0.5,0.6,1.2,1.1,1.5
				c1.6,1.1,0.8-0.5,0.6-0.8C85.7,37.8,84.7,36.5,86.3,35.5z"/>
			<path class="st13" d="M88.5,37c1.5-0.2,2.7-1.2,2.9-2.6c0.3-1.8-1-3.5-3.1-3.9c-2-0.4-3.9,0.8-4.3,2.5c0,0.1,0,0.1,0,0.2l-5-0.9
				c0-0.1,0-0.1,0-0.2c0.3-1.8-1-3.5-3.1-3.9c-2-0.4-3.9,0.8-4.3,2.5c-0.3,1.4,0.5,2.7,1.8,3.5c-1.5,0.2-2.7,1.2-2.9,2.6
				c-0.3,1.8,1,3.5,3.1,3.9c2,0.4,3.9-0.8,4.3-2.5c0-0.1,0-0.1,0-0.2l5,0.9c0,0.1,0,0.1-0.1,0.2c-0.3,1.8,1,3.5,3.1,3.9
				c2,0.4,3.9-0.8,4.3-2.5C90.6,39,89.8,37.7,88.5,37z M86.4,40.7c-1.1,0.1-1.9-1.3-2.3-2.1c-0.4-0.7-0.8-1.4-1.6-1.7
				c-0.8-0.3-1.7-0.3-2.5-0.4c-1.1-0.1-2.3-0.2-3.1,0.7c-0.4,0.5-0.8,0.9-1.4,1.3c-0.8,0.5-1.8,0.3-2.3-0.5
				c-0.4-0.7-0.5-1.6,0.3-2.1c0.4-0.3,0.9-0.5,1.3-0.7c1.5-0.7,0.3-1.7-0.4-2.3c-1.1-1-1-2.8,0.3-3.1c0,0,0,0,0,0
				c0.5-0.2,1-0.2,1.5,0.1c0.8,0.4,1.1,1.6,1.4,2.4c0.6,1.6,2.4,2.2,4,2.3c1,0.1,2.3,0.1,3.3-0.3c0.9-0.4,1.5-1.1,2.2-1.6
				c0.7-0.6,1.5-0.6,2.2,0c0.6,0.6,0.4,1.6-0.1,2.2c-0.5,0.6-3.8,1.2-2.9,2.5C87.1,38.4,88.7,40.5,86.4,40.7z"/>
			<path class="st13" d="M88.5,37c1.5-0.2,2.7-1.2,2.9-2.6c0.3-1.8-1-3.5-3.1-3.9c-2-0.4-3.9,0.8-4.3,2.5c0,0.1,0,0.1,0,0.2l-5-0.9
				c0-0.1,0-0.1,0-0.2c0.3-1.8-1-3.5-3.1-3.9c-2-0.4-3.9,0.8-4.3,2.5c-0.3,1.4,0.5,2.7,1.8,3.5c-1.5,0.2-2.7,1.2-2.9,2.6
				c-0.3,1.8,1,3.5,3.1,3.9c2,0.4,3.9-0.8,4.3-2.5c0-0.1,0-0.1,0-0.2l5,0.9c0,0.1,0,0.1-0.1,0.2c-0.3,1.8,1,3.5,3.1,3.9
				c2,0.4,3.9-0.8,4.3-2.5C90.6,39,89.8,37.7,88.5,37z M88.9,40.6c-0.1,0.5-0.5,0.9-1,1.1c-1.4,0.7-3.3-0.1-4.1-1.4
				c-0.5-0.8-0.1-1.8-1-2.3c-0.6-0.4-1.8-0.6-2.5-0.7c-0.9-0.2-1.6-0.5-2.8,0.2c-0.7,0.4-0.9,1.3-1.5,1.8c-0.6,0.5-1.5,0.6-2.3,0.4
				c-1.1-0.4-2.3-1.6-1.9-2.9c0.3-0.9,1-1.4,1.8-1.9c0.7-0.4,0.9-0.8,0.2-1.4c-0.5-0.6-1.3-1.1-1.4-1.9c-0.1-0.9,0.4-1.9,1.2-2.3
				c1.3-0.7,3-0.2,3.8,1c0.5,0.7,0.5,0.7,0.5,1.5c0.1,1.4,1.9,1.9,2.9,2.1c1.5,0.2,3.2,0.8,4.3-0.5c0.8-0.9,0.7-1.8,2.9-1.9
				c1,0,2.4,1.1,2.3,2.4c-0.1,2-1.8,1.9-2.9,2.7c-1,0.8,0.7,2.1,1.1,2.7C89,39.7,89.1,40.2,88.9,40.6z"/>
		</g>
		<g>
			<path class="st11" d="M81.2,26.6c1.5-0.2,2.7-1.2,2.9-2.6c0.3-1.8-1-3.5-3.1-3.9c-2-0.4-3.9,0.8-4.3,2.5c0,0.1,0,0.1,0,0.2
				l-5-0.9c0-0.1,0-0.1,0.1-0.2c0.3-1.8-1-3.5-3.1-3.9c-2-0.4-3.9,0.8-4.3,2.5c-0.3,1.4,0.5,2.7,1.8,3.5c-1.5,0.2-2.7,1.2-2.9,2.6
				c-0.3,1.8,1,3.5,3.1,3.9c2,0.4,3.9-0.8,4.3-2.5c0-0.1,0-0.1,0-0.2l5,0.9c0,0.1,0,0.1,0,0.2c-0.3,1.8,1,3.5,3.1,3.9
				c2,0.4,3.9-0.8,4.3-2.5C83.3,28.7,82.5,27.3,81.2,26.6z"/>
			<path class="st12" d="M79,25.1c0.6-0.3,3.8-1.4,2.3-2.4c-0.9-0.6-1.7,0.5-2.3,1c-0.5,0.4-1,0.7-1.6,0.8c-2.1,0.5-4.6,0.3-6.5-0.7
				c-0.6-0.3-0.9-1.1-1.2-1.7c-0.2-0.6-0.6-1.4-1.1-1.8c-0.4-0.2-1-0.3-1.3,0c-0.4,0.4-0.1,1.3,0.3,1.6c0.3,0.3,0.7,0.6,1,0.9
				c0.5,0.6,0.7,1.2,0.3,2c-0.4,0.7-1.4,0.9-2.1,1.3c-0.6,0.4-0.4,2.1,0.7,1.5c0.4-0.2,0.7-0.4,0.9-0.7c0.3-0.4,0.7-0.8,1.1-1.1
				c0.8-0.4,1.6-0.6,2.5-0.5c1.1,0.1,2.4,0.1,3.5,0.5c1,0.4,1.4,1.1,1.9,2c0.3,0.5,0.6,1.2,1.1,1.5c1.6,1.1,0.8-0.5,0.6-0.8
				C78.4,27.5,77.4,26.1,79,25.1z"/>
			<path class="st13" d="M81.2,26.6c1.5-0.2,2.7-1.2,2.9-2.6c0.3-1.8-1-3.5-3.1-3.9c-2-0.4-3.9,0.8-4.3,2.5c0,0.1,0,0.1,0,0.2
				l-5-0.9c0-0.1,0-0.1,0.1-0.2c0.3-1.8-1-3.5-3.1-3.9c-2-0.4-3.9,0.8-4.3,2.5c-0.3,1.4,0.5,2.7,1.8,3.5c-1.5,0.2-2.7,1.2-2.9,2.6
				c-0.3,1.8,1,3.5,3.1,3.9c2,0.4,3.9-0.8,4.3-2.5c0-0.1,0-0.1,0-0.2l5,0.9c0,0.1,0,0.1,0,0.2c-0.3,1.8,1,3.5,3.1,3.9
				c2,0.4,3.9-0.8,4.3-2.5C83.3,28.7,82.5,27.3,81.2,26.6z M79.1,30.3c-1.1,0.1-1.9-1.3-2.3-2.1c-0.4-0.7-0.8-1.4-1.6-1.7
				c-0.8-0.3-1.7-0.3-2.5-0.4c-1.1-0.1-2.3-0.2-3.1,0.7c-0.4,0.5-0.8,0.9-1.4,1.3c-0.8,0.5-1.8,0.3-2.3-0.5
				c-0.4-0.7-0.5-1.6,0.3-2.1c0.4-0.3,0.9-0.5,1.3-0.7c1.5-0.7,0.3-1.7-0.4-2.3c-1.1-1-1-2.8,0.3-3.1c0,0,0,0,0,0
				c0.5-0.2,1-0.2,1.5,0.1c0.8,0.4,1.1,1.6,1.4,2.4c0.6,1.6,2.5,2.2,4,2.3c1,0.1,2.3,0.1,3.3-0.3c0.9-0.4,1.5-1.1,2.2-1.6
				c0.7-0.6,1.5-0.6,2.2,0c0.6,0.6,0.4,1.6-0.1,2.2c-0.5,0.6-3.8,1.2-2.9,2.5C79.8,28,81.5,30.2,79.1,30.3z"/>
			<path class="st13" d="M81.2,26.6c1.5-0.2,2.7-1.2,2.9-2.6c0.3-1.8-1-3.5-3.1-3.9c-2-0.4-3.9,0.8-4.3,2.5c0,0.1,0,0.1,0,0.2
				l-5-0.9c0-0.1,0-0.1,0.1-0.2c0.3-1.8-1-3.5-3.1-3.9c-2-0.4-3.9,0.8-4.3,2.5c-0.3,1.4,0.5,2.7,1.8,3.5c-1.5,0.2-2.7,1.2-2.9,2.6
				c-0.3,1.8,1,3.5,3.1,3.9c2,0.4,3.9-0.8,4.3-2.5c0-0.1,0-0.1,0-0.2l5,0.9c0,0.1,0,0.1,0,0.2c-0.3,1.8,1,3.5,3.1,3.9
				c2,0.4,3.9-0.8,4.3-2.5C83.3,28.7,82.5,27.3,81.2,26.6z M81.7,30.2c-0.1,0.5-0.5,0.9-1,1.1c-1.4,0.7-3.3-0.1-4.1-1.4
				c-0.5-0.8-0.1-1.8-1-2.3c-0.6-0.4-1.8-0.6-2.5-0.7c-0.9-0.2-1.6-0.5-2.8,0.2c-0.7,0.4-0.9,1.3-1.5,1.8c-0.6,0.5-1.5,0.6-2.3,0.4
				c-1.1-0.4-2.3-1.6-1.9-2.9c0.3-0.9,1-1.4,1.8-1.9c0.7-0.4,0.9-0.8,0.2-1.4c-0.5-0.6-1.3-1.1-1.4-1.9c-0.1-0.9,0.4-1.9,1.2-2.3
				c1.3-0.7,3-0.2,3.8,1c0.5,0.7,0.5,0.7,0.5,1.5c0.1,1.4,1.9,1.9,2.9,2.1c1.5,0.2,3.2,0.8,4.3-0.5c0.8-0.9,0.7-1.8,2.9-1.9
				c1,0,2.4,1.1,2.3,2.4c-0.1,2-1.8,1.9-2.9,2.7c-1,0.8,0.7,2.1,1.1,2.7C81.8,29.3,81.8,29.8,81.7,30.2z"/>
		</g>
		<g>
			<path class="st11" d="M126.8,23.8c1.5-0.2,2.7-1.2,2.9-2.6c0.3-1.8-1-3.5-3.1-3.9c-2-0.4-3.9,0.8-4.3,2.5c0,0.1,0,0.1,0,0.2
				l-5-0.9c0-0.1,0-0.1,0.1-0.2c0.3-1.8-1-3.5-3.1-3.9c-2-0.4-3.9,0.8-4.3,2.5c-0.3,1.4,0.5,2.7,1.8,3.5c-1.5,0.2-2.7,1.2-2.9,2.6
				c-0.3,1.8,1,3.5,3.1,3.9c2,0.4,3.9-0.8,4.3-2.5c0-0.1,0-0.1,0-0.2l5,0.9c0,0.1,0,0.1,0,0.2c-0.3,1.8,1,3.5,3.1,3.9
				c2,0.4,3.9-0.8,4.3-2.5C128.9,25.9,128.1,24.5,126.8,23.8z"/>
			<path class="st12" d="M124.6,22.4c0.6-0.3,3.8-1.4,2.3-2.4c-0.9-0.6-1.7,0.5-2.3,1c-0.5,0.4-1,0.7-1.6,0.8
				c-2.1,0.5-4.6,0.3-6.5-0.7c-0.6-0.3-0.9-1.1-1.2-1.7c-0.2-0.5-0.6-1.4-1.1-1.8c-0.4-0.2-1-0.3-1.3,0c-0.4,0.4-0.1,1.3,0.3,1.6
				c0.3,0.3,0.7,0.5,1,0.9c0.5,0.6,0.7,1.2,0.3,2c-0.4,0.7-1.4,0.9-2.1,1.3c-0.6,0.4-0.4,2.1,0.7,1.5c0.4-0.2,0.7-0.4,0.9-0.7
				c0.3-0.4,0.7-0.8,1.1-1.1c0.8-0.4,1.6-0.6,2.5-0.5c1.1,0.1,2.4,0.1,3.5,0.5c1,0.4,1.4,1.1,1.9,2c0.3,0.5,0.6,1.2,1.1,1.5
				c1.6,1.1,0.8-0.5,0.6-0.8C124,24.7,123,23.3,124.6,22.4z"/>
			<path class="st13" d="M126.8,23.8c1.5-0.2,2.7-1.2,2.9-2.6c0.3-1.8-1-3.5-3.1-3.9c-2-0.4-3.9,0.8-4.3,2.5c0,0.1,0,0.1,0,0.2
				l-5-0.9c0-0.1,0-0.1,0.1-0.2c0.3-1.8-1-3.5-3.1-3.9c-2-0.4-3.9,0.8-4.3,2.5c-0.3,1.4,0.5,2.7,1.8,3.5c-1.5,0.2-2.7,1.2-2.9,2.6
				c-0.3,1.8,1,3.5,3.1,3.9c2,0.4,3.9-0.8,4.3-2.5c0-0.1,0-0.1,0-0.2l5,0.9c0,0.1,0,0.1,0,0.2c-0.3,1.8,1,3.5,3.1,3.9
				c2,0.4,3.9-0.8,4.3-2.5C128.9,25.9,128.1,24.5,126.8,23.8z M124.7,27.5c-1.1,0.1-1.9-1.3-2.3-2.1c-0.4-0.7-0.8-1.4-1.6-1.7
				c-0.8-0.3-1.7-0.3-2.5-0.4c-1.1-0.1-2.3-0.2-3.1,0.7c-0.4,0.5-0.8,0.9-1.4,1.3c-0.8,0.5-1.8,0.3-2.3-0.5
				c-0.4-0.7-0.5-1.6,0.3-2.1c0.4-0.3,0.9-0.4,1.3-0.7c1.5-0.7,0.3-1.7-0.4-2.3c-1.1-1-1-2.8,0.3-3.1c0,0,0,0,0,0
				c0.5-0.2,1-0.2,1.5,0.1c0.8,0.4,1.1,1.6,1.4,2.4c0.6,1.6,2.4,2.2,4,2.3c1,0.1,2.3,0.1,3.3-0.3c0.9-0.4,1.5-1.1,2.2-1.6
				c0.7-0.6,1.5-0.6,2.2,0c0.6,0.6,0.4,1.6-0.1,2.2c-0.5,0.6-3.8,1.2-2.9,2.5C125.4,25.3,127,27.4,124.7,27.5z"/>
			<path class="st13" d="M126.8,23.8c1.5-0.2,2.7-1.2,2.9-2.6c0.3-1.8-1-3.5-3.1-3.9c-2-0.4-3.9,0.8-4.3,2.5c0,0.1,0,0.1,0,0.2
				l-5-0.9c0-0.1,0-0.1,0.1-0.2c0.3-1.8-1-3.5-3.1-3.9c-2-0.4-3.9,0.8-4.3,2.5c-0.3,1.4,0.5,2.7,1.8,3.5c-1.5,0.2-2.7,1.2-2.9,2.6
				c-0.3,1.8,1,3.5,3.1,3.9c2,0.4,3.9-0.8,4.3-2.5c0-0.1,0-0.1,0-0.2l5,0.9c0,0.1,0,0.1,0,0.2c-0.3,1.8,1,3.5,3.1,3.9
				c2,0.4,3.9-0.8,4.3-2.5C128.9,25.9,128.1,24.5,126.8,23.8z M127.2,27.4c-0.1,0.5-0.5,0.9-1,1.1c-1.4,0.7-3.3-0.1-4.1-1.4
				c-0.5-0.8-0.1-1.8-1-2.3c-0.6-0.4-1.8-0.6-2.5-0.7c-0.9-0.2-1.6-0.5-2.8,0.2c-0.7,0.4-0.9,1.3-1.5,1.8c-0.6,0.5-1.5,0.6-2.3,0.4
				c-1.1-0.4-2.3-1.6-1.9-2.9c0.3-0.9,1-1.4,1.8-1.9c0.7-0.4,0.9-0.8,0.2-1.4c-0.5-0.6-1.3-1.1-1.4-1.9c-0.1-0.9,0.4-1.9,1.2-2.3
				c1.3-0.7,3-0.2,3.8,1c0.5,0.7,0.5,0.7,0.5,1.5c0.1,1.4,1.9,1.9,2.9,2.1c1.5,0.2,3.2,0.8,4.3-0.5c0.8-0.9,0.7-1.8,2.9-1.9
				c1,0,2.4,1.1,2.3,2.4c-0.1,2-1.8,1.9-2.9,2.7c-1,0.8,0.7,2.1,1.1,2.7C127.3,26.5,127.4,27,127.2,27.4z"/>
		</g>
		<g>
			<path class="st11" d="M101.5,19.5c1.5-0.2,2.7-1.2,2.9-2.6c0.3-1.8-1-3.5-3.1-3.9c-2-0.4-3.9,0.8-4.3,2.5c0,0.1,0,0.1,0,0.2
				l-5-0.9c0-0.1,0-0.1,0.1-0.2c0.3-1.8-1-3.5-3.1-3.9c-2-0.4-3.9,0.8-4.3,2.5c-0.3,1.4,0.5,2.7,1.8,3.5c-1.5,0.2-2.7,1.2-2.9,2.6
				c-0.3,1.8,1,3.5,3.1,3.9c2,0.4,3.9-0.8,4.3-2.5c0-0.1,0-0.1,0-0.2l5,0.9c0,0.1,0,0.1,0,0.2c-0.3,1.8,1,3.5,3.1,3.9
				c2,0.4,3.9-0.8,4.3-2.5C103.6,21.6,102.8,20.2,101.5,19.5z"/>
			<path class="st12" d="M99.3,18.1c0.6-0.3,3.8-1.4,2.3-2.4c-0.9-0.6-1.7,0.5-2.3,1c-0.5,0.4-1,0.7-1.6,0.8
				c-2.1,0.5-4.6,0.3-6.5-0.7c-0.6-0.3-0.9-1.1-1.2-1.7c-0.2-0.6-0.6-1.4-1.1-1.8c-0.4-0.2-1-0.3-1.3,0c-0.4,0.4-0.1,1.3,0.3,1.6
				c0.3,0.3,0.7,0.5,1,0.9c0.5,0.6,0.7,1.2,0.3,2c-0.4,0.7-1.4,0.9-2.1,1.3c-0.6,0.4-0.4,2.1,0.7,1.5c0.4-0.2,0.7-0.4,0.9-0.7
				c0.3-0.4,0.7-0.8,1.1-1.1c0.8-0.4,1.6-0.6,2.5-0.5c1.1,0.1,2.4,0.1,3.5,0.5c1,0.4,1.4,1.1,1.9,2c0.3,0.5,0.6,1.2,1.1,1.5
				c1.6,1.1,0.8-0.5,0.6-0.8C98.7,20.4,97.7,19,99.3,18.1z"/>
			<path class="st13" d="M101.5,19.5c1.5-0.2,2.7-1.2,2.9-2.6c0.3-1.8-1-3.5-3.1-3.9c-2-0.4-3.9,0.8-4.3,2.5c0,0.1,0,0.1,0,0.2
				l-5-0.9c0-0.1,0-0.1,0.1-0.2c0.3-1.8-1-3.5-3.1-3.9c-2-0.4-3.9,0.8-4.3,2.5c-0.3,1.4,0.5,2.7,1.8,3.5c-1.5,0.2-2.7,1.2-2.9,2.6
				c-0.3,1.8,1,3.5,3.1,3.9c2,0.4,3.9-0.8,4.3-2.5c0-0.1,0-0.1,0-0.2l5,0.9c0,0.1,0,0.1,0,0.2c-0.3,1.8,1,3.5,3.1,3.9
				c2,0.4,3.9-0.8,4.3-2.5C103.6,21.6,102.8,20.2,101.5,19.5z M99.4,23.2c-1.1,0.1-1.9-1.3-2.3-2.1c-0.4-0.7-0.8-1.4-1.6-1.7
				c-0.8-0.3-1.7-0.3-2.5-0.4c-1.1-0.1-2.3-0.2-3.1,0.7c-0.4,0.5-0.8,0.9-1.4,1.3c-0.8,0.5-1.8,0.3-2.3-0.5
				c-0.4-0.7-0.5-1.6,0.3-2.1c0.4-0.3,0.9-0.5,1.3-0.7c1.5-0.7,0.3-1.7-0.4-2.3c-1.1-1-1-2.8,0.3-3.1c0,0,0,0,0,0
				c0.6-0.1,1-0.2,1.5,0.1c0.8,0.4,1.1,1.6,1.4,2.4c0.6,1.6,2.4,2.2,4,2.3c1,0.1,2.3,0.1,3.3-0.3c0.9-0.4,1.5-1.1,2.2-1.6
				c0.7-0.6,1.5-0.6,2.2,0c0.6,0.6,0.4,1.6-0.1,2.2c-0.5,0.6-3.8,1.2-2.9,2.5C100.1,20.9,101.8,23.1,99.4,23.2z"/>
			<path class="st13" d="M101.5,19.5c1.5-0.2,2.7-1.2,2.9-2.6c0.3-1.8-1-3.5-3.1-3.9c-2-0.4-3.9,0.8-4.3,2.5c0,0.1,0,0.1,0,0.2
				l-5-0.9c0-0.1,0-0.1,0.1-0.2c0.3-1.8-1-3.5-3.1-3.9c-2-0.4-3.9,0.8-4.3,2.5c-0.3,1.4,0.5,2.7,1.8,3.5c-1.5,0.2-2.7,1.2-2.9,2.6
				c-0.3,1.8,1,3.5,3.1,3.9c2,0.4,3.9-0.8,4.3-2.5c0-0.1,0-0.1,0-0.2l5,0.9c0,0.1,0,0.1,0,0.2c-0.3,1.8,1,3.5,3.1,3.9
				c2,0.4,3.9-0.8,4.3-2.5C103.6,21.6,102.8,20.2,101.5,19.5z M102,23.1c-0.1,0.5-0.5,0.9-1,1.1c-1.4,0.7-3.3-0.1-4.1-1.4
				c-0.5-0.8-0.1-1.8-1-2.3c-0.6-0.4-1.8-0.6-2.5-0.7c-0.9-0.2-1.6-0.5-2.8,0.2c-0.7,0.4-0.9,1.3-1.5,1.8c-0.6,0.5-1.5,0.6-2.3,0.4
				c-1.1-0.4-2.3-1.6-1.9-2.9c0.3-0.9,1-1.4,1.8-1.9c0.7-0.4,0.9-0.8,0.2-1.4c-0.5-0.6-1.3-1.1-1.4-1.9c-0.1-0.9,0.4-1.9,1.2-2.3
				c1.3-0.7,3-0.2,3.8,1c0.5,0.7,0.5,0.7,0.5,1.5c0.1,1.4,1.9,1.9,2.9,2.1c1.5,0.2,3.2,0.8,4.3-0.5c0.8-0.9,0.7-1.8,2.9-1.9
				c1,0,2.4,1.1,2.3,2.4c-0.1,2-1.8,1.9-2.9,2.7c-1,0.8,0.7,2.1,1.1,2.7C102.1,22.2,102.1,22.7,102,23.1z"/>
		</g>
		<g>
			<path class="st11" d="M110.3,35.5c1.5-0.2,2.7-1.2,2.9-2.6c0.3-1.8-1-3.5-3.1-3.9c-2-0.4-3.9,0.8-4.3,2.5c0,0.1,0,0.1,0,0.2
				l-5-0.9c0-0.1,0-0.1,0.1-0.2c0.3-1.8-1-3.5-3.1-3.9c-2-0.4-3.9,0.8-4.3,2.5c-0.3,1.4,0.5,2.7,1.8,3.5C94,33,92.8,34,92.5,35.3
				c-0.3,1.8,1,3.5,3.1,3.9c2,0.4,3.9-0.8,4.3-2.5c0-0.1,0-0.1,0-0.2l5,0.9c0,0.1,0,0.1,0,0.2c-0.3,1.8,1,3.5,3.1,3.9
				c2,0.4,3.9-0.8,4.3-2.5C112.4,37.6,111.6,36.2,110.3,35.5z"/>
			<path class="st12" d="M108.1,34.1c0.6-0.3,3.8-1.4,2.3-2.4c-0.9-0.6-1.7,0.5-2.3,1c-0.5,0.4-1,0.7-1.6,0.8
				c-2.1,0.5-4.6,0.3-6.5-0.7c-0.6-0.3-0.9-1.1-1.2-1.7c-0.2-0.6-0.6-1.4-1.1-1.8c-0.4-0.2-1-0.3-1.3,0c-0.4,0.4-0.1,1.3,0.3,1.6
				c0.3,0.3,0.7,0.5,1,0.9c0.5,0.6,0.7,1.2,0.3,2c-0.4,0.7-1.4,0.9-2.1,1.3c-0.6,0.4-0.4,2.1,0.7,1.5c0.4-0.2,0.7-0.4,0.9-0.7
				c0.3-0.4,0.7-0.8,1.1-1.1c0.8-0.4,1.6-0.6,2.5-0.5c1.1,0.1,2.4,0.1,3.5,0.5c1,0.4,1.4,1.1,1.9,2c0.3,0.5,0.6,1.2,1.1,1.5
				c1.6,1.1,0.8-0.5,0.6-0.8C107.5,36.4,106.5,35.1,108.1,34.1z"/>
			<path class="st13" d="M110.3,35.5c1.5-0.2,2.7-1.2,2.9-2.6c0.3-1.8-1-3.5-3.1-3.9c-2-0.4-3.9,0.8-4.3,2.5c0,0.1,0,0.1,0,0.2
				l-5-0.9c0-0.1,0-0.1,0.1-0.2c0.3-1.8-1-3.5-3.1-3.9c-2-0.4-3.9,0.8-4.3,2.5c-0.3,1.4,0.5,2.7,1.8,3.5C94,33,92.8,34,92.5,35.3
				c-0.3,1.8,1,3.5,3.1,3.9c2,0.4,3.9-0.8,4.3-2.5c0-0.1,0-0.1,0-0.2l5,0.9c0,0.1,0,0.1,0,0.2c-0.3,1.8,1,3.5,3.1,3.9
				c2,0.4,3.9-0.8,4.3-2.5C112.4,37.6,111.6,36.2,110.3,35.5z M108.2,39.3c-1.1,0.1-1.9-1.3-2.3-2.1c-0.4-0.7-0.8-1.4-1.6-1.7
				c-0.8-0.3-1.7-0.3-2.5-0.4c-1.1-0.1-2.3-0.2-3.1,0.7c-0.4,0.5-0.8,0.9-1.4,1.3c-0.8,0.5-1.8,0.3-2.3-0.5
				c-0.4-0.7-0.5-1.6,0.3-2.1c0.4-0.3,0.9-0.5,1.3-0.7c1.5-0.7,0.3-1.7-0.4-2.3c-1.1-1-1-2.8,0.3-3.1c0,0,0,0,0,0
				c0.5-0.2,1-0.2,1.5,0.1c0.8,0.4,1.1,1.6,1.4,2.4c0.7,1.6,2.4,2.2,4,2.3c1,0.1,2.3,0.2,3.3-0.3c0.9-0.4,1.5-1.1,2.2-1.6
				c0.7-0.6,1.5-0.6,2.2,0c0.6,0.6,0.4,1.6-0.1,2.2c-0.5,0.6-3.8,1.2-2.9,2.5C108.9,37,110.6,39.1,108.2,39.3z"/>
			<path class="st13" d="M110.3,35.5c1.5-0.2,2.7-1.2,2.9-2.6c0.3-1.8-1-3.5-3.1-3.9c-2-0.4-3.9,0.8-4.3,2.5c0,0.1,0,0.1,0,0.2
				l-5-0.9c0-0.1,0-0.1,0.1-0.2c0.3-1.8-1-3.5-3.1-3.9c-2-0.4-3.9,0.8-4.3,2.5c-0.3,1.4,0.5,2.7,1.8,3.5C94,33,92.8,34,92.5,35.3
				c-0.3,1.8,1,3.5,3.1,3.9c2,0.4,3.9-0.8,4.3-2.5c0-0.1,0-0.1,0-0.2l5,0.9c0,0.1,0,0.1,0,0.2c-0.3,1.8,1,3.5,3.1,3.9
				c2,0.4,3.9-0.8,4.3-2.5C112.4,37.6,111.6,36.2,110.3,35.5z M110.8,39.2c-0.1,0.5-0.5,0.9-1,1.1c-1.4,0.7-3.3-0.1-4.1-1.4
				c-0.5-0.8-0.1-1.8-1-2.3c-0.6-0.4-1.8-0.6-2.5-0.7c-0.9-0.2-1.6-0.5-2.8,0.2c-0.7,0.4-0.9,1.3-1.5,1.8c-0.6,0.5-1.5,0.6-2.3,0.4
				c-1.1-0.4-2.3-1.6-1.9-2.9c0.3-0.9,1-1.4,1.8-1.9c0.7-0.4,0.9-0.8,0.2-1.4c-0.5-0.6-1.3-1.1-1.4-1.9c-0.1-0.9,0.4-1.9,1.2-2.3
				c1.3-0.7,3-0.2,3.8,1c0.5,0.7,0.5,0.7,0.5,1.5c0.1,1.4,1.9,1.9,2.9,2.1c1.5,0.2,3.2,0.8,4.3-0.5c0.8-0.9,0.7-1.8,2.9-1.9
				c1,0,2.4,1.1,2.3,2.4c-0.1,2-1.8,1.9-2.9,2.7c-1,0.8,0.7,2.1,1.1,2.7C110.9,38.3,110.9,38.7,110.8,39.2z"/>
		</g>
		<g>
			<path class="st11" d="M122.4,32.4c1.5-0.2,2.7-1.2,2.9-2.6c0.3-1.8-1-3.5-3.1-3.9c-2-0.4-3.9,0.8-4.3,2.5c0,0.1,0,0.1,0,0.2
				l-5-0.9c0-0.1,0-0.1,0.1-0.2c0.3-1.8-1-3.5-3.1-3.9c-2-0.4-3.9,0.8-4.3,2.5c-0.3,1.4,0.5,2.7,1.8,3.5c-1.5,0.2-2.7,1.2-2.9,2.6
				c-0.3,1.8,1,3.5,3.1,3.9c2,0.4,3.9-0.8,4.3-2.5c0-0.1,0-0.1,0-0.2l5,0.9c0,0.1,0,0.1,0,0.2c-0.3,1.8,1,3.5,3.1,3.9
				c2,0.4,3.9-0.8,4.3-2.5C124.5,34.5,123.7,33.2,122.4,32.4z"/>
			<path class="st12" d="M120.2,31c0.5-0.3,3.8-1.4,2.3-2.4c-0.9-0.6-1.7,0.5-2.3,1c-0.5,0.4-1,0.7-1.6,0.8
				c-2.1,0.5-4.6,0.3-6.5-0.7c-0.6-0.3-0.9-1.1-1.2-1.7c-0.2-0.6-0.6-1.4-1.1-1.8c-0.4-0.2-1-0.3-1.3,0c-0.4,0.4-0.1,1.3,0.3,1.6
				c0.3,0.3,0.7,0.6,1,0.9c0.5,0.6,0.7,1.2,0.3,2c-0.4,0.7-1.4,0.9-2.1,1.3c-0.6,0.4-0.4,2.1,0.7,1.5c0.4-0.2,0.7-0.4,0.9-0.7
				c0.3-0.4,0.7-0.8,1.1-1.1c0.8-0.4,1.6-0.6,2.5-0.5c1.1,0.1,2.4,0.1,3.5,0.5c1,0.4,1.4,1.1,1.9,2c0.3,0.5,0.6,1.2,1.1,1.5
				c1.6,1.1,0.8-0.5,0.6-0.8C119.6,33.3,118.6,32,120.2,31z"/>
			<path class="st13" d="M122.4,32.4c1.5-0.2,2.7-1.2,2.9-2.6c0.3-1.8-1-3.5-3.1-3.9c-2-0.4-3.9,0.8-4.3,2.5c0,0.1,0,0.1,0,0.2
				l-5-0.9c0-0.1,0-0.1,0.1-0.2c0.3-1.8-1-3.5-3.1-3.9c-2-0.4-3.9,0.8-4.3,2.5c-0.3,1.4,0.5,2.7,1.8,3.5c-1.5,0.2-2.7,1.2-2.9,2.6
				c-0.3,1.8,1,3.5,3.1,3.9c2,0.4,3.9-0.8,4.3-2.5c0-0.1,0-0.1,0-0.2l5,0.9c0,0.1,0,0.1,0,0.2c-0.3,1.8,1,3.5,3.1,3.9
				c2,0.4,3.9-0.8,4.3-2.5C124.5,34.5,123.7,33.2,122.4,32.4z M120.3,36.2c-1.1,0.1-1.9-1.3-2.3-2.1c-0.4-0.7-0.8-1.4-1.6-1.7
				c-0.8-0.3-1.7-0.3-2.5-0.4c-1.1-0.1-2.3-0.2-3.1,0.7c-0.4,0.5-0.8,0.9-1.4,1.3c-0.8,0.5-1.8,0.3-2.3-0.5
				c-0.4-0.7-0.5-1.6,0.3-2.1c0.4-0.3,0.9-0.4,1.3-0.7c1.5-0.7,0.3-1.7-0.4-2.3c-1.1-1-1-2.8,0.3-3.1c0,0,0,0,0,0
				c0.6-0.2,1-0.2,1.5,0.1c0.8,0.4,1.1,1.6,1.4,2.4c0.6,1.6,2.4,2.2,4,2.3c1,0.1,2.3,0.1,3.3-0.3c0.9-0.4,1.5-1.1,2.2-1.6
				c0.7-0.6,1.5-0.6,2.2,0c0.6,0.6,0.4,1.6-0.1,2.2c-0.5,0.6-3.8,1.2-2.9,2.5C121,33.9,122.6,36,120.3,36.2z"/>
			<path class="st13" d="M122.4,32.4c1.5-0.2,2.7-1.2,2.9-2.6c0.3-1.8-1-3.5-3.1-3.9c-2-0.4-3.9,0.8-4.3,2.5c0,0.1,0,0.1,0,0.2
				l-5-0.9c0-0.1,0-0.1,0.1-0.2c0.3-1.8-1-3.5-3.1-3.9c-2-0.4-3.9,0.8-4.3,2.5c-0.3,1.4,0.5,2.7,1.8,3.5c-1.5,0.2-2.7,1.2-2.9,2.6
				c-0.3,1.8,1,3.5,3.1,3.9c2,0.4,3.9-0.8,4.3-2.5c0-0.1,0-0.1,0-0.2l5,0.9c0,0.1,0,0.1,0,0.2c-0.3,1.8,1,3.5,3.1,3.9
				c2,0.4,3.9-0.8,4.3-2.5C124.5,34.5,123.7,33.2,122.4,32.4z M122.8,36.1c-0.1,0.5-0.5,0.9-1,1.1c-1.4,0.7-3.3-0.1-4.1-1.4
				c-0.5-0.8-0.1-1.8-1-2.3c-0.6-0.4-1.8-0.6-2.5-0.7c-0.9-0.2-1.6-0.5-2.8,0.2c-0.7,0.4-0.9,1.3-1.5,1.8c-0.6,0.5-1.5,0.6-2.3,0.4
				c-1.1-0.4-2.3-1.6-1.9-2.9c0.3-0.9,1-1.4,1.8-1.9c0.7-0.4,0.9-0.8,0.2-1.4c-0.5-0.6-1.3-1.1-1.4-1.9c-0.1-0.9,0.4-1.9,1.2-2.3
				c1.3-0.7,3-0.2,3.8,1c0.5,0.7,0.5,0.7,0.5,1.5c0.1,1.4,1.9,1.9,2.9,2.1c1.5,0.2,3.2,0.8,4.3-0.5c0.8-0.9,0.7-1.8,2.9-1.9
				c1,0,2.4,1.1,2.3,2.4c-0.1,2-1.8,1.9-2.9,2.7c-1,0.8,0.7,2.1,1.1,2.7C122.9,35.2,123,35.6,122.8,36.1z"/>
		</g>
		<g>
			<path class="st11" d="M120.8,23.7c1.5-0.2,2.7-1.2,2.9-2.6c0.3-1.8-1-3.5-3.1-3.9c-2-0.4-3.9,0.8-4.3,2.5c0,0.1,0,0.1,0,0.2
				l-5-0.9c0-0.1,0-0.1,0.1-0.2c0.3-1.8-1-3.5-3.1-3.9c-2-0.4-3.9,0.8-4.3,2.5c-0.3,1.4,0.5,2.7,1.8,3.5c-1.5,0.2-2.7,1.2-2.9,2.6
				c-0.3,1.8,1,3.5,3.1,3.9c2,0.4,3.9-0.8,4.3-2.5c0-0.1,0-0.1,0-0.2l5,0.9c0,0.1,0,0.1,0,0.2c-0.3,1.8,1,3.5,3.1,3.9
				c2,0.4,3.9-0.8,4.3-2.5C122.8,25.7,122.1,24.4,120.8,23.7z"/>
			<path class="st12" d="M118.6,22.2c0.6-0.3,3.8-1.4,2.3-2.4c-0.9-0.6-1.7,0.5-2.3,1c-0.5,0.4-1,0.7-1.6,0.8
				c-2.1,0.5-4.6,0.3-6.5-0.7c-0.6-0.3-0.9-1.1-1.2-1.7c-0.2-0.5-0.6-1.4-1.1-1.8c-0.4-0.2-1-0.3-1.3,0c-0.4,0.4-0.1,1.3,0.3,1.6
				c0.3,0.3,0.7,0.6,1,0.9c0.5,0.6,0.7,1.2,0.3,2c-0.4,0.7-1.4,0.9-2.1,1.3c-0.6,0.4-0.4,2.1,0.7,1.5c0.4-0.2,0.7-0.4,0.9-0.7
				c0.3-0.4,0.7-0.8,1.1-1.1c0.8-0.4,1.6-0.6,2.5-0.5c1.1,0.1,2.4,0.1,3.5,0.5c1,0.4,1.4,1.1,1.9,2c0.3,0.5,0.6,1.2,1.1,1.5
				c1.6,1.1,0.8-0.5,0.6-0.8C118,24.5,117,23.2,118.6,22.2z"/>
			<path class="st13" d="M120.8,23.7c1.5-0.2,2.7-1.2,2.9-2.6c0.3-1.8-1-3.5-3.1-3.9c-2-0.4-3.9,0.8-4.3,2.5c0,0.1,0,0.1,0,0.2
				l-5-0.9c0-0.1,0-0.1,0.1-0.2c0.3-1.8-1-3.5-3.1-3.9c-2-0.4-3.9,0.8-4.3,2.5c-0.3,1.4,0.5,2.7,1.8,3.5c-1.5,0.2-2.7,1.2-2.9,2.6
				c-0.3,1.8,1,3.5,3.1,3.9c2,0.4,3.9-0.8,4.3-2.5c0-0.1,0-0.1,0-0.2l5,0.9c0,0.1,0,0.1,0,0.2c-0.3,1.8,1,3.5,3.1,3.9
				c2,0.4,3.9-0.8,4.3-2.5C122.8,25.7,122.1,24.4,120.8,23.7z M118.7,27.4c-1.1,0.1-1.9-1.3-2.3-2.1c-0.4-0.7-0.8-1.4-1.6-1.7
				c-0.8-0.3-1.7-0.3-2.5-0.4c-1.1-0.1-2.3-0.2-3.1,0.7c-0.4,0.5-0.8,0.9-1.4,1.3c-0.8,0.5-1.8,0.3-2.3-0.5
				c-0.4-0.7-0.5-1.6,0.3-2.1c0.4-0.3,0.9-0.4,1.3-0.7c1.5-0.7,0.3-1.7-0.4-2.3c-1.1-1-1-2.8,0.3-3.1c0,0,0,0,0,0
				c0.5-0.2,1-0.2,1.5,0.1c0.8,0.4,1.1,1.6,1.4,2.4c0.6,1.6,2.5,2.2,4,2.3c1,0.1,2.3,0.1,3.3-0.3c0.9-0.4,1.5-1.1,2.2-1.6
				c0.7-0.6,1.5-0.6,2.2,0c0.6,0.6,0.4,1.6-0.1,2.2s-3.8,1.2-2.9,2.5C119.3,25.1,121,27.2,118.7,27.4z"/>
			<path class="st13" d="M120.8,23.7c1.5-0.2,2.7-1.2,2.9-2.6c0.3-1.8-1-3.5-3.1-3.9c-2-0.4-3.9,0.8-4.3,2.5c0,0.1,0,0.1,0,0.2
				l-5-0.9c0-0.1,0-0.1,0.1-0.2c0.3-1.8-1-3.5-3.1-3.9c-2-0.4-3.9,0.8-4.3,2.5c-0.3,1.4,0.5,2.7,1.8,3.5c-1.5,0.2-2.7,1.2-2.9,2.6
				c-0.3,1.8,1,3.5,3.1,3.9c2,0.4,3.9-0.8,4.3-2.5c0-0.1,0-0.1,0-0.2l5,0.9c0,0.1,0,0.1,0,0.2c-0.3,1.8,1,3.5,3.1,3.9
				c2,0.4,3.9-0.8,4.3-2.5C122.8,25.7,122.1,24.4,120.8,23.7z M121.2,27.3c-0.1,0.5-0.5,0.9-1,1.1c-1.4,0.7-3.3-0.1-4.1-1.4
				c-0.5-0.8-0.1-1.8-1-2.3c-0.6-0.4-1.8-0.6-2.5-0.7c-0.9-0.2-1.6-0.5-2.8,0.2c-0.7,0.4-0.9,1.3-1.5,1.8c-0.6,0.5-1.5,0.6-2.3,0.4
				c-1.1-0.4-2.3-1.6-1.9-2.9c0.3-0.9,1-1.4,1.8-1.9c0.7-0.4,0.9-0.8,0.2-1.4c-0.5-0.6-1.3-1.1-1.4-1.9c-0.1-0.9,0.4-1.9,1.2-2.3
				c1.3-0.7,3-0.2,3.8,1c0.5,0.7,0.5,0.7,0.5,1.5c0.1,1.4,1.9,1.9,2.9,2.1c1.5,0.2,3.2,0.8,4.3-0.5c0.8-0.9,0.7-1.8,2.9-1.9
				c1,0,2.4,1.1,2.3,2.4c-0.1,2-1.8,1.9-2.9,2.7c-1,0.8,0.7,2.1,1.1,2.7C121.3,26.4,121.4,26.9,121.2,27.3z"/>
		</g>
		<g>
			<path class="st11" d="M134.3,27.7c1.2-0.8,1.9-2.3,1.5-3.6c-0.5-1.7-2.5-2.7-4.5-2.2c-2,0.6-3.2,2.4-2.7,4.2c0,0.1,0,0.1,0.1,0.2
				l-4.9,1.4c0-0.1,0-0.1,0-0.2c-0.5-1.7-2.5-2.7-4.5-2.2c-2,0.6-3.2,2.4-2.7,4.2c0.4,1.4,1.7,2.2,3.2,2.3c-1.2,0.8-1.9,2.3-1.5,3.6
				c0.5,1.7,2.5,2.7,4.5,2.2c2-0.6,3.2-2.4,2.7-4.2c0-0.1,0-0.1-0.1-0.2l4.9-1.4c0,0.1,0,0.1,0,0.2c0.5,1.7,2.5,2.7,4.5,2.2
				c2-0.6,3.2-2.4,2.7-4.2C137.1,28.7,135.8,27.8,134.3,27.7z"/>
			<path class="st12" d="M131.7,27.4c0.4-0.5,2.8-2.9,1-3.2c-1.1-0.1-1.3,1.2-1.7,1.9c-0.3,0.5-0.6,1.1-1.1,1.5
				c-1.6,1.3-4,2.3-6.1,2.2c-0.7,0-1.3-0.6-1.8-1c-0.5-0.4-1.1-1-1.8-1.1c-0.4-0.1-1,0.2-1.2,0.6c-0.2,0.6,0.5,1.2,1,1.3
				c0.4,0.1,0.9,0.2,1.3,0.4c0.7,0.3,1.2,0.8,1.1,1.6c-0.1,0.8-0.9,1.4-1.3,2c-0.4,0.6,0.6,2.1,1.3,1.1c0.2-0.3,0.4-0.7,0.5-1.1
				c0.1-0.5,0.2-1,0.5-1.5c0.5-0.7,1.2-1.2,2-1.5c1-0.4,2.2-1,3.4-1c1,0,1.8,0.3,2.6,0.9c0.5,0.3,1.1,0.8,1.7,0.9
				c1.9,0.2,0.5-0.8,0.2-1C132.2,29.7,130.7,28.9,131.7,27.4z"/>
			<path class="st13" d="M134.3,27.7c1.2-0.8,1.9-2.3,1.5-3.6c-0.5-1.7-2.5-2.7-4.5-2.2c-2,0.6-3.2,2.4-2.7,4.2c0,0.1,0,0.1,0.1,0.2
				l-4.9,1.4c0-0.1,0-0.1,0-0.2c-0.5-1.7-2.5-2.7-4.5-2.2c-2,0.6-3.2,2.4-2.7,4.2c0.4,1.4,1.7,2.2,3.2,2.3c-1.2,0.8-1.9,2.3-1.5,3.6
				c0.5,1.7,2.5,2.7,4.5,2.2c2-0.6,3.2-2.4,2.7-4.2c0-0.1,0-0.1-0.1-0.2l4.9-1.4c0,0.1,0,0.1,0,0.2c0.5,1.7,2.5,2.7,4.5,2.2
				c2-0.6,3.2-2.4,2.7-4.2C137.1,28.7,135.8,27.8,134.3,27.7z M134.1,32c-1,0.6-2.2-0.3-3-0.8c-0.7-0.5-1.3-0.9-2.2-0.8
				c-0.9,0.1-1.6,0.4-2.4,0.7c-1,0.4-2.2,0.8-2.5,2c-0.2,0.6-0.3,1.2-0.6,1.8c-0.5,0.8-1.5,1.1-2.3,0.6c-0.7-0.5-1.2-1.2-0.7-2
				c0.3-0.4,0.6-0.8,0.9-1.2c1-1.3-0.5-1.7-1.4-1.9c-1.4-0.4-2.2-2.1-1.1-2.9c0,0,0,0,0,0c0.4-0.4,0.8-0.6,1.4-0.6
				c0.9,0,1.7,1,2.3,1.5c1.3,1.1,3.2,0.9,4.6,0.3c1-0.4,2.2-0.9,2.8-1.7c0.6-0.7,0.9-1.6,1.3-2.4c0.4-0.8,1.1-1.2,2-0.9
				c0.8,0.3,1.1,1.2,0.9,2c-0.2,0.8-2.9,2.8-1.5,3.5C133.7,29.6,136.1,30.8,134.1,32z"/>
			<path class="st13" d="M134.3,27.7c1.2-0.8,1.9-2.3,1.5-3.6c-0.5-1.7-2.5-2.7-4.5-2.2c-2,0.6-3.2,2.4-2.7,4.2c0,0.1,0,0.1,0.1,0.2
				l-4.9,1.4c0-0.1,0-0.1,0-0.2c-0.5-1.7-2.5-2.7-4.5-2.2c-2,0.6-3.2,2.4-2.7,4.2c0.4,1.4,1.7,2.2,3.2,2.3c-1.2,0.8-1.9,2.3-1.5,3.6
				c0.5,1.7,2.5,2.7,4.5,2.2c2-0.6,3.2-2.4,2.7-4.2c0-0.1,0-0.1-0.1-0.2l4.9-1.4c0,0.1,0,0.1,0,0.2c0.5,1.7,2.5,2.7,4.5,2.2
				c2-0.6,3.2-2.4,2.7-4.2C137.1,28.7,135.8,27.8,134.3,27.7z M136.3,30.8c0.1,0.5,0,1-0.4,1.4c-0.9,1.3-3,1.3-4.3,0.6
				c-0.8-0.5-0.9-1.5-1.9-1.7c-0.7-0.1-1.8,0.3-2.5,0.5c-0.9,0.3-1.6,0.2-2.4,1.4c-0.4,0.7-0.2,1.5-0.6,2.2
				c-0.4,0.7-1.1,1.2-1.9,1.3c-1.2,0.2-2.8-0.5-3-1.8c-0.1-0.9,0.3-1.7,0.8-2.5c0.5-0.7,0.4-1.1-0.4-1.4c-0.7-0.3-1.6-0.4-2.1-1.1
				c-0.5-0.8-0.4-1.9,0.1-2.6c0.8-1.2,2.6-1.5,3.9-0.8c0.8,0.4,0.7,0.4,1.2,1.1c0.7,1.2,2.5,0.9,3.5,0.6c1.4-0.5,3.2-0.7,3.7-2.3
				c0.3-1.1-0.1-1.9,1.8-3c0.9-0.5,2.7-0.1,3.1,1.1c0.8,1.9-0.8,2.5-1.4,3.7c-0.6,1.2,1.6,1.6,2.2,2C136,29.9,136.3,30.3,136.3,30.8
				z"/>
		</g>
		<g>
			<path class="st11" d="M117.9,32.6c1.2-0.8,1.9-2.3,1.5-3.6c-0.5-1.7-2.5-2.7-4.5-2.2c-2,0.6-3.2,2.4-2.7,4.2c0,0.1,0,0.1,0.1,0.2
				l-4.9,1.4c0-0.1,0-0.1,0-0.2c-0.5-1.7-2.5-2.7-4.5-2.2c-2,0.6-3.2,2.4-2.7,4.2c0.4,1.4,1.7,2.2,3.2,2.3c-1.2,0.8-1.9,2.3-1.5,3.6
				c0.5,1.7,2.5,2.7,4.5,2.2c2-0.6,3.2-2.4,2.7-4.2c0-0.1,0-0.1-0.1-0.2l4.9-1.4c0,0.1,0,0.1,0,0.2c0.5,1.7,2.5,2.7,4.5,2.2
				c2-0.6,3.2-2.4,2.7-4.2C120.7,33.6,119.4,32.7,117.9,32.6z"/>
			<path class="st12" d="M115.3,32.3c0.4-0.5,2.8-2.9,1-3.2c-1.1-0.1-1.3,1.2-1.7,1.9c-0.3,0.5-0.6,1.1-1.1,1.5
				c-1.6,1.3-4,2.3-6.1,2.2c-0.7,0-1.3-0.6-1.8-1c-0.5-0.4-1.1-1-1.8-1.1c-0.4-0.1-1,0.2-1.2,0.6c-0.2,0.6,0.5,1.2,1,1.3
				c0.4,0.1,0.9,0.2,1.3,0.4c0.7,0.3,1.2,0.8,1.1,1.6c-0.1,0.8-0.9,1.4-1.3,2.1c-0.4,0.6,0.6,2.1,1.3,1.1c0.2-0.3,0.4-0.7,0.5-1.1
				c0.1-0.5,0.2-1,0.5-1.5c0.5-0.7,1.2-1.2,2-1.5c1-0.4,2.2-1,3.3-1c1,0,1.8,0.3,2.6,0.9c0.5,0.3,1.1,0.8,1.7,0.9
				c1.9,0.2,0.5-0.8,0.2-1C115.8,34.6,114.3,33.9,115.3,32.3z"/>
			<path class="st13" d="M117.9,32.6c1.2-0.8,1.9-2.3,1.5-3.6c-0.5-1.7-2.5-2.7-4.5-2.2c-2,0.6-3.2,2.4-2.7,4.2c0,0.1,0,0.1,0.1,0.2
				l-4.9,1.4c0-0.1,0-0.1,0-0.2c-0.5-1.7-2.5-2.7-4.5-2.2c-2,0.6-3.2,2.4-2.7,4.2c0.4,1.4,1.7,2.2,3.2,2.3c-1.2,0.8-1.9,2.3-1.5,3.6
				c0.5,1.7,2.5,2.7,4.5,2.2c2-0.6,3.2-2.4,2.7-4.2c0-0.1,0-0.1-0.1-0.2l4.9-1.4c0,0.1,0,0.1,0,0.2c0.5,1.7,2.5,2.7,4.5,2.2
				c2-0.6,3.2-2.4,2.7-4.2C120.7,33.6,119.4,32.7,117.9,32.6z M117.7,36.9c-1,0.6-2.2-0.3-3-0.8c-0.7-0.5-1.3-0.9-2.2-0.8
				c-0.9,0.1-1.6,0.4-2.4,0.7c-1,0.4-2.2,0.8-2.5,2c-0.2,0.6-0.3,1.2-0.6,1.8c-0.5,0.8-1.5,1.1-2.3,0.6c-0.7-0.5-1.2-1.2-0.7-2
				c0.3-0.4,0.6-0.8,0.9-1.2c1-1.3-0.5-1.7-1.4-1.9c-1.4-0.4-2.2-2.1-1.1-2.9c0,0,0,0,0,0c0.4-0.4,0.8-0.6,1.4-0.6
				c0.9,0,1.7,1,2.3,1.5c1.3,1.1,3.2,0.9,4.6,0.3c1-0.4,2.2-0.9,2.8-1.7c0.6-0.7,0.9-1.6,1.3-2.4c0.4-0.8,1.1-1.2,2-0.9
				c0.8,0.3,1.1,1.2,0.9,2c-0.2,0.8-2.9,2.8-1.5,3.5C117.3,34.6,119.7,35.7,117.7,36.9z"/>
			<path class="st13" d="M117.9,32.6c1.2-0.8,1.9-2.3,1.5-3.6c-0.5-1.7-2.5-2.7-4.5-2.2c-2,0.6-3.2,2.4-2.7,4.2c0,0.1,0,0.1,0.1,0.2
				l-4.9,1.4c0-0.1,0-0.1,0-0.2c-0.5-1.7-2.5-2.7-4.5-2.2c-2,0.6-3.2,2.4-2.7,4.2c0.4,1.4,1.7,2.2,3.2,2.3c-1.2,0.8-1.9,2.3-1.5,3.6
				c0.5,1.7,2.5,2.7,4.5,2.2c2-0.6,3.2-2.4,2.7-4.2c0-0.1,0-0.1-0.1-0.2l4.9-1.4c0,0.1,0,0.1,0,0.2c0.5,1.7,2.5,2.7,4.5,2.2
				c2-0.6,3.2-2.4,2.7-4.2C120.7,33.6,119.4,32.7,117.9,32.6z M119.9,35.7c0.1,0.5,0,1-0.4,1.4c-0.9,1.3-3,1.3-4.3,0.5
				c-0.8-0.5-0.9-1.5-1.9-1.7c-0.7-0.1-1.8,0.3-2.5,0.5c-0.9,0.3-1.6,0.2-2.4,1.4c-0.4,0.7-0.2,1.5-0.6,2.2
				c-0.4,0.7-1.1,1.2-1.9,1.3c-1.2,0.2-2.8-0.5-3-1.8c-0.1-0.9,0.3-1.7,0.8-2.5c0.5-0.7,0.4-1.1-0.4-1.4c-0.7-0.3-1.6-0.4-2.1-1.1
				c-0.5-0.8-0.4-1.9,0.1-2.6c0.8-1.2,2.6-1.5,3.9-0.8c0.8,0.4,0.7,0.4,1.2,1.1c0.7,1.2,2.5,0.9,3.5,0.6c1.4-0.5,3.2-0.7,3.7-2.3
				c0.3-1.1-0.1-1.9,1.8-3c0.9-0.5,2.7-0.1,3.1,1.1c0.8,1.9-0.8,2.5-1.4,3.7c-0.6,1.2,1.6,1.6,2.2,2
				C119.6,34.8,119.9,35.2,119.9,35.7z"/>
		</g>
		<g>
			<path class="st11" d="M51.6,27.1c1.2-0.8,1.9-2.3,1.5-3.6c-0.5-1.7-2.5-2.7-4.5-2.2c-2,0.6-3.2,2.4-2.7,4.2c0,0.1,0,0.1,0.1,0.2
				l-4.9,1.4c0-0.1,0-0.1,0-0.2c-0.5-1.7-2.5-2.7-4.5-2.2c-2,0.6-3.2,2.4-2.7,4.2c0.4,1.4,1.7,2.2,3.2,2.3c-1.2,0.8-1.9,2.3-1.5,3.6
				c0.5,1.7,2.5,2.7,4.5,2.2c2-0.6,3.2-2.4,2.7-4.2c0-0.1,0-0.1-0.1-0.2l4.9-1.4c0,0.1,0,0.1,0,0.2c0.5,1.7,2.5,2.7,4.5,2.2
				c2-0.6,3.2-2.4,2.7-4.2C54.3,28,53.1,27.2,51.6,27.1z"/>
			<path class="st12" d="M49,26.8c0.4-0.5,2.8-2.9,1-3.2c-1.1-0.1-1.3,1.2-1.7,1.9C48,26,47.7,26.6,47.2,27c-1.6,1.3-4,2.3-6.1,2.2
				c-0.7,0-1.3-0.6-1.8-1c-0.5-0.4-1.1-1-1.8-1.1c-0.4-0.1-1,0.2-1.2,0.6c-0.2,0.6,0.5,1.2,1,1.3c0.4,0.1,0.9,0.2,1.3,0.4
				c0.7,0.3,1.2,0.8,1.1,1.6c-0.1,0.8-0.9,1.4-1.3,2C38,33.6,39,35,39.7,34c0.2-0.3,0.4-0.7,0.5-1.1c0.1-0.5,0.2-1,0.5-1.5
				c0.5-0.7,1.2-1.2,2-1.5c1-0.4,2.2-1,3.4-1c1,0,1.8,0.3,2.6,0.9c0.5,0.3,1.1,0.8,1.7,0.9c1.9,0.2,0.5-0.8,0.2-1
				C49.4,29.1,47.9,28.3,49,26.8z"/>
			<path class="st13" d="M51.6,27.1c1.2-0.8,1.9-2.3,1.5-3.6c-0.5-1.7-2.5-2.7-4.5-2.2c-2,0.6-3.2,2.4-2.7,4.2c0,0.1,0,0.1,0.1,0.2
				l-4.9,1.4c0-0.1,0-0.1,0-0.2c-0.5-1.7-2.5-2.7-4.5-2.2c-2,0.6-3.2,2.4-2.7,4.2c0.4,1.4,1.7,2.2,3.2,2.3c-1.2,0.8-1.9,2.3-1.5,3.6
				c0.5,1.7,2.5,2.7,4.5,2.2c2-0.6,3.2-2.4,2.7-4.2c0-0.1,0-0.1-0.1-0.2l4.9-1.4c0,0.1,0,0.1,0,0.2c0.5,1.7,2.5,2.7,4.5,2.2
				c2-0.6,3.2-2.4,2.7-4.2C54.3,28,53.1,27.2,51.6,27.1z M51.3,31.4c-1,0.6-2.2-0.3-3-0.8c-0.7-0.5-1.3-0.9-2.2-0.8
				c-0.9,0.1-1.6,0.4-2.4,0.7c-1,0.4-2.2,0.8-2.5,2c-0.2,0.6-0.3,1.2-0.6,1.8c-0.4,0.8-1.5,1.1-2.3,0.6c-0.7-0.5-1.2-1.2-0.7-2
				c0.3-0.4,0.6-0.8,0.9-1.2c1-1.3-0.5-1.7-1.4-1.9c-1.4-0.4-2.2-2.1-1.1-2.9c0,0,0,0,0,0c0.4-0.4,0.8-0.6,1.4-0.6
				c0.9,0,1.7,1,2.3,1.5c1.3,1.1,3.2,0.9,4.6,0.3c1-0.4,2.2-0.9,2.8-1.7c0.6-0.7,0.9-1.6,1.3-2.4c0.4-0.8,1.1-1.2,2-0.9
				c0.8,0.3,1.1,1.2,0.9,2c-0.2,0.8-2.9,2.8-1.5,3.5C50.9,29,53.4,30.2,51.3,31.4z"/>
			<path class="st13" d="M51.6,27.1c1.2-0.8,1.9-2.3,1.5-3.6c-0.5-1.7-2.5-2.7-4.5-2.2c-2,0.6-3.2,2.4-2.7,4.2c0,0.1,0,0.1,0.1,0.2
				l-4.9,1.4c0-0.1,0-0.1,0-0.2c-0.5-1.7-2.5-2.7-4.5-2.2c-2,0.6-3.2,2.4-2.7,4.2c0.4,1.4,1.7,2.2,3.2,2.3c-1.2,0.8-1.9,2.3-1.5,3.6
				c0.5,1.7,2.5,2.7,4.5,2.2c2-0.6,3.2-2.4,2.7-4.2c0-0.1,0-0.1-0.1-0.2l4.9-1.4c0,0.1,0,0.1,0,0.2c0.5,1.7,2.5,2.7,4.5,2.2
				c2-0.6,3.2-2.4,2.7-4.2C54.3,28,53.1,27.2,51.6,27.1z M53.6,30.2c0.1,0.5,0,1-0.4,1.4c-0.9,1.3-3,1.3-4.3,0.6
				C48,31.6,48,30.6,47,30.5c-0.7-0.1-1.8,0.3-2.5,0.5c-0.9,0.3-1.6,0.2-2.4,1.4c-0.4,0.7-0.2,1.5-0.6,2.2c-0.4,0.7-1.1,1.2-1.9,1.3
				c-1.2,0.2-2.8-0.5-3-1.8c-0.1-0.9,0.3-1.7,0.8-2.5c0.5-0.7,0.4-1.1-0.4-1.4c-0.7-0.3-1.6-0.4-2.1-1.1c-0.5-0.8-0.4-1.9,0.1-2.6
				c0.8-1.2,2.6-1.5,3.9-0.8c0.8,0.4,0.7,0.4,1.2,1.1c0.7,1.2,2.5,0.9,3.5,0.6c1.4-0.5,3.2-0.7,3.7-2.3c0.3-1.1-0.1-1.9,1.8-3
				c0.9-0.5,2.7-0.1,3.1,1.1c0.8,1.9-0.8,2.5-1.4,3.7c-0.6,1.2,1.6,1.6,2.2,2C53.3,29.3,53.5,29.7,53.6,30.2z"/>
		</g>
		<g>
			<path class="st11" d="M64.4,35.4c1.5-0.2,2.7-1.3,2.9-2.6c0.3-1.8-1.1-3.5-3.2-3.8c-2-0.3-3.9,0.9-4.2,2.6c0,0.1,0,0.1,0,0.2
				l-5-0.8c0-0.1,0-0.1,0-0.2c0.3-1.8-1.1-3.5-3.2-3.8c-2-0.3-3.9,0.9-4.2,2.6c-0.2,1.4,0.6,2.7,1.9,3.4c-1.5,0.2-2.7,1.3-2.9,2.6
				c-0.3,1.8,1.1,3.5,3.2,3.8c2,0.3,3.9-0.9,4.2-2.6c0-0.1,0-0.1,0-0.2l5,0.8c0,0.1,0,0.1,0,0.2c-0.3,1.8,1.1,3.5,3.2,3.8
				c2,0.3,3.9-0.9,4.2-2.6C66.6,37.4,65.8,36.1,64.4,35.4z"/>
			<path class="st12" d="M62.2,34c0.5-0.3,3.7-1.5,2.3-2.4c-0.9-0.6-1.7,0.6-2.3,1c-0.5,0.4-1,0.7-1.6,0.9c-2.1,0.5-4.6,0.4-6.5-0.6
				c-0.6-0.3-0.9-1.1-1.2-1.7c-0.3-0.5-0.6-1.4-1.1-1.8c-0.4-0.2-1-0.3-1.3,0.1c-0.4,0.5-0.1,1.3,0.4,1.6c0.3,0.3,0.7,0.5,1,0.9
				c0.5,0.6,0.8,1.2,0.3,2c-0.4,0.7-1.4,0.9-2,1.3c-0.6,0.4-0.3,2.1,0.7,1.5c0.4-0.2,0.7-0.4,0.9-0.7c0.3-0.4,0.7-0.9,1.1-1.1
				c0.8-0.5,1.6-0.6,2.5-0.5c1.1,0.1,2.4,0,3.5,0.5c1,0.4,1.4,1.1,2,1.9c0.3,0.5,0.7,1.2,1.2,1.5c1.6,1,0.8-0.5,0.6-0.8
				C61.7,36.3,60.6,35,62.2,34z"/>
			<path class="st13" d="M64.4,35.4c1.5-0.2,2.7-1.3,2.9-2.6c0.3-1.8-1.1-3.5-3.2-3.8c-2-0.3-3.9,0.9-4.2,2.6c0,0.1,0,0.1,0,0.2
				l-5-0.8c0-0.1,0-0.1,0-0.2c0.3-1.8-1.1-3.5-3.2-3.8c-2-0.3-3.9,0.9-4.2,2.6c-0.2,1.4,0.6,2.7,1.9,3.4c-1.5,0.2-2.7,1.3-2.9,2.6
				c-0.3,1.8,1.1,3.5,3.2,3.8c2,0.3,3.9-0.9,4.2-2.6c0-0.1,0-0.1,0-0.2l5,0.8c0,0.1,0,0.1,0,0.2c-0.3,1.8,1.1,3.5,3.2,3.8
				c2,0.3,3.9-0.9,4.2-2.6C66.6,37.4,65.8,36.1,64.4,35.4z M62.4,39.2c-1.1,0.1-1.9-1.2-2.4-2c-0.4-0.7-0.8-1.4-1.7-1.7
				c-0.8-0.3-1.7-0.3-2.5-0.4c-1.1-0.1-2.3-0.2-3.1,0.8c-0.4,0.5-0.8,1-1.3,1.4c-0.8,0.6-1.8,0.4-2.3-0.4c-0.4-0.7-0.6-1.6,0.2-2.1
				c0.4-0.3,0.9-0.5,1.3-0.7c1.5-0.8,0.2-1.7-0.4-2.3c-1.1-1-1.1-2.8,0.2-3.2c0,0,0,0,0,0c0.5-0.2,1-0.2,1.5,0
				c0.8,0.4,1.1,1.6,1.5,2.4c0.7,1.6,2.5,2.2,4.1,2.2c1,0,2.3,0.1,3.3-0.3c0.8-0.4,1.5-1.1,2.2-1.7c0.7-0.6,1.5-0.7,2.2,0
				c0.6,0.6,0.5,1.6,0,2.2c-0.5,0.6-3.8,1.3-2.8,2.5C63,36.9,64.8,38.9,62.4,39.2z"/>
			<path class="st13" d="M64.4,35.4c1.5-0.2,2.7-1.3,2.9-2.6c0.3-1.8-1.1-3.5-3.2-3.8c-2-0.3-3.9,0.9-4.2,2.6c0,0.1,0,0.1,0,0.2
				l-5-0.8c0-0.1,0-0.1,0-0.2c0.3-1.8-1.1-3.5-3.2-3.8c-2-0.3-3.9,0.9-4.2,2.6c-0.2,1.4,0.6,2.7,1.9,3.4c-1.5,0.2-2.7,1.3-2.9,2.6
				c-0.3,1.8,1.1,3.5,3.2,3.8c2,0.3,3.9-0.9,4.2-2.6c0-0.1,0-0.1,0-0.2l5,0.8c0,0.1,0,0.1,0,0.2c-0.3,1.8,1.1,3.5,3.2,3.8
				c2,0.3,3.9-0.9,4.2-2.6C66.6,37.4,65.8,36.1,64.4,35.4z M65,39c-0.1,0.5-0.4,0.9-0.9,1.1c-1.4,0.8-3.3-0.1-4.2-1.3
				c-0.5-0.8-0.2-1.8-1-2.3c-0.6-0.4-1.8-0.5-2.5-0.6c-0.9-0.1-1.6-0.5-2.8,0.3c-0.7,0.4-0.9,1.3-1.5,1.8c-0.6,0.5-1.5,0.7-2.3,0.4
				c-1.1-0.3-2.3-1.6-1.9-2.9c0.3-0.9,1-1.5,1.7-1.9c0.7-0.4,0.8-0.8,0.2-1.4c-0.6-0.6-1.3-1.1-1.4-1.9c-0.2-0.9,0.4-1.9,1.2-2.4
				c1.3-0.7,3-0.3,3.8,0.9c0.5,0.7,0.5,0.7,0.6,1.5c0.1,1.4,1.9,1.9,2.9,2c1.5,0.1,3.2,0.7,4.3-0.6c0.8-0.9,0.7-1.8,2.9-1.9
				c1-0.1,2.4,1.1,2.4,2.3c-0.1,2-1.8,1.9-2.8,2.8c-1,0.8,0.8,2.1,1.1,2.7C65,38.1,65.1,38.6,65,39z"/>
		</g>
		<g>
			<path class="st11" d="M63.4,23.9c1.5-0.2,2.7-1.3,2.9-2.6c0.3-1.8-1.1-3.5-3.2-3.8c-2-0.3-3.9,0.9-4.2,2.6c0,0.1,0,0.1,0,0.2
				l-5-0.8c0-0.1,0-0.1,0-0.2c0.3-1.8-1.1-3.5-3.2-3.8c-2-0.3-3.9,0.9-4.2,2.6c-0.2,1.4,0.6,2.7,1.9,3.4c-1.5,0.2-2.7,1.3-2.9,2.6
				c-0.3,1.8,1.1,3.5,3.2,3.8c2,0.3,3.9-0.8,4.2-2.6c0-0.1,0-0.1,0-0.2l5,0.8c0,0.1,0,0.1,0,0.2c-0.3,1.8,1.1,3.5,3.2,3.8
				c2,0.3,3.9-0.9,4.2-2.6C65.6,25.9,64.8,24.6,63.4,23.9z"/>
			<path class="st12" d="M61.2,22.5c0.5-0.3,3.7-1.5,2.3-2.4c-0.9-0.6-1.7,0.6-2.3,1c-0.5,0.4-1,0.7-1.6,0.8
				c-2.1,0.5-4.6,0.4-6.5-0.6c-0.6-0.3-0.9-1.1-1.2-1.7c-0.3-0.5-0.6-1.4-1.1-1.8c-0.4-0.2-1-0.3-1.3,0.1c-0.4,0.5-0.1,1.3,0.4,1.6
				c0.3,0.3,0.7,0.5,1,0.9c0.5,0.6,0.8,1.2,0.3,2c-0.4,0.7-1.4,0.9-2,1.3c-0.6,0.4-0.3,2.1,0.7,1.5c0.4-0.2,0.7-0.4,0.9-0.7
				c0.3-0.4,0.6-0.9,1.1-1.1c0.8-0.5,1.6-0.6,2.5-0.5c1.1,0.1,2.4,0,3.5,0.5c1,0.4,1.4,1.1,2,1.9c0.3,0.5,0.7,1.2,1.2,1.5
				c1.6,1,0.8-0.5,0.6-0.8C60.7,24.9,59.6,23.5,61.2,22.5z"/>
			<path class="st13" d="M63.4,23.9c1.5-0.2,2.7-1.3,2.9-2.6c0.3-1.8-1.1-3.5-3.2-3.8c-2-0.3-3.9,0.9-4.2,2.6c0,0.1,0,0.1,0,0.2
				l-5-0.8c0-0.1,0-0.1,0-0.2c0.3-1.8-1.1-3.5-3.2-3.8c-2-0.3-3.9,0.9-4.2,2.6c-0.2,1.4,0.6,2.7,1.9,3.4c-1.5,0.2-2.7,1.3-2.9,2.6
				c-0.3,1.8,1.1,3.5,3.2,3.8c2,0.3,3.9-0.8,4.2-2.6c0-0.1,0-0.1,0-0.2l5,0.8c0,0.1,0,0.1,0,0.2c-0.3,1.8,1.1,3.5,3.2,3.8
				c2,0.3,3.9-0.9,4.2-2.6C65.6,25.9,64.8,24.6,63.4,23.9z M61.4,27.7c-1.1,0.1-1.9-1.2-2.4-2c-0.4-0.7-0.8-1.4-1.7-1.7
				c-0.8-0.3-1.7-0.3-2.5-0.4c-1.1-0.1-2.3-0.2-3.1,0.8c-0.4,0.5-0.8,1-1.3,1.4c-0.8,0.6-1.8,0.4-2.3-0.4c-0.4-0.7-0.6-1.6,0.2-2.1
				c0.4-0.3,0.9-0.5,1.3-0.7c1.5-0.8,0.2-1.7-0.4-2.3c-1.1-1-1.1-2.8,0.2-3.2c0,0,0,0,0,0c0.5-0.2,1-0.2,1.5,0.1
				c0.8,0.4,1.1,1.6,1.5,2.4c0.7,1.6,2.5,2.2,4.1,2.2c1,0,2.3,0.1,3.3-0.3c0.8-0.4,1.5-1.1,2.2-1.7c0.7-0.6,1.5-0.7,2.2,0
				c0.6,0.6,0.5,1.6,0,2.2c-0.5,0.6-3.8,1.3-2.8,2.5C62.1,25.4,63.8,27.5,61.4,27.7z"/>
			<path class="st13" d="M63.4,23.9c1.5-0.2,2.7-1.3,2.9-2.6c0.3-1.8-1.1-3.5-3.2-3.8c-2-0.3-3.9,0.9-4.2,2.6c0,0.1,0,0.1,0,0.2
				l-5-0.8c0-0.1,0-0.1,0-0.2c0.3-1.8-1.1-3.5-3.2-3.8c-2-0.3-3.9,0.9-4.2,2.6c-0.2,1.4,0.6,2.7,1.9,3.4c-1.5,0.2-2.7,1.3-2.9,2.6
				c-0.3,1.8,1.1,3.5,3.2,3.8c2,0.3,3.9-0.8,4.2-2.6c0-0.1,0-0.1,0-0.2l5,0.8c0,0.1,0,0.1,0,0.2c-0.3,1.8,1.1,3.5,3.2,3.8
				c2,0.3,3.9-0.9,4.2-2.6C65.6,25.9,64.8,24.6,63.4,23.9z M64,27.6c-0.1,0.5-0.4,0.9-0.9,1.1c-1.4,0.8-3.3-0.1-4.2-1.3
				c-0.5-0.8-0.2-1.7-1-2.3c-0.6-0.4-1.8-0.5-2.5-0.6c-0.9-0.1-1.6-0.5-2.8,0.3c-0.7,0.4-0.9,1.3-1.5,1.8c-0.6,0.5-1.5,0.7-2.3,0.4
				c-1.1-0.3-2.3-1.6-1.9-2.9c0.3-0.9,1-1.5,1.7-1.9c0.7-0.4,0.8-0.8,0.2-1.4c-0.6-0.6-1.3-1.1-1.4-1.9c-0.2-0.9,0.4-1.9,1.2-2.4
				c1.3-0.7,3-0.3,3.8,0.9c0.5,0.7,0.5,0.7,0.6,1.5c0.1,1.4,1.9,1.9,2.9,2c1.5,0.2,3.2,0.7,4.3-0.6c0.8-0.9,0.7-1.8,2.9-1.9
				c1-0.1,2.4,1.1,2.4,2.3c-0.1,2-1.8,1.9-2.8,2.8c-1,0.8,0.8,2.1,1.1,2.7C64.1,26.6,64.1,27.1,64,27.6z"/>
		</g>
		<g>
			<path class="st11" d="M94.4,13.4c1.4-0.5,2.4-1.7,2.3-3.2c-0.1-1.8-1.8-3.2-3.8-3.1c-2.1,0.1-3.7,1.6-3.6,3.4c0,0.1,0,0.1,0,0.2
				l-5.1,0.2c0-0.1,0-0.1,0-0.2c-0.1-1.8-1.8-3.2-3.8-3.1c-2.1,0.1-3.7,1.6-3.6,3.4c0,1.4,1.1,2.6,2.5,3c-1.4,0.5-2.4,1.7-2.3,3.2
				c0.1,1.8,1.8,3.2,3.8,3.1c2.1-0.1,3.7-1.6,3.6-3.4c0-0.1,0-0.1,0-0.2l5.1-0.2c0,0.1,0,0.1,0,0.2c0.1,1.8,1.8,3.2,3.8,3.1
				c2.1-0.1,3.7-1.6,3.6-3.4C96.8,15,95.8,13.8,94.4,13.4z"/>
			<path class="st12" d="M91.9,12.5c0.5-0.4,3.4-2.2,1.7-2.8c-1-0.4-1.6,0.9-2.1,1.5c-0.4,0.5-0.9,0.9-1.4,1.2
				c-1.9,0.9-4.4,1.3-6.5,0.7c-0.7-0.2-1.1-0.9-1.5-1.4c-0.4-0.5-0.9-1.3-1.4-1.5c-0.4-0.2-1.1-0.1-1.3,0.3
				c-0.3,0.5,0.2,1.2,0.7,1.5c0.4,0.2,0.8,0.4,1.1,0.7c0.6,0.5,1,1,0.7,1.8c-0.3,0.8-1.2,1.1-1.7,1.7c-0.5,0.5,0.1,2.1,1,1.4
				c0.3-0.2,0.6-0.6,0.7-0.9c0.2-0.4,0.5-1,0.9-1.3c0.7-0.6,1.4-0.9,2.3-1c1.1-0.2,2.4-0.5,3.5-0.2c1,0.2,1.6,0.7,2.3,1.5
				c0.4,0.4,0.9,1,1.4,1.2c1.8,0.7,0.7-0.7,0.4-0.9C91.8,14.9,90.5,13.8,91.9,12.5z"/>
			<path class="st13" d="M94.4,13.4c1.4-0.5,2.4-1.7,2.3-3.2c-0.1-1.8-1.8-3.2-3.8-3.1c-2.1,0.1-3.7,1.6-3.6,3.4c0,0.1,0,0.1,0,0.2
				l-5.1,0.2c0-0.1,0-0.1,0-0.2c-0.1-1.8-1.8-3.2-3.8-3.1c-2.1,0.1-3.7,1.6-3.6,3.4c0,1.4,1.1,2.6,2.5,3c-1.4,0.5-2.4,1.7-2.3,3.2
				c0.1,1.8,1.8,3.2,3.8,3.1c2.1-0.1,3.7-1.6,3.6-3.4c0-0.1,0-0.1,0-0.2l5.1-0.2c0,0.1,0,0.1,0,0.2c0.1,1.8,1.8,3.2,3.8,3.1
				c2.1-0.1,3.7-1.6,3.6-3.4C96.8,15,95.8,13.8,94.4,13.4z M93.1,17.5c-1.1,0.3-2.1-0.8-2.7-1.5c-0.5-0.6-1.1-1.2-2-1.3
				c-0.9-0.1-1.7,0-2.6,0.2c-1.1,0.1-2.3,0.3-2.9,1.3c-0.3,0.6-0.6,1.1-1,1.6c-0.6,0.7-1.7,0.7-2.4,0c-0.6-0.6-0.9-1.4-0.2-2.1
				c0.4-0.4,0.7-0.6,1.1-0.9c1.3-1-0.1-1.7-0.9-2.2c-1.3-0.7-1.6-2.5-0.4-3.1c0,0,0,0,0,0c0.5-0.3,1-0.4,1.5-0.3
				c0.9,0.2,1.4,1.4,1.9,2.1c1,1.4,2.9,1.6,4.4,1.4c1-0.2,2.3-0.4,3.2-1c0.8-0.6,1.2-1.4,1.8-2.1c0.6-0.7,1.4-0.9,2.1-0.4
				c0.8,0.5,0.8,1.5,0.4,2.2c-0.4,0.7-3.5,2-2.3,3C93.3,15.2,95.4,16.9,93.1,17.5z"/>
			<path class="st13" d="M94.4,13.4c1.4-0.5,2.4-1.7,2.3-3.2c-0.1-1.8-1.8-3.2-3.8-3.1c-2.1,0.1-3.7,1.6-3.6,3.4c0,0.1,0,0.1,0,0.2
				l-5.1,0.2c0-0.1,0-0.1,0-0.2c-0.1-1.8-1.8-3.2-3.8-3.1c-2.1,0.1-3.7,1.6-3.6,3.4c0,1.4,1.1,2.6,2.5,3c-1.4,0.5-2.4,1.7-2.3,3.2
				c0.1,1.8,1.8,3.2,3.8,3.1c2.1-0.1,3.7-1.6,3.6-3.4c0-0.1,0-0.1,0-0.2l5.1-0.2c0,0.1,0,0.1,0,0.2c0.1,1.8,1.8,3.2,3.8,3.1
				c2.1-0.1,3.7-1.6,3.6-3.4C96.8,15,95.8,13.8,94.4,13.4z M95.6,16.9c0,0.5-0.3,0.9-0.7,1.3c-1.2,1-3.3,0.6-4.3-0.5
				c-0.7-0.7-0.5-1.7-1.5-2.1c-0.7-0.3-1.9-0.2-2.6-0.1c-0.9,0.1-1.6-0.2-2.7,0.8c-0.6,0.5-0.6,1.4-1.1,2.1
				c-0.5,0.6-1.3,0.9-2.1,0.9c-1.2-0.1-2.6-1.1-2.5-2.5c0.1-0.9,0.7-1.6,1.3-2.2c0.6-0.5,0.7-0.9-0.1-1.4c-0.7-0.4-1.5-0.8-1.8-1.6
				c-0.3-0.9,0-1.9,0.7-2.5c1.1-1,2.9-0.8,3.9,0.2c0.7,0.6,0.6,0.6,0.9,1.4c0.4,1.3,2.2,1.5,3.2,1.4c1.5-0.1,3.3,0,4.1-1.4
				c0.6-1,0.3-1.9,2.4-2.5c1-0.3,2.6,0.6,2.8,1.8c0.3,2-1.4,2.2-2.2,3.3c-0.8,1,1.2,1.9,1.6,2.4C95.5,16,95.6,16.4,95.6,16.9z"/>
		</g>
		<g>
			<path class="st11" d="M73.9,16.9c1.4-0.5,2.4-1.7,2.3-3.2c-0.1-1.8-1.8-3.2-3.8-3.1c-2.1,0.1-3.7,1.6-3.6,3.4c0,0.1,0,0.1,0,0.2
				l-5.1,0.2c0-0.1,0-0.1,0-0.2c-0.1-1.8-1.8-3.2-3.8-3.1c-2.1,0.1-3.7,1.6-3.6,3.4c0,1.4,1.1,2.6,2.5,3c-1.4,0.5-2.4,1.7-2.3,3.2
				c0.1,1.8,1.8,3.2,3.8,3.1c2.1-0.1,3.7-1.6,3.6-3.4c0-0.1,0-0.1,0-0.2L69,20c0,0.1,0,0.1,0,0.2c0.1,1.8,1.8,3.2,3.8,3.1
				c2.1-0.1,3.7-1.6,3.6-3.4C76.4,18.5,75.4,17.3,73.9,16.9z"/>
			<path class="st12" d="M71.5,16c0.5-0.4,3.4-2.2,1.7-2.8c-1-0.4-1.6,0.9-2.1,1.5c-0.4,0.5-0.9,0.9-1.4,1.2
				c-1.9,0.9-4.4,1.3-6.5,0.7c-0.7-0.2-1.1-0.9-1.5-1.4c-0.4-0.5-0.9-1.3-1.4-1.5c-0.4-0.2-1.1-0.1-1.3,0.3
				c-0.3,0.5,0.2,1.2,0.7,1.5c0.4,0.2,0.8,0.4,1.1,0.7c0.6,0.5,1,1,0.7,1.8c-0.3,0.8-1.2,1.1-1.7,1.7c-0.5,0.5,0.1,2.1,1,1.4
				c0.3-0.2,0.6-0.6,0.7-0.9c0.2-0.4,0.5-1,0.9-1.3c0.7-0.6,1.4-0.9,2.3-1c1.1-0.2,2.4-0.5,3.5-0.2c1,0.2,1.6,0.7,2.3,1.5
				c0.4,0.4,0.9,1,1.4,1.2c1.8,0.7,0.7-0.7,0.4-0.9C71.4,18.4,70.1,17.3,71.5,16z"/>
			<path class="st13" d="M73.9,16.9c1.4-0.5,2.4-1.7,2.3-3.2c-0.1-1.8-1.8-3.2-3.8-3.1c-2.1,0.1-3.7,1.6-3.6,3.4c0,0.1,0,0.1,0,0.2
				l-5.1,0.2c0-0.1,0-0.1,0-0.2c-0.1-1.8-1.8-3.2-3.8-3.1c-2.1,0.1-3.7,1.6-3.6,3.4c0,1.4,1.1,2.6,2.5,3c-1.4,0.5-2.4,1.7-2.3,3.2
				c0.1,1.8,1.8,3.2,3.8,3.1c2.1-0.1,3.7-1.6,3.6-3.4c0-0.1,0-0.1,0-0.2L69,20c0,0.1,0,0.1,0,0.2c0.1,1.8,1.8,3.2,3.8,3.1
				c2.1-0.1,3.7-1.6,3.6-3.4C76.4,18.5,75.4,17.3,73.9,16.9z M72.7,21.1c-1.1,0.3-2.1-0.8-2.7-1.5c-0.5-0.6-1.1-1.2-2-1.3
				c-0.9-0.1-1.7,0-2.5,0.1c-1.1,0.1-2.3,0.3-2.9,1.3c-0.3,0.6-0.6,1.1-1,1.6c-0.6,0.7-1.7,0.7-2.4,0c-0.6-0.6-0.9-1.4-0.2-2.1
				c0.3-0.4,0.7-0.6,1.1-0.9c1.3-1-0.1-1.7-0.9-2.2c-1.3-0.7-1.6-2.5-0.4-3.1c0,0,0,0,0,0c0.5-0.3,1-0.4,1.5-0.3
				c0.9,0.2,1.4,1.4,1.9,2.1c1,1.4,2.9,1.6,4.4,1.4c1-0.2,2.3-0.4,3.2-1c0.8-0.6,1.2-1.4,1.8-2.1c0.6-0.7,1.4-0.9,2.1-0.4
				c0.7,0.5,0.8,1.5,0.4,2.2c-0.4,0.7-3.4,2-2.3,3C72.9,18.7,75,20.4,72.7,21.1z"/>
			<path class="st13" d="M73.9,16.9c1.4-0.5,2.4-1.7,2.3-3.2c-0.1-1.8-1.8-3.2-3.8-3.1c-2.1,0.1-3.7,1.6-3.6,3.4c0,0.1,0,0.1,0,0.2
				l-5.1,0.2c0-0.1,0-0.1,0-0.2c-0.1-1.8-1.8-3.2-3.8-3.1c-2.1,0.1-3.7,1.6-3.6,3.4c0,1.4,1.1,2.6,2.5,3c-1.4,0.5-2.4,1.7-2.3,3.2
				c0.1,1.8,1.8,3.2,3.8,3.1c2.1-0.1,3.7-1.6,3.6-3.4c0-0.1,0-0.1,0-0.2L69,20c0,0.1,0,0.1,0,0.2c0.1,1.8,1.8,3.2,3.8,3.1
				c2.1-0.1,3.7-1.6,3.6-3.4C76.4,18.5,75.4,17.3,73.9,16.9z M75.2,20.4c0,0.5-0.3,0.9-0.7,1.3c-1.2,1-3.3,0.6-4.3-0.5
				c-0.7-0.7-0.5-1.7-1.5-2.1C68,18.9,66.8,19,66.1,19c-0.9,0-1.6-0.2-2.7,0.8c-0.6,0.5-0.6,1.4-1.1,2.1c-0.5,0.6-1.3,0.9-2.1,0.9
				c-1.2-0.1-2.6-1.1-2.5-2.5c0.1-0.9,0.7-1.6,1.3-2.2c0.6-0.5,0.7-0.9-0.1-1.4c-0.7-0.4-1.5-0.8-1.8-1.6c-0.3-0.9,0-1.9,0.7-2.5
				c1.1-1,2.9-0.8,3.9,0.2c0.7,0.6,0.6,0.6,0.9,1.4c0.4,1.3,2.2,1.5,3.2,1.4c1.5-0.1,3.3,0,4.1-1.4c0.6-1,0.3-1.9,2.4-2.5
				c1-0.3,2.6,0.6,2.8,1.8c0.3,2-1.4,2.2-2.2,3.3c-0.8,1,1.2,1.9,1.6,2.4C75.1,19.5,75.2,19.9,75.2,20.4z"/>
		</g>
		<g>
			<path class="st11" d="M114.9,22c1.5,0,2.8-0.9,3.2-2.2c0.5-1.7-0.6-3.6-2.6-4.2c-2-0.6-4,0.3-4.5,2c0,0.1,0,0.1,0,0.2l-4.9-1.5
				c0-0.1,0.1-0.1,0.1-0.2c0.5-1.7-0.6-3.6-2.6-4.2c-2-0.6-4,0.3-4.5,2c-0.4,1.3,0.2,2.8,1.4,3.6c-1.5,0-2.8,0.9-3.2,2.2
				c-0.5,1.7,0.6,3.6,2.6,4.2c2,0.6,4-0.3,4.5-2c0-0.1,0-0.1,0.1-0.2l4.9,1.5c0,0.1-0.1,0.1-0.1,0.2c-0.5,1.7,0.6,3.6,2.6,4.2
				c2,0.6,4-0.3,4.5-2.1C116.7,24.3,116.1,22.8,114.9,22z"/>
			<path class="st12" d="M112.9,20.3c0.6-0.3,3.9-1,2.6-2.1c-0.9-0.7-1.8,0.3-2.4,0.7c-0.5,0.3-1.1,0.6-1.7,0.6
				c-2.1,0.2-4.6-0.2-6.4-1.4c-0.6-0.4-0.8-1.2-1-1.8c-0.2-0.6-0.4-1.5-0.9-1.9c-0.3-0.3-1-0.4-1.3-0.1c-0.5,0.4-0.2,1.2,0.1,1.6
				c0.3,0.3,0.6,0.6,0.9,1c0.4,0.7,0.6,1.3,0.1,2c-0.5,0.7-1.5,0.7-2.2,1c-0.7,0.3-0.6,2,0.5,1.6c0.4-0.1,0.7-0.3,1-0.6
				c0.4-0.3,0.8-0.8,1.2-1c0.8-0.3,1.6-0.4,2.5-0.2c1.1,0.2,2.4,0.3,3.4,0.9c0.9,0.5,1.3,1.2,1.7,2.2c0.2,0.5,0.5,1.3,1,1.6
				c1.5,1.2,0.9-0.4,0.7-0.7C112,22.5,111.2,21.1,112.9,20.3z"/>
			<path class="st13" d="M114.9,22c1.5,0,2.8-0.9,3.2-2.2c0.5-1.7-0.6-3.6-2.6-4.2c-2-0.6-4,0.3-4.5,2c0,0.1,0,0.1,0,0.2l-4.9-1.5
				c0-0.1,0.1-0.1,0.1-0.2c0.5-1.7-0.6-3.6-2.6-4.2c-2-0.6-4,0.3-4.5,2c-0.4,1.3,0.2,2.8,1.4,3.6c-1.5,0-2.8,0.9-3.2,2.2
				c-0.5,1.7,0.6,3.6,2.6,4.2c2,0.6,4-0.3,4.5-2c0-0.1,0-0.1,0.1-0.2l4.9,1.5c0,0.1-0.1,0.1-0.1,0.2c-0.5,1.7,0.6,3.6,2.6,4.2
				c2,0.6,4-0.3,4.5-2.1C116.7,24.3,116.1,22.8,114.9,22z M112.4,25.5c-1.1,0-1.7-1.5-2.1-2.3c-0.3-0.7-0.6-1.5-1.4-1.9
				c-0.8-0.4-1.6-0.5-2.5-0.7c-1.1-0.2-2.3-0.5-3.2,0.3c-0.5,0.4-0.9,0.8-1.5,1.2c-0.8,0.5-1.9,0.1-2.2-0.7
				c-0.3-0.8-0.4-1.6,0.5-2.1c0.4-0.2,0.9-0.4,1.4-0.5c1.6-0.6,0.5-1.7-0.1-2.4c-0.9-1.1-0.7-2.9,0.6-3.1c0,0,0,0,0,0
				c0.6-0.1,1-0.1,1.5,0.3c0.8,0.5,0.9,1.8,1.1,2.6c0.5,1.6,2.2,2.5,3.7,2.7c1,0.2,2.3,0.4,3.3,0.1c0.9-0.3,1.6-0.9,2.4-1.4
				c0.8-0.5,1.6-0.4,2.1,0.3c0.5,0.7,0.2,1.6-0.3,2.2c-0.6,0.6-3.9,0.8-3.1,2.1C113.3,23.3,114.7,25.6,112.4,25.5z"/>
			<path class="st13" d="M114.9,22c1.5,0,2.8-0.9,3.2-2.2c0.5-1.7-0.6-3.6-2.6-4.2c-2-0.6-4,0.3-4.5,2c0,0.1,0,0.1,0,0.2l-4.9-1.5
				c0-0.1,0.1-0.1,0.1-0.2c0.5-1.7-0.6-3.6-2.6-4.2c-2-0.6-4,0.3-4.5,2c-0.4,1.3,0.2,2.8,1.4,3.6c-1.5,0-2.8,0.9-3.2,2.2
				c-0.5,1.7,0.6,3.6,2.6,4.2c2,0.6,4-0.3,4.5-2c0-0.1,0-0.1,0.1-0.2l4.9,1.5c0,0.1-0.1,0.1-0.1,0.2c-0.5,1.7,0.6,3.6,2.6,4.2
				c2,0.6,4-0.3,4.5-2.1C116.7,24.3,116.1,22.8,114.9,22z M114.9,25.6c-0.2,0.4-0.6,0.8-1.1,1c-1.5,0.6-3.3-0.5-4-1.9
				c-0.4-0.9,0.1-1.8-0.7-2.4c-0.6-0.5-1.7-0.8-2.4-1c-0.9-0.3-1.5-0.7-2.8-0.1c-0.7,0.3-1,1.2-1.7,1.6c-0.7,0.4-1.6,0.5-2.3,0.1
				c-1.1-0.5-2.1-1.9-1.5-3.1c0.4-0.8,1.2-1.3,2-1.6c0.7-0.3,0.9-0.7,0.4-1.4c-0.5-0.6-1.1-1.2-1.2-2.1c0-0.9,0.6-1.8,1.5-2.2
				c1.4-0.6,3,0.1,3.7,1.4c0.4,0.8,0.4,0.7,0.4,1.6c0,1.4,1.6,2.1,2.6,2.4c1.5,0.3,3.1,1.1,4.4,0c0.9-0.8,0.9-1.7,3.1-1.5
				c1,0.1,2.3,1.4,2.1,2.6c-0.4,2-2,1.6-3.2,2.4c-1.1,0.7,0.5,2.2,0.8,2.8C115.1,24.7,115.1,25.2,114.9,25.6z"/>
		</g>
	</g>
</g>
</svg>
