<?xml version="1.0" encoding="UTF-8"?><svg id="OBJECTS" xmlns="http://www.w3.org/2000/svg" width="641.99" height="560.67" viewBox="0 0 641.99 560.67"><path d="m502.68,117.98c3.08,7.56,4.97,15.32,3.85,23.57-.22.58-.44,1.16-.66,1.74-1.52,12.13-4.64,23.63-14.01,32.28-1.93,1.78-4.68,2.66-7.05,3.96-9.18-.44-9.46-.64-11.59-8.35.08-3.18.41-6.38.15-9.54-.23-2.81-.12-6.03-3.42-7.56-1.26-4.8-5.14-7.12-8.96-9.51-13.58-7.04-26.69-5.7-39.45,2.18-9.72,6-15.68,14.8-19,25.56-.55,1.4-1.1,2.8-1.64,4.19-3.67,8.09-8.34,15.3-16.77,19.25-3.67.64-7.35,1.29-11.02,1.93-.5-.45-.97-1.26-1.51-1.3-7.91-.64-14.42-4.63-20.94-8.61-3.66-2.4-7.32-4.8-10.98-7.2-5.28-6.44-12.39-10.45-19.75-13.68-18.07-7.92-36.86-11.49-56.78-8.92-13.49,1.74-26,6.07-38.27,11.5-3.64.98-7.27,1.95-10.91,2.92-8.17,2.64-16.62,2.99-25.11,3.04-2.9-.5-5.8-1.32-8.71-1.42-2.86-.1-6.49-2.13-8.23,2.22-.25.54-.5,1.08-.76,1.62.03.93.07,1.86.1,2.79-.08,1.81-.16,3.62-.24,5.42.34.55.68,1.1,1.02,1.65,0,0,0,0,0,0-.16,7.54,3.85,13.01,9.83,16.48,9.59,5.57,19.67,10.29,29.54,15.37,1.94,1.17,4,2.18,5.81,3.52,5.43,4.03,9.89,8.72,9.83,16.12-.29,7.02-4.54,10.98-10.5,13.63l-8.06.55c-4.26,0-8.52,0-12.79,0h-6.76c0,1.53,0,2.78,0,4.04-.06,4.87-1.74,10.04,2.52,14.14,1.2,5.15,5.76,6.52,9.76,7.84,8.52,2.81,17.17,5.27,26.37,4.59,4.14-.3,8.35.2,12.46-.26,7.13-.8,12.59,1.63,16.75,7.34.4.55.98.97,1.47,1.44.55,3.19,1.1,6.37,1.65,9.56-2.25,3.43-5.47,5.44-9.45,6.1-2.9.49-5.85.82-8.79.92-3.38.11-6.28.91-8.14,4-1.06,2.69-2.12,5.39-3.18,8.08-1.7,4.34-3.41,8.68-5.11,13.03-1.48,1.67-2.95,3.33-4.43,5-1.56.3-3.13.55-4.69.89-9.08,1.99-12.89.43-17.58-7.27.04-2.76.09-5.51.13-8.27,1.44-8.16-2.33-13.11-9.72-15.89-3.42-1.28-6.89-2.5-10.16-4.1-3.19-1.55-6.99-2.53-8.19-6.61,8.8,3.9,17.68,7.64,26.36,11.8,3.02,1.44,4.64,4.29,4.41,8.01-.23,3.69-.38,7.44.09,11.08.27,2.06,1.37,4.54,2.92,5.81,5.59,4.56,14.33,2.12,17.93-4.65.18-.07.39-.12.53-.24.08-.07.06-.27.09-.41-.2.22-.39.45-.59.67-2.02,1.05-4.04,2.09-6.04,3.16-3.7,1.98-7.35,1.49-10.43-.97-2.7-2.15-3.64-5.32-2.53-8.78,2.84-8.88-1.01-16.14-11.18-19.86-4.34-1.59-8.72-3.11-12.98-4.89-4.61-1.92-7.86-4.95-7.12-10.56.46-.93.93-1.87,1.39-2.8.16-.05.35-.08.49-.17.08-.06.09-.22.13-.33-.18.19-.37.38-.55.57-.46.93-.92,1.86-1.38,2.8-.5,3.27-.99,6.53-1.49,9.8-3.38-2.61-2.4-6.32-2.44-9.76,3.12-4.68,6.25-9.37,9.37-14.05.84-2.44,1.67-4.87,2.51-7.31-.25-5.95-.5-11.91-.74-17.47-4.02-3.22-7.59-6.09-11.17-8.95-3.71-8.69-7.77-17.24-10.99-26.1-2.14-5.86-5.75-9.79-11.09-12.59-4.5-2.35-9.02-4.7-13.29-7.42-6-3.83-7.21-10.3-3.28-16.24,2.79-4.22,6.81-6.06,11.84-5.73,7.26,4.21,14.51,8.43,22.12,12.85v-7.46c-.35-2.3-.71-4.6-1.06-6.9-1.07-4.5-2.73-8.62-5.97-12.13-4.44-4.8-7.15-10.59-8.42-17.03-.22-8.26,2.75-15.39,8.22-21.37,3.55-3.89,7.64-7.28,11.49-10.9,4.64-3.04,9.3-6.05,13.91-9.13,13.31-8.88,24.91-19.26,30.56-34.89.77-2.14,2.2-4.04,3.33-6.06.83-1.02,1.66-2.04,2.49-3.05,0,0-.05.06-.05.06.56-.33,1.12-.66,1.68-.99,10.51-7.14,22.39-8.83,34.73-8.73,4.14.33,8.33.41,12.42,1.05,14.05,2.18,27.17,7.38,40.24,12.72-4.48,1.43-8.97,2.86-13.45,4.29-12.45-6.64-24.89-13.26-39.11-15.54-9.26-1.48-17.28.61-24.27,6.94-8.1,7.33-13.28,16.57-17.75,26.33-.95,2.09-1.82,4.42-3.38,5.99-4.89,4.94-10.04,9.62-15.17,14.31-5.81,5.32-12.19,10.11-17.42,15.93-7.53,8.37-5.97,19.89,3.18,25.16,3.46,1.99,7.83,2.95,11.86,3.27,10.71.83,21.2-1.23,31.61-3.61,16.02-3.65,32-7.53,48.11-10.7,8.87-1.75,17.95-1.7,26.93.34,9.21,2.09,17.23,6.76,25.31,11.31,8.9,5,17.56,10.46,26.67,15.02,11.81,5.91,23.18,3.78,32.47-5.61,4.23-4.27,8.13-8.91,11.89-13.61,8.8-11.01,20.04-17.34,34.23-16.55,7.77.43,15.49,2.43,23.15,4.11,9.24,2.03,17.99,6.13,27.8,5.74,4.9-.2,7.85-2.49,9.64-6.63,4.25-9.84.39-15.81-7.52-19.02-6.87-2.79-13.73-5.62-20.47-8.72-5.34-2.45-8.58-6.94-10.42-12.43-.73-2.19-1.3-4.43-1.88-6.67-2.41-9.34-8.98-13.99-17.8-16.71-6.62-2.04-12.9-.57-19.14.83-15.34,3.44-30.58,7.36-45.87,11.04-3.3.8-6.65,1.41-9.98,2.1-2.21-2.26-4.42-4.52-6.63-6.77,13.02-2.81,26.03-5.63,39.06-8.42,7.41-1.59,14.78-3.49,22.27-4.57,6.56-.95,13.26-.94,19.9-1.35,2.29.63,4.64,1.09,6.85,1.91,3.16,1.17,6.23,2.6,9.33,3.91.95.48,1.9.97,2.85,1.45,0,0-.08-.04-.07-.04,5.45,5.55,10.05,11.52,10.05,19.86,0,1.11.67,2.21.88,3.34.84,4.6,3.87,7.23,7.96,8.86,6.24,2.48,12.51,4.89,18.77,7.33,4.2,3.18,8.4,6.35,12.6,9.53,0,0-.02-.03-.02-.03.87,1.89,1.75,3.78,2.62,5.66Zm-332.04,115.79c-.07-.18-.11-.38-.23-.52-.06-.08-.25-.07-.38-.1.22.18.45.37.67.55.46.47.93.94,1.39,1.4.29.86.31,2.03.9,2.52,11.93,9.97,28.89,15.09,45.06,3.28-1.95.19-3.83.67-5.63,1.34-12.68,4.77-24.47,2.73-35.65-4.46-1.51-.97-3.15-1.76-4.73-2.63-.47-.46-.93-.92-1.4-1.39Zm237.33-85.12c-.47.92-.94,1.85-1.41,2.77-.2.07-.43.09-.58.22-.09.08-.07.3-.1.46.22-.24.44-.47.65-.71.46-.94.91-1.87,1.37-2.81.18-.05.39-.07.54-.17.09-.06.09-.25.13-.39-.2.21-.4.42-.61.63Zm-242.92-30.77c.93-.46,1.87-.93,2.8-1.39.45-.33.89-.66,1.34-.99-.43.35-.85.7-1.28,1.06-.93.46-1.86.92-2.8,1.38-.48.46-.95.91-1.43,1.37-1.37.77-3.05,1.26-4.06,2.36-6.14,6.63-8.11,18.17-3.74,26,4.98,8.91,12.13,15.7,22.05,19.24,16.85,6.01,38.81,1.74,56.51-7.09-3.62.53-7.17,1.47-10.75,2.16-11.73,2.26-23.12,6.22-35.57,3.7-11.86-2.4-21.15-7.86-27.8-17.87-5.32-8.01-5.17-15.51.25-23.25,1.16-1.66,2.09-3.5,3.12-5.25.45-.48.91-.96,1.36-1.44Zm304.31,23.76c-.98-.84-1.97-1.68-2.95-2.51-.2.37-.4.74-.61,1.1,1.18.47,2.37.95,3.55,1.42,5.22,7.54,8.19,15.78,8.7,25.03.2,3.6,3.79,6.29,7.26,6.44,3.61.16,6.19-2.04,8.01-4.78,6.21-9.33,8.29-19.73,7.39-30.83-1.04,1.51-1.83,3.16-1.9,4.85-.34,7.9-3.38,14.91-7.18,21.59-1.28,2.24-3.58,3.9-5.29,5.69-4.45-2.34-5.61-5.38-6.05-9.46-.83-7.67-2.48-15.22-10.95-18.55Zm-278.93,94.89c5.81-.04,10.85-2.63,12.03-6.6,1.6-5.38-2.27-8.57-5.31-12.01-.3-.34-.75-.55-1.14-.79-4.15-2.52-8.1-5.47-12.49-7.46-13.08-5.9-24.92-13.38-34.16-24.58-1.47-1.78-3.23-3.38-5.1-4.73-1.46-1.05-3.24-1.98-4.99-2.26-4.2-.66-7.25,3.32-5.36,7.09.98,1.97,2.68,3.8,4.48,5.11,3.36,2.45,6.86,4.87,10.62,6.6,6.21,2.85,9.51,7.87,11.84,13.87,1.09,2.81,2.11,5.64,3.29,8.41,4.5,10.55,14.94,17.41,26.29,17.34Zm26.86,74.63c2.63-1.18,5.2-1.61,6.69-3.12,5.6-5.68,12.03-9.26,20.09-9.67.69-.04,1.36-.29,2.05-.4,2.66-.4,4.12-1.85,4.28-4.61.17-2.91-1.67-4.12-3.97-4.98-6.29-2.34-12.77-1.84-19.24-1.14-10.09,1.09-20.24,3.2-29.49-3.47-1.59-1.15-3.9-1.37-5.91-1.87-5.82-1.44-10.49,1.03-12,6.26-1.08,3.77,2.5,8.59,7.68,9.82,3.12.74,6.37,1.02,9.58,1.33,6.36.6,12.5,1.27,15.56,8.31.67,1.53,3.01,2.33,4.68,3.54Zm85.94-157.52c1.27.51,2.49,1.16,3.8,1.51,14.24,3.83,26.25,11.17,36.74,21.63,6.73,6.7,14.95,11.33,24.49,13.95,10.95,3.02,22.26-2.05,26.97-12.75,2.99-6.79,5.95-13.6,8.85-20.43.34-.79.21-1.78.3-2.67-2.01,1.45-3.09,3.16-4,4.95-2.96,5.79-5.69,11.71-8.83,17.41-5.03,9.14-12,11.92-22.18,9.52-9.57-2.26-17.55-7.27-24.47-13.97-11.58-11.21-25.53-17.22-41.69-19.15Z" fill="#a73305"/><path d="m220.79,339.21c1.48-1.67,2.95-3.33,4.43-5,25.03,6.17,50.63,8.22,76.22,9.4,27.32,1.26,54.65.23,81.93-2.3,17.1-1.58,33.95-4.39,50.48-8.8,17.1-4.56,33.65-10.76,47.67-21.94,4.95-3.95,8.84-9.22,13.22-13.89,1.25-.45,2.51-.9,3.76-1.35.59,2.68,1.18,5.36,1.77,8.03.35,18.82-8.14,33.2-23.45,43.18-7.85,5.12-17.03,8.22-25.6,12.24-10.56,2.64-21.31,4.69-31.64,8.04-27.25,8.85-55.01,14.97-83.65,16.1-19.7.78-39.45.7-58.96-3.07-31.23-6.02-61.71-14.89-91.83-24.96-10.55-3.53-20.59-8.45-28.71-16.47,3.89,1.35,7.75,2.81,11.69,4.02,20.09,6.15,40.13,12.52,60.35,18.23,13.3,3.75,26.92,6.24,40.58,8.52,10.76,1.8,21.5,2.82,32.42,2.78,16.67-.08,33.31-.15,49.85-2.77,8.65-1.37,17.5-1.59,26.07-3.3,13.11-2.61,26.06-6.02,39.05-9.18,9.43-2.3,18.73-5.25,28.25-7.01,17.98-3.34,31.64-12.51,40.66-28.38,1.35-2.38,1.58-5.41,2.33-8.13-1.8.02-2.56.48-3.21,1.07-9.01,8.11-18.84,14.9-30.28,19.23-7.54,2.86-14.99,5.94-22.49,8.92l-5.64,1.56s.04-.03.04-.03c-6.11,1.19-12.18,2.64-18.33,3.51-15.74,2.22-31.48,5.34-47.3,5.94-18.94.73-37.98,1.5-56.96-.92-11.43-1.46-23-1.83-34.48-2.92-15.43-1.45-30.6-4.39-45.54-8.47-.99-.27-1.79-1.23-2.68-1.87Z" fill="#e4782d"/><path d="m301.78,517.13c-43.96-1.16-86.45-9.79-127.37-25.78-21.07-8.23-40.9-18.95-58-33.95-12.17-10.67-22.62-22.9-25.77-39.45-1.11-5.84-.59-11.99-.82-18,.88,2.32,1.86,4.62,2.62,6.98.92,2.86,1.37,5.89,2.5,8.65,4.96,12.05,12.71,22.22,22.62,30.5,23.32,19.47,50.36,32.21,79.04,41.45,24.06,7.75,48.67,13.42,73.93,15.65,16.82,1.49,33.65,2.91,50.51,3.81,6.89.37,13.87-1.08,20.8-1.03,16.51.1,32.81-1.95,49.05-4.4,8.16-1.23,16.19-3.41,24.27-5.16,3.65-.5,7.41-.59,10.93-1.58,11.34-3.19,22.65-6.5,33.84-10.19,5.19-1.71,10.06-4.38,15.07-6.61,7.16-3.15,14.46-6,21.44-9.49,17.42-8.72,33.2-19.7,45.84-34.75,6.61-7.86,11.82-16.47,13.85-26.73.74-3.74,1.63-7.46,2.45-11.19,4.51,18.48-1.37,34.18-12.86,48.44-15.25,18.93-35.49,31.05-57.01,41.15-19.55,9.17-39.96,16.1-61.05,20.94-18.73,4.3-37.55,7.97-56.76,9.3-7.62.53-15.24.98-22.86,1.46-15.41,0-30.83,0-46.24,0Z" fill="#b9babd"/><path d="m415.15,496.38c-8.09,1.75-16.11,3.93-24.27,5.16-16.25,2.45-32.54,4.51-49.05,4.4-6.93-.04-13.91,1.4-20.8,1.03-16.86-.9-33.69-2.32-50.51-3.81-25.26-2.24-49.87-7.9-73.93-15.65-28.68-9.23-55.71-21.97-79.04-41.45-9.91-8.27-17.66-18.45-22.62-30.5-1.14-2.76-1.59-5.79-2.5-8.65-.76-2.36-1.74-4.66-2.62-6.98,2.29-8.35,3.22-16.98,7.82-24.77,5.41-9.15,12.43-16.61,21.01-22.46,7.78-5.3,16.23-9.62,24.38-14.37,1.68,2.36,3.35,4.71,5.03,7.07.1,1.41.19,2.82.28,4.23-.21.28-.27.59-.19.92-1.75,2.94-3.5,5.89-5.25,8.83-.89.21-2.02.15-2.63.68-8.51,7.33-16.05,15.53-20.51,25.98-2.55,5.97-4.49,12.39-3.38,18.93.84,5.01-.27,10.86,4.72,14.59-.69,1.1-1.77,2.13-2,3.32-1.42,7.46,5.47,14.58,12.03,17.31,6.88,2.86,14.03,3.74,21.38,3.5.48.13.97.27,1.45.4,7.32.59,14.65,1.11,21.97,1.81,1.58.15,3.11.92,4.66,1.41l-.08,1.28c-1.96.86-3.92,1.72-5.89,2.58-.86.11-1.72.21-2.59.32-1.49.53-3.11.84-4.45,1.63-5.37,3.13-5.67,9.08-.57,12.85,5.61,4.15,12.4,5.16,19,6.6,3.03,1.65,5.89,3.8,9.11,4.85,11.01,3.59,22,7.42,33.26,10,21.83,5,43.91,8.74,66.33,10.13,12.22.76,24.41,2.4,36.63,2.56,14.59.19,29.19-.79,43.78-1.27.69-.02,1.39-.12,2.08-.2,10.99-1.31,21.97-2.71,32.97-3.83,1.59-.16,3.32,1.02,4.99,1.58Z" fill="#def9f9"/><path d="m233.51,313.1c1.86-3.08,4.76-3.88,8.14-4,2.94-.1,5.89-.43,8.79-.92,3.98-.67,7.2-2.67,9.45-6.1,3.66.47,7.31.99,10.98,1.42,8.94,1.04,17.87,2.3,26.84,3,11.5.9,23.05,1.89,34.57,1.83,12.93-.08,25.87-1.23,38.79-2.04,5.76-.36,11.59-.59,17.23-1.68,15.17-2.95,30.48-5.55,45.33-9.73,19.05-5.36,37.41-12.6,51.01-28.2,8.16-9.36,12.9-19.71,9.67-32.32-1.85-7.24-4.79-14.02-11.01-18.78-.43-.44-.86-.89-1.29-1.33.47-1.01.94-2.02,1.42-3.03,13.47,11.9,21.82,26.38,22.61,44.69-1.39,9.62-6.17,17.24-13.36,23.67-15.89,14.2-33.58,25.53-53.27,33.67-17.26,7.14-35.31,11.24-53.89,12.43-11.57.74-23.22.41-34.83.33-7.19-.04-14.4-.2-21.55-.84-10.35-.93-20.66-2.35-30.99-3.56-10.56-1.24-21.14-2.37-31.68-3.76-11-1.45-21.97-3.15-32.96-4.74Z" fill="#f68e3c"/><path d="m216.52,252.84c5.96-2.65,10.21-6.61,10.49-13.63,9.54,1.5,19.06,3.26,28.64,4.45,12.55,1.57,25.13,3.34,37.75,3.86,18.7.78,37.38-.17,56.02-2.46,14.18-1.74,28.24-3.86,42.16-7.14,13.37-3.15,26.06-7.98,38.13-14.44,5.63-3.01,11.23-6.23,14.5-12.14l-.02.03c.94-.45,1.88-.9,2.83-1.36.75-.48,1.44-1.1,2.25-1.42,9.24-3.69,17.78-8.61,25.55-14.81,1.34-1.07,4.12-2.24,1.47-4.77,1.33-2.52,3.07-3.28,5.46-1.29.11.87.21,1.75.32,2.62.09.57.18,1.14.27,1.71-.03.79-.06,1.59-.09,2.38-.01.59-.03,1.18-.04,1.77-.07.86-.14,1.72-.21,2.58-.72,1.39-1.35,2.84-2.18,4.16-3.07,4.86-5.37,10.6-9.48,14.34-12.54,11.42-26.41,21.15-41.56,28.96-22.62,11.65-46.89,17.45-72.04,19.19-22.5,1.56-44.98-.2-67.35-2.84-14.01-1.65-28.01-3.34-41.99-5.2-10.31-1.37-20.59-3.05-30.88-4.59Z" fill="#f68e3c"/><path d="m148.05,345.4c-1.68-2.36-3.36-4.71-5.03-7.07-1.32-6.24-2.94-12.43-3.85-18.73-.43-2.94.5-6.08.81-9.14.39.55,1.02,1.05,1.13,1.65,2,10.59,7.05,19.37,15.32,26.3,8.12,8.01,18.16,12.94,28.71,16.47,30.12,10.07,60.59,18.94,91.83,24.96,19.51,3.76,39.26,3.85,58.96,3.07,28.65-1.13,56.4-7.25,83.65-16.1,10.33-3.35,21.08-5.4,31.64-8.03-1.32,5.76-4.67,10.34-9.78,12.8-11.71,5.63-23.9,10.06-36.56,13.19-14.59,3.61-29.19,6.96-44.23,8.15-9.66.76-19.31,2.56-28.96,2.55-18.08-.02-36.21,1.47-54.26-1.2-8.67-1.28-17.69-1.12-26.06-3.39-16.03-4.35-32.49-7.01-48.06-13.28-17.49-7.05-34.74-14.27-49.15-26.86-.77-.67-2.12-.66-3.2-.97,0,0,.03-.04.03-.04-.98-1.44-1.95-2.88-2.93-4.32Z" fill="#ffda96"/><path d="m558.55,395.83c-.82,3.73-1.71,7.44-2.45,11.19-2.03,10.26-7.24,18.87-13.85,26.73-12.64,15.05-28.42,26.03-45.84,34.75-6.98,3.49-14.28,6.35-21.44,9.49-3.48-1.76-6.51.32-9.69,1.13-11.2,2.85-22.28,6.3-33.62,8.38-14.03,2.56-28.25,4.24-42.44,5.81-11.68,1.29-23.44,2.25-35.18,2.66-12.76.45-25.55.28-38.33.04-7.61-.14-15.25-.6-22.81-1.52-12.8-1.56-25.66-3.03-38.28-5.58-15.37-3.11-30.53-7.27-45.76-11.05-2.23-.55-4.6-1.28-4.71-4.3,1.4-.26,2.8-.51,4.2-.77.47-.12.93-.24,1.4-.36,2.33.03,4.67.06,7,.09,2.09,1.31,4.03,3.05,6.3,3.84,3.68,1.29,7.54,2.19,11.4,2.87,11.33,2.01,22.71,3.71,34.03,5.76,12.33,2.23,24.73,2.96,37.23,2.72,19.66-.37,39.37.91,58.99-1.39.47,3.51,3.25,2.91,5.38,2.7,8.02-.77,16-2.14,24.03-2.6,15.76-.89,31.06-4.31,46.27-8.05,24.59-6.04,48.36-14.23,69.73-28.4,11.99-7.95,22.33-17.2,28.29-30.6,5.79-13.03,4.66-25.58-2.6-37.75-6.81-11.42-16.61-19.82-27.49-27.01-2.79-1.84-6.35-2.51-9.56-3.71-1.05-2.35-2.1-4.71-3.15-7.06,1-2.74,2-5.49,3.01-8.23,16.36,6.42,31.3,15.2,43.68,27.74,6.71,6.8,11.82,14.83,13.74,24.52.54,2.71,1.67,5.29,2.53,7.94Z" fill="#d3eded"/><path d="m156.43,338.42c-8.27-6.92-13.33-15.71-15.32-26.3-.11-.6-.74-1.1-1.13-1.65.16-9.41,2.52-18.23,7.03-26.48.87.48,1.75.97,2.63,1.45-2.53,2.78-1.35,5.65.13,8.23,4.65,8.17,9.49,16.2,17.64,21.56,1.29.85,2.17,2.3,3.25,3.47,3.09,3.68,5.71,7.93,9.37,10.92,8.65,7.07,18.43,12.47,29.04,15.98,12.01,3.97,24.1,7.92,36.42,10.71,10.52,2.38,21.39,3.31,32.14,4.5,10.3,1.14,20.65,2.21,31,2.58,20.13.73,40.1-1.43,60.08-3.87,17.52-2.13,34.42-6.45,51.11-11.87,2.26-.73,4.2-2.46,6.29-3.73,0,0-.04.03-.04.03,1.88-.52,3.76-1.04,5.64-1.56,7.49-2.98,14.95-6.06,22.49-8.92,11.43-4.33,21.26-11.12,30.28-19.23.65-.58,1.41-1.05,3.21-1.07-.75,2.73-.97,5.75-2.33,8.13-9.01,15.87-22.68,25.04-40.66,28.38-9.52,1.77-18.82,4.72-28.25,7.01-12.99,3.16-25.95,6.57-39.05,9.18-8.57,1.71-17.42,1.93-26.07,3.3-16.54,2.63-33.18,2.7-49.85,2.77-10.92.05-21.65-.98-32.42-2.78-13.66-2.28-27.28-4.77-40.58-8.52-20.22-5.7-40.25-12.08-60.35-18.23-3.94-1.2-7.79-2.67-11.69-4.02Z" fill="#f68d3a"/><path d="m498.61,335.63c-1,2.74-2,5.49-3,8.23-.78,1.31-1.56,2.61-2.34,3.91-.54.99-1.08,1.98-1.62,2.96-.48,1.45-.95,2.9-1.43,4.36,0,0,0-.05,0-.05-2.17,1.52-4.7,2.72-6.45,4.62-7.99,8.67-17.54,15.18-28,20.32-31.94,15.69-66.4,21.07-101.36,23.64-14.55,1.07-29.23.44-43.85.55-20.19.15-40.16-1.98-59.99-5.71-2.85-.54-5.8-.49-8.71-.72-.74-.05-1.49-.1-2.23-.15-1.43-2.65-3.88-2.1-6.2-1.99-1.6-.16-3.32,0-4.78-.54-11.67-4.29-23.44-8.37-34.88-13.21-7.85-3.33-15.23-7.77-22.82-11.72-2.08-1.79-4.31-3.42-6.19-5.39-4.68-4.92-9.21-9.99-13.79-14.99,1.08.31,2.44.3,3.2.97,14.41,12.6,31.66,19.81,49.15,26.86,15.57,6.28,32.04,8.93,48.06,13.28,8.38,2.27,17.39,2.11,26.06,3.39,18.04,2.66,36.18,1.17,54.26,1.2,9.65.01,19.29-1.79,28.96-2.55,15.04-1.18,29.64-4.54,44.23-8.15,12.66-3.13,24.86-7.56,36.56-13.19,5.11-2.45,8.46-7.04,9.78-12.8,8.58-4.02,17.75-7.12,25.6-12.24,15.3-9.98,23.8-24.36,23.45-43.18.31,6.52,1,13.05.79,19.55-.14,4.26-1.59,8.48-2.45,12.72Z" fill="#fec57c"/><path d="m481.76,187.75c-2.39-2-4.14-1.24-5.46,1.29-11.52,7.46-23.54,13.87-36.56,18.41-30.69,10.71-62.58,14.6-94.75,16.12-16.16.76-32.42-.6-48.64-.98-17.66-.42-34.98-3.42-52.19-7.04-21.41-4.5-42.14-11.03-61.31-21.85-3.59-2.03-7.22-3.99-10.83-5.98,0,0,0,0,0,0-.34-.55-.68-1.1-1.02-1.65.08-1.81.16-3.62.24-5.42,6.46,3.12,12.78,6.59,19.42,9.29,10.48,4.26,20.98,8.59,31.8,11.8,15.22,4.52,30.71,7.92,46.56,10,16.97,2.22,33.92,4.25,51.02,3.75,12.2-.36,24.37-1.75,36.55-2.61,15.2-1.08,30.17-3.52,44.98-7.08,14.42-3.46,28.62-7.55,41.89-14.29,5.69-2.89,10.47-6.86,11.93-13.59,5.93-2.25,11.87-4.5,17.8-6.74,2.13,7.71,2.42,7.91,11.59,8.35-1.01,2.74-2.03,5.48-3.04,8.22Z" fill="#fec57c"/><path d="m233.51,313.1c10.98,1.59,21.95,3.29,32.96,4.74,10.54,1.39,21.12,2.52,31.68,3.76,10.33,1.21,20.64,2.63,30.99,3.56,7.15.64,14.36.8,21.55.84,11.61.07,23.26.41,34.83-.33,18.58-1.19,36.63-5.29,53.89-12.43,19.69-8.14,37.37-19.47,53.27-33.67,7.19-6.43,11.97-14.05,13.36-23.67,2.34,9.49.4,18.53-2.9,27.42-1.49,4.02-3.08,8.01-4.63,12.01-1.25.45-2.51.9-3.76,1.35-1.43.61-2.97,1.05-4.28,1.86-7.05,4.39-13.72,9.53-21.12,13.18-17.09,8.43-35.45,13.26-54.09,16.84-8.13,1.56-16.42,2.31-24.65,3.26-11.44,1.33-22.87,2.8-34.34,3.65-7.39.55-14.85.28-22.28.09-13.64-.35-27.29-.7-40.91-1.47-7.11-.4-14.18-1.57-21.24-2.6-9.57-1.4-19.21-2.58-28.63-4.7-4.45-1-10.01-.55-12.86-5.62,1.06-2.69,2.12-5.39,3.18-8.08Z" fill="#ffda96"/><path d="m216.52,252.84c10.29,1.54,20.57,3.21,30.88,4.59,13.98,1.86,27.99,3.55,41.99,5.2,22.38,2.64,44.86,4.4,67.35,2.84,25.16-1.74,49.42-7.54,72.04-19.19,15.15-7.8,29.01-17.54,41.56-28.96,4.11-3.74,6.41-9.48,9.48-14.34.83-1.32,1.46-2.77,2.18-4.16.47,4.13.94,8.26,1.41,12.39-.47,1.01-.94,2.02-1.42,3.03-.86,2.34-1.48,4.82-2.64,7.01-2.75,5.15-5.77,10.17-8.69,15.24-1.69.59-3.7.79-5.03,1.83-16.05,12.52-34.71,19.48-54.01,24.6-12.45,3.3-25.35,4.89-38.04,7.27-15.96,2.99-32.16,3.72-48.3,3.87-15.74.14-31.48.64-47.28-.92-11.47-1.13-23.09-1.1-34.48-3.19-11.56-2.12-23.09-4.49-34.56-7.06-6.75-1.51-13.38-3.62-20.06-5.45v-4.04c2.48,0,4.62,0,6.76,0,4.26,1.97,8.52,1.97,12.79,0l8.06-.55Z" fill="#ffda96"/><path d="m307.02,60.41c-13.07-5.34-26.19-10.54-40.23-12.72-4.1-.64-8.28-.71-12.42-1.05,6.33-1.25,12.6-2.89,18.99-3.68,22.09-2.76,44.29-2.7,66.48-1.87,8.56.32,17.16.61,25.63,1.72,14.84,1.96,29.65,4.22,44.35,7.01,7.16,1.36,14.03,4.19,21.04,6.35-6.64.42-13.34.41-19.9,1.35-7.49,1.08-14.86,2.98-22.27,4.57-13.02,2.79-26.04,5.61-39.06,8.42-4.8-4.53-9.78-8.88-14.34-13.64-3.01-3.14-5.85-3.56-9.86-2.08-6.01,2.22-12.26,3.77-18.41,5.6Z" fill="#fe9c59"/><path d="m141.32,172.37c-5.03-.33-9.05,1.51-11.84,5.73-3.92,5.94-2.72,12.41,3.28,16.24,4.27,2.72,8.79,5.07,13.29,7.42,5.34,2.79,8.96,6.72,11.09,12.59,3.23,8.86,7.29,17.42,10.99,26.1-6.89-3.11-14.15-5.59-20.58-9.47-11.94-7.2-21.35-16.78-24.45-31.14-.21-.99-1.18-1.81-1.79-2.71-.67-20.05,7.93-35.73,22.83-48.45.43,1.37.86,2.75,1.28,4.12-.89,1.11-2.52,2.21-2.54,3.33-.06,4.1.21,8.24.79,12.31.32,2.27.09,3.6-2.36,3.92Z" fill="#f68e3c"/><path d="m121.32,197.14c.61.9,1.58,1.72,1.79,2.71,3.1,14.36,12.51,23.94,24.45,31.14,6.43,3.88,13.69,6.36,20.58,9.47,3.58,2.87,7.15,5.73,11.17,8.95.24,5.57.49,11.52.74,17.48-1.11-.29-2.29-.43-3.31-.91-9-4.23-17.98-8.53-26.96-12.81,0,0,.04.05.04.05-.48-.46-.96-.92-1.45-1.39-.98-.45-1.97-.9-2.95-1.35-1.6-1.6-3.17-3.24-4.82-4.78-13.11-12.24-20.06-27.19-19.99-45.23,0-1.11.46-2.22.7-3.33Z" fill="#fec57c"/><path d="m217.99,56.29c-.83,1.02-1.66,2.04-2.49,3.05-1.53.48-3.13.79-4.57,1.47-8.19,3.86-15.51,8.97-22.69,14.53-7.74,6-13.28,13.49-17.53,21.95-1.82,3.62-4.57,7.47-3.01,12.13-3.85,3.62-7.94,7.01-11.49,10.9-5.47,5.98-8.44,13.11-8.22,21.37-1.31-2.82-2.62-5.64-3.93-8.46-.07-.87-.13-1.73-.2-2.6-.03-1.51-.07-3.02-.1-4.53,1.65-18.14,10.75-32.28,24.22-43.79,14.62-12.49,31.42-21.05,50.02-26.02Z" fill="#f68e3c"/><path d="m149.63,285.44c-.88-.48-1.75-.97-2.62-1.45.07-1.75.33-3.52.18-5.25-.46-5.25-1.09-10.49-1.65-15.74,2.83-.04,3.01,2.42,3.93,4.17,1.61,3.04,2.74,6.5,4.92,9.04,3.97,4.63,7.3,10.19,13.77,12.02.04,3.45-.94,7.15,2.44,9.76,0,0-.03-.04-.03-.04,1.2,4.08,5.01,5.06,8.19,6.61,3.28,1.6,6.74,2.81,10.16,4.1,7.4,2.78,11.16,7.73,9.72,15.89-2.02-.34-4.2-.28-6.02-1.08-18.41-8.05-33.84-19.53-43.01-38.05Z" fill="#fec57c"/><path d="m487.48,102.81c-6.26-2.44-12.53-4.85-18.77-7.33-4.09-1.63-7.13-4.25-7.96-8.86-.21-1.13-.88-2.23-.88-3.34,0-8.34-4.6-14.31-10.05-19.86,9.07,2.64,16.69,7.77,23.78,13.83.81.56,1.63,1.12,2.44,1.67,0,0,.22.22.22.22.66.7,1.32,1.4,1.97,2.1,0,0,.14-.14.14-.14.53,1.62.81,3.4,1.66,4.83,3.19,5.33,6.94,10.38,7.46,16.88Z" fill="#f68e3c"/><path d="m168.17,288.24c-6.47-1.84-9.81-7.39-13.77-12.02-2.18-2.55-3.3-6-4.92-9.04-.93-1.75-1.11-4.21-3.93-4.17-.17-2.7-.35-5.41-.52-8.11.1-.58.21-1.17.31-1.75.03-.89.06-1.77.1-2.66.98.45,1.97.9,2.95,1.35q-.72,1.37,1.45,1.38s-.04-.05-.04-.05c.74,4.86,4.61,7.35,8.14,9.65,6.32,4.12,13.06,7.62,19.62,11.37-3.12,4.68-6.25,9.37-9.37,14.05Z" fill="#f68e3c"/><path d="m144.05,133.23c1.31,2.82,2.62,5.64,3.93,8.46,1.28,6.43,3.99,12.23,8.42,17.03,3.25,3.52,4.91,7.63,5.97,12.13-1.12.08-2.39.53-3.33.16-1.81-.71-3.43-1.89-5.14-2.87-2.83-5.11-5.66-10.22-8.48-15.33-.43-1.37-.86-2.75-1.28-4.12-.43-3.89-1-7.77-1.23-11.66-.07-1.24.73-2.53,1.13-3.79Z" fill="#ffda96"/><path d="m487.48,102.81c-.52-6.5-4.26-11.55-7.46-16.88-.86-1.43-1.13-3.21-1.66-4.83,10.42,8.2,18.98,17.7,21.71,31.23-4.2-3.18-8.4-6.35-12.6-9.53Z" fill="#e4782d"/><path d="m301.78,517.13c15.41,0,30.83,0,46.24,0-1.49.43-2.98,1.22-4.47,1.23-12.43.1-24.87.1-37.3,0-1.49-.01-2.98-.8-4.47-1.23Z" fill="#c9e1e1"/><path d="m502.68,117.98c-.87-1.89-1.75-3.78-2.62-5.66,2.87.96,2.64,3.36,2.62,5.66Z" fill="#e4782d"/><path d="m143.76,126.1c.03,1.51.07,3.02.1,4.53-.03-1.51-.07-3.02-.1-4.53Z" fill="#ffda96"/><path d="m478.22,81.25c-.66-.7-1.32-1.4-1.97-2.1.66.7,1.32,1.4,1.97,2.1Z" fill="#e4782d"/><path d="m476.03,78.93c-.81-.56-1.63-1.12-2.44-1.67.81.56,1.63,1.12,2.44,1.67Z" fill="#e4782d"/><path d="m449.89,63.46c-.95-.48-1.9-.97-2.85-1.45.95.48,1.9.97,2.85,1.45Z" fill="#f68e3c"/><path d="m145.33,253.14c-.1.58-.2,1.17-.31,1.75.1-.58.2-1.17.31-1.75Z" fill="#ffda96"/><path d="m219.63,55.36c-.56.33-1.12.66-1.68.99.56-.33,1.12-.66,1.68-.99Z" fill="#f68e3c"/><path d="m482.22,196.24c.01-.59.03-1.18.04-1.77-.01.59-.03,1.18-.04,1.77Z" fill="#ffda96"/><path d="m482.35,192.08c-.09-.57-.18-1.14-.27-1.71.09.57.18,1.14.27,1.71Z" fill="#ffda96"/><path d="m505.87,143.28c.22-.58.44-1.16.66-1.74-.22.58-.44,1.16-.66,1.74Z" fill="#c4764a"/><path d="m356.25,77.3c3.33-.7,6.67-1.31,9.98-2.1,15.29-3.68,30.53-7.6,45.87-11.04,6.23-1.4,12.52-2.87,19.14-.83,8.82,2.72,15.39,7.37,17.8,16.71.58,2.24,1.15,4.48,1.88,6.67,1.83,5.5,5.08,9.98,10.42,12.43,6.74,3.09,13.6,5.92,20.47,8.72,7.91,3.22,11.77,9.18,7.52,19.02-1.79,4.13-4.74,6.43-9.64,6.63-9.81.4-18.56-3.7-27.8-5.74-7.66-1.68-15.38-3.68-23.15-4.11-14.19-.79-25.42,5.53-34.23,16.55-3.76,4.7-7.66,9.34-11.89,13.61-9.29,9.39-20.66,11.52-32.47,5.61-9.11-4.56-17.78-10.02-26.67-15.02-8.09-4.54-16.1-9.22-25.31-11.31-8.98-2.04-18.06-2.08-26.93-.34-16.11,3.18-32.09,7.05-48.11,10.7-10.41,2.38-20.9,4.43-31.61,3.61-4.04-.31-8.41-1.27-11.86-3.27-9.15-5.27-10.7-16.79-3.18-25.16,5.24-5.82,11.62-10.61,17.42-15.93,5.13-4.7,10.28-9.37,15.17-14.31,1.56-1.57,2.42-3.9,3.38-5.99,4.46-9.76,9.64-19,17.75-26.33,7-6.33,15.01-8.42,24.27-6.94,14.22,2.28,26.66,8.9,39.11,15.54-4.79,2.02-9.61,3.98-14.36,6.08-2.67,1.18-5.24,2.57-7.86,3.87-1.49,9.4.03,18.35,6.48,25.39,8.44,9.22,17.71,17.68,26.62,26.46,2.69,2.5,4.8.18,6.82-1.03,7.97-4.75,16.09-9.31,23.65-14.65,6.97-4.92,13.84-10.24,19.77-16.33,7.54-7.74,7.12-8.15,1.56-17.19Z" fill="#c4764a"/><path d="m483.29,215.57c6.22,4.76,9.17,11.54,11.01,18.78,3.22,12.61-1.52,22.97-9.67,32.32-13.6,15.59-31.96,22.84-51.01,28.2-14.85,4.18-30.16,6.78-45.33,9.73-5.64,1.1-11.47,1.32-17.23,1.68-12.92.82-25.86,1.96-38.79,2.04-11.52.07-23.06-.93-34.57-1.83-8.97-.7-17.89-1.96-26.84-3-3.66-.43-7.32-.94-10.98-1.42-.55-3.19-1.1-6.37-1.65-9.56.84-.2,1.69-.6,2.52-.55,8.77.52,17.54,1.71,26.29,1.58,22.49-.31,44.96,1.14,67.48-.99,16.14-1.53,32.17-3.43,47.85-7.35,19.13-4.78,37.84-10.73,54.43-22.11,16.85-11.56,26.51-26.76,26.48-47.54Z" fill="#fe9c59"/><path d="m455.4,177.92c-1.46,6.73-6.23,10.69-11.93,13.59-13.27,6.75-27.47,10.83-41.89,14.29-14.82,3.56-29.79,6-44.98,7.08-12.19.87-24.35,2.26-36.55,2.61-17.1.5-34.05-1.53-51.02-3.75-15.85-2.07-31.34-5.47-46.56-10-10.82-3.22-21.33-7.55-31.8-11.8-6.64-2.7-12.96-6.17-19.42-9.29-.03-.93-.07-1.86-.1-2.79.25-.54.5-1.08.76-1.62,1.74-4.34,5.37-2.32,8.23-2.22,2.92.1,5.81.92,8.71,1.42,5.56,1.32,11.17,2.51,16.69,3.98,21.47,5.72,42.84,11.83,64.39,17.22,16.44,4.11,33.3,5.93,50.24,6.01,10.65.05,21.34-.49,31.96-1.41,7.04-.61,13.99-2.33,20.98-3.56,3.67-.64,7.35-1.29,11.02-1.93,2.05-.2,4.17-.13,6.13-.65,8.73-2.32,17.39-4.91,26.13-7.2,12.98-3.41,26.01-6.66,39.02-9.98Z" fill="#ffda96"/><path d="m271.35,74.65c2.62-1.3,5.19-2.7,7.86-3.87,4.76-2.1,9.57-4.06,14.36-6.08,4.49-1.43,8.97-2.86,13.46-4.29,6.15-1.83,12.4-3.39,18.41-5.6,4.01-1.48,6.85-1.06,9.86,2.08,4.56,4.76,9.54,9.12,14.34,13.64,2.21,2.26,4.42,4.52,6.63,6.77,5.55,9.04,5.97,9.45-1.57,17.19-5.94,6.09-12.8,11.4-19.77,16.33-7.56,5.34-15.68,9.9-23.65,14.65-2.02,1.2-4.13,3.53-6.82,1.03.53-.73,1.39-1.39,1.53-2.19,1.34-7.51,6-12.19,12.52-15.58,3.07-1.59,5.89-3.7,8.66-5.79,1.59-1.21,2.84-2.86,4.25-4.31.58-.29,1.16-.58,1.75-.87-.15-.17-.37-.5-.43-.48-.58.27-1.13.6-1.68.91-8.21,3.55-16.42,7.1-23.76,10.28-8.46-8.04-16.34-15.87-24.61-23.25-3.86-3.44-5.48-9.29-11.32-10.57Zm65.52,21.07c.61-.24,1.21-.49,1.82-.73-.14-.17-.38-.51-.42-.49-.56.3-1.09.65-1.63.99-.18.25-.35.49-.53.74.25-.17.51-.34.76-.51Z" fill="#fec57c"/><path d="m444.21,211.36c-3.27,5.91-8.87,9.13-14.5,12.14-12.07,6.46-24.76,11.28-38.13,14.44-13.91,3.28-27.98,5.4-42.16,7.14-18.64,2.29-37.32,3.24-56.02,2.46-12.62-.53-25.2-2.3-37.75-3.86-9.58-1.2-19.1-2.95-28.64-4.45.07-7.41-4.4-12.09-9.83-16.12-1.81-1.34-3.86-2.36-5.81-3.52,1.45-.12,2.99-.62,4.33-.29,8.96,2.23,17.78,5.13,26.83,6.87,12.89,2.47,25.89,5.39,38.93,5.86,28.66,1.05,57.32.65,85.87-3.63,19.19-2.88,38.3-5.84,56.99-11.13,6.65-1.88,13.26-3.92,19.89-5.89Z" fill="#fe9c59"/><path d="m483.29,215.57c.03,20.78-9.63,35.98-26.48,47.54-16.59,11.38-35.29,17.34-54.43,22.11-15.68,3.91-31.71,5.82-47.85,7.35-22.51,2.13-44.99.68-67.48.99-8.75.12-17.52-1.06-26.29-1.58-.82-.05-1.68.36-2.52.55-.5-.48-1.08-.9-1.48-1.44-4.16-5.71-9.62-8.14-16.75-7.34-4.11.46-8.32-.04-12.46.26-9.2.68-17.86-1.78-26.37-4.59-4-1.32-8.56-2.69-9.76-7.84,1.15.06,2.37-.1,3.44.21,21.92,6.34,44.51,9.58,67.1,10.24,33.83.97,67.74,2.14,101.56-2.03,16.37-2.02,32.56-4.6,48.41-8.96,18.48-5.08,35.94-12.59,50.74-25.12,3.1-2.62,5.34-6.26,7.98-9.43,2.91-5.07,5.93-10.08,8.69-15.24,1.17-2.18,1.78-4.66,2.64-7.01.43.44.86.89,1.29,1.33Z" fill="#e1782f"/><path d="m470.68,236.48c-2.64,3.17-4.88,6.81-7.98,9.43-14.81,12.54-32.26,20.04-50.74,25.12-15.85,4.36-32.05,6.95-48.41,8.96-33.82,4.16-67.73,3-101.56,2.03-22.59-.65-45.18-3.9-67.1-10.24-1.08-.31-2.29-.15-3.44-.21-4.26-4.1-2.58-9.27-2.52-14.14,6.68,1.84,13.3,3.94,20.06,5.45,11.47,2.57,23,4.94,34.56,7.06,11.39,2.09,23.01,2.06,34.48,3.19,15.8,1.56,31.54,1.06,47.28.92,16.15-.15,32.34-.88,48.3-3.87,12.69-2.38,25.59-3.97,38.04-7.27,19.3-5.12,37.96-12.08,54.01-24.6,1.34-1.04,3.34-1.24,5.03-1.83Z" fill="#fec57c"/><path d="m444.21,211.36c-6.63,1.97-13.23,4.01-19.89,5.89-18.69,5.29-37.8,8.25-56.99,11.13-28.55,4.28-57.21,4.68-85.87,3.63-13.04-.48-26.04-3.4-38.93-5.86-9.05-1.73-17.87-4.64-26.83-6.87-1.34-.33-2.88.17-4.33.29-9.87-5.08-19.95-9.81-29.53-15.37-5.98-3.47-9.99-8.94-9.83-16.48,3.61,1.99,7.24,3.95,10.83,5.98,19.18,10.82,39.9,17.35,61.31,21.85,17.21,3.62,34.53,6.62,52.19,7.04,16.22.38,32.48,1.74,48.64.98,32.17-1.52,64.06-5.41,94.75-16.12,13.02-4.54,25.04-10.95,36.56-18.41,2.65,2.53-.14,3.7-1.47,4.77-7.77,6.2-16.31,11.11-25.55,14.81-.81.32-1.5.94-2.25,1.42-.94.45-1.88.9-2.83,1.36l.02-.03Z" fill="#e1782f"/><path d="m230.33,321.18c2.86,5.07,8.41,4.62,12.86,5.62,9.42,2.12,19.06,3.3,28.63,4.7,7.06,1.03,14.14,2.2,21.24,2.6,13.62.77,27.27,1.12,40.91,1.47,7.42.19,14.89.47,22.28-.09,11.48-.86,22.91-2.32,34.34-3.65,8.23-.96,16.52-1.7,24.65-3.26,18.64-3.58,37-8.42,54.09-16.84,7.41-3.65,14.07-8.8,21.12-13.18,1.31-.81,2.85-1.25,4.28-1.86-4.37,4.67-8.26,9.94-13.21,13.89-14.02,11.18-30.57,17.39-47.67,21.94-16.54,4.41-33.39,7.21-50.48,8.8-27.28,2.53-54.61,3.56-81.93,2.3-25.59-1.18-51.19-3.23-76.22-9.4,1.7-4.34,3.41-8.68,5.11-13.03Z" fill="#fec57c"/><path d="m426.09,343.93c-2.09,1.27-4.03,3-6.29,3.73-16.69,5.41-33.59,9.74-51.11,11.87-19.98,2.43-39.94,4.6-60.08,3.87-10.35-.38-20.69-1.44-31-2.58-10.76-1.19-21.63-2.12-32.14-4.5-12.32-2.79-24.41-6.74-36.42-10.71-10.61-3.51-20.4-8.91-29.04-15.98-3.66-2.99-6.28-7.24-9.37-10.92,2.38,1.29,4.72,2.65,7.13,3.86,6.9,3.46,13.83,6.85,20.75,10.27,4.69,7.7,8.5,9.27,17.58,7.27,1.55-.34,3.12-.59,4.69-.89.89.63,1.69,1.59,2.68,1.86,14.94,4.08,30.12,7.01,45.54,8.47,11.48,1.08,23.05,1.46,34.48,2.92,18.98,2.43,38.03,1.65,56.96.92,15.82-.61,31.56-3.72,47.3-5.94,6.15-.87,12.22-2.32,18.33-3.51Z" fill="#fe9c59"/><path d="m224.87,169.47c12.28-5.43,24.79-9.75,38.27-11.5,19.91-2.57,38.7,1,56.78,8.92,7.36,3.22,14.48,7.24,19.75,13.68-2.16.51-4.34,1.51-6.48,1.45-14.58-.41-29.2,1.19-43.76-1.2-6.81-1.12-13.92-.54-20.69-1.83-14.7-2.8-29.26-6.3-43.87-9.51Z" fill="#fe9c59"/><path d="m373.1,197.69c-6.99,1.23-13.93,2.95-20.98,3.56-10.62.91-21.3,1.45-31.96,1.41-16.94-.08-33.8-1.9-50.24-6.01-21.55-5.39-42.92-11.5-64.39-17.22-5.53-1.47-11.13-2.66-16.69-3.98,8.49-.05,16.94-.4,25.11-3.04,1.42,1.31,2.63,3.39,4.28,3.81,11.14,2.89,22.35,5.55,33.59,8.04,17.83,3.95,35.78,7,54.17,6.26,13.86-.56,27.72-.94,41.58-1.49,1.04-.04,2.05-.81,3.07-1.24,6.52,3.98,13.03,7.98,20.94,8.61.53.04,1.01.85,1.51,1.3Z" fill="#e4782d"/><path d="m190.43,236.51c-11.35.07-21.79-6.79-26.29-17.34-1.18-2.77-2.21-5.61-3.29-8.41-2.33-6-5.63-11.02-11.84-13.87-3.76-1.73-7.26-4.14-10.62-6.6-1.8-1.31-3.49-3.13-4.48-5.11-1.89-3.77,1.16-7.75,5.36-7.09,1.75.27,3.53,1.2,4.99,2.26,1.87,1.35,3.63,2.95,5.1,4.73,9.24,11.2,21.08,18.67,34.16,24.58,4.39,1.98,8.34,4.94,12.49,7.46.4.24.85.45,1.14.79,3.04,3.45,6.91,6.63,5.31,12.01-1.18,3.97-6.22,6.56-12.03,6.6Z" fill="#c4764a"/><path d="m455.4,177.92c-13.01,3.32-26.04,6.57-39.02,9.98-8.74,2.3-17.4,4.89-26.13,7.2-1.96.52-4.08.45-6.13.65,8.42-3.95,13.1-11.16,16.77-19.25,1.82-.2,3.7-.2,5.47-.65,8.69-2.19,17.36-4.45,26.01-6.77,12.25-3.29,24.64-6.24,34.92-14.36.65-.51,1.76-.44,2.66-.65,3.29,1.53,3.19,4.75,3.42,7.56.26,3.15-.08,6.36-.15,9.54-5.93,2.25-11.87,4.5-17.8,6.74Z" fill="#e4782d"/><path d="m350.65,187.77c-1.02.43-2.03,1.2-3.07,1.24-13.86.55-27.72.94-41.58,1.49-18.39.74-36.34-2.31-54.17-6.26-11.24-2.49-22.45-5.16-33.59-8.04-1.65-.43-2.86-2.5-4.28-3.81,3.64-.97,7.27-1.95,10.91-2.92,14.61,3.21,29.18,6.71,43.87,9.51,6.77,1.29,13.87.71,20.69,1.83,14.56,2.39,29.18.79,43.76,1.2,2.14.06,4.32-.94,6.48-1.45,3.66,2.4,7.32,4.8,10.98,7.2Z" fill="#f68d3a"/><path d="m217.29,311.15c-1.67-1.21-4.01-2.01-4.68-3.54-3.07-7.05-9.21-7.71-15.56-8.31-3.21-.3-6.45-.59-9.58-1.33-5.18-1.23-8.76-6.04-7.68-9.82,1.5-5.24,6.17-7.71,12-6.26,2.01.5,4.32.72,5.91,1.87,9.25,6.67,19.4,4.55,29.49,3.47,6.47-.7,12.95-1.2,19.24,1.14,2.3.86,4.14,2.07,3.97,4.98-.16,2.77-1.62,4.21-4.28,4.61-.69.1-1.36.36-2.05.4-8.06.41-14.49,4-20.09,9.67-1.49,1.51-4.06,1.94-6.69,3.12Z" fill="#c4764a"/><path d="m402.53,172.31c3.32-10.76,9.28-19.55,19-25.56,12.76-7.88,25.87-9.22,39.45-2.18-1.12,1.65-1.87,3.83-3.41,4.87-16.76,11.4-34.88,19.63-55.04,22.87Z" fill="#fe9c59"/><path d="m167.7,109.42c-1.56-4.66,1.2-8.51,3.01-12.13,4.25-8.47,9.79-15.96,17.53-21.95,7.18-5.56,14.5-10.67,22.69-14.53,1.43-.68,3.04-.99,4.57-1.47-1.13,2.01-2.55,3.92-3.33,6.06-5.66,15.63-17.25,26-30.56,34.89-4.61,3.08-9.27,6.09-13.91,9.13Z" fill="#fe9c59"/><path d="m303.23,153.63c16.15,1.93,30.11,7.94,41.69,19.15,6.92,6.7,14.91,11.72,24.47,13.97,10.18,2.4,17.15-.38,22.18-9.52,3.14-5.7,5.87-11.62,8.83-17.41.91-1.79,1.99-3.5,4-4.95-.09.9.03,1.88-.3,2.67-2.9,6.83-5.86,13.64-8.85,20.43-4.71,10.7-16.02,15.76-26.97,12.75-9.54-2.63-17.77-7.25-24.49-13.95-10.5-10.46-22.5-17.8-36.74-21.63-1.31-.35-2.54-1-3.8-1.51Z" fill="#c4764a"/><path d="m402.53,172.31c20.17-3.24,38.29-11.47,55.04-22.87,1.53-1.04,2.29-3.22,3.41-4.87,3.82,2.39,7.7,4.71,8.96,9.51-.89.2-2,.13-2.65.65-10.28,8.12-22.67,11.07-34.92,14.36-8.65,2.32-17.33,4.58-26.01,6.77-1.76.44-3.64.44-5.47.65.55-1.4,1.09-2.8,1.64-4.19Z" fill="#f68d3a"/><path d="m163.69,119.31c-1.03,1.75-1.96,3.59-3.12,5.25-5.42,7.74-5.56,15.24-.25,23.25,6.65,10.01,15.94,15.47,27.8,17.87,12.45,2.52,23.84-1.44,35.57-3.7,3.59-.69,7.13-1.63,10.75-2.16-17.7,8.83-39.66,13.1-56.51,7.09-9.92-3.54-17.07-10.34-22.05-19.24-4.37-7.82-2.4-19.36,3.74-26,1.02-1.1,2.69-1.59,4.06-2.36h0Z" fill="#c4764a"/><path d="m198.53,332.83c-6.92-3.42-13.85-6.81-20.75-10.27-2.42-1.21-4.76-2.57-7.13-3.86-1.07-1.17-1.96-2.62-3.25-3.47-8.15-5.36-12.99-13.39-17.64-21.56-1.47-2.59-2.66-5.46-.13-8.23,9.17,18.52,24.6,30,43.01,38.05,1.82.79,4,.74,6.02,1.08-.04,2.76-.09,5.51-.13,8.27Z" fill="#e1782f"/><path d="m145.43,152.81c2.83,5.11,5.66,10.22,8.48,15.33,1.82,4.54,4.53,8.22,9.53,9.61v7.46c-7.61-4.42-14.87-8.63-22.12-12.85,2.45-.32,2.68-1.65,2.36-3.92-.58-4.06-.84-8.21-.79-12.31.02-1.12,1.65-2.22,2.54-3.33Z" fill="#e1782f"/><path d="m469.36,141.63c8.47,3.32,10.12,10.88,10.95,18.55.44,4.08,1.6,7.12,6.05,9.46,1.7-1.79,4.01-3.45,5.29-5.69,3.8-6.68,6.83-13.69,7.18-21.59.07-1.68.86-3.34,1.9-4.85.9,11.1-1.18,21.51-7.39,30.83-1.82,2.74-4.4,4.93-8.01,4.78-3.46-.15-7.06-2.85-7.26-6.44-.51-9.26-3.48-17.49-8.7-25.03h0Z" fill="#c4764a"/><path d="m222.29,330.01c-3.6,6.77-12.33,9.21-17.93,4.65-1.56-1.27-2.66-3.75-2.92-5.81-.47-3.64-.32-7.39-.09-11.08.23-3.72-1.4-6.57-4.41-8.01-8.68-4.15-17.56-7.89-26.36-11.8,0,0,.03.04.03.04.5-3.27.99-6.53,1.49-9.8,0,0-.07-.06-.07-.06-.74,5.62,2.51,8.64,7.12,10.56,4.27,1.78,8.64,3.3,12.98,4.89,10.17,3.71,14.02,10.98,11.18,19.86-1.1,3.46-.16,6.63,2.53,8.78,3.08,2.46,6.73,2.95,10.43.97,2-1.07,4.03-2.11,6.04-3.16,0,0-.03-.03-.03-.03Z" fill="#c4764a"/><path d="m177.54,274.18c-6.56-3.76-13.3-7.25-19.62-11.37-3.52-2.3-7.4-4.78-8.14-9.65,8.98,4.28,17.95,8.57,26.96,12.81,1.02.48,2.2.61,3.31.91-.84,2.43-1.67,4.87-2.51,7.31Z" fill="#e4782d"/><path d="m172.04,235.15c1.58.87,3.21,1.66,4.73,2.63,11.18,7.19,22.98,9.23,35.65,4.46,1.8-.68,3.68-1.15,5.63-1.34-16.18,11.82-33.13,6.69-45.06-3.28-.59-.49-.61-1.66-.9-2.52,0,0-.05.05-.05.05Z" fill="#c4764a"/><path d="m163.44,177.76c-5-1.39-7.7-5.07-9.53-9.61,1.7.98,3.33,2.16,5.14,2.87.94.37,2.21-.08,3.33-.16.35,2.3.71,4.6,1.06,6.9Z" fill="#fec57c"/><path d="m208.46,253.39c-4.26,1.97-8.52,1.97-12.79,0,4.26,0,8.52,0,12.79,0Z" fill="#c4764a"/><path d="m469.36,141.64c-1.18-.47-2.37-.95-3.55-1.42.2-.37.4-.74.61-1.1.98.84,1.97,1.68,2.95,2.51h0Z" fill="#c4764a"/><path d="m167.91,116.55c.43-.35.85-.7,1.28-1.06-.45.33-.89.66-1.34.99,0,0,.06.07.06.07Z" fill="#c4764a"/><path d="m165.12,117.94c.93-.46,1.86-.92,2.8-1.38,0,0-.06-.07-.06-.07-.93.46-1.87.93-2.8,1.39,0,0,.06.06.06.06Z" fill="#c4764a"/><path d="m406.57,151.41c.47-.92.94-1.85,1.41-2.77,0,0-.06-.07-.06-.07-.46.94-.91,1.87-1.37,2.81,0,0,.03.03.03.03Z" fill="#c4764a"/><path d="m173.42,285.34c-.46.93-.93,1.87-1.39,2.8,0,0,.07.06.07.06.46-.93.92-1.86,1.38-2.8,0,0-.06-.07-.06-.07Z" fill="#c4764a"/><path d="m173.48,285.4c.18-.19.37-.38.55-.57-.04.11-.05.28-.13.33-.14.09-.32.12-.49.17,0,0,.06.07.06.07Z" fill="#c4764a"/><path d="m170.64,233.77c.47.46.93.92,1.4,1.39,0,0,.05-.05.05-.05-.46-.47-.92-.94-1.39-1.4,0,0-.06.07-.06.07Z" fill="#c4764a"/><path d="m170.7,233.7l-.67-.55c.13.03.31.01.38.1.11.14.15.34.23.52,0,0,.06-.07.06-.07Z" fill="#c4764a"/><path d="m222.32,330.03c.2-.22.39-.45.59-.67-.03.14,0,.34-.09.41-.14.12-.35.16-.53.24,0,0,.03.03.03.03Z" fill="#c4764a"/><path d="m171.01,186.07c.34.55.68,1.1,1.02,1.65-.34-.55-.68-1.1-1.02-1.65Z" fill="#e1782f"/><path d="m171.91,176.24c-.25.54-.5,1.08-.76,1.62.25-.54.5-1.08.76-1.62Z" fill="#fec57c"/><path d="m163.68,119.3c.48-.46.95-.91,1.43-1.37,0,0-.06-.06-.06-.06-.45.48-.91.96-1.36,1.44h0Z" fill="#c4764a"/><path d="m406.54,151.39c-.22.24-.44.47-.65.71.03-.16,0-.38.1-.46.15-.12.38-.15.58-.22,0,0-.03-.03-.03-.03Z" fill="#c4764a"/><path d="m407.97,148.65c.2-.21.4-.42.61-.63-.04.13-.04.33-.13.39-.15.1-.36.12-.54.17,0,0,.06.07.06.07Z" fill="#c4764a"/><path d="m431.69,342.4c-1.88.52-3.76,1.04-5.64,1.56,1.88-.52,3.76-1.04,5.64-1.56Z" fill="#fe9c59"/><path d="m204.17,473.56c.12,3.02,2.48,3.75,4.71,4.3,15.23,3.78,30.39,7.94,45.76,11.05,12.62,2.55,25.48,4.02,38.28,5.58,7.55.92,15.19,1.38,22.81,1.52,12.77.24,25.56.41,38.33-.04,11.75-.41,23.5-1.37,35.18-2.66,14.19-1.57,28.41-3.25,42.44-5.81,11.34-2.07,22.43-5.52,33.62-8.38,3.18-.81,6.21-2.89,9.69-1.13-5.01,2.23-9.88,4.9-15.07,6.61-11.19,3.68-22.5,7-33.84,10.19-3.51.99-7.28,1.08-10.93,1.58-1.66-.56-3.39-1.74-4.98-1.58-11.01,1.12-21.99,2.52-32.97,3.83-.69.08-1.39.18-2.08.2-14.59.48-29.2,1.46-43.78,1.27-12.22-.16-24.41-1.8-36.63-2.56-22.42-1.39-44.5-5.13-66.33-10.13-11.26-2.58-22.25-6.41-33.26-10-3.22-1.05-6.08-3.2-9.11-4.85,2.79-.05,5.58-.09,8.36-.14.92.17,1.85.34,2.77.52,2.34.2,4.68.41,7.02.61Z" fill="#d9f4f4"/><path d="m194.37,472.43c-2.79.05-5.58.09-8.36.14-6.6-1.44-13.39-2.45-19-6.6-5.1-3.77-4.79-9.72.57-12.85,1.34-.78,2.96-1.1,4.45-1.63-1.17,1.56-2.33,3.12-3.51,4.67-2.75,3.59-2.35,6.24,1.5,8.68,1.35.85,2.91,1.45,4.45,1.92,6.87,2.12,13.89,3.17,21.8,2.58-1.54-.89-2.53-1.46-4.74-2.74,4.89,0,8.37.33,11.75-.1,3.14-.4,6.29-1.36,9.22-2.59,1.19-.5,2.57-2.41,2.49-3.59-.08-1.22-1.66-2.57-2.9-3.42-1.09-.74-2.59-1.19-3.92-1.21-5.34-.1-10.76-.56-15.99.21-4.07.6-8.89.76-11.54,4.92.6,1.63,1.09,2.93,1.9,5.12-5.07-2.16-10.29-1.24-13.11-6.08,2.05-4.49,6.2-5.35,10.36-6.4-1.96-.87-3.58-1.58-5.19-2.29,1.96-.86,3.92-1.72,5.89-2.58l.08-1.28c-1.55-.49-3.08-1.26-4.66-1.41-7.31-.7-14.64-1.23-21.97-1.81-.48-.13-.97-.27-1.45-.4-7.36.24-14.5-.64-21.38-3.5-6.57-2.73-13.45-9.85-12.03-17.31.23-1.19,1.31-2.22,2-3.32,5.42-2.48,10.84-4.96,16.08-7.35,1.41-8.04,2.89-16.49,4.38-24.94.91-1.82,1.81-3.65,2.72-5.47,1.81-1,3.62-1.99,5.44-2.99-.81,1.58-1.52,3.22-2.45,4.72-3.79,6.15-6.35,12.59-5.27,19.96,2.34-8.31,5.41-16.17,11.39-22.63.42-.45.41-1.29.6-1.96,2.46.01,2.43,1.25,1.84,3.2-1.46,4.79-.44,9.43,2.7,13.06,3.3,3.83,7.07,7.42,11.17,10.36,10.73,7.68,23.31,9.95,36.1,10.85,3.82.27,7.84-.7,11.59-1.74,3.36-.94,6.96-2.85,7.3-6.66.35-3.97-3.16-6.05-6.44-7.24-4.33-1.56-8.81-2.96-13.34-3.65-10.09-1.53-19.17-4.16-25.79-13.01-4.58-6.12-11.08-9.87-19.42-7.83l-.35-.35c.24-.7.47-1.4.71-2.1-.43-.29-.85-.58-1.28-.87-1.65,1.93-3.3,3.87-4.95,5.81-1.37.03-2.75.06-4.13.08,1.17-1.79,2.04-3.94,3.6-5.28,1.7-1.47,4.04-2.19,6.1-3.24,3.85-.06,7.7-.11,11.55-.17,7.59,3.95,14.96,8.39,22.82,11.72,11.44,4.84,23.21,8.92,34.88,13.21,1.46.54,3.18.38,4.78.54,2.07.66,4.13,1.32,6.2,1.99.74.05,1.49.1,2.23.15,2.1,1.15,4.12,2.53,6.33,3.4,4.86,1.91,8.83,4.61,10.5,9.85-.97,3.23-1.95,6.46-2.92,9.68-4.68,4.35-10.28,5.84-16.56,5.71-8.11-.16-16.22-.11-24.33,0-2.24.03-4.47.62-6.7.96-4.19.26-8.46.31-11.03,4.52-.47.75-1.27,1.45-1.37,2.25-.66,5.42,2.34,10.51,8.44,12.87,5.14,1.99,10.69,2.91,15.96,4.62,6.55,2.13,12.99,4.6,19.47,6.92.21,2.14.42,4.28.63,6.43-3.95,1.63-7.82,3.51-11.87,4.82-3.78,1.23-7.75,1.85-11.64,2.74-2.33-.03-4.67-.06-7-.09-.47.12-.93.24-1.4.36-1.4.26-2.8.51-4.2.77-2.34-.2-4.68-.41-7.02-.61-.92-.17-1.85-.34-2.77-.52Zm-66.98-51.71c.94,0,1.88-.02,2.81-.03-.34,3.12-.39,6.11,3.39,7.29,7.67,2.4,15.29,4.98,23.58,3.96,3.02-.37,5.26-1.33,6.16-4.35-1.41-3.59-4.33-4.74-7.59-5.43-1.78-.38-3.69-.52-5.28-1.29-4.19-2.03-8.45-1.78-12.82-1.05-2.48.41-4.99.62-7.48.92,0-.48,0-.96,0-1.44,1.53-.38,3.07-.75,4.6-1.13-.19-.46-.37-.92-.56-1.38-1.34.85-2.67,1.7-4.01,2.55-.94.46-1.87.92-2.81,1.38-.2.08-.43.12-.57.25-.09.08-.06.31-.08.47.22-.24.44-.48.66-.72Zm48.95,20.87c.07-.35.15-.69.22-1.04-1.66-.54-3.3-1.39-5-1.57-9.61-1.03-19.23-1.97-28.86-2.82-7.95-.7-15.18-2.35-17.41-13.01-.9,8.12.15,10.56,5.55,13.04,2.69,1.23,5.65,2.22,8.57,2.51,7.56.75,15.16,1.01,22.74,1.56,4.73.35,9.46.88,14.18,1.32Z" fill="#a73305"/><path d="m141.55,387.28c-1.48,8.45-2.97,16.89-4.38,24.94-5.24,2.4-10.66,4.88-16.08,7.35-4.99-3.74-3.88-9.59-4.72-14.59-1.1-6.55.84-12.97,3.38-18.93,4.46-10.45,12-18.65,20.51-25.98.62-.53,1.74-.47,2.63-.68-.1,2.26-.21,4.52-.31,6.78-.21,1.01-.42,2.03-.64,3.04-.09.86-.17,1.72-.26,2.58-.05,5.17-.09,10.33-.14,15.5Z" fill="#d3eded"/><path d="m174.62,451.18c1.61.71,3.23,1.43,5.19,2.29-4.16,1.05-8.31,1.91-10.36,6.4,2.82,4.84,8.04,3.92,13.11,6.08-.81-2.19-1.3-3.5-1.9-5.12,2.65-4.17,7.47-4.32,11.54-4.92,5.23-.77,10.65-.32,15.99-.21,1.33.03,2.84.47,3.92,1.21,1.23.85,2.81,2.2,2.9,3.42.08,1.17-1.3,3.09-2.49,3.59-2.93,1.23-6.08,2.19-9.22,2.59-3.39.43-6.87.1-11.75.1,2.21,1.28,3.2,1.85,4.74,2.74-7.91.59-14.92-.46-21.8-2.58-1.54-.47-3.1-1.07-4.45-1.92-3.85-2.43-4.25-5.09-1.5-8.68,1.18-1.55,2.34-3.11,3.51-4.67.86-.11,1.72-.21,2.59-.32Z" fill="#c4764a"/><path d="m142.58,366.16c.1-2.26.21-4.52.31-6.78,1.75-2.94,3.5-5.89,5.25-8.83-.46,3.7,1.31,6.64,3.36,9.43,2.57,3.49,5.25,6.89,7.88,10.33-2.06,1.05-4.4,1.77-6.1,3.24-1.56,1.34-2.43,3.49-3.6,5.28,0,0,.01-.01.01-.01-1.81,1-3.62,1.99-5.44,2.99-.86-3.34-1.72-6.69-2.58-10.03.09-.86.17-1.72.26-2.58.21-1.01.43-2.03.64-3.04Z" fill="#f68d3a"/><path d="m159.39,370.31c-2.63-3.44-5.32-6.84-7.88-10.33-2.05-2.79-3.81-5.73-3.36-9.43-.08-.34-.02-.64.19-.92.88.03,1.76.06,2.64.09,0,0-.03.04-.03.04,4.59,5.01,9.11,10.08,13.79,15,1.88,1.97,4.12,3.6,6.19,5.39-3.85.06-7.7.11-11.55.17Z" fill="#e4782d"/><path d="m150.98,349.72c-.88-.03-1.76-.06-2.64-.09-.09-1.41-.19-2.82-.28-4.23.97,1.44,1.95,2.88,2.93,4.32Z" fill="#fec57c"/><path d="m152.51,443.7c.48.13.97.27,1.45.4-.48-.13-.97-.27-1.45-.4Z" fill="#c4764a"/><path d="m444.2,211.39c.94-.45,1.88-.9,2.83-1.36-.94.45-1.88.9-2.83,1.36Z" fill="#fe9c59"/><path d="m498.75,350.92c3.21,1.2,6.78,1.87,9.56,3.71,10.89,7.2,20.68,15.6,27.49,27.01,7.26,12.17,8.39,24.71,2.6,37.75-5.96,13.4-16.3,22.65-28.29,30.6-21.37,14.17-45.15,22.36-69.73,28.4-15.2,3.74-30.51,7.16-46.27,8.05-8.03.46-16.01,1.83-24.03,2.6-2.14.2-4.91.81-5.38-2.7,7.59-.6,15.29-.61,22.75-1.95,11.77-2.1,23.38-5.1,35.06-7.72,25.13-5.65,48.67-15.03,69.13-30.96,8-6.23,15.75-12.98,19.88-22.82,4.93-11.74,6.14-23.17-1.65-34.24-.04-9.33-3.27-17.9-6.45-26.44-.45-1.22-2.2-1.95-3.35-2.91,0,0,0,.02,0,.02-.45-.94-.9-1.89-1.34-2.83h0c0-1.86.01-3.72.02-5.57Z" fill="#c9e1e1"/><path d="m509.88,388.66c7.79,11.07,6.57,22.5,1.65,34.24-4.13,9.84-11.88,16.59-19.88,22.82-20.45,15.93-43.99,25.31-69.13,30.96-11.68,2.63-23.29,5.62-35.06,7.72-7.46,1.33-15.16,1.34-22.75,1.95-19.62,2.3-39.32,1.01-58.99,1.39-12.5.24-24.91-.49-37.23-2.72-11.32-2.05-22.7-3.75-34.03-5.76-3.85-.68-7.71-1.58-11.4-2.87-2.27-.8-4.21-2.53-6.3-3.84,3.89-.89,7.86-1.51,11.64-2.74,4.05-1.31,7.92-3.19,11.87-4.82.71.53,1.37,1.42,2.15,1.53,8.17,1.15,16.35,2.18,24.53,3.25.39,3.2,3.36,3.3,5.31,3.57,12.33,1.74,24.71,3.16,37.08,4.6,4.58.53,9.26,1.55,13.77,1.07,9.22-.97,18.35-.27,27.54-.1,7.77.15,15.59-1.44,23.37-2.36,12.37-1.46,24.93-2.08,37.05-4.71,24.26-5.26,48.06-12.19,69.57-25.3,9.62-5.86,18.47-12.54,24.44-22.22,3.26-5.29,6.35-10.87,6.16-17.49-.06-1.92.02-3.83-2.51-4.25.38-4.63.77-9.27,1.15-13.9Z" fill="#d9f4f4"/><path d="m498.75,350.92c0,1.85-.01,3.71-.02,5.56-1.83-2.9-3.65-5.8-5.48-8.71.78-1.3,1.56-2.61,2.34-3.91,1.05,2.35,2.1,4.71,3.15,7.06Z" fill="#b9babd"/><path d="m208.36,472.79c.47-.12.93-.24,1.4-.36-.47.12-.93.24-1.4.36Z" fill="#c4764a"/><path d="m493.26,347.78c1.83,2.9,3.65,5.8,5.48,8.71,0,0,0,0,0,0,.45.94.9,1.89,1.34,2.83,0,0,0-.02,0-.02.6,3.77,1.2,7.53,1.81,11.3-.49,5.96-.18,11.94-3.5,17.5-3.64,6.1-8.28,10.97-13.77,15.42-12.49,10.12-25.7,19.14-40.22,25.95-24.93,11.69-51.31,16.76-78.88,16.71-20.66-.04-41.23-.86-61.73-3.34-8.95-1.08-17.93-1.84-26.87-3-12.6-1.63-25.23-3.12-37.73-5.35-10.43-1.86-20.68-4.71-31.01-7.12,2.23-.33,4.46-.93,6.7-.96,8.11-.12,16.22-.17,24.33,0,6.28.12,11.88-1.37,16.56-5.71,2.62.64,5.21,1.41,7.86,1.9,15.44,2.91,30.98,5.19,46.73,5.08,22.45-.15,44.89.83,67.3-2.55,21.79-3.28,43.28-7.44,63.52-16.3,13.51-5.91,25.92-13.63,33.24-27.26.94-1.75,1.29-3.81,1.92-5.72,2.12-2.26,4.37-4.42,6.33-6.81,3.4-4.16,7.67-7.9,7.56-13.98,0,0,0,.05,0,.05.48-1.45.95-2.9,1.43-4.36.54-.99,1.08-1.98,1.62-2.96Z" fill="#f68e3c"/><path d="m490.21,355.05c.11,6.08-4.16,9.82-7.56,13.98-1.96,2.4-4.21,4.55-6.33,6.81-21.98,14.87-46.48,23.82-72.07,29.85-12.54,2.95-25.33,5.07-38.12,6.75-13.93,1.83-27.96,2.97-41.99,3.9-5.23.35-10.57-1.21-15.84-1.11-16.71.3-33.18-1.75-49.63-4.23-1.67-5.24-5.64-7.94-10.5-9.85-2.21-.87-4.23-2.25-6.33-3.4,2.9.22,5.86.18,8.71.72,19.83,3.74,39.8,5.87,59.99,5.71,14.62-.11,29.3.52,43.85-.55,34.97-2.58,69.43-7.95,101.36-23.64,10.46-5.14,20.01-11.65,28-20.32,1.76-1.91,4.28-3.1,6.45-4.62Z" fill="#e1782f"/><path d="m239.61,397.6c-2.07-.66-4.13-1.32-6.2-1.99,2.32-.12,4.77-.66,6.2,1.99Z" fill="#e1782f"/><path d="m491.64,350.74c-.48,1.45-.95,2.9-1.43,4.36.48-1.45.95-2.9,1.43-4.36Z" fill="#e1782f"/><path d="m149.82,253.21q-2.17-.02-1.45-1.38c.48.46.96.92,1.45,1.38Z" fill="#e4782d"/><path d="m271.35,74.65c5.83,1.29,7.46,7.13,11.32,10.57,8.28,7.38,16.15,15.21,24.61,23.25,7.33-3.17,15.55-6.72,23.76-10.28l.37.43c-1.4,1.45-2.66,3.11-4.25,4.31-2.77,2.1-5.6,4.2-8.66,5.79-6.52,3.39-11.18,8.08-12.52,15.58-.14.79-1,1.46-1.53,2.19-8.91-8.79-18.18-17.25-26.62-26.46-6.44-7.03-7.97-15.99-6.48-25.39Z" fill="#ffda96"/><path d="m336.63,95.48c.54-.34,1.07-.69,1.63-.99.04-.02.27.32.42.49-.61.24-1.21.49-1.82.73l-.23-.23Z" fill="#ffda96"/><path d="m331.04,98.19c.56-.31,1.11-.64,1.68-.91.06-.03.28.31.43.48-.58.29-1.17.58-1.75.87,0,0-.37-.43-.37-.43Z" fill="#ffda96"/><path d="m336.87,95.71c-.25.17-.51.34-.76.51.18-.25.35-.49.53-.74,0,0,.23.23.23.23Z" fill="#ffda96"/><path d="m194.37,472.43c.93.17,1.85.34,2.77.52-.93-.17-1.85-.34-2.77-.52Z" fill="#c4764a"/><path d="m208.18,427.37c10.33,2.41,20.58,5.26,31.01,7.12,12.5,2.23,25.13,3.73,37.73,5.35,8.94,1.15,17.92,1.91,26.87,3,20.51,2.48,41.07,3.3,61.73,3.34,27.57.05,53.95-5.02,78.88-16.71,14.52-6.81,27.73-15.83,40.22-25.95,5.49-4.45,10.13-9.32,13.77-15.42,3.32-5.56,3.01-11.54,3.5-17.5.12,7.81.89,15.68.15,23.4-.64,6.63-3.06,13.07-7.59,18.37-.44.49-.88.97-1.31,1.46l.06-.06c-.49.98-.98,1.95-1.48,2.93-.4.42-.8.84-1.2,1.27-2.06.81-4.27,1.38-6.16,2.49-5.18,3.05-10.02,6.75-15.37,9.44-15.77,7.95-32.43,13.31-49.79,16.7-21.11,4.12-42.27,7.51-63.84,7.64-1.39,0-2.78.11-4.17.16-11.33.39-22.67,1.27-33.99,1.01-11.28-.26-22.54-1.65-33.81-2.59-5.98-.5-12.01-.77-17.92-1.72-9.32-1.51-18.6-3.27-27.81-5.35-13.99-3.15-27.81-6.89-40.5-13.87,2.57-4.21,6.84-4.26,11.03-4.52Z" fill="#ffda96"/><path d="m490.51,417.97c.4-.42.8-.84,1.2-1.27.49-.98.98-1.95,1.48-2.92,0,0-.06.06-.06.06.44-.49.88-.97,1.31-1.46,4.53-5.3,6.95-11.74,7.59-18.37.74-7.73-.04-15.6-.15-23.4-.6-3.76-1.2-7.53-1.81-11.29,1.15.96,2.9,1.69,3.35,2.91,3.18,8.55,6.41,17.12,6.45,26.44-.38,4.63-.77,9.27-1.15,13.9-3.22,18.11-13.8,31.05-28.84,40.75-18.02,11.62-38.09,17.84-58.89,22.1-13.6,2.78-27.24,5.07-41.16,5.7-14.32.64-28.61,2.26-42.92,2.45-15.05.2-30.12-.59-45.16-1.34-8.29-.41-16.53-1.62-24.8-2.46-8.18-1.06-16.36-2.09-24.53-3.25-.77-.11-1.43-1-2.15-1.53-.21-2.14-.42-4.28-.63-6.43,1.86,0,3.73-.18,5.56,0,16.97,1.74,33.91,4.57,50.92,5.08,27.98.84,56,1.01,83.95-2.22,18.4-2.13,36.6-4.87,54.41-10.02,14.31-4.13,28.12-9.44,40.32-18.17,5.96-4.27,12.42-8.17,15.7-15.26Z" fill="#b9babd"/><path d="m258.67,411c16.45,2.49,32.92,4.53,49.63,4.23,5.27-.09,10.61,1.46,15.84,1.11,14.02-.93,28.06-2.07,41.99-3.9,12.78-1.68,25.57-3.8,38.12-6.75,25.59-6.03,50.08-14.98,72.07-29.85-.63,1.91-.98,3.97-1.92,5.72-7.31,13.64-19.73,21.35-33.24,27.26-20.24,8.85-41.73,13.01-63.52,16.3-22.4,3.38-44.85,2.4-67.3,2.55-15.75.11-31.29-2.18-46.73-5.08-2.64-.5-5.24-1.26-7.86-1.9.97-3.23,1.95-6.46,2.92-9.68Z" fill="#fe9c59"/><path d="m490.51,417.97c-3.28,7.09-9.74,10.99-15.7,15.26-12.2,8.73-26.01,14.04-40.32,18.17-17.81,5.14-36,7.89-54.41,10.02-27.96,3.23-55.97,3.06-83.95,2.22-17.01-.51-33.95-3.35-50.92-5.08-1.83-.19-3.7-.01-5.56,0-6.49-2.32-12.93-4.79-19.47-6.92-5.26-1.72-10.81-2.63-15.96-4.62-6.09-2.36-9.1-7.44-8.44-12.87.1-.79.9-1.5,1.37-2.25,12.69,6.98,26.52,10.72,40.5,13.87,9.21,2.07,18.49,3.84,27.81,5.35,5.91.96,11.94,1.22,17.92,1.72,11.27.94,22.53,2.33,33.81,2.59,11.32.26,22.66-.63,33.99-1.01,1.39-.05,2.78-.15,4.17-.16,21.57-.13,42.73-3.52,63.84-7.64,17.37-3.39,34.02-8.75,49.79-16.7,5.35-2.7,10.19-6.39,15.37-9.44,1.89-1.11,4.1-1.67,6.16-2.49Z" fill="#fec57c"/><path d="m159.68,376.26c8.34-2.04,14.84,1.71,19.42,7.83,6.62,8.85,15.71,11.48,25.79,13.01,4.53.69,9.01,2.09,13.34,3.65,3.28,1.18,6.79,3.26,6.44,7.24-.34,3.81-3.94,5.72-7.3,6.66-3.75,1.04-7.77,2.01-11.59,1.74-12.79-.9-25.37-3.16-36.1-10.85-4.1-2.94-7.87-6.54-11.17-10.36-3.14-3.63-4.15-8.27-2.7-13.06.59-1.95.62-3.19-1.84-3.2,0,0-.17-.18-.17-.18,1.65-1.94,3.3-3.87,4.95-5.8.43.29.85.58,1.28.87-.24.7-.47,1.4-.71,2.11-.19.29-.37.58-.56.87.3-.17.6-.35.91-.52Z" fill="#c4764a"/><path d="m130.16,420.75c2.5-.3,5.01-.5,7.48-.92,4.38-.73,8.63-.98,12.82,1.05,1.6.77,3.51.92,5.28,1.29,3.26.69,6.17,1.84,7.59,5.43-.9,3.02-3.14,3.98-6.16,4.35-8.28,1.02-15.9-1.57-23.58-3.96-3.78-1.18-3.74-4.18-3.39-7.29l-.05.05Z" fill="#c4764a"/><path d="m176.35,441.59c-4.73-.45-9.45-.98-14.18-1.32-7.58-.55-15.19-.81-22.74-1.56-2.92-.29-5.89-1.28-8.57-2.51-5.41-2.48-6.46-4.92-5.55-13.04,2.23,10.66,9.46,12.32,17.41,13.01,9.63.85,19.25,1.78,28.86,2.82,1.7.18,3.34,1.03,5,1.57-.07.35-.15.69-.22,1.04Z" fill="#c4764a"/><path d="m149.69,378.83c1.38-.03,2.75-.05,4.13-.08,0,0,.16.17.16.18-.19.66-.18,1.51-.6,1.96-5.98,6.45-9.06,14.31-11.39,22.63-1.08-7.38,1.47-13.81,5.27-19.96.93-1.51,1.64-3.15,2.45-4.72,0,0-.01.01-.01.01Z" fill="#c4764a"/><path d="m141.69,371.78c.86,3.34,1.72,6.69,2.58,10.03-.91,1.82-1.81,3.65-2.72,5.47.05-5.17.09-10.33.14-15.5Z" fill="#fec57c"/><path d="m130.21,419.35c1.34-.85,2.67-1.7,4.01-2.55.19.46.37.92.56,1.38-1.53.38-3.07.75-4.6,1.13l.03.04Z" fill="#c4764a"/><path d="m130.17,419.31c0,.48,0,.96,0,1.44,0,0,.05-.05.05-.05-.94,0-1.88.02-2.81.03,0,0,0,0,0,0,.94-.46,1.87-.92,2.81-1.38,0,0-.03-.04-.03-.04Z" fill="#c4764a"/><path d="m127.4,420.73c-.22.24-.44.48-.66.72.02-.16-.01-.38.08-.47.15-.13.38-.17.57-.25,0,0,0,0,0,0Z" fill="#c4764a"/><path d="m142.58,366.16c-.21,1.01-.43,2.03-.64,3.04.21-1.01.43-2.03.64-3.04Z" fill="#fec57c"/><path d="m500.08,359.32c-.45-.94-.9-1.89-1.34-2.83.45.94.9,1.89,1.34,2.83Z" fill="#b9babd"/><path d="m266.95,469.74c8.26.85,16.51,2.05,24.8,2.46,15.04.75,30.12,1.54,45.16,1.34,14.31-.19,28.6-1.81,42.92-2.45,13.92-.62,27.56-2.91,41.16-5.7,20.8-4.26,40.88-10.48,58.89-22.1,15.04-9.7,25.62-22.64,28.84-40.75,2.53.43,2.45,2.34,2.51,4.25.19,6.62-2.9,12.21-6.16,17.49-5.97,9.68-14.83,16.36-24.44,22.22-21.51,13.11-45.3,20.04-69.57,25.3-12.12,2.63-24.68,3.25-37.05,4.71-7.78.92-15.6,2.51-23.37,2.36-9.19-.17-18.32-.88-27.54.1-4.5.48-9.19-.54-13.77-1.07-12.37-1.44-24.75-2.86-37.08-4.6-1.95-.27-4.92-.37-5.31-3.57Z" fill="#d3eded"/><path d="m493.19,413.77c-.49.97-.98,1.95-1.48,2.92.49-.97.98-1.95,1.48-2.92Z" fill="#fec57c"/><path d="m494.44,412.37c-.44.49-.88.97-1.31,1.46.44-.49.88-.97,1.31-1.46Z" fill="#fec57c"/><path d="m159.68,376.26c-.3.17-.6.35-.91.52.19-.29.37-.58.56-.87,0,0,.35.35.35.35Z" fill="#a73305"/></svg>