<?xml version="1.0" encoding="UTF-8"?><svg id="OBJECTS" xmlns="http://www.w3.org/2000/svg" width="641.99" height="560.67" viewBox="0 0 641.99 560.67"><path d="m586.8,221.68c-.39-.21-.78-.41-1.18-.62.3-.34.54-.77.91-.99.27-.16.71-.06,1.07-.07-.36.52-1.11.85-.81,1.68Z" fill="#ab875b"/><path d="m581.43,188.33c-.72.18-1.24-.13-1.65-.69l1.65.69Z" fill="#ab875b"/><path d="m605.84,451.47c.34-.62.88-.69,1.5-.55-.5.18-1,.36-1.5.55Z" fill="#ab875b"/><path d="m590.04,219.03c.48-.23.96-.46,1.43-.68-.48.23-.96.46-1.43.68Z" fill="#ab875b"/><path d="m603.61,227.84c-.55-.24-1.1-.48-1.65-.72.55.24,1.1.48,1.65.72Z" fill="#ab875b"/><path d="m579.48,287.99c-.22-1.09.5-.8,1.06-.73-.36.24-.71.48-1.06.73Z" fill="#ab875b"/><path d="m583.69,286.2c.3-.14.6-.29.9-.43-.3.14-.6.29-.9.43Z" fill="#ab875b"/><path d="m601.34,226.91c-.35-.15-.69-.29-1.04-.44.35.15.69.29,1.04.44Z" fill="#ab875b"/><path d="m598.97,226.11c-.35-.13-.7-.27-1.05-.4.35.13.7.27,1.05.4Z" fill="#ab875b"/><path d="m594.18,224.6c-.34-.15-.68-.3-1.01-.45.34.15.68.3,1.01.45Z" fill="#ab875b"/><path d="m591.84,223.75c-.34-.15-.68-.31-1.03-.46.34.15.68.31,1.03.46Z" fill="#ab875b"/><path d="m588.43,219.7c.29-.14.58-.27.86-.41-.29.14-.58.27-.86.41Z" fill="#ab875b"/><path d="m603.45,452.29c.31-.14.61-.27.92-.41-.31.14-.61.27-.92.41Z" fill="#ab875b"/><path d="m583.1,189.02c-.33-.16-.66-.33-1-.49.33.16.66.33,1,.49Z" fill="#ab875b"/><path d="m557.43,286.38c7.47,2.79,9.98,8.68,6.61,15.65-2.22,4.6-5.92,7.5-10.77,8.96-2.72.06-5.44.13-8.16.19-2.09-.28-4.2-.62-6.09.75-3.84-.03-5.65,2.12-6.6,5.65-1.14,4.23-2.66,8.35-4.01,12.52-3.35,3.05-7.15,5.23-11.71,5.74-2.59.29-5.22.25-7.83.4-3.63.2-6.74-.89-9.23-3.59-2.75-7.06-4.38-7.42.47-17.49.09-.18.18-.36.27-.53.42-1.11,1.04-2.2,1.21-3.35.54-3.78-1.42-6.13-5.17-6.52-5.07-.53-9.45,1.03-13.16,4.43-2.68,2.45-2.79,3.74-1.07,7.92.34,5.8-1.54,10.54-6.79,13.47-2.23,1.25-4.68,2.11-7.01,3.18-.87.4-1.72.87-2.57,1.31-.91,0-1.82,0-2.74,0-2.38-.09-4.77-.13-7.14-.29-2.19-.14-3.74-1.17-4.26-3.45-.17-.77-.5-1.5-.76-2.24.33-.19.54-.47.63-.84.57-1.06,1.19-2.1,1.69-3.2,1.75-3.81,1.24-5.9-2.13-8.28-.8-.56-1.79-.85-2.7-1.25-4.05-1.8-8.34-.79-12.51-1.14-4.56-.38-7.14,2.41-9.04,5.8-1.02,1.83-1.07,4.21-1.56,6.34-.23.41-.47.82-.7,1.22-1.06,3.26-2.11,6.52-3.17,9.78-2.6,2.61-5.59,4.43-9.4,3.51-2.03-.49-3.91-1.6-5.86-2.44q-3.2-7.89-.17-15.67c2.4-2.36,2.43-5.35,2.23-8.4-.09-1.33-.72-2.36-1.94-2.78-1.3-.44-2.79-1.08-4.02-.83-7.83,1.65-11.6,3.07-12.14,12.08-.01.2,0,.4,0,.6.51,4.07-2,6.43-5.01,8.26-4.83,2.93-9.84,5.53-15.39,6.9-.94.23-1.8.77-2.7,1.17-.99.03-2.02-.11-2.95.12-6.62,1.62-13.33,1.26-20.04.99-.38-.45-.67-1.02-1.15-1.33-3.49-2.25-5.63-5.42-6.88-9.34-.54-1.68-1.54-3.2-2.33-4.8.15-.31.25-.63.28-.97.18-3.2.52-6.31,2.1-9.25.95-1.76,1.17-3.84-.96-5.77-1.92,0-4.11-.1-6.29.02-4.22.24-7.65,2.06-10.26,5.41-1.72,2.21-1.85,4.98-.11,7.15.73.9,1.83,1.51,2.76,2.24.29.36.57.71.86,1.07.27.75.57,1.49.8,2.24,1.07,3.51.59,5.4-2.38,7.19-1.85,1.11-3.99,1.89-6.1,2.42-5.49,1.38-11.12,1.66-16.74,1.25-2.98-.22-5.98-.77-8.85-1.59-5.84-1.67-9.46-5.79-11.6-11.34-.43-2.34-.89-4.68-1.29-7.03-.78-4.65-3.04-7.74-8.15-7.94-.39-.02-.76-.24-1.15-.31-6.07-1.14-9.63,2.73-7.92,8.51.68,2.28,1.1,4.63,1.64,6.95.37,3.16-1.16,5.39-3.59,7.1-1.14.8-2.35,1.53-3.62,2.11-4.91,2.24-9.86,4.4-14.79,6.59-1.59.62-3.18,1.25-4.77,1.87-1.34.34-2.68.68-4.02,1.03-1.07.07-2.15.15-3.22.22-4.48-.4-8.96-.79-13.45-1.19-.84-1.17-2.11-1.22-3.37-1.29-.45-.38-.85-.82-1.35-1.13-3.91-2.38-6.76-5.4-6.69-10.37.01-.95-.44-1.91-.67-2.87,0-2.99-.13-5.98.01-8.96.13-2.73-.82-5.04-2.07-7.36-.9-1.66-2.3-2.29-3.96-1.9-1.29.3-2.6.94-3.64,1.76-3.69,2.92-6.11,6.75-7.52,11.23-.72.65-1.51,1.25-2.15,1.97-3.05,3.47-6.78,5.82-11.24,7.02-2.68.03-5.35.06-8.03.09-2.49-.4-4.26-1.86-5.57-3.92-1.05-1.64-2-3.33-3-5-.42-.81-.84-1.62-1.26-2.43.09-4.72-1.45-9.11-2.8-13.53-.73-2.38-2.26-4.24-4.08-5.91-5.01-4.59-11.17-2.97-13.07,3.51-.39,1.33-.65,2.75-.7,4.13-.09,2.42.04,4.84.07,7.27-.11.66-.23,1.32-.34,1.98-1.53,3.26-4.38,4.94-7.5,6.31-.29,0-.57.02-.85.09-1.21-1.24-2.69-1.27-4.24-.92-4.7-1.53-8.46-4.45-11.88-7.91-1.1-1.12-2.27-2.23-3.59-3.05-5.45-3.36-9.43-8.07-12.43-13.6-3.86-7.14-1.95-12.42,5.56-16.03,2.02-.05,4.05-.1,6.08-.15,2.02,1,4.03,2,6.05,3,.35.34.7.69,1.05,1.04.7,2.08,1.24,4.23,2.15,6.22.55,1.21,1.49,2.42,2.58,3.19,2.05,1.45,4.31,1.89,6.79.64,2.72-1.38,4.62-3.15,4.41-6.46.05-.36.03-.73-.06-1.08.38-1.36.68-2.74,1.15-4.07,1.06-2.99,3.31-4.63,6.42-4.58,1.95.03,3.98.5,5.82,1.18,3.09,1.14,5.37,3.49,7.64,5.81,1.25,1.27,2.3,2.89,4.43,2.78.06.22.16.41.3.59-.27,1.26.01,2.37.82,3.38,1,1.25,1.86,2.62,2.92,3.83,3.85,4.38,7.59,8.94,12.79,11.82,7.05,3.9,17.77,3.42,20.76-7.49,2.49-2,4.97-3.99,7.46-5.99.76-.11,1.52-.23,2.28-.34,3.26-.02,6.52-.03,9.79-.05,1.15.23,2.31.46,3.46.69,4.31,2.62,8.6,5.23,11.33,9.72.33.55,1.38.67,2.1.98,1.12,3.96,4.43,6.19,7.29,8.56,5.39,4.46,15.96,4.41,21.58.34,1.62-1.18,1.83-3.07.33-4.69-2.47-2.68-5.3-4.88-8.89-5.89.18-.36.29-.73.35-1.13q-.92-4.53-.11-8.13c.47-.48.94-.96,1.41-1.44,3.19-.02,6.39-.03,9.58-.05,1.3.51,2.61,1.01,3.91,1.51,1.57,1.83,3.7,2.27,5.96,2.24,2-.02,4-.15,6.01-.24,3.19.03,6.39.06,9.58.09,3.1,1.6,2.43,4.56,2.61,7.22.13,1.58-.02,3.25.44,4.72,1.15,3.67,3.2,5.1,7.09,5.18,3.4.07,6.82.2,10.2-.09,3.26-.28,6.13-1.53,7.54-5.07-.88-1.01-1.5-2.12-2.45-2.74-2.96-1.92-6.05-3.66-9.09-5.47l-.85-5.97c2.01-1.19,3.91-2.64,6.05-3.52,2.89-1.19,5.97-1.94,8.96-2.87,1.95-.35,3.91-.7,5.86-1.05,5.71.03,11.42.05,17.13.08,2.66,1.5,5.57,1,8.42,1.04.8.09,1.61.17,2.41.26,2.2,1.5,5.1,2.06,6.37,4.79.03,2.84-2.46,4.08-3.85,6.02-2.43.07-3.96,1.91-5.77,3.11-2.21,1.47-1.73,4.11.79,5.19,4.44,1.92,9.11,1.8,13.69,1.06,6.15-.99,12.25-2.03,18.52-2.14,4.22-.07,8.39-1.02,12.1-3.27,2.02-1.23,2.49-3.26,1.07-5.12-1.48-1.95-3.18-3.69-5.86-3.9-1.4-.77-2.79-1.54-4.19-2.32-.47-1.07-.94-2.14-1.41-3.21.05-3.86,2.33-6.18,5.49-7.86,5.17-2.75,10.75-4.05,16.52-4.68l22.92-.07c2.84.22,5.56.83,7.9,2.57,3.12,2.32,3.53,4.82,1.49,8.29-.44.75-.78,1.55-1.47,2.92,5.88,0,11.08,0,16.28,0-1.33,1.31-3.02.89-4.6.93-3.43.08-6.87.03-10.3.15-1.57.06-2.41,1.95-1.34,3.14,1.05,1.18,2.3,2.24,3.64,3.08,4.45,2.77,9.61,2.87,14.57,3.26,5.63.44,11.32.27,16.97.05,4.23-.17,8.33-1.16,12.15-3.22,2.58-1.39,3.81-3.53,4.19-6.25.39-2.77-.31-3.65-3.75-5.13-.7-.94-1.43-1.86-2.1-2.83-2.14-3.09-1.81-5.44,1.28-7.55,1.6-1.1,3.44-1.86,5.17-2.77,4.31-.08,8.63-.16,12.94-.24.76.08,1.51.17,2.27.25,0,0-.06-.03-.06-.03.45.31.89.62,1.34.92,6.65,2.57,13.77,3.93,20.09,7.34-.37,1.94-2.42,2.84-1.56,4.71-2.9.47-4.52,2.38-5.66,4.9-1.53,3.42-.79,5.21,2.71,6.48,1.91.7,3.82,1.35,5.88.91,5.16-1.1,10.06-2.72,13.68-6.89,1.79-.31,3.35-1.04,4.45-2.55,2.59-1.32,5.18-2.64,7.77-3.96.36.04.72.04,1.08.01,3.23.01,6.46.02,9.69.04Zm-339.65,20.79c.54.98,1.09,1.95,3.25,1.52-1.52-.7-2.39-1.11-3.25-1.51-2.19-3.69-5.5-6.25-9.03-8.47-3.07-1.93-5.62-1.25-7.8,1.66-1.27,1.7-1.69,3.53-.91,5.57,6.6-2.02,8.32-1.93,15.45.68.73.27,1.53.37,2.3.55Zm99.87-14.8c-3.26.01-6.44.51-9.33,2.04-1.91,1.01-4.46,2.11-3.99,4.68.43,2.38,2.82,3.17,5.17,3.31.37.02.75-.2,1.58-.45,2.41-5.57,7.62-7.37,13.41-8.19.4-.06.79-.14,1.19-.22h10.31c-1.26-.77-1.83-1.39-2.47-1.47-5.3-.64-10.61-1.29-15.87.29Zm85.97-8.51c4.3-.02,8.61-.03,12.91-.05,1.18.23,2.42.31,3.54.72,1.28.48,2.49,1.18,3.65,1.91.94.6-.19,2.45,1.46,2.76,2.3-2.53,2.72-3.03,2.2-3.92-.68-1.16-1.58-2.31-2.66-3.08-1.11-.79-2.51-1.3-3.86-1.63-10.96-2.69-21.53-1.53-31.63,3.47-1.39.69-2.59,1.87-3.68,3.01-.41.42-.28,1.36-.44,2.36,9.06-4.73,12.07-4.78,18.51-5.54Zm106.63,17.34q-3.1-6.5.03-12.85c.69-1.41,1.22-2.89,1.96-4.67-1.85-.54-3.35-.97-4.85-1.41-1.68-.49-3.37-.89-5.31-.85.98,3.76.89,7.06.24,10.49-.99,5.3,1.56,8.23,7.92,9.29Zm-380.44-9.31c4.43-4.21,9.38-3.7,15.45-.89-2.48-3.69-4.57-5.97-7.61-7.27-3.08-1.32-6.1-.25-7.67,2.7-.88,1.66-1.21,3.37-.17,5.45Z" fill="#8acc01"/><path d="m541.55,345.97c-.57,4.45-1.14,8.9-1.71,13.36-.67,3.56-1.46,7.1-1.97,10.68-.45,3.14-1.92,5.25-5.01,6.13-3.1.88-6.18,1.87-9.33,2.58-14.81,3.34-29.92,4.61-45,5.77-15.3,1.18-30.64,2.03-45.98,2.35-24.44.52-48.9.62-73.35.66-34.96.06-69.91-.4-104.85-1.5-5.45-.17-10.91-.13-16.36-.34-16.15-.6-32.29-1.31-48.44-1.92-15.75-.59-31.5-1.08-47.24-1.68-6.66-.25-13.31-.65-19.97-1.01-.79-.04-1.57-.25-2.31-.38-.42-.6-.91-1.04-1.07-1.58-.29-.95-.49-1.95-.55-2.94-.22-3.66.26-7.25,1.22-10.78,3.02-.13,6.04-.2,9.05-.42,2.19-.16,4.37-.68,6.56-.74,4.24-.12,8.49,0,12.73-.06,1.61-.02,3.21-.19,4.81-.35,2.39-.25,4.77-.72,7.16-.8,4.44-.13,8.89-.02,13.34-.06,1.61-.02,3.33.14,4.8-.37,2.58-.89,5.17-.8,7.78-.82,4.85-.03,9.83.67,14.52-.21,7.45-1.4,14.88-.73,22.31-1.01,1.41-.05,2.94.24,4.22-.19,4.15-1.39,8.39-.89,12.61-1.02,5.22-.17,10.49.58,15.63-1.09,1.1-.36,2.41-.11,3.62-.12,4.24-.01,8.49.02,12.73-.02,1.61-.02,3.33.16,4.8-.35,2.58-.89,5.16-.83,7.78-.84,4.45-.02,8.89,0,13.34-.02,1.41-.01,2.95.19,4.2-.29,2.96-1.13,5.97-.87,8.98-.89,4.85-.04,9.7,0,14.55-.03,1.41,0,2.94.21,4.21-.26,3.15-1.17,6.37-.9,9.58-.92,4.65-.04,9.3.01,13.94-.03,1.61-.02,3.33.13,4.8-.38,2.58-.89,5.17-.79,7.78-.81,5.05-.02,10.1,0,15.15-.02,1.41,0,2.94.24,4.21-.21,3.75-1.32,7.58-.93,11.4-.98,4.65-.05,9.3.02,13.94-.04,1.6-.02,3.21-.22,4.81-.39,2.19-.24,4.37-.71,6.56-.75,5.45-.11,10.91-.03,16.37-.06,1.41,0,2.94.21,4.21-.25,3.15-1.16,6.37-.92,9.58-.94,5.05-.03,10.1,0,15.15-.03,1.61-.01,3.33.15,4.8-.35,2.58-.89,5.16-.82,7.78-.83,5.05-.02,10.1,0,15.15-.02,1.41,0,2.94.24,4.21-.2,3.95-1.37,7.99-.93,12-.99,5.05-.07,10.22.6,15.12-.25,5.24-.91,10.42-.86,15.64-.98Z" fill="#f36800"/><path d="m105.2,261.12c-.93-2.87-1.78-5.77-2.81-8.6-2.55-7.02-5.2-14-7.76-21.02-.41-1.12-.71-2.3-.83-3.47-.03-.3.83-.68,1.29-1.03.87.43,1.69,1.08,2.61,1.26,3.73.75,7.49,1.4,11.25,2,6.34,1,12.67,2.04,19.03,2.86,4.97.64,10.01.79,14.98,1.45,8.16,1.09,16.31,2.2,24.56,2.3.6,0,1.24-.08,1.81.08,5.33,1.52,10.8.93,16.22,1.13,1.41.05,2.91-.15,4.21.25,3.16.99,6.38.81,9.59.86,4.23.06,8.47.06,12.7.11,2.22.03,4.53-.27,6.63.25,3.6.9,7.19.8,10.81.81,21.98.06,43.95.1,65.93.14.51,2.9,2.37,5.12,4.24,7.11,5.37,5.69,10.8,11.33,17.97,14.94,2.47,1.24,4.65,3.07,6.96,4.63-12.73-.01-25.47.13-38.19-.07-12.9-.21-25.79,0-38.71-.86-18.1-1.21-36.3.1-54.46-1.31-13.66-1.06-27.4-.02-41.13-1.13-13.44-1.09-27.02.13-40.5-1.43-2.18-.25-4.48.23-6.4-1.28Z" fill="#e64f01"/><path d="m105.2,261.12c1.92,1.51,4.22,1.03,6.4,1.28,13.47,1.56,27.06.34,40.5,1.43,13.73,1.11,27.47.06,41.13,1.13,18.16,1.41,36.36.1,54.46,1.31,12.92.86,25.81.65,38.71.86,12.73.21,25.46.06,38.19.07,3.02.01,6.05-.01,9.07.05,1.6.03,3.21.19,4.81.33,2.39.22,4.78.7,7.16.7,21.16.06,42.33.04,63.49.03,1.61,0,3.33.26,4.81-.2,3.77-1.16,7.58-.84,11.39-.88,6.45-.07,12.9-.07,19.35-.09,8.87-.02,17.73-.04,26.6-.08,1.21,0,2.49.13,3.6-.21,3.16-.99,6.38-.94,9.59-.8,12.3.51,24.49-1.57,36.76-1.4.8.01,1.61-.11,2.41-.2,2.79-.3,5.57-.65,8.36-.91,5.6-.51,11.2-.88,16.79-1.48,3.15-.34,6.27-1.04,9.12-1.53.79-1.75,1.44-3.19,2.09-4.63.41-.1.81-.21,1.22-.31,1.16.23,2.33.47,3.49.7,1.22,1.05,2.56,1.27,4.03.58,2.36.34,4.72.68,7.34,1.05-.16,5.28-1.63,10.03-2.64,15.21-9.5.16-18.71.32-27.92.48-2-.1-4-.2-6-.3-10.23-.49-20.42.66-30.63.94-3.21.09-6.42.09-9.63.13-.43.03-.85.06-1.28.09,0,0,.06.03.06.03-.63-1.22-1.37-1.4-2.27-.25-4.31.08-8.63.16-12.95.24-2.63-.05-5.26-.16-7.88-.16-19.4.02-38.81-.09-58.2.15-19.37.25-38.76-.73-58.12.86-6.83.56-13.74.11-20.61.12-2.09-1.46-4.18-1.47-6.26,0-26.28.1-52.56.19-78.85.3-2.02,0-4.04.04-6.06.18-3.21.21-6.41.73-9.62.75-21.43.16-42.86.22-64.29.31-.45.07-.9.13-1.34.2-2.62-.04-5.32-.48-7.85-.03-4.23.75-8.45.57-12.68.62-11.71.14-23.43.29-35.14.43-5.36-.4-10.77.4-16.48-.5-.51-4.93-1-9.64-1.52-14.66,2.02-.51,3.74-.95,5.45-1.38.47-.21.93-.41,1.39-.62,0,0,.44.04.44.04Z" fill="#ffaf00"/><path d="m119.64,365.36c-.48-4.45-.97-8.9-1.45-13.36-.04-1.54-.08-3.07-.13-4.61,7.25-.08,14.51-.2,21.76-.24,8.67-.06,17.34.04,26.01-.13,4.2-.08,8.4-.88,12.6-.92,15.93-.15,31.85-.13,47.78-.18,1.68-.01,3.35-.03,5.03-.04,4.65-.05,9.35.34,13.92-.3,3.83-.54,7.61-.73,11.44-.74,27.28-.09,54.55-.15,81.83-.23,1.82,0,3.73.24,5.43-.23,3.2-.89,6.4-.74,9.62-.75,40.41-.08,80.82-.15,121.23-.23,1.82,0,3.72.3,5.44-.13,4.79-1.21,9.63-.8,14.46-.85,7.88-.07,15.76-.09,23.64-.07,8.08.03,16.16.14,24.24.21-.3,1.13-.61,2.26-.91,3.39-5.22.13-10.4.08-15.64.98-4.91.85-10.07.18-15.12.25-4.02.05-8.05-.39-12,.99-1.27.44-2.8.19-4.21.2-5.05.02-10.1,0-15.15.02-2.62,0-5.2-.06-7.78.83-1.47.51-3.19.34-4.8.35-5.05.04-10.1,0-15.15.03-3.22.02-6.43-.22-9.58.94-1.26.46-2.8.24-4.21.25-5.46.03-10.91-.06-16.37.06-2.19.05-4.37.52-6.56.75-1.6.17-3.2.37-4.81.39-4.65.06-9.3-.01-13.94.04-3.82.04-7.65-.35-11.4.98-1.27.45-2.8.21-4.21.21-5.05.02-10.1,0-15.15.02-2.61.01-5.2-.08-7.78.81-1.47.51-3.19.36-4.8.38-4.65.04-9.3,0-13.94.03-3.21.03-6.43-.25-9.58.92-1.26.47-2.8.25-4.21.26-4.85.03-9.7-.01-14.55.03-3.01.03-6.03-.23-8.98.89-1.26.48-2.79.28-4.2.29-4.45.03-8.89,0-13.34.02-2.62.01-5.2-.05-7.78.84-1.47.51-3.19.33-4.8.35-4.24.04-8.49.01-12.73.02-1.21,0-2.52-.24-3.62.12-5.14,1.66-10.41.92-15.63,1.09-4.22.14-8.46-.37-12.61,1.02-1.28.43-2.81.13-4.22.19-7.43.29-14.85-.39-22.31,1.01-4.69.88-9.67.18-14.52.21-2.62.02-5.2-.07-7.78.82-1.47.51-3.19.35-4.8.37-4.45.04-8.89-.07-13.34.06-2.39.07-4.77.55-7.16.8-1.6.17-3.21.33-4.81.35-4.24.05-8.49-.06-12.73.06-2.19.06-4.37.58-6.56.74-3.01.22-6.03.29-9.05.42Z" fill="#e64f01"/><path d="m295.41,240.53c-21.98-.04-43.95-.08-65.93-.14-3.61-.01-7.21.09-10.81-.81-2.1-.52-4.41-.23-6.63-.25-4.23-.05-8.47-.05-12.7-.11-3.21-.04-6.43.13-9.59-.86-1.3-.41-2.8-.2-4.21-.25-5.42-.21-10.89.39-16.22-1.13-.56-.16-1.2-.07-1.81-.08-8.25-.1-16.4-1.21-24.56-2.3-4.97-.67-10-.82-14.98-1.45-6.36-.82-12.69-1.86-19.03-2.86-3.76-.6-7.51-1.25-11.25-2-.92-.18-1.74-.83-2.61-1.26,4.78-1.49,9.53-3.12,14.36-4.45,60.3-16.54,120.6-33.05,180.91-49.55,24.32-6.65,48.68-13.15,72.95-19.99,4.59-1.29,8.48-.94,12.82.82,25.41,10.35,50.9,20.5,76.37,30.7,35.96,14.4,71.92,28.78,107.88,43.18,1.5.6,2.96,1.28,4.44,1.92.02.35.04.69.05,1.04-5.64.05-11.28.09-16.92.14-1.41.01-2.9-.21-4.21.15-4.75,1.31-9.6.86-14.41.97-4.63.11-9.36-.47-13.88.27-8.03,1.32-16.06.69-24.08,1.02-1.61.07-3.3-.22-4.81.19-4.36,1.19-8.79.85-13.21.93-4.63.09-9.27.08-13.9.12-1.4.01-2.85-.1-3.95,1.06-8.08.04-16.16.06-24.24.12-1.61.01-3.34-.21-4.81.27-2.98.96-5.98.84-9,.86-6.06.05-12.12.04-18.18.09-1.41,0-2.93-.2-4.21.24-3.36,1.13-6.79.86-10.2.89-6.26.06-12.53.05-18.79.08-1.41,0-2.92-.25-4.22.13-4.96,1.45-10.02.94-15.04,1-7.07.1-14.14.05-21.21.08-1.41,0-2.92-.22-4.22.19-3.96,1.26-8,.86-12.02.92-4.65.07-9.29.08-13.94.11Zm104.37-70.33c-1.7-1.04-3.31-2.29-5.12-3.08-4.06-1.78-8.21-3.33-12.32-4.98-4.11-1.65-8.23-3.29-12.34-4.94-2.48-1-4.9-1.25-7.59-.43-5.96,1.83-12.01,3.32-18.02,4.98-8.72,2.41-17.43,4.87-26.17,7.25-11.25,3.07-22.54,6.02-33.78,9.13-13.38,3.7-26.7,7.6-40.08,11.27-14.35,3.93-28.77,7.63-43.12,11.56-15.13,4.15-30.2,8.52-45.33,12.66-11.44,3.13-22.95,6.02-34.42,9.05-1.14.3-2.22.85-4.02,1.55,1.81.72,2.99,1.43,4.24,1.65,6.91,1.23,13.82,2.43,20.76,3.46,4.37.65,8.77,1.03,13.17,1.46,5.2.5,10.49.48,15.58,1.51,3.83.77,7.59.84,11.41.93,1.61.04,3.36-.23,4.81.29,3.17,1.13,6.38.85,9.59.92,3.64.08,7.38-.4,10.87.35,3.43.73,6.79.82,10.2.86,3.64.04,7.28-.08,10.92.03,6.83.21,13.73-.8,20.48,1.11.75.21,1.61.07,2.42.07,14.96,0,29.92.01,44.88-.02,1.4,0,2.8-.25,4.2-.41,2.19-.25,4.38-.72,6.57-.73,11.93-.08,23.86-.04,35.79-.06,1.82,0,3.77.27,5.42-.29,3.18-1.08,6.38-.88,9.59-.9,6.47-.04,12.94,0,19.41-.03,1.61,0,3.36.26,4.82-.25,3.37-1.18,6.78-.91,10.2-.93,5.66-.04,11.32,0,16.98-.03,1.41,0,2.94.23,4.21-.22,3.55-1.25,7.18-.94,10.8-.97,5.26-.04,10.51,0,15.77-.03,1.41,0,2.95.19,4.21-.29,2.96-1.13,5.97-.87,8.99-.9,5.26-.04,10.51,0,15.77-.03,1.41,0,2.95.21,4.21-.26,3.15-1.17,6.37-.9,9.59-.92,5.05-.04,10.11,0,15.16-.03,1.61-.01,3.33.13,4.8-.38,2.58-.89,5.17-.78,7.79-.8,5.05-.03,10.12.19,15.16-.07,5.14-.27,10.26-.98,15.41-1.5-.27-.31-.45-.7-.74-.82-6.72-2.72-13.46-5.41-20.18-8.12-15.13-6.1-30.25-12.25-45.39-18.32-17.76-7.12-35.54-14.19-53.33-21.23-2.98-1.18-6.05-2.12-9.07-3.18-3.61-3.67-8.18-4.8-13.13-4.93Z" fill="#ffaf00"/><path d="m455.51,235.54c1.1-1.16,2.54-1.04,3.95-1.06,4.63-.04,9.27-.03,13.9-.12,4.41-.08,8.84.26,13.21-.93,1.51-.41,3.21-.12,4.81-.19,8.02-.33,16.06.3,24.08-1.02,4.52-.74,9.25-.17,13.88-.27,4.81-.11,9.65.34,14.41-.97,1.32-.36,2.8-.14,4.21-.15,5.64-.05,11.28-.09,16.92-.14.31.44.62.88.93,1.32-1.76,7.07-3.52,14.15-5.27,21.22-.18.89-.37,1.79-.55,2.68-.65,1.44-1.3,2.88-2.09,4.63-2.85.49-5.96,1.19-9.12,1.53-5.58.61-11.19.97-16.79,1.48-2.79.25-5.57.61-8.36.91-.8.09-1.61.21-2.41.2-12.28-.18-24.47,1.91-36.76,1.4-3.2-.13-6.43-.18-9.59.8-1.12.35-2.4.21-3.6.21-8.87.04-17.73.05-26.6.08.11-.99.03-2.05.38-2.95,1.06-2.8,2.31-5.53,3.42-8.32,2.66-6.67,5.48-13.29,7.06-20.34Z" fill="#e64f01"/><path d="m542.46,342.58c-8.08-.07-16.16-.19-24.24-.21-7.88-.03-15.76,0-23.64.07-4.83.04-9.67-.36-14.46.85-1.71.43-3.62.13-5.44.13-40.41.08-80.82.14-121.23.23-3.22,0-6.43-.14-9.62.75-1.7.47-3.61.23-5.43.23-27.28.08-54.55.15-81.83.23-3.82.01-7.61.2-11.44.74-4.56.64-9.27.24-13.92.3-.56-.45-1.12-.91-1.68-1.36,1.34-.34,2.68-.68,4.02-1.02,1.64-.05,3.29-.11,4.93-.16,4.83.01,9.75.59,14.48-.1,6.04-.87,12.04-.67,18.06-.76,7.65-.12,15.31-.31,22.96-.09,11.89.35,23.7-1.06,35.55-1.19,4.83-.05,9.67-.11,14.5-.16,6.71.28,13.42.64,20.04-.99.94-.23,1.97-.09,2.95-.12,6.84-.06,13.73.4,20.5-.34,5.62-.61,11.21-.7,16.82-.91.6-.02,1.21-.05,1.81-.08,1.95.83,3.83,1.95,5.86,2.44,3.81.91,6.8-.91,9.4-3.51,5.8-.07,11.67.39,17.39-.36,5.39-.7,10.75-.73,16.13-.93,1.8-.07,3.61.03,5.4-.16.94-.1,1.83-.66,2.74-1.02.91,0,1.82,0,2.74,0,11.35.3,22.57-1.24,33.82-2.41,2.49,2.7,5.6,3.79,9.23,3.59,2.61-.14,5.24-.11,7.83-.4,4.56-.51,8.37-2.68,11.71-5.73,2.34-.38,4.73-.55,7-1.18,3.93-1.1,8.39-.55,11.72-3.61,6.12.01,12.24.03,18.36.04,1.57,0,3.21.16,4.23-1.46.88-.1,1.76-.21,2.63-.31,1.77.3,3.53.59,5.64.94.68,5.95-1.57,11.39-2.18,17.26-1.71.17-3.06.41-4.42.42-8.24.07-16.49.08-24.74.14-1.4.01-2.8.16-4.21.24Z" fill="#ffaf00"/><path d="m115.91,278.24c11.71-.14,23.43-.29,35.14-.43,4.23-.05,8.44.13,12.68-.62,2.54-.45,5.23-.01,7.85.03.46.27.91.55,1.37.82,8.13,1.21,16.23,2.65,24.39,3.54,7.38.81,14.83,1.01,22.25,1.47.4.03.81,0,1.2.09,8.31,1.75,16.82.82,25.21,2.02,5.93.84,12.02.69,18.03,1.03,9.23.52,18.47.98,27.71,1.43,6.84.33,13.69.39,20.53.56.08.59.15,1.18.23,1.77-3,.94-6.07,1.69-8.97,2.87-2.14.88-4.04,2.33-6.05,3.52-12.34.04-24.69.08-37.03.13-1.3-.51-2.61-1.01-3.91-1.51-4.09-1.67-6.1-1.66-9.58.05-.47.48-.94.96-1.41,1.44-11.33.08-22.65.16-33.98.24-1.15-.23-2.31-.46-3.46-.69-3.27-1.53-6.53-1.6-9.79.05-.76.11-1.52.23-2.28.34-7.36.02-14.72.04-22.08.06-1.32-.33-2.66-.63-3.97-1.01-4.71-1.37-9.41-2.77-14.12-4.16-1.38-1.51-3.17-1.1-4.88-1.03-2.13.11-3.18-1.51-4.43-2.78-2.27-2.31-4.56-4.66-7.64-5.81-1.84-.68-3.87-1.15-5.82-1.18-3.11-.05-5.35,1.58-6.42,4.58-.47,1.32-.77,2.71-1.15,4.07-1.17,0-2.34-.01-3.51-.02-1.66-.51-3.32-1.02-4.99-1.54-.37-.3-.74-.6-1.1-.91l-.14.25c.04-2.88.07-5.77.11-8.65Z" fill="#fe220f"/><path d="m226.2,345.93c-15.93.04-31.85.02-47.78.18-4.2.04-8.39.84-12.6.92-8.67.17-17.34.07-26.01.13-7.26.05-14.51.16-21.76.24-5.22,0-10.44,0-15.86,0-.32-1.42-.67-2.55-.8-3.7-.42-3.8-.76-7.61-1.14-11.42-.15-1.52.74-2.15,2.03-2.47.46.12.93.24,1.39.36,8.22.02,16.45.04,24.67.04,1.57,0,3.25.32,4.51-1.07,2.61,1.04,5.19,2.14,7.82,3.11,18.81,6.94,38.16,10.8,58.31,10.27,3.38-.09,6.77.58,10.16.89,1.25.05,2.49.09,3.74.14,4.48.4,8.96.79,13.45,1.19-.02.4-.06.79-.13,1.18Z" fill="#ffaf00"/><path d="m499.24,274.39c3.21-.04,6.42-.05,9.63-.13,10.21-.27,20.39-1.43,30.63-.94,2,.1,4,.2,6,.3.39,4.24.78,8.48,1.17,12.71-2.59,1.32-5.18,2.64-7.77,3.96-2.31.25-4.81-.73-6.87,1.09-4.73-1.31-9.46-2.62-14.19-3.93-.86-1.86,1.19-2.77,1.56-4.71-6.31-3.4-13.43-4.77-20.09-7.34-.01-.34-.03-.68-.06-1.02Z" fill="#fd735f"/><path d="m547.13,325.31c-3.33,3.06-7.79,2.51-11.72,3.61-2.27.63-4.66.8-7,1.18,1.35-4.17,2.87-8.29,4.01-12.52.95-3.53,2.76-5.68,6.6-5.65,1.99-.01,3.97-.02,5.96-.03,0,0,.56.12.56.12.39,2.46.78,4.93,1.17,7.39.14,1.96.28,3.93.41,5.89Z" fill="#fd735f"/><path d="m117.06,287.55c1.66.51,3.32,1.02,4.99,1.53,1.19.37,2.38.74,3.57,1.1.21,3.3-1.69,5.08-4.41,6.46-2.48,1.25-4.74.81-6.79-.64-1.08-.76-2.02-1.97-2.58-3.19-.91-1.98-1.45-4.14-2.15-6.22.78-.08,1.55-.15,2.33-.23,1.26.17,2.53.34,3.79.51,0,0,.14-.24.14-.24.37.3.74.6,1.1.91Z" fill="#5da700"/><path d="m132.86,329.14c-1.26,1.39-2.93,1.07-4.51,1.07-8.22,0-16.45-.02-24.67-.04.06-.32.13-.64.18-.95,5.19-1.3,10.37-2.6,15.56-3.9,1.23-.36,2.45-.71,3.68-1.07.28-.07.56-.1.85-.09,2.97,1.66,5.94,3.33,8.91,4.99Z" fill="#ffc300"/><path d="m547.13,325.31c-.14-1.96-.28-3.93-.41-5.89,7.61,1.21,15.22,2.42,22.83,3.63.08.28.14.56.18.85-1.02,1.61-2.66,1.46-4.23,1.46-6.12,0-12.24-.02-18.36-.04Z" fill="#ffc300"/><path d="m557.43,286.38c-3.23-.01-6.46-.02-9.69-.04,3.24-1.56,6.47-1.6,9.69.04Z" fill="#f4d941"/><path d="m545.11,311.19c2.72-.06,5.45-.13,8.16-.19-1.05.35-2.08.87-3.15.99-1.51.17-3.05.04-4.57.04,0,0-.56-.12-.56-.12.11-.23.15-.47.13-.72Z" fill="#feef66"/><path d="m123.1,324.24c-1.23.36-2.45.71-3.68,1.07-.19-.67-.39-1.33-.58-1.99,1.57-.35,3.04-.32,4.25.92Z" fill="#f4d941"/><path d="m102.59,282.58c-2.03.05-4.05.1-6.08.15,1.99-1.46,4.02-1.49,6.08-.15Z" fill="#feef66"/><path d="m568.72,256.88c-1.47.69-2.81.47-4.03-.58,1.34.19,2.68.39,4.03.58Z" fill="#feef66"/><path d="m112.02,286.39c-.77.08-1.55.15-2.33.23-.35-.35-.7-.69-1.05-1.04,1.25-.25,2.45-.26,3.38.81Z" fill="#feef66"/><path d="m565.8,232c-.31-.44-.62-.88-.93-1.32,0-.35-.03-.7-.05-1.04,1.44.33,1.49,1.23.97,2.36Z" fill="#fd735f"/><path d="m569.72,323.89c-.04-.29-.1-.57-.18-.85.94.18,1.87.36,2.81.53-.88.1-1.75.21-2.63.31Z" fill="#feef66"/><path d="m559.98,255.91c.18-.89.37-1.79.55-2.68.22.79.45,1.58.67,2.37-.41.1-.81.2-1.22.31Z" fill="#efd8c6"/><path d="m103.87,329.22c-.06.32-.12.64-.18.95-.46-.12-.93-.24-1.39-.36.52-.2,1.05-.4,1.57-.6Z" fill="#feef66"/><path d="m104.76,261.08c-.46.21-.93.42-1.39.62.46-.21.93-.41,1.39-.62Z" fill="#feef66"/><path d="m312.28,288.18c-6.84-.18-13.7-.23-20.53-.56-9.24-.45-18.48-.91-27.71-1.43-6.01-.34-12.1-.18-18.03-1.03-8.38-1.19-16.9-.26-25.21-2.02-.39-.08-.8-.07-1.2-.09-7.42-.47-14.87-.67-22.25-1.47-8.16-.89-16.26-2.34-24.39-3.54-.04-.34-.05-.68-.03-1.02,21.43-.09,42.86-.16,64.29-.31,3.21-.02,6.41-.54,9.62-.75,2.01-.13,4.04-.17,6.06-.18,26.28-.11,52.56-.2,78.85-.3,2.09,0,4.18,0,6.26,0,6.87,0,13.78.45,20.61-.12,19.37-1.6,38.75-.62,58.12-.86,19.4-.25,38.8-.13,58.2-.15,2.63,0,5.25.1,7.88.16-1.73.91-3.56,1.67-5.17,2.77-3.09,2.12-3.42,4.46-1.28,7.55.67.97,1.4,1.89,2.1,2.83-2.9.44-5.8.88-8.71,1.32-2.25.22-4.64-.52-6.72.96-.97.1-1.95.2-2.92.3-3.08.2-6.26-.63-9.19.97-1.33.15-2.66.3-3.98.45h-16.28c.69-1.37,1.03-2.17,1.47-2.92,2.05-3.47,1.63-5.96-1.49-8.29-2.33-1.74-5.06-2.35-7.89-2.57-.92-.32-1.83-.9-2.76-.91-5.81-.07-11.62-.06-17.42.04-.92.02-1.83.62-2.74.95-5.77.63-11.35,1.93-16.52,4.68-3.16,1.68-5.44,4-5.49,7.86-10.5-.07-20.99-.14-31.49-.21-.8-.09-1.61-.17-2.41-.26-.87-.35-1.72-.92-2.61-.99-1.92-.15-3.87-.05-5.81-.05-5.71-.03-11.42-.05-17.13-.08-1.86-1.67-4-1.02-6.09-.72Z" fill="#fd735f"/><path d="m132.86,329.14c-2.97-1.66-5.94-3.33-8.91-4.99,3.12-1.36,5.97-3.05,7.5-6.31,2.14.51,4.28,1,6.41,1.53,5.23,1.29,10.29,3.32,15.77,3.45,1,1.67,1.95,3.37,3,5,1.31,2.05,3.08,3.52,5.57,3.92,2.69,1.26,5.37,1.34,8.03-.09,4.46-1.2,8.19-3.55,11.24-7.02.64-.73,1.43-1.32,2.15-1.97,5.73,1.74,11.45,3.49,17.18,5.23.24.96.69,1.92.67,2.87-.07,4.97,2.77,7.99,6.69,10.37.5.3.9.75,1.35,1.12-.16.37-.28.76-.36,1.15-3.39-.32-6.78-.98-10.16-.89-20.15.53-39.49-3.34-58.31-10.27-2.63-.97-5.22-2.07-7.82-3.11Z" fill="#fd735f"/><path d="m344.06,341.05c-4.83.05-9.67.11-14.5.16-11.86.13-23.67,1.54-35.55,1.19-7.64-.23-15.31-.03-22.96.09-6.02.09-12.02-.11-18.06.76-4.73.68-9.65.11-14.48.1-.05-.57-.1-1.14-.16-1.72,4.93-2.19,9.88-4.35,14.79-6.59,1.27-.58,2.48-1.31,3.62-2.11,2.43-1.72,3.96-3.95,3.59-7.1,5.62-.06,11.24-.11,16.86-.17,2.14,5.55,5.76,9.67,11.6,11.34,2.87.82,5.88,1.38,8.85,1.59,5.62.41,11.25.13,16.74-1.25,2.11-.53,4.25-1.3,6.1-2.42,2.98-1.79,3.45-3.69,2.38-7.19-.23-.76-.53-1.5-.8-2.25,3.87.03,7.74.07,11.61.1.79,1.59,1.79,3.12,2.33,4.8,1.25,3.92,3.39,7.1,6.88,9.34.47.3.77.88,1.15,1.33Z" fill="#fd735f"/><path d="m469.76,288.97c2.9-.44,5.8-.88,8.71-1.32,3.44,1.47,4.15,2.36,3.75,5.13-.39,2.72-1.62,4.86-4.19,6.25-3.82,2.06-7.92,3.05-12.15,3.22-5.65.23-11.35.39-16.97-.05-4.95-.38-10.12-.49-14.57-3.26-1.34-.83-2.59-1.9-3.64-3.08-1.06-1.19-.23-3.08,1.34-3.14,3.43-.13,6.87-.08,10.3-.15,1.58-.04,3.27.38,4.6-.93,1.33-.15,2.65-.3,3.98-.45,3.1.07,6.26.54,9.2-.97.97-.1,1.95-.2,2.92-.3,2.3.08,4.64.46,6.72-.96Z" fill="#5da700"/><path d="m155.9,291.27c4.71,1.39,9.41,2.79,14.12,4.16,1.31.38,2.65.67,3.97,1.01.68.35,1.34.78,2.05,1.06,4.18,1.64,8.38,3.26,12.57,4.88-2.99,10.91-13.72,11.39-20.76,7.49-5.2-2.88-8.94-7.43-12.79-11.82-1.06-1.2-1.92-2.57-2.92-3.83-.81-1.02-1.09-2.12-.82-3.38,1.53.15,3.06.29,4.58.43Z" fill="#5da700"/><path d="m383.41,296.02c2.68.21,4.37,1.95,5.86,3.9,1.42,1.87.95,3.9-1.07,5.12-3.71,2.26-7.89,3.2-12.1,3.27-6.27.11-12.37,1.15-18.52,2.14-4.59.74-9.26.86-13.69-1.06-2.52-1.09-3-3.72-.79-5.19,1.8-1.2,3.33-3.03,5.77-3.11,0,0,.33-.13.33-.13.87.35,1.74.98,2.63,1.01,3.92.13,7.86.16,11.78.06,1.11-.03,2.21-.62,3.31-.95,5.85-.57,11.37-2.18,16.51-5.05Z" fill="#5da700"/><path d="m499.65,332.65c-11.25,1.17-22.47,2.71-33.82,2.41.86-.44,1.7-.91,2.57-1.31,2.34-1.07,4.78-1.93,7.01-3.18,5.24-2.93,7.12-7.67,6.79-13.47,2.42-.47,4.83-.94,7.24-1.42,1.76.05,3.6.5,5.06-1,1.96-.02,3.92-.03,5.89-.05-.09.18-.18.35-.27.53-4.84,10.07-3.22,10.43-.47,17.49Z" fill="#fd735f"/><path d="m406.18,338.61c-.6.03-1.21.06-1.81.08-5.61.21-11.2.3-16.82.91-6.77.74-13.66.28-20.5.34.9-.4,1.76-.93,2.7-1.17,5.55-1.36,10.56-3.97,15.39-6.9,3.02-1.83,5.52-4.19,5.01-8.26,5.29-.23,10.57-.46,15.86-.68q-3.04,7.78.17,15.67Z" fill="#fd735f"/><path d="m131.8,315.86c-.03-2.42-.16-4.85-.07-7.27.05-1.39.31-2.8.7-4.13,1.9-6.48,8.06-8.1,13.07-3.51,1.82,1.67,3.35,3.53,4.08,5.91,1.35,4.42,2.89,8.81,2.8,13.53-1.2-.11-2.43-.07-3.59-.34-5.67-1.35-11.33-2.78-16.99-4.19Z" fill="#5da700"/><path d="m425.31,326.53c.49-2.13.53-4.51,1.56-6.34,1.9-3.39,4.48-6.18,9.04-5.8,4.18.34,8.47-.66,12.51,1.14.91.4,1.91.69,2.7,1.25,3.36,2.38,3.88,4.47,2.13,8.28-.5,1.09-1.13,2.13-1.69,3.19-5.88-.09-11.76-.17-17.64-.26-.95-.08-1.9-.16-2.85-.24-1.7-1.42-3.85-.79-5.76-1.23Z" fill="#5da700"/><path d="m245.31,305.69c3.6,1,6.42,3.21,8.9,5.89,1.5,1.62,1.29,3.52-.33,4.69-5.61,4.07-16.18,4.12-21.58-.34-2.86-2.37-6.17-4.6-7.29-8.56.41-.13.82-.27,1.24-.4,2.52.12,5.06.43,7.38-.99,1.18-.08,2.36-.15,3.54-.23,2.72-.02,5.43-.04,8.15-.06Z" fill="#5da700"/><path d="m226.25,306.98c-.41.13-.82.27-1.24.4-.72-.32-1.77-.43-2.1-.98-2.73-4.49-7.02-7.1-11.33-9.72,11.33-.08,22.65-.16,33.98-.24q-.82,3.6.1,8.13c-1.76.05-3.53-.01-5.27.19-1.1.13-2.16.65-3.24,1-1.18.08-2.36.15-3.54.23-2.5.05-5.12-.83-7.38.99Z" fill="#fd735f"/><path d="m431.07,327.75c.95.08,1.9.16,2.84.24,1.3.32,2.6.87,3.92.91,4.36.16,8.73.14,13.1.18.26.75.58,1.48.76,2.24.52,2.28,2.06,3.31,4.26,3.45,2.38.15,4.76.19,7.14.29-.91.35-1.8.92-2.73,1.02-1.78.19-3.6.1-5.4.16-5.38.19-10.74.22-16.13.93-5.71.74-11.58.29-17.39.36,1.05-3.26,2.11-6.52,3.16-9.78,2.15,0,4.31,0,6.47,0Z" fill="#fd735f"/><path d="m298.35,302.31c3.04,1.81,6.13,3.54,9.09,5.47.95.62,1.58,1.73,2.45,2.74-1.41,3.54-4.28,4.8-7.54,5.07-3.38.29-6.8.16-10.2.09-3.89-.08-5.94-1.51-7.09-5.18-.46-1.47-.31-3.14-.44-4.72,4.81-.24,9.17-2.25,13.73-3.47Z" fill="#5da700"/><path d="m277.22,325.65c-5.62.06-11.24.11-16.86.17-.54-2.32-.97-4.67-1.64-6.95-1.71-5.78,1.85-9.65,7.92-8.51.39.07.76.3,1.15.31,5.11.21,7.37,3.3,8.15,7.94.39,2.35.85,4.69,1.29,7.03Z" fill="#5da700"/><path d="m321.23,324.42c-.93-.74-2.03-1.34-2.76-2.24-1.75-2.17-1.61-4.94.11-7.15,2.61-3.35,6.04-5.17,10.26-5.41,2.18-.12,4.38-.02,6.29-.02,2.12,1.93,1.9,4.01.96,5.77-1.58,2.94-1.92,6.05-2.1,9.25-4.25-.07-8.5-.13-12.76-.2Z" fill="#5da700"/><path d="m200.81,327.9c-5.73-1.74-11.45-3.49-17.18-5.23,1.41-4.48,3.83-8.31,7.52-11.23,1.04-.82,2.35-1.46,3.64-1.76,1.67-.39,3.07.24,3.96,1.9,1.25,2.31,2.2,4.63,2.07,7.36-.14,2.98-.02,5.98-.01,8.96Z" fill="#5da700"/><path d="m517.84,287.45c4.73,1.31,9.46,2.62,14.19,3.93.81.49,1.61.98,2.42,1.46-3.62,4.17-8.52,5.79-13.68,6.89-2.06.44-3.97-.21-5.88-.91-3.49-1.27-4.24-3.06-2.71-6.48,1.13-2.52,2.76-4.43,5.66-4.9Z" fill="#5da700"/><path d="m489.44,315.68c-2.41.47-4.83.94-7.24,1.42-1.72-4.17-1.61-5.46,1.07-7.91,3.71-3.4,8.09-4.95,13.16-4.43,3.74.39,5.7,2.75,5.17,6.52-.16,1.15-.79,2.23-1.21,3.35-1.96.02-3.92.04-5.89.05-1.8-.24-3.55-.25-5.06,1Z" fill="#5da700"/><path d="m406.01,322.94c-5.29.23-10.57.45-15.86.68,0-.2-.02-.4,0-.6.53-9.01,4.31-10.44,12.14-12.08,1.23-.26,2.72.38,4.02.83,1.22.42,1.85,1.44,1.94,2.78.2,3.05.17,6.04-2.23,8.4Z" fill="#5da700"/><path d="m403.62,283.87c-6.45.76-9.45.82-18.51,5.54.16-.99.03-1.94.44-2.36,1.1-1.14,2.29-2.32,3.68-3.01,10.1-5,20.68-6.16,31.63-3.47,1.35.33,2.75.84,3.86,1.63,1.08.77,1.98,1.92,2.66,3.08.52.89.1,1.38-2.2,3.92-1.65-.31-.51-2.16-1.46-2.76-1.16-.73-2.37-1.44-3.65-1.91-1.11-.41-2.35-.49-3.53-.72-4.27-1.2-8.74-1.18-12.92.05Z" fill="#feef66"/><path d="m383.41,296.02c-5.14,2.87-10.67,4.48-16.51,5.05-5.91-.04-11.81-.07-17.72-.11,0,0-.33.13-.33.13,1.39-1.94,3.87-3.18,3.85-6.02,7.38-.03,14.76-.06,22.14-.1,1.57,0,3.24.23,4.39-1.27,1.4.77,2.79,1.54,4.19,2.32Z" fill="#fd3130"/><path d="m298.35,302.31c-4.56,1.22-8.92,3.23-13.73,3.47-.18-2.66.49-5.62-2.61-7.22-3.53-1.48-5.53-1.5-9.58-.09-2,.08-4,.21-6.01.24-2.26.03-4.38-.41-5.96-2.24,12.35-.04,24.69-.08,37.03-.12.28,1.99.57,3.98.85,5.97Z" fill="#fd735f"/><path d="m379.23,293.7c-1.15,1.5-2.81,1.26-4.39,1.27-7.38.04-14.76.07-22.14.1-1.27-2.73-4.18-3.29-6.37-4.79,10.5.07,20.99.14,31.49.21.47,1.07.94,2.14,1.41,3.21Z" fill="#fe220f"/><path d="m510.24,301.21c-6.36-1.05-8.92-3.99-7.92-9.29.64-3.43.73-6.72-.24-10.49,1.94-.04,3.63.36,5.31.85,1.5.44,3,.87,4.85,1.41-.74,1.78-1.27,3.26-1.96,4.67q-3.11,6.35-.03,12.85Z" fill="#feef66"/><path d="m325.68,293.55c-.4.07-.79.16-1.19.22-5.79.82-11,2.62-13.41,8.19-.83.24-1.21.47-1.58.45-2.35-.14-4.74-.93-5.17-3.31-.47-2.57,2.08-3.67,3.99-4.68,2.89-1.53,6.07-2.03,9.32-2.04,1.77.06,3.57.02,5.33.22.92.1,1.8.62,2.7.95Z" fill="#feef66"/><path d="m217.79,307.17c-.77-.18-1.56-.28-2.3-.55-7.13-2.61-8.85-2.7-15.45-.68-.77-2.04-.36-3.88.91-5.57,2.18-2.91,4.73-3.59,7.8-1.66,3.53,2.22,6.84,4.78,9.03,8.47h0Z" fill="#feef66"/><path d="m129.8,291.9c-1.04-2.08-.71-3.79.17-5.45,1.57-2.95,4.59-4.02,7.67-2.7,3.04,1.3,5.13,3.58,7.61,7.27-6.07-2.8-11.02-3.32-15.45.89Z" fill="#feef66"/><path d="m188.61,302.37c-4.19-1.62-8.39-3.23-12.57-4.88-.71-.28-1.37-.7-2.05-1.06,7.36-.02,14.72-.04,22.08-.05-2.49,2-4.97,3.99-7.46,5.99Z" fill="#fd3130"/><path d="m131.8,315.86c5.66,1.4,11.31,2.84,16.99,4.19,1.16.28,2.39.24,3.59.34.42.81.84,1.62,1.26,2.43-5.48-.13-10.54-2.16-15.77-3.45-2.13-.53-4.28-1.02-6.41-1.53.11-.66.23-1.32.34-1.98Z" fill="#cb562b"/><path d="m325.68,293.55c-.9-.33-1.78-.85-2.7-.95-1.77-.2-3.56-.16-5.33-.22,5.27-1.58,10.58-.93,15.87-.29.64.08,1.22.7,2.47,1.47-3.97,0-7.14,0-10.31,0Z" fill="#f4d941"/><path d="m399.83,277.95c.91-.33,1.82-.93,2.74-.95,5.81-.1,11.62-.11,17.42-.04.92.01,1.84.6,2.76.91-7.64.02-15.28.04-22.92.07Z" fill="#ef8d00"/><path d="m450.93,329.09c-4.37-.05-8.74-.03-13.1-.18-1.32-.05-2.61-.6-3.92-.91,5.89.09,11.77.17,17.65.26-.09.37-.3.65-.63.84Z" fill="#cb562b"/><path d="m403.62,283.87c4.18-1.23,8.65-1.25,12.92-.05-4.31.02-8.61.03-12.92.05Z" fill="#f4d941"/><path d="m321.23,324.42c4.25.06,8.51.13,12.76.2-.04.34-.13.66-.28.97-3.87-.03-7.74-.07-11.61-.1-.29-.35-.58-.71-.86-1.07Z" fill="#cb562b"/><path d="m534.45,292.84c-.81-.49-1.61-.98-2.42-1.46,2.06-1.82,4.57-.84,6.87-1.09-1.11,1.51-2.66,2.24-4.46,2.56Z" fill="#f35a0b"/><path d="m312.28,288.18c2.09-.3,4.23-.95,6.09.72-1.95.35-3.91.7-5.86,1.05-.08-.59-.15-1.18-.23-1.77Z" fill="#fd3130"/><path d="m198.34,296.04c3.25-1.64,6.52-1.58,9.79-.05-3.26.02-6.52.03-9.79.05Z" fill="#ef8d00"/><path d="m246.98,295c3.48-1.71,5.49-1.72,9.58-.05-3.19.01-6.39.03-9.58.05Z" fill="#ef8d00"/><path d="m272.43,298.48c4.05-1.41,6.05-1.39,9.58.09-3.19-.03-6.39-.06-9.58-.09Z" fill="#ef8d00"/><path d="m170.24,331.66c-2.66,1.42-5.34,1.35-8.03.09,2.68-.03,5.35-.06,8.03-.09Z" fill="#cb562b"/><path d="m237.17,305.76c1.08-.35,2.13-.87,3.24-1,1.74-.2,3.51-.14,5.27-.19-.06.39-.18.77-.35,1.12-2.72.02-5.43.04-8.15.06Z" fill="#cb562b"/><path d="m335.5,288.98c1.94,0,3.88-.1,5.81.05.89.07,1.74.65,2.61.99-2.85-.04-5.76.45-8.42-1.04Z" fill="#ff9a3d"/><path d="m431.07,327.75c-2.16,0-4.31,0-6.47,0,.24-.41.47-.82.7-1.23,1.92.43,4.06-.2,5.76,1.23Z" fill="#cb562b"/><path d="m238.35,341.63c.05.57.1,1.15.16,1.72-1.64.05-3.29.11-4.93.16,1.59-.63,3.18-1.25,4.77-1.87Z" fill="#ff9a3d"/><path d="m545.11,311.19c.03.25-.01.49-.13.72-1.99,0-3.97.02-5.96.03,1.89-1.37,3.99-1.03,6.09-.75Z" fill="#cb562b"/><path d="m217.78,307.18c.87.4,1.74.8,3.25,1.51-2.16.43-2.7-.54-3.25-1.52,0,0,0,0,0,0Z" fill="#feef66"/><path d="m226.2,345.93c.07-.39.11-.78.13-1.18,1.08-.07,2.15-.15,3.22-.22.56.45,1.12.91,1.68,1.36-1.68.01-3.35.03-5.03.04Z" fill="#f36800"/><path d="m155.9,291.27c-1.53-.14-3.06-.29-4.58-.43-.13-.18-.23-.38-.29-.6,1.71-.07,3.5-.48,4.88,1.03Z" fill="#cc4816"/><path d="m209.15,343.42c.08-.4.2-.78.36-1.15,1.27.07,2.53.12,3.37,1.29-1.25-.05-2.49-.09-3.74-.14Z" fill="#fe8513"/><path d="m125.62,290.19c-1.19-.37-2.38-.74-3.57-1.1,1.17,0,2.34.01,3.52.02.09.36.11.72.06,1.08Z" fill="#ef8d00"/><path d="m495.77,274.26c.89-1.15,1.64-.96,2.27.25-.76-.08-1.51-.17-2.27-.25Z" fill="#ff7522"/><path d="m499.24,274.39c.03.34.05.68.06,1.02-.45-.31-.89-.62-1.34-.92.43-.03.85-.06,1.28-.09Z" fill="#ff7522"/><path d="m455.51,235.54c-1.57,7.05-4.4,13.67-7.06,20.34-1.11,2.78-2.36,5.51-3.42,8.32-.34.9-.26,1.97-.38,2.95-6.45.03-12.9.03-19.35.09-3.81.04-7.63-.28-11.39.88-1.48.46-3.2.2-4.81.2-21.16,0-42.33.03-63.49-.03-2.39,0-4.77-.48-7.16-.7-1.6-.15-3.2-.3-4.81-.33-3.02-.06-6.05-.04-9.07-.05-2.31-1.56-4.49-3.39-6.96-4.63-7.17-3.6-12.6-9.24-17.97-14.94-1.88-1.99-3.73-4.21-4.24-7.11,4.65-.03,9.29-.04,13.94-.11,4.02-.06,8.06.34,12.02-.92,1.3-.41,2.81-.18,4.22-.19,7.07-.03,14.14.01,21.21-.08,5.02-.07,10.08.44,15.04-1,1.31-.38,2.81-.13,4.22-.13,6.26-.03,12.53-.02,18.79-.08,3.42-.03,6.84.25,10.2-.89,1.29-.43,2.8-.23,4.21-.24,6.06-.04,12.12-.04,18.18-.09,3.02-.02,6.02.11,9-.86,1.48-.48,3.2-.26,4.81-.27,8.08-.06,16.16-.08,24.24-.12Z" fill="#f36800"/><path d="m338.01,275.47c-2.09,0-4.18,0-6.26,0,2.09-1.47,4.18-1.46,6.26,0Z" fill="#ff7522"/><path d="m172.93,277.01c-.02.34-.02.68.03,1.02-.46-.28-.91-.55-1.37-.82.45-.06.9-.13,1.34-.2Z" fill="#f36800"/><path d="m412.91,175.12c3.03,1.05,6.1,2,9.07,3.18,17.79,7.05,35.57,14.12,53.33,21.23,15.15,6.07,30.26,12.22,45.39,18.32,6.73,2.71,13.46,5.4,20.18,8.12.29.12.48.52.74.82-5.16.52-10.27,1.24-15.41,1.5-5.04.26-10.11.05-15.16.07-2.62.01-5.21-.1-7.79.8-1.47.51-3.19.37-4.8.38-5.05.04-10.11,0-15.16.03-3.22.03-6.44-.25-9.59.92-1.26.47-2.8.26-4.21.26-5.26.03-10.51-.01-15.77.03-3.01.02-6.03-.24-8.99.9-1.26.48-2.8.28-4.21.29-5.26.03-10.51,0-15.77.03-3.62.03-7.25-.28-10.8.97-1.27.45-2.8.21-4.21.22-5.66.02-11.32-.01-16.98.03-3.42.02-6.83-.24-10.2.93-1.46.51-3.2.25-4.82.25-6.47.02-12.94-.01-19.41.03-3.21.02-6.41-.18-9.59.9-1.65.56-3.6.28-5.42.29-11.93.02-23.86-.02-35.79.06-2.19.01-4.38.48-6.57.73-1.4.16-2.8.41-4.2.41-14.96.03-29.92.02-44.88.02-.81,0-1.67.15-2.42-.07-6.75-1.91-13.65-.91-20.48-1.11-3.64-.11-7.28.01-10.92-.03-3.42-.04-6.77-.13-10.2-.86-3.49-.74-7.24-.27-10.87-.35-3.21-.07-6.42.22-9.59-.92-1.45-.52-3.2-.25-4.81-.29-3.82-.09-7.58-.16-11.41-.93-5.09-1.03-10.38-1.01-15.58-1.51-4.4-.42-8.8-.81-13.17-1.46-6.94-1.03-13.85-2.23-20.76-3.46-1.26-.22-2.43-.93-4.24-1.65,1.8-.7,2.88-1.24,4.02-1.55,11.47-3.03,22.98-5.92,34.42-9.05,15.13-4.13,30.2-8.51,45.33-12.66,14.35-3.93,28.77-7.63,43.12-11.56,13.39-3.67,26.71-7.57,40.08-11.27,11.24-3.11,22.52-6.06,33.78-9.13,8.73-2.38,17.44-4.84,26.17-7.25,6.01-1.66,12.07-3.15,18.02-4.98,2.69-.83,5.11-.57,7.59.43,4.11,1.65,8.23,3.3,12.34,4.94,4.11,1.65,8.27,3.2,12.32,4.98,1.81.79,3.42,2.04,5.12,3.08-1.32.49-2.65.96-3.96,1.47-3.38,1.31-5.96,3.35-6.61,7.22.79,1.96,2.23,3.45,4.1,4.21,1.83.75,3.94,1.57,5.8,1.33,2.94-.38,5.82-1.5,8.64-2.53,3.09-1.13,4.98-3.35,5.16-6.77Zm-66.24,11.92c4.89.19,8.13-.97,11.05-2.73,1.45-.87,2.52-2.51,3.48-3.98.94-1.45.6-3.2-.64-4.37-.71-.67-1.59-1.21-2.47-1.65-6.45-3.23-12.26-.93-17.47,2.71-4.23,2.95-2.08,7.8,1.57,8.88,1.9.57,3.85.99,4.49,1.15Zm-146.18,31.06c-.83-.94-1.62-1.84-2.4-2.74-4.78-5.48-18.32-1.38-20.92,3.63-.85,1.63-.68,3.99.75,4.96,3.4,2.31,7.04,4.08,11.31,2.75,2.3-.72,4.51-1.7,6.74-2.61,2.41-.98,3.93-2.73,4.52-5.99Zm106.37-3.05c-3.44.18-6.72,1.06-9.64,2.88-1.32.83-2.47,2.05-3.42,3.3-1.3,1.71-.83,4.07.81,5.35,5.78,4.51,16.13,3.09,20.47-2.79,1.43-1.94,1.25-4.24-.53-5.94-2.14-2.04-4.71-2.95-7.69-2.8Zm56.97-1.24c1.03,0,1.64-.04,2.24,0,3.66.31,6.64-1.42,9.47-3.35.93-.63,1.86-1.76,2.11-2.82.66-2.77.41-5.09-3.07-6.25-5.87-1.95-11.58-1.18-16.73,2.13-1.34.86-2.11,2.85-2.75,4.48-.63,1.59.21,3.16,1.63,4.17,2.28,1.62,4.86,1.77,7.09,1.63Zm48.32,12.1c.88,0,1.92.18,2.87-.04,2.12-.49,4.32-.94,6.26-1.87,1.89-.9,2.83-2.68,2.74-4.95-.08-2.06-1.05-3.34-2.85-4.18-3.12-1.46-6.33-2.58-9.82-2.18-2.98.34-5.9.97-8.2,3.19-3.06,2.96-2.77,6.06.78,8.41,2.49,1.64,5.25,1.76,8.21,1.61Zm-107.42-37.22c-.3-3.2-2.21-5.32-5.18-5.89-4.96-.95-10-1.08-14.85.87-2.34.94-3.37,2.93-3.58,5.18-.2,2.04,1.47,3.2,3.04,4.16,6.72,4.13,17.1,2.93,20.57-4.32Zm174.86,21.53c-.6,0-1.61-.02-2.61,0-3.39.08-6.18,1.74-8.64,3.76-3.23,2.65-2.28,6.95,1.62,8.43,4.1,1.56,8.13,1.41,12.31.1,2.9-.91,4.76-2.91,6.47-5.1,1.47-1.88.77-4.35-1.23-5.71-2.31-1.57-4.9-1.57-7.91-1.48Zm-238.86,14.89c3.67.21,6.8-1.07,9.77-2.85,2.88-1.73,3.1-4.36.88-7.01-1.67-1.99-3.92-2.74-6.23-3.35-4.27-1.13-8.44-.5-12.06,1.96-4.55,3.09-4.22,7.44.74,9.68,2.11.95,4.59,1.07,6.9,1.57Z" fill="#ffc300"/><path d="m412.91,175.12c-.18,3.43-2.07,5.65-5.16,6.77-2.82,1.03-5.7,2.15-8.64,2.53-1.86.24-3.97-.58-5.8-1.33-1.88-.77-3.32-2.25-4.1-4.21.65-3.87,3.24-5.91,6.61-7.22,1.31-.51,2.64-.98,3.96-1.47,4.94.13,9.52,1.26,13.13,4.93Z" fill="#f4d941"/><path d="m117.06,287.55c-.37-.3-.74-.6-1.1-.91.37.3.74.6,1.1.91Z" fill="#fd3130"/><path d="m460.12,290.23c-2.94,1.51-6.09,1.04-9.2.97,2.93-1.6,6.12-.77,9.2-.97Z" fill="#ef8d00"/><path d="m469.76,288.97c-2.08,1.42-4.42,1.05-6.72.96,2.07-1.48,4.47-.74,6.72-.96Z" fill="#ef8d00"/><path d="m349.18,300.96c5.91.04,11.81.07,17.72.11-1.1.33-2.2.93-3.31.95-3.92.1-7.86.07-11.78-.06-.89-.03-1.75-.66-2.63-1.01Z" fill="#cb562b"/><path d="m489.44,315.68c1.5-1.25,3.26-1.24,5.06-1-1.45,1.5-3.29,1.05-5.06,1Z" fill="#cb562b"/><path d="m226.25,306.98c2.26-1.82,4.88-.94,7.38-.99-2.31,1.42-4.86,1.1-7.38.99Z" fill="#cb562b"/><path d="m346.67,187.04c-.64-.16-2.59-.59-4.49-1.15-3.65-1.08-5.8-5.93-1.57-8.88,5.22-3.64,11.02-5.94,17.47-2.71.88.44,1.76.98,2.47,1.65,1.25,1.18,1.59,2.93.64,4.37-.96,1.47-2.04,3.12-3.48,3.98-2.92,1.76-6.16,2.92-11.05,2.73Z" fill="#f4d941"/><path d="m200.49,218.1c-.59,3.27-2.11,5.01-4.52,5.99-2.23.91-4.45,1.89-6.74,2.61-4.27,1.33-7.91-.44-11.31-2.75-1.43-.97-1.6-3.33-.75-4.96,2.6-5.01,16.14-9.11,20.92-3.63.79.9,1.58,1.8,2.4,2.74Z" fill="#f4d941"/><path d="m306.86,215.05c2.97-.15,5.55.75,7.69,2.8,1.78,1.7,1.96,4,.53,5.94-4.34,5.89-14.69,7.3-20.47,2.79-1.64-1.28-2.11-3.64-.81-5.35.95-1.25,2.1-2.48,3.42-3.3,2.92-1.82,6.2-2.7,9.64-2.88Z" fill="#f4d941"/><path d="m363.83,213.81c-2.23.14-4.81,0-7.09-1.63-1.42-1.01-2.27-2.58-1.63-4.17.64-1.63,1.41-3.62,2.75-4.48,5.15-3.31,10.86-4.08,16.73-2.13,3.47,1.16,3.72,3.48,3.07,6.25-.25,1.06-1.18,2.18-2.11,2.82-2.84,1.92-5.81,3.66-9.47,3.35-.6-.05-1.21,0-2.24,0Z" fill="#f4d941"/><path d="m412.15,225.91c-2.95.15-5.72.04-8.21-1.61-3.55-2.35-3.84-5.45-.78-8.41,2.3-2.22,5.21-2.85,8.2-3.19,3.49-.4,6.7.72,9.82,2.18,1.79.84,2.77,2.11,2.85,4.18.08,2.27-.85,4.05-2.74,4.95-1.95.93-4.14,1.37-6.26,1.87-.95.22-1.99.04-2.87.04Z" fill="#f4d941"/><path d="m304.73,188.68c-3.46,7.25-13.84,8.45-20.57,4.32-1.57-.96-3.24-2.12-3.04-4.16.22-2.25,1.25-4.24,3.58-5.18,4.85-1.95,9.88-1.82,14.85-.87,2.97.57,4.88,2.69,5.18,5.89Z" fill="#f4d941"/><path d="m479.59,210.21c3.01-.09,5.6-.09,7.91,1.48,2,1.36,2.7,3.83,1.23,5.71-1.71,2.19-3.56,4.19-6.47,5.1-4.18,1.31-8.21,1.46-12.31-.1-3.9-1.48-4.85-5.78-1.62-8.43,2.47-2.02,5.26-3.68,8.64-3.76,1-.02,2,0,2.61,0Z" fill="#f4d941"/><path d="m240.73,225.1c-2.31-.5-4.79-.62-6.9-1.57-4.96-2.24-5.29-6.59-.74-9.68,3.62-2.46,7.79-3.09,12.06-1.96,2.31.61,4.56,1.36,6.23,3.35,2.22,2.65,2,5.28-.88,7.01-2.97,1.79-6.1,3.07-9.77,2.85Z" fill="#f4d941"/></svg>