<?xml version="1.0" encoding="utf-8"?>
<!-- Generator: Adobe Illustrator 27.7.0, SVG Export Plug-In . SVG Version: 6.00 Build 0)  -->
<svg version="1.1" id="Layer_2" xmlns="http://www.w3.org/2000/svg" xmlns:xlink="http://www.w3.org/1999/xlink" x="0px" y="0px"
	 viewBox="0 0 331.4 183.9" style="enable-background:new 0 0 331.4 183.9;" xml:space="preserve">
<style type="text/css">
	.st0{opacity:0.2;}
	.st1{fill:#FFD700;}
	.st2{opacity:0.7;}
	.st3{fill:#FFE37C;}
	.st4{fill:#F7A51C;}
	.st5{fill:#F9C73A;}
	.st6{fill:#E5A810;}
	.st7{opacity:0.61;fill:#F4931F;}
	.st8{opacity:0.61;fill:#F9C73A;}
</style>
<ellipse class="st0" cx="166.4" cy="157.2" rx="95.8" ry="17"/>
<g>
	<path class="st1" d="M241.2,117.6c0-8.2,4.9-14.9,11-14.9c0.2,0,0.4,0,0.5,0L252.1,84c-0.7,0.3-1.4,0.4-2.1,0.4
		c-4.1,0-7.4-4.5-7.4-10.1c0-5.6,3.3-10.1,7.4-10.1c0.5,0,1,0.1,1.5,0.2l-0.3-10c0-1.5-0.1-5.6,0.1-7.1c0.4-4.1-10.9-26.3-39.1-42.8
		L76.9,43.9v26.4c4.3,0,7.8,6.3,7.8,14.1s-3.5,14.1-7.8,14.1v14.8c0.4-0.1,0.8-0.1,1.3-0.1c5,0,9.1,5.5,9.1,12.4
		c0,6.8-4.1,12.4-9.1,12.4c-0.4,0-0.8,0-1.3-0.1v20.7h32.8c-0.5-1.1-0.7-2.2-0.7-3.4c0-6.1,6.7-11,14.9-11c8.2,0,14.9,4.9,14.9,11
		c0,1.2-0.3,2.3-0.7,3.4h49.5c0-0.2,0-0.4,0-0.5c0-3.2,4.7-5.8,10.5-5.8s10.5,2.6,10.5,5.8c0,0.2,0,0.4,0,0.5h46l-0.9-26.1
		c-0.5,0.1-1,0.1-1.5,0.1C246.1,132.6,241.2,125.9,241.2,117.6z"/>
</g>
<g class="st2">
	<path class="st3" d="M251.2,49.6c0.4-4.1-10.9-26.3-39.1-42.8l-135.3,37v2.3v0.1l153.9-4.9c0.9,0,1.8-0.1,2.7-0.1
		c2.7-0.2,12.4,0.3,17.6,13.9C251.1,53.2,251.1,50.7,251.2,49.6z"/>
</g>
<g class="st2">
	<path class="st3" d="M254.5,158.5l-0.9-26.1c-0.5,0.1-1,0.1-1.5,0.1c-0.1,0-0.2,0-0.3,0l0.8,24.1h-44.4c0.2,0.4,0.3,0.8,0.3,1.3
		c0,0.2,0,0.4,0,0.5H254.5z"/>
	<path class="st3" d="M249.4,45.5c-0.1,1.5-0.1,5.6-0.1,7.1l0.3,10c-0.5-0.1-1-0.2-1.5-0.2c-4.1,0-7.4,4.5-7.4,10.1
		c0,3.9,1.6,7.2,4,8.9c-1.3-1.8-2.2-4.3-2.2-7.1c0-5.6,3.3-10.1,7.4-10.1c0.5,0,1,0.1,1.5,0.2l-0.3-10c0-1.5-0.1-5.6,0.1-7.1
		c0.3-2.8-5-14.2-17.5-26.5C244.9,32.4,249.7,42.9,249.4,45.5z"/>
	<path class="st3" d="M76.9,111.4v1.9c0.4-0.1,0.8-0.1,1.3-0.1c1.6,0,3.1,0.6,4.4,1.6C81.1,112.9,79.1,111.6,76.9,111.4z"/>
	<path class="st3" d="M122.1,142.3c-8.2,0-14.9,4.9-14.9,11c0,1.2,0.3,2.3,0.7,3.4h-31v1.8h32.8c-0.5-1.1-0.7-2.2-0.7-3.4
		c0-6.1,6.7-11,14.9-11c4.4,0,8.3,1.4,11.1,3.6C132.4,144.5,127.6,142.3,122.1,142.3z"/>
	<path class="st3" d="M76.9,68.8v1.4c1,0,2,0.3,2.8,1C78.9,70.1,77.9,69.3,76.9,68.8z"/>
	<path class="st3" d="M250.4,100.9c-6.1,0-11,6.7-11,14.9c0,5.5,2.2,10.3,5.4,12.9c-2.2-2.7-3.6-6.7-3.6-11.1
		c0-8.2,4.9-14.9,11-14.9c0.2,0,0.4,0,0.5,0L252.1,84c-0.6,0.2-1.1,0.4-1.8,0.4l0.5,16.5C250.7,100.9,250.5,100.9,250.4,100.9z"/>
	<path class="st3" d="M196.2,150.4c-5.8,0-10.5,2.6-10.5,5.8c0,0.2,0,0.4,0,0.5h-47.1c-0.1,0.6-0.3,1.2-0.6,1.8h49.5
		c0-0.2,0-0.4,0-0.5c0-3.2,4.7-5.8,10.5-5.8c3.3,0,6.2,0.8,8.1,2.1C204.8,152,200.9,150.4,196.2,150.4z"/>
</g>
<g>
	<path class="st3" d="M79.5,139.3c5,0,9.1-5.5,9.1-12.4c0-4.5-1.8-8.5-4.4-10.6c1.9,2.3,3.1,5.6,3.1,9.3c0,6.8-4.1,12.4-9.1,12.4
		c-0.4,0-0.8,0-1.3-0.1v20.7h1.4v-19.3C78.7,139.3,79.1,139.3,79.5,139.3z"/>
	<path class="st3" d="M86.1,85.8c0-5.8-2-10.8-4.7-13c2,2.6,3.4,6.8,3.4,11.6c0,7.8-3.5,14.1-7.8,14.1v14.8c0.4-0.1,0.8-0.1,1.3-0.1
		c0,0,0.1,0,0.1,0V99.9C82.6,99.9,86.1,93.6,86.1,85.8z"/>
	<path class="st3" d="M213.5,6c8.8,5.2,16,10.9,21.7,16.5c-5.9-6-13.5-12.2-23.1-17.8L76.9,43.9v26.4c0.5,0,0.9,0.1,1.4,0.2
		l-1.4-26.6L213.5,6z"/>
	<path class="st3" d="M251.4,85.8c0.3,0,0.6,0,0.8-0.1l-0.1-1.7c-0.7,0.3-1.4,0.4-2.1,0.4c-1.3,0-2.6-0.5-3.7-1.3
		C247.6,84.8,249.4,85.8,251.4,85.8z"/>
	<path class="st3" d="M253.6,133.9c0.1,0,0.1,0,0.2,0l0-1.5c-0.5,0.1-1,0.1-1.5,0.1c-2.1,0-4.1-0.8-5.8-2.2
		C248.3,132.6,250.8,133.9,253.6,133.9z"/>
	<path class="st3" d="M136.6,149.3c1.4,1.7,2.2,3.7,2.2,5.8c0,1.2-0.3,2.3-0.7,3.4h1.8c0.2-0.7,0.3-1.4,0.3-2.1
		C140.2,153.7,138.9,151.3,136.6,149.3z"/>
	<path class="st3" d="M207.9,155.9c0.5,0.7,0.7,1.4,0.7,2.1c0,0.2,0,0.4,0,0.5h1.3C209.6,157.6,208.9,156.6,207.9,155.9z"/>
</g>
<g>
	<path class="st4" d="M251.2,47.4c0.4-4.1-10.9-26.3-39.1-42.8L76.9,43.9v0.1L230.8,39c0.9,0,1.8-0.1,2.7-0.1
		c2.7-0.2,12.4,0.3,17.6,13.9C251.1,50.9,251.1,48.5,251.2,47.4z"/>
</g>
<g>
	<ellipse class="st5" cx="114" cy="48" rx="12.8" ry="7.3"/>
	<ellipse class="st5" cx="181.8" cy="42.7" rx="15.4" ry="10.2"/>
	<path class="st6" d="M210.3,17.8c0,2.8-4,5.1-8.8,5.1s-8.8-2.3-8.8-5.1c0-2.8,4-5.1,8.8-5.1S210.3,15,210.3,17.8z"/>
	<ellipse class="st5" cx="214.2" cy="64.5" rx="14.1" ry="12.4"/>
	<path class="st5" d="M170.6,105.2c0,5.5-5.7,9.9-12.7,9.9c-7,0-12.7-4.4-12.7-9.9c0-5.5,5.7-9.9,12.7-9.9
		C164.9,95.3,170.6,99.7,170.6,105.2z"/>
	<path class="st5" d="M219.3,140.2c-3.4,3.4-9.6,2.6-13.9-1.7c-4.3-4.3-5.1-10.6-1.7-13.9c3.4-3.4,9.6-2.6,13.9,1.7
		C221.9,130.6,222.7,136.8,219.3,140.2z"/>
	<path class="st5" d="M106.9,98.2c-4,0-7.3-4.2-7.3-9.4c0-5.2,3.3-9.4,7.3-9.4c4,0,7.3,4.2,7.3,9.4C114.2,94,110.9,98.2,106.9,98.2z
		"/>
</g>
<g>
	<path class="st5" d="M114.9,41.6c4.4,0,8.3,1.3,10.6,3.2c-2.1-2.5-6.5-4.2-11.5-4.2c-7.1,0-12.8,3.3-12.8,7.3
		c0,1.5,0.8,2.9,2.2,4.1c-0.8-1-1.2-2-1.2-3.1C102.1,44.9,107.8,41.6,114.9,41.6z"/>
	<path class="st5" d="M182.7,33.3c5.1,0,9.5,1.6,12.3,4.1c-2.7-3-7.6-5-13.3-5c-8.5,0-15.4,4.6-15.4,10.2c0,2.3,1.1,4.4,3.1,6.1
		c-1.4-1.5-2.1-3.3-2.1-5.2C167.3,37.9,174.2,33.3,182.7,33.3z"/>
	<path class="st5" d="M194.4,20.9c-0.5-0.6-0.8-1.4-0.8-2.1c0-2.8,4-5.1,8.8-5.1c2.9,0,5.5,0.8,7.1,2.1c-1.4-1.8-4.5-3-8-3
		c-4.9,0-8.8,2.3-8.8,5.1C192.7,19,193.3,20,194.4,20.9z"/>
	<path class="st5" d="M215.1,53c4,0,7.5,1.4,10.1,3.8c-2.6-2.8-6.5-4.7-11-4.7c-7.8,0-14.1,5.5-14.1,12.4c0,3.4,1.5,6.4,4,8.6
		c-1.9-2.1-3.1-4.8-3.1-7.7C201.1,58.5,207.4,53,215.1,53z"/>
	<path class="st5" d="M158.8,96.2c3.8,0,7.2,1.3,9.5,3.4c-2.3-2.6-6.1-4.3-10.4-4.3c-7,0-12.7,4.4-12.7,9.9c0,2.5,1.2,4.8,3.2,6.5
		c-1.4-1.6-2.2-3.5-2.2-5.6C146.1,100.6,151.8,96.2,158.8,96.2z"/>
	<path class="st5" d="M204.6,125.5c3.3-3.3,9.2-2.6,13.5,1.3c-0.1-0.2-0.3-0.3-0.4-0.5c-4.3-4.3-10.6-5.1-13.9-1.7
		c-3.4,3.4-2.6,9.6,1.7,13.9c0.2,0.2,0.3,0.3,0.5,0.4C202,134.7,201.3,128.7,204.6,125.5z"/>
	<path class="st5" d="M107.8,80.4c1.5,0,2.9,0.6,4,1.5c-1.3-1.5-3-2.4-4.9-2.4c-4,0-7.3,4.2-7.3,9.4c0,3.3,1.3,6.2,3.3,7.8
		c-1.5-1.7-2.4-4.2-2.4-6.9C100.4,84.6,103.7,80.4,107.8,80.4z"/>
</g>
<path class="st7" d="M125.8,46.6c0,4-5.7,7.3-12.8,7.3c-5,0-9.3-1.6-11.4-4c1.5,3.1,6.4,5.4,12.3,5.4c7.1,0,12.8-3.3,12.8-7.3
	c0-1.2-0.5-2.3-1.4-3.3C125.7,45.3,125.8,46,125.8,46.6z"/>
<path class="st7" d="M196.3,41.3c0,5.7-6.9,10.2-15.4,10.2c-5.9,0-11-2.2-13.6-5.4c2.1,4,7.8,6.8,14.5,6.8c8.5,0,15.4-4.6,15.4-10.2
	c0-1.7-0.7-3.4-1.8-4.8C195.9,38.9,196.3,40.1,196.3,41.3z"/>
<path class="st8" d="M200.6,21.6c-3.3,0-6.2-1.1-7.7-2.6c0.9,2.3,4.4,4,8.6,4c4.9,0,8.8-2.3,8.8-5.1c0-0.9-0.4-1.8-1.1-2.5
	c0.1,0.4,0.2,0.8,0.2,1.2C209.4,19.3,205.5,21.6,200.6,21.6z"/>
<path class="st7" d="M225.8,57.5c1,1.7,1.5,3.6,1.5,5.6c0,6.8-6.3,12.4-14.1,12.4c-4.8,0-9.1-2.2-11.6-5.4c2.3,4,7.1,6.8,12.5,6.8
	c7.8,0,14.1-5.5,14.1-12.4C228.3,61.9,227.4,59.5,225.8,57.5z"/>
<path class="st7" d="M169.7,103.8c0,5.5-5.7,9.9-12.7,9.9c-4.5,0-8.5-1.9-10.8-4.7c1.9,3.6,6.4,6,11.7,6c7,0,12.7-4.4,12.7-9.9
	c0-1.9-0.7-3.7-1.9-5.2C169.3,101.1,169.7,102.4,169.7,103.8z"/>
<path class="st7" d="M218.4,138.8c-3.4,3.4-9.6,2.6-13.9-1.7c-0.5-0.5-0.9-1-1.3-1.5c0.6,1,1.3,2,2.2,2.8c4.3,4.3,10.6,5.1,13.9,1.7
	c3-3,2.7-8.3-0.4-12.5C221.2,131.7,221.1,136.2,218.4,138.8z"/>
<path class="st7" d="M113.3,87.5c0,5.2-3.3,9.4-7.3,9.4c-2,0-3.8-1-5.1-2.6c1.3,2.4,3.5,4,6,4c4,0,7.3-4.2,7.3-9.4
	c0-2.6-0.9-5-2.2-6.7C112.8,83.6,113.3,85.5,113.3,87.5z"/>
</svg>
