<?xml version="1.0" encoding="utf-8"?>
<!-- Generator: Adobe Illustrator 27.7.0, SVG Export Plug-In . SVG Version: 6.00 Build 0)  -->
<svg version="1.1" id="Layer_2_00000084499955153391796220000002845418540643613335_"
	 xmlns="http://www.w3.org/2000/svg" xmlns:xlink="http://www.w3.org/1999/xlink" x="0px" y="0px" viewBox="0 0 175.6 322.4"
	 style="enable-background:new 0 0 175.6 322.4;" xml:space="preserve">
<style type="text/css">
	.st0{fill:#F06592;}
	.st1{fill:#FFFFFF;}
	.st2{fill:#FFB2EA;}
	.st3{fill:#FFD700;}
</style>
<path class="st0" d="M66.6,50.8c-1.7-1.3-3.7-1.9-5.8-1.2c-3.6,1-6,3.4-7.2,6.8c-1.8,5.2-0.7,10.1,2.6,14.3c3.7,4.7,9.2,4.2,12.1-1
	c1.6-2.8,2.5-5.9,2.5-8.9C70.8,56.7,69.8,53.3,66.6,50.8z M59,61.6c-0.3,0.3-0.8,0.5-1.2,0.7c-1.3,0.5-2.6,0-3-1.4
	c-0.2-0.8-0.3-1.6-0.3-2.4c0-2.1,0.9-4,2.3-5.6c0.5-0.6,1.3-1,2-1.1c2-0.5,3.4,0.8,3.4,3l0,0C61.9,57.3,61,59.7,59,61.6z
	 M128.3,58.4c-1.8-1.2-3.5-2.5-5.5-3.5c-2.2-1.1-4.6-1.2-7-0.6c-3.9,1-7.1,3.1-9.7,6.1c-0.5,0.6-0.8,1.4-0.9,2.1
	c-0.1,1.5,0.2,3,0.9,4.3c0.6,1.1,1.6,1.3,2.5,0.3c1.2-1.4,2.3-2.9,3.4-4.3c1.1-1.4,2.2-3,3.5-4.2c2.7-2.6,5.8-3,9.2-1.4
	c1.2,0.6,2.4,1.2,3.7,1.8C128.3,58.8,128.4,58.5,128.3,58.4z M128.4,59.2C128.4,59.2,128.4,59.2,128.4,59.2L128.4,59.2
	C128.4,59.2,128.4,59.2,128.4,59.2z M128.4,59.2C128.4,59.2,128.4,59.2,128.4,59.2L128.4,59.2C128.4,59.2,128.4,59.2,128.4,59.2z
	 M128.3,58.4c-1.8-1.2-3.5-2.5-5.5-3.5c-2.2-1.1-4.6-1.2-7-0.6c-3.9,1-7.1,3.1-9.7,6.1c-0.5,0.6-0.8,1.4-0.9,2.1
	c-0.1,1.5,0.2,3,0.9,4.3c0.6,1.1,1.6,1.3,2.5,0.3c1.2-1.4,2.3-2.9,3.4-4.3c1.1-1.4,2.2-3,3.5-4.2c2.7-2.6,5.8-3,9.2-1.4
	c1.2,0.6,2.4,1.2,3.7,1.8C128.3,58.8,128.4,58.5,128.3,58.4z M66.6,50.8c-1.7-1.3-3.7-1.9-5.8-1.2c-3.6,1-6,3.4-7.2,6.8
	c-1.8,5.2-0.7,10.1,2.6,14.3c3.7,4.7,9.2,4.2,12.1-1c1.6-2.8,2.5-5.9,2.5-8.9C70.8,56.7,69.8,53.3,66.6,50.8z M59,61.6
	c-0.3,0.3-0.8,0.5-1.2,0.7c-1.3,0.5-2.6,0-3-1.4c-0.2-0.8-0.3-1.6-0.3-2.4c0-2.1,0.9-4,2.3-5.6c0.5-0.6,1.3-1,2-1.1
	c2-0.5,3.4,0.8,3.4,3l0,0C61.9,57.3,61,59.7,59,61.6z M66.6,50.8c-1.7-1.3-3.7-1.9-5.8-1.2c-3.6,1-6,3.4-7.2,6.8
	c-1.8,5.2-0.7,10.1,2.6,14.3c3.7,4.7,9.2,4.2,12.1-1c1.6-2.8,2.5-5.9,2.5-8.9C70.8,56.7,69.8,53.3,66.6,50.8z M59,61.6
	c-0.3,0.3-0.8,0.5-1.2,0.7c-1.3,0.5-2.6,0-3-1.4c-0.2-0.8-0.3-1.6-0.3-2.4c0-2.1,0.9-4,2.3-5.6c0.5-0.6,1.3-1,2-1.1
	c2-0.5,3.4,0.8,3.4,3l0,0C61.9,57.3,61,59.7,59,61.6z M128.3,58.4c-1.8-1.2-3.5-2.5-5.5-3.5c-2.2-1.1-4.6-1.2-7-0.6
	c-3.9,1-7.1,3.1-9.7,6.1c-0.5,0.6-0.8,1.4-0.9,2.1c-0.1,1.5,0.2,3,0.9,4.3c0.6,1.1,1.6,1.3,2.5,0.3c1.2-1.4,2.3-2.9,3.4-4.3
	c1.1-1.4,2.2-3,3.5-4.2c2.7-2.6,5.8-3,9.2-1.4c1.2,0.6,2.4,1.2,3.7,1.8C128.3,58.8,128.4,58.5,128.3,58.4z M128.4,59.2
	C128.4,59.2,128.4,59.2,128.4,59.2L128.4,59.2C128.4,59.2,128.4,59.2,128.4,59.2z M128.4,59.2C128.4,59.2,128.4,59.2,128.4,59.2
	L128.4,59.2C128.4,59.2,128.4,59.2,128.4,59.2z M128.3,58.4c-1.8-1.2-3.5-2.5-5.5-3.5c-2.2-1.1-4.6-1.2-7-0.6
	c-3.9,1-7.1,3.1-9.7,6.1c-0.5,0.6-0.8,1.4-0.9,2.1c-0.1,1.5,0.2,3,0.9,4.3c0.6,1.1,1.6,1.3,2.5,0.3c1.2-1.4,2.3-2.9,3.4-4.3
	c1.1-1.4,2.2-3,3.5-4.2c2.7-2.6,5.8-3,9.2-1.4c1.2,0.6,2.4,1.2,3.7,1.8C128.3,58.8,128.4,58.5,128.3,58.4z M66.6,50.8
	c-1.7-1.3-3.7-1.9-5.8-1.2c-3.6,1-6,3.4-7.2,6.8c-1.8,5.2-0.7,10.1,2.6,14.3c3.7,4.7,9.2,4.2,12.1-1c1.6-2.8,2.5-5.9,2.5-8.9
	C70.8,56.7,69.8,53.3,66.6,50.8z M59,61.6c-0.3,0.3-0.8,0.5-1.2,0.7c-1.3,0.5-2.6,0-3-1.4c-0.2-0.8-0.3-1.6-0.3-2.4
	c0-2.1,0.9-4,2.3-5.6c0.5-0.6,1.3-1,2-1.1c2-0.5,3.4,0.8,3.4,3l0,0C61.9,57.3,61,59.7,59,61.6z M66.6,50.8c-1.7-1.3-3.7-1.9-5.8-1.2
	c-3.6,1-6,3.4-7.2,6.8c-1.8,5.2-0.7,10.1,2.6,14.3c3.7,4.7,9.2,4.2,12.1-1c1.6-2.8,2.5-5.9,2.5-8.9C70.8,56.7,69.8,53.3,66.6,50.8z
	 M59,61.6c-0.3,0.3-0.8,0.5-1.2,0.7c-1.3,0.5-2.6,0-3-1.4c-0.2-0.8-0.3-1.6-0.3-2.4c0-2.1,0.9-4,2.3-5.6c0.5-0.6,1.3-1,2-1.1
	c2-0.5,3.4,0.8,3.4,3l0,0C61.9,57.3,61,59.7,59,61.6z M73.4,177.5C73.4,177.5,73.3,177.6,73.4,177.5c-0.1,0.1-0.1,0.2-0.1,0.2
	c0,0,0.1-0.1,0.1-0.1l0,0C73.4,177.6,73.4,177.6,73.4,177.5z M73.4,177.5c0.5-0.3,0.5-0.8,0.5-1.4C73.4,176.5,73.3,177,73.4,177.5z
	 M74,176C74,176,74,176,74,176c0,0,0,0.1,0,0.1C74,176.1,74,176.1,74,176c0.1,0,0.2-0.1,0.2-0.2C74.1,175.9,74,175.9,74,176z
	 M83.3,205.3c-0.2-0.5-0.6-1-1-1.4c-4.2-5.3-6.8-11.1-6.4-18c0-0.4,0.2-0.9-0.6-1.3c-1.5,0.5-1.7,2.7-3.6,3.7
	c-0.1-1.9,0.1-3.5,0.4-5c0.4-1.8,0.7-3.7,1.1-5.5c-0.3,0.4-0.7,0.7-0.9,1.1c-1.1,2.7-1.8,5.5-2.1,8.3c-0.1,1.4-0.2,2.7-0.2,4.1
	c0,0.5,0.2,1.1,1,1.2c1-0.5,1.1-1.6,1.5-2.5c0.5-0.8,0.6-2,1.9-2.4c0.2,1.6,0.4,3.2,0.7,4.8c0.8,4.5,2.6,8.6,5.1,12.3
	c0.4,0.6,1.1,1.2,1.7,1.7c0.2,0.1,0.7,0,0.9-0.2S83.4,205.6,83.3,205.3z M85.6,199.9L85.6,199.9L85.6,199.9L85.6,199.9
	c0,0.1,0,0.1,0,0.1C85.6,200,85.6,199.9,85.6,199.9z M90.2,205.6c-1.3-1.7-2.5-3.5-3.8-5.2c-0.2-0.2-0.5-0.3-0.8-0.4
	c0.9,2,1.9,4,2.9,6c0.2,0.5,0.8,0.8,1.2,1.2c0.1,0.1,0.5,0,0.6-0.1c0.2-0.1,0.3-0.4,0.3-0.6C90.5,206.2,90.4,205.8,90.2,205.6z
	 M128.3,58.4c-1.8-1.2-3.5-2.5-5.5-3.5c-2.2-1.1-4.6-1.2-7-0.6c-3.9,1-7.1,3.1-9.7,6.1c-0.5,0.6-0.8,1.4-0.9,2.1
	c-0.1,1.5,0.2,3,0.9,4.3c0.6,1.1,1.6,1.3,2.5,0.3c1.2-1.4,2.3-2.9,3.4-4.3c1.1-1.4,2.2-3,3.5-4.2c2.7-2.6,5.8-3,9.2-1.4
	c1.2,0.6,2.4,1.2,3.7,1.8C128.3,58.8,128.4,58.5,128.3,58.4z M128.4,59.2C128.4,59.2,128.4,59.2,128.4,59.2L128.4,59.2
	C128.4,59.2,128.4,59.2,128.4,59.2z M128.4,59.2C128.4,59.2,128.4,59.2,128.4,59.2L128.4,59.2C128.4,59.2,128.4,59.2,128.4,59.2z
	 M128.3,58.4c-1.8-1.2-3.5-2.5-5.5-3.5c-2.2-1.1-4.6-1.2-7-0.6c-3.9,1-7.1,3.1-9.7,6.1c-0.5,0.6-0.8,1.4-0.9,2.1
	c-0.1,1.5,0.2,3,0.9,4.3c0.6,1.1,1.6,1.3,2.5,0.3c1.2-1.4,2.3-2.9,3.4-4.3c1.1-1.4,2.2-3,3.5-4.2c2.7-2.6,5.8-3,9.2-1.4
	c1.2,0.6,2.4,1.2,3.7,1.8C128.3,58.8,128.4,58.5,128.3,58.4z M66.6,50.8c-1.7-1.3-3.7-1.9-5.8-1.2c-3.6,1-6,3.4-7.2,6.8
	c-1.8,5.2-0.7,10.1,2.6,14.3c3.7,4.7,9.2,4.2,12.1-1c1.6-2.8,2.5-5.9,2.5-8.9C70.8,56.7,69.8,53.3,66.6,50.8z M59,61.6
	c-0.3,0.3-0.8,0.5-1.2,0.7c-1.3,0.5-2.6,0-3-1.4c-0.2-0.8-0.3-1.6-0.3-2.4c0-2.1,0.9-4,2.3-5.6c0.5-0.6,1.3-1,2-1.1
	c2-0.5,3.4,0.8,3.4,3l0,0C61.9,57.3,61,59.7,59,61.6z M90.2,205.6c-1.3-1.7-2.5-3.5-3.8-5.2c-0.2-0.2-0.5-0.3-0.8-0.4
	c0.9,2,1.9,4,2.9,6c0.2,0.5,0.8,0.8,1.2,1.2c0.1,0.1,0.5,0,0.6-0.1c0.2-0.1,0.3-0.4,0.3-0.6C90.5,206.2,90.4,205.8,90.2,205.6z
	 M85.6,199.9L85.6,199.9L85.6,199.9L85.6,199.9c0,0.1,0,0.1,0,0.1C85.6,200,85.6,199.9,85.6,199.9z M83.3,205.3
	c-0.2-0.5-0.6-1-1-1.4c-4.2-5.3-6.8-11.1-6.4-18c0-0.4,0.2-0.9-0.6-1.3c-1.5,0.5-1.7,2.7-3.6,3.7c-0.1-1.9,0.1-3.5,0.4-5
	c0.4-1.8,0.7-3.7,1.1-5.5c-0.3,0.4-0.7,0.7-0.9,1.1c-1.1,2.7-1.8,5.5-2.1,8.3c-0.1,1.4-0.2,2.7-0.2,4.1c0,0.5,0.2,1.1,1,1.2
	c1-0.5,1.1-1.6,1.5-2.5c0.5-0.8,0.6-2,1.9-2.4c0.2,1.6,0.4,3.2,0.7,4.8c0.8,4.5,2.6,8.6,5.1,12.3c0.4,0.6,1.1,1.2,1.7,1.7
	c0.2,0.1,0.7,0,0.9-0.2S83.4,205.6,83.3,205.3z M74,176C74,176,74,176,74,176c0,0,0,0.1,0,0.1C74,176.1,74,176.1,74,176
	c0.1,0,0.2-0.1,0.2-0.2C74.1,175.9,74,175.9,74,176z M73.4,177.5c0.5-0.3,0.5-0.8,0.5-1.4C73.4,176.5,73.3,177,73.4,177.5z
	 M73.4,177.5C73.4,177.5,73.3,177.6,73.4,177.5c-0.1,0.1-0.1,0.2-0.1,0.2c0,0,0.1-0.1,0.1-0.1l0,0C73.4,177.6,73.4,177.6,73.4,177.5
	z M25,308.7c0,0-0.1,0-0.1,0L25,308.7C25,308.7,25,308.7,25,308.7C25,308.7,25,308.7,25,308.7L25,308.7C25,308.7,25,308.7,25,308.7z
	 M25,308.7c0.7,0.1,1.1-0.1,1.2-1.1C25.7,308,25.4,308.3,25,308.7z M66.6,50.8c-1.7-1.3-3.7-1.9-5.8-1.2c-3.6,1-6,3.4-7.2,6.8
	c-1.8,5.2-0.7,10.1,2.6,14.3c3.7,4.7,9.2,4.2,12.1-1c1.6-2.8,2.5-5.9,2.5-8.9C70.8,56.7,69.8,53.3,66.6,50.8z M59,61.6
	c-0.3,0.3-0.8,0.5-1.2,0.7c-1.3,0.5-2.6,0-3-1.4c-0.2-0.8-0.3-1.6-0.3-2.4c0-2.1,0.9-4,2.3-5.6c0.5-0.6,1.3-1,2-1.1
	c2-0.5,3.4,0.8,3.4,3l0,0C61.9,57.3,61,59.7,59,61.6z M73.4,177.5C73.4,177.5,73.3,177.6,73.4,177.5c-0.1,0.1-0.1,0.2-0.1,0.2
	c0,0,0.1-0.1,0.1-0.1l0,0C73.4,177.6,73.4,177.6,73.4,177.5z M73.4,177.5c0.5-0.3,0.5-0.8,0.5-1.4C73.4,176.5,73.3,177,73.4,177.5z
	 M74,176C74,176,74,176,74,176c0,0,0,0.1,0,0.1C74,176.1,74,176.1,74,176c0.1,0,0.2-0.1,0.2-0.2C74.1,175.9,74,175.9,74,176z
	 M83.3,205.3c-0.2-0.5-0.6-1-1-1.4c-4.2-5.3-6.8-11.1-6.4-18c0-0.4,0.2-0.9-0.6-1.3c-1.5,0.5-1.7,2.7-3.6,3.7
	c-0.1-1.9,0.1-3.5,0.4-5c0.4-1.8,0.7-3.7,1.1-5.5c-0.3,0.4-0.7,0.7-0.9,1.1c-1.1,2.7-1.8,5.5-2.1,8.3c-0.1,1.4-0.2,2.7-0.2,4.1
	c0,0.5,0.2,1.1,1,1.2c1-0.5,1.1-1.6,1.5-2.5c0.5-0.8,0.6-2,1.9-2.4c0.2,1.6,0.4,3.2,0.7,4.8c0.8,4.5,2.6,8.6,5.1,12.3
	c0.4,0.6,1.1,1.2,1.7,1.7c0.2,0.1,0.7,0,0.9-0.2S83.4,205.6,83.3,205.3z M85.6,199.9L85.6,199.9L85.6,199.9L85.6,199.9
	c0,0.1,0,0.1,0,0.1C85.6,200,85.6,199.9,85.6,199.9z M90.2,205.6c-1.3-1.7-2.5-3.5-3.8-5.2c-0.2-0.2-0.5-0.3-0.8-0.4
	c0.9,2,1.9,4,2.9,6c0.2,0.5,0.8,0.8,1.2,1.2c0.1,0.1,0.5,0,0.6-0.1c0.2-0.1,0.3-0.4,0.3-0.6C90.5,206.2,90.4,205.8,90.2,205.6z
	 M128.3,58.4c-1.8-1.2-3.5-2.5-5.5-3.5c-2.2-1.1-4.6-1.2-7-0.6c-3.9,1-7.1,3.1-9.7,6.1c-0.5,0.6-0.8,1.4-0.9,2.1
	c-0.1,1.5,0.2,3,0.9,4.3c0.6,1.1,1.6,1.3,2.5,0.3c1.2-1.4,2.3-2.9,3.4-4.3c1.1-1.4,2.2-3,3.5-4.2c2.7-2.6,5.8-3,9.2-1.4
	c1.2,0.6,2.4,1.2,3.7,1.8C128.3,58.8,128.4,58.5,128.3,58.4z M128.4,59.2C128.4,59.2,128.4,59.2,128.4,59.2L128.4,59.2
	C128.4,59.2,128.4,59.2,128.4,59.2z M128.4,59.2C128.4,59.2,128.4,59.2,128.4,59.2L128.4,59.2C128.4,59.2,128.4,59.2,128.4,59.2z
	 M128.3,58.4c-1.8-1.2-3.5-2.5-5.5-3.5c-2.2-1.1-4.6-1.2-7-0.6c-3.9,1-7.1,3.1-9.7,6.1c-0.5,0.6-0.8,1.4-0.9,2.1
	c-0.1,1.5,0.2,3,0.9,4.3c0.6,1.1,1.6,1.3,2.5,0.3c1.2-1.4,2.3-2.9,3.4-4.3c1.1-1.4,2.2-3,3.5-4.2c2.7-2.6,5.8-3,9.2-1.4
	c1.2,0.6,2.4,1.2,3.7,1.8C128.3,58.8,128.4,58.5,128.3,58.4z M66.6,50.8c-1.7-1.3-3.7-1.9-5.8-1.2c-3.6,1-6,3.4-7.2,6.8
	c-1.8,5.2-0.7,10.1,2.6,14.3c3.7,4.7,9.2,4.2,12.1-1c1.6-2.8,2.5-5.9,2.5-8.9C70.8,56.7,69.8,53.3,66.6,50.8z M59,61.6
	c-0.3,0.3-0.8,0.5-1.2,0.7c-1.3,0.5-2.6,0-3-1.4c-0.2-0.8-0.3-1.6-0.3-2.4c0-2.1,0.9-4,2.3-5.6c0.5-0.6,1.3-1,2-1.1
	c2-0.5,3.4,0.8,3.4,3l0,0C61.9,57.3,61,59.7,59,61.6z M90.2,205.6c-1.3-1.7-2.5-3.5-3.8-5.2c-0.2-0.2-0.5-0.3-0.8-0.4
	c0.9,2,1.9,4,2.9,6c0.2,0.5,0.8,0.8,1.2,1.2c0.1,0.1,0.5,0,0.6-0.1c0.2-0.1,0.3-0.4,0.3-0.6C90.5,206.2,90.4,205.8,90.2,205.6z
	 M85.6,199.9L85.6,199.9L85.6,199.9L85.6,199.9c0,0.1,0,0.1,0,0.1C85.6,200,85.6,199.9,85.6,199.9z M83.3,205.3
	c-0.2-0.5-0.6-1-1-1.4c-4.2-5.3-6.8-11.1-6.4-18c0-0.4,0.2-0.9-0.6-1.3c-1.5,0.5-1.7,2.7-3.6,3.7c-0.1-1.9,0.1-3.5,0.4-5
	c0.4-1.8,0.7-3.7,1.1-5.5c-0.3,0.4-0.7,0.7-0.9,1.1c-1.1,2.7-1.8,5.5-2.1,8.3c-0.1,1.4-0.2,2.7-0.2,4.1c0,0.5,0.2,1.1,1,1.2
	c1-0.5,1.1-1.6,1.5-2.5c0.5-0.8,0.6-2,1.9-2.4c0.2,1.6,0.4,3.2,0.7,4.8c0.8,4.5,2.6,8.6,5.1,12.3c0.4,0.6,1.1,1.2,1.7,1.7
	c0.2,0.1,0.7,0,0.9-0.2S83.4,205.6,83.3,205.3z M74,176C74,176,74,176,74,176c0,0,0,0.1,0,0.1C74,176.1,74,176.1,74,176
	c0.1,0,0.2-0.1,0.2-0.2C74.1,175.9,74,175.9,74,176z M73.4,177.5c0.5-0.3,0.5-0.8,0.5-1.4C73.4,176.5,73.3,177,73.4,177.5z
	 M73.4,177.5C73.4,177.5,73.3,177.6,73.4,177.5c-0.1,0.1-0.1,0.2-0.1,0.2c0,0,0.1-0.1,0.1-0.1l0,0C73.4,177.6,73.4,177.6,73.4,177.5
	z M25,308.7c0.7,0.1,1.1-0.1,1.2-1.1C25.7,308,25.4,308.3,25,308.7z M25,308.7c0,0-0.1,0-0.1,0L25,308.7C25,308.7,25,308.7,25,308.7
	C25,308.7,25,308.7,25,308.7L25,308.7C25,308.7,25,308.7,25,308.7z M25,308.7c0,0-0.1,0-0.1,0L25,308.7C25,308.7,25,308.7,25,308.7
	C25,308.7,25,308.7,25,308.7L25,308.7C25,308.7,25,308.7,25,308.7z M25,308.7c0.7,0.1,1.1-0.1,1.2-1.1C25.7,308,25.4,308.3,25,308.7
	z M66.6,50.8c-1.7-1.3-3.7-1.9-5.8-1.2c-3.6,1-6,3.4-7.2,6.8c-1.8,5.2-0.7,10.1,2.6,14.3c3.7,4.7,9.2,4.2,12.1-1
	c1.6-2.8,2.5-5.9,2.5-8.9C70.8,56.7,69.8,53.3,66.6,50.8z M59,61.6c-0.3,0.3-0.8,0.5-1.2,0.7c-1.3,0.5-2.6,0-3-1.4
	c-0.2-0.8-0.3-1.6-0.3-2.4c0-2.1,0.9-4,2.3-5.6c0.5-0.6,1.3-1,2-1.1c2-0.5,3.4,0.8,3.4,3l0,0C61.9,57.3,61,59.7,59,61.6z
	 M73.4,177.5C73.4,177.5,73.3,177.6,73.4,177.5c-0.1,0.1-0.1,0.2-0.1,0.2c0,0,0.1-0.1,0.1-0.1l0,0C73.4,177.6,73.4,177.6,73.4,177.5
	z M73.4,177.5c0.5-0.3,0.5-0.8,0.5-1.4C73.4,176.5,73.3,177,73.4,177.5z M74,176C74,176,74,176,74,176c0,0,0,0.1,0,0.1
	C74,176.1,74,176.1,74,176c0.1,0,0.2-0.1,0.2-0.2C74.1,175.9,74,175.9,74,176z M83.3,205.3c-0.2-0.5-0.6-1-1-1.4
	c-4.2-5.3-6.8-11.1-6.4-18c0-0.4,0.2-0.9-0.6-1.3c-1.5,0.5-1.7,2.7-3.6,3.7c-0.1-1.9,0.1-3.5,0.4-5c0.4-1.8,0.7-3.7,1.1-5.5
	c-0.3,0.4-0.7,0.7-0.9,1.1c-1.1,2.7-1.8,5.5-2.1,8.3c-0.1,1.4-0.2,2.7-0.2,4.1c0,0.5,0.2,1.1,1,1.2c1-0.5,1.1-1.6,1.5-2.5
	c0.5-0.8,0.6-2,1.9-2.4c0.2,1.6,0.4,3.2,0.7,4.8c0.8,4.5,2.6,8.6,5.1,12.3c0.4,0.6,1.1,1.2,1.7,1.7c0.2,0.1,0.7,0,0.9-0.2
	S83.4,205.6,83.3,205.3z M85.6,199.9L85.6,199.9L85.6,199.9L85.6,199.9c0,0.1,0,0.1,0,0.1C85.6,200,85.6,199.9,85.6,199.9z
	 M90.2,205.6c-1.3-1.7-2.5-3.5-3.8-5.2c-0.2-0.2-0.5-0.3-0.8-0.4c0.9,2,1.9,4,2.9,6c0.2,0.5,0.8,0.8,1.2,1.2c0.1,0.1,0.5,0,0.6-0.1
	c0.2-0.1,0.3-0.4,0.3-0.6C90.5,206.2,90.4,205.8,90.2,205.6z M128.3,58.4c-1.8-1.2-3.5-2.5-5.5-3.5c-2.2-1.1-4.6-1.2-7-0.6
	c-3.9,1-7.1,3.1-9.7,6.1c-0.5,0.6-0.8,1.4-0.9,2.1c-0.1,1.5,0.2,3,0.9,4.3c0.6,1.1,1.6,1.3,2.5,0.3c1.2-1.4,2.3-2.9,3.4-4.3
	c1.1-1.4,2.2-3,3.5-4.2c2.7-2.6,5.8-3,9.2-1.4c1.2,0.6,2.4,1.2,3.7,1.8C128.3,58.8,128.4,58.5,128.3,58.4z M128.4,59.2
	C128.4,59.2,128.4,59.2,128.4,59.2L128.4,59.2C128.4,59.2,128.4,59.2,128.4,59.2z M128.4,59.2C128.4,59.2,128.4,59.2,128.4,59.2
	L128.4,59.2C128.4,59.2,128.4,59.2,128.4,59.2z M128.3,58.4c-1.8-1.2-3.5-2.5-5.5-3.5c-2.2-1.1-4.6-1.2-7-0.6
	c-3.9,1-7.1,3.1-9.7,6.1c-0.5,0.6-0.8,1.4-0.9,2.1c-0.1,1.5,0.2,3,0.9,4.3c0.6,1.1,1.6,1.3,2.5,0.3c1.2-1.4,2.3-2.9,3.4-4.3
	c1.1-1.4,2.2-3,3.5-4.2c2.7-2.6,5.8-3,9.2-1.4c1.2,0.6,2.4,1.2,3.7,1.8C128.3,58.8,128.4,58.5,128.3,58.4z M66.6,50.8
	c-1.7-1.3-3.7-1.9-5.8-1.2c-3.6,1-6,3.4-7.2,6.8c-1.8,5.2-0.7,10.1,2.6,14.3c3.7,4.7,9.2,4.2,12.1-1c1.6-2.8,2.5-5.9,2.5-8.9
	C70.8,56.7,69.8,53.3,66.6,50.8z M59,61.6c-0.3,0.3-0.8,0.5-1.2,0.7c-1.3,0.5-2.6,0-3-1.4c-0.2-0.8-0.3-1.6-0.3-2.4
	c0-2.1,0.9-4,2.3-5.6c0.5-0.6,1.3-1,2-1.1c2-0.5,3.4,0.8,3.4,3l0,0C61.9,57.3,61,59.7,59,61.6z M90.2,205.6
	c-1.3-1.7-2.5-3.5-3.8-5.2c-0.2-0.2-0.5-0.3-0.8-0.4c0.9,2,1.9,4,2.9,6c0.2,0.5,0.8,0.8,1.2,1.2c0.1,0.1,0.5,0,0.6-0.1
	c0.2-0.1,0.3-0.4,0.3-0.6C90.5,206.2,90.4,205.8,90.2,205.6z M85.6,199.9L85.6,199.9L85.6,199.9L85.6,199.9c0,0.1,0,0.1,0,0.1
	C85.6,200,85.6,199.9,85.6,199.9z M83.3,205.3c-0.2-0.5-0.6-1-1-1.4c-4.2-5.3-6.8-11.1-6.4-18c0-0.4,0.2-0.9-0.6-1.3
	c-1.5,0.5-1.7,2.7-3.6,3.7c-0.1-1.9,0.1-3.5,0.4-5c0.4-1.8,0.7-3.7,1.1-5.5c-0.3,0.4-0.7,0.7-0.9,1.1c-1.1,2.7-1.8,5.5-2.1,8.3
	c-0.1,1.4-0.2,2.7-0.2,4.1c0,0.5,0.2,1.1,1,1.2c1-0.5,1.1-1.6,1.5-2.5c0.5-0.8,0.6-2,1.9-2.4c0.2,1.6,0.4,3.2,0.7,4.8
	c0.8,4.5,2.6,8.6,5.1,12.3c0.4,0.6,1.1,1.2,1.7,1.7c0.2,0.1,0.7,0,0.9-0.2S83.4,205.6,83.3,205.3z M74,176C74,176,74,176,74,176
	c0,0,0,0.1,0,0.1C74,176.1,74,176.1,74,176c0.1,0,0.2-0.1,0.2-0.2C74.1,175.9,74,175.9,74,176z M73.4,177.5c0.5-0.3,0.5-0.8,0.5-1.4
	C73.4,176.5,73.3,177,73.4,177.5z M73.4,177.5C73.4,177.5,73.3,177.6,73.4,177.5c-0.1,0.1-0.1,0.2-0.1,0.2c0,0,0.1-0.1,0.1-0.1l0,0
	C73.4,177.6,73.4,177.6,73.4,177.5z M25,308.7c0.7,0.1,1.1-0.1,1.2-1.1C25.7,308,25.4,308.3,25,308.7z M25,308.7c0,0-0.1,0-0.1,0
	L25,308.7C25,308.7,25,308.7,25,308.7C25,308.7,25,308.7,25,308.7L25,308.7C25,308.7,25,308.7,25,308.7z M25,308.7c0,0-0.1,0-0.1,0
	L25,308.7C25,308.7,25,308.7,25,308.7C25,308.7,25,308.7,25,308.7L25,308.7C25,308.7,25,308.7,25,308.7z M25,308.7
	c0.7,0.1,1.1-0.1,1.2-1.1C25.7,308,25.4,308.3,25,308.7z M66.6,50.8c-1.7-1.3-3.7-1.9-5.8-1.2c-3.6,1-6,3.4-7.2,6.8
	c-1.8,5.2-0.7,10.1,2.6,14.3c3.7,4.7,9.2,4.2,12.1-1c1.6-2.8,2.5-5.9,2.5-8.9C70.8,56.7,69.8,53.3,66.6,50.8z M59,61.6
	c-0.3,0.3-0.8,0.5-1.2,0.7c-1.3,0.5-2.6,0-3-1.4c-0.2-0.8-0.3-1.6-0.3-2.4c0-2.1,0.9-4,2.3-5.6c0.5-0.6,1.3-1,2-1.1
	c2-0.5,3.4,0.8,3.4,3l0,0C61.9,57.3,61,59.7,59,61.6z M73.4,177.5C73.4,177.5,73.3,177.6,73.4,177.5c-0.1,0.1-0.1,0.2-0.1,0.2
	c0,0,0.1-0.1,0.1-0.1l0,0C73.4,177.6,73.4,177.6,73.4,177.5z M73.4,177.5c0.5-0.3,0.5-0.8,0.5-1.4C73.4,176.5,73.3,177,73.4,177.5z
	 M74,176C74,176,74,176,74,176c0,0,0,0.1,0,0.1C74,176.1,74,176.1,74,176c0.1,0,0.2-0.1,0.2-0.2C74.1,175.9,74,175.9,74,176z
	 M83.3,205.3c-0.2-0.5-0.6-1-1-1.4c-4.2-5.3-6.8-11.1-6.4-18c0-0.4,0.2-0.9-0.6-1.3c-1.5,0.5-1.7,2.7-3.6,3.7
	c-0.1-1.9,0.1-3.5,0.4-5c0.4-1.8,0.7-3.7,1.1-5.5c-0.3,0.4-0.7,0.7-0.9,1.1c-1.1,2.7-1.8,5.5-2.1,8.3c-0.1,1.4-0.2,2.7-0.2,4.1
	c0,0.5,0.2,1.1,1,1.2c1-0.5,1.1-1.6,1.5-2.5c0.5-0.8,0.6-2,1.9-2.4c0.2,1.6,0.4,3.2,0.7,4.8c0.8,4.5,2.6,8.6,5.1,12.3
	c0.4,0.6,1.1,1.2,1.7,1.7c0.2,0.1,0.7,0,0.9-0.2S83.4,205.6,83.3,205.3z M85.6,199.9L85.6,199.9L85.6,199.9L85.6,199.9
	c0,0.1,0,0.1,0,0.1C85.6,200,85.6,199.9,85.6,199.9z M90.2,205.6c-1.3-1.7-2.5-3.5-3.8-5.2c-0.2-0.2-0.5-0.3-0.8-0.4
	c0.9,2,1.9,4,2.9,6c0.2,0.5,0.8,0.8,1.2,1.2c0.1,0.1,0.5,0,0.6-0.1c0.2-0.1,0.3-0.4,0.3-0.6C90.5,206.2,90.4,205.8,90.2,205.6z
	 M128.3,58.4c-1.8-1.2-3.5-2.5-5.5-3.5c-2.2-1.1-4.6-1.2-7-0.6c-3.9,1-7.1,3.1-9.7,6.1c-0.5,0.6-0.8,1.4-0.9,2.1
	c-0.1,1.5,0.2,3,0.9,4.3c0.6,1.1,1.6,1.3,2.5,0.3c1.2-1.4,2.3-2.9,3.4-4.3c1.1-1.4,2.2-3,3.5-4.2c2.7-2.6,5.8-3,9.2-1.4
	c1.2,0.6,2.4,1.2,3.7,1.8C128.3,58.8,128.4,58.5,128.3,58.4z M128.4,59.2C128.4,59.2,128.4,59.2,128.4,59.2L128.4,59.2
	C128.4,59.2,128.4,59.2,128.4,59.2z M128.4,59.2C128.4,59.2,128.4,59.2,128.4,59.2L128.4,59.2C128.4,59.2,128.4,59.2,128.4,59.2z
	 M128.3,58.4c-1.8-1.2-3.5-2.5-5.5-3.5c-2.2-1.1-4.6-1.2-7-0.6c-3.9,1-7.1,3.1-9.7,6.1c-0.5,0.6-0.8,1.4-0.9,2.1
	c-0.1,1.5,0.2,3,0.9,4.3c0.6,1.1,1.6,1.3,2.5,0.3c1.2-1.4,2.3-2.9,3.4-4.3c1.1-1.4,2.2-3,3.5-4.2c2.7-2.6,5.8-3,9.2-1.4
	c1.2,0.6,2.4,1.2,3.7,1.8C128.3,58.8,128.4,58.5,128.3,58.4z M66.6,50.8c-1.7-1.3-3.7-1.9-5.8-1.2c-3.6,1-6,3.4-7.2,6.8
	c-1.8,5.2-0.7,10.1,2.6,14.3c3.7,4.7,9.2,4.2,12.1-1c1.6-2.8,2.5-5.9,2.5-8.9C70.8,56.7,69.8,53.3,66.6,50.8z M59,61.6
	c-0.3,0.3-0.8,0.5-1.2,0.7c-1.3,0.5-2.6,0-3-1.4c-0.2-0.8-0.3-1.6-0.3-2.4c0-2.1,0.9-4,2.3-5.6c0.5-0.6,1.3-1,2-1.1
	c2-0.5,3.4,0.8,3.4,3l0,0C61.9,57.3,61,59.7,59,61.6z M90.2,205.6c-1.3-1.7-2.5-3.5-3.8-5.2c-0.2-0.2-0.5-0.3-0.8-0.4
	c0.9,2,1.9,4,2.9,6c0.2,0.5,0.8,0.8,1.2,1.2c0.1,0.1,0.5,0,0.6-0.1c0.2-0.1,0.3-0.4,0.3-0.6C90.5,206.2,90.4,205.8,90.2,205.6z
	 M85.6,199.9L85.6,199.9L85.6,199.9L85.6,199.9c0,0.1,0,0.1,0,0.1C85.6,200,85.6,199.9,85.6,199.9z M83.3,205.3
	c-0.2-0.5-0.6-1-1-1.4c-4.2-5.3-6.8-11.1-6.4-18c0-0.4,0.2-0.9-0.6-1.3c-1.5,0.5-1.7,2.7-3.6,3.7c-0.1-1.9,0.1-3.5,0.4-5
	c0.4-1.8,0.7-3.7,1.1-5.5c-0.3,0.4-0.7,0.7-0.9,1.1c-1.1,2.7-1.8,5.5-2.1,8.3c-0.1,1.4-0.2,2.7-0.2,4.1c0,0.5,0.2,1.1,1,1.2
	c1-0.5,1.1-1.6,1.5-2.5c0.5-0.8,0.6-2,1.9-2.4c0.2,1.6,0.4,3.2,0.7,4.8c0.8,4.5,2.6,8.6,5.1,12.3c0.4,0.6,1.1,1.2,1.7,1.7
	c0.2,0.1,0.7,0,0.9-0.2S83.4,205.6,83.3,205.3z M74,176C74,176,74,176,74,176c0,0,0,0.1,0,0.1C74,176.1,74,176.1,74,176
	c0.1,0,0.2-0.1,0.2-0.2C74.1,175.9,74,175.9,74,176z M73.4,177.5c0.5-0.3,0.5-0.8,0.5-1.4C73.4,176.5,73.3,177,73.4,177.5z
	 M73.4,177.5C73.4,177.5,73.3,177.6,73.4,177.5c-0.1,0.1-0.1,0.2-0.1,0.2c0,0,0.1-0.1,0.1-0.1l0,0C73.4,177.6,73.4,177.6,73.4,177.5
	z M25,308.7c0.7,0.1,1.1-0.1,1.2-1.1C25.7,308,25.4,308.3,25,308.7z M25,308.7c0,0-0.1,0-0.1,0L25,308.7C25,308.7,25,308.7,25,308.7
	C25,308.7,25,308.7,25,308.7L25,308.7C25,308.7,25,308.7,25,308.7z M25,308.7c0,0-0.1,0-0.1,0L25,308.7C25,308.7,25,308.7,25,308.7
	C25,308.7,25,308.7,25,308.7L25,308.7C25,308.7,25,308.7,25,308.7z M25,308.7c0.7,0.1,1.1-0.1,1.2-1.1C25.7,308,25.4,308.3,25,308.7
	z M66.6,50.8c-1.7-1.3-3.7-1.9-5.8-1.2c-3.6,1-6,3.4-7.2,6.8c-1.8,5.2-0.7,10.1,2.6,14.3c3.7,4.7,9.2,4.2,12.1-1
	c1.6-2.8,2.5-5.9,2.5-8.9C70.8,56.7,69.8,53.3,66.6,50.8z M59,61.6c-0.3,0.3-0.8,0.5-1.2,0.7c-1.3,0.5-2.6,0-3-1.4
	c-0.2-0.8-0.3-1.6-0.3-2.4c0-2.1,0.9-4,2.3-5.6c0.5-0.6,1.3-1,2-1.1c2-0.5,3.4,0.8,3.4,3l0,0C61.9,57.3,61,59.7,59,61.6z
	 M73.4,177.5C73.4,177.5,73.3,177.6,73.4,177.5c-0.1,0.1-0.1,0.2-0.1,0.2c0,0,0.1-0.1,0.1-0.1l0,0C73.4,177.6,73.4,177.6,73.4,177.5
	z M73.4,177.5c0.5-0.3,0.5-0.8,0.5-1.4C73.4,176.5,73.3,177,73.4,177.5z M74,176C74,176,74,176,74,176c0,0,0,0.1,0,0.1
	C74,176.1,74,176.1,74,176c0.1,0,0.2-0.1,0.2-0.2C74.1,175.9,74,175.9,74,176z M83.3,205.3c-0.2-0.5-0.6-1-1-1.4
	c-4.2-5.3-6.8-11.1-6.4-18c0-0.4,0.2-0.9-0.6-1.3c-1.5,0.5-1.7,2.7-3.6,3.7c-0.1-1.9,0.1-3.5,0.4-5c0.4-1.8,0.7-3.7,1.1-5.5
	c-0.3,0.4-0.7,0.7-0.9,1.1c-1.1,2.7-1.8,5.5-2.1,8.3c-0.1,1.4-0.2,2.7-0.2,4.1c0,0.5,0.2,1.1,1,1.2c1-0.5,1.1-1.6,1.5-2.5
	c0.5-0.8,0.6-2,1.9-2.4c0.2,1.6,0.4,3.2,0.7,4.8c0.8,4.5,2.6,8.6,5.1,12.3c0.4,0.6,1.1,1.2,1.7,1.7c0.2,0.1,0.7,0,0.9-0.2
	S83.4,205.6,83.3,205.3z M85.6,199.9L85.6,199.9L85.6,199.9L85.6,199.9c0,0.1,0,0.1,0,0.1C85.6,200,85.6,199.9,85.6,199.9z
	 M90.2,205.6c-1.3-1.7-2.5-3.5-3.8-5.2c-0.2-0.2-0.5-0.3-0.8-0.4c0.9,2,1.9,4,2.9,6c0.2,0.5,0.8,0.8,1.2,1.2c0.1,0.1,0.5,0,0.6-0.1
	c0.2-0.1,0.3-0.4,0.3-0.6C90.5,206.2,90.4,205.8,90.2,205.6z M128.3,58.4c-1.8-1.2-3.5-2.5-5.5-3.5c-2.2-1.1-4.6-1.2-7-0.6
	c-3.9,1-7.1,3.1-9.7,6.1c-0.5,0.6-0.8,1.4-0.9,2.1c-0.1,1.5,0.2,3,0.9,4.3c0.6,1.1,1.6,1.3,2.5,0.3c1.2-1.4,2.3-2.9,3.4-4.3
	c1.1-1.4,2.2-3,3.5-4.2c2.7-2.6,5.8-3,9.2-1.4c1.2,0.6,2.4,1.2,3.7,1.8C128.3,58.8,128.4,58.5,128.3,58.4z M128.4,59.2
	C128.4,59.2,128.4,59.2,128.4,59.2L128.4,59.2C128.4,59.2,128.4,59.2,128.4,59.2z M128.4,59.2C128.4,59.2,128.4,59.2,128.4,59.2
	C128.4,59.2,128.4,59.2,128.4,59.2L128.4,59.2z M128.3,58.4c-1.8-1.2-3.5-2.5-5.5-3.5c-2.2-1.1-4.6-1.2-7-0.6
	c-3.9,1-7.1,3.1-9.7,6.1c-0.5,0.6-0.8,1.4-0.9,2.1c-0.1,1.5,0.2,3,0.9,4.3c0.6,1.1,1.6,1.3,2.5,0.3c1.2-1.4,2.3-2.9,3.4-4.3
	c1.1-1.4,2.2-3,3.5-4.2c2.7-2.6,5.8-3,9.2-1.4c1.2,0.6,2.4,1.2,3.7,1.8C128.3,58.8,128.4,58.5,128.3,58.4z M66.6,50.8
	c-1.7-1.3-3.7-1.9-5.8-1.2c-3.6,1-6,3.4-7.2,6.8c-1.8,5.2-0.7,10.1,2.6,14.3c3.7,4.7,9.2,4.2,12.1-1c1.6-2.8,2.5-5.9,2.5-8.9
	C70.8,56.7,69.8,53.3,66.6,50.8z M59,61.6c-0.3,0.3-0.8,0.5-1.2,0.7c-1.3,0.5-2.6,0-3-1.4c-0.2-0.8-0.3-1.6-0.3-2.4
	c0-2.1,0.9-4,2.3-5.6c0.5-0.6,1.3-1,2-1.1c2-0.5,3.4,0.8,3.4,3l0,0C61.9,57.3,61,59.7,59,61.6z M90.2,205.6
	c-1.3-1.7-2.5-3.5-3.8-5.2c-0.2-0.2-0.5-0.3-0.8-0.4c0.9,2,1.9,4,2.9,6c0.2,0.5,0.8,0.8,1.2,1.2c0.1,0.1,0.5,0,0.6-0.1
	c0.2-0.1,0.3-0.4,0.3-0.6C90.5,206.2,90.4,205.8,90.2,205.6z M85.6,199.9L85.6,199.9L85.6,199.9c0,0.1,0,0.1,0,0.1
	C85.6,200,85.6,199.9,85.6,199.9L85.6,199.9z M82.3,204c-4.2-5.3-6.8-11.1-6.4-18c0-0.4,0.2-0.9-0.6-1.3c-1.5,0.5-1.7,2.7-3.6,3.7
	c-0.1-1.9,0.1-3.5,0.4-5c0.4-1.8,0.7-3.7,1.1-5.5c-0.3,0.4-0.7,0.7-0.9,1.1c-1.1,2.7-1.8,5.5-2.1,8.3c-0.1,1.4-0.2,2.7-0.2,4.1
	c0,0.5,0.2,1.1,1,1.2c1-0.5,1.1-1.6,1.5-2.5c0.5-0.8,0.6-2,1.9-2.4c0.2,1.6,0.4,3.2,0.7,4.8c0.8,4.5,2.6,8.6,5.1,12.3
	c0.4,0.6,1.1,1.2,1.7,1.7c0.2,0.1,0.7,0,0.9-0.2s0.3-0.7,0.2-0.9C83.1,204.8,82.7,204.4,82.3,204z M74.2,175.8
	c-0.1,0.1-0.1,0.1-0.2,0.2c0,0,0,0,0,0c0,0,0,0.1,0,0.1c0,0,0.1,0,0.1-0.1C74.1,176,74.1,175.9,74.2,175.8z M74,176.2
	c-0.5,0.3-0.6,0.8-0.5,1.4C74,177.2,73.9,176.7,74,176.2z M73.4,177.6c0,0,0-0.1,0-0.1C73.4,177.5,73.3,177.6,73.4,177.6
	c-0.1,0-0.1,0.1-0.1,0.1C73.3,177.7,73.4,177.7,73.4,177.6L73.4,177.6z M25,308.7c0.7,0.1,1.1-0.1,1.2-1.1
	C25.7,308,25.4,308.3,25,308.7z M25,308.7C25,308.7,25,308.7,25,308.7C25,308.7,25,308.7,25,308.7L25,308.7
	C25,308.7,25,308.7,25,308.7C25,308.7,25,308.6,25,308.7L25,308.7z M-11.6-14.8v354.9h209.7V-14.8H-11.6z M156.6,320.2
	c-0.7-4.9-2-9.3-6.9-12.3c4.2,6,4.9,8.2,3.6,12.4c-2.8,0.4-5.6,0.1-8.5-0.2c-0.1-0.7-0.3-1.2-0.3-1.8c-0.4-2.8-1.5-5.3-3.3-7.5
	c-0.3-0.4-0.5-1-1.4-0.5c2,2.9,2.6,6,2,9.5c-0.8,0.1-1.5,0.2-2.1,0.2c-5.1-0.1-10.1-0.2-15.2-0.3c-0.3,0-0.6-0.2-1-0.4
	c-0.2-1.6-0.3-3.2-0.7-4.8c-0.4-1.4-1-2.8-1.8-4.1c-0.8-1.4-1.8-2.6-2.9-4c1.4-1.5,3-2.6,4.8-3.4c4-1.9,8.1-3.2,12.5-3.6
	c5.5-0.6,10.8,0.3,15.6,3c4.6,2.6,7.9,6.3,9.4,11.4c0.6,2.1,1,4.2,1.5,6.5C160.2,320.3,157.4,320.4,156.6,320.2z M33.7,319.8
	c-0.6-2.9,0-5.5,1.1-7.9c0.2-0.4,0.3-0.9,0.6-2c-2.5,2.5-3.6,5-4.2,7.8c-0.2,0.9-0.5,1.7-0.7,2.6c-2.9,0-5.7,0.5-8.5,0
	c-1-3.5-0.2-6.5,1.6-9.3c0.5-0.7,1.5-1.1,1.3-2.2c-0.5,0.2-1,0.4-1.4,0.8c-2.2,2.2-3.4,4.9-4.1,7.8c-0.2,1-0.4,2-0.6,3.1
	c-0.6,0.1-3.8-0.4-5-0.4c0-0.1,0-0.2,0-0.2c0-0.3,0-0.7,0-1c0.7-5,2.4-9.6,6.2-13.1c5-4.7,11.1-6.5,17.7-6.4
	c5.5,0.1,10.7,1.7,15.5,4.2c1.8,0.9,2.3,1.4,3.9,3.4c-3.4,3.5-5.2,7.7-5.2,12.8c-3.2,0.1-6.2,0.2-9.1,0.2
	C39.8,319.8,36.8,320.4,33.7,319.8z M4.5,235.6c-0.3-3.5-0.4-6.9,0.4-10.3c2.3-10.6,10.1-14.2,17-14.2c4.2,0,8.3,0.5,12.2,1.8
	c1.6,0.5,3.2,1.3,4.6,2.3c6,3.9,10.7,9,14.5,15c1.8,2.8,3.4,5.7,4.1,9c0.4,1.8,1,3.5,1.5,5.3c3.1,12.1,2.9,24.1-1.4,35.9
	c-1.3,3.6-3.1,6.9-5.5,9.9c-2.3,2.8-5.1,5-8.5,6.3c-1,0.4-2.2,0.8-3.3,0.6c-3.4-0.4-6.9-0.5-10.3-0.2c-0.3,0-0.7-0.1-1.1-0.1l0,0
	c-0.5-0.8-1.1-1.6-1.7-2.5c-7.5-12.3-13.8-25.2-18.2-38.9C6.6,249,5.1,242.4,4.5,235.6z M11,20.1C19.8,13.1,29.5,7.4,40.4,4
	c2.1-0.7,4.1-1.4,6.2-2.1c0.4-0.1,0.9-0.2,1.5-0.4c0.1,0.6,0.3,1.1,0.2,1.6C48.2,4,48,4.7,47.7,5.5c-5.8,16.2-12.7,32-21.8,46.8
	c-2.7,4.4-5.6,8.7-9,12.6c-0.8,0.9-1.7,1.8-2.7,2.9c-0.7-0.7-1.4-1.2-1.7-1.8c-1.2-2.4-2.3-4.8-3.2-7.2c-1.6-4.4-2.6-9-3-13.7
	c-0.1-0.9-0.2-1.8-0.8-2.5c0.1-0.5,0.4-1.1,0.3-1.6C5.4,35.6,6.1,30.3,7,25.1c0.2-0.9,0.6-1.7,1.2-2.4C9,21.8,10,20.9,11,20.1z
	 M126.5,1.5c1.4,0.4,2.5,0.6,3.5,0.9c3.1,1.1,6.3,2.2,9.4,3.4c9.4,3.4,17.6,8.9,25.4,15c1.9,1.5,2.9,3.3,3.3,5.8
	c1.1,6.2,1.2,12.3,0.5,18.5c-0.7,6.8-2.4,13.3-5.5,19.4c-0.6,1.1-1,2.4-2.5,2.9c-0.5-0.5-1.2-0.9-1.7-1.5c-2.9-3.1-5.4-6.6-7.7-10.1
	c-4.9-7.4-9.1-15.2-12.9-23.1c-4-8.5-7.6-17.2-10.8-26.1c-0.4-1.1-0.8-2.2-1-3.3C126.4,2.9,126.5,2.3,126.5,1.5L126.5,1.5z
	 M103.6,300.8c0,0.5-0.1,1.1-0.2,1.7c-1.2,0.3-2.2,0.6-3.1,0.9c-1,0.3-1.9,0.7-2.9,1.2c-0.9,0.5-1.8,1-2.7,1.6
	c-0.9,0.7-1.8,1.4-2.6,2.2c-0.7,0.7-1.3,1.6-2,2.4c-0.6,0.7-0.7,1.9-1.9,2.3c-0.1-0.5-0.3-0.8-0.3-1.2c0.1-2.1,0.3-4.1,0.3-6.2
	c-0.1-10.1,0.5-20.2,1.4-30.3c0.6-7.2,1.1-14.5,1.6-21.7c0.6-8.5,1.2-17,2.5-25.4c0.1-0.5-0.1-1-0.2-1.8c-3.3,1.8-6.6,1.4-9.9,1
	c-0.1,0.4-0.3,0.6-0.3,0.8c0.4,5.8,0.9,11.7,1.3,17.5c0.4,6.2,0.8,12.4,1.1,18.6c0.4,8.5,0.8,17,1,25.5c0.2,7,0.3,14,0.5,21
	c0,0.6,0.3,1.4-0.7,1.7c-1.6-2.5-3.4-4.9-5.9-6.7c-2.5-1.9-5.5-2.8-8.6-3.7c0-1.1-0.1-2.1-0.1-3.1c0-13.8-1.9-27.3-5.3-40.6
	c-4.8-19.2-11.3-37.9-17.5-56.7c-0.1-0.4,0-1-1-0.9c-0.6,0.8-1.1,1.8-1.8,2.7c-1.2,1.5-2.3,3.2-3.7,4.5c-3.1,2.8-6.6,3.4-10.4,1.8
	c-0.6-1.3-0.4-2.4-0.2-3.5c0.8-5.1,1.6-10.2,2.6-15.3c1.7-9.5,4-18.9,8-27.8c2.8-6.3,6-12.4,9.5-18.4c0.5-0.9,2.1-3.8,3.1-5.5
	c0.4,0.1,0.9,0.3,1.3,0.5c4.6,3.8,9.8,6.4,15.4,8.3c0.5,0.2,0.9,0.6,1.4,0.9c-0.2,0.8-0.5,1.4-0.6,2.1c-0.2,1.4-0.7,2.7-0.6,4.1
	c0.6,8.3,6.3,15.4,16.2,14.5c8.6-0.8,14.8-9.7,12.4-18c-0.2-0.9-0.4-1.7-0.6-2.5c3.4-1.4,6.6-2.6,9.7-4.2c3.1-1.6,6-3.7,9.1-5.7
	c0.3,0.2,0.6,0.5,0.9,0.8c1,1.3,2.1,2.5,2.9,3.9c6.3,10.5,11.8,21.3,15,33.2c2.6,9.6,4,19.4,5.6,29.1c0.2,1.1,0.3,2.3-0.3,3.5
	c-3.5,1.3-6.9,0.8-9.9-1.6c-1.8-1.5-3.1-3.4-4.4-5.3c-0.5-0.8-1.1-1.7-1.9-2.8c-0.4,1-0.7,1.5-0.9,2.2c-4.5,14.4-9.6,28.5-13.6,43
	c-3.1,11.2-6.1,22.4-7.5,34C104,286.8,103.4,293.7,103.6,300.8z M75.4,116.9c0.2-1,0.7-2,1.2-2.9c0.8-1.4,1.9-2.3,3.6-2.3
	c1.9,0,3.8-0.7,6-0.3c0.5,3.1,0.9,6,1.4,9c1.3-2.9,0.5-6.1,1.8-9.1l0,0c2.4,0,4.7,0.2,6.9,0.9c1.4,0.4,2.5,1.3,2.9,2.7
	c0.5,1.8,1.2,3.6,1.1,5.3c-0.2,4.4-1,8.6-3.3,12.5c-2,3.5-5.1,5.6-9.1,6.1c-0.9,0.1-1.9,0.1-2.7-0.2c-2.5-0.9-4.8-2.2-6.3-4.5
	C75.4,129,74,123.2,75.4,116.9z M71.5,107.4c-3.2-3.7-4.9-7.9-6.4-12.6c0.7,0.1,1.1,0,1.5,0.1c6.9,3.3,14.4,3.9,21.9,3.9
	c3.9,0,7.8-0.3,11.6-1.2c2.3-0.6,4.6-1.4,6.9-2.1c0.7-0.2,1.4-0.5,2.3-0.8c0.3,1.2-0.2,2-0.5,2.8c-1,2.8-2.2,5.5-4,8
	c-0.4,0.6-1,1.1-1.7,1.8c-0.6-0.4-1.1-0.7-1.5-1.1c-0.7-0.8-1.3-1.6-1.9-2.5c-2.2-3.2-2.2-3.3-5.8-3c-4.7,0.4-9.4,0.4-14.1-0.1
	c-2.1-0.2-3.5,0.4-4.5,2.3C74.5,104.6,73.6,106.2,71.5,107.4z M81.1,145.1c6.5-3,11.8-1.8,16.2,4.4c1.2,1.6,1.6,3.5,1.5,5.4l0,0
	c-0.1,8.7-8.7,14.6-16.5,11.3c-4.4-1.8-6.9-5.2-7.3-10.2C74.5,150.7,76.7,147.1,81.1,145.1z M128,26.3c1,0.6,1.8,1.4,2.3,2.5
	c2.6,5.2,5.4,10.4,8,15.7c2.3,4.7,3.8,9.6,5.2,14.6c2.3,8.5,3.6,17.1,3.1,25.9c-0.3,5.3-1.4,10.5-3.1,15.5
	c-1.5,4.3-3.9,8.1-7.1,11.3c-4.8,4.8-9.9,9.2-15.8,12.7c-3.6,2.1-7.1,4.1-11.1,5.4c-3,1-6,2.4-8.9,3.7c-0.6,0.2-1.2,0.7-1.9,0.2l0,0
	c0.7-2.3,1.5-4.5,2.2-6.8c0.2-0.6,0.6-1.2,1-1.8c5.6-6.8,8.9-14.7,11.3-23.1c1-3.5,1.5-7.2,2.3-10.8c0.3-1.4,0.9-2.8,1.2-4.3
	c0.1-0.3-0.2-0.8-0.4-1.1c0-0.1-0.7,0.1-0.8,0.3c-2.6,4.9-7.2,6.9-12,8.7c-3.4,1.2-6.9,1.9-10.4,2.4c-1.2,0.1-2.5,0-3.8,0
	c-1-0.9-0.7-2.1-0.7-3.4c2.2-0.9,3-2.8,3.7-5c1.3-4.4,4-6,8.6-5.5c1.4,0.1,2.7,0.4,4,0.5c1.5-2.5,1.7-3.5,1.4-7.1
	c-0.6-0.2-1.3-0.6-2.1-0.8c-3.9-0.9-7.9-1.5-12-1.4c-3.3,0.1-6.7,0.1-10,0c-4.1-0.1-8,0.7-11.9,1.5c-0.5,0.1-1,0.4-1.6,0.7
	c-0.6,2.5,0,4.7,1,7.1c0.8-0.1,1.5-0.1,2.1-0.2c1.1-0.1,2.3-0.4,3.4-0.4c3.4-0.1,6,1.6,7.2,4.8c0.1,0.3,0.2,0.6,0.3,1
	c0.7,2,1.8,3.7,3.5,5v3.1c-0.9,0.1-1.6,0.3-2.4,0.3c-6.3-0.4-12.2-1.9-17.8-4.9c-2.6-1.4-4.8-3.1-6.2-5.8c-0.2-0.4-0.8-0.7-1.4-1.2
	c-0.1,0.8-0.3,1.4-0.1,1.7c0.9,1.9,1.1,4,1.4,6c1.4,7.7,3.6,15.2,7.1,22.3c1.7,3.4,3.6,6.7,6.1,9.6c0.7,0.8,1.2,1.7,1.4,2.7
	c0.2,1,0.6,2,0.9,3c0.3,0.9,0.7,1.8,1.3,3.2c-1.2-0.4-1.9-0.6-2.6-0.9c-8-3.2-15.9-6.8-23.2-11.4c-5.5-3.4-10.3-7.7-14.5-12.6
	c-2.3-2.8-3.8-6-5-9.4c-2.9-8.5-3.5-17.3-2.5-26.2c0.8-7.7,2.6-15.2,5.3-22.4c1.2-3.3,2.6-6.6,4.3-9.8c2.1-3.8,4.1-7.7,5.9-11.7
	c0.8-1.8,2-3,3.7-3.9c2.8-1.4,5.8-2.3,8.8-2.9c6.2-1.2,12.5-2.2,18.8-2.6c8.5-0.6,17-0.7,25.5,0.2c3.1,0.3,6.2,0.5,9.2,1
	c3.6,0.6,7.2,1.3,10.8,2C123.5,24.1,125.8,25.1,128,26.3z M74.4,311.9c0-0.1-0.1-0.3-0.1-0.4C74.3,311.6,74.3,311.7,74.4,311.9
	c-1.1,0.1-1.4,0.9-1.6,1.6c-0.6,1.7-1,3.5-1.6,5.4c-2.7,0.6-5.4,0.7-8.1,0.5c-0.9,0-1.4-0.8-1.3-1.7c0.2-1.6,0.7-3.1,1.6-4.5
	c0.5-0.8,1.1-1.7,1.5-2.6c-3,2-3.8,5.2-4.6,8.4c-1.5,0.7-3,0.4-4.3,0.5c-0.8-0.7-0.6-1.4-0.5-2c0.6-3.5,2.3-6.2,5.1-8.3
	c8.2-6.1,20.3-3.7,25.5,5.2c0.5,0.9,1,1.8,1.4,2.7c1.2,0.1,1.2-1,1.5-1.6c2.6-5.2,6.8-8.3,12.5-9.4c5-1,9.6,0.1,13.7,3.1
	c3,2.2,4.7,5.3,5.2,9c0,0.2,0,0.5-0.1,0.7c0,0.1-0.1,0.2-0.2,0.4c-0.3,0.1-0.6,0.2-0.9,0.2c-1.1,0-2.3-0.1-3.4-0.2
	c-1.3-2.3-1.1-5.2-3.7-7.3c0.8,2.6,2.4,4.6,1.3,7.1c-3,0.8-5.9,0.1-8.8-0.1c-1.1-2.2-0.9-4.9-2.7-7.1c0.1,2.5,1.3,4.6,0.4,6.8
	c-0.7,0.8-1.7,0.6-2.6,0.6c-3.8,0-7.6-0.1-11.4-0.1c-3.3,0-6.7,0.1-10,0.1c-1.5,0-3,0-4.5-0.1C72.8,316.5,73,314.1,74.4,311.9z
	 M148.7,294.2c-0.5,0.8-1,1.5-1.5,2.3c-0.1,0.2-0.3,0.3-0.5,0.5l0,0c-2.6,0-5.2,0-7.9,0c-0.7,0-1.4,0-2.1,0.2c-2,0.6-3.9,0-5.6-0.9
	c-2.7-1.3-5.1-3.1-7-5.4c-4.1-4.8-6.4-10.4-7.8-16.3c-2.1-8.6-2.1-17.3-0.5-26c0.8-4.3,2.3-8.4,3.5-12.6c0.1-0.4,0.3-0.9,0.5-1.3
	c3.9-7.3,9-13.6,15.7-18.5c3.9-2.9,8.5-4,13.2-4.7c1.7-0.2,3.4-0.2,5.2-0.2c8.8,0.2,15,5.3,16.9,13.9c0.6,2.8,0.8,5.6,0.6,8.6
	c-0.6,10.1-3.4,19.7-6.9,29.1C160.1,273.7,154.8,284.1,148.7,294.2z M128.4,59.2C128.4,59.2,128.4,59.2,128.4,59.2
	C128.4,59.2,128.4,59.2,128.4,59.2L128.4,59.2z M115.8,54.3c-3.9,1-7.1,3.1-9.7,6.1c-0.5,0.6-0.8,1.4-0.9,2.1
	c-0.1,1.5,0.2,3,0.9,4.3c0.6,1.1,1.6,1.3,2.5,0.3c1.2-1.4,2.3-2.9,3.4-4.3c1.1-1.4,2.2-3,3.5-4.2c2.7-2.6,5.8-3,9.2-1.4
	c1.2,0.6,2.4,1.2,3.7,1.8c0-0.3,0-0.6-0.1-0.7c-1.8-1.2-3.5-2.5-5.5-3.5C120.6,53.8,118.2,53.8,115.8,54.3z M86.4,200.4
	c-0.2-0.2-0.5-0.3-0.8-0.4c0.9,2,1.9,4,2.9,6c0.2,0.5,0.8,0.8,1.2,1.2c0.1,0.1,0.5,0,0.6-0.1c0.2-0.1,0.3-0.4,0.3-0.6
	c0-0.3-0.1-0.7-0.3-0.9C89,203.8,87.7,202.1,86.4,200.4z M85.6,199.9L85.6,199.9L85.6,199.9c0,0.1,0,0.1,0,0.1
	C85.6,200,85.6,199.9,85.6,199.9L85.6,199.9z M82.3,204c-4.2-5.3-6.8-11.1-6.4-18c0-0.4,0.2-0.9-0.6-1.3c-1.5,0.5-1.7,2.7-3.6,3.7
	c-0.1-1.9,0.1-3.5,0.4-5c0.4-1.8,0.7-3.7,1.1-5.5c-0.3,0.4-0.7,0.7-0.9,1.1c-1.1,2.7-1.8,5.5-2.1,8.3c-0.1,1.4-0.2,2.7-0.2,4.1
	c0,0.5,0.2,1.1,1,1.2c1-0.5,1.1-1.6,1.5-2.5c0.5-0.8,0.6-2,1.9-2.4c0.2,1.6,0.4,3.2,0.7,4.8c0.8,4.5,2.6,8.6,5.1,12.3
	c0.4,0.6,1.1,1.2,1.7,1.7c0.2,0.1,0.7,0,0.9-0.2s0.3-0.7,0.2-0.9C83.1,204.8,82.7,204.4,82.3,204z M74.2,175.8
	c-0.1,0.1-0.1,0.1-0.2,0.2c0,0,0,0,0,0c0,0,0,0.1,0,0.1c0,0,0.1,0,0.1-0.1C74.1,176,74.1,175.9,74.2,175.8z M74,176.2
	c-0.5,0.3-0.6,0.8-0.5,1.4C74,177.2,73.9,176.7,74,176.2z M73.4,177.6c0,0,0-0.1,0-0.1C73.4,177.5,73.3,177.6,73.4,177.6
	c-0.1,0-0.1,0.1-0.1,0.1C73.3,177.7,73.4,177.7,73.4,177.6L73.4,177.6z M66.6,50.8c-1.7-1.3-3.7-1.9-5.8-1.2c-3.6,1-6,3.4-7.2,6.8
	c-1.8,5.2-0.7,10.1,2.6,14.3c3.7,4.7,9.2,4.2,12.1-1c1.6-2.8,2.5-5.9,2.5-8.9C70.8,56.7,69.8,53.3,66.6,50.8z M59,61.6
	c-0.3,0.3-0.8,0.5-1.2,0.7c-1.3,0.5-2.6,0-3-1.4c-0.2-0.8-0.3-1.6-0.3-2.4c0-2.1,0.9-4,2.3-5.6c0.5-0.6,1.3-1,2-1.1
	c2-0.5,3.4,0.8,3.4,3l0,0C61.9,57.3,61,59.7,59,61.6z M26.2,307.5c-0.5,0.5-0.8,0.8-1.2,1.1C25.7,308.8,26.1,308.6,26.2,307.5z
	 M25,308.7C25,308.7,25,308.7,25,308.7C25,308.7,25,308.6,25,308.7L25,308.7C25,308.7,25,308.7,25,308.7C25,308.7,25,308.7,25,308.7
	L25,308.7z M25,308.7c0,0-0.1,0-0.1,0L25,308.7C25,308.7,25,308.7,25,308.7C25,308.7,25,308.7,25,308.7L25,308.7
	C25,308.7,25,308.7,25,308.7z M25,308.7c0.7,0.1,1.1-0.1,1.2-1.1C25.7,308,25.4,308.3,25,308.7z M73.4,177.5
	C73.4,177.5,73.3,177.6,73.4,177.5c-0.1,0.1-0.1,0.2-0.1,0.2c0,0,0.1-0.1,0.1-0.1l0,0C73.4,177.6,73.4,177.6,73.4,177.5z
	 M73.4,177.5c0.5-0.3,0.5-0.8,0.5-1.4C73.4,176.5,73.3,177,73.4,177.5z M74,176C74,176,74,176,74,176c0,0,0,0.1,0,0.1
	C74,176.1,74,176.1,74,176c0.1,0,0.2-0.1,0.2-0.2C74.1,175.9,74,175.9,74,176z M83.3,205.3c-0.2-0.5-0.6-1-1-1.4
	c-4.2-5.3-6.8-11.1-6.4-18c0-0.4,0.2-0.9-0.6-1.3c-1.5,0.5-1.7,2.7-3.6,3.7c-0.1-1.9,0.1-3.5,0.4-5c0.4-1.8,0.7-3.7,1.1-5.5
	c-0.3,0.4-0.7,0.7-0.9,1.1c-1.1,2.7-1.8,5.5-2.1,8.3c-0.1,1.4-0.2,2.7-0.2,4.1c0,0.5,0.2,1.1,1,1.2c1-0.5,1.1-1.6,1.5-2.5
	c0.5-0.8,0.6-2,1.9-2.4c0.2,1.6,0.4,3.2,0.7,4.8c0.8,4.5,2.6,8.6,5.1,12.3c0.4,0.6,1.1,1.2,1.7,1.7c0.2,0.1,0.7,0,0.9-0.2
	S83.4,205.6,83.3,205.3z M85.6,199.9L85.6,199.9L85.6,199.9L85.6,199.9c0,0.1,0,0.1,0,0.1C85.6,200,85.6,199.9,85.6,199.9z
	 M90.2,205.6c-1.3-1.7-2.5-3.5-3.8-5.2c-0.2-0.2-0.5-0.3-0.8-0.4c0.9,2,1.9,4,2.9,6c0.2,0.5,0.8,0.8,1.2,1.2c0.1,0.1,0.5,0,0.6-0.1
	c0.2-0.1,0.3-0.4,0.3-0.6C90.5,206.2,90.4,205.8,90.2,205.6z M66.6,50.8c-1.7-1.3-3.7-1.9-5.8-1.2c-3.6,1-6,3.4-7.2,6.8
	c-1.8,5.2-0.7,10.1,2.6,14.3c3.7,4.7,9.2,4.2,12.1-1c1.6-2.8,2.5-5.9,2.5-8.9C70.8,56.7,69.8,53.3,66.6,50.8z M59,61.6
	c-0.3,0.3-0.8,0.5-1.2,0.7c-1.3,0.5-2.6,0-3-1.4c-0.2-0.8-0.3-1.6-0.3-2.4c0-2.1,0.9-4,2.3-5.6c0.5-0.6,1.3-1,2-1.1
	c2-0.5,3.4,0.8,3.4,3l0,0C61.9,57.3,61,59.7,59,61.6z M128.3,58.4c-1.8-1.2-3.5-2.5-5.5-3.5c-2.2-1.1-4.6-1.2-7-0.6
	c-3.9,1-7.1,3.1-9.7,6.1c-0.5,0.6-0.8,1.4-0.9,2.1c-0.1,1.5,0.2,3,0.9,4.3c0.6,1.1,1.6,1.3,2.5,0.3c1.2-1.4,2.3-2.9,3.4-4.3
	c1.1-1.4,2.2-3,3.5-4.2c2.7-2.6,5.8-3,9.2-1.4c1.2,0.6,2.4,1.2,3.7,1.8C128.3,58.8,128.4,58.5,128.3,58.4z M128.4,59.2
	C128.4,59.2,128.4,59.2,128.4,59.2L128.4,59.2C128.4,59.2,128.4,59.2,128.4,59.2z M128.4,59.2C128.4,59.2,128.4,59.2,128.4,59.2
	L128.4,59.2C128.4,59.2,128.4,59.2,128.4,59.2z M128.3,58.4c-1.8-1.2-3.5-2.5-5.5-3.5c-2.2-1.1-4.6-1.2-7-0.6
	c-3.9,1-7.1,3.1-9.7,6.1c-0.5,0.6-0.8,1.4-0.9,2.1c-0.1,1.5,0.2,3,0.9,4.3c0.6,1.1,1.6,1.3,2.5,0.3c1.2-1.4,2.3-2.9,3.4-4.3
	c1.1-1.4,2.2-3,3.5-4.2c2.7-2.6,5.8-3,9.2-1.4c1.2,0.6,2.4,1.2,3.7,1.8C128.3,58.8,128.4,58.5,128.3,58.4z M90.2,205.6
	c-1.3-1.7-2.5-3.5-3.8-5.2c-0.2-0.2-0.5-0.3-0.8-0.4c0.9,2,1.9,4,2.9,6c0.2,0.5,0.8,0.8,1.2,1.2c0.1,0.1,0.5,0,0.6-0.1
	c0.2-0.1,0.3-0.4,0.3-0.6C90.5,206.2,90.4,205.8,90.2,205.6z M85.6,199.9L85.6,199.9L85.6,199.9L85.6,199.9c0,0.1,0,0.1,0,0.1
	C85.6,200,85.6,199.9,85.6,199.9z M83.3,205.3c-0.2-0.5-0.6-1-1-1.4c-4.2-5.3-6.8-11.1-6.4-18c0-0.4,0.2-0.9-0.6-1.3
	c-1.5,0.5-1.7,2.7-3.6,3.7c-0.1-1.9,0.1-3.5,0.4-5c0.4-1.8,0.7-3.7,1.1-5.5c-0.3,0.4-0.7,0.7-0.9,1.1c-1.1,2.7-1.8,5.5-2.1,8.3
	c-0.1,1.4-0.2,2.7-0.2,4.1c0,0.5,0.2,1.1,1,1.2c1-0.5,1.1-1.6,1.5-2.5c0.5-0.8,0.6-2,1.9-2.4c0.2,1.6,0.4,3.2,0.7,4.8
	c0.8,4.5,2.6,8.6,5.1,12.3c0.4,0.6,1.1,1.2,1.7,1.7c0.2,0.1,0.7,0,0.9-0.2S83.4,205.6,83.3,205.3z M74,176C74,176,74,176,74,176
	c0,0,0,0.1,0,0.1C74,176.1,74,176.1,74,176c0.1,0,0.2-0.1,0.2-0.2C74.1,175.9,74,175.9,74,176z M73.4,177.5c0.5-0.3,0.5-0.8,0.5-1.4
	C73.4,176.5,73.3,177,73.4,177.5z M73.4,177.5C73.4,177.5,73.3,177.6,73.4,177.5c-0.1,0.1-0.1,0.2-0.1,0.2c0,0,0.1-0.1,0.1-0.1l0,0
	C73.4,177.6,73.4,177.6,73.4,177.5z M66.6,50.8c-1.7-1.3-3.7-1.9-5.8-1.2c-3.6,1-6,3.4-7.2,6.8c-1.8,5.2-0.7,10.1,2.6,14.3
	c3.7,4.7,9.2,4.2,12.1-1c1.6-2.8,2.5-5.9,2.5-8.9C70.8,56.7,69.8,53.3,66.6,50.8z M59,61.6c-0.3,0.3-0.8,0.5-1.2,0.7
	c-1.3,0.5-2.6,0-3-1.4c-0.2-0.8-0.3-1.6-0.3-2.4c0-2.1,0.9-4,2.3-5.6c0.5-0.6,1.3-1,2-1.1c2-0.5,3.4,0.8,3.4,3l0,0
	C61.9,57.3,61,59.7,59,61.6z M25,308.7c0.7,0.1,1.1-0.1,1.2-1.1C25.7,308,25.4,308.3,25,308.7z M25,308.7c0,0-0.1,0-0.1,0L25,308.7
	C25,308.7,25,308.7,25,308.7C25,308.7,25,308.7,25,308.7L25,308.7C25,308.7,25,308.7,25,308.7z M25,308.7c0,0-0.1,0-0.1,0L25,308.7
	C25,308.7,25,308.7,25,308.7C25,308.7,25,308.7,25,308.7L25,308.7C25,308.7,25,308.7,25,308.7z M25,308.7c0.7,0.1,1.1-0.1,1.2-1.1
	C25.7,308,25.4,308.3,25,308.7z M73.4,177.5C73.4,177.5,73.3,177.6,73.4,177.5c-0.1,0.1-0.1,0.2-0.1,0.2c0,0,0.1-0.1,0.1-0.1l0,0
	C73.4,177.6,73.4,177.6,73.4,177.5z M73.4,177.5c0.5-0.3,0.5-0.8,0.5-1.4C73.4,176.5,73.3,177,73.4,177.5z M74,176
	C74,176,74,176,74,176c0,0,0,0.1,0,0.1C74,176.1,74,176.1,74,176c0.1,0,0.2-0.1,0.2-0.2C74.1,175.9,74,175.9,74,176z M83.3,205.3
	c-0.2-0.5-0.6-1-1-1.4c-4.2-5.3-6.8-11.1-6.4-18c0-0.4,0.2-0.9-0.6-1.3c-1.5,0.5-1.7,2.7-3.6,3.7c-0.1-1.9,0.1-3.5,0.4-5
	c0.4-1.8,0.7-3.7,1.1-5.5c-0.3,0.4-0.7,0.7-0.9,1.1c-1.1,2.7-1.8,5.5-2.1,8.3c-0.1,1.4-0.2,2.7-0.2,4.1c0,0.5,0.2,1.1,1,1.2
	c1-0.5,1.1-1.6,1.5-2.5c0.5-0.8,0.6-2,1.9-2.4c0.2,1.6,0.4,3.2,0.7,4.8c0.8,4.5,2.6,8.6,5.1,12.3c0.4,0.6,1.1,1.2,1.7,1.7
	c0.2,0.1,0.7,0,0.9-0.2S83.4,205.6,83.3,205.3z M85.6,199.9L85.6,199.9L85.6,199.9L85.6,199.9c0,0.1,0,0.1,0,0.1
	C85.6,200,85.6,199.9,85.6,199.9z M90.2,205.6c-1.3-1.7-2.5-3.5-3.8-5.2c-0.2-0.2-0.5-0.3-0.8-0.4c0.9,2,1.9,4,2.9,6
	c0.2,0.5,0.8,0.8,1.2,1.2c0.1,0.1,0.5,0,0.6-0.1c0.2-0.1,0.3-0.4,0.3-0.6C90.5,206.2,90.4,205.8,90.2,205.6z M66.6,50.8
	c-1.7-1.3-3.7-1.9-5.8-1.2c-3.6,1-6,3.4-7.2,6.8c-1.8,5.2-0.7,10.1,2.6,14.3c3.7,4.7,9.2,4.2,12.1-1c1.6-2.8,2.5-5.9,2.5-8.9
	C70.8,56.7,69.8,53.3,66.6,50.8z M59,61.6c-0.3,0.3-0.8,0.5-1.2,0.7c-1.3,0.5-2.6,0-3-1.4c-0.2-0.8-0.3-1.6-0.3-2.4
	c0-2.1,0.9-4,2.3-5.6c0.5-0.6,1.3-1,2-1.1c2-0.5,3.4,0.8,3.4,3l0,0C61.9,57.3,61,59.7,59,61.6z M128.3,58.4
	c-1.8-1.2-3.5-2.5-5.5-3.5c-2.2-1.1-4.6-1.2-7-0.6c-3.9,1-7.1,3.1-9.7,6.1c-0.5,0.6-0.8,1.4-0.9,2.1c-0.1,1.5,0.2,3,0.9,4.3
	c0.6,1.1,1.6,1.3,2.5,0.3c1.2-1.4,2.3-2.9,3.4-4.3c1.1-1.4,2.2-3,3.5-4.2c2.7-2.6,5.8-3,9.2-1.4c1.2,0.6,2.4,1.2,3.7,1.8
	C128.3,58.8,128.4,58.5,128.3,58.4z M128.4,59.2C128.4,59.2,128.4,59.2,128.4,59.2L128.4,59.2C128.4,59.2,128.4,59.2,128.4,59.2z
	 M128.4,59.2C128.4,59.2,128.4,59.2,128.4,59.2L128.4,59.2C128.4,59.2,128.4,59.2,128.4,59.2z M128.3,58.4c-1.8-1.2-3.5-2.5-5.5-3.5
	c-2.2-1.1-4.6-1.2-7-0.6c-3.9,1-7.1,3.1-9.7,6.1c-0.5,0.6-0.8,1.4-0.9,2.1c-0.1,1.5,0.2,3,0.9,4.3c0.6,1.1,1.6,1.3,2.5,0.3
	c1.2-1.4,2.3-2.9,3.4-4.3c1.1-1.4,2.2-3,3.5-4.2c2.7-2.6,5.8-3,9.2-1.4c1.2,0.6,2.4,1.2,3.7,1.8C128.3,58.8,128.4,58.5,128.3,58.4z
	 M90.2,205.6c-1.3-1.7-2.5-3.5-3.8-5.2c-0.2-0.2-0.5-0.3-0.8-0.4c0.9,2,1.9,4,2.9,6c0.2,0.5,0.8,0.8,1.2,1.2c0.1,0.1,0.5,0,0.6-0.1
	c0.2-0.1,0.3-0.4,0.3-0.6C90.5,206.2,90.4,205.8,90.2,205.6z M85.6,199.9L85.6,199.9L85.6,199.9L85.6,199.9c0,0.1,0,0.1,0,0.1
	C85.6,200,85.6,199.9,85.6,199.9z M83.3,205.3c-0.2-0.5-0.6-1-1-1.4c-4.2-5.3-6.8-11.1-6.4-18c0-0.4,0.2-0.9-0.6-1.3
	c-1.5,0.5-1.7,2.7-3.6,3.7c-0.1-1.9,0.1-3.5,0.4-5c0.4-1.8,0.7-3.7,1.1-5.5c-0.3,0.4-0.7,0.7-0.9,1.1c-1.1,2.7-1.8,5.5-2.1,8.3
	c-0.1,1.4-0.2,2.7-0.2,4.1c0,0.5,0.2,1.1,1,1.2c1-0.5,1.1-1.6,1.5-2.5c0.5-0.8,0.6-2,1.9-2.4c0.2,1.6,0.4,3.2,0.7,4.8
	c0.8,4.5,2.6,8.6,5.1,12.3c0.4,0.6,1.1,1.2,1.7,1.7c0.2,0.1,0.7,0,0.9-0.2S83.4,205.6,83.3,205.3z M74,176C74,176,74,176,74,176
	c0,0,0,0.1,0,0.1C74,176.1,74,176.1,74,176c0.1,0,0.2-0.1,0.2-0.2C74.1,175.9,74,175.9,74,176z M73.4,177.5c0.5-0.3,0.5-0.8,0.5-1.4
	C73.4,176.5,73.3,177,73.4,177.5z M73.4,177.5C73.4,177.5,73.3,177.6,73.4,177.5c-0.1,0.1-0.1,0.2-0.1,0.2c0,0,0.1-0.1,0.1-0.1l0,0
	C73.4,177.6,73.4,177.6,73.4,177.5z M66.6,50.8c-1.7-1.3-3.7-1.9-5.8-1.2c-3.6,1-6,3.4-7.2,6.8c-1.8,5.2-0.7,10.1,2.6,14.3
	c3.7,4.7,9.2,4.2,12.1-1c1.6-2.8,2.5-5.9,2.5-8.9C70.8,56.7,69.8,53.3,66.6,50.8z M59,61.6c-0.3,0.3-0.8,0.5-1.2,0.7
	c-1.3,0.5-2.6,0-3-1.4c-0.2-0.8-0.3-1.6-0.3-2.4c0-2.1,0.9-4,2.3-5.6c0.5-0.6,1.3-1,2-1.1c2-0.5,3.4,0.8,3.4,3l0,0
	C61.9,57.3,61,59.7,59,61.6z M25,308.7c0.7,0.1,1.1-0.1,1.2-1.1C25.7,308,25.4,308.3,25,308.7z M25,308.7c0,0-0.1,0-0.1,0L25,308.7
	C25,308.7,25,308.7,25,308.7C25,308.7,25,308.7,25,308.7L25,308.7C25,308.7,25,308.7,25,308.7z M25,308.7c0,0-0.1,0-0.1,0L25,308.7
	C25,308.7,25,308.7,25,308.7C25,308.7,25,308.7,25,308.7L25,308.7C25,308.7,25,308.7,25,308.7z M25,308.7c0.7,0.1,1.1-0.1,1.2-1.1
	C25.7,308,25.4,308.3,25,308.7z M73.4,177.5C73.4,177.5,73.3,177.6,73.4,177.5c-0.1,0.1-0.1,0.2-0.1,0.2c0,0,0.1-0.1,0.1-0.1l0,0
	C73.4,177.6,73.4,177.6,73.4,177.5z M73.4,177.5c0.5-0.3,0.5-0.8,0.5-1.4C73.4,176.5,73.3,177,73.4,177.5z M74,176
	C74,176,74,176,74,176c0,0,0,0.1,0,0.1C74,176.1,74,176.1,74,176c0.1,0,0.2-0.1,0.2-0.2C74.1,175.9,74,175.9,74,176z M83.3,205.3
	c-0.2-0.5-0.6-1-1-1.4c-4.2-5.3-6.8-11.1-6.4-18c0-0.4,0.2-0.9-0.6-1.3c-1.5,0.5-1.7,2.7-3.6,3.7c-0.1-1.9,0.1-3.5,0.4-5
	c0.4-1.8,0.7-3.7,1.1-5.5c-0.3,0.4-0.7,0.7-0.9,1.1c-1.1,2.7-1.8,5.5-2.1,8.3c-0.1,1.4-0.2,2.7-0.2,4.1c0,0.5,0.2,1.1,1,1.2
	c1-0.5,1.1-1.6,1.5-2.5c0.5-0.8,0.6-2,1.9-2.4c0.2,1.6,0.4,3.2,0.7,4.8c0.8,4.5,2.6,8.6,5.1,12.3c0.4,0.6,1.1,1.2,1.7,1.7
	c0.2,0.1,0.7,0,0.9-0.2S83.4,205.6,83.3,205.3z M85.6,199.9L85.6,199.9L85.6,199.9L85.6,199.9c0,0.1,0,0.1,0,0.1
	C85.6,200,85.6,199.9,85.6,199.9z M90.2,205.6c-1.3-1.7-2.5-3.5-3.8-5.2c-0.2-0.2-0.5-0.3-0.8-0.4c0.9,2,1.9,4,2.9,6
	c0.2,0.5,0.8,0.8,1.2,1.2c0.1,0.1,0.5,0,0.6-0.1c0.2-0.1,0.3-0.4,0.3-0.6C90.5,206.2,90.4,205.8,90.2,205.6z M66.6,50.8
	c-1.7-1.3-3.7-1.9-5.8-1.2c-3.6,1-6,3.4-7.2,6.8c-1.8,5.2-0.7,10.1,2.6,14.3c3.7,4.7,9.2,4.2,12.1-1c1.6-2.8,2.5-5.9,2.5-8.9
	C70.8,56.7,69.8,53.3,66.6,50.8z M59,61.6c-0.3,0.3-0.8,0.5-1.2,0.7c-1.3,0.5-2.6,0-3-1.4c-0.2-0.8-0.3-1.6-0.3-2.4
	c0-2.1,0.9-4,2.3-5.6c0.5-0.6,1.3-1,2-1.1c2-0.5,3.4,0.8,3.4,3l0,0C61.9,57.3,61,59.7,59,61.6z M128.3,58.4
	c-1.8-1.2-3.5-2.5-5.5-3.5c-2.2-1.1-4.6-1.2-7-0.6c-3.9,1-7.1,3.1-9.7,6.1c-0.5,0.6-0.8,1.4-0.9,2.1c-0.1,1.5,0.2,3,0.9,4.3
	c0.6,1.1,1.6,1.3,2.5,0.3c1.2-1.4,2.3-2.9,3.4-4.3c1.1-1.4,2.2-3,3.5-4.2c2.7-2.6,5.8-3,9.2-1.4c1.2,0.6,2.4,1.2,3.7,1.8
	C128.3,58.8,128.4,58.5,128.3,58.4z M128.4,59.2C128.4,59.2,128.4,59.2,128.4,59.2L128.4,59.2C128.4,59.2,128.4,59.2,128.4,59.2z
	 M128.4,59.2C128.4,59.2,128.4,59.2,128.4,59.2L128.4,59.2C128.4,59.2,128.4,59.2,128.4,59.2z M128.3,58.4c-1.8-1.2-3.5-2.5-5.5-3.5
	c-2.2-1.1-4.6-1.2-7-0.6c-3.9,1-7.1,3.1-9.7,6.1c-0.5,0.6-0.8,1.4-0.9,2.1c-0.1,1.5,0.2,3,0.9,4.3c0.6,1.1,1.6,1.3,2.5,0.3
	c1.2-1.4,2.3-2.9,3.4-4.3c1.1-1.4,2.2-3,3.5-4.2c2.7-2.6,5.8-3,9.2-1.4c1.2,0.6,2.4,1.2,3.7,1.8C128.3,58.8,128.4,58.5,128.3,58.4z
	 M90.2,205.6c-1.3-1.7-2.5-3.5-3.8-5.2c-0.2-0.2-0.5-0.3-0.8-0.4c0.9,2,1.9,4,2.9,6c0.2,0.5,0.8,0.8,1.2,1.2c0.1,0.1,0.5,0,0.6-0.1
	c0.2-0.1,0.3-0.4,0.3-0.6C90.5,206.2,90.4,205.8,90.2,205.6z M85.6,199.9L85.6,199.9L85.6,199.9L85.6,199.9c0,0.1,0,0.1,0,0.1
	C85.6,200,85.6,199.9,85.6,199.9z M83.3,205.3c-0.2-0.5-0.6-1-1-1.4c-4.2-5.3-6.8-11.1-6.4-18c0-0.4,0.2-0.9-0.6-1.3
	c-1.5,0.5-1.7,2.7-3.6,3.7c-0.1-1.9,0.1-3.5,0.4-5c0.4-1.8,0.7-3.7,1.1-5.5c-0.3,0.4-0.7,0.7-0.9,1.1c-1.1,2.7-1.8,5.5-2.1,8.3
	c-0.1,1.4-0.2,2.7-0.2,4.1c0,0.5,0.2,1.1,1,1.2c1-0.5,1.1-1.6,1.5-2.5c0.5-0.8,0.6-2,1.9-2.4c0.2,1.6,0.4,3.2,0.7,4.8
	c0.8,4.5,2.6,8.6,5.1,12.3c0.4,0.6,1.1,1.2,1.7,1.7c0.2,0.1,0.7,0,0.9-0.2S83.4,205.6,83.3,205.3z M74,176C74,176,74,176,74,176
	c0,0,0,0.1,0,0.1C74,176.1,74,176.1,74,176c0.1,0,0.2-0.1,0.2-0.2C74.1,175.9,74,175.9,74,176z M73.4,177.5c0.5-0.3,0.5-0.8,0.5-1.4
	C73.4,176.5,73.3,177,73.4,177.5z M73.4,177.5C73.4,177.5,73.3,177.6,73.4,177.5c-0.1,0.1-0.1,0.2-0.1,0.2c0,0,0.1-0.1,0.1-0.1l0,0
	C73.4,177.6,73.4,177.6,73.4,177.5z M66.6,50.8c-1.7-1.3-3.7-1.9-5.8-1.2c-3.6,1-6,3.4-7.2,6.8c-1.8,5.2-0.7,10.1,2.6,14.3
	c3.7,4.7,9.2,4.2,12.1-1c1.6-2.8,2.5-5.9,2.5-8.9C70.8,56.7,69.8,53.3,66.6,50.8z M59,61.6c-0.3,0.3-0.8,0.5-1.2,0.7
	c-1.3,0.5-2.6,0-3-1.4c-0.2-0.8-0.3-1.6-0.3-2.4c0-2.1,0.9-4,2.3-5.6c0.5-0.6,1.3-1,2-1.1c2-0.5,3.4,0.8,3.4,3l0,0
	C61.9,57.3,61,59.7,59,61.6z M25,308.7c0.7,0.1,1.1-0.1,1.2-1.1C25.7,308,25.4,308.3,25,308.7z M25,308.7c0,0-0.1,0-0.1,0L25,308.7
	C25,308.7,25,308.7,25,308.7C25,308.7,25,308.7,25,308.7L25,308.7C25,308.7,25,308.7,25,308.7z M73.4,177.5
	C73.4,177.5,73.3,177.6,73.4,177.5c-0.1,0.1-0.1,0.2-0.1,0.2c0,0,0.1-0.1,0.1-0.1l0,0C73.4,177.6,73.4,177.6,73.4,177.5z
	 M73.4,177.5c0.5-0.3,0.5-0.8,0.5-1.4C73.4,176.5,73.3,177,73.4,177.5z M74,176C74,176,74,176,74,176c0,0,0,0.1,0,0.1
	C74,176.1,74,176.1,74,176c0.1,0,0.2-0.1,0.2-0.2C74.1,175.9,74,175.9,74,176z M83.3,205.3c-0.2-0.5-0.6-1-1-1.4
	c-4.2-5.3-6.8-11.1-6.4-18c0-0.4,0.2-0.9-0.6-1.3c-1.5,0.5-1.7,2.7-3.6,3.7c-0.1-1.9,0.1-3.5,0.4-5c0.4-1.8,0.7-3.7,1.1-5.5
	c-0.3,0.4-0.7,0.7-0.9,1.1c-1.1,2.7-1.8,5.5-2.1,8.3c-0.1,1.4-0.2,2.7-0.2,4.1c0,0.5,0.2,1.1,1,1.2c1-0.5,1.1-1.6,1.5-2.5
	c0.5-0.8,0.6-2,1.9-2.4c0.2,1.6,0.4,3.2,0.7,4.8c0.8,4.5,2.6,8.6,5.1,12.3c0.4,0.6,1.1,1.2,1.7,1.7c0.2,0.1,0.7,0,0.9-0.2
	S83.4,205.6,83.3,205.3z M85.6,199.9L85.6,199.9L85.6,199.9L85.6,199.9c0,0.1,0,0.1,0,0.1C85.6,200,85.6,199.9,85.6,199.9z
	 M90.2,205.6c-1.3-1.7-2.5-3.5-3.8-5.2c-0.2-0.2-0.5-0.3-0.8-0.4c0.9,2,1.9,4,2.9,6c0.2,0.5,0.8,0.8,1.2,1.2c0.1,0.1,0.5,0,0.6-0.1
	c0.2-0.1,0.3-0.4,0.3-0.6C90.5,206.2,90.4,205.8,90.2,205.6z M66.6,50.8c-1.7-1.3-3.7-1.9-5.8-1.2c-3.6,1-6,3.4-7.2,6.8
	c-1.8,5.2-0.7,10.1,2.6,14.3c3.7,4.7,9.2,4.2,12.1-1c1.6-2.8,2.5-5.9,2.5-8.9C70.8,56.7,69.8,53.3,66.6,50.8z M59,61.6
	c-0.3,0.3-0.8,0.5-1.2,0.7c-1.3,0.5-2.6,0-3-1.4c-0.2-0.8-0.3-1.6-0.3-2.4c0-2.1,0.9-4,2.3-5.6c0.5-0.6,1.3-1,2-1.1
	c2-0.5,3.4,0.8,3.4,3l0,0C61.9,57.3,61,59.7,59,61.6z M128.3,58.4c-1.8-1.2-3.5-2.5-5.5-3.5c-2.2-1.1-4.6-1.2-7-0.6
	c-3.9,1-7.1,3.1-9.7,6.1c-0.5,0.6-0.8,1.4-0.9,2.1c-0.1,1.5,0.2,3,0.9,4.3c0.6,1.1,1.6,1.3,2.5,0.3c1.2-1.4,2.3-2.9,3.4-4.3
	c1.1-1.4,2.2-3,3.5-4.2c2.7-2.6,5.8-3,9.2-1.4c1.2,0.6,2.4,1.2,3.7,1.8C128.3,58.8,128.4,58.5,128.3,58.4z M128.4,59.2
	C128.4,59.2,128.4,59.2,128.4,59.2L128.4,59.2C128.4,59.2,128.4,59.2,128.4,59.2z M128.4,59.2C128.4,59.2,128.4,59.2,128.4,59.2
	L128.4,59.2C128.4,59.2,128.4,59.2,128.4,59.2z M128.3,58.4c-1.8-1.2-3.5-2.5-5.5-3.5c-2.2-1.1-4.6-1.2-7-0.6
	c-3.9,1-7.1,3.1-9.7,6.1c-0.5,0.6-0.8,1.4-0.9,2.1c-0.1,1.5,0.2,3,0.9,4.3c0.6,1.1,1.6,1.3,2.5,0.3c1.2-1.4,2.3-2.9,3.4-4.3
	c1.1-1.4,2.2-3,3.5-4.2c2.7-2.6,5.8-3,9.2-1.4c1.2,0.6,2.4,1.2,3.7,1.8C128.3,58.8,128.4,58.5,128.3,58.4z M90.2,205.6
	c-1.3-1.7-2.5-3.5-3.8-5.2c-0.2-0.2-0.5-0.3-0.8-0.4c0.9,2,1.9,4,2.9,6c0.2,0.5,0.8,0.8,1.2,1.2c0.1,0.1,0.5,0,0.6-0.1
	c0.2-0.1,0.3-0.4,0.3-0.6C90.5,206.2,90.4,205.8,90.2,205.6z M85.6,199.9L85.6,199.9L85.6,199.9L85.6,199.9c0,0.1,0,0.1,0,0.1
	C85.6,200,85.6,199.9,85.6,199.9z M83.3,205.3c-0.2-0.5-0.6-1-1-1.4c-4.2-5.3-6.8-11.1-6.4-18c0-0.4,0.2-0.9-0.6-1.3
	c-1.5,0.5-1.7,2.7-3.6,3.7c-0.1-1.9,0.1-3.5,0.4-5c0.4-1.8,0.7-3.7,1.1-5.5c-0.3,0.4-0.7,0.7-0.9,1.1c-1.1,2.7-1.8,5.5-2.1,8.3
	c-0.1,1.4-0.2,2.7-0.2,4.1c0,0.5,0.2,1.1,1,1.2c1-0.5,1.1-1.6,1.5-2.5c0.5-0.8,0.6-2,1.9-2.4c0.2,1.6,0.4,3.2,0.7,4.8
	c0.8,4.5,2.6,8.6,5.1,12.3c0.4,0.6,1.1,1.2,1.7,1.7c0.2,0.1,0.7,0,0.9-0.2S83.4,205.6,83.3,205.3z M74,176C74,176,74,176,74,176
	c0,0,0,0.1,0,0.1C74,176.1,74,176.1,74,176c0.1,0,0.2-0.1,0.2-0.2C74.1,175.9,74,175.9,74,176z M73.4,177.5c0.5-0.3,0.5-0.8,0.5-1.4
	C73.4,176.5,73.3,177,73.4,177.5z M73.4,177.5C73.4,177.5,73.3,177.6,73.4,177.5c-0.1,0.1-0.1,0.2-0.1,0.2c0,0,0.1-0.1,0.1-0.1l0,0
	C73.4,177.6,73.4,177.6,73.4,177.5z M66.6,50.8c-1.7-1.3-3.7-1.9-5.8-1.2c-3.6,1-6,3.4-7.2,6.8c-1.8,5.2-0.7,10.1,2.6,14.3
	c3.7,4.7,9.2,4.2,12.1-1c1.6-2.8,2.5-5.9,2.5-8.9C70.8,56.7,69.8,53.3,66.6,50.8z M59,61.6c-0.3,0.3-0.8,0.5-1.2,0.7
	c-1.3,0.5-2.6,0-3-1.4c-0.2-0.8-0.3-1.6-0.3-2.4c0-2.1,0.9-4,2.3-5.6c0.5-0.6,1.3-1,2-1.1c2-0.5,3.4,0.8,3.4,3l0,0
	C61.9,57.3,61,59.7,59,61.6z M73.4,177.5C73.4,177.5,73.3,177.6,73.4,177.5c-0.1,0.1-0.1,0.2-0.1,0.2c0,0,0.1-0.1,0.1-0.1l0,0
	C73.4,177.6,73.4,177.6,73.4,177.5z M73.4,177.5c0.5-0.3,0.5-0.8,0.5-1.4C73.4,176.5,73.3,177,73.4,177.5z M74,176
	C74,176,74,176,74,176c0,0,0,0.1,0,0.1C74,176.1,74,176.1,74,176c0.1,0,0.2-0.1,0.2-0.2C74.1,175.9,74,175.9,74,176z M83.3,205.3
	c-0.2-0.5-0.6-1-1-1.4c-4.2-5.3-6.8-11.1-6.4-18c0-0.4,0.2-0.9-0.6-1.3c-1.5,0.5-1.7,2.7-3.6,3.7c-0.1-1.9,0.1-3.5,0.4-5
	c0.4-1.8,0.7-3.7,1.1-5.5c-0.3,0.4-0.7,0.7-0.9,1.1c-1.1,2.7-1.8,5.5-2.1,8.3c-0.1,1.4-0.2,2.7-0.2,4.1c0,0.5,0.2,1.1,1,1.2
	c1-0.5,1.1-1.6,1.5-2.5c0.5-0.8,0.6-2,1.9-2.4c0.2,1.6,0.4,3.2,0.7,4.8c0.8,4.5,2.6,8.6,5.1,12.3c0.4,0.6,1.1,1.2,1.7,1.7
	c0.2,0.1,0.7,0,0.9-0.2S83.4,205.6,83.3,205.3z M85.6,199.9L85.6,199.9L85.6,199.9L85.6,199.9c0,0.1,0,0.1,0,0.1
	C85.6,200,85.6,199.9,85.6,199.9z M90.2,205.6c-1.3-1.7-2.5-3.5-3.8-5.2c-0.2-0.2-0.5-0.3-0.8-0.4c0.9,2,1.9,4,2.9,6
	c0.2,0.5,0.8,0.8,1.2,1.2c0.1,0.1,0.5,0,0.6-0.1c0.2-0.1,0.3-0.4,0.3-0.6C90.5,206.2,90.4,205.8,90.2,205.6z M66.6,50.8
	c-1.7-1.3-3.7-1.9-5.8-1.2c-3.6,1-6,3.4-7.2,6.8c-1.8,5.2-0.7,10.1,2.6,14.3c3.7,4.7,9.2,4.2,12.1-1c1.6-2.8,2.5-5.9,2.5-8.9
	C70.8,56.7,69.8,53.3,66.6,50.8z M59,61.6c-0.3,0.3-0.8,0.5-1.2,0.7c-1.3,0.5-2.6,0-3-1.4c-0.2-0.8-0.3-1.6-0.3-2.4
	c0-2.1,0.9-4,2.3-5.6c0.5-0.6,1.3-1,2-1.1c2-0.5,3.4,0.8,3.4,3l0,0C61.9,57.3,61,59.7,59,61.6z M128.3,58.4
	c-1.8-1.2-3.5-2.5-5.5-3.5c-2.2-1.1-4.6-1.2-7-0.6c-3.9,1-7.1,3.1-9.7,6.1c-0.5,0.6-0.8,1.4-0.9,2.1c-0.1,1.5,0.2,3,0.9,4.3
	c0.6,1.1,1.6,1.3,2.5,0.3c1.2-1.4,2.3-2.9,3.4-4.3c1.1-1.4,2.2-3,3.5-4.2c2.7-2.6,5.8-3,9.2-1.4c1.2,0.6,2.4,1.2,3.7,1.8
	C128.3,58.8,128.4,58.5,128.3,58.4z M128.4,59.2C128.4,59.2,128.4,59.2,128.4,59.2L128.4,59.2C128.4,59.2,128.4,59.2,128.4,59.2z
	 M128.4,59.2C128.4,59.2,128.4,59.2,128.4,59.2L128.4,59.2C128.4,59.2,128.4,59.2,128.4,59.2z M128.3,58.4c-1.8-1.2-3.5-2.5-5.5-3.5
	c-2.2-1.1-4.6-1.2-7-0.6c-3.9,1-7.1,3.1-9.7,6.1c-0.5,0.6-0.8,1.4-0.9,2.1c-0.1,1.5,0.2,3,0.9,4.3c0.6,1.1,1.6,1.3,2.5,0.3
	c1.2-1.4,2.3-2.9,3.4-4.3c1.1-1.4,2.2-3,3.5-4.2c2.7-2.6,5.8-3,9.2-1.4c1.2,0.6,2.4,1.2,3.7,1.8C128.3,58.8,128.4,58.5,128.3,58.4z
	 M90.2,205.6c-1.3-1.7-2.5-3.5-3.8-5.2c-0.2-0.2-0.5-0.3-0.8-0.4c0.9,2,1.9,4,2.9,6c0.2,0.5,0.8,0.8,1.2,1.2c0.1,0.1,0.5,0,0.6-0.1
	c0.2-0.1,0.3-0.4,0.3-0.6C90.5,206.2,90.4,205.8,90.2,205.6z M85.6,199.9L85.6,199.9L85.6,199.9L85.6,199.9c0,0.1,0,0.1,0,0.1
	C85.6,200,85.6,199.9,85.6,199.9z M83.3,205.3c-0.2-0.5-0.6-1-1-1.4c-4.2-5.3-6.8-11.1-6.4-18c0-0.4,0.2-0.9-0.6-1.3
	c-1.5,0.5-1.7,2.7-3.6,3.7c-0.1-1.9,0.1-3.5,0.4-5c0.4-1.8,0.7-3.7,1.1-5.5c-0.3,0.4-0.7,0.7-0.9,1.1c-1.1,2.7-1.8,5.5-2.1,8.3
	c-0.1,1.4-0.2,2.7-0.2,4.1c0,0.5,0.2,1.1,1,1.2c1-0.5,1.1-1.6,1.5-2.5c0.5-0.8,0.6-2,1.9-2.4c0.2,1.6,0.4,3.2,0.7,4.8
	c0.8,4.5,2.6,8.6,5.1,12.3c0.4,0.6,1.1,1.2,1.7,1.7c0.2,0.1,0.7,0,0.9-0.2S83.4,205.6,83.3,205.3z M74,176C74,176,74,176,74,176
	c0,0,0,0.1,0,0.1C74,176.1,74,176.1,74,176c0.1,0,0.2-0.1,0.2-0.2C74.1,175.9,74,175.9,74,176z M73.4,177.5c0.5-0.3,0.5-0.8,0.5-1.4
	C73.4,176.5,73.3,177,73.4,177.5z M73.4,177.5C73.4,177.5,73.3,177.6,73.4,177.5c-0.1,0.1-0.1,0.2-0.1,0.2c0,0,0.1-0.1,0.1-0.1l0,0
	C73.4,177.6,73.4,177.6,73.4,177.5z M66.6,50.8c-1.7-1.3-3.7-1.9-5.8-1.2c-3.6,1-6,3.4-7.2,6.8c-1.8,5.2-0.7,10.1,2.6,14.3
	c3.7,4.7,9.2,4.2,12.1-1c1.6-2.8,2.5-5.9,2.5-8.9C70.8,56.7,69.8,53.3,66.6,50.8z M59,61.6c-0.3,0.3-0.8,0.5-1.2,0.7
	c-1.3,0.5-2.6,0-3-1.4c-0.2-0.8-0.3-1.6-0.3-2.4c0-2.1,0.9-4,2.3-5.6c0.5-0.6,1.3-1,2-1.1c2-0.5,3.4,0.8,3.4,3l0,0
	C61.9,57.3,61,59.7,59,61.6z M66.6,50.8c-1.7-1.3-3.7-1.9-5.8-1.2c-3.6,1-6,3.4-7.2,6.8c-1.8,5.2-0.7,10.1,2.6,14.3
	c3.7,4.7,9.2,4.2,12.1-1c1.6-2.8,2.5-5.9,2.5-8.9C70.8,56.7,69.8,53.3,66.6,50.8z M59,61.6c-0.3,0.3-0.8,0.5-1.2,0.7
	c-1.3,0.5-2.6,0-3-1.4c-0.2-0.8-0.3-1.6-0.3-2.4c0-2.1,0.9-4,2.3-5.6c0.5-0.6,1.3-1,2-1.1c2-0.5,3.4,0.8,3.4,3l0,0
	C61.9,57.3,61,59.7,59,61.6z M128.3,58.4c-1.8-1.2-3.5-2.5-5.5-3.5c-2.2-1.1-4.6-1.2-7-0.6c-3.9,1-7.1,3.1-9.7,6.1
	c-0.5,0.6-0.8,1.4-0.9,2.1c-0.1,1.5,0.2,3,0.9,4.3c0.6,1.1,1.6,1.3,2.5,0.3c1.2-1.4,2.3-2.9,3.4-4.3c1.1-1.4,2.2-3,3.5-4.2
	c2.7-2.6,5.8-3,9.2-1.4c1.2,0.6,2.4,1.2,3.7,1.8C128.3,58.8,128.4,58.5,128.3,58.4z M128.4,59.2C128.4,59.2,128.4,59.2,128.4,59.2
	L128.4,59.2C128.4,59.2,128.4,59.2,128.4,59.2z M128.4,59.2C128.4,59.2,128.4,59.2,128.4,59.2L128.4,59.2
	C128.4,59.2,128.4,59.2,128.4,59.2z M128.3,58.4c-1.8-1.2-3.5-2.5-5.5-3.5c-2.2-1.1-4.6-1.2-7-0.6c-3.9,1-7.1,3.1-9.7,6.1
	c-0.5,0.6-0.8,1.4-0.9,2.1c-0.1,1.5,0.2,3,0.9,4.3c0.6,1.1,1.6,1.3,2.5,0.3c1.2-1.4,2.3-2.9,3.4-4.3c1.1-1.4,2.2-3,3.5-4.2
	c2.7-2.6,5.8-3,9.2-1.4c1.2,0.6,2.4,1.2,3.7,1.8C128.3,58.8,128.4,58.5,128.3,58.4z M66.6,50.8c-1.7-1.3-3.7-1.9-5.8-1.2
	c-3.6,1-6,3.4-7.2,6.8c-1.8,5.2-0.7,10.1,2.6,14.3c3.7,4.7,9.2,4.2,12.1-1c1.6-2.8,2.5-5.9,2.5-8.9C70.8,56.7,69.8,53.3,66.6,50.8z
	 M59,61.6c-0.3,0.3-0.8,0.5-1.2,0.7c-1.3,0.5-2.6,0-3-1.4c-0.2-0.8-0.3-1.6-0.3-2.4c0-2.1,0.9-4,2.3-5.6c0.5-0.6,1.3-1,2-1.1
	c2-0.5,3.4,0.8,3.4,3l0,0C61.9,57.3,61,59.7,59,61.6z"/>
<path d="M25,308.7L25,308.7L25,308.7C25,308.7,25,308.7,25,308.7C25,308.7,25,308.7,25,308.7L25,308.7z M25,308.7L25,308.7L25,308.7
	C25,308.7,25,308.7,25,308.7C25,308.7,25,308.7,25,308.7L25,308.7z M25,308.7L25,308.7L25,308.7C25,308.7,25,308.7,25,308.7
	C25,308.7,25,308.7,25,308.7L25,308.7z M25,308.7L25,308.7L25,308.7C25,308.7,25,308.7,25,308.7C25,308.7,25,308.7,25,308.7
	L25,308.7z M25,308.7L25,308.7L25,308.7C25,308.7,25,308.7,25,308.7C25,308.7,25,308.7,25,308.7L25,308.7z M25,308.7L25,308.7
	L25,308.7C25,308.7,25,308.7,25,308.7C25,308.7,25,308.7,25,308.7L25,308.7z M25,308.7L25,308.7L25,308.7
	C25,308.7,25,308.7,25,308.7C25,308.7,25,308.7,25,308.7L25,308.7z M25,308.7L25,308.7L25,308.7C25,308.7,25,308.7,25,308.7
	C25,308.7,25,308.7,25,308.7L25,308.7z M174.8,223.4c-1.4-6.4-4.8-11.1-10.8-13.8c-2.8-1.2-5.7-1.9-8.7-1.6
	c-2.4,0.2-4.8,0.7-7.1,1.1c-0.9,0.1-1.8,0.3-2.6,0.4c-0.2-0.4-0.3-0.6-0.3-0.8c-0.4-6.7-1.6-13.2-2.7-19.8
	c-2.7-16.5-9.1-31.5-18.9-45.1c-1.3-1.8-2.6-3.5-3.7-5.1c0.2-2.6,0.4-5,0.4-7.4c0-2,0.6-3.5,2.5-4.5c1.3-0.7,2.5-1.7,3.7-2.5
	c3.9-2.5,7.5-5.4,10.9-8.4c4.5-4.1,7.8-9.1,9.7-14.9c2.9-8.4,3.6-17,2.5-25.9c-0.7-5.5-1.8-10.9-3.5-16.2c-0.2-0.5-0.7-1.2,0-1.8
	c2,2.6,3.8,5.2,5.8,7.7c2.1,2.6,4.2,5.2,6.9,7.1c2.2-1.1,3.5-2.9,4.6-4.8c1.8-3,2.9-6.3,3.7-9.6c1.5-5.8,1.9-11.8,2.8-17.7
	c0.5-3.7-0.1-7.3,0.2-11c0.2-3.6-1.2-6.5-3.5-9c-2.3-2.5-4.9-4.5-7.7-6.4c-7-4.6-14.5-8-22.4-10.5c-3.4-1.1-6.9-1.8-10.3-2.7
	c-1.7-0.5-2.9,0-3.9,1.4c-1.2,1.7-2.4,3.3-3.5,5.1c-2.1,3.6-3.5,7.5-4.7,11.5c-0.2,0.6-0.5,1.2-0.7,1.7c-0.4,0.1-0.5,0.2-0.6,0.2
	c-1.2-0.2-2.5-0.4-3.7-0.7c-6.9-1.3-13.9-1.8-20.9-0.3c-0.6,0.1-1.3,0-2-0.1c-4.4-0.8-8.9-1.2-13.4-0.6c-3.2,0.4-6.4,1-9.5,1.5
	C62.7,20,62,20,61.2,20c-2.1-7.4-4.6-14.6-10.3-20c-1,0.1-2,0.2-2.9,0.3C36.2,2.9,25.2,7.3,15.2,14c-2.4,1.6-4.5,3.5-6.6,5.5
	c-2.4,2.3-4,5-3.8,8.5c0,0.3-0.1,0.7-0.1,1c-0.1,4.5-0.4,8.9,0.7,13.3c0,0,0,0,0-0.1c0.4,6,1.3,11.9,3,17.6c0.9,2.9,2,5.6,3.7,8.1
	c1,1.5,2.2,2.9,4,3.8c1.9-1.5,3.5-3.1,5-4.8c2.2-2.8,4.3-5.6,6.5-8.4c0.3-0.5,0.5-1.2,1.5-1.1c-0.3,1.1-0.5,2.1-0.8,3
	c-2.1,7-3.3,14.1-3.4,21.4c-0.1,7.1,1,14,3.5,20.6c1.6,4.1,3.8,7.9,6.9,11c4.4,4.5,9.3,8.6,14.9,11.6c1.7,0.9,3.4,1.9,4.8,3.4v11
	c0,0,0,0,0,0c-0.9,1.2-2.1,3-2.4,3.3c-6,8.3-11,17.2-14.5,26.9c-3.6,9.9-5.4,20.2-6.8,30.6c-0.4,2.9-0.7,5.9-1.1,9.1
	c-1-0.2-1.9-0.3-2.8-0.5c-3-0.7-6.1-1.3-9.2-1C12,208.5,4,212,1.4,221.2c-0.6,2-1,4-1.2,6.1c-0.5,5.2,0,10.3,1,15.4
	c2,9.8,5.5,19,9.8,27.9c4,8.4,8.7,16.5,13.7,24.3c0.5,0.8,1.2,1.6,1.5,2.8c-0.7,0.4-1.3,0.7-1.9,0.9c-8.5,3.5-12.7,12.2-12.5,21.2
	c0,0.5,0.1,0.8,0.5,0.9c0,0,0,0,0,0c0.8,0.1,5.1,0.8,5.9,0.8c7.9,0.2,15.9,0.5,23.8,0.5c11.8,0.1,23.7,0.1,35.5,0.2
	c5.3,0,10.6,0,15.9,0c15.1-0.1,30.1-0.3,45.2-0.4c4,0,8.1-0.1,12.1-0.2c2.8-0.1,9-0.6,11.7-0.7c0.2,0,0.3,0,0.5,0h0
	c0.4-0.1,0.8-0.3,0.8-1c0.1-1.1,0.1-2.3-0.1-3.4c-1.1-8.5-4.8-15-13.2-18.3c-0.4-0.2-0.7-0.5-1.3-0.8c0.7-1.2,1.4-2.3,2-3.3
	c6.8-10.7,12.9-21.7,17.6-33.5c3-7.5,5.3-15.2,6.3-23.2C175.7,232.8,175.8,228,174.8,223.4z M126.5,1.5c1.4,0.4,2.5,0.6,3.5,0.9
	c3.1,1.1,6.3,2.2,9.4,3.4c9.4,3.4,17.6,8.9,25.4,15c1.9,1.5,2.9,3.3,3.3,5.8c1.1,6.2,1.2,12.3,0.5,18.5c-0.7,6.8-2.4,13.3-5.5,19.4
	c-0.6,1.1-1,2.4-2.5,2.9c-0.5-0.5-1.2-0.9-1.7-1.5c-2.9-3.1-5.4-6.6-7.7-10.1c-4.9-7.4-9.1-15.2-12.9-23.1
	c-4-8.5-7.6-17.2-10.8-26.1c-0.4-1.1-0.8-2.2-1-3.3C126.4,2.9,126.5,2.3,126.5,1.5L126.5,1.5z M25.9,52.3c-2.7,4.4-5.6,8.7-9,12.6
	c-0.8,0.9-1.7,1.8-2.7,2.9c-0.7-0.7-1.4-1.2-1.7-1.8c-1.2-2.4-2.3-4.8-3.2-7.2c-1.6-4.4-2.6-9-3-13.7c-0.1-0.9-0.2-1.8-0.8-2.5
	c0.1-0.5,0.4-1.1,0.3-1.6C5.4,35.6,6.1,30.3,7,25.1c0.2-0.9,0.6-1.7,1.2-2.4c0.8-1,1.8-1.8,2.8-2.6C19.8,13.1,29.5,7.4,40.4,4
	c2.1-0.7,4.1-1.4,6.2-2.1c0.4-0.1,0.9-0.2,1.5-0.4c0.1,0.6,0.3,1.1,0.2,1.6C48.2,4,48,4.7,47.7,5.5C41.9,21.8,35,37.5,25.9,52.3z
	 M50.6,121.8c-5.5-3.4-10.3-7.7-14.5-12.6c-2.3-2.8-3.8-6-5-9.4c-2.9-8.5-3.5-17.3-2.5-26.2c0.8-7.7,2.6-15.2,5.3-22.4
	c1.2-3.3,2.6-6.6,4.3-9.8c2.1-3.8,4.1-7.7,5.9-11.7c0.8-1.8,2-3,3.7-3.9c2.8-1.4,5.8-2.3,8.8-2.9c6.2-1.2,12.5-2.2,18.8-2.6
	c8.5-0.6,17-0.7,25.5,0.2c3.1,0.3,6.2,0.5,9.2,1c3.6,0.6,7.2,1.3,10.8,2c2.5,0.5,4.8,1.5,7,2.8c1,0.6,1.8,1.4,2.3,2.5
	c2.6,5.2,5.4,10.4,8,15.7c2.3,4.7,3.8,9.6,5.2,14.6c2.3,8.5,3.6,17.1,3.1,25.9c-0.3,5.3-1.4,10.5-3.1,15.5
	c-1.5,4.3-3.9,8.1-7.1,11.3c-4.8,4.8-9.9,9.2-15.8,12.7c-3.6,2.1-7.1,4.1-11.1,5.4c-3,1-6,2.4-8.9,3.7c-0.6,0.2-1.2,0.7-1.9,0.2l0,0
	c0.7-2.3,1.5-4.5,2.2-6.8c0.2-0.6,0.6-1.2,1-1.8c5.6-6.8,8.9-14.7,11.3-23.1c1-3.5,1.5-7.2,2.3-10.8c0.3-1.4,0.9-2.8,1.2-4.3
	c0.1-0.3-0.2-0.8-0.4-1.1c0-0.1-0.7,0.1-0.8,0.3c-2.6,4.9-7.2,6.9-12,8.7c-3.4,1.2-6.9,1.9-10.4,2.4c-1.2,0.1-2.5,0-3.8,0
	c-1-0.9-0.7-2.1-0.7-3.4c2.2-0.9,3-2.8,3.7-5c1.3-4.4,4-6,8.6-5.5c1.4,0.1,2.7,0.4,4,0.5c1.5-2.5,1.7-3.5,1.4-7.1
	c-0.6-0.2-1.3-0.6-2.1-0.8c-3.9-0.9-7.9-1.5-12-1.4c-3.3,0.1-6.7,0.1-10,0c-4.1-0.1-8,0.7-11.9,1.5c-0.5,0.1-1,0.4-1.6,0.7
	c-0.6,2.5,0,4.7,1,7.1c0.8-0.1,1.5-0.1,2.1-0.2c1.1-0.1,2.3-0.4,3.4-0.4c3.4-0.1,6,1.6,7.2,4.8c0.1,0.3,0.2,0.6,0.3,1
	c0.7,2,1.8,3.7,3.5,5v3.1c-0.9,0.1-1.6,0.3-2.4,0.3c-6.3-0.4-12.2-1.9-17.8-4.9c-2.6-1.4-4.8-3.1-6.2-5.8c-0.2-0.4-0.8-0.7-1.4-1.2
	c-0.1,0.8-0.3,1.4-0.1,1.7c0.9,1.9,1.1,4,1.4,6c1.4,7.7,3.6,15.2,7.1,22.3c1.7,3.4,3.6,6.7,6.1,9.6c0.7,0.8,1.2,1.7,1.4,2.7
	c0.2,1,0.6,2,0.9,3c0.3,0.9,0.7,1.8,1.3,3.2c-1.2-0.4-1.9-0.6-2.6-0.9C65.8,129.9,57.9,126.4,50.6,121.8z M75.4,116.9
	c0.2-1,0.7-2,1.2-2.9c0.8-1.4,1.9-2.3,3.6-2.3c1.9,0,3.8-0.7,6-0.3c0.5,3.1,0.9,6,1.4,9c1.3-2.9,0.5-6.1,1.8-9.1l0,0
	c2.4,0,4.7,0.2,6.9,0.9c1.4,0.4,2.5,1.3,2.9,2.7c0.5,1.8,1.2,3.6,1.1,5.3c-0.2,4.4-1,8.6-3.3,12.5c-2,3.5-5.1,5.6-9.1,6.1
	c-0.9,0.1-1.9,0.1-2.7-0.2c-2.5-0.9-4.8-2.2-6.3-4.5C75.4,129,74,123.2,75.4,116.9z M71.5,107.4c-3.2-3.7-4.9-7.9-6.4-12.6
	c0.7,0.1,1.1,0,1.5,0.1c6.9,3.3,14.4,3.9,21.9,3.9c3.9,0,7.8-0.3,11.6-1.2c2.3-0.6,4.6-1.4,6.9-2.1c0.7-0.2,1.4-0.5,2.3-0.8
	c0.3,1.2-0.2,2-0.5,2.8c-1,2.8-2.2,5.5-4,8c-0.4,0.6-1,1.1-1.7,1.8c-0.6-0.4-1.1-0.7-1.5-1.1c-0.7-0.8-1.3-1.6-1.9-2.5
	c-2.2-3.2-2.2-3.3-5.8-3c-4.7,0.4-9.4,0.4-14.1-0.1c-2.1-0.2-3.5,0.4-4.5,2.3C74.5,104.6,73.6,106.2,71.5,107.4z M81.1,145.1
	c6.5-3,11.8-1.8,16.2,4.4c1.2,1.6,1.6,3.5,1.5,5.4l0,0c-0.1,8.7-8.7,14.6-16.5,11.3c-4.4-1.8-6.9-5.2-7.3-10.2
	C74.5,150.7,76.7,147.1,81.1,145.1z M32.1,206.7c0.8-5.1,1.6-10.2,2.6-15.3c1.7-9.5,4-18.9,8-27.8c2.8-6.3,6-12.4,9.5-18.4
	c0.5-0.9,2.1-3.8,3.1-5.5c0.4,0.1,0.9,0.3,1.3,0.5c4.6,3.8,9.8,6.4,15.4,8.3c0.5,0.2,0.9,0.6,1.4,0.9c-0.2,0.8-0.5,1.4-0.6,2.1
	c-0.2,1.4-0.7,2.7-0.6,4.1c0.6,8.3,6.3,15.4,16.2,14.5c8.6-0.8,14.8-9.7,12.4-18c-0.2-0.9-0.4-1.7-0.6-2.5c3.4-1.4,6.6-2.6,9.7-4.2
	c3.1-1.6,6-3.7,9.1-5.7c0.3,0.2,0.6,0.5,0.9,0.8c1,1.3,2.1,2.5,2.9,3.9c6.3,10.5,11.8,21.3,15,33.2c2.6,9.6,4,19.4,5.6,29.1
	c0.2,1.1,0.3,2.3-0.3,3.5c-3.5,1.3-6.9,0.8-9.9-1.6c-1.8-1.5-3.1-3.4-4.4-5.3c-0.5-0.8-1.1-1.7-1.9-2.8c-0.4,1-0.7,1.5-0.9,2.2
	c-4.5,14.4-9.6,28.5-13.6,43c-3.1,11.2-6.1,22.4-7.5,34c-0.8,7-1.4,14-1.2,21c0,0.5-0.1,1.1-0.2,1.7c-1.2,0.3-2.2,0.6-3.1,0.9
	c-1,0.3-1.9,0.7-2.9,1.2c-0.9,0.5-1.8,1-2.7,1.6c-0.9,0.7-1.8,1.4-2.6,2.2c-0.7,0.7-1.3,1.6-2,2.4c-0.6,0.7-0.7,1.9-1.9,2.3
	c-0.1-0.5-0.3-0.8-0.3-1.2c0.1-2.1,0.3-4.1,0.3-6.2c-0.1-10.1,0.5-20.2,1.4-30.3c0.6-7.2,1.1-14.5,1.6-21.7c0.6-8.5,1.2-17,2.5-25.4
	c0.1-0.5-0.1-1-0.2-1.8c-3.3,1.8-6.6,1.4-9.9,1c-0.1,0.4-0.3,0.6-0.3,0.8c0.4,5.8,0.9,11.7,1.3,17.5c0.4,6.2,0.8,12.4,1.1,18.6
	c0.4,8.5,0.8,17,1,25.5c0.2,7,0.3,14,0.5,21c0,0.6,0.3,1.4-0.7,1.7c-1.6-2.5-3.4-4.9-5.9-6.7c-2.5-1.9-5.5-2.8-8.6-3.7
	c0-1.1-0.1-2.1-0.1-3.1c0-13.8-1.9-27.3-5.3-40.6c-4.8-19.2-11.3-37.9-17.5-56.7c-0.1-0.4,0-1-1-0.9c-0.6,0.8-1.1,1.8-1.8,2.7
	c-1.2,1.5-2.3,3.2-3.7,4.5c-3.1,2.8-6.6,3.4-10.4,1.8C31.8,208.9,32,207.8,32.1,206.7z M8.7,255.5c-2.1-6.5-3.6-13-4.2-19.8
	c-0.3-3.5-0.4-6.9,0.4-10.3c2.3-10.6,10.1-14.2,17-14.2c4.2,0,8.3,0.5,12.2,1.8c1.6,0.5,3.2,1.3,4.6,2.3c6,3.9,10.7,9,14.5,15
	c1.8,2.8,3.4,5.7,4.1,9c0.4,1.8,1,3.5,1.5,5.3c3.1,12.1,2.9,24.1-1.4,35.9c-1.3,3.6-3.1,6.9-5.5,9.9c-2.3,2.8-5.1,5-8.5,6.3
	c-1,0.4-2.2,0.8-3.3,0.6c-3.4-0.4-6.9-0.5-10.3-0.2c-0.3,0-0.7-0.1-1.1-0.1l0,0c-0.5-0.8-1.1-1.6-1.7-2.5
	C19.5,282.1,13.2,269.2,8.7,255.5z M42.9,319.8c-3-0.1-6.1,0.6-9.2-0.1c-0.6-2.9,0-5.5,1.1-7.9c0.2-0.4,0.3-0.9,0.6-2
	c-2.5,2.5-3.6,5-4.2,7.8c-0.2,0.9-0.5,1.7-0.7,2.6c-2.9,0-5.7,0.5-8.5,0c-1-3.5-0.2-6.5,1.6-9.3c0.5-0.7,1.5-1.1,1.3-2.2
	c-0.5,0.2-1,0.4-1.4,0.8c-2.2,2.2-3.4,4.9-4.1,7.8c-0.2,1-0.4,2-0.6,3.1c-0.6,0.1-3.8-0.4-5-0.4c0-0.1,0-0.2,0-0.2c0-0.3,0-0.7,0-1
	c0.7-5,2.4-9.6,6.2-13.1c5-4.7,11.1-6.5,17.7-6.4c5.5,0.1,10.7,1.7,15.5,4.2c1.8,0.9,2.3,1.4,3.9,3.4c-3.4,3.5-5.2,7.7-5.2,12.8
	C48.8,319.8,45.9,319.9,42.9,319.8z M120.2,319c0,0.1-0.1,0.2-0.2,0.4c-0.3,0.1-0.6,0.2-0.9,0.2c-1.1,0-2.3-0.1-3.4-0.2
	c-1.3-2.3-1.1-5.2-3.7-7.3c0.8,2.6,2.4,4.6,1.3,7.1c-3,0.8-5.9,0.1-8.8-0.1c-1.1-2.2-0.9-4.9-2.7-7.1c0.1,2.5,1.3,4.6,0.4,6.8
	c-0.7,0.8-1.7,0.6-2.6,0.6c-3.8,0-7.6-0.1-11.4-0.1c-3.3,0-6.7,0.1-10,0.1c-1.5,0-3,0-4.5-0.1c-0.8-2.7-0.6-5.1,0.8-7.3l-0.1,0l0,0
	h0c-1,0.1-1.3,0.9-1.5,1.6c-0.6,1.7-1,3.5-1.6,5.4c-2.7,0.6-5.4,0.7-8.1,0.5c-0.9,0-1.4-0.8-1.3-1.7c0.2-1.6,0.7-3.1,1.6-4.5
	c0.5-0.8,1.1-1.7,1.5-2.6c-3,2-3.8,5.2-4.6,8.4c-1.5,0.7-3,0.4-4.3,0.5c-0.8-0.7-0.6-1.4-0.5-2c0.6-3.5,2.3-6.2,5.1-8.3
	c8.2-6.1,20.3-3.7,25.5,5.2c0.5,0.9,1,1.8,1.4,2.7c1.2,0.1,1.2-1,1.5-1.6c2.6-5.2,6.8-8.3,12.5-9.4c5-1,9.6,0.1,13.7,3.1
	c3,2.2,4.7,5.3,5.2,9C120.3,318.5,120.2,318.8,120.2,319z M151.2,302.5c4.6,2.6,7.9,6.3,9.4,11.4c0.6,2.1,1,4.2,1.5,6.5
	c-1.8,0-4.6,0-5.4-0.1c-0.7-4.9-2-9.3-6.9-12.3c4.2,6,4.9,8.2,3.6,12.4c-2.8,0.4-5.6,0.1-8.5-0.2c-0.1-0.7-0.3-1.2-0.3-1.8
	c-0.4-2.8-1.5-5.3-3.3-7.5c-0.3-0.4-0.5-1-1.4-0.5c2,2.9,2.6,6,2,9.5c-0.8,0.1-1.5,0.2-2.1,0.2c-5.1-0.1-10.1-0.2-15.2-0.3
	c-0.3,0-0.6-0.2-1-0.4c-0.2-1.6-0.3-3.2-0.7-4.8c-0.4-1.4-1-2.8-1.8-4.1c-0.8-1.4-1.8-2.6-2.9-4c1.4-1.5,3-2.6,4.8-3.4
	c4-1.9,8.1-3.2,12.5-3.6C141.1,298.8,146.3,299.8,151.2,302.5z M171.2,233.6c-0.6,10.1-3.4,19.7-6.9,29.1
	c-4.2,11-9.4,21.5-15.5,31.5c-0.5,0.8-1,1.5-1.5,2.3c-0.1,0.2-0.3,0.3-0.5,0.5l0,0c-2.6,0-5.2,0-7.9,0c-0.7,0-1.4,0-2.1,0.2
	c-2,0.6-3.9,0-5.6-0.9c-2.7-1.3-5.1-3.1-7-5.4c-4.1-4.8-6.4-10.4-7.8-16.3c-2.1-8.6-2.1-17.3-0.5-26c0.8-4.3,2.3-8.4,3.5-12.6
	c0.1-0.4,0.3-0.9,0.5-1.3c3.9-7.3,9-13.6,15.7-18.5c3.9-2.9,8.5-4,13.2-4.7c1.7-0.2,3.4-0.2,5.2-0.2c8.8,0.2,15,5.3,16.9,13.9
	C171.2,227.9,171.3,230.7,171.2,233.6z M25,308.7L25,308.7L25,308.7C25,308.7,25,308.7,25,308.7C25,308.7,25,308.7,25,308.7
	L25,308.7z M25,308.7L25,308.7L25,308.7C25,308.7,25,308.7,25,308.7C25,308.7,25,308.7,25,308.7L25,308.7z M25,308.7L25,308.7
	L25,308.7C25,308.7,25,308.7,25,308.7C25,308.7,25,308.7,25,308.7L25,308.7z M25,308.7L25,308.7L25,308.7
	C25,308.7,25,308.7,25,308.7C25,308.7,25,308.7,25,308.7L25,308.7z M25,308.7L25,308.7L25,308.7C25,308.7,25,308.7,25,308.7
	C25,308.7,25,308.7,25,308.7L25,308.7z M25,308.7L25,308.7L25,308.7C25,308.7,25,308.7,25,308.7C25,308.7,25,308.7,25,308.7
	L25,308.7z M25,308.7L25,308.7L25,308.7C25,308.7,25,308.7,25,308.7C25,308.7,25,308.7,25,308.7L25,308.7z M54,141.6
	c0,0,0,0.1-0.1,0.1C54,141.7,54.1,141.6,54,141.6L54,141.6z M25,308.7L25,308.7L25,308.7C25,308.7,25,308.7,25,308.7
	C25,308.7,25,308.7,25,308.7L25,308.7z"/>
<path class="st1" d="M108.8,97.5c-1,2.8-2.2,5.5-4,8c-0.4,0.6-1,1.1-1.7,1.8c-0.6-0.4-1.1-0.7-1.5-1.1c-0.7-0.8-1.3-1.6-1.9-2.5
	c-2.2-3.2-2.2-3.3-5.8-3c-4.7,0.4-9.4,0.4-14.1-0.1c-2.1-0.2-3.5,0.4-4.5,2.3c-0.9,1.6-1.8,3.2-3.9,4.4c-3.2-3.7-4.9-7.9-6.4-12.6
	c0.7,0.1,1.1,0,1.5,0.1c6.9,3.3,14.4,3.9,21.9,3.9c3.9,0,7.8-0.3,11.6-1.2c2.3-0.6,4.6-1.4,6.9-2.1c0.7-0.2,1.4-0.5,2.3-0.8
	C109.6,95.9,109.1,96.7,108.8,97.5z"/>
<path class="st2" d="M100.2,120.4c-0.2,4.4-1,8.6-3.3,12.5c-2,3.5-5.1,5.6-9.1,6.1c-0.9,0.1-1.9,0.1-2.7-0.2
	c-2.5-0.9-4.8-2.2-6.3-4.5c-3.4-5.3-4.8-11.1-3.4-17.4c0.2-1,0.7-2,1.2-2.9c0.8-1.4,1.9-2.3,3.6-2.3c1.9,0,3.8-0.7,6-0.3
	c0.5,3.1,0.9,6,1.4,9c1.3-2.9,0.5-6.1,1.8-9.1l0,0c2.4,0,4.7,0.2,6.9,0.9c1.4,0.4,2.5,1.3,2.9,2.7
	C99.5,116.8,100.2,118.6,100.2,120.4z"/>
<path class="st3" d="M98.8,154.9L98.8,154.9c-0.2,8.7-8.7,14.6-16.5,11.2c-4.4-1.8-6.9-5.2-7.3-10.2c-0.4-5.3,1.8-8.8,6.1-10.8
	c6.5-3,11.8-1.8,16.2,4.4C98.4,151.1,98.9,153.1,98.8,154.9z"/>
<path d="M24.9,308.6c0,0,0.1,0,0.1,0C25,308.7,25,308.7,24.9,308.6L24.9,308.6L24.9,308.6L24.9,308.6z"/>
<path d="M26.2,307.5c0,1-0.5,1.2-1.2,1.1C25.4,308.3,25.7,308,26.2,307.5z"/>
<path d="M54.7,140.1c-0.3,0.6-0.5,1.1-0.8,1.6C54.2,141.2,54.5,140.6,54.7,140.1z"/>
<path d="M73.4,177.6c0,0-0.1,0.1-0.1,0.1C73.3,177.7,73.3,177.6,73.4,177.6L73.4,177.6z"/>
<path d="M83.1,206.2c-0.2,0.2-0.7,0.3-0.9,0.2c-0.6-0.5-1.2-1-1.7-1.7c-2.5-3.7-4.3-7.8-5.1-12.3c-0.3-1.6-0.5-3.1-0.7-4.8
	c-1.3,0.4-1.4,1.6-1.9,2.4c-0.5,0.9-0.6,2-1.5,2.5c-0.8-0.1-1-0.7-1-1.2c0-1.4,0-2.8,0.2-4.1c0.3-2.9,1-5.6,2.1-8.3
	c0.2-0.4,0.5-0.8,0.9-1.1c-0.4,1.8-0.7,3.7-1.1,5.5c-0.3,1.5-0.5,3.1-0.4,5c1.9-1,2-3.2,3.6-3.7c0.8,0.3,0.7,0.9,0.6,1.3
	c-0.4,6.9,2.1,12.8,6.4,18c0.4,0.4,0.7,0.9,1,1.4C83.4,205.6,83.3,206,83.1,206.2z"/>
<path d="M85.6,199.9c0,0,0,0.1,0,0.1C85.6,200,85.6,200,85.6,199.9L85.6,199.9L85.6,199.9L85.6,199.9z"/>
<path d="M90.5,206.5c0,0.2-0.1,0.5-0.3,0.6c-0.1,0.1-0.5,0.2-0.6,0.1c-0.4-0.3-0.9-0.7-1.2-1.2c-1-2-1.9-4-2.9-6
	c0.3,0.1,0.6,0.2,0.8,0.4c1.3,1.7,2.6,3.4,3.8,5.2C90.4,205.8,90.5,206.2,90.5,206.5z"/>
<path d="M74.2,175.8c0,0.1-0.1,0.2-0.1,0.3c0,0-0.1-0.1-0.1-0.1C74,175.9,74.1,175.9,74.2,175.8z"/>
<path d="M73.3,177.6C73.3,177.6,73.4,177.5,73.3,177.6C73.4,177.6,73.4,177.6,73.3,177.6L73.3,177.6L73.3,177.6z"/>
<path d="M74,176.2c0,0.5,0,1.1-0.5,1.4C73.3,177,73.4,176.5,74,176.2z"/>
<path d="M74.1,176.1c0,0-0.1,0-0.1,0.1C74,176.1,74,176.1,74.1,176.1C74,176,74,176,74.1,176.1C74,176,74.1,176.1,74.1,176.1z"/>
<path d="M85.6,199.9L85.6,199.9C85.6,199.9,85.6,199.9,85.6,199.9L85.6,199.9z"/>
<path d="M66.6,50.8c-1.7-1.3-3.7-1.9-5.8-1.2c-3.6,1-6,3.4-7.2,6.8c-1.8,5.2-0.7,10.1,2.6,14.3c3.7,4.7,9.2,4.2,12.1-1
	c1.6-2.8,2.5-5.9,2.5-8.9C70.8,56.7,69.8,53.3,66.6,50.8z M59,61.6c-0.3,0.3-0.8,0.5-1.2,0.7c-1.3,0.5-2.6,0-3-1.4
	c-0.2-0.8-0.3-1.6-0.3-2.4c0-2.1,0.9-4,2.3-5.6c0.5-0.6,1.3-1,2-1.1c2-0.5,3.4,0.8,3.4,3l0,0C61.9,57.3,61,59.7,59,61.6z"/>
<path class="st1" d="M62.2,54.8c-0.3,2.5-1.2,4.9-3.2,6.8c-0.3,0.3-0.8,0.5-1.2,0.7c-1.3,0.5-2.6,0-3-1.4c-0.2-0.8-0.3-1.6-0.3-2.4
	c0-2.1,0.9-4,2.3-5.6c0.5-0.6,1.3-1,2-1.1C60.8,51.4,62.2,52.6,62.2,54.8L62.2,54.8z"/>
<path d="M128.4,59.2c-1.3-0.6-2.5-1.2-3.7-1.8c-3.4-1.6-6.5-1.2-9.2,1.4c-1.3,1.2-2.4,2.8-3.5,4.2c-1.1,1.4-2.2,2.9-3.4,4.3
	c-0.9,1-1.9,0.8-2.5-0.3c-0.8-1.3-1.1-2.8-0.9-4.3c0.1-0.7,0.4-1.6,0.9-2.1c2.6-3,5.8-5.1,9.7-6.1c2.4-0.6,4.8-0.6,7,0.6
	c1.9,1,3.7,2.3,5.5,3.5C128.4,58.5,128.3,58.8,128.4,59.2z"/>
<path d="M128.4,59.2C128.4,59.2,128.4,59.2,128.4,59.2C128.4,59.2,128.4,59.2,128.4,59.2L128.4,59.2z"/>
<path d="M74.4,311.9L74.4,311.9L74.4,311.9C74.3,311.9,74.3,311.9,74.4,311.9c-0.1-0.1-0.1-0.3-0.1-0.4
	C74.3,311.6,74.4,311.7,74.4,311.9z"/>
</svg>
