<?xml version="1.0" encoding="utf-8"?>
<!-- Generator: Adobe Illustrator 27.9.0, SVG Export Plug-In . SVG Version: 6.00 Build 0)  -->
<svg version="1.1" id="Layer_1" xmlns="http://www.w3.org/2000/svg" xmlns:xlink="http://www.w3.org/1999/xlink" x="0px" y="0px"
	 viewBox="0 0 427.94 647.9" style="enable-background:new 0 0 427.94 647.9;" xml:space="preserve">
<style type="text/css">
	.st0{fill:#F06592;}
	.st1{opacity:0.3;}
	.st2{fill:#130C0C;}
	.st3{fill:#3B3938;}
	.st4{fill:#FFFFFF;}
</style>
<path class="st0" d="M105.45,71.62c0.55,5.04-3.82,5.96-6.76,8.07c-2.68,2.14-4.25,5.16-6.24,7.86c-2.34-5.98-0.84-11.94,2.39-16.58
	c1.52-2.19,4.2-3.23,7.09-3.23C104.6,67.74,106.13,68.64,105.45,71.62z"/>
<path class="st0" d="M120.48,79.78c5.52-4.04,9.91-3.85,16.76,1.08C130.83,79.79,125.79,77.79,120.48,79.78z"/>
<path class="st0" d="M110.44,237.64c14.05,6.41,28.09,12.83,43.31,19.77c-2.8,0.15-8.86,1.07-29.1-8.66
	C119.25,246.16,114.2,242.79,110.44,237.64z"/>
<path class="st0" d="M139.03,111.95c6.64,1.44,11.07,4.9,13.28,9.8c3.32,7.49,1.29,14.54-4.79,20.59
	c-6.83,6.77-16.97,6.05-22.32-1.44c-2.95-4.03-4.61-8.5-4.61-12.82c0-5.9,1.85-10.8,7.75-14.4
	C131.47,111.81,135.16,110.94,139.03,111.95z"/>
<path class="st0" d="M145.39,246.77c12.07,3.77,24.14,7.54,36.5,11.4C171.23,259.79,155.44,255.06,145.39,246.77z"/>
<path class="st0" d="M267.94,247.28c-10.65,9.25-23.58,11.6-37.14,12.05C243.23,255.44,255.52,251.16,267.94,247.28z"/>
<path class="st0" d="M160.47,187.69c1.67-2.53,13.91,3.4,22.12,3.13c26.7-0.86,22.04-12.84,21.64-16.63
	c-0.84-7.94-13.91-9.16-20.22-15.79c-4.15-4.37-2.94-13.43,10.46-17.71c7.92-2.53,16.34-2.57,24.53-0.92
	c15.26,3.08,14.28,13.72,10.57,17.74c-2.5,2.73-18.43,7.81-18.33,15.1c0.06,4.67-2.76,14.21,15.21,18.21
	c22.52,5.01,24.67-4.77,26.9-1.13c2.07,3.37-7.25,6.29-14.58,6.89c-10.88,0.89-24.17-5.99-30.57-5.76
	c-6.69,0.25-14.42,4.5-28.52,4.2C170.5,194.82,158.4,190.82,160.47,187.69z"/>
<path class="st0" d="M266.61,79.49c6.3-5.43,11.22-5.75,18.54-0.93C278.29,77.81,272.33,76.72,266.61,79.49z"/>
<path class="st0" d="M258.6,129.8c-0.82-2.15-0.84-4.45-0.13-6.61c0.35-1,1.04-2.25,1.92-2.85c4.67-3.7,9.99-5.91,16.03-6.3
	c3.71-0.22,7.25,0.45,10.17,2.84c2.53,2,4.82,4.42,7.15,6.7c0.17-0.12-0.06,0.29-0.02,0.91c-1.76-1.25-3.36-2.47-4.97-3.69
	c-4.57-3.31-9.26-3.58-13.98-0.49c-2.25,1.41-4.32,3.46-6.34,5.22c-2.01,1.76-4.05,3.67-6.22,5.41
	C260.6,132.16,259.18,131.59,258.6,129.8z"/>
<path class="st0" d="M257.42,259.03c14.57-8.88,30.66-14.66,45.22-23.45c0.25,0.34,0.5,0.69,0.74,1.03
	c-4.26,3.34-8.09,7.32-12.78,10.02C279.03,253.3,259.61,258.95,257.42,259.03z"/>
<path class="st0" d="M303.54,67.24c-0.17-3.05,0.85-3.87,3.53-3.87c2.88,0,5.57,1.04,7.09,3.22c3.23,4.64,4.72,10.6,2.38,16.58
	c-1.98-2.69-3.55-5.72-6.24-7.86C307.36,73.2,303.84,72.3,303.54,67.24z"/>
<path class="st0" d="M0,0v647.9h427.94V0H0z M63.88,370.45c0.55-16.38,4.99-31.8,9.67-47.23c6.04-19.89,12.16-39.74,15.95-60.22
	c1.56-8.45,1.62-17.08,2.95-26.09c4.2,3.14,7.96,6.17,12.15,8.49c1.88,1.05,3.81,3.09,6.27,1c0.15-2.26-1.76-2.99-3.08-4.13
	c-8.2-7.11-22.04-16.35-32.52-46.4c-1.61-4.59-3.13-9.66-4.55-15.3v-0.01c-0.01-0.07-0.03-0.14-0.05-0.21
	c0-0.01-0.01-0.02-0.01-0.03c-0.84-8.1-2.39-20-1.28-27.87c1.71-12.13,6.76-36.4,17.96-54.28c0.2-0.47,0.37-0.94,0.49-1.43
	c0.98-3.11,0.51-6.16-0.28-9.23c-1.37-5.31-2.26-10.64-0.12-15.99c1.27-4.03,4.02-6.83,7.47-9.05c6.33-4.03,13.18-4.89,20.42-3.26
	c2.51,0.82,4.76,0.11,7.12-0.86c6.34-2.6,12.32-6.19,19.2-7.41c27.56-8.1,55.56-11.35,84.32-8.97c20.1,1.66,39.47,5.93,58.18,13.21
	c5.64,2.19,10.89,3.07,16.94,1.66c7.07-1.65,13.51,0.34,18.23,6.38c5.25,5.38,6.8,11.58,5.34,19.05
	c-1.09,5.61-1.38,11.52,1.69,16.89c0.91,1.78,1.45,3.71,2.29,5.51c4.9,10.51,11.45,26.7,14,44.69c0.73,5.18,0.52,10.22,0.64,15.33
	c0.11,4.96-0.58,9.85-1.38,14.73c-0.19,1.17-0.39,2.33-0.58,3.5c-0.31,1.82-1.85,7.28-3.24,11.98c-1.13,3.87-2.17,7.22-2.33,7.63
	c-4.89,10.89-11.76,20.41-20.07,28.9c-7.1,7.26-15.76,12.46-24.16,17.97c-0.19,0.13-0.37,0.25-0.56,0.37
	c-0.96,3.64,1.58,2.55,3.02,1.97c3.39-1.36,6.73-2.88,9.98-4.58c5.2-2.71,10.26-5.66,15.02-9.34c1.95,6.39,1.07,12.3,1.81,18.08
	c2.22,17.26,6.92,33.88,12.46,50.32c6.06,17.99,12.07,35.99,15.23,54.8c2.15,12.76,0.92,24.85-5.95,36.1
	c-3.21,5.27-6.41,10.56-10.42,15.24c-6.17,7.23-12.95,13.88-20.87,19.24c-0.94,0.63-2,1.62-3.17,1.07c-1.52-0.72-1.07-2.32-0.9-3.56
	c0.44-3.13,0.83-6.28,1.77-9.32c0.36-1.13,0.81-2.52,0.14-3.43c-0.1-0.14-0.23-0.27-0.4-0.38c-0.1-0.08-0.22-0.15-0.36-0.21
	c-0.06-0.03-0.12-0.05-0.18-0.07c-0.52-0.18-1-0.11-1.45,0.1c-0.8,0.37-1.52,1.17-2.16,1.82c-3.03,3.11-2.9,7.3-3.8,11.15
	c-0.31,1.33,0.27,3.61-1.68,3.66c-1.88,0.05-2.62-2.02-2.76-3.67c-1.32-15.27,3.75-20.93,5.23-23.82c0.48-0.97,1.14-2.19,0.09-3.05
	c0,0-0.01-0.01-0.03-0.02c-0.02-0.02-0.05-0.04-0.08-0.06c-1.18-0.85-2.27,0.15-3.02,0.94c-4.1,4.28-9.49,12.7-9.01,26.73
	c-4.01-9.89-6.36-18.63,4.6-41.86c3.56-7.54,9.1-13.9,14.8-20.01c0.97-1.05,2.69-2.38,1.61-3.74c-1.44-1.83-3.09-0.1-4.25,0.9
	c-18.81,16.29-23.22,28.45-24.63,34.03c-0.48,1.85-1.15,4.97-1.62,8.36c0,0.02-0.01,0.04-0.01,0.06c-2,8.48-2.4,47.66,30.81,44.26
	c19.7-2.02,20.47-12.62,30.75-19.21c3.95-2.53,15,6.45,15,12.18v0.09c-0.02,1.37-0.09,2.99-0.21,4.9
	c-0.09,1.36-3.98,34.48-7.03,46.62c-5.51,21.9-15.86,41.57-27.3,60.84c-3.2,5.39-6.82,7.74-12.87,6.24c-0.8-0.2-1.64-0.34-2.47-0.36
	c-5.03-0.16-9.97,0.42-14.68,2.27c-1.23,0.48-2.77,1.06-2.55,2.66c0.25,1.89,2.05,1.93,3.53,2.06c2.02,0.19,3.96-0.55,5.95-0.63
	c6.32-0.23,12.89-0.89,17.85,4.19c1.89,1.93,3.58,4,5.08,6.18c2.82,4.09,4.95,8.6,6.37,13.5c1.25,4.32-0.27,5.99-4.59,5.38
	c-2.54-0.35-2.47-2.3-2.97-4c-2.04-6.87-5.01-13.11-11.91-16.43c-1.28-0.62-3.04-1.37-4.13,0.08c-0.08,0.12-0.16,0.23-0.21,0.35
	c-0.02,0.02-0.03,0.05-0.04,0.08c-0.62,1.32,0.53,2.54,1.43,3.49c3.13,3.29,5.73,6.92,7.57,11.09c0.03,0.11,0.07,0.22,0.09,0.32
	c1.64,5.44,0.84,6.33-4.74,5.54c-2.14-0.3-4.27-0.64-6.44-0.6c-12.73,0.24-23.64-4.18-33.21-12.52c-4.09-3.56-8.3-7.23-13.92-8.37
	c-2.23-0.28-4.46-0.22-6.67,0.22c-3.44,0.94-6.94,0.58-10.42,0.42c-3-0.06-6.01-0.22-8.98,0.02c-17.28,1.38-34.53,1.14-51.83,0.1
	c-5.78-0.34-11.56-1.44-17.41-0.85c-3.21,0.56-5.29,2.84-7.24,5.07c-9.32,10.68-21.36,15.52-35.15,16.68
	c-1.96,0.17-4.27,0.83-5.61-1.03c-1.46-2.02-0.17-4.17,0.74-6.12c1.49-3.19,3.48-6.05,5.81-8.7c1.07-1.22,2.66-2.74,1.36-4.33
	c-1.51-1.84-3.37-0.36-4.92,0.5c-1.93,1.05-3.47,2.56-4.75,4.35c-2.25,3.13-4.22,6.39-5.33,10.12c-0.8,2.68-1.91,5.65-5.38,4.11
	c-3.54-1.56-0.94-4.36-0.19-6.37c1.2-3.27,3.16-6.23,5-9.21c0.62-1.01,1.43-2.2,0.74-3.28c-0.07-0.12-0.17-0.24-0.28-0.36
	c-1.29-1.33-2.84-0.49-4.1,0.3c-0.53,0.34-1.04,0.7-1.53,1.1c-2.13,1.66-3.82,3.77-5.09,6.23c-1.45,2.81-2.87,5.64-4.17,8.53
	c-0.69,1.51-1.83,2.46-3.56,2.01c-2.19-0.57-1.49-2.27-1.18-3.68c0.61-2.8,1.85-5.38,3.34-7.78c0.78-1.26,1.58-2.48,2.42-3.64
	c4.91-6.89,11.01-12,20.71-12.3c3.94-0.11,7.97-0.35,11.93-0.85c0.97-0.12,2.12-0.38,2.3-1.53c0.18-1.11-0.71-1.82-1.63-2.27
	c-1.81-0.9-3.78-1.39-5.78-1.45c-5.32-0.17-10.68-0.66-15.88,0.92c-3.38,1.02-5.72-0.01-7.6-2.97
	c-10.06-15.76-19.05-32.05-25.49-49.66c-5.88-16.06-8.96-32.68-10.55-49.68c-0.42-4.53-0.67-9.05-0.77-13.57c0,0,0,0,0-0.01
	c7.21-25.93,10.95-18.47,14.92-15.93c10.28,6.59,11.05,17.2,30.75,19.22c33.13,3.39,35.76-32.1,32.15-46.21
	c-0.01-0.07-0.03-0.14-0.05-0.2c-0.3-1.39-0.66-2.77-1.05-4.16c-1.5-6.93-5.96-12.38-9.17-18.45c-0.54-0.81-1.19-1.52-1.83-2.24
	c-0.48-0.54-0.96-1.08-1.38-1.67c-4.89-6.08-10.33-11.62-16.47-16.44c-1.1-0.86-2.69-2.09-3.93-0.57c-1.01,1.24,0.36,2.49,1.23,3.39
	c2.52,2.64,4.7,5.57,7.08,8.32c7.57,8.72,13.48,18.42,16.69,29.62c2.67,8.9,3.8,17.7-2.2,26.85c0.92-7.25-0.44-13.36-2.24-19.4
	c-0.81-2-1.75-3.94-3.26-5.52c-1.03-1.08-2.25-2.39-3.83-1.68c-1.85,0.84-0.89,2.61-0.58,3.95c0.75,3.22,2.27,6.23,2.79,9.52
	c0.77,4.23,2.51,8.37,1.3,12.77c-0.47,1.73-1.02,4.02-3.14,4.01c-2.18-0.01-1.72-2.48-2.21-3.94c-1.46-4.41-2.47-9.04-6.14-12.34
	c-0.88-0.79-2.03-1.53-3.15-0.86c-1.27,0.76-0.69,2.1-0.3,3.16c1.21,3.26,3.08,6.31,3.29,9.89c0.08,1.44,0.92,3.32-0.45,4.23
	c-1.44,0.96-2.73-0.64-3.9-1.45c-10.49-7.24-19.7-15.82-27.15-26.19C68.11,395.5,63.42,384.05,63.88,370.45z M327.56,577.89
	c1.92,1.13,3.56,2.36,4.98,3.69c4.51,4.21,6.8,9.29,9,14.42c0.06,0.14,0.1,0.28,0.13,0.42c0.15,0.84-0.36,1.53-1.13,1.99
	c-0.01,0-0.02,0.01-0.03,0.01c-0.42,0.25-0.92,0.42-1.43,0.52c-1.71,0.31-3.41,1.35-4.14-1.19c-0.02-0.07-0.04-0.14-0.06-0.22
	c-1.36-5.48-3.32-10.73-5.99-16.7C328.47,579.87,328.03,578.89,327.56,577.89z"/>
<path class="st1" d="M368.12,599.07c0,15.2-69.81,27.51-155.91,27.51c-86.11,0-155.91-12.31-155.91-27.51
	c0-5.46,9-10.54,24.52-14.82c3.06-0.84,6.37-1.65,9.92-2.42c-0.84,1.16-1.64,2.38-2.42,3.64c-1.49,2.4-2.73,4.98-3.34,7.78
	c-0.31,1.41-1.01,3.11,1.18,3.68c1.73,0.45,2.87-0.5,3.56-2.01c1.3-2.89,2.72-5.72,4.17-8.53c1.27-2.46,2.96-4.57,5.09-6.23
	c1.92-0.36,3.89-0.71,5.91-1.04c0.69,1.08-0.12,2.27-0.74,3.28c-1.84,2.98-3.8,5.94-5,9.21c-0.75,2.01-3.35,4.81,0.19,6.37
	c3.47,1.54,4.58-1.43,5.38-4.11c1.11-3.73,3.08-6.99,5.33-10.12c1.28-1.79,2.82-3.3,4.75-4.35c1.55-0.86,3.41-2.34,4.92-0.5
	c1.3,1.59-0.29,3.11-1.36,4.33c-2.33,2.65-4.32,5.51-5.81,8.7c-0.91,1.95-2.2,4.1-0.74,6.12c1.34,1.86,3.65,1.2,5.61,1.03
	c13.79-1.16,25.83-6,35.15-16.68c1.95-2.23,4.03-4.51,7.24-5.07c5.85-0.59,11.63,0.51,17.41,0.85c17.3,1.04,34.55,1.28,51.83-0.1
	c2.97-0.24,5.98-0.08,8.98-0.02c3.48,0.16,6.98,0.52,10.42-0.42c2.21-0.44,4.44-0.5,6.67-0.22c5.62,1.14,9.83,4.81,13.92,8.37
	c9.57,8.34,20.48,12.76,33.21,12.52c2.17-0.04,4.3,0.3,6.44,0.6c5.58,0.79,6.38-0.1,4.74-5.54c-0.02-0.1-0.06-0.21-0.09-0.32
	c-1.84-4.17-4.44-7.8-7.57-11.09c-0.9-0.95-2.05-2.17-1.43-3.49c0.01-0.03,0.02-0.06,0.04-0.08c0.05-0.12,0.13-0.23,0.21-0.35
	c1.09-1.45,2.85-0.7,4.13-0.08c6.9,3.32,9.87,9.56,11.91,16.43c0.5,1.7,0.43,3.65,2.97,4c4.32,0.61,5.84-1.06,4.59-5.38
	c-1.42-4.9-3.55-9.41-6.37-13.5c2.44,0.42,4.8,0.86,7.07,1.32c2.67,5.97,4.63,11.22,5.99,16.7c0.02,0.08,0.04,0.15,0.06,0.22
	c0.73,2.54,2.43,1.5,4.14,1.19c0.51-0.1,1.01-0.27,1.43-0.52c0.01,0,0.02-0.01,0.03-0.01c0.88-0.28,1.36-1.03,1.13-1.99
	c-0.03-0.14-0.07-0.28-0.13-0.42c-2.2-5.13-4.49-10.21-9-14.42c3.53,0.75,6.83,1.54,9.88,2.36
	C358.67,588.28,368.12,593.48,368.12,599.07z"/>
<path d="M103.65,451.75c-19.7-2.02-20.47-12.63-30.75-19.22c-3.97-2.54-7.71-10-14.92,15.93c0,0.01,0,0.01,0,0.01
	c-4.76-2.72,1.94-46.74,3.27-54.02c0.99,1.48,3.65,4.93,3.94,5.5c6.78,13.72,17.17,24.39,28.98,33.77
	c4.56,3.62,11.33,7.01,15.63,7.25c14.16,0.79,24.49-17.89,25.95-35.63c0.02,0.06,0.04,0.13,0.05,0.2
	C139.41,419.65,136.78,455.14,103.65,451.75z"/>
<path class="st2" d="M347.68,171.46L347.68,171.46z"/>
<path class="st2" d="M342.42,583.94c-3.21-4.28-7.49-7.71-11.76-11.1c-6.3-5-5.6-4.12-1.6-11.14
	c42.09-73.88,36.63-107.83,27.96-160.2c-0.88-5.36-3.1-10.68-1.76-16.21c2.17-8.94,1.56-17.75-0.2-26.67
	c-4.13-20.93-11.72-40.82-18.1-61.07c-6.58-20.9-11-42.11-10.45-64.16c0.06-2.32,0.06-4.55,1.63-6.6c4.87-6.32,9.8-12.8,12.48-20.3
	c0.97-2.73,1.84-5.39,2.6-7.99c1.69-5.78,2.88-11.23,3.7-16.32c2.75-17.05,1.28-29.95,0.16-36.87c-1.69-10.36-4.11-27.06-11.7-40.34
	c-7.56-13.21-4.62-25.24-4.62-25.74c0.03-19.05-14.23-30.61-34.09-27.41c-2.24,0.36-4.21,0.35-6.21-0.48
	c-17.44-7.28-35.6-11.78-54.33-14.06c-39.72-4.83-78.28-0.66-115.29,15.12c-2.4,1.03-4.57,1.34-7.16,0.91
	c-20.18-3.35-35.9,11.88-32.13,31.9c1.37,7.28-0.04,11.41-4.87,21.68c-11.69,24.84-16.47,50.59-12.17,77.24
	c0.66,4.13,1.54,8.28,2.65,12.45c0.31,1.51,0.68,2.96,1.1,4.37c4.69,15.75,15.66,25.29,15.78,28.79
	c0.52,15.55-0.56,30.94-4.06,46.12c-5.11,22.18-13.21,43.52-18.56,65.61c-3.56,14.74-8.74,29.53-3.68,45.07
	c0.28,0.88,0.07,2-0.14,2.96c-3.07,13.84-4.49,27.87-5.46,42.01c-3.19,46.67,4.22,93.17,36.54,133.64c2.89,3.62,3.37,6.65-0.23,9.91
	c-1.35,1.23-2.63,2.56-3.72,4.02c-1.31,1.73-2.68,3.41-3.91,5.17c-2.26,3.18-4.1,6.58-4.36,10.91c-0.26,4.43,0.99,6.63,5.55,7.55
	c16.81,3.37,33.46,3.51,49.97-1.18c10.6-3.02,22.64-10.34,27.12-16.24c1.75-2.28,3.61-2.92,6.33-2.83
	c13.98,0.46,27.96,0.78,41.94,1.1c15.17,0.35,30.3-0.6,45.45-1.07c2.16-0.06,4.13-0.17,5.8,1.91c9.7,12.09,22.5,18.33,37.85,19.62
	c15.32,1.3,30.56,0.88,45.77-1.43c5.08-0.78,5.9-3.48,4.99-8.06C346.4,590.39,344.68,586.95,342.42,583.94z M323.6,598.39
	c-2.54-0.35-2.47-2.3-2.97-4c-2.04-6.87-5.01-13.11-11.91-16.43c-1.28-0.62-3.04-1.37-4.13,0.08c-0.08,0.12-0.16,0.23-0.21,0.35
	c-0.02,0.02-0.03,0.05-0.04,0.08c-0.62,1.32,0.53,2.54,1.43,3.49c3.13,3.29,5.73,6.92,7.57,11.09c0.03,0.11,0.07,0.22,0.09,0.32
	c1.64,5.44,0.84,6.33-4.74,5.54c-2.14-0.3-4.27-0.64-6.44-0.6c-12.73,0.24-23.64-4.18-33.21-12.52c-4.09-3.56-8.3-7.23-13.92-8.37
	c-2.23-0.28-4.46-0.22-6.67,0.22c-3.44,0.94-6.94,0.58-10.42,0.42c-3-0.06-6.01-0.22-8.98,0.02c-17.28,1.38-34.53,1.14-51.83,0.1
	c-5.78-0.34-11.56-1.44-17.41-0.85c-3.21,0.56-5.29,2.84-7.24,5.07c-9.32,10.68-21.36,15.52-35.15,16.68
	c-1.96,0.17-4.27,0.83-5.61-1.03c-1.46-2.02-0.17-4.17,0.74-6.12c1.49-3.19,3.48-6.05,5.81-8.7c1.07-1.22,2.66-2.74,1.36-4.33
	c-1.51-1.84-3.37-0.36-4.92,0.5c-1.93,1.05-3.47,2.56-4.75,4.35c-2.25,3.13-4.22,6.39-5.33,10.12c-0.8,2.68-1.91,5.65-5.38,4.11
	c-3.54-1.56-0.94-4.36-0.19-6.37c1.2-3.27,3.16-6.23,5-9.21c0.62-1.01,1.43-2.2,0.74-3.28c-0.07-0.12-0.17-0.24-0.28-0.36
	c-1.29-1.33-2.84-0.49-4.1,0.3c-0.53,0.34-1.04,0.7-1.53,1.1c-2.13,1.66-3.82,3.77-5.09,6.23c-1.45,2.81-2.87,5.64-4.17,8.53
	c-0.69,1.51-1.83,2.46-3.56,2.01c-2.19-0.57-1.49-2.27-1.18-3.68c0.61-2.8,1.85-5.38,3.34-7.78c0.78-1.26,1.58-2.48,2.42-3.64
	c4.91-6.89,11.01-12,20.71-12.3c3.94-0.11,7.97-0.35,11.93-0.85c0.97-0.12,2.12-0.38,2.3-1.53c0.18-1.11-0.71-1.82-1.63-2.27
	c-1.81-0.9-3.78-1.39-5.78-1.45c-5.32-0.17-10.68-0.66-15.88,0.92c-3.38,1.02-5.72-0.01-7.6-2.97
	c-10.06-15.76-19.05-32.05-25.49-49.66c-5.88-16.06-8.96-32.68-10.55-49.68c-0.42-4.53-0.67-9.05-0.77-13.57c0,0,0,0,0-0.01
	c-0.33-15.92,1.31-31.72,4.18-47.54c1.51,0.84,2.07,2.31,2.76,3.57c7.71,14.13,19.35,24.35,32.46,33.26
	c6.79,4.62,13.75,6.53,21.67,3.79c7.89-3.51,14.18-8.34,16.66-17.29c0.04-0.13,0.07-0.27,0.1-0.4c1.66-6.25,1.3-12.29-0.01-18.31
	c-0.01-0.07-0.03-0.14-0.05-0.2c-0.3-1.39-0.66-2.77-1.05-4.16c-1.5-6.93-5.96-12.38-9.17-18.45c-0.54-0.81-1.19-1.52-1.83-2.24
	c-0.48-0.54-0.96-1.08-1.38-1.67c-4.89-6.08-10.33-11.62-16.47-16.44c-1.1-0.86-2.69-2.09-3.93-0.57c-1.01,1.24,0.36,2.49,1.23,3.39
	c2.52,2.64,4.7,5.57,7.08,8.32c7.57,8.72,13.48,18.42,16.69,29.62c2.67,8.9,3.8,17.7-2.2,26.85c0.92-7.25-0.44-13.36-2.24-19.4
	c-0.81-2-1.75-3.94-3.26-5.52c-1.03-1.08-2.25-2.39-3.83-1.68c-1.85,0.84-0.89,2.61-0.58,3.95c0.75,3.22,2.27,6.23,2.79,9.52
	c0.77,4.23,2.51,8.37,1.3,12.77c-0.47,1.73-1.02,4.02-3.14,4.01c-2.18-0.01-1.72-2.48-2.21-3.94c-1.46-4.41-2.47-9.04-6.14-12.34
	c-0.88-0.79-2.03-1.53-3.15-0.86c-1.27,0.76-0.69,2.1-0.3,3.16c1.21,3.26,3.08,6.31,3.29,9.89c0.08,1.44,0.92,3.32-0.45,4.23
	c-1.44,0.96-2.73-0.64-3.9-1.45c-10.49-7.24-19.7-15.82-27.15-26.19c-7.64-10.64-12.33-22.09-11.87-35.69
	c0.55-16.38,4.99-31.8,9.67-47.23c6.04-19.89,12.16-39.74,15.95-60.22c1.56-8.45,1.62-17.08,2.95-26.09
	c4.2,3.14,7.96,6.17,12.15,8.49c1.88,1.05,3.81,3.09,6.27,1c0.15-2.26-1.76-2.99-3.08-4.13c-8.2-7.11-22.04-16.35-32.52-46.4
	c-1.61-4.59-3.13-9.66-4.55-15.3v-0.01c-0.01-0.07-0.03-0.14-0.05-0.21c0-0.01-0.01-0.02-0.01-0.03c-0.84-8.1-2.39-20-1.28-27.87
	c1.71-12.13,6.76-36.4,17.96-54.28c0.2-0.47,0.37-0.94,0.49-1.43c0.98-3.11,0.51-6.16-0.28-9.23c-1.37-5.31-2.26-10.64-0.12-15.99
	c1.27-4.03,4.02-6.83,7.47-9.05c6.33-4.03,13.18-4.89,20.42-3.26c2.51,0.82,4.76,0.11,7.12-0.86c6.34-2.6,12.32-6.19,19.2-7.41
	c27.56-8.1,55.56-11.35,84.32-8.97c20.1,1.66,39.47,5.93,58.18,13.21c5.64,2.19,10.89,3.07,16.94,1.66
	c7.07-1.65,13.51,0.34,18.23,6.38c5.25,5.38,6.8,11.58,5.34,19.05c-1.09,5.61-1.38,11.52,1.69,16.89c0.91,1.78,1.45,3.71,2.29,5.51
	c4.9,10.51,11.45,26.7,14,44.69c0.73,5.18,0.52,10.22,0.64,15.33c0.11,4.96-0.58,9.85-1.38,14.73c-0.19,1.17-0.39,2.33-0.58,3.5
	c-0.31,1.82-1.85,7.28-3.24,11.98c-1.13,3.87-2.17,7.22-2.33,7.63c-4.89,10.89-11.76,20.41-20.07,28.9
	c-7.1,7.26-15.76,12.46-24.16,17.97c-0.19,0.13-0.37,0.25-0.56,0.37c-0.96,3.64,1.58,2.55,3.02,1.97c3.39-1.36,6.73-2.88,9.98-4.58
	c5.2-2.71,10.26-5.66,15.02-9.34c1.95,6.39,1.07,12.3,1.81,18.08c2.22,17.26,6.92,33.88,12.46,50.32
	c6.06,17.99,12.07,35.99,15.23,54.8c2.15,12.76,0.92,24.85-5.95,36.1c-3.21,5.27-6.41,10.56-10.42,15.24
	c-6.17,7.23-12.95,13.88-20.87,19.24c-0.94,0.63-2,1.62-3.17,1.07c-1.52-0.72-1.07-2.32-0.9-3.56c0.44-3.13,0.83-6.28,1.77-9.32
	c0.36-1.13,0.81-2.52,0.14-3.43c-0.1-0.14-0.23-0.27-0.4-0.38c-0.1-0.08-0.22-0.15-0.36-0.21c-0.06-0.03-0.12-0.05-0.18-0.07
	c-0.52-0.18-1-0.11-1.45,0.1c-0.8,0.37-1.52,1.17-2.16,1.82c-3.03,3.11-2.9,7.3-3.8,11.15c-0.31,1.33,0.27,3.61-1.68,3.66
	c-1.88,0.05-2.62-2.02-2.76-3.67c-1.32-15.27,3.75-20.93,5.23-23.82c0.48-0.97,1.14-2.19,0.09-3.05c0,0-0.01-0.01-0.03-0.02
	c-0.02-0.02-0.05-0.04-0.08-0.06c-1.18-0.85-2.27,0.15-3.02,0.94c-4.1,4.28-9.49,12.7-9.01,26.73c-4.01-9.89-6.36-18.63,4.6-41.86
	c3.56-7.54,9.1-13.9,14.8-20.01c0.97-1.05,2.69-2.38,1.61-3.74c-1.44-1.83-3.09-0.1-4.25,0.9c-18.81,16.29-23.22,28.45-24.63,34.03
	c-0.48,1.85-1.15,4.97-1.62,8.36c0,0.02-0.01,0.04-0.01,0.06c-0.46,3.24-0.74,6.71-0.51,9.56c1.46,17.75,11.01,24.72,25.17,23.93
	c4.3-0.24,11.07-3.63,15.63-7.25c11.81-9.38,22.2-20.05,28.98-33.77c0.29-0.57,0.71-1.08,1.7-2.56c1.33,7.28,2.57,13.64,3.63,20.02
	c1.21,7.25,1.53,14.6,1.64,21.91c0.22,1.13,0.35,2.82,0.32,5.39v0.09c-0.02,1.37-0.09,2.99-0.21,4.9
	c-0.09,1.36-3.98,34.48-7.03,46.62c-5.51,21.9-15.86,41.57-27.3,60.84c-3.2,5.39-6.82,7.74-12.87,6.24c-0.8-0.2-1.64-0.34-2.47-0.36
	c-5.03-0.16-9.97,0.42-14.68,2.27c-1.23,0.48-2.77,1.06-2.55,2.66c0.25,1.89,2.05,1.93,3.53,2.06c2.02,0.19,3.96-0.55,5.95-0.63
	c6.32-0.23,12.89-0.89,17.85,4.19c1.89,1.93,3.58,4,5.08,6.18c2.82,4.09,4.95,8.6,6.37,13.5C329.44,597.33,327.92,599,323.6,598.39z
	 M340.51,598.42c-0.42,0.25-0.92,0.42-1.43,0.52c-1.71,0.31-3.41,1.35-4.14-1.19c-0.02-0.07-0.04-0.14-0.06-0.22
	c-1.36-5.48-3.32-10.73-5.99-16.7c-0.42-0.96-0.86-1.94-1.33-2.94c1.92,1.13,3.56,2.36,4.98,3.69c4.51,4.21,6.8,9.29,9,14.42
	c0.06,0.14,0.1,0.28,0.13,0.42c0.15,0.84-0.36,1.53-1.13,1.99C340.53,598.41,340.52,598.42,340.51,598.42z"/>
<path class="st3" d="M65.78,197.9L65.78,197.9z"/>
<path d="M356.52,444.54v-0.09c0-5.73-11.05-14.71-15-12.18c-10.28,6.59-11.05,17.19-30.75,19.21c-33.21,3.4-32.81-35.78-30.81-44.26
	c0-0.02,0.01-0.04,0.01-0.06c1.46,17.74,10.49,34.34,24.65,33.55c4.3-0.24,11.07-3.63,15.63-7.25c11.81-9.38,22.2-20.05,28.98-33.77
	c0.29-0.57,0.71-1.08,1.7-2.56c1.33,7.28,2.57,13.64,3.63,20.02C355.77,424.4,362.54,441.96,356.52,444.54z"/>
<path d="M238.77,196.58c-10.88,0.89-24.17-5.99-30.57-5.76c-6.69,0.25-14.42,4.5-28.52,4.2c-9.18-0.2-21.28-4.2-19.21-7.33
	c1.67-2.53,13.91,3.4,22.12,3.13c26.7-0.86,22.04-12.84,21.64-16.63c-0.84-7.94-13.91-9.16-20.22-15.79
	c-4.15-4.37-2.94-13.43,10.46-17.71c7.92-2.53,16.34-2.57,24.53-0.92c15.26,3.08,14.28,13.72,10.57,17.74
	c-2.5,2.73-18.43,7.81-18.33,15.1c0.06,4.67-2.76,14.21,15.21,18.21c22.52,5.01,24.67-4.77,26.9-1.13
	C255.42,193.06,246.1,195.98,238.77,196.58z"/>
<path d="M105.45,71.62c0.55,5.04-3.82,5.96-6.76,8.07c-2.68,2.14-4.25,5.16-6.24,7.86c-2.34-5.98-0.84-11.94,2.39-16.58
	c1.52-2.19,4.2-3.23,7.09-3.23C104.6,67.74,106.13,68.64,105.45,71.62z"/>
<path d="M316.54,83.17c-1.98-2.69-3.55-5.72-6.24-7.86c-2.94-2.11-6.46-3.01-6.76-8.07c-0.17-3.05,0.85-3.87,3.53-3.87
	c2.88,0,5.57,1.04,7.09,3.22C317.39,71.23,318.88,77.19,316.54,83.17z"/>
<path d="M285.15,78.56c-6.86-0.75-12.82-1.84-18.54,0.93C272.91,74.06,277.83,73.74,285.15,78.56z"/>
<path d="M137.24,80.86c-6.41-1.07-11.45-3.07-16.76-1.08C126,75.74,130.39,75.93,137.24,80.86z"/>
<path d="M303.38,236.61c-4.26,3.34-8.09,7.32-12.78,10.02c-11.57,6.67-30.99,12.32-33.18,12.4c14.57-8.88,30.66-14.66,45.22-23.45
	C302.89,235.92,303.14,236.27,303.38,236.61z"/>
<path d="M153.75,257.41c-2.8,0.15-8.86,1.07-29.1-8.66c-5.4-2.59-10.45-5.96-14.21-11.11C124.49,244.05,138.53,250.47,153.75,257.41
	z"/>
<path d="M267.94,247.28c-10.65,9.25-23.58,11.6-37.14,12.05C243.23,255.44,255.52,251.16,267.94,247.28z"/>
<path d="M181.89,258.17c-10.66,1.62-26.45-3.11-36.5-11.4C157.46,250.54,169.53,254.31,181.89,258.17z"/>
<g>
	<path d="M275.18,159.42c10.42-0.1,20.7,2.23,30.71,4.91c24.05,6.92,50.77,18.24,67.21,37.76c3.28,4.07,6.04,8.61,7.69,13.56
		c0,0-0.3,0.11-0.3,0.11c-2.01-4.76-4.93-9.05-8.32-12.89c-17.31-18.74-42.77-29.45-66.69-37.11c-9.88-2.9-19.97-5.51-30.29-6.02
		C275.18,159.74,275.18,159.42,275.18,159.42L275.18,159.42z"/>
</g>
<g>
	<path d="M279.82,168.85c10.33,1.41,20.16,5.2,29.68,9.3c22.79,10.32,47.6,25.39,61.04,47.08c2.65,4.5,4.73,9.4,5.65,14.53
		c0,0-0.32,0.07-0.32,0.07c-1.3-5-3.57-9.67-6.37-13.95c-14.41-21.04-38.06-35.33-60.62-46.37c-9.35-4.29-18.96-8.34-29.1-10.34
		C279.77,169.17,279.82,168.85,279.82,168.85L279.82,168.85z"/>
</g>
<g>
	<path d="M139.58,159.74c-29.72,2.07-77.1,20.6-96.98,43.13c-3.39,3.84-6.31,8.13-8.32,12.89c0,0-0.3-0.11-0.3-0.11
		c1.65-4.95,4.41-9.5,7.69-13.56c16.43-19.52,43.16-30.85,67.21-37.76c5.01-1.37,10.07-2.59,15.2-3.48
		c5.12-0.87,10.3-1.54,15.51-1.43C139.58,159.42,139.58,159.74,139.58,159.74L139.58,159.74z"/>
</g>
<g>
	<path d="M134.99,169.17c-29.1,6.34-73.31,31.53-89.72,56.71c-2.8,4.29-5.07,8.95-6.37,13.95l-0.32-0.07
		c0.91-5.14,2.99-10.04,5.65-14.53c13.44-21.69,38.25-36.76,61.04-47.09c4.76-2.08,9.59-4.02,14.53-5.64
		c4.94-1.6,9.97-3.02,15.14-3.66C134.94,168.85,134.99,169.17,134.99,169.17L134.99,169.17z"/>
</g>
<path d="M293.72,124.49c-1.76-1.25-3.36-2.47-4.97-3.69c-4.57-3.31-9.26-3.58-13.98-0.49c-2.25,1.41-4.32,3.46-6.34,5.22
	c-2.01,1.76-4.05,3.67-6.22,5.41c-1.61,1.22-3.03,0.65-3.61-1.14c-0.82-2.15-0.84-4.45-0.13-6.61c0.35-1,1.04-2.25,1.92-2.85
	c4.67-3.7,9.99-5.91,16.03-6.3c3.71-0.22,7.25,0.45,10.17,2.84c2.53,2,4.82,4.42,7.15,6.7
	C293.91,123.46,293.68,123.87,293.72,124.49z"/>
<path d="M152.31,121.75c-2.21-4.9-6.64-8.36-13.28-9.8c-3.87-1.01-7.56-0.14-10.69,1.73c-5.9,3.6-7.75,8.5-7.75,14.4
	c0,4.32,1.66,8.79,4.61,12.82c5.35,7.49,15.49,8.21,22.32,1.44C153.6,136.29,155.63,129.24,152.31,121.75z M150.1,128.23
	c-0.74,2.01-3.14,2.73-5.53,2.01c-0.74-0.28-1.66-0.57-2.22-1c-3.69-2.74-5.35-6.2-5.9-9.8c0-3.17,2.58-5.04,6.27-4.32
	c1.29,0.15,2.77,0.72,3.69,1.59c2.58,2.3,4.24,5.04,4.24,8.06C150.65,125.92,150.47,127.08,150.1,128.23z"/>
<path class="st4" d="M150.65,124.77c0,1.15-0.18,2.31-0.55,3.46c-0.74,2.02-3.14,2.74-5.53,2.02c-0.74-0.29-1.66-0.58-2.21-1.01
	c-3.69-2.74-5.35-6.19-5.9-9.79c0-3.17,2.58-5.04,6.27-4.32c1.29,0.14,2.77,0.72,3.69,1.58
	C148.99,119.01,150.65,121.75,150.65,124.77z"/>
</svg>
