<?xml version="1.0" encoding="utf-8"?>
<!-- Generator: Adobe Illustrator 27.7.0, SVG Export Plug-In . SVG Version: 6.00 Build 0)  -->
<svg version="1.1" id="Layer_1" xmlns="http://www.w3.org/2000/svg" xmlns:xlink="http://www.w3.org/1999/xlink" x="0px" y="0px"
	 viewBox="0 0 121.3 66.2" style="enable-background:new 0 0 121.3 66.2;" xml:space="preserve">
<style type="text/css">
	.st0{opacity:0.2;}
	.st1{fill:#D4A67F;}
	.st2{fill:#B57050;}
	.st3{opacity:0.7;fill:#FFFFFF;}
	.st4{fill:#B56E4C;}
	.st5{fill:#FBB565;}
	.st6{opacity:0.55;fill:#DB9F58;}
</style>
<ellipse class="st0" cx="27.7" cy="56.3" rx="21.2" ry="3.8"/>
<g>
	<g>
		<g>
			<g>
				<path class="st1" d="M14.8,51c-0.3,0.2-5.4,1.9-5.4,1.9S10,58,27.1,58s25-11.7,26.9-16.5L14.8,51z"/>
				<path class="st2" d="M27.1,58.2c-17.1,0-17.9-5.1-18-5.3l0-0.2l0.2-0.1c1.9-0.6,5.1-1.7,5.3-1.9l0.1,0l39.7-9.6l-0.2,0.4
					C52,47.3,43.4,58.2,27.1,58.2z M9.6,53c0.4,0.9,2.7,4.7,17.4,4.7c7.4,0,13.8-2.2,19-6.4c3.9-3.1,6.4-6.9,7.5-9.5l-38.7,9.4
					C14.3,51.5,10.8,52.6,9.6,53z"/>
			</g>
			<path class="st1" d="M14.8,51c-0.3,0.2-5.4,1.9-5.4,1.9S10,58,27.1,58s25-11.7,26.9-16.5L14.8,51z"/>
			<g>
				<path class="st1" d="M49.6,38.5c0,0-2,0.3-9,0.9c-9.5,0.8-28.4,5-31.2,10.8c-2.8,5.8,10.7,6.7,25.2,3.5c4.6-1,12.7-4.5,15.9-8.3
					c1.7-2,2.5-3.4,4.6-4.9c5.7-4.1,20.9-11.6,31.6-16c11.7-4.8,27.9-8.9,29.1-12.3c2-5.9-15.5-0.2-27,5.1
					C75.8,23.4,53.9,38.4,49.6,38.5z"/>
				<path class="st2" d="M19.6,55.8c-5.1,0-8.9-0.9-10.2-2.5c-0.7-0.9-0.8-1.9-0.2-3.2c2.9-6,22.2-10.2,31.4-11c6.9-0.6,9-0.9,9-0.9
					l0,0c2.3-0.1,10.1-4.7,18.4-9.6c7-4.1,14.9-8.8,20.8-11.6c9.5-4.4,24.1-9.5,27-6.9c0.5,0.5,0.7,1.2,0.3,2.1
					c-0.8,2.4-8.2,5-16.8,7.9c-4.2,1.5-8.6,3-12.4,4.6c-10.2,4.2-25.7,11.8-31.6,16c-1.6,1.2-2.5,2.2-3.6,3.6
					c-0.3,0.4-0.7,0.8-1,1.3c-3.2,3.9-11.4,7.3-16,8.4C29.1,55.2,23.9,55.8,19.6,55.8z M49.6,38.8c-0.2,0-2.4,0.3-9,0.9
					c-9.1,0.8-28.2,4.9-31,10.7c-0.5,1-0.5,1.9,0.1,2.6c2.3,2.9,13,3.2,24.8,0.6c4.6-1,12.6-4.4,15.8-8.2c0.4-0.5,0.7-0.9,1-1.3
					c1.1-1.4,2-2.5,3.7-3.7c5.9-4.2,21.5-11.8,31.7-16c3.9-1.6,8.2-3.1,12.5-4.6c8.1-2.8,15.7-5.5,16.5-7.6c0.2-0.7,0.2-1.3-0.2-1.6
					c-2.4-2.1-15.6,2-26.4,7c-5.9,2.7-13.8,7.4-20.8,11.6C59.5,34.2,52,38.7,49.6,38.8z"/>
			</g>
			<path class="st1" d="M69,29.5c2.1-1.2,4.1-2.4,6.2-3.5c2.1-1.1,4.2-2.2,6.3-3.3c4.1-2.1,8.2-4.3,12.5-6.2
				c4.2-1.9,8.4-3.6,12.9-4.7c2.2-0.5,4.4-0.9,6.7-1.2c-4.5-0.7-16.6,3.5-25.3,7.5c-7.6,3.5-18.2,10.1-26.6,15
				C64.1,32,66.6,30.8,69,29.5z"/>
			<path class="st1" d="M115.4,10.2c-0.2,1.6-3.6,3.2-4.6,3.7c-1.5,0.7-3.1,1.3-4.6,1.8c-1.7,0.6-3.5,1-5.3,1.6
				c-6.8,2.1-13.6,4.5-20.1,7.4c-3.2,1.4-6.4,3-9.6,4.6c-3.2,1.7-6.4,3.5-9.5,5.4c-1.5,0.9-3.1,1.8-4.6,2.7c-1.3,0.9-2.8,1.7-4.4,2
				c-0.7,0.1-1.4,0.1-2.1-0.1c-0.5-0.2-1-0.5-1.6-0.7c-0.5,0.1-1.4,0.2-2.9,0.3c0.4,0.2,0.8,0.4,1.2,0.7c0.9,0.8,0.9,2.2-0.1,3
				c-0.7,0.6-1.5,0.9-2.3,1.2c-0.9,0.3-1.8,0.5-2.7,0.6c-2.5,0.4-5,0.6-7.6,0.9c-3.1,0.3-6.2,0.7-9.2,1.6c-1.3,0.3-2.5,0.8-3.8,1.2
				c-1.2,0.4-2.4,0.8-3.5,1.3c-2.1,0.9-4.3,2.2-5.7,4.1c-0.3,0.4-0.5,0.8-0.7,1.2c4.4,1.6,13.4,1.2,22.8-0.8
				c4.6-1,12.7-4.5,15.9-8.3c1.7-2,2.5-3.4,4.6-4.9c5.7-4.1,20.9-11.6,31.6-16c11.7-4.8,27.9-8.9,29.1-12.3
				C116.2,11.2,116,10.6,115.4,10.2z"/>
			<path class="st3" d="M48.6,39.9c0,0,1.9,1.2,1.5,3.1C50.1,43,51,41.1,48.6,39.9z"/>
		</g>
	</g>
	<g>
		<path class="st4" d="M49.9,41.1c-0.6-0.7-1.5-1.2-2.4-1.4c-1-0.3-2.1-0.4-3.1-0.5c-0.6,0-1.2,0-1.7,0c-1.3,0-2.6,0.1-3.9,0.1
			c-0.8,0-1.7-0.1-2.4-0.6c-0.3-0.2-0.6-0.4-0.7-0.8c-0.2-0.4,0-0.8,0.3-1.1c0,0,0,0,0,0c0.6-0.5,1.2-1.1,1.8-1.7
			c0.4-0.6,0.7-1.2,1-1.8c0.3-0.6,0.5-1.3,0.6-1.9c0-0.1,0-0.2,0.1-0.4c-0.1-0.2-0.1-0.4-0.2-0.6c0,0,0,0,0,0c0,0,0,0.1,0,0.1
			c-0.8,0.9-1.8,1.7-2.9,2.3c-1.2,0.6-2.4,1-3.7,1.3c-3,0.7-6,0.9-9,1.1c-1.7,0.1-3.4,0.2-5,0.4c-1.3,0.2-2.7,0.4-3.9,1
			c-2,0.9-4.2,2.5-4.8,4.8c-0.1,0.6-0.2,1.1-0.1,1.7c-1.1,1-1.2,2.7-1,4.1c0.3,1.8,1.4,3.4,2.7,4.5c3.1,2.7,7.4,3.5,11.4,3.7
			c1.4,0.1,2.8,0.1,4.2-0.2c0.8,0,1.6-0.2,2.3-0.3c1.3-0.3,2.5-0.5,3.8-0.8c2.7-0.7,5.3-1.7,7.9-2.7c1.4-0.6,2.8-1.3,4.1-2.1
			c0.1,0,0.1-0.1,0.1-0.2c1.1-0.7,2.2-1.5,3.1-2.5C49.7,45.3,51.5,42.9,49.9,41.1z"/>
		<g>
			<path class="st5" d="M49.7,43.5c-0.2,0.9-0.9,1.8-1.5,2.5c-1.4,1.6-3.2,2.8-5.1,3.7c-0.4,0.2-0.9,0.4-1.4,0.5c0,0,0-0.1,0-0.1
				c0.7-0.4,1.4-0.8,2.1-1.4c0.9-0.7,1.6-1.5,2.4-2.3c0.1-0.1-0.1-0.2-0.2-0.1c-0.7,0.6-1.5,1.2-2.3,1.8c-0.8,0.6-1.5,1.1-2.4,1.5
				c-1.7,0.9-3.6,1.7-5.4,2.3c-1.1,0.3-2.1,0.6-3.2,0.9c-0.1,0-0.6,0.4-0.8,0.4c-3.2,0.7-6.6,0.9-9.8,0.1c-1.9-0.5-3.7-1.1-5.3-2.2
				c-0.1-0.1-0.2,0.1-0.1,0.2c1.4,1,2.9,1.9,4.5,2.4c1.6,0.5,3.3,0.8,4.9,0.8c0.9,0,1.8,0,2.8-0.1c-1.6,0.4-3.3,0.5-5,0.4
				c-1.9-0.1-3.8-0.3-5.6-0.7c-3.6-0.8-7.5-2.8-8.7-6.5c-0.2-0.7-0.3-1.6-0.3-2.3c0-0.7,0.1-1.4,0.5-1.9c0.1,0.6,0.4,1.2,0.8,1.7
				c0.8,1.1,2.1,1.7,3.5,1.6c0.1,0,0.3-0.3,0.1-0.3c-2.5,0-4.3-2.4-3.7-4.8c0.6-2.2,2.6-3.7,4.6-4.5c1.2-0.5,2.6-0.7,3.9-0.9
				c1.6-0.2,3.2-0.3,4.9-0.3c2.9-0.1,5.9-0.3,8.7-1c1.4-0.3,2.7-0.8,3.9-1.5c0.9-0.5,1.8-1.1,2.5-1.9c-0.3,0.5-0.7,1-1.1,1.3
				c-0.6,0.6-1.4,1.1-2.1,1.5c-2.1,1.1-4.4,1.8-6.8,2.3c-1.2,0.2-2.5,0.5-3.6,1c-0.2,0.1-0.2,0.4,0.1,0.3c1.1-0.4,2.3-0.6,3.5-0.8
				c1.2-0.2,2.4-0.5,3.6-0.8c1.2-0.4,2.4-0.9,3.6-1.5c0.8-0.4,1.6-1,2.3-1.6c0,0,0,0,0.1-0.1c0,0,0,0.1,0,0.1
				c-0.3,0.6-0.6,1.1-1,1.7c-0.9,1.1-2.1,2-3.3,2.7c-1.5,0.8-3.4,1.5-4.9,2.6c0,0-0.1,0-0.1,0c0,0-0.1,0.1-0.1,0.1
				c-0.9,0.7-1.8,1.5-2.3,2.5c-0.3,0.6-0.5,1.2-0.5,1.9c0,0.7,0.5,1.2,1.1,1.4c0.2,0.1,0.5-0.3,0.3-0.4c-1.1-0.7-0.7-1.9-0.2-2.9
				c0.3-0.4,0.6-0.8,1-1.2c-0.1,0.4,0,0.9,0.2,1.3c0.5,0.9,1.5,1.6,2.5,1.8c1.3,0.3,2.7,0.1,4-0.1c1.4-0.2,2.7-0.5,4-0.7
				c1.5-0.2,3-0.1,4.5,0.4c-0.4,0.1-0.7,0.2-1.1,0.2c-1.9,0.4-3.8,1-5.6,1.7c-0.2,0.1-0.1,0.3,0.1,0.2c1.8-0.6,3.6-1,5.5-1.3
				c0.9-0.2,1.8-0.3,2.8-0.3c0.5,0,0.9,0.1,1.4,0.1c0.5,0.1,0.9,0.2,1.4,0c0.1,0,0.4-0.3,0.2-0.4c-0.4-0.2-0.9-0.2-1.4-0.3
				c-0.5,0-0.9-0.1-1.4-0.1c-0.4,0-0.8,0-1.2,0.1c0,0,0-0.1,0-0.1c-2.3-1.1-5-0.7-7.5-0.3c-1.3,0.2-2.6,0.4-3.9,0.4
				c-0.6,0-1.2,0-1.7-0.2c-0.5-0.2-0.9-0.4-1.3-0.8c-0.4-0.4-0.8-0.8-0.9-1.4c-0.1-0.3-0.1-0.5,0-0.8c0.5-0.4,1-0.7,1.5-1
				c1.7-0.9,3.5-1.7,5-2.7c-0.1,0.2-0.2,0.5-0.1,0.8c0.2,0.6,0.7,1,1.2,1.3c0.7,0.4,1.5,0.4,2.2,0.4c0,0,0,0,0.1,0
				c-0.9,0.2-1.9,0.5-2.8,0.8c-0.1,0-0.2,0.3,0,0.2c2.3-0.6,4.6-1.1,7-1.1c0.6,0,1.1,0,1.6,0.1c0,0,0,0,0.1,0c0,0,0,0,0,0
				c0.5,0.1,1,0.1,1.5,0.2c0.9,0.2,1.8,0.4,2.5,0.9C49.5,41.6,50,42.5,49.7,43.5z"/>
		</g>
		<path class="st4" d="M35.5,49.4c-1.5,0-3,0.1-4.5,0.2c-1.5,0.1-2.9,0-4.3-0.1c-1.4-0.1-2.9-0.4-4.2-0.8c-1-0.3-2.1-0.7-3-1.2
			c-1.1-0.6-2.1-1.3-2.7-2.5c0-0.1-0.2,0-0.2,0.1c0.6,1.3,1.6,2.2,2.8,2.9c-0.9-0.2-1.8-0.4-2.6-0.8c-0.7-0.4-1.3-0.9-1.8-1.5
			c-0.5-0.7-0.9-1.5-0.7-2.4c0.3-0.9,0.9-1.5,1.4-2.2c0.1-0.1-0.1-0.1-0.1-0.1c-0.5,0.7-1.2,1.3-1.6,2c-0.4,0.8-0.3,1.6,0.1,2.4
			c0.8,1.6,2.5,2.5,4.1,2.9c0.9,0.2,1.7,0.3,2.6,0.4c0.3,0.1,0.6,0.2,0.9,0.3c2.7,0.9,5.7,1.3,8.6,1.2c1.7-0.1,3.5-0.3,5.2-0.5
			C35.6,49.6,35.7,49.4,35.5,49.4z"/>
		<path class="st4" d="M23.2,46.6c-1.3-0.2-2.3-1-2.9-2.1c-0.6-1.1-0.6-2.5,0.1-3.5c0.1-0.1-0.1-0.1-0.2-0.1
			c-0.7,0.8-0.9,1.8-0.7,2.8c-0.6-1-0.7-2.2-0.2-3.3c0.7-1.5,2.3-2.1,3.7-2.8c0.1-0.1,0.1-0.2,0-0.2c-0.8,0.4-1.6,0.6-2.4,1.1
			c-0.7,0.5-1.3,1.1-1.7,1.9c-0.7,1.4-0.6,3.5,0.9,4.3c0,0,0.1,0,0.1,0c0.6,1.2,1.8,2.2,3.2,2.2C23.2,46.9,23.4,46.6,23.2,46.6z"/>
		<path class="st6" d="M49.9,41.1c-0.6-0.7-1.5-1.2-2.4-1.4c-1-0.3-2.1-0.4-3.1-0.5c-0.6,0-1.2,0-1.7,0c-1.3,0-2.6,0.1-3.9,0.1
			c-0.8,0-1.7-0.1-2.4-0.6c-0.3-0.2-0.6-0.4-0.7-0.8c-0.2-0.4,0-0.8,0.3-1.1c0,0,0,0,0,0c0.6-0.5,1.2-1.1,1.8-1.7
			c0.4-0.6,0.7-1.2,1-1.8c0.3-0.6,0.5-1.3,0.6-1.9c0-0.1,0-0.2,0.1-0.4c-0.1-0.2-0.1-0.4-0.2-0.6c0,0,0,0,0,0c0,0,0,0.1,0,0.1
			c-0.4,0.5-0.9,0.9-1.4,1.3c-0.5,0.5-1.1,1-1.7,1.4c-1.6,1.1-3.4,1.8-5.3,2.4c-1.7,0.5-3.5,0.8-5.2,1c-1.1,0.1-2.1,0.2-3.2,0.4
			c-1,0.2-2.1,0.6-2.9,1.3c-0.9,0.8-1.6,2-1.6,3.2c0,1.3,0.6,2.4,1.1,3.5c0,0.1,0,0.2-0.1,0.2c-0.4,0-0.7-0.2-1-0.4
			c-0.6-0.4-1-1.1-1.2-1.8c-0.2-0.4-0.3-0.9-0.2-1.4c-0.4,0.9-0.5,1.9-0.6,2.8c0,0.1-0.2,0.2-0.3,0.1c-0.2-0.5-0.4-1.1-0.5-1.6
			c-0.2-1.6,0.3-3.2,1.5-4.3c-0.2,0.1-0.3,0.1-0.5,0.2c-0.9,0.5-1.8,1.1-2.4,2c-0.6,0.9-0.9,2-0.9,3c0,0.1-0.1,0.2-0.2,0.1
			c-1-0.5-1.4-1.8-1.2-2.8c0.1-1,0.5-1.9,1.2-2.6c0.7-0.8,1.6-1.4,2.6-2c0.4-0.2,0.9-0.5,1.4-0.7c-0.7,0.2-1.3,0.4-1.9,0.6
			c-2,0.9-4.2,2.5-4.8,4.8c-0.1,0.6-0.2,1.1-0.1,1.7c-1.1,1-1.2,2.7-1,4.1c0,0.2,0.1,0.3,0.1,0.4C8.9,47.3,9,47,9.2,46.7
			c0.3-0.4,0.7-0.4,1.1-0.2c0.4,0.2,0.7,0.7,1,1.1c0.3,0.5,0.7,1,1.1,1.4c0.5,0.6,1,1.1,1.6,1.6c0.5,0.5,1.1,1,1.7,1.4
			c1.1,0.7,2.4,1.1,3.4,1.9c0.1,0.1,0.1,0.2,0,0.2c-0.5,0.2-1,0.4-1.5,0.5c1.7,0.4,3.5,0.6,5.3,0.7c1.4,0.1,2.8,0.1,4.2-0.2
			c0.8,0,1.6-0.2,2.3-0.3c1.3-0.3,2.5-0.5,3.8-0.8c2.7-0.7,5.3-1.7,7.9-2.7c1.4-0.6,2.8-1.3,4.1-2.1c0.1,0,0.1-0.1,0.1-0.2
			c1.1-0.7,2.2-1.5,3.1-2.5C49.7,45.3,51.5,42.9,49.9,41.1z M20.8,41.2c0.3-1,1.1-1.7,2-2.3c0.8-0.5,1.8-0.8,2.7-1.1
			c1-0.3,2-0.6,3.1-0.8c1.5-0.3,3.1-0.5,4.6-1c1.2-0.6,2.4-1,3.5-1.8c0.1-0.1,0.3,0.1,0.2,0.2c-1,1.2-2.3,2.1-3.7,2.9
			c-2.1,1.2-4.3,2-6.2,3.5c-0.8,0.6-1.6,1.4-1.9,2.3c-0.2,0.4-0.2,0.8-0.1,1.2c0.2,0.5,0.5,0.9,1,1.2c0.1,0.1,0.1,0.2-0.1,0.3
			c-0.9,0.1-1.9-0.1-2.5-0.8c-0.6-0.6-0.9-1.4-0.9-2.2c0-0.8,0.3-1.5,0.7-2.1c0.6-0.8,1.5-1.4,2.5-1.8c-1.6,0.5-3.1,1.4-4.4,2.4
			C20.9,41.4,20.8,41.3,20.8,41.2z M28,48.9c-0.7,0-1.5-0.2-2.2-0.4c-0.7-0.2-1.4-0.6-1.8-1.2c0,0,0-0.1,0-0.2
			c0.3-0.2,0.7-0.2,1-0.2c0.4,0.1,0.8,0.2,1.1,0.2c0.5,0.1,1.1,0.1,1.7,0.1c0.6,0,1.1,0,1.7,0.1c1.1,0,2.2,0,3.4-0.1
			c1,0,2-0.1,3-0.2c0.8-0.1,1.7-0.3,2.5,0c0.1,0,0.1,0.2,0.1,0.2c-0.2,0.3-0.6,0.4-0.9,0.5c-0.4,0.1-0.8,0.2-1.2,0.2
			c-0.4,0.1-0.9,0.2-1.3,0.3c-0.5,0.1-1,0.2-1.5,0.2c-1,0.1-1.9,0.2-2.9,0.3c-0.8,0.1-1.6,0.1-2.4,0C28.2,48.8,28.1,48.9,28,48.9z
			 M35.9,45.7c-0.4,0.1-0.8,0.3-1.2,0.5c-0.4,0.2-0.8,0.3-1.3,0.4c-0.8,0.1-1.7,0.1-2.5,0c-0.5-0.1-0.9-0.3-1.3-0.5
			c-0.8-0.4-1.9-1.1-1.6-2.1c0-0.1,0.2-0.2,0.3,0c0.3,0.7,1.1,1,1.8,1.2c0,0,0,0,0,0c0.9,0.2,1.8,0.2,2.7,0.3c1,0.1,2.1,0.2,3.2-0.1
			C36,45.4,36.1,45.7,35.9,45.7z M43.6,47.1c-0.1,0.2-0.3,0.3-0.5,0.5c-1.3,1.3-2.9,2.3-4.6,3c-1.8,0.7-3.7,1.2-5.6,1.6
			c-2,0.3-4,0.5-6,0.4c-2.5-0.1-4.9-0.6-7.2-1.4c-0.9-0.3-1.8-0.7-2.6-1.1c-0.8-0.4-1.6-1-2.2-1.7c-0.1-0.1,0.1-0.2,0.2-0.2
			c1.8,0.8,3.7,1.4,5.6,1.9c3.4,0.8,6.9,1,10.4,0.6c2.9-0.3,5.8-0.9,8.6-1.9c1.2-0.6,2.4-1.3,3.7-1.8C43.6,46.8,43.7,47,43.6,47.1z
			 M47.5,43.2c-1-0.7-2.1-1.1-3.3-1.2c-1.1-0.1-2.1,0.1-3.2,0.2c-1,0.2-2,0.3-2.9,0.5c-1,0.2-2,0.5-3,0.6c-1,0.1-2,0.2-2.9-0.2
			C32,43.2,32,43,32.2,43c0.5,0,1.1-0.1,1.6-0.2c1-0.6,2.1-1,3.2-1.4c2.2-0.7,4.5-1.1,6.9-0.9c1.6,0.2,3.6,0.7,3.9,2.6
			C47.8,43.2,47.6,43.3,47.5,43.2z"/>
		<g>
			<path class="st5" d="M15.6,36.9c-0.7,0.4-1.3,0.8-1.9,1.4c-0.5,0.5-1,1.1-1.3,1.8c-0.3,0.5-0.4,1.1-0.4,1.7
				c0.5-1.2,1.1-2.3,2.1-3.1c1-0.8,2.2-1.2,3.4-1.5c0.9-0.2,1.8-0.3,2.7-0.5c1-0.2,2-0.3,3-0.4c1.5-0.2,3-0.4,4.4-0.6
				c-1.3,0.1-2.6,0.2-3.8,0.2c-1.6,0.1-3.2,0.1-4.9,0.3C17.9,36.3,16.7,36.5,15.6,36.9z"/>
			<path class="st5" d="M16.9,39.6c-0.2,0.4-0.2,0.7-0.2,1.1c0,0.6,0.1,1.5,0.7,1.9c0-0.6-0.2-1.1-0.2-1.7c-0.1-0.5,0-1.1,0.2-1.6
				c0.1-0.3,0.3-0.6,0.5-0.9C17.5,38.7,17.1,39.1,16.9,39.6z"/>
			<path class="st5" d="M24.1,41.4c-0.2,0.5-0.4,1-0.4,1.5c0,0.5,0.2,0.8,0.6,1.1c0.1-0.6,0-1.3,0.1-1.9c0.2-0.9,0.7-1.8,1.4-2.5
				C25.1,40.1,24.5,40.7,24.1,41.4z"/>
			<path class="st5" d="M11.5,49.6c-1.1-1.4-1.9-3.1-2.1-4.9c0,0.2,0,0.4-0.1,0.6c0,0.8,0,1.6,0.3,2.3c1.1,3.3,4.3,5.2,7.5,6.2
				C14.9,52.9,13,51.5,11.5,49.6z"/>
			<path class="st5" d="M41.5,40.8c-0.5,0.1-1,0.2-1.4,0.3c1.8-0.1,3.6,0.2,5.4,0.3c-0.3-0.2-0.7-0.4-1.1-0.5
				C43.5,40.6,42.5,40.6,41.5,40.8z"/>
		</g>
	</g>
</g>
</svg>
