<?xml version="1.0" encoding="utf-8"?>
<!-- Generator: Adobe Illustrator 27.7.0, SVG Export Plug-In . SVG Version: 6.00 Build 0)  -->
<svg version="1.1" id="Layer_1" xmlns="http://www.w3.org/2000/svg" xmlns:xlink="http://www.w3.org/1999/xlink" x="0px" y="0px"
	 viewBox="0 0 1091.3 715" style="enable-background:new 0 0 1091.3 715;" xml:space="preserve">
<style type="text/css">
	.st0{opacity:0.2;}
	.st1{fill:#73310A;}
	.st2{fill:#A24410;}
	.st3{fill:#F6E1A9;}
	.st4{fill:#913609;}
	.st5{fill:#75320A;}
	.st6{fill:#73320D;}
	.st7{fill:#EC4B18;}
	.st8{fill:#EC4C18;}
	.st9{fill:#F1EEE7;}
	.st10{fill:#F56121;}
</style>
<ellipse class="st0" cx="546.7" cy="578.2" rx="466.7" ry="82.6"/>
<g>
	<path class="st1" d="M954.5,197c3.6,14.5,8.5,28.7,7.9,43.9c-0.1,4-0.2,7.9-0.1,11.9c0.1,15.1-3.3,29.6-7.1,44.1
		c-2.7,7.9-5.3,15.9-8,23.8c-3.6,7.5-7,15.2-10.8,22.6c-4.9,9.6-10.2,19.1-15.3,28.6c-2.6,4.3-5.2,8.7-7.9,13c-2.7,4-5.3,8-8,12.1
		c-6.5,9.1-12.9,18.2-19.5,27.2c-5.5,7.6-11.1,15.2-16.7,22.8c-2.3,2.7-4.6,5.3-6.8,8c-4.6,5.3-9.3,10.7-13.9,16c-3.7,4-7.3,8-11,12
		c-4.3,4.4-8.6,8.8-12.9,13.1c-3.7,3.6-7.4,7.1-11.1,10.7c-5.3,4.7-10.7,9.4-16,14.1c-3,2.4-6,4.8-9,7.2c-7.7,5.9-15.4,11.9-23,17.8
		c-0.7,0.4-1.3,0.8-2,1.2c-8.4,5.6-16.7,11.1-25.1,16.7c-4.4,2.7-8.8,5.4-13.2,8c-3.9,2.1-7.8,4.2-11.7,6.3c-8.4,4-16.7,8-25.1,12
		c-5,2-9.9,4-14.9,6c-3.4,1.3-6.7,2.6-10.1,3.9c-8.4,2.6-16.7,5.1-25.1,7.7c-8.3,2-16.7,4-25,5.9c-8.3,1.5-16.6,3-24.9,4.5
		c-7,1-14,2-21,3c-1.3,0.3-2.7,0.6-4,1c-8.4,0.7-16.7,1.3-25.1,2c-8.3,0.3-16.6,0.6-25,1c-8.3-0.3-16.7-0.7-25-1
		c-8.3-0.3-16.6-0.7-24.9-1c-5.1-0.7-10.3-1.4-15.4-2.2c-11.5-1.6-23.1-3.3-34.6-4.9c-8.3-1.6-16.6-3.3-25-4.9c-7.7-2-15.4-4-23.1-6
		c-3.7-1.2-7.4-2.3-11-3.6c-13.7-5.1-27.3-10.3-40.9-15.4c-8.3-4.3-16.7-8.6-25-12.9c-1.3-0.8-2.6-1.6-3.9-2.4c-7-4.7-14-9.3-21-14
		c-4.7-3.6-9.3-7.3-14-10.9c-3.5-3.1-7-6.3-10.5-9.4c0,0-0.2-0.1-0.2-0.1c-0.4-0.2-0.9-0.4-1.3-0.6c-4.4-4.6-8.9-9.2-13.3-13.8
		c-3.5-4.1-7.1-8.1-10.6-12.2c-3.3-4.3-6.6-8.6-9.9-12.9c-4.7-7.3-9.3-14.7-14-22c-0.4-0.6-0.8-1.3-1.2-1.9c-4-8.7-8.1-17.4-12.1-26
		c-2.3-8.3-4.6-16.6-6.9-25c-0.6-3.5-1.2-6.9-1.8-10.4c-1.1-6.2-2.2-12.4-3.3-18.6c-0.3-7-0.7-14-1-21c0-8.3,0-16.6,0-24.9
		c0-0.4,0-0.7,0-1.1c0-1.3,0-2.6,0-3.9c0.4-4.4,0.7-8.8,1.2-13.2c0.5-4.7,1.3-9.3,1.9-14c0.8-5.9,1.4-11.9,2.1-17.9
		c1.9-8.7,3.9-17.4,5.8-26c2.4-8,4.8-16,7.1-24c2.7-5.3,5.3-10.7,8-16c1.7-2.4,3.5-4.9,5.2-7.3c3-3.9,5.9-7.9,9.1-11.5
		c4.3-4.8,8.4-9.8,13.4-13.7c6.6-5.1,14-9.2,21.1-13.7c5.6-2.6,11-5.6,16.8-7.7c11-3.9,22.2-7.3,33.3-11c8.3-1.4,16.6-2.9,24.9-4.3
		c8.3-0.7,16.7-1.3,25-2c8.3-0.3,16.6-0.7,25-1c8.3,0.3,16.7,0.7,25,1c8.6,0.3,17.3,0.7,25.9,1c8,0.3,16,0.7,24.1,1
		c0.7,0.4,1.4,1.1,2.1,1.1c8.3,0.4,16.6,0.6,24.8,0.9c7.7,0,15.4,0.1,23,0.1c8.3,0,16.6,0,25-0.1c8.3-0.3,16.7-0.7,25-1
		c8.3-1,16.6-2.1,24.9-3.1c8.7-1.7,17.3-3.3,26-5c7.3-2.3,14.6-4.6,22-6.9c0.7-0.3,1.4-0.7,2.1-1c8-3.3,16-6.7,24-10
		c0.4-0.1,0.9-0.2,1.3-0.4c0,0,0.1,0,0.1,0c2.5-1.2,5.2-2.2,7.6-3.6c14.4-8.5,28.8-17.2,43.2-25.7c5.6-3,11.2-6,16.8-9
		c2.3-1.1,4.6-2.1,7-3.2c8.3-3.3,16.6-6.7,25-10c8.7-2.6,17.5-5.2,26.2-7.7c2.2-0.4,4.5-0.7,6.7-1.1c5-1,10.1-2.1,15.1-3.1
		c0.7,0,1.4-0.1,2.1-0.1c8.3-0.7,16.6-1.3,24.9-2c3.4-0.3,6.7-0.8,10.1-0.7c5,0,10,0.5,15,0.7c17,0.7,33.7,3,48.9,11.2
		c5.6,5,11.2,10,16.8,15c2.7,3.3,5.4,6.7,8.1,10c3.7,5.3,7.4,10.7,11.1,16c4.7,8.6,9.4,17.2,14.1,25.8c3.3,8,6.6,16.1,9.9,24.1
		C949.6,181,952.1,189,954.5,197z M897.3,245.9c-14.8,30.4-32.3,59.2-52.4,86.4c-12.6,17.1-25.8,33.8-40.2,49.4
		c-22.6,24.4-46.7,47.2-74,66.6c-29.1,20.8-60,38.1-93.8,49.8c-24.6,8.6-49.9,15-75.9,17.8c-20.1,2.2-40.2,3.7-60.4,4.9
		c-8.1,0.5-16.3-0.3-24.4-0.9c-16.5-1.2-33.2-1.6-49.5-4.2c-21.8-3.5-43.5-8.3-65-13.6c-22.3-5.5-43.5-14.4-63.8-25.2
		c-19.4-10.3-37.3-22.9-53.3-38c-5.5-5.2-10.9-10.6-16.3-15.9c-2.9-3.4-6-6.7-8.7-10.2c-5.3-7-10.8-13.8-15.4-21.3
		c-5.5-9-10.6-18.3-15-27.9c-3.9-8.5-7.3-17.4-9.8-26.4c-3-10.8-4.8-21.9-7-32.7c-0.3,1.7-0.9,3.6-1.1,5.5c-1.1,12-2.5,24.1-3,36.1
		c-0.5,14.4-1.2,28.9,0.3,43.2c1.8,18.2,5,36.2,11.4,53.6c7.6,21,18.3,40.1,31.7,57.7c8.3,10.9,17.5,21.3,27.7,30.4
		c13,11.6,27.1,22.1,41.5,32.1c19,13.1,40.3,21.9,62,29.6c9.7,3.4,19.4,6.9,29.4,9.2c18.5,4.3,37.2,8.2,55.9,11.5
		c12.7,2.2,25.6,3.4,38.4,4.7c7.1,0.7,14.2,1.1,21.4,1.1c19.4,0.1,38.9,0.6,58.2-0.4c15-0.8,29.9-3.1,44.7-5.7
		c17.7-3.2,35.7-6,52.8-11.5c20.9-6.7,41.7-14.6,61.4-24.3c18.4-9,36-20.2,52.9-32c16.1-11.2,31.4-23.8,46.2-36.6
		c21.5-18.6,41-39.2,58.7-61.5c8.2-10.2,16.7-20.2,24.3-30.8c8.7-12.2,17-24.8,24.8-37.6c15.7-25.6,29.9-52,38.8-81
		c4.7-15.4,7.7-31.2,8.5-47.2c1.1-22.6-5.3-44-12.5-65c-5.4-15.8-12.7-30.9-19.6-46.1c-2.8-6.1-6.6-11.8-9.9-17.7
		c-0.7,1-0.6,1.6-0.5,2.2c1.5,10.8,3.5,21.5,4.3,32.3c0.4,5.8-0.7,11.9-1.8,17.7c-2.7,13.4-5.1,26.8-9,39.9
		C906.9,224.7,901.6,235.2,897.3,245.9z M176.8,295c0.5,5.7,1.1,11.5,1.6,17.2c1.7,16.7,6.6,32.6,13.5,47.8
		c18.9,41.2,47.8,73.8,85,99.2c28.8,19.7,60.6,32.6,94.1,41.4c14.3,3.7,28.9,6.5,43.4,9.2c11.4,2.1,22.9,3.9,34.4,5
		c12.1,1.1,24.3,1.5,36.5,1.7c11.7,0.2,23.5,0.1,35.2-0.7c13.4-0.8,26.9-2.3,40.2-3.9c21.1-2.5,41.6-7.6,61.8-13.7
		c38.2-11.6,72.9-30.3,105.2-53.6c28.7-20.7,54.9-44.3,78.1-71c13.3-15.3,25.9-31.3,37.8-47.7c25-34.4,47.2-70.5,61.3-111
		c5.8-16.8,9.7-33.9,11.2-51.5c1.3-15.7-0.5-31.2-6.2-46.1c-5.7-15.1-15.4-26.8-30-34.1c-11.2-5.6-23.5-7.5-35.6-8
		c-23.1-1.1-46.4-0.9-69.2,4.1c-36,7.8-69.5,22-100.4,41.9c-19.7,12.7-40.3,23.3-62.4,30.8c-33,11.3-66.9,16.3-101.8,16.3
		c-30.7,0-61.3-0.5-91.9-3.3c-13.7-1.2-27.5-2.1-41.2-1.7c-22.1,0.6-44.3,1.8-66.3,3.8c-25.3,2.3-49.4,9.6-71.6,22.4
		c-16.4,9.4-30.6,21.4-41.5,37C183.7,247.1,176.7,269.9,176.8,295z"/>
	<path class="st2" d="M228.3,422.9c5.4,5.3,10.8,10.7,16.3,15.9c16.1,15.1,33.9,27.7,53.3,38c20.3,10.8,41.5,19.7,63.8,25.2
		c21.5,5.3,43.2,10.1,65,13.6c16.3,2.6,33,3,49.5,4.2c8.1,0.6,16.3,1.4,24.4,0.9c20.2-1.2,40.3-2.7,60.4-4.9
		c26-2.8,51.2-9.2,75.9-17.8c33.8-11.8,64.7-29.1,93.8-49.8c27.2-19.4,51.4-42.2,74-66.6c14.4-15.5,27.6-32.3,40.2-49.4
		c20.1-27.2,37.6-56,52.4-86.4c1,2.1,2.5,4,2.9,6.2c2.8,16.5,3.2,33.1,1.2,49.8c-2.4,20.4-7.9,40.1-16,58.8
		c-9,20.7-20.1,40.6-30.9,60.5c-5.4,10-11.9,19.5-18.4,28.8c-5.8,8.3-12.2,16.1-18.4,24.1c-13.3,17.1-28.2,32.7-45.3,46
		c-13.6,10.6-27.3,21.1-41.8,30.3c-19.1,12-39.2,22.2-60.6,29.6c-18.5,6.3-37,12.8-55.9,17.6c-14.8,3.8-30.2,5.6-45.5,7.4
		c-18.6,2.2-37.2,4.1-55.8,4.8c-14.5,0.5-29.2-0.6-43.7-1.8c-17.3-1.5-34.5-3.5-51.7-6c-25.6-3.7-50.4-10.6-74.3-20.8
		c-19.5-8.3-36-21-51.7-34.8c-5.2-4.6-10.1-9.7-14.3-15.3c-9.7-13-20.1-25.7-28.1-39.7c-9.3-16.4-15.7-34.3-19.3-52.9
		C228.7,433.3,228.7,428.1,228.3,422.9z"/>
	<path class="st3" d="M176.8,295c0-25.1,6.9-48,21.3-68.6c10.9-15.6,25.1-27.6,41.5-37c22.2-12.8,46.2-20.1,71.6-22.4
		c22.1-2,44.2-3.2,66.3-3.8c13.7-0.4,27.5,0.5,41.2,1.7c30.6,2.7,61.3,3.3,91.9,3.3c34.8,0,68.8-5,101.8-16.3
		c22.2-7.6,42.8-18.2,62.4-30.8c31-19.9,64.4-34.1,100.4-41.9c22.9-5,46.1-5.2,69.2-4.1c12.1,0.6,24.4,2.4,35.6,8
		c14.6,7.4,24.3,19,30,34.1c5.7,14.9,7.5,30.4,6.2,46.1c-1.5,17.6-5.3,34.7-11.2,51.5c-14.1,40.5-36.3,76.6-61.3,111
		c-11.9,16.4-24.5,32.3-37.8,47.7c-23.2,26.7-49.4,50.3-78.1,71c-32.3,23.3-66.9,42-105.2,53.6c-20.3,6.1-40.8,11.3-61.8,13.7
		c-13.4,1.6-26.8,3-40.2,3.9c-11.7,0.7-23.4,0.8-35.2,0.7c-12.2-0.2-24.4-0.5-36.5-1.7c-11.5-1.1-23-2.9-34.4-5
		c-14.5-2.7-29.1-5.5-43.4-9.2c-33.5-8.8-65.3-21.7-94.1-41.4c-37.2-25.5-66.2-58.1-85-99.2c-7-15.2-11.9-31-13.5-47.8
		C177.8,306.5,177.3,300.8,176.8,295z M397.1,173.3c0,0.4,0,0.8,0.1,1.2c12.5,8.6,25,17.2,37.7,25.6c25.3,16.8,50.6,33.6,76.2,49.9
		c20.5,13,41.8,24.6,64.1,34.3c12.9,5.6,25.3,5.9,37.4-2.1c4.3-2.8,8.9-5.1,13.1-8c37.5-25.2,71.8-54.4,105.8-83.9
		c1.7-1.5,2.9-4.6,2.8-6.8c-0.7-10.9,3.6-19.7,10.6-27.4c19.9-22,44.7-31.6,74.2-27.3c9.6,1.4,18.2,5.8,21.4,16
		c4,12.7-0.9,23.3-9.1,32.8c-8.4,9.7-18.6,16.8-30.4,21.5c-17.3,6.9-34.9,11.6-53.1,2.5c-1.2-0.6-3.7-0.3-4.8,0.5
		c-13.6,10.4-27.3,20.9-40.7,31.6c-13.9,11.1-27.9,22.3-41.3,34C649.2,278.1,638,289,627.1,300c-3.1,3.1-5.8,7.7-6.5,11.9
		c-2,12.1-3.5,24.4-4.1,36.7c-0.5,9.9,0.4,19.9,0.8,29.8c0.2,4.4,0.4,8.9,1.1,13.3c1.9,11.9,3.7,23.9,6.2,35.7
		c2.3,10.9,5.9,21.4,12.9,30.4c2.3,2.9,4.6,3.6,8.1,2.1c20.2-9,39.8-19.1,57.6-32.1c16.3-11.8,31.7-24.8,47.2-37.6
		c19.4-16,35.9-34.9,51.9-54.2c18.1-21.8,34.2-45.1,48.8-69.4c14.3-23.6,27.1-47.9,35-74.5c7.5-25.1,11-50.5,3-76.1
		c-4.3-13.7-13-24.3-27.2-27.8c-12.5-3-25.7-4.9-38.5-4.8c-16.1,0.1-32.3,1.8-48.1,4.7c-31,5.5-59.8,17.3-86.4,33.9
		c-28.2,17.6-57,33.3-89.1,42.7c-22.3,6.5-45.1,10.2-68.2,12.1c-11.5,0.9-23.1,0.8-34.7,0.8c-14.9,0-29.8-0.3-44.7-0.7
		c-6.4-0.2-12.9-0.7-19.3-1.1C421,175,409,174.2,397.1,173.3z M325.6,173.5c-7.6,1.1-15.2,2.4-22.8,3.4
		c-27.5,3.7-52.8,12.7-74.6,30.3c-21.8,17.6-34,40.5-36.8,68.2c-2,20.3,1.8,40.1,9.2,59c10.6,27,26.5,50.6,47,71.1
		c17.5,17.5,36.9,32.2,58.9,43.6c19.7,10.2,40.1,18.9,61.8,23.9c19.3,4.4,38.6,8.5,58.1,11.8c13.4,2.3,27.1,3.7,40.8,4
		c21.2,0.4,42.5-0.3,63.8-0.9c6.7-0.2,13.3-1.6,19.9-2.6c8.7-1.3,17.4-3.1,26.1-4.2c7.7-1,13.5-4,17.1-11.4
		c6.1-12.6,7.8-26.1,7.9-39.6c0.1-13.8-1.5-27.6-2.8-41.4c-1.7-19.2-6.2-38-12-56.3c-4-12.6-7.7-25.6-18.1-34.7
		c-9.1-7.9-18.4-15.6-28.3-22.5c-30.4-21.2-62.6-39.3-95.6-55.9c-24.6-12.4-49.6-24.2-75-35C356.3,178.3,342.3,169.5,325.6,173.5z
		 M773,197c19.1-0.1,39.5-9.6,49.5-23.8c6-8.6,7.1-22.3,0.4-28.8c-5.3-5.2-12-7-18.9-7.3c-20.1-0.8-37,6.5-49.7,22.5
		c-7.2,9.2-8.9,20-2,28.5C758.2,195.3,766.7,196.8,773,197z"/>
	<path class="st4" d="M228.3,422.9c0.4,5.2,0.4,10.4,1.4,15.4c3.6,18.7,10,36.6,19.3,52.9c7.9,14,18.3,26.8,28.1,39.7
		c4.2,5.5,9.1,10.7,14.3,15.3c15.7,13.8,32.2,26.5,51.7,34.8c23.9,10.2,48.7,17,74.3,20.8c17.2,2.5,34.4,4.5,51.7,6
		c14.5,1.2,29.2,2.4,43.7,1.8c18.7-0.7,37.3-2.6,55.8-4.8c15.3-1.8,30.6-3.6,45.5-7.4c18.9-4.8,37.4-11.2,55.9-17.6
		c21.4-7.3,41.6-17.5,60.6-29.6c14.5-9.2,28.2-19.7,41.8-30.3c17.1-13.3,32-28.9,45.3-46c6.2-8,12.6-15.8,18.4-24.1
		c6.5-9.4,12.9-18.8,18.4-28.8c10.8-19.9,21.9-39.8,30.9-60.5c8.1-18.6,13.6-38.3,16-58.8c2-16.7,1.6-33.3-1.2-49.8
		c-0.4-2.2-1.9-4.1-2.9-6.2c4.4-10.7,9.6-21.2,12.9-32.3c3.9-13,6.3-26.5,9-39.9c1.2-5.8,2.3-11.9,1.8-17.7
		c-0.8-10.8-2.8-21.5-4.3-32.3c-0.1-0.6-0.2-1.2,0.5-2.2c3.3,5.9,7.1,11.5,9.9,17.7c6.9,15.2,14.2,30.4,19.6,46.1
		c7.1,21,13.6,42.5,12.5,65c-0.8,16-3.8,31.8-8.5,47.2c-8.8,29-23.1,55.4-38.8,81c-7.8,12.8-16.1,25.4-24.8,37.6
		c-7.6,10.6-16.1,20.6-24.3,30.8c-17.7,22.2-37.2,42.9-58.7,61.5c-14.9,12.9-30.1,25.5-46.2,36.6c-16.9,11.7-34.4,22.9-52.9,32
		c-19.7,9.7-40.4,17.6-61.4,24.3c-17.1,5.4-35.1,8.3-52.8,11.5c-14.8,2.6-29.7,5-44.7,5.7c-19.4,1-38.8,0.5-58.2,0.4
		c-7.1,0-14.3-0.4-21.4-1.1c-12.8-1.3-25.7-2.4-38.4-4.7c-18.7-3.3-37.4-7.2-55.9-11.5c-10-2.3-19.7-5.7-29.4-9.2
		c-21.7-7.7-43-16.5-62-29.6c-14.4-9.9-28.4-20.5-41.5-32.1c-10.2-9.1-19.4-19.5-27.7-30.4c-13.4-17.6-24-36.7-31.7-57.7
		c-6.4-17.5-9.5-35.5-11.4-53.6c-1.4-14.3-0.8-28.8-0.3-43.2c0.4-12.1,1.9-24.1,3-36.1c0.2-1.9,0.7-3.9,1.1-5.5
		c2.3,10.8,4,22,7,32.7c2.5,9,5.9,17.9,9.8,26.4c4.4,9.6,9.5,18.9,15,27.9c4.6,7.4,10.1,14.3,15.4,21.3
		C222.3,416.3,225.4,419.5,228.3,422.9z"/>
	<path class="st5" d="M397.1,173.3c12,0.8,23.9,1.7,35.9,2.4c6.4,0.4,12.9,1,19.3,1.1c14.9,0.3,29.8,0.6,44.7,0.7
		c11.6,0,23.2,0.2,34.7-0.8c23.1-1.9,45.9-5.6,68.2-12.1c32-9.4,60.9-25.1,89.1-42.7c26.6-16.6,55.5-28.4,86.4-33.9
		c15.8-2.8,32.1-4.5,48.1-4.7c12.8-0.1,26,1.8,38.5,4.8c14.2,3.4,22.9,14.1,27.2,27.8c8,25.6,4.4,51-3,76.1
		c-7.9,26.6-20.8,50.8-35,74.5c-14.6,24.3-30.7,47.6-48.8,69.4c-16,19.3-32.5,38.2-51.9,54.2c-15.5,12.8-31,25.8-47.2,37.6
		c-17.8,13-37.4,23.2-57.6,32.1c-3.6,1.6-5.8,0.9-8.1-2.1c-7-9-10.6-19.5-12.9-30.4c-2.5-11.8-4.3-23.8-6.2-35.7
		c-0.7-4.4-0.9-8.9-1.1-13.3c-0.4-9.9-1.4-19.9-0.8-29.8c0.6-12.3,2.1-24.6,4.1-36.7c0.7-4.2,3.4-8.8,6.5-11.9
		c11-11.1,22.2-22,33.9-32.2c13.4-11.7,27.4-22.9,41.3-34c13.4-10.7,27-21.2,40.7-31.6c1.1-0.9,3.6-1.1,4.8-0.5
		c18.2,9,35.8,4.4,53.1-2.5c11.7-4.7,22-11.8,30.4-21.5c8.2-9.5,13.1-20.1,9.1-32.8c-3.2-10.3-11.8-14.7-21.4-16
		c-29.5-4.2-54.3,5.4-74.2,27.3c-6.9,7.6-11.3,16.5-10.6,27.4c0.1,2.2-1.1,5.3-2.8,6.8c-34,29.5-68.3,58.8-105.8,83.9
		c-4.2,2.8-8.8,5.2-13.1,8c-12.1,8-24.4,7.7-37.4,2.1c-22.3-9.7-43.6-21.3-64.1-34.3c-25.6-16.3-50.9-33.2-76.2-49.9
		c-12.7-8.4-25.1-17.1-37.7-25.6C397.1,174.1,397.1,173.7,397.1,173.3z M411.6,178.5c0.9,0.9,1.6,1.7,2.5,2.3
		c34.1,22.6,68.1,45.4,102.5,67.5c19.2,12.3,39,23.6,60.3,32c10.6,4.2,20.9,6.5,31.2-0.6c17.9-12.4,36.5-23.9,53.7-37.1
		c21.7-16.7,42.4-34.8,63.6-52.3c3.4-2.8,5.5-5.9,4.9-10.6c-0.3-2.1,0.3-4.3,0.7-6.4c2.9-12.7,11-22,20.7-29.8
		c18.6-14.9,39.9-21.7,63.7-19.5c10.1,1,19.6,4.2,25.9,13.1c8.3,11.9,5.8,23.7-1,35.1c-7.7,13-19.1,22.1-32.5,28.5
		c-18.9,9-38.3,12.8-58.9,6c-1.8-0.6-4.6,0-6.1,1.2c-11.1,8.2-22.3,16.4-32.8,25.2c-24.4,20.5-48.6,41.4-72.8,62.2
		c-7.7,6.6-12.9,14.7-13.9,25.1c-0.6,5.9-1.8,11.8-1.8,17.7c-0.3,27-0.2,54.1,5.9,80.6c2.7,11.7,5.2,23.4,11.7,33.7
		c2,3.2,4,3.9,7.3,2.2c10.8-5.5,22-10.3,32.5-16.4c38.9-22.8,72.8-51.8,103.1-85.2c23-25.4,43.5-52.5,61.4-81.7
		c20-32.7,39.2-66,44.4-104.8c1.8-13.5,1.8-27.6,0-41.1c-2-14.7-9.6-27.4-24.6-32.6c-8.5-2.9-17.7-3.9-26.7-5
		c-19.3-2.3-38.4,0-57.4,3.6c-35.7,6.7-68.1,21.2-98.5,40.8c-22.6,14.6-46.8,26.1-72.4,34.4c-35.6,11.5-72.4,15-109.5,15
		c-18.1,0-36.2-1.1-54.3-1.8C433.4,179.6,422.7,179,411.6,178.5z"/>
	<path class="st5" d="M325.6,173.5c16.7-4,30.6,4.7,44.7,10.7c25.4,10.8,50.3,22.6,75,35c33,16.7,65.3,34.7,95.6,55.9
		c9.9,6.9,19.2,14.6,28.3,22.5c10.4,9.1,14.1,22.1,18.1,34.7c5.8,18.4,10.3,37.1,12,56.3c1.2,13.8,2.9,27.6,2.8,41.4
		c-0.1,13.5-1.8,27-7.9,39.6c-3.6,7.4-9.4,10.4-17.1,11.4c-8.7,1.2-17.4,2.9-26.1,4.2c-6.6,1-13.3,2.4-19.9,2.6
		c-21.3,0.6-42.5,1.3-63.8,0.9c-13.6-0.3-27.3-1.7-40.8-4c-19.5-3.3-38.8-7.4-58.1-11.8c-21.7-5-42.1-13.7-61.8-23.9
		c-22-11.3-41.4-26.1-58.9-43.6c-20.5-20.5-36.5-44.2-47-71.1c-7.4-18.9-11.2-38.7-9.2-59c2.8-27.6,15-50.6,36.8-68.2
		c21.8-17.6,47.1-26.6,74.6-30.3C310.4,175.9,318,174.7,325.6,173.5z M489.9,485.4c9.9-0.5,20-0.4,29.8-1.5
		c19.3-2.1,38.4-5.2,57.7-7.4c7.5-0.9,11.5-5,14.3-11.4c4.5-10.4,6.1-21.4,6.4-32.6c0.8-33.7-4.8-66.5-14.8-98.5
		c-3.1-10-7.3-20.2-13.3-28.7c-5.2-7.4-12.8-13.6-20.5-18.7c-22.7-15-45.6-30-69.2-43.6c-40.1-23.2-81.6-43.7-124.8-60.3
		c-7-2.7-14.6-5.3-22-5.4c-10.5-0.1-21,1.9-31.5,3.6c-24.6,4.1-47.7,11.9-68,27c-23.4,17.4-35.8,41.2-38.7,69.8
		c-1.6,15.2,1.7,30.2,6,44.7c8.7,30.1,25.6,55.5,47,77.9c30.4,31.7,67.7,52.4,109.4,65.2C400.8,478.8,444.9,485,489.9,485.4z"/>
	<path class="st6" d="M773,197c-6.3-0.2-14.8-1.7-20.6-8.9c-6.9-8.5-5.2-19.4,2-28.5c12.6-16,29.5-23.2,49.7-22.5
		c6.8,0.3,13.5,2.1,18.9,7.3c6.7,6.5,5.6,20.2-0.4,28.8C812.5,187.4,792.1,196.9,773,197z M774.8,193.2c3-0.4,6.2-0.6,9.2-1.3
		c14.5-3.4,27.3-9.8,36-22.5c4.9-7.2,6.1-18.9-2.9-23.9c-4.3-2.4-9.4-4-14.2-4.3c-11-0.7-21.5,2.4-30.9,8
		c-8.6,5.1-16.1,11.7-18.8,21.7c-1,3.7-0.6,8.7,1.1,12.2C758.2,191.4,766.6,192.2,774.8,193.2z"/>
	<path class="st7" d="M411.6,178.5c11.1,0.5,21.8,1.1,32.6,1.5c18.1,0.7,36.2,1.8,54.3,1.8c37.2,0,73.9-3.5,109.5-15
		c25.6-8.3,49.8-19.8,72.4-34.4c30.4-19.6,62.8-34.1,98.5-40.8c19-3.6,38.1-5.9,57.4-3.6c9,1.1,18.2,2.1,26.7,5
		c15.1,5.2,22.7,17.9,24.6,32.6c1.8,13.5,1.8,27.6,0,41.1c-5.1,38.9-24.3,72.1-44.4,104.8c-17.9,29.2-38.4,56.3-61.4,81.7
		c-30.2,33.4-64.1,62.4-103.1,85.2c-10.4,6.1-21.7,10.9-32.5,16.4c-3.3,1.7-5.3,1-7.3-2.2c-6.5-10.4-9-22.1-11.7-33.7
		c-6.1-26.6-6.2-53.6-5.9-80.6c0.1-5.9,1.3-11.8,1.8-17.7c1-10.4,6.3-18.5,13.9-25.1c24.2-20.8,48.3-41.7,72.8-62.2
		c10.6-8.9,21.7-17,32.8-25.2c1.5-1.1,4.4-1.7,6.1-1.2c20.6,6.7,40.1,3,58.9-6c13.5-6.4,24.8-15.6,32.5-28.5
		c6.8-11.4,9.3-23.3,1-35.1c-6.2-8.9-15.7-12.1-25.9-13.1c-23.8-2.2-45.2,4.5-63.7,19.5c-9.7,7.8-17.8,17.1-20.7,29.8
		c-0.5,2.1-1,4.3-0.7,6.4c0.6,4.7-1.4,7.8-4.9,10.6c-21.2,17.4-41.9,35.5-63.6,52.3c-17.2,13.2-35.8,24.7-53.7,37.1
		c-10.3,7.1-20.6,4.8-31.2,0.6c-21.3-8.4-41.2-19.7-60.3-32c-34.5-22.1-68.4-44.9-102.5-67.5C413.2,180.2,412.5,179.3,411.6,178.5z
		 M637,342.4c0.8,9.5,1.8,18.4,2.3,27.3c1.1,18.2,4.3,36.1,8.8,53.8c1.4,5.3,3.8,7,8.5,4.2c12-7,24.3-13.7,35.3-22.1
		c20.1-15.5,39.8-31.5,58.5-48.5c20-18.3,39-37.7,55.5-59.3c11.5-15.1,22.7-30.6,25.8-50.2c1.8-11.5-4.1-22.5-14.9-26.6
		c-13.2-5.1-25.8-3.2-37.8,3.1c-15,7.8-29.7,15.9-44.4,24.3c-13,7.4-25.8,15-38.4,22.9c-15,9.5-29.6,19.5-44.5,29.2
		c-7.3,4.8-11.6,11.2-12.4,19.9C638.5,327.8,637.7,335.4,637,342.4z M469.1,197.3c2,2.5,3,3.9,4.2,5.1
		c14.5,13.9,31.9,23.7,49.2,33.4c16.5,9.2,33.6,17.2,50.7,25.3c8.7,4.1,17.8,5.7,26.6,0.1c18.8-12.1,37.7-24.1,56.3-36.6
		c13.4-9.1,26.4-19,39.3-28.7c6.2-4.7,13-9.1,17.7-15.1c8.3-10.6,9.2-23.7,7.9-36.6c-0.9-9.8-5.7-12.2-14.9-8.5
		c-5.5,2.2-10.7,5.3-15.9,8c-19.6,10.2-38.9,20.9-58.8,30.5c-13.2,6.4-27,12.1-41,16.3c-18.3,5.6-37,10.2-56.3,11.6
		c-16,1.1-31.8,1.7-47.5-1.9C481.3,199.1,475.9,198.4,469.1,197.3z"/>
	<path class="st8" d="M489.9,485.4c-45-0.4-89.1-6.6-132.1-19.9c-41.7-12.9-79-33.5-109.4-65.2c-21.4-22.4-38.3-47.8-47-77.9
		c-4.2-14.5-7.5-29.5-6-44.7c3-28.6,15.3-52.4,38.7-69.8c20.2-15.1,43.4-22.9,68-27c10.4-1.7,21-3.7,31.5-3.6c7.4,0.1,15,2.7,22,5.4
		c43.3,16.6,84.7,37.2,124.8,60.3c23.6,13.6,46.4,28.6,69.2,43.6c7.7,5.1,15.3,11.3,20.5,18.7c5.9,8.5,10.1,18.7,13.3,28.7
		c10,32,15.7,64.8,14.8,98.5c-0.3,11.2-2,22.2-6.4,32.6c-2.7,6.4-6.8,10.5-14.3,11.4c-19.3,2.2-38.4,5.2-57.7,7.4
		C509.9,485,499.9,484.9,489.9,485.4z M515.5,467.9c12.8,0.9,27.4-0.5,41.7-4.9c10.8-3.3,21.7-12.3,21.1-26.7
		c-0.2-5.9-0.1-11.8,0-17.7c0.3-24-2.7-47.6-9.2-70.7c-5.8-20.5-15.4-38.5-33.9-50.5c-11.6-7.6-23.1-15.4-35.2-22.3
		c-19-10.9-38.1-21.4-57.5-31.4c-26.7-13.7-53.6-27-80.5-40.2c-8.9-4.3-18-8.8-27.5-11.2c-15.2-3.8-30.4-0.9-44.9,4.2
		c-18.8,6.7-35.8,16.4-48.7,32.3c-7.8,9.7-13.9,20-16.7,32.3c-2.5,10.9-3.8,21.9-1.9,33c1.5,8.6,2.4,17.4,5.1,25.6
		c2.9,8.7,7.1,17.1,11.5,25.3c10.6,19.6,25.9,35.2,43.2,48.8c18.8,14.8,39.5,26.7,61.6,35.8c18.4,7.6,36.9,14.9,55.9,20.7
		c16.9,5.1,34.4,8.2,51.7,11.8C471.7,466.3,492.4,468.4,515.5,467.9z"/>
	<path class="st9" d="M774.8,193.2c-8.2-1-16.6-1.9-20.6-10.2c-1.7-3.5-2.1-8.4-1.1-12.2c2.7-10,10.3-16.6,18.8-21.7
		c9.4-5.6,19.9-8.7,30.9-8c4.8,0.3,10,2,14.2,4.3c9,5,7.8,16.7,2.9,23.9c-8.7,12.7-21.5,19.1-36,22.5
		C780.9,192.6,777.8,192.8,774.8,193.2z"/>
	<path class="st10" d="M637,342.4c0.7-7,1.5-14.6,2.3-22.2c0.8-8.7,5.1-15.2,12.4-19.9c14.9-9.7,29.5-19.7,44.5-29.2
		c12.6-8,25.5-15.5,38.4-22.9c14.7-8.3,29.4-16.5,44.4-24.3c12-6.2,24.6-8.1,37.8-3.1c10.8,4.2,16.7,15.2,14.9,26.6
		c-3.1,19.7-14.3,35.1-25.8,50.2c-16.5,21.6-35.5,41-55.5,59.3c-18.7,17.1-38.5,33-58.5,48.5c-10.9,8.5-23.3,15.1-35.3,22.1
		c-4.7,2.7-7.2,1.1-8.5-4.2c-4.5-17.7-7.7-35.5-8.8-53.8C638.7,360.8,637.8,351.9,637,342.4z"/>
	<path class="st10" d="M469.1,197.3c6.8,1.1,12.2,1.7,17.4,2.9c15.7,3.6,31.6,3,47.5,1.9c19.3-1.4,38-6,56.3-11.6
		c14-4.3,27.8-10,41-16.3c19.9-9.6,39.2-20.3,58.8-30.5c5.3-2.8,10.4-5.9,15.9-8c9.3-3.7,14-1.2,14.9,8.5c1.2,12.9,0.4,26-7.9,36.6
		c-4.7,6-11.5,10.4-17.7,15.1c-13,9.8-25.9,19.6-39.3,28.7c-18.5,12.6-37.5,24.5-56.3,36.6c-8.8,5.7-17.9,4.1-26.6-0.1
		c-17-8.1-34.2-16.1-50.7-25.3c-17.3-9.7-34.7-19.5-49.2-33.4C472.1,201.2,471.1,199.8,469.1,197.3z"/>
	<path class="st10" d="M515.5,467.9c-23.1,0.5-43.8-1.6-64.3-5.8c-17.3-3.6-34.8-6.7-51.7-11.8c-19-5.8-37.5-13.2-55.9-20.7
		c-22.1-9.1-42.8-21-61.6-35.8c-17.3-13.6-32.7-29.2-43.2-48.8c-4.4-8.1-8.6-16.5-11.5-25.3c-2.7-8.2-3.6-17-5.1-25.6
		c-1.9-11.1-0.6-22.1,1.9-33c2.8-12.2,8.9-22.6,16.7-32.3c12.9-15.9,29.9-25.6,48.7-32.3c14.5-5.1,29.7-8.1,44.9-4.2
		c9.5,2.4,18.6,6.9,27.5,11.2c27,13.2,53.9,26.4,80.5,40.2c19.4,10,38.6,20.5,57.5,31.4c12,6.9,23.5,14.8,35.2,22.3
		c18.4,12,28.1,29.9,33.9,50.5c6.5,23.1,9.5,46.7,9.2,70.7c-0.1,5.9-0.2,11.8,0,17.7c0.6,14.4-10.4,23.4-21.1,26.7
		C542.9,467.4,528.3,468.8,515.5,467.9z"/>
</g>
</svg>
