<?xml version="1.0" encoding="UTF-8"?>
<svg id="Layer_1" data-name="Layer 1" xmlns="http://www.w3.org/2000/svg" viewBox="0 0 452.38 123.79">
  <defs>
    <style>
      .cls-1, .cls-2, .cls-3, .cls-4, .cls-5 {
        stroke-width: 0px;
      }

      .cls-2 {
        fill: gray;
      }

      .cls-3 {
        fill: #413f40;
      }

      .cls-4 {
        fill: #d1cfc8;
      }

      .cls-5 {
        fill: #fff;
      }
    </style>
  </defs>
  <g>
    <rect class="cls-4" x="310.99" width="141.39" height="123.79"/>
    <polygon class="cls-2" points="443.89 0 443.89 115.13 310.99 115.13 310.99 106.2 434.96 106.2 434.96 0 443.89 0"/>
    <polygon class="cls-5" points="310.98 .02 452.41 .02 452.41 8.91 319.87 8.91 319.87 123.78 310.98 123.78 310.98 .02"/>
    <polygon class="cls-3" points="452.38 0 452.38 123.79 310.99 123.79 310.99 114.86 443.53 114.86 443.53 0 452.38 0"/>
  </g>
  <g>
    <rect class="cls-4" x="141.43" width="141.39" height="123.79"/>
    <polygon class="cls-2" points="274.33 0 274.33 115.13 141.43 115.13 141.43 106.2 265.4 106.2 265.4 0 274.33 0"/>
    <polygon class="cls-5" points="141.42 .02 282.85 .02 282.85 8.91 150.31 8.91 150.31 123.78 141.42 123.78 141.42 .02"/>
    <polygon class="cls-3" points="282.82 0 282.82 123.79 141.43 123.79 141.43 114.86 273.97 114.86 273.97 0 282.82 0"/>
  </g>
  <g>
    <rect class="cls-4" width="141.39" height="123.79"/>
    <polygon class="cls-2" points="132.9 0 132.9 115.13 0 115.13 0 106.2 123.97 106.2 123.97 0 132.9 0"/>
    <polygon class="cls-5" points="0 .02 141.42 .02 141.42 8.91 8.88 8.91 8.88 123.78 0 123.78 0 .02"/>
    <polygon class="cls-3" points="141.39 0 141.39 123.79 0 123.79 0 114.86 132.55 114.86 132.55 0 141.39 0"/>
  </g>
  <polygon class="cls-1" points="343.87 28.02 343.87 36.41 352.26 36.41 352.26 44.81 360.65 44.81 360.65 53.2 369.05 53.2 369.05 61.59 360.65 61.59 360.65 69.98 352.26 69.98 352.26 78.37 343.87 78.37 343.87 86.76 360.65 86.76 360.65 78.37 369.05 78.37 369.05 69.98 377.44 69.98 385.83 69.98 385.83 78.37 394.22 78.37 394.22 86.76 402.61 86.76 411 86.76 411 78.37 402.61 78.37 402.61 69.98 394.22 69.98 394.22 61.59 385.83 61.59 385.83 53.2 394.22 53.2 394.22 44.81 402.61 44.81 402.61 36.41 411 36.41 411 28.02 394.22 28.02 394.22 36.41 385.83 36.41 385.83 44.81 377.44 44.81 369.05 44.81 369.05 36.41 360.65 36.41 360.65 28.02 343.87 28.02"/>
  <g>
    <path class="cls-1" d="m194.44,17.6v44.21h26.53v8.84h26.53V17.6h-53.05Zm44.21,44.21h-8.84v-17.68h-26.62v-8.93h35.46v26.62Z"/>
    <path class="cls-1" d="m176.76,44.12v53.05h53.05v-53.05h-53.05Zm44.21,44.3h-35.46v-26.62h35.46v26.62Z"/>
  </g>
  <rect class="cls-1" x="39.87" y="79.6" width="53.17" height="17.65" transform="translate(132.9 176.85) rotate(180)"/>
</svg>