<?xml version="1.0" encoding="utf-8"?>
<!-- Generator: Adobe Illustrator 27.7.0, SVG Export Plug-In . SVG Version: 6.00 Build 0)  -->
<svg version="1.1" id="Layer_2_00000084499955153391796220000002845418540643613335_"
	 xmlns="http://www.w3.org/2000/svg" xmlns:xlink="http://www.w3.org/1999/xlink" x="0px" y="0px" viewBox="0 0 195.9 336.1"
	 style="enable-background:new 0 0 195.9 336.1;" xml:space="preserve">
<style type="text/css">
	.st0{fill:#F06592;}
	.st1{opacity:0.2;fill:#010101;enable-background:new    ;}
	.st2{fill:#FFFFFF;}
	.st3{fill:#FFB2EA;}
	.st4{fill:#FFD700;}
</style>
<path class="st0" d="M76.7,50.8c-1.7-1.3-3.7-1.9-5.8-1.2c-3.6,1-6,3.4-7.2,6.8c-1.8,5.2-0.7,10.1,2.6,14.3c3.7,4.7,9.2,4.2,12.1-1
	c1.6-2.8,2.5-5.9,2.5-8.9C80.9,56.7,79.9,53.3,76.7,50.8z M71.4,58.4c-0.5,1.2-1.2,2.2-2.2,3.2c-0.3,0.3-0.8,0.5-1.2,0.7
	c-1.3,0.5-2.6,0-3-1.4c-0.2-0.8-0.3-1.6-0.3-2.4c0-2.1,0.9-4,2.3-5.6c0.5-0.6,1.3-1,2-1.1c2-0.5,3.4,0.8,3.4,3
	C72.2,56.1,71.9,57.3,71.4,58.4z M138.4,58.4c-1.8-1.2-3.5-2.5-5.5-3.5c-0.8-0.4-1.6-0.7-2.5-0.8c0,0,0,0-0.1,0
	c-1.4-0.2-2.9-0.1-4.4,0.2c-3.9,1-7.1,3.1-9.7,6.1c-0.5,0.6-0.8,1.4-0.9,2.1c-0.1,1.5,0.2,3,0.9,4.3c0.6,1.1,1.6,1.3,2.5,0.3
	c1.2-1.4,2.3-2.9,3.4-4.3c1.1-1.4,2.2-3,3.5-4.2c2.7-2.6,5.8-3,9.2-1.4c1.2,0.6,2.4,1.2,3.7,1.8C138.4,58.8,138.5,58.5,138.4,58.4z
	 M138.4,58.4c-1.8-1.2-3.5-2.5-5.5-3.5c-0.8-0.4-1.6-0.7-2.5-0.8c0,0,0,0-0.1,0c-1.4-0.2-2.9-0.1-4.4,0.2c-3.9,1-7.1,3.1-9.7,6.1
	c-0.5,0.6-0.8,1.4-0.9,2.1c-0.1,1.5,0.2,3,0.9,4.3c0.6,1.1,1.6,1.3,2.5,0.3c1.2-1.4,2.3-2.9,3.4-4.3c1.1-1.4,2.2-3,3.5-4.2
	c2.7-2.6,5.8-3,9.2-1.4c1.2,0.6,2.4,1.2,3.7,1.8C138.4,58.8,138.5,58.5,138.4,58.4z M76.7,50.8c-1.7-1.3-3.7-1.9-5.8-1.2
	c-3.6,1-6,3.4-7.2,6.8c-1.8,5.2-0.7,10.1,2.6,14.3c3.7,4.7,9.2,4.2,12.1-1c1.6-2.8,2.5-5.9,2.5-8.9C80.9,56.7,79.9,53.3,76.7,50.8z
	 M71.4,58.4c-0.5,1.2-1.2,2.2-2.2,3.2c-0.3,0.3-0.8,0.5-1.2,0.7c-1.3,0.5-2.6,0-3-1.4c-0.2-0.8-0.3-1.6-0.3-2.4c0-2.1,0.9-4,2.3-5.6
	c0.5-0.6,1.3-1,2-1.1c2-0.5,3.4,0.8,3.4,3C72.2,56.1,71.9,57.3,71.4,58.4z M76.7,50.8c-1.7-1.3-3.7-1.9-5.8-1.2
	c-3.6,1-6,3.4-7.2,6.8c-1.8,5.2-0.7,10.1,2.6,14.3c3.7,4.7,9.2,4.2,12.1-1c1.6-2.8,2.5-5.9,2.5-8.9C80.9,56.7,79.9,53.3,76.7,50.8z
	 M71.4,58.4c-0.5,1.2-1.2,2.2-2.2,3.2c-0.3,0.3-0.8,0.5-1.2,0.7c-1.3,0.5-2.6,0-3-1.4c-0.2-0.8-0.3-1.6-0.3-2.4c0-2.1,0.9-4,2.3-5.6
	c0.5-0.6,1.3-1,2-1.1c2-0.5,3.4,0.8,3.4,3C72.2,56.1,71.9,57.3,71.4,58.4z M83.5,177.5L83.5,177.5L83.5,177.5
	C83.5,177.5,83.5,177.6,83.5,177.5c0,0.1-0.1,0.1-0.1,0.1c0,0,0,0,0,0L83.5,177.5C83.5,177.6,83.5,177.6,83.5,177.5
	C83.5,177.5,83.5,177.5,83.5,177.5z M83.5,177.5C83.6,177.5,83.6,177.5,83.5,177.5c0.5-0.3,0.5-0.7,0.5-1.2v-0.2
	C83.5,176.5,83.4,177,83.5,177.5z M84.3,175.9c-0.1,0-0.1,0.1-0.1,0.1C84.2,176,84.2,176,84.3,175.9
	C84.3,175.9,84.3,175.9,84.3,175.9C84.3,175.8,84.3,175.8,84.3,175.9z M93.4,205.3c-0.2-0.5-0.6-1-1-1.4c-3.7-4.6-6.1-9.7-6.4-15.4
	c0-0.8,0-1.7,0-2.6c0-0.1,0-0.2,0-0.4c0,0,0-0.1,0-0.1c0-0.3-0.1-0.6-0.6-0.8c-1.5,0.5-1.7,2.7-3.6,3.7c0-0.7,0-1.3,0-2
	c0-0.3,0-0.5,0.1-0.8c0.1-0.8,0.2-1.5,0.3-2.2c0.4-1.8,0.7-3.6,1.1-5.4c0,0,0-0.1,0-0.1c-0.3,0.4-0.7,0.7-0.9,1.1
	c-1.1,2.7-1.8,5.5-2.1,8.3c0,0.4,0,0.7-0.1,1.1c0,0.4,0,0.7-0.1,1.1c0,0.6-0.1,1.3-0.1,2v0.1c0,0.5,0.2,1,1,1.1
	c1-0.5,1.1-1.6,1.5-2.5c0.5-0.8,0.6-2,1.9-2.4c0.2,1.6,0.4,3.2,0.7,4.8c0.8,4.5,2.6,8.6,5.1,12.3c0.4,0.6,1.1,1.2,1.7,1.7
	c0.2,0.1,0.7,0,0.9-0.2c0,0,0.1-0.1,0.2-0.1c0,0,0,0,0,0C93.3,205.8,93.5,205.5,93.4,205.3z M100.3,205.6c-1.3-1.7-2.5-3.5-3.8-5.2
	c-0.2-0.2-0.5-0.3-0.8-0.4c0.9,2,1.9,4,2.9,6c0.2,0.5,0.8,0.8,1.2,1.2c0.1,0.1,0.5,0,0.6-0.1c0.2-0.1,0.3-0.4,0.3-0.6
	C100.6,206.2,100.5,205.8,100.3,205.6z M138.4,58.4c-1.8-1.2-3.5-2.5-5.5-3.5c-0.8-0.4-1.6-0.7-2.5-0.8c0,0,0,0-0.1,0
	c-1.4-0.2-2.9-0.1-4.4,0.2c-3.9,1-7.1,3.1-9.7,6.1c-0.5,0.6-0.8,1.4-0.9,2.1c-0.1,1.5,0.2,3,0.9,4.3c0.6,1.1,1.6,1.3,2.5,0.3
	c1.2-1.4,2.3-2.9,3.4-4.3c1.1-1.4,2.2-3,3.5-4.2c2.7-2.6,5.8-3,9.2-1.4c1.2,0.6,2.4,1.2,3.7,1.8C138.4,58.8,138.5,58.5,138.4,58.4z
	 M138.4,58.4c-1.8-1.2-3.5-2.5-5.5-3.5c-0.8-0.4-1.6-0.7-2.5-0.8c0,0,0,0-0.1,0c-1.4-0.2-2.9-0.1-4.4,0.2c-3.9,1-7.1,3.1-9.7,6.1
	c-0.5,0.6-0.8,1.4-0.9,2.1c-0.1,1.5,0.2,3,0.9,4.3c0.6,1.1,1.6,1.3,2.5,0.3c1.2-1.4,2.3-2.9,3.4-4.3c1.1-1.4,2.2-3,3.5-4.2
	c2.7-2.6,5.8-3,9.2-1.4c1.2,0.6,2.4,1.2,3.7,1.8C138.4,58.8,138.5,58.5,138.4,58.4z M76.7,50.8c-1.7-1.3-3.7-1.9-5.8-1.2
	c-3.6,1-6,3.4-7.2,6.8c-1.8,5.2-0.7,10.1,2.6,14.3c3.7,4.7,9.2,4.2,12.1-1c1.6-2.8,2.5-5.9,2.5-8.9C80.9,56.7,79.9,53.3,76.7,50.8z
	 M71.4,58.4c-0.5,1.2-1.2,2.2-2.2,3.2c-0.3,0.3-0.8,0.5-1.2,0.7c-1.3,0.5-2.6,0-3-1.4c-0.2-0.8-0.3-1.6-0.3-2.4c0-2.1,0.9-4,2.3-5.6
	c0.5-0.6,1.3-1,2-1.1c2-0.5,3.4,0.8,3.4,3C72.2,56.1,71.9,57.3,71.4,58.4z M100.3,205.6c-1.3-1.7-2.5-3.5-3.8-5.2
	c-0.2-0.2-0.5-0.3-0.8-0.4c0.9,2,1.9,4,2.9,6c0.2,0.5,0.8,0.8,1.2,1.2c0.1,0.1,0.5,0,0.6-0.1c0.2-0.1,0.3-0.4,0.3-0.6
	C100.6,206.2,100.5,205.8,100.3,205.6z M93.4,205.3c-0.2-0.5-0.6-1-1-1.4c-3.7-4.6-6.1-9.7-6.4-15.4c0-0.8,0-1.7,0-2.6
	c0-0.1,0-0.2,0-0.4c0,0,0-0.1,0-0.1c0-0.3-0.1-0.6-0.6-0.8c-1.5,0.5-1.7,2.7-3.6,3.7c0-0.7,0-1.3,0-2c0-0.3,0-0.5,0.1-0.8
	c0.1-0.8,0.2-1.5,0.3-2.2c0.4-1.8,0.7-3.6,1.1-5.4c0,0,0-0.1,0-0.1c-0.3,0.4-0.7,0.7-0.9,1.1c-1.1,2.7-1.8,5.5-2.1,8.3
	c0,0.4,0,0.7-0.1,1.1c0,0.4,0,0.7-0.1,1.1c0,0.6-0.1,1.3-0.1,2v0.1c0,0.5,0.2,1,1,1.1c1-0.5,1.1-1.6,1.5-2.5c0.5-0.8,0.6-2,1.9-2.4
	c0.2,1.6,0.4,3.2,0.7,4.8c0.8,4.5,2.6,8.6,5.1,12.3c0.4,0.6,1.1,1.2,1.7,1.7c0.2,0.1,0.7,0,0.9-0.2c0,0,0.1-0.1,0.2-0.1c0,0,0,0,0,0
	C93.3,205.8,93.5,205.5,93.4,205.3z M84.3,175.9c-0.1,0-0.1,0.1-0.1,0.1C84.2,176,84.2,176,84.3,175.9
	C84.3,175.9,84.3,175.9,84.3,175.9C84.3,175.8,84.3,175.8,84.3,175.9z M83.5,177.5C83.6,177.5,83.6,177.5,83.5,177.5
	c0.5-0.3,0.5-0.7,0.5-1.2v-0.2C83.5,176.5,83.4,177,83.5,177.5z M83.5,177.5L83.5,177.5L83.5,177.5
	C83.5,177.5,83.5,177.6,83.5,177.5c0,0.1-0.1,0.1-0.1,0.1c0,0,0,0,0,0L83.5,177.5C83.5,177.6,83.5,177.6,83.5,177.5
	C83.5,177.5,83.5,177.5,83.5,177.5z M76.7,50.8c-1.7-1.3-3.7-1.9-5.8-1.2c-3.6,1-6,3.4-7.2,6.8c-1.8,5.2-0.7,10.1,2.6,14.3
	c3.7,4.7,9.2,4.2,12.1-1c1.6-2.8,2.5-5.9,2.5-8.9C80.9,56.7,79.9,53.3,76.7,50.8z M71.4,58.4c-0.5,1.2-1.2,2.2-2.2,3.2
	c-0.3,0.3-0.8,0.5-1.2,0.7c-1.3,0.5-2.6,0-3-1.4c-0.2-0.8-0.3-1.6-0.3-2.4c0-2.1,0.9-4,2.3-5.6c0.5-0.6,1.3-1,2-1.1
	c2-0.5,3.4,0.8,3.4,3C72.2,56.1,71.9,57.3,71.4,58.4z M83.5,177.5L83.5,177.5L83.5,177.5C83.5,177.5,83.5,177.6,83.5,177.5
	c0,0.1-0.1,0.1-0.1,0.1c0,0,0,0,0,0L83.5,177.5C83.5,177.6,83.5,177.6,83.5,177.5C83.5,177.5,83.5,177.5,83.5,177.5z M83.5,177.5
	C83.6,177.5,83.6,177.5,83.5,177.5c0.5-0.3,0.5-0.7,0.5-1.2v-0.2C83.5,176.5,83.4,177,83.5,177.5z M84.3,175.9
	c-0.1,0-0.1,0.1-0.1,0.1C84.2,176,84.2,176,84.3,175.9C84.3,175.9,84.3,175.9,84.3,175.9C84.3,175.8,84.3,175.8,84.3,175.9z
	 M93.4,205.3c-0.2-0.5-0.6-1-1-1.4c-3.7-4.6-6.1-9.7-6.4-15.4c0-0.8,0-1.7,0-2.6c0-0.1,0-0.2,0-0.4c0,0,0-0.1,0-0.1
	c0-0.3-0.1-0.6-0.6-0.8c-1.5,0.5-1.7,2.7-3.6,3.7c0-0.7,0-1.3,0-2c0-0.3,0-0.5,0.1-0.8c0.1-0.8,0.2-1.5,0.3-2.2
	c0.4-1.8,0.7-3.6,1.1-5.4c0,0,0-0.1,0-0.1c-0.3,0.4-0.7,0.7-0.9,1.1c-1.1,2.7-1.8,5.5-2.1,8.3c0,0.4,0,0.7-0.1,1.1
	c0,0.4,0,0.7-0.1,1.1c0,0.6-0.1,1.3-0.1,2v0.1c0,0.5,0.2,1,1,1.1c1-0.5,1.1-1.6,1.5-2.5c0.5-0.8,0.6-2,1.9-2.4
	c0.2,1.6,0.4,3.2,0.7,4.8c0.8,4.5,2.6,8.6,5.1,12.3c0.4,0.6,1.1,1.2,1.7,1.7c0.2,0.1,0.7,0,0.9-0.2c0,0,0.1-0.1,0.2-0.1c0,0,0,0,0,0
	C93.3,205.8,93.5,205.5,93.4,205.3z M100.3,205.6c-1.3-1.7-2.5-3.5-3.8-5.2c-0.2-0.2-0.5-0.3-0.8-0.4c0.9,2,1.9,4,2.9,6
	c0.2,0.5,0.8,0.8,1.2,1.2c0.1,0.1,0.5,0,0.6-0.1c0.2-0.1,0.3-0.4,0.3-0.6C100.6,206.2,100.5,205.8,100.3,205.6z M138.4,58.4
	c-1.8-1.2-3.5-2.5-5.5-3.5c-0.8-0.4-1.6-0.7-2.5-0.8c0,0,0,0-0.1,0c-1.4-0.2-2.9-0.1-4.4,0.2c-3.9,1-7.1,3.1-9.7,6.1
	c-0.5,0.6-0.8,1.4-0.9,2.1c-0.1,1.5,0.2,3,0.9,4.3c0.6,1.1,1.6,1.3,2.5,0.3c1.2-1.4,2.3-2.9,3.4-4.3c1.1-1.4,2.2-3,3.5-4.2
	c2.7-2.6,5.8-3,9.2-1.4c1.2,0.6,2.4,1.2,3.7,1.8C138.4,58.8,138.5,58.5,138.4,58.4z M138.4,58.4c-1.8-1.2-3.5-2.5-5.5-3.5
	c-0.8-0.4-1.6-0.7-2.5-0.8c0,0,0,0-0.1,0c-1.4-0.2-2.9-0.1-4.4,0.2c-3.9,1-7.1,3.1-9.7,6.1c-0.5,0.6-0.8,1.4-0.9,2.1
	c-0.1,1.5,0.2,3,0.9,4.3c0.6,1.1,1.6,1.3,2.5,0.3c1.2-1.4,2.3-2.9,3.4-4.3c1.1-1.4,2.2-3,3.5-4.2c2.7-2.6,5.8-3,9.2-1.4
	c1.2,0.6,2.4,1.2,3.7,1.8C138.4,58.8,138.5,58.5,138.4,58.4z M76.7,50.8c-1.7-1.3-3.7-1.9-5.8-1.2c-3.6,1-6,3.4-7.2,6.8
	c-1.8,5.2-0.7,10.1,2.6,14.3c3.7,4.7,9.2,4.2,12.1-1c1.6-2.8,2.5-5.9,2.5-8.9C80.9,56.7,79.9,53.3,76.7,50.8z M71.4,58.4
	c-0.5,1.2-1.2,2.2-2.2,3.2c-0.3,0.3-0.8,0.5-1.2,0.7c-1.3,0.5-2.6,0-3-1.4c-0.2-0.8-0.3-1.6-0.3-2.4c0-2.1,0.9-4,2.3-5.6
	c0.5-0.6,1.3-1,2-1.1c2-0.5,3.4,0.8,3.4,3C72.2,56.1,71.9,57.3,71.4,58.4z M100.3,205.6c-1.3-1.7-2.5-3.5-3.8-5.2
	c-0.2-0.2-0.5-0.3-0.8-0.4c0.9,2,1.9,4,2.9,6c0.2,0.5,0.8,0.8,1.2,1.2c0.1,0.1,0.5,0,0.6-0.1c0.2-0.1,0.3-0.4,0.3-0.6
	C100.6,206.2,100.5,205.8,100.3,205.6z M93.4,205.3c-0.2-0.5-0.6-1-1-1.4c-3.7-4.6-6.1-9.7-6.4-15.4c0-0.8,0-1.7,0-2.6
	c0-0.1,0-0.2,0-0.4c0,0,0-0.1,0-0.1c0-0.3-0.1-0.6-0.6-0.8c-1.5,0.5-1.7,2.7-3.6,3.7c0-0.7,0-1.3,0-2c0-0.3,0-0.5,0.1-0.8
	c0.1-0.8,0.2-1.5,0.3-2.2c0.4-1.8,0.7-3.6,1.1-5.4c0,0,0-0.1,0-0.1c-0.3,0.4-0.7,0.7-0.9,1.1c-1.1,2.7-1.8,5.5-2.1,8.3
	c0,0.4,0,0.7-0.1,1.1c0,0.4,0,0.7-0.1,1.1c0,0.6-0.1,1.3-0.1,2v0.1c0,0.5,0.2,1,1,1.1c1-0.5,1.1-1.6,1.5-2.5c0.5-0.8,0.6-2,1.9-2.4
	c0.2,1.6,0.4,3.2,0.7,4.8c0.8,4.5,2.6,8.6,5.1,12.3c0.4,0.6,1.1,1.2,1.7,1.7c0.2,0.1,0.7,0,0.9-0.2c0,0,0.1-0.1,0.2-0.1c0,0,0,0,0,0
	C93.3,205.8,93.5,205.5,93.4,205.3z M84.3,175.9c-0.1,0-0.1,0.1-0.1,0.1C84.2,176,84.2,176,84.3,175.9
	C84.3,175.9,84.3,175.9,84.3,175.9C84.3,175.8,84.3,175.8,84.3,175.9z M83.5,177.5C83.6,177.5,83.6,177.5,83.5,177.5
	c0.5-0.3,0.5-0.7,0.5-1.2v-0.2C83.5,176.5,83.4,177,83.5,177.5z M83.5,177.5L83.5,177.5L83.5,177.5
	C83.5,177.5,83.5,177.6,83.5,177.5c0,0.1-0.1,0.1-0.1,0.1c0,0,0,0,0,0L83.5,177.5C83.5,177.6,83.5,177.6,83.5,177.5
	C83.5,177.5,83.5,177.5,83.5,177.5z M36.3,307.6c-0.5,0.4-0.7,0.6-1.1,1c0,0,0,0,0,0c0,0,0,0-0.1,0.1c0.5,0.1,0.8,0,1-0.4
	c0-0.1,0.1-0.1,0.1-0.2c0-0.1,0-0.1,0-0.2C36.3,307.8,36.3,307.8,36.3,307.6C36.3,307.7,36.3,307.6,36.3,307.6L36.3,307.6z
	 M76.7,50.8c-1.7-1.3-3.7-1.9-5.8-1.2c-3.6,1-6,3.4-7.2,6.8c-1.8,5.2-0.7,10.1,2.6,14.3c3.7,4.7,9.2,4.2,12.1-1
	c1.6-2.8,2.5-5.9,2.5-8.9C80.9,56.7,79.9,53.3,76.7,50.8z M71.4,58.4c-0.5,1.2-1.2,2.2-2.2,3.2c-0.3,0.3-0.8,0.5-1.2,0.7
	c-1.3,0.5-2.6,0-3-1.4c-0.2-0.8-0.3-1.6-0.3-2.4c0-2.1,0.9-4,2.3-5.6c0.5-0.6,1.3-1,2-1.1c2-0.5,3.4,0.8,3.4,3
	C72.2,56.1,71.9,57.3,71.4,58.4z M83.5,177.5L83.5,177.5L83.5,177.5C83.5,177.5,83.5,177.6,83.5,177.5c0,0.1-0.1,0.1-0.1,0.1
	c0,0,0,0,0,0L83.5,177.5C83.5,177.6,83.5,177.6,83.5,177.5C83.5,177.5,83.5,177.5,83.5,177.5z M83.5,177.5
	C83.6,177.5,83.6,177.5,83.5,177.5c0.5-0.3,0.5-0.7,0.5-1.2v-0.2C83.5,176.5,83.4,177,83.5,177.5z M84.3,175.9
	c-0.1,0-0.1,0.1-0.1,0.1C84.2,176,84.2,176,84.3,175.9C84.3,175.9,84.3,175.9,84.3,175.9C84.3,175.8,84.3,175.8,84.3,175.9z
	 M93.4,205.3c-0.2-0.5-0.6-1-1-1.4c-3.7-4.6-6.1-9.7-6.4-15.4c0-0.8,0-1.7,0-2.6c0-0.1,0-0.2,0-0.4c0,0,0-0.1,0-0.1
	c0-0.3-0.1-0.6-0.6-0.8c-1.5,0.5-1.7,2.7-3.6,3.7c0-0.7,0-1.3,0-2c0-0.3,0-0.5,0.1-0.8c0.1-0.8,0.2-1.5,0.3-2.2
	c0.4-1.8,0.7-3.6,1.1-5.4c0,0,0-0.1,0-0.1c-0.3,0.4-0.7,0.7-0.9,1.1c-1.1,2.7-1.8,5.5-2.1,8.3c0,0.4,0,0.7-0.1,1.1
	c0,0.4,0,0.7-0.1,1.1c0,0.6-0.1,1.3-0.1,2v0.1c0,0.5,0.2,1,1,1.1c1-0.5,1.1-1.6,1.5-2.5c0.5-0.8,0.6-2,1.9-2.4
	c0.2,1.6,0.4,3.2,0.7,4.8c0.8,4.5,2.6,8.6,5.1,12.3c0.4,0.6,1.1,1.2,1.7,1.7c0.2,0.1,0.7,0,0.9-0.2c0,0,0.1-0.1,0.2-0.1c0,0,0,0,0,0
	C93.3,205.8,93.5,205.5,93.4,205.3z M100.3,205.6c-1.3-1.7-2.5-3.5-3.8-5.2c-0.2-0.2-0.5-0.3-0.8-0.4c0.9,2,1.9,4,2.9,6
	c0.2,0.5,0.8,0.8,1.2,1.2c0.1,0.1,0.5,0,0.6-0.1c0.2-0.1,0.3-0.4,0.3-0.6C100.6,206.2,100.5,205.8,100.3,205.6z M138.4,58.4
	c-1.8-1.2-3.5-2.5-5.5-3.5c-0.8-0.4-1.6-0.7-2.5-0.8c0,0,0,0-0.1,0c-1.4-0.2-2.9-0.1-4.4,0.2c-3.9,1-7.1,3.1-9.7,6.1
	c-0.5,0.6-0.8,1.4-0.9,2.1c-0.1,1.5,0.2,3,0.9,4.3c0.6,1.1,1.6,1.3,2.5,0.3c1.2-1.4,2.3-2.9,3.4-4.3c1.1-1.4,2.2-3,3.5-4.2
	c2.7-2.6,5.8-3,9.2-1.4c1.2,0.6,2.4,1.2,3.7,1.8C138.4,58.8,138.5,58.5,138.4,58.4z M138.4,58.4c-1.8-1.2-3.5-2.5-5.5-3.5
	c-0.8-0.4-1.6-0.7-2.5-0.8c0,0,0,0-0.1,0c-1.4-0.2-2.9-0.1-4.4,0.2c-3.9,1-7.1,3.1-9.7,6.1c-0.5,0.6-0.8,1.4-0.9,2.1
	c-0.1,1.5,0.2,3,0.9,4.3c0.6,1.1,1.6,1.3,2.5,0.3c1.2-1.4,2.3-2.9,3.4-4.3c1.1-1.4,2.2-3,3.5-4.2c2.7-2.6,5.8-3,9.2-1.4
	c1.2,0.6,2.4,1.2,3.7,1.8C138.4,58.8,138.5,58.5,138.4,58.4z M76.7,50.8c-1.7-1.3-3.7-1.9-5.8-1.2c-3.6,1-6,3.4-7.2,6.8
	c-1.8,5.2-0.7,10.1,2.6,14.3c3.7,4.7,9.2,4.2,12.1-1c1.6-2.8,2.5-5.9,2.5-8.9C80.9,56.7,79.9,53.3,76.7,50.8z M71.4,58.4
	c-0.5,1.2-1.2,2.2-2.2,3.2c-0.3,0.3-0.8,0.5-1.2,0.7c-1.3,0.5-2.6,0-3-1.4c-0.2-0.8-0.3-1.6-0.3-2.4c0-2.1,0.9-4,2.3-5.6
	c0.5-0.6,1.3-1,2-1.1c2-0.5,3.4,0.8,3.4,3C72.2,56.1,71.9,57.3,71.4,58.4z M100.3,205.6c-1.3-1.7-2.5-3.5-3.8-5.2
	c-0.2-0.2-0.5-0.3-0.8-0.4c0.9,2,1.9,4,2.9,6c0.2,0.5,0.8,0.8,1.2,1.2c0.1,0.1,0.5,0,0.6-0.1c0.2-0.1,0.3-0.4,0.3-0.6
	C100.6,206.2,100.5,205.8,100.3,205.6z M93.4,205.3c-0.2-0.5-0.6-1-1-1.4c-3.7-4.6-6.1-9.7-6.4-15.4c0-0.8,0-1.7,0-2.6
	c0-0.1,0-0.2,0-0.4c0,0,0-0.1,0-0.1c0-0.3-0.1-0.6-0.6-0.8c-1.5,0.5-1.7,2.7-3.6,3.7c0-0.7,0-1.3,0-2c0-0.3,0-0.5,0.1-0.8
	c0.1-0.8,0.2-1.5,0.3-2.2c0.4-1.8,0.7-3.6,1.1-5.4c0,0,0-0.1,0-0.1c-0.3,0.4-0.7,0.7-0.9,1.1c-1.1,2.7-1.8,5.5-2.1,8.3
	c0,0.4,0,0.7-0.1,1.1c0,0.4,0,0.7-0.1,1.1c0,0.6-0.1,1.3-0.1,2v0.1c0,0.5,0.2,1,1,1.1c1-0.5,1.1-1.6,1.5-2.5c0.5-0.8,0.6-2,1.9-2.4
	c0.2,1.6,0.4,3.2,0.7,4.8c0.8,4.5,2.6,8.6,5.1,12.3c0.4,0.6,1.1,1.2,1.7,1.7c0.2,0.1,0.7,0,0.9-0.2c0,0,0.1-0.1,0.2-0.1c0,0,0,0,0,0
	C93.3,205.8,93.5,205.5,93.4,205.3z M84.3,175.9c-0.1,0-0.1,0.1-0.1,0.1C84.2,176,84.2,176,84.3,175.9
	C84.3,175.9,84.3,175.9,84.3,175.9C84.3,175.8,84.3,175.8,84.3,175.9z M83.5,177.5C83.6,177.5,83.6,177.5,83.5,177.5
	c0.5-0.3,0.5-0.7,0.5-1.2v-0.2C83.5,176.5,83.4,177,83.5,177.5z M83.5,177.5L83.5,177.5L83.5,177.5
	C83.5,177.5,83.5,177.6,83.5,177.5c0,0.1-0.1,0.1-0.1,0.1c0,0,0,0,0,0L83.5,177.5C83.5,177.6,83.5,177.6,83.5,177.5
	C83.5,177.5,83.5,177.5,83.5,177.5z M36.3,307.6c-0.5,0.4-0.7,0.6-1.1,1c0,0,0,0,0,0c0,0,0,0-0.1,0.1c0.5,0.1,0.8,0,1-0.4
	c0-0.1,0.1-0.1,0.1-0.2c0-0.1,0-0.1,0-0.2C36.3,307.8,36.3,307.8,36.3,307.6C36.3,307.7,36.3,307.6,36.3,307.6L36.3,307.6z
	 M36.3,307.6c-0.5,0.4-0.7,0.6-1.1,1c0,0,0,0,0,0c0,0,0,0-0.1,0.1c0.5,0.1,0.8,0,1-0.4c0-0.1,0.1-0.1,0.1-0.2c0-0.1,0-0.1,0-0.2
	C36.3,307.8,36.3,307.8,36.3,307.6C36.3,307.7,36.3,307.6,36.3,307.6L36.3,307.6z M76.7,50.8c-1.7-1.3-3.7-1.9-5.8-1.2
	c-3.6,1-6,3.4-7.2,6.8c-1.8,5.2-0.7,10.1,2.6,14.3c3.7,4.7,9.2,4.2,12.1-1c1.6-2.8,2.5-5.9,2.5-8.9C80.9,56.7,79.9,53.3,76.7,50.8z
	 M71.4,58.4c-0.5,1.2-1.2,2.2-2.2,3.2c-0.3,0.3-0.8,0.5-1.2,0.7c-1.3,0.5-2.6,0-3-1.4c-0.2-0.8-0.3-1.6-0.3-2.4c0-2.1,0.9-4,2.3-5.6
	c0.5-0.6,1.3-1,2-1.1c2-0.5,3.4,0.8,3.4,3C72.2,56.1,71.9,57.3,71.4,58.4z M83.5,177.5L83.5,177.5L83.5,177.5
	C83.5,177.5,83.5,177.6,83.5,177.5c0,0.1-0.1,0.1-0.1,0.1c0,0,0,0,0,0L83.5,177.5C83.5,177.6,83.5,177.6,83.5,177.5
	C83.5,177.5,83.5,177.5,83.5,177.5z M83.5,177.5C83.6,177.5,83.6,177.5,83.5,177.5c0.5-0.3,0.5-0.7,0.5-1.2v-0.2
	C83.5,176.5,83.4,177,83.5,177.5z M84.3,175.9c-0.1,0-0.1,0.1-0.1,0.1C84.2,176,84.2,176,84.3,175.9
	C84.3,175.9,84.3,175.9,84.3,175.9C84.3,175.8,84.3,175.8,84.3,175.9z M93.4,205.3c-0.2-0.5-0.6-1-1-1.4c-3.7-4.6-6.1-9.7-6.4-15.4
	c0-0.8,0-1.7,0-2.6c0-0.1,0-0.2,0-0.4c0,0,0-0.1,0-0.1c0-0.3-0.1-0.6-0.6-0.8c-1.5,0.5-1.7,2.7-3.6,3.7c0-0.7,0-1.3,0-2
	c0-0.3,0-0.5,0.1-0.8c0.1-0.8,0.2-1.5,0.3-2.2c0.4-1.8,0.7-3.6,1.1-5.4c0,0,0-0.1,0-0.1c-0.3,0.4-0.7,0.7-0.9,1.1
	c-1.1,2.7-1.8,5.5-2.1,8.3c0,0.4,0,0.7-0.1,1.1c0,0.4,0,0.7-0.1,1.1c0,0.6-0.1,1.3-0.1,2v0.1c0,0.5,0.2,1,1,1.1
	c1-0.5,1.1-1.6,1.5-2.5c0.5-0.8,0.6-2,1.9-2.4c0.2,1.6,0.4,3.2,0.7,4.8c0.8,4.5,2.6,8.6,5.1,12.3c0.4,0.6,1.1,1.2,1.7,1.7
	c0.2,0.1,0.7,0,0.9-0.2c0,0,0.1-0.1,0.2-0.1c0,0,0,0,0,0C93.3,205.8,93.5,205.5,93.4,205.3z M100.3,205.6c-1.3-1.7-2.5-3.5-3.8-5.2
	c-0.2-0.2-0.5-0.3-0.8-0.4c0.9,2,1.9,4,2.9,6c0.2,0.5,0.8,0.8,1.2,1.2c0.1,0.1,0.5,0,0.6-0.1c0.2-0.1,0.3-0.4,0.3-0.6
	C100.6,206.2,100.5,205.8,100.3,205.6z M138.4,58.4c-1.8-1.2-3.5-2.5-5.5-3.5c-0.8-0.4-1.6-0.7-2.5-0.8c0,0,0,0-0.1,0
	c-1.4-0.2-2.9-0.1-4.4,0.2c-3.9,1-7.1,3.1-9.7,6.1c-0.5,0.6-0.8,1.4-0.9,2.1c-0.1,1.5,0.2,3,0.9,4.3c0.6,1.1,1.6,1.3,2.5,0.3
	c1.2-1.4,2.3-2.9,3.4-4.3c1.1-1.4,2.2-3,3.5-4.2c2.7-2.6,5.8-3,9.2-1.4c1.2,0.6,2.4,1.2,3.7,1.8C138.4,58.8,138.5,58.5,138.4,58.4z
	 M138.4,58.4c-1.8-1.2-3.5-2.5-5.5-3.5c-0.8-0.4-1.6-0.7-2.5-0.8c0,0,0,0-0.1,0c-1.4-0.2-2.9-0.1-4.4,0.2c-3.9,1-7.1,3.1-9.7,6.1
	c-0.5,0.6-0.8,1.4-0.9,2.1c-0.1,1.5,0.2,3,0.9,4.3c0.6,1.1,1.6,1.3,2.5,0.3c1.2-1.4,2.3-2.9,3.4-4.3c1.1-1.4,2.2-3,3.5-4.2
	c2.7-2.6,5.8-3,9.2-1.4c1.2,0.6,2.4,1.2,3.7,1.8C138.4,58.8,138.5,58.5,138.4,58.4z M76.7,50.8c-1.7-1.3-3.7-1.9-5.8-1.2
	c-3.6,1-6,3.4-7.2,6.8c-1.8,5.2-0.7,10.1,2.6,14.3c3.7,4.7,9.2,4.2,12.1-1c1.6-2.8,2.5-5.9,2.5-8.9C80.9,56.7,79.9,53.3,76.7,50.8z
	 M71.4,58.4c-0.5,1.2-1.2,2.2-2.2,3.2c-0.3,0.3-0.8,0.5-1.2,0.7c-1.3,0.5-2.6,0-3-1.4c-0.2-0.8-0.3-1.6-0.3-2.4c0-2.1,0.9-4,2.3-5.6
	c0.5-0.6,1.3-1,2-1.1c2-0.5,3.4,0.8,3.4,3C72.2,56.1,71.9,57.3,71.4,58.4z M100.3,205.6c-1.3-1.7-2.5-3.5-3.8-5.2
	c-0.2-0.2-0.5-0.3-0.8-0.4c0.9,2,1.9,4,2.9,6c0.2,0.5,0.8,0.8,1.2,1.2c0.1,0.1,0.5,0,0.6-0.1c0.2-0.1,0.3-0.4,0.3-0.6
	C100.6,206.2,100.5,205.8,100.3,205.6z M93.4,205.3c-0.2-0.5-0.6-1-1-1.4c-3.7-4.6-6.1-9.7-6.4-15.4c0-0.8,0-1.7,0-2.6
	c0-0.1,0-0.2,0-0.4c0,0,0-0.1,0-0.1c0-0.3-0.1-0.6-0.6-0.8c-1.5,0.5-1.7,2.7-3.6,3.7c0-0.7,0-1.3,0-2c0-0.3,0-0.5,0.1-0.8
	c0.1-0.8,0.2-1.5,0.3-2.2c0.4-1.8,0.7-3.6,1.1-5.4c0,0,0-0.1,0-0.1c-0.3,0.4-0.7,0.7-0.9,1.1c-1.1,2.7-1.8,5.5-2.1,8.3
	c0,0.4,0,0.7-0.1,1.1c0,0.4,0,0.7-0.1,1.1c0,0.6-0.1,1.3-0.1,2v0.1c0,0.5,0.2,1,1,1.1c1-0.5,1.1-1.6,1.5-2.5c0.5-0.8,0.6-2,1.9-2.4
	c0.2,1.6,0.4,3.2,0.7,4.8c0.8,4.5,2.6,8.6,5.1,12.3c0.4,0.6,1.1,1.2,1.7,1.7c0.2,0.1,0.7,0,0.9-0.2c0,0,0.1-0.1,0.2-0.1c0,0,0,0,0,0
	C93.3,205.8,93.5,205.5,93.4,205.3z M84.3,175.9c-0.1,0-0.1,0.1-0.1,0.1C84.2,176,84.2,176,84.3,175.9
	C84.3,175.9,84.3,175.9,84.3,175.9C84.3,175.8,84.3,175.8,84.3,175.9z M83.5,177.5C83.6,177.5,83.6,177.5,83.5,177.5
	c0.5-0.3,0.5-0.7,0.5-1.2v-0.2C83.5,176.5,83.4,177,83.5,177.5z M83.5,177.5L83.5,177.5L83.5,177.5
	C83.5,177.5,83.5,177.6,83.5,177.5c0,0.1-0.1,0.1-0.1,0.1c0,0,0,0,0,0L83.5,177.5C83.5,177.6,83.5,177.6,83.5,177.5
	C83.5,177.5,83.5,177.5,83.5,177.5z M36.3,307.6c-0.5,0.4-0.7,0.6-1.1,1c0,0,0,0,0,0c0,0,0,0-0.1,0.1c0.5,0.1,0.8,0,1-0.4
	c0-0.1,0.1-0.1,0.1-0.2c0-0.1,0-0.1,0-0.2C36.3,307.8,36.3,307.8,36.3,307.6C36.3,307.7,36.3,307.6,36.3,307.6L36.3,307.6z
	 M36.3,307.6c-0.5,0.4-0.7,0.6-1.1,1c0,0,0,0,0,0c0,0,0,0-0.1,0.1c0.5,0.1,0.8,0,1-0.4c0-0.1,0.1-0.1,0.1-0.2c0-0.1,0-0.1,0-0.2
	C36.3,307.8,36.3,307.8,36.3,307.6C36.3,307.7,36.3,307.6,36.3,307.6L36.3,307.6z M76.7,50.8c-1.7-1.3-3.7-1.9-5.8-1.2
	c-3.6,1-6,3.4-7.2,6.8c-1.8,5.2-0.7,10.1,2.6,14.3c3.7,4.7,9.2,4.2,12.1-1c1.6-2.8,2.5-5.9,2.5-8.9C80.9,56.7,79.9,53.3,76.7,50.8z
	 M71.4,58.4c-0.5,1.2-1.2,2.2-2.2,3.2c-0.3,0.3-0.8,0.5-1.2,0.7c-1.3,0.5-2.6,0-3-1.4c-0.2-0.8-0.3-1.6-0.3-2.4c0-2.1,0.9-4,2.3-5.6
	c0.5-0.6,1.3-1,2-1.1c2-0.5,3.4,0.8,3.4,3C72.2,56.1,71.9,57.3,71.4,58.4z M83.5,177.5L83.5,177.5L83.5,177.5
	C83.5,177.5,83.5,177.6,83.5,177.5c0,0.1-0.1,0.1-0.1,0.1c0,0,0,0,0,0L83.5,177.5C83.5,177.6,83.5,177.6,83.5,177.5
	C83.5,177.5,83.5,177.5,83.5,177.5z M83.5,177.5C83.6,177.5,83.6,177.5,83.5,177.5c0.5-0.3,0.5-0.7,0.5-1.2v-0.2
	C83.5,176.5,83.4,177,83.5,177.5z M84.3,175.9c-0.1,0-0.1,0.1-0.1,0.1C84.2,176,84.2,176,84.3,175.9
	C84.3,175.9,84.3,175.9,84.3,175.9C84.3,175.8,84.3,175.8,84.3,175.9z M93.4,205.3c-0.2-0.5-0.6-1-1-1.4c-3.7-4.6-6.1-9.7-6.4-15.4
	c0-0.8,0-1.7,0-2.6c0-0.1,0-0.2,0-0.4c0,0,0-0.1,0-0.1c0-0.3-0.1-0.6-0.6-0.8c-1.5,0.5-1.7,2.7-3.6,3.7c0-0.7,0-1.3,0-2
	c0-0.3,0-0.5,0.1-0.8c0.1-0.8,0.2-1.5,0.3-2.2c0.4-1.8,0.7-3.6,1.1-5.4c0,0,0-0.1,0-0.1c-0.3,0.4-0.7,0.7-0.9,1.1
	c-1.1,2.7-1.8,5.5-2.1,8.3c0,0.4,0,0.7-0.1,1.1c0,0.4,0,0.7-0.1,1.1c0,0.6-0.1,1.3-0.1,2v0.1c0,0.5,0.2,1,1,1.1
	c1-0.5,1.1-1.6,1.5-2.5c0.5-0.8,0.6-2,1.9-2.4c0.2,1.6,0.4,3.2,0.7,4.8c0.8,4.5,2.6,8.6,5.1,12.3c0.4,0.6,1.1,1.2,1.7,1.7
	c0.2,0.1,0.7,0,0.9-0.2c0,0,0.1-0.1,0.2-0.1c0,0,0,0,0,0C93.3,205.8,93.5,205.5,93.4,205.3z M100.3,205.6c-1.3-1.7-2.5-3.5-3.8-5.2
	c-0.2-0.2-0.5-0.3-0.8-0.4c0.9,2,1.9,4,2.9,6c0.2,0.5,0.8,0.8,1.2,1.2c0.1,0.1,0.5,0,0.6-0.1c0.2-0.1,0.3-0.4,0.3-0.6
	C100.6,206.2,100.5,205.8,100.3,205.6z M138.4,58.4c-1.8-1.2-3.5-2.5-5.5-3.5c-0.8-0.4-1.6-0.7-2.5-0.8c0,0,0,0-0.1,0
	c-1.4-0.2-2.9-0.1-4.4,0.2c-3.9,1-7.1,3.1-9.7,6.1c-0.5,0.6-0.8,1.4-0.9,2.1c-0.1,1.5,0.2,3,0.9,4.3c0.6,1.1,1.6,1.3,2.5,0.3
	c1.2-1.4,2.3-2.9,3.4-4.3c1.1-1.4,2.2-3,3.5-4.2c2.7-2.6,5.8-3,9.2-1.4c1.2,0.6,2.4,1.2,3.7,1.8C138.4,58.8,138.5,58.5,138.4,58.4z
	 M138.4,58.4c-1.8-1.2-3.5-2.5-5.5-3.5c-0.8-0.4-1.6-0.7-2.5-0.8c0,0,0,0-0.1,0c-1.4-0.2-2.9-0.1-4.4,0.2c-3.9,1-7.1,3.1-9.7,6.1
	c-0.5,0.6-0.8,1.4-0.9,2.1c-0.1,1.5,0.2,3,0.9,4.3c0.6,1.1,1.6,1.3,2.5,0.3c1.2-1.4,2.3-2.9,3.4-4.3c1.1-1.4,2.2-3,3.5-4.2
	c2.7-2.6,5.8-3,9.2-1.4c1.2,0.6,2.4,1.2,3.7,1.8C138.4,58.8,138.5,58.5,138.4,58.4z M76.7,50.8c-1.7-1.3-3.7-1.9-5.8-1.2
	c-3.6,1-6,3.4-7.2,6.8c-1.8,5.2-0.7,10.1,2.6,14.3c3.7,4.7,9.2,4.2,12.1-1c1.6-2.8,2.5-5.9,2.5-8.9C80.9,56.7,79.9,53.3,76.7,50.8z
	 M71.4,58.4c-0.5,1.2-1.2,2.2-2.2,3.2c-0.3,0.3-0.8,0.5-1.2,0.7c-1.3,0.5-2.6,0-3-1.4c-0.2-0.8-0.3-1.6-0.3-2.4c0-2.1,0.9-4,2.3-5.6
	c0.5-0.6,1.3-1,2-1.1c2-0.5,3.4,0.8,3.4,3C72.2,56.1,71.9,57.3,71.4,58.4z M100.3,205.6c-1.3-1.7-2.5-3.5-3.8-5.2
	c-0.2-0.2-0.5-0.3-0.8-0.4c0.9,2,1.9,4,2.9,6c0.2,0.5,0.8,0.8,1.2,1.2c0.1,0.1,0.5,0,0.6-0.1c0.2-0.1,0.3-0.4,0.3-0.6
	C100.6,206.2,100.5,205.8,100.3,205.6z M93.4,205.3c-0.2-0.5-0.6-1-1-1.4c-3.7-4.6-6.1-9.7-6.4-15.4c0-0.8,0-1.7,0-2.6
	c0-0.1,0-0.2,0-0.4c0,0,0-0.1,0-0.1c0-0.3-0.1-0.6-0.6-0.8c-1.5,0.5-1.7,2.7-3.6,3.7c0-0.7,0-1.3,0-2c0-0.3,0-0.5,0.1-0.8
	c0.1-0.8,0.2-1.5,0.3-2.2c0.4-1.8,0.7-3.6,1.1-5.4c0,0,0-0.1,0-0.1c-0.3,0.4-0.7,0.7-0.9,1.1c-1.1,2.7-1.8,5.5-2.1,8.3
	c0,0.4,0,0.7-0.1,1.1c0,0.4,0,0.7-0.1,1.1c0,0.6-0.1,1.3-0.1,2v0.1c0,0.5,0.2,1,1,1.1c1-0.5,1.1-1.6,1.5-2.5c0.5-0.8,0.6-2,1.9-2.4
	c0.2,1.6,0.4,3.2,0.7,4.8c0.8,4.5,2.6,8.6,5.1,12.3c0.4,0.6,1.1,1.2,1.7,1.7c0.2,0.1,0.7,0,0.9-0.2c0,0,0.1-0.1,0.2-0.1c0,0,0,0,0,0
	C93.3,205.8,93.5,205.5,93.4,205.3z M84.3,175.9c-0.1,0-0.1,0.1-0.1,0.1C84.2,176,84.2,176,84.3,175.9
	C84.3,175.9,84.3,175.9,84.3,175.9C84.3,175.8,84.3,175.8,84.3,175.9z M83.5,177.5C83.6,177.5,83.6,177.5,83.5,177.5
	c0.5-0.3,0.5-0.7,0.5-1.2v-0.2C83.5,176.5,83.4,177,83.5,177.5z M83.5,177.5L83.5,177.5L83.5,177.5
	C83.5,177.5,83.5,177.6,83.5,177.5c0,0.1-0.1,0.1-0.1,0.1c0,0,0,0,0,0L83.5,177.5C83.5,177.6,83.5,177.6,83.5,177.5
	C83.5,177.5,83.5,177.5,83.5,177.5z M36.3,307.6c-0.5,0.4-0.7,0.6-1.1,1c0,0,0,0,0,0c0,0,0,0-0.1,0.1c0.5,0.1,0.8,0,1-0.4
	c0-0.1,0.1-0.1,0.1-0.2c0-0.1,0-0.1,0-0.2C36.3,307.8,36.3,307.8,36.3,307.6C36.3,307.7,36.3,307.6,36.3,307.6L36.3,307.6z
	 M35.1,308.6C35.2,308.6,35.2,308.6,35.1,308.6c0.5,0.1,0.8,0.1,1-0.2c0,0,0,0,0,0c0.1-0.1,0.1-0.2,0.1-0.3c0-0.1,0.1-0.2,0.1-0.4v0
	c0,0,0-0.1,0-0.1C35.8,308,35.5,308.3,35.1,308.6z M76.7,50.8c-1.7-1.3-3.7-1.9-5.8-1.2c-3.6,1-6,3.4-7.2,6.8
	c-1.8,5.2-0.7,10.1,2.6,14.3c3.7,4.7,9.2,4.2,12.1-1c1.6-2.8,2.5-5.9,2.5-8.9C80.9,56.7,79.9,53.3,76.7,50.8z M71.4,58.4
	c-0.5,1.2-1.2,2.2-2.2,3.2c-0.3,0.3-0.8,0.5-1.2,0.7c-1.3,0.5-2.6,0-3-1.4c-0.2-0.8-0.3-1.6-0.3-2.4c0-2.1,0.9-4,2.3-5.6
	c0.5-0.6,1.3-1,2-1.1c2-0.5,3.4,0.8,3.4,3C72.2,56.1,71.9,57.3,71.4,58.4z M83.5,177.5L83.5,177.5L83.5,177.5
	C83.5,177.5,83.5,177.6,83.5,177.5C83.5,177.6,83.5,177.6,83.5,177.5C83.5,177.6,83.5,177.6,83.5,177.5
	C83.5,177.5,83.5,177.5,83.5,177.5z M83.4,177.6C83.4,177.7,83.4,177.7,83.4,177.6C83.4,177.7,83.5,177.7,83.4,177.6
	C83.5,177.6,83.5,177.6,83.4,177.6z M84,176.3c-0.4,0.3-0.5,0.7-0.4,1.2c0,0.1,0,0.1,0,0.2C84.1,177.2,84,176.7,84,176.3
	C84.1,176.2,84.1,176.2,84,176.3z M84.1,176v0.1C84.1,176.1,84.2,176.1,84.1,176c0.1,0,0.1,0,0.1,0c0,0,0,0,0-0.1
	C84.2,175.9,84.2,175.9,84.1,176z M93.1,205.4c0.1-0.6-0.3-1-0.7-1.4c-3.7-4.7-6.1-9.7-6.4-15.5c0-0.8,0-1.7,0-2.6
	c0-0.1,0-0.2,0-0.4c0,0,0-0.1,0-0.1c0-0.2-0.2-0.5-0.6-0.7c-1.5,0.5-1.7,2.7-3.6,3.7v-0.1c0-0.7,0-1.3,0-2c0-0.3,0-0.5,0.1-0.8
	c0.1-0.8,0.2-1.5,0.3-2.1c0.4-1.8,0.7-3.7,1.1-5.5l0,0c-0.3,0.4-0.7,0.7-0.9,1.1c-1.1,2.7-1.8,5.5-2.1,8.3c0,0.3,0,0.7-0.1,1
	c0,0.4,0,0.7-0.1,1.1c0,0.6-0.1,1.3-0.1,2v0.1c0,0.5,0.2,1.1,1,1.2c1-0.5,1.1-1.6,1.5-2.5c0.5-0.8,0.6-2,1.9-2.4
	c0.2,1.6,0.4,3.2,0.7,4.8c0.8,4.5,2.6,8.6,5.1,12.3c0.4,0.6,1.1,1.2,1.7,1.7c0.2,0.1,0.7,0,0.9-0.2c0.1-0.1,0.1-0.2,0.2-0.2
	c0,0,0,0,0,0C93.2,205.8,93.2,205.5,93.1,205.4z M100.4,205.6c-1.3-1.8-2.6-3.5-3.9-5.2c-0.2-0.2-0.5-0.3-0.8-0.4c0.9,2,1.9,4,2.9,6
	c0.2,0.5,0.8,0.8,1.2,1.2c0.1,0.1,0.5,0,0.6-0.1c0.2-0.1,0.3-0.4,0.3-0.6C100.7,206.2,100.6,205.8,100.4,205.6z M138.4,58.3
	c-1.8-1.2-3.5-2.5-5.5-3.5c-0.8-0.4-1.6-0.6-2.5-0.7c0,0,0,0-0.1,0c-1.4-0.2-2.9-0.1-4.4,0.2c-3.9,1-7.1,3.1-9.7,6.1
	c-0.5,0.6-0.8,1.4-0.9,2.1c-0.1,1.5,0.2,3,0.9,4.3c0.6,1.1,1.6,1.3,2.5,0.3c1.2-1.4,2.3-2.9,3.4-4.3c1.1-1.4,2.2-3,3.5-4.2
	c2.7-2.6,5.8-3,9.2-1.4c1.2,0.6,2.4,1.2,3.7,1.8C138.5,58.7,138.5,58.4,138.4,58.3z M84.5,311.7c0,0,0-0.1,0-0.2c0,0,0-0.1,0-0.1
	C84.4,311.5,84.4,311.6,84.5,311.7c0,0,0,0.1,0,0.2C84.5,311.8,84.5,311.8,84.5,311.7z M138.4,58.3c-1.8-1.2-3.5-2.5-5.5-3.5
	c-0.8-0.4-1.6-0.6-2.5-0.7c0,0,0,0-0.1,0c-1.4-0.2-2.9-0.1-4.4,0.2c-3.9,1-7.1,3.1-9.7,6.1c-0.5,0.6-0.8,1.4-0.9,2.1
	c-0.1,1.5,0.2,3,0.9,4.3c0.6,1.1,1.6,1.3,2.5,0.3c1.2-1.4,2.3-2.9,3.4-4.3c1.1-1.4,2.2-3,3.5-4.2c2.7-2.6,5.8-3,9.2-1.4
	c1.2,0.6,2.4,1.2,3.7,1.8C138.5,58.7,138.5,58.4,138.4,58.3z M76.7,50.8c-1.7-1.3-3.7-1.9-5.8-1.2c-3.6,1-6,3.4-7.2,6.8
	c-1.8,5.2-0.7,10.1,2.6,14.3c3.7,4.7,9.2,4.2,12.1-1c1.6-2.8,2.5-5.9,2.5-8.9C80.9,56.7,79.9,53.3,76.7,50.8z M71.4,58.4
	c-0.5,1.2-1.2,2.2-2.2,3.2c-0.3,0.3-0.8,0.5-1.2,0.7c-1.3,0.5-2.6,0-3-1.4c-0.2-0.8-0.3-1.6-0.3-2.4c0-2.1,0.9-4,2.3-5.6
	c0.5-0.6,1.3-1,2-1.1c2-0.5,3.4,0.8,3.4,3C72.2,56.1,71.9,57.3,71.4,58.4z M100.4,205.6c-1.3-1.8-2.6-3.5-3.9-5.2
	c-0.2-0.2-0.5-0.3-0.8-0.4c0.9,2,1.9,4,2.9,6c0.2,0.5,0.8,0.8,1.2,1.2c0.1,0.1,0.5,0,0.6-0.1c0.2-0.1,0.3-0.4,0.3-0.6
	C100.7,206.2,100.6,205.8,100.4,205.6z M93.4,205.3c-0.2-0.5-0.6-1-1-1.4c-3.7-4.6-6.1-9.7-6.4-15.4c0-0.8,0-1.7,0-2.6
	c0-0.1,0-0.2,0-0.4c0,0,0-0.1,0-0.1c0-0.3-0.1-0.6-0.6-0.8c-1.5,0.5-1.7,2.7-3.6,3.7c0-0.7,0-1.3,0-2c0-0.3,0-0.5,0.1-0.8
	c0.1-0.8,0.2-1.5,0.3-2.1c0.4-1.8,0.7-3.7,1.1-5.5l0,0c0,0,0-0.1,0-0.1c-0.3,0.4-0.7,0.7-0.9,1.1c-1.1,2.7-1.8,5.5-2.1,8.3
	c0,0.4,0,0.7-0.1,1.1c0,0.4,0,0.7-0.1,1.1c0,0.6-0.1,1.3-0.1,2v0.1c0,0.5,0.2,1.1,1,1.2c1-0.5,1.1-1.6,1.5-2.5
	c0.5-0.8,0.6-2,1.9-2.4c0.2,1.6,0.4,3.2,0.7,4.8c0.8,4.5,2.6,8.6,5.1,12.3c0.4,0.6,1.1,1.2,1.7,1.7c0.2,0.1,0.7,0,0.9-0.2
	c0.1-0.1,0.1-0.2,0.2-0.2c0,0,0,0,0,0C93.3,205.8,93.5,205.5,93.4,205.3z M84.3,175.9c-0.1,0-0.1,0.1-0.1,0.1v0.1c0,0,0.1,0,0.1-0.1
	C84.2,176,84.2,176,84.3,175.9C84.3,175.9,84.3,175.9,84.3,175.9C84.3,175.8,84.3,175.8,84.3,175.9z M84,176.3v-0.2
	c-0.5,0.4-0.6,0.9-0.5,1.4c0,0,0.1,0,0.1-0.1c0,0.1,0,0.1,0,0.2C84.1,177.2,84,176.7,84,176.3C84.1,176.2,84.1,176.2,84,176.3z
	 M83.5,177.5L83.5,177.5L83.5,177.5C83.5,177.5,83.5,177.6,83.5,177.5c0,0.1-0.1,0.1-0.1,0.1c0,0,0,0,0,0S83.5,177.7,83.5,177.5
	C83.5,177.6,83.5,177.6,83.5,177.5C83.5,177.5,83.5,177.5,83.5,177.5z M36.3,307.5c-0.5,0.5-0.8,0.8-1.2,1.1c0,0,0,0,0.1,0
	c0,0,0,0-0.1,0.1c0.5,0.1,0.8,0,1-0.4c0-0.1,0.1-0.1,0.1-0.2c0-0.1,0-0.1,0-0.2c0-0.1,0-0.1,0-0.2c0,0,0-0.1,0-0.1l0,0
	C36.3,307.6,36.3,307.5,36.3,307.5z M36.3,307.5c-0.5,0.5-0.8,0.8-1.2,1.1c0,0,0,0,0.1,0c0,0,0,0-0.1,0.1c0.5,0.1,0.8,0,1-0.4
	c0-0.1,0.1-0.1,0.1-0.2c0-0.1,0-0.1,0-0.2c0-0.1,0-0.1,0-0.2c0,0,0-0.1,0-0.1l0,0C36.3,307.6,36.3,307.5,36.3,307.5z M76.7,50.8
	c-1.7-1.3-3.7-1.9-5.8-1.2c-3.6,1-6,3.4-7.2,6.8c-1.8,5.2-0.7,10.1,2.6,14.3c3.7,4.7,9.2,4.2,12.1-1c1.6-2.8,2.5-5.9,2.5-8.9
	C80.9,56.7,79.9,53.3,76.7,50.8z M71.4,58.4c-0.5,1.2-1.2,2.2-2.2,3.2c-0.3,0.3-0.8,0.5-1.2,0.7c-1.3,0.5-2.6,0-3-1.4
	c-0.2-0.8-0.3-1.6-0.3-2.4c0-2.1,0.9-4,2.3-5.6c0.5-0.6,1.3-1,2-1.1c2-0.5,3.4,0.8,3.4,3C72.2,56.1,71.9,57.3,71.4,58.4z
	 M83.5,177.5L83.5,177.5L83.5,177.5C83.5,177.5,83.5,177.6,83.5,177.5c0,0.1-0.1,0.1-0.1,0.1c0,0,0,0,0,0S83.5,177.7,83.5,177.5
	C83.5,177.6,83.5,177.6,83.5,177.5C83.5,177.5,83.5,177.5,83.5,177.5z M84,176.3v-0.2c-0.5,0.4-0.6,0.9-0.5,1.4c0,0,0.1,0,0.1-0.1
	c0,0.1,0,0.1,0,0.2C84.1,177.2,84,176.7,84,176.3C84.1,176.2,84.1,176.2,84,176.3z M84.3,175.9c-0.1,0-0.1,0.1-0.1,0.1v0.1
	c0,0,0.1,0,0.1-0.1C84.2,176,84.2,176,84.3,175.9C84.3,175.9,84.3,175.9,84.3,175.9C84.3,175.8,84.3,175.8,84.3,175.9z M84.5,311.7
	c0,0,0-0.1,0-0.2c0,0,0-0.1,0-0.1C84.4,311.5,84.4,311.6,84.5,311.7c0,0,0,0.1,0,0.2C84.5,311.8,84.5,311.8,84.5,311.7z M93.4,205.3
	c-0.2-0.5-0.6-1-1-1.4c-3.7-4.6-6.1-9.7-6.4-15.4c0-0.8,0-1.7,0-2.6c0-0.1,0-0.2,0-0.4c0,0,0-0.1,0-0.1c0-0.3-0.1-0.6-0.6-0.8
	c-1.5,0.5-1.7,2.7-3.6,3.7c0-0.7,0-1.3,0-2c0-0.3,0-0.5,0.1-0.8c0.1-0.8,0.2-1.5,0.3-2.1c0.4-1.8,0.7-3.7,1.1-5.5l0,0
	c0,0,0-0.1,0-0.1c-0.3,0.4-0.7,0.7-0.9,1.1c-1.1,2.7-1.8,5.5-2.1,8.3c0,0.4,0,0.7-0.1,1.1c0,0.4,0,0.7-0.1,1.1c0,0.6-0.1,1.3-0.1,2
	v0.1c0,0.5,0.2,1.1,1,1.2c1-0.5,1.1-1.6,1.5-2.5c0.5-0.8,0.6-2,1.9-2.4c0.2,1.6,0.4,3.2,0.7,4.8c0.8,4.5,2.6,8.6,5.1,12.3
	c0.4,0.6,1.1,1.2,1.7,1.7c0.2,0.1,0.7,0,0.9-0.2c0.1-0.1,0.1-0.2,0.2-0.2c0,0,0,0,0,0C93.3,205.8,93.5,205.5,93.4,205.3z
	 M100.4,205.6c-1.3-1.8-2.6-3.5-3.9-5.2c-0.2-0.2-0.5-0.3-0.8-0.4c0.9,2,1.9,4,2.9,6c0.2,0.5,0.8,0.8,1.2,1.2c0.1,0.1,0.5,0,0.6-0.1
	c0.2-0.1,0.3-0.4,0.3-0.6C100.7,206.2,100.6,205.8,100.4,205.6z M138.4,58.3c-1.8-1.2-3.5-2.5-5.5-3.5c-0.8-0.4-1.6-0.6-2.5-0.7
	c0,0,0,0-0.1,0c-1.4-0.2-2.9-0.1-4.4,0.2c-3.9,1-7.1,3.1-9.7,6.1c-0.5,0.6-0.8,1.4-0.9,2.1c-0.1,1.5,0.2,3,0.9,4.3
	c0.6,1.1,1.6,1.3,2.5,0.3c1.2-1.4,2.3-2.9,3.4-4.3c1.1-1.4,2.2-3,3.5-4.2c2.7-2.6,5.8-3,9.2-1.4c1.2,0.6,2.4,1.2,3.7,1.8
	C138.5,58.7,138.5,58.4,138.4,58.3z M36.3,307.5c-0.5,0.5-0.8,0.8-1.2,1.1c0,0,0,0,0.1,0c0,0,0,0-0.1,0.1c0.5,0.1,0.8,0,1-0.4
	c0-0.1,0.1-0.1,0.1-0.2c0-0.1,0-0.1,0-0.2c0-0.1,0-0.1,0-0.2c0,0,0-0.1,0-0.1l0,0C36.3,307.6,36.3,307.5,36.3,307.5z M84.5,311.7
	c0,0,0-0.1,0-0.2c0,0,0-0.1,0-0.1C84.4,311.5,84.4,311.6,84.5,311.7c0,0,0,0.1,0,0.2C84.5,311.8,84.5,311.8,84.5,311.7z
	 M100.4,205.6c-1.3-1.8-2.6-3.5-3.9-5.2c-0.2-0.2-0.5-0.3-0.8-0.4c0.9,2,1.9,4,2.9,6c0.2,0.5,0.8,0.8,1.2,1.2c0.1,0.1,0.5,0,0.6-0.1
	c0.2-0.1,0.3-0.4,0.3-0.6C100.7,206.2,100.6,205.8,100.4,205.6z M92.4,203.9c-3.7-4.6-6.1-9.7-6.4-15.4c0-0.8,0-1.7,0-2.6
	c0-0.1,0-0.2,0-0.4c0,0,0-0.1,0-0.1c0-0.3-0.1-0.6-0.6-0.8c-1.5,0.5-1.7,2.7-3.6,3.7c0-0.7,0-1.3,0-2c0-0.3,0-0.5,0.1-0.8
	c0.1-0.8,0.2-1.5,0.3-2.1c0.4-1.8,0.7-3.7,1.1-5.5l0,0c0,0,0-0.1,0-0.1c-0.3,0.4-0.7,0.7-0.9,1.1c-1.1,2.7-1.8,5.5-2.1,8.3
	c0,0.4,0,0.7-0.1,1.1c0,0.4,0,0.7-0.1,1.1c0,0.6-0.1,1.3-0.1,2v0.1c0,0.5,0.2,1.1,1,1.2c1-0.5,1.1-1.6,1.5-2.5
	c0.5-0.8,0.6-2,1.9-2.4c0.2,1.6,0.4,3.2,0.7,4.8c0.8,4.5,2.6,8.6,5.1,12.3c0.4,0.6,1.1,1.2,1.7,1.7c0.2,0.1,0.7,0,0.9-0.2
	c0.1-0.1,0.1-0.2,0.2-0.2c0,0,0,0,0,0c0.2-0.2,0.4-0.5,0.3-0.7C93.2,204.8,92.8,204.3,92.4,203.9z M84.2,176
	C84.2,176,84.2,176,84.2,176c0.1-0.1,0.1-0.1,0.1-0.2c0,0,0,0-0.1,0.1C84.2,175.9,84.1,175.9,84.2,176l-0.1,0.1
	C84.1,176.1,84.2,176.1,84.2,176z M83.6,177.6c0.5-0.4,0.4-0.9,0.5-1.4c0,0-0.1,0-0.1,0.1v-0.2c-0.5,0.4-0.6,0.9-0.5,1.4
	c0,0,0.1,0,0.1-0.1C83.6,177.5,83.6,177.6,83.6,177.6z M83.5,177.6c0,0,0,0,0-0.1C83.5,177.5,83.5,177.5,83.5,177.6L83.5,177.6
	L83.5,177.6C83.5,177.5,83.5,177.6,83.5,177.6C83.5,177.6,83.5,177.6,83.5,177.6c-0.1,0.1-0.1,0.1-0.1,0.1S83.5,177.7,83.5,177.6z
	 M138.4,58.3c-1.8-1.2-3.5-2.5-5.5-3.5c-0.8-0.4-1.6-0.6-2.5-0.7c0,0,0,0-0.1,0c-1.4-0.2-2.9-0.1-4.4,0.2c-3.9,1-7.1,3.1-9.7,6.1
	c-0.5,0.6-0.8,1.4-0.9,2.1c-0.1,1.5,0.2,3,0.9,4.3c0.6,1.1,1.6,1.3,2.5,0.3c1.2-1.4,2.3-2.9,3.4-4.3c1.1-1.4,2.2-3,3.5-4.2
	c2.7-2.6,5.8-3,9.2-1.4c1.2,0.6,2.4,1.2,3.7,1.8C138.5,58.7,138.5,58.4,138.4,58.3z M76.7,50.8c-1.7-1.3-3.7-1.9-5.8-1.2
	c-3.6,1-6,3.4-7.2,6.8c-1.8,5.2-0.7,10.1,2.6,14.3c3.7,4.7,9.2,4.2,12.1-1c1.6-2.8,2.5-5.9,2.5-8.9C80.9,56.7,79.9,53.3,76.7,50.8z
	 M71.4,58.4c-0.5,1.2-1.2,2.2-2.2,3.2c-0.3,0.3-0.8,0.5-1.2,0.7c-1.3,0.5-2.6,0-3-1.4c-0.2-0.8-0.3-1.6-0.3-2.4c0-2.1,0.9-4,2.3-5.6
	c0.5-0.6,1.3-1,2-1.1c2-0.5,3.4,0.8,3.4,3C72.2,56.1,71.9,57.3,71.4,58.4z M-1.5-14.8v354.9h209.7V-14.8H-1.5z M21.1,20.1
	c8.8-7,18.5-12.7,29.4-16.1c2.1-0.7,4.1-1.4,6.2-2.1c0.4-0.1,0.9-0.2,1.5-0.4c0.1,0.6,0.3,1.1,0.2,1.6c-0.1,0.9-0.3,1.6-0.6,2.4
	c-3.4,9.4-7.1,18.6-11.4,27.6c-0.6,1.3-1.2,2.6-1.9,3.8c-1.2,2.4-2.4,4.7-3.7,7c-1.5,2.8-3.2,5.6-4.9,8.4c-2.7,4.4-5.6,8.7-9,12.6
	c-0.8,0.9-1.7,1.8-2.7,2.9c-0.7-0.7-1.4-1.2-1.7-1.8c-1.2-2.4-2.3-4.8-3.2-7.2c-1.6-4.4-2.6-9-3-13.7c-0.1-0.9-0.2-1.8-0.8-2.5
	c0.1-0.5,0.4-1.1,0.3-1.6c-0.4-5.4,0.3-10.7,1.2-15.9c0.2-0.9,0.6-1.7,1.2-2.4C19.1,21.8,20.1,20.9,21.1,20.1z M106.1,20.1
	c0.8,0.1,1.7,0.1,2.5,0.2c0.8,0.1,1.7,0.2,2.5,0.2c3.1,0.3,6.2,0.5,9.2,1c3.6,0.6,7.2,1.3,10.8,2c0.2,0.1,0.5,0.1,0.7,0.2
	c0.1,0,0.1,0,0.2,0.1c1.5,0.4,3,1,4.4,1.7c0.1,0,0.1,0.1,0.2,0.1c0.5,0.2,1,0.5,1.5,0.8c1,0.6,1.8,1.4,2.3,2.5
	c2.6,5.2,5.4,10.4,8,15.7c2.3,4.7,3.8,9.6,5.2,14.6c2.3,8.5,3.6,17.1,3.1,25.9c-0.3,5.3-1.4,10.5-3.1,15.5
	c-1.5,4.3-3.9,8.1-7.1,11.3c-4.8,4.8-9.9,9.2-15.8,12.7c-3.6,2.1-7.1,4.1-11.1,5.4c-3,1-6,2.4-8.9,3.7c-0.4,0.1-0.8,0.4-1.3,0.4h0
	c-0.2,0-0.4-0.1-0.6-0.2c0.7-2.3,1.5-4.5,2.2-6.8c0.2-0.6,0.6-1.2,1-1.8c5.6-6.8,8.9-14.7,11.3-23.1c1-3.5,1.5-7.2,2.3-10.8
	c0.3-1.4,0.9-2.8,1.2-4.3c0.1-0.3-0.2-0.8-0.4-1.1c0,0,0,0-0.1,0c0,0,0,0,0,0c-0.2,0-0.6,0.2-0.7,0.3c-2.6,4.9-7.2,6.9-12,8.7
	c-3.4,1.2-6.9,1.9-10.4,2.4h-0.1c-1.2,0.1-2.4,0-3.7,0c-1-0.9-0.7-2.1-0.7-3.4c2.2-0.9,3-2.8,3.7-5c1.1-3.7,3.1-5.4,6.4-5.6
	c0.4,0,0.8,0,1.3,0c0.3,0,0.6,0,0.9,0.1c0.8,0.1,1.5,0.2,2.2,0.3c0.2,0,0.5,0.1,0.8,0.1c0.3,0,0.6,0.1,1,0.1c0,0,0.1,0,0.1,0
	c1.5-2.5,1.7-3.5,1.4-7.1c-0.6-0.2-1.3-0.6-2.1-0.8c-2.4-0.5-4.8-1-7.3-1.2c-0.3,0-0.7-0.1-1.1-0.1c-1.2-0.1-2.5-0.1-3.7-0.1
	c-3.3,0.1-6.7,0.1-10,0c-0.7,0-1.4,0-2,0c-0.4,0-0.8,0-1.3,0.1c-0.8,0.1-1.6,0.2-2.4,0.3c-0.5,0.1-1,0.1-1.5,0.2
	c-1.5,0.3-3,0.6-4.5,0.9c-0.5,0.1-1,0.4-1.6,0.7c-0.6,2.5,0,4.7,1,7.1v0c0.2,0,0.4,0,0.5-0.1c0.2,0,0.4,0,0.6,0c0.2,0,0.3,0,0.5,0
	c0.2,0,0.4,0,0.5-0.1c0.5,0,1-0.1,1.5-0.2c0.5-0.1,1-0.2,1.5-0.2c0.1,0,0.2,0,0.3,0c0.3,0,0.6,0,0.9,0c0.2,0,0.4,0,0.6,0.1
	c2.7,0.3,4.8,2,5.9,4.7c0.1,0.3,0.2,0.6,0.3,1c0.7,2,1.8,3.7,3.5,5v3.1c-0.7,0.1-1.3,0.2-1.9,0.3c-0.2,0-0.3,0-0.5,0h-0.1
	c-0.4,0-0.7,0-1.1-0.1c-0.4,0-0.7-0.1-1.1-0.1c-0.7-0.1-1.4-0.2-2.2-0.3h0c-4.6-0.7-9.1-2.1-13.3-4.4c-2.6-1.4-4.8-3.1-6.2-5.8
	c-0.2-0.4-0.8-0.7-1.4-1.2c0,0,0,0,0,0.1c-0.1,0.8-0.3,1.3-0.1,1.6c0.9,1.9,1.1,4,1.4,6c1.4,7.7,3.6,15.2,7.1,22.3
	c1.7,3.4,3.6,6.7,6.1,9.6c0.7,0.8,1.2,1.7,1.4,2.7s0.6,2,0.9,3c0.3,0.9,0.7,1.8,1.3,3.2c0,0-0.1,0-0.1,0c-1.1-0.4-1.8-0.6-2.5-0.9
	c-1.7-0.7-3.3-1.3-4.9-2c-1.4-0.6-2.7-1.2-4.1-1.8c-4.9-2.2-9.6-4.7-14.2-7.6c-5.5-3.4-10.3-7.7-14.5-12.6c-2.3-2.8-3.8-6-5-9.4
	c-2.9-8.5-3.5-17.3-2.5-26.2c0.8-7.7,2.6-15.2,5.3-22.4c1.2-3.3,2.6-6.6,4.3-9.8c2.1-3.8,4.1-7.7,5.9-11.7c0.8-1.8,2-3,3.7-3.9
	c2.8-1.4,5.8-2.3,8.8-2.9c6.2-1.2,12.5-2.2,18.8-2.6c0.5,0,1-0.1,1.5-0.1c0.5,0,1.1-0.1,1.6-0.1c5.2-0.3,10.5-0.4,15.7-0.1
	C105,20,105.6,20.1,106.1,20.1z M82,299.1c0-13.8-1.9-27.3-5.3-40.6c-4.8-19.2-11.3-37.9-17.5-56.7c-0.1-0.4,0-1-1-0.9h0
	c-0.6,0.8-1.1,1.8-1.8,2.7c-0.9,1.1-1.7,2.4-2.7,3.5c-0.3,0.3-0.6,0.6-0.9,0.9c0,0-0.1,0.1-0.1,0.1c-3.1,2.8-6.6,3.4-10.4,1.8
	c-0.6-1.3-0.4-2.4-0.2-3.5c0.8-5.1,1.6-10.2,2.6-15.3c1.7-9.5,4-18.9,8-27.8c2.8-6.3,6-12.4,9.5-18.4c0.5-0.9,2.1-3.8,3.1-5.5
	c0.4,0.1,0.9,0.3,1.3,0.5c4.6,3.8,9.8,6.4,15.4,8.3c0.5,0.2,0.9,0.6,1.4,0.9c0,0.1,0,0.1-0.1,0.2c-0.2,0.7-0.5,1.3-0.5,1.9
	c-0.2,1.4-0.7,2.7-0.6,4.1c0.1,1.6,0.4,3.1,0.9,4.5c0,0.1,0.1,0.3,0.1,0.4c0.1,0.2,0.1,0.3,0.2,0.5c0.1,0.2,0.1,0.3,0.2,0.5
	c2.3,5.4,7.4,9.2,14.8,8.6c8.6-0.8,14.8-9.7,12.4-18c-0.2-0.9-0.4-1.7-0.6-2.5c3.4-1.4,6.6-2.6,9.7-4.2c3.1-1.6,6-3.7,9.1-5.7
	c0.3,0.2,0.6,0.5,0.9,0.8c1,1.3,2.1,2.5,2.9,3.9c4.8,8,9.1,16.2,12.3,24.9c0.2,0.7,0.5,1.3,0.7,2c0.2,0.6,0.4,1.2,0.6,1.9
	c0.2,0.7,0.5,1.5,0.7,2.2c0.2,0.7,0.4,1.5,0.6,2.2c2.6,9.6,4,19.4,5.6,29.1c0.2,1.1,0.3,2.3-0.3,3.5c-3.5,1.3-6.9,0.8-9.9-1.6
	c-1.8-1.5-3.1-3.4-4.4-5.3c-0.5-0.8-1.1-1.7-1.9-2.8c-0.4,1-0.7,1.5-0.9,2.2c-4.5,14.4-9.6,28.5-13.6,43c-3.1,11.2-6.1,22.4-7.5,34
	c-0.8,7.4-1.4,14.3-1.2,21.4c0,0.4-0.1,0.9-0.1,1.4c0,0.1,0,0.2,0,0.2c0,0,0,0,0,0.1c-1.2,0.3-2.2,0.6-3.1,0.9
	c-1,0.3-1.9,0.7-2.9,1.2c-0.9,0.5-1.8,1-2.7,1.6c-0.3,0.3-0.7,0.5-1,0.8c-0.3,0.3-0.7,0.5-1,0.8c-0.2,0.2-0.3,0.3-0.5,0.5
	c-0.2,0.2-0.3,0.4-0.5,0.6c-0.5,0.6-1,1.3-1.6,1.9c-0.4,0.5-0.6,1.2-1,1.7c0,0,0,0-0.1,0.1c-0.2,0.2-0.4,0.4-0.8,0.5
	c-0.1-0.5-0.3-0.8-0.3-1.2c0.1-2.1,0.3-4.1,0.3-6.2c0-1.2,0-2.5,0-3.8c0-8.8,0.6-17.7,1.4-26.5c0.6-7.2,1.1-14.5,1.6-21.7
	c0.6-8.5,1.2-17,2.5-25.4c0.1-0.5-0.1-1-0.2-1.8c-3.3,1.8-6.6,1.4-9.8,1c0,0,0,0-0.1,0c-0.1,0.4-0.3,0.6-0.3,0.8
	c0.4,5.8,0.9,11.7,1.3,17.5c0.4,6.2,0.8,12.4,1.1,18.6c0.4,8.5,0.8,17,1,25.5c0.1,4,0.2,8,0.3,12c0.1,3,0.1,6,0.2,9
	c0,0.4,0.2,1-0.2,1.4c-0.1,0.1-0.3,0.2-0.5,0.3c-1.6-2.5-3.4-4.9-5.9-6.7c-2.5-1.9-5.5-2.8-8.6-3.7v0C82.1,301.1,82,300.1,82,299.1z
	 M76.7,94.9c6.9,3.3,14.4,3.9,21.9,3.9c3.9,0,7.8-0.3,11.6-1.2c2.3-0.6,4.6-1.4,6.9-2.1c0.7-0.2,1.4-0.5,2.3-0.8
	c0.3,1.2-0.2,2-0.5,2.8c-1,2.8-2.2,5.5-4,8c-0.4,0.6-1,1.1-1.7,1.8c-0.6-0.4-1.1-0.7-1.5-1.1c-0.7-0.8-1.3-1.6-1.9-2.5
	c-2.2-3.2-2.2-3.3-5.8-3c-4.7,0.4-9.4,0.4-14.1-0.1c-2.1-0.2-3.5,0.4-4.5,2.3c-0.8,1.7-1.7,3.3-3.8,4.5c-3.2-3.7-4.9-7.9-6.4-12.6
	C75.9,94.9,76.3,94.8,76.7,94.9z M85.5,116.9c0.2-1,0.7-2,1.2-2.9c0.8-1.4,1.9-2.3,3.6-2.3c1.9,0,3.8-0.7,6-0.3c0.5,3.1,0.9,6,1.4,9
	c1.3-2.9,0.5-6.1,1.8-9.1c2.4,0,4.7,0.2,6.9,0.9c1.4,0.4,2.5,1.3,2.9,2.7c0.5,1.8,1.2,3.6,1.1,5.3c-0.2,4.4-1,8.6-3.3,12.5
	c-2,3.5-5.1,5.6-9.1,6.1c-0.9,0.1-1.9,0.1-2.7-0.2c-2.5-0.9-4.8-2.2-6.3-4.5C85.5,129,84.1,123.2,85.5,116.9z M91.2,145.1
	c6.5-3,11.8-1.8,16.2,4.4c1.2,1.6,1.6,3.5,1.5,5.4c-0.1,7-5.7,12.2-12,12.2c-1.5,0-3-0.3-4.5-0.9c-4.4-1.8-6.9-5.2-7.3-10.2
	C84.6,150.7,86.8,147.1,91.2,145.1z M159.7,301.7c0.2,0.1,0.5,0.2,0.7,0.3c0.2,0.1,0.5,0.2,0.7,0.4c2.5,1.4,4.7,3.2,6.3,5.3
	c1.4,1.8,2.4,3.8,3.1,6.1c0.6,2.1,1,4.2,1.5,6.5c-1.6,0-4.3,0.1-5.2-0.1c0,0-0.1,0-0.1,0c-0.5-3.7-1.4-7.1-3.8-9.8
	c-0.2-0.2-0.4-0.4-0.5-0.6c-0.7-0.7-1.5-1.3-2.5-1.9c4.2,6,4.9,8.2,3.6,12.4c-2.8,0.4-5.5,0.1-8.4-0.2c0,0,0,0-0.1,0
	c-0.1-0.7-0.3-1.2-0.3-1.8c-0.4-2.8-1.5-5.3-3.3-7.5c-0.1-0.1-0.2-0.3-0.3-0.5c0,0,0,0,0,0c-0.2-0.2-0.5-0.3-1.1,0
	c2,2.9,2.6,6,2,9.5c-0.8,0.1-1.5,0.2-2.1,0.2c-5.1-0.1-10.1-0.2-15.2-0.3c-0.3,0-0.5-0.2-0.9-0.3c0,0-0.1,0-0.1,0
	c-0.2-1.6-0.3-3.2-0.7-4.8c-0.4-1.4-1-2.8-1.8-4.1c-0.8-1.4-1.8-2.6-2.9-4c1.3-1.4,2.8-2.4,4.4-3.2c0.1-0.1,0.2-0.1,0.4-0.2
	c4-1.9,8.1-3.2,12.5-3.6C150.5,298.9,155.3,299.5,159.7,301.7z M129.3,319.5c-1.1,0-2.3-0.1-3.4-0.2c-1.3-2.3-1.1-5.2-3.7-7.3
	c0,0.1,0.1,0.2,0.1,0.3c0.8,2.5,2.3,4.4,1.2,6.8c0,0-0.1,0-0.1,0c-3,0.8-5.9,0.1-8.7-0.1c-1.1-2.2-0.9-4.9-2.7-7.1
	c0,0.1,0,0.2,0,0.3c0.2,2.4,1.2,4.4,0.4,6.5c0,0-0.1,0.1-0.1,0.1c0,0,0,0.1-0.1,0.1c-0.7,0.6-1.6,0.4-2.4,0.4
	c-3.8,0-7.6-0.1-11.4-0.1c-3.3,0-6.7,0.1-10,0.1c-1.5,0-3,0-4.5-0.1c-0.2-0.6-0.4-1.3-0.5-1.9c0-0.1,0-0.2,0-0.3
	c-0.2-1.8,0.1-3.5,1.1-5c0,0,0-0.1,0.1-0.1c-1.1,0.1-1.4,0.9-1.6,1.6c-0.6,1.7-1,3.5-1.6,5.4c-2.7,0.6-5.4,0.7-8.1,0.5
	c-0.3,0-0.6-0.1-0.8-0.2c0,0-0.1,0-0.1-0.1c-0.3-0.3-0.5-0.8-0.4-1.4c0.2-1.6,0.7-3.1,1.6-4.5c0.4-0.7,1-1.5,1.4-2.3
	c0-0.1,0.1-0.2,0.1-0.3c-3,2-3.8,5.2-4.6,8.4c-1.5,0.7-3,0.4-4.3,0.5c-0.1-0.1-0.1-0.1-0.2-0.2c-0.6-0.6-0.4-1.2-0.3-1.8
	c0.6-3.5,2.3-6.2,5.1-8.3c7-5.2,16.7-4.2,22.7,1.6c0.2,0.2,0.5,0.5,0.7,0.8c0.2,0.2,0.4,0.5,0.6,0.7c0.5,0.7,1,1.4,1.5,2.2
	c0.5,0.9,1,1.8,1.4,2.7h0c1.2,0.1,1.2-1,1.5-1.6c2.6-5.2,6.8-8.3,12.5-9.4c5-1,9.6,0.1,13.7,3.1c0.2,0.2,0.4,0.3,0.6,0.5
	c0.2,0.2,0.4,0.3,0.5,0.5c0.3,0.3,0.6,0.5,0.9,0.8c1.8,2,2.8,4.4,3.2,7.2c0,0.1,0,0.2,0,0.2c0,0.2,0,0.3-0.1,0.5
	c0,0.1-0.1,0.2-0.2,0.4c0,0,0,0-0.1,0C129.9,319.4,129.6,319.5,129.3,319.5z M44.9,311.9c0.2-0.4,0.3-0.9,0.6-2c0,0,0,0,0,0
	c-2.5,2.5-3.6,5-4.2,7.8c-0.2,0.9-0.5,1.7-0.7,2.6c-2.9,0-5.7,0.5-8.5,0c-0.2-0.6-0.3-1.2-0.4-1.8c0-0.2,0-0.4,0-0.6
	c0-0.5,0-1,0-1.5c0.2-1.9,0.9-3.7,2-5.5c0.5-0.6,1.3-1,1.3-1.9v0c0,0,0-0.1,0-0.1c0,0,0-0.1,0-0.1c-0.5,0.2-1,0.4-1.4,0.8
	c-2.2,2.2-3.4,4.9-4.1,7.8c-0.2,1-0.4,2-0.6,3.1c-0.6,0.1-3.8-0.4-5-0.4V320c0-0.1,0-0.2,0-0.2v-0.9c0.6-4.2,1.9-8.1,4.6-11.4
	c0.5-0.6,1-1.2,1.6-1.7c5-4.7,11.1-6.5,17.7-6.4c5.2,0.1,10.1,1.5,14.7,3.8c0.3,0.1,0.6,0.3,0.8,0.4c1.8,0.9,2.3,1.4,3.9,3.3
	c0,0,0,0,0,0c-2.6,2.7-4.3,5.8-4.9,9.4c0,0.2-0.1,0.5-0.1,0.7c-0.1,0.6-0.1,1.1-0.2,1.7c0,0.3,0,0.6,0,0.8v0.1
	c-3.2,0.1-6.2,0.2-9.1,0.2c-3-0.2-6,0.4-9.1-0.2c-0.1-0.3-0.1-0.7-0.2-1c0-0.3-0.1-0.6-0.1-0.9c0-0.4,0-0.8,0-1.2
	c0-0.2,0-0.4,0.1-0.6c0-0.2,0.1-0.4,0.1-0.6C44,314.3,44.4,313.1,44.9,311.9z M181.5,233.8c-0.6,10.1-3.4,19.7-6.9,29.1
	c-1.9,4.7-4,9.4-6.3,14c-2.9,5.9-6.1,11.7-9.5,17.3c-0.5,0.8-1,1.5-1.5,2.3c-0.1,0.2-0.3,0.3-0.5,0.5H149c-0.4,0-0.7,0-1.1,0
	c-0.2,0-0.3,0-0.5,0.1c-0.2,0-0.4,0.1-0.6,0.1c-0.4,0.1-0.8,0.2-1.2,0.2c-0.3,0-0.6,0-0.8,0c-0.2,0-0.3,0-0.5,0
	c-0.1,0-0.3-0.1-0.4-0.1c-0.9-0.2-1.8-0.6-2.7-1c-2.7-1.3-5.1-3.1-7-5.4c-4.1-4.8-6.4-10.4-7.8-16.3c-2.1-8.6-2.1-17.3-0.5-26
	c0.8-4.3,2.3-8.4,3.5-12.6c0.1-0.4,0.3-0.9,0.5-1.3c3.9-7.3,9-13.6,15.7-18.5c3.9-2.9,8.5-4,13.2-4.7c0.5,0,0.9-0.1,1.4-0.1
	c1.3-0.1,2.6-0.1,3.9-0.1c0.2,0,0.5,0,0.7,0c0.3,0,0.5,0,0.8,0.1c0.2,0,0.5,0,0.7,0.1c7.5,1,12.8,5.9,14.6,13.7
	c0.1,0.3,0.1,0.7,0.2,1C181.6,228.7,181.7,231.2,181.5,233.8z M178.7,45.1c-0.7,6.8-2.4,13.3-5.5,19.4c-0.6,1.1-1,2.4-2.5,2.9
	c-0.5-0.5-1.2-0.9-1.7-1.5c-2.9-3.1-5.4-6.6-7.7-10.1c-4.9-7.4-9.1-15.2-12.9-23.1c-4-8.5-7.6-17.2-10.8-26.1
	c-0.4-1.1-0.8-2.2-1-3.3c-0.1-0.4,0-1,0-1.8c1.4,0.4,2.5,0.6,3.5,0.9c3.1,1.1,6.3,2.2,9.4,3.4c9.4,3.4,17.6,8.9,25.4,15
	c1.9,1.5,2.9,3.3,3.3,5.8C179.3,32.8,179.4,38.9,178.7,45.1z M14.4,229.8c0-0.7,0.1-1.5,0.2-2.2c0.1-0.8,0.2-1.5,0.4-2.3
	c2.3-10.6,10.1-14.2,17-14.2c4.2,0,8.3,0.5,12.2,1.8c1.6,0.5,3.2,1.3,4.6,2.3c6,3.9,10.7,9,14.5,15c1.8,2.8,3.4,5.7,4.1,9
	c0.4,1.8,1,3.5,1.5,5.3c0.7,2.7,1.2,5.3,1.6,8c0,0,0,0,0,0c0.1,0.9,0.2,1.8,0.3,2.6v0c0.1,1.2,0.2,2.3,0.2,3.5c0,1.5,0,2.9,0,4.4
	c-0.1,2.2-0.3,4.4-0.6,6.5c-0.6,3.6-1.5,7.2-2.8,10.8c-1.3,3.6-3.1,6.9-5.5,9.9c-2.3,2.8-5.1,5-8.5,6.3c-1,0.4-2.2,0.8-3.3,0.6
	c-3.4-0.4-6.9-0.5-10.3-0.2c-0.3,0-0.7-0.1-1.1-0.1c-0.5-0.8-1.1-1.6-1.7-2.5c-7.5-12.3-13.8-25.2-18.2-38.9
	c-2.2-6.5-3.7-13.1-4.3-19.9c0-0.4-0.1-0.7-0.1-1.1c0-0.4,0-0.8-0.1-1.2C14.4,232.2,14.4,231,14.4,229.8z M118.7,67.1
	c1.2-1.4,2.3-2.9,3.4-4.3c1.1-1.4,2.2-3,3.5-4.2c2.7-2.6,5.8-3,9.2-1.4c1.2,0.6,2.4,1.2,3.7,1.8c0-0.3,0-0.6-0.1-0.7
	c-1.8-1.2-3.5-2.5-5.5-3.5c-0.8-0.4-1.6-0.6-2.5-0.7c0,0,0,0-0.1,0c-1.4-0.2-2.9-0.1-4.4,0.2c-3.9,1-7.1,3.1-9.7,6.1
	c-0.5,0.6-0.8,1.4-0.9,2.1c-0.1,1.5,0.2,3,0.9,4.3C116.8,67.9,117.8,68.1,118.7,67.1z M99.8,207.2c0.1,0.1,0.5,0,0.6-0.1
	c0.2-0.1,0.3-0.4,0.3-0.6c0-0.3-0.1-0.7-0.3-0.9c-1.3-1.8-2.6-3.5-3.9-5.2c-0.2-0.2-0.5-0.3-0.8-0.4c0.9,2,1.9,4,2.9,6
	C98.8,206.5,99.4,206.8,99.8,207.2z M84.5,187.7c0.2,1.6,0.4,3.2,0.7,4.8c0.8,4.5,2.6,8.6,5.1,12.3c0.4,0.6,1.1,1.2,1.7,1.7
	c0.2,0.1,0.7,0,0.9-0.2c0.1-0.1,0.1-0.2,0.2-0.2c0,0,0,0,0,0c0.2-0.2,0.4-0.5,0.3-0.7c-0.2-0.5-0.6-1-1-1.4
	c-3.7-4.6-6.1-9.7-6.4-15.4c0-0.8,0-1.7,0-2.6c0-0.1,0-0.2,0-0.4c0,0,0-0.1,0-0.1c0-0.3-0.1-0.6-0.6-0.8c-1.5,0.5-1.7,2.7-3.6,3.7
	c0-0.7,0-1.3,0-2c0-0.3,0-0.5,0.1-0.8c0.1-0.8,0.2-1.5,0.3-2.1c0.4-1.8,0.7-3.7,1.1-5.5l0,0c0,0,0-0.1,0-0.1
	c-0.3,0.4-0.7,0.7-0.9,1.1c-1.1,2.7-1.8,5.5-2.1,8.3c0,0.4,0,0.7-0.1,1.1c0,0.4,0,0.7-0.1,1.1c0,0.6-0.1,1.3-0.1,2v0.1
	c0,0.5,0.2,1.1,1,1.2c1-0.5,1.1-1.6,1.5-2.5C83.1,189.3,83.2,188.1,84.5,187.7z M84.5,311.6C84.4,311.6,84.4,311.5,84.5,311.6
	C84.4,311.5,84.4,311.6,84.5,311.6c0,0.1,0,0.2,0.1,0.3c0-0.1,0-0.1,0-0.2C84.5,311.7,84.5,311.6,84.5,311.6z M84.2,176
	C84.2,176,84.2,176,84.2,176c0.1-0.1,0.1-0.1,0.1-0.2c0,0,0,0-0.1,0.1C84.2,175.9,84.1,175.9,84.2,176l-0.1,0.1
	C84.1,176.1,84.2,176.1,84.2,176z M83.6,177.6c0.5-0.4,0.4-0.9,0.5-1.4c0,0-0.1,0-0.1,0.1v-0.2c-0.5,0.4-0.6,0.9-0.5,1.4
	c0,0,0.1,0,0.1-0.1C83.6,177.5,83.6,177.6,83.6,177.6z M83.5,177.6c0,0,0,0,0-0.1C83.5,177.5,83.5,177.5,83.5,177.6L83.5,177.6
	L83.5,177.6C83.5,177.5,83.5,177.6,83.5,177.6C83.5,177.6,83.5,177.6,83.5,177.6c-0.1,0.1-0.1,0.1-0.1,0.1S83.5,177.7,83.5,177.6z
	 M76.7,50.8c-1.7-1.3-3.7-1.9-5.8-1.2c-3.6,1-6,3.4-7.2,6.8c-1.8,5.2-0.7,10.1,2.6,14.3c3.7,4.7,9.2,4.2,12.1-1
	c1.6-2.8,2.5-5.9,2.5-8.9C80.9,56.7,79.9,53.3,76.7,50.8z M71.4,58.4c-0.5,1.2-1.2,2.2-2.2,3.2c-0.3,0.3-0.8,0.5-1.2,0.7
	c-1.3,0.5-2.6,0-3-1.4c-0.2-0.8-0.3-1.6-0.3-2.4c0-2.1,0.9-4,2.3-5.6c0.5-0.6,1.3-1,2-1.1c2-0.5,3.4,0.8,3.4,3
	C72.2,56.1,71.9,57.3,71.4,58.4z M35.1,308.6C35.2,308.6,35.2,308.6,35.1,308.6C35.2,308.6,35.2,308.7,35.1,308.6
	c0.5,0.2,0.8,0.1,1-0.3c0-0.1,0.1-0.1,0.1-0.2c0-0.1,0-0.1,0-0.2c0-0.1,0-0.1,0-0.2c0,0,0-0.1,0-0.1l0,0c0,0,0-0.1,0-0.1
	C35.8,308,35.5,308.3,35.1,308.6z M76.7,50.8c-1.7-1.3-3.7-1.9-5.8-1.2c-3.6,1-6,3.4-7.2,6.8c-1.8,5.2-0.7,10.1,2.6,14.3
	c3.7,4.7,9.2,4.2,12.1-1c1.6-2.8,2.5-5.9,2.5-8.9C80.9,56.7,79.9,53.3,76.7,50.8z M71.4,58.4c-0.5,1.2-1.2,2.2-2.2,3.2
	c-0.3,0.3-0.8,0.5-1.2,0.7c-1.3,0.5-2.6,0-3-1.4c-0.2-0.8-0.3-1.6-0.3-2.4c0-2.1,0.9-4,2.3-5.6c0.5-0.6,1.3-1,2-1.1
	c2-0.5,3.4,0.8,3.4,3C72.2,56.1,71.9,57.3,71.4,58.4z M138.4,58.3c-1.8-1.2-3.5-2.5-5.5-3.5c-0.8-0.4-1.6-0.6-2.5-0.7c0,0,0,0-0.1,0
	c-1.4-0.2-2.9-0.1-4.4,0.2c-3.9,1-7.1,3.1-9.7,6.1c-0.5,0.6-0.8,1.4-0.9,2.1c-0.1,1.5,0.2,3,0.9,4.3c0.6,1.1,1.6,1.3,2.5,0.3
	c1.2-1.4,2.3-2.9,3.4-4.3c1.1-1.4,2.2-3,3.5-4.2c2.7-2.6,5.8-3,9.2-1.4c1.2,0.6,2.4,1.2,3.7,1.8C138.5,58.7,138.5,58.4,138.4,58.3z
	 M83.5,177.5L83.5,177.5L83.5,177.5C83.5,177.5,83.5,177.6,83.5,177.5c0,0.1-0.1,0.1-0.1,0.1c0,0,0,0,0,0S83.5,177.7,83.5,177.5
	C83.5,177.6,83.5,177.6,83.5,177.5C83.5,177.5,83.5,177.5,83.5,177.5z M84,176.3v-0.2c-0.5,0.4-0.6,0.9-0.5,1.4c0,0,0.1,0,0.1-0.1
	c0,0.1,0,0.1,0,0.2C84.1,177.2,84,176.7,84,176.3C84.1,176.2,84.1,176.2,84,176.3z M84.3,175.9c-0.1,0-0.1,0.1-0.1,0.1v0.1
	c0,0,0.1,0,0.1-0.1C84.2,176,84.2,176,84.3,175.9C84.3,175.9,84.3,175.9,84.3,175.9C84.3,175.8,84.3,175.8,84.3,175.9z M93.4,205.3
	c-0.2-0.5-0.6-1-1-1.4c-3.7-4.6-6.1-9.7-6.4-15.4c0-0.8,0-1.7,0-2.6c0-0.1,0-0.2,0-0.4c0,0,0-0.1,0-0.1c0-0.3-0.1-0.6-0.6-0.8
	c-1.5,0.5-1.7,2.7-3.6,3.7c0-0.7,0-1.3,0-2c0-0.3,0-0.5,0.1-0.8c0.1-0.8,0.2-1.5,0.3-2.1c0.4-1.8,0.7-3.7,1.1-5.5l0,0
	c0,0,0-0.1,0-0.1c-0.3,0.4-0.7,0.7-0.9,1.1c-1.1,2.7-1.8,5.5-2.1,8.3c0,0.4,0,0.7-0.1,1.1c0,0.4,0,0.7-0.1,1.1c0,0.6-0.1,1.3-0.1,2
	v0.1c0,0.5,0.2,1.1,1,1.2c1-0.5,1.1-1.6,1.5-2.5c0.5-0.8,0.6-2,1.9-2.4c0.2,1.6,0.4,3.2,0.7,4.8c0.8,4.5,2.6,8.6,5.1,12.3
	c0.4,0.6,1.1,1.2,1.7,1.7c0.2,0.1,0.7,0,0.9-0.2c0.1-0.1,0.1-0.2,0.2-0.2c0,0,0,0,0,0C93.3,205.8,93.5,205.5,93.4,205.3z
	 M100.4,205.6c-1.3-1.8-2.6-3.5-3.9-5.2c-0.2-0.2-0.5-0.3-0.8-0.4c0.9,2,1.9,4,2.9,6c0.2,0.5,0.8,0.8,1.2,1.2c0.1,0.1,0.5,0,0.6-0.1
	c0.2-0.1,0.3-0.4,0.3-0.6C100.7,206.2,100.6,205.8,100.4,205.6z M84.5,311.7c0,0,0-0.1,0-0.2c0,0,0-0.1,0-0.1
	C84.4,311.5,84.4,311.6,84.5,311.7c0,0,0,0.1,0,0.2C84.5,311.8,84.5,311.8,84.5,311.7z M36.3,307.5c-0.5,0.5-0.8,0.8-1.2,1.1
	c0,0,0,0,0.1,0c0,0,0,0-0.1,0.1c0.5,0.1,0.8,0,1-0.4c0-0.1,0.1-0.1,0.1-0.2c0-0.1,0-0.1,0-0.2c0-0.1,0-0.1,0-0.2c0,0,0-0.1,0-0.1
	l0,0C36.3,307.6,36.3,307.5,36.3,307.5z M138.4,58.3c-1.8-1.2-3.5-2.5-5.5-3.5c-0.8-0.4-1.6-0.6-2.5-0.7c0,0,0,0-0.1,0
	c-1.4-0.2-2.9-0.1-4.4,0.2c-3.9,1-7.1,3.1-9.7,6.1c-0.5,0.6-0.8,1.4-0.9,2.1c-0.1,1.5,0.2,3,0.9,4.3c0.6,1.1,1.6,1.3,2.5,0.3
	c1.2-1.4,2.3-2.9,3.4-4.3c1.1-1.4,2.2-3,3.5-4.2c2.7-2.6,5.8-3,9.2-1.4c1.2,0.6,2.4,1.2,3.7,1.8C138.5,58.7,138.5,58.4,138.4,58.3z
	 M100.4,205.6c-1.3-1.8-2.6-3.5-3.9-5.2c-0.2-0.2-0.5-0.3-0.8-0.4c0.9,2,1.9,4,2.9,6c0.2,0.5,0.8,0.8,1.2,1.2c0.1,0.1,0.5,0,0.6-0.1
	c0.2-0.1,0.3-0.4,0.3-0.6C100.7,206.2,100.6,205.8,100.4,205.6z M93.4,205.3c-0.2-0.5-0.6-1-1-1.4c-3.7-4.6-6.1-9.7-6.4-15.4
	c0-0.8,0-1.7,0-2.6c0-0.1,0-0.2,0-0.4c0,0,0-0.1,0-0.1c0-0.3-0.1-0.6-0.6-0.8c-1.5,0.5-1.7,2.7-3.6,3.7c0-0.7,0-1.3,0-2
	c0-0.3,0-0.5,0.1-0.8c0.1-0.8,0.2-1.5,0.3-2.1c0.4-1.8,0.7-3.7,1.1-5.5l0,0c0,0,0-0.1,0-0.1c-0.3,0.4-0.7,0.7-0.9,1.1
	c-1.1,2.7-1.8,5.5-2.1,8.3c0,0.4,0,0.7-0.1,1.1c0,0.4,0,0.7-0.1,1.1c0,0.6-0.1,1.3-0.1,2v0.1c0,0.5,0.2,1.1,1,1.2
	c1-0.5,1.1-1.6,1.5-2.5c0.5-0.8,0.6-2,1.9-2.4c0.2,1.6,0.4,3.2,0.7,4.8c0.8,4.5,2.6,8.6,5.1,12.3c0.4,0.6,1.1,1.2,1.7,1.7
	c0.2,0.1,0.7,0,0.9-0.2c0.1-0.1,0.1-0.2,0.2-0.2c0,0,0,0,0,0C93.3,205.8,93.5,205.5,93.4,205.3z M84.5,311.7c0,0,0-0.1,0-0.2
	c0,0,0-0.1,0-0.1C84.4,311.5,84.4,311.6,84.5,311.7c0,0,0,0.1,0,0.2C84.5,311.8,84.5,311.8,84.5,311.7z M84.3,175.9
	c-0.1,0-0.1,0.1-0.1,0.1v0.1c0,0,0.1,0,0.1-0.1C84.2,176,84.2,176,84.3,175.9C84.3,175.9,84.3,175.9,84.3,175.9
	C84.3,175.8,84.3,175.8,84.3,175.9z M84,176.3v-0.2c-0.5,0.4-0.6,0.9-0.5,1.4c0,0,0.1,0,0.1-0.1c0,0.1,0,0.1,0,0.2
	C84.1,177.2,84,176.7,84,176.3C84.1,176.2,84.1,176.2,84,176.3z M83.5,177.5L83.5,177.5L83.5,177.5
	C83.5,177.5,83.5,177.6,83.5,177.5c0,0.1-0.1,0.1-0.1,0.1c0,0,0,0,0,0S83.5,177.7,83.5,177.5C83.5,177.6,83.5,177.6,83.5,177.5
	C83.5,177.5,83.5,177.5,83.5,177.5z M76.7,50.8c-1.7-1.3-3.7-1.9-5.8-1.2c-3.6,1-6,3.4-7.2,6.8c-1.8,5.2-0.7,10.1,2.6,14.3
	c3.7,4.7,9.2,4.2,12.1-1c1.6-2.8,2.5-5.9,2.5-8.9C80.9,56.7,79.9,53.3,76.7,50.8z M71.4,58.4c-0.5,1.2-1.2,2.2-2.2,3.2
	c-0.3,0.3-0.8,0.5-1.2,0.7c-1.3,0.5-2.6,0-3-1.4c-0.2-0.8-0.3-1.6-0.3-2.4c0-2.1,0.9-4,2.3-5.6c0.5-0.6,1.3-1,2-1.1
	c2-0.5,3.4,0.8,3.4,3C72.2,56.1,71.9,57.3,71.4,58.4z M36.3,307.5c-0.5,0.5-0.8,0.8-1.2,1.1c0,0,0,0,0.1,0c0,0,0,0-0.1,0.1
	c0.5,0.1,0.8,0,1-0.4c0-0.1,0.1-0.1,0.1-0.2c0-0.1,0-0.1,0-0.2c0-0.1,0-0.1,0-0.2c0,0,0-0.1,0-0.1l0,0
	C36.3,307.6,36.3,307.5,36.3,307.5z M36.3,307.6c-0.5,0.4-0.7,0.6-1.1,1c0,0,0,0,0,0c0,0,0,0-0.1,0.1c0.5,0.1,0.8,0,1-0.4
	c0-0.1,0.1-0.1,0.1-0.2c0-0.1,0-0.1,0-0.2C36.3,307.8,36.3,307.8,36.3,307.6C36.3,307.7,36.3,307.6,36.3,307.6L36.3,307.6z
	 M83.5,177.5L83.5,177.5L83.5,177.5C83.5,177.5,83.5,177.6,83.5,177.5C83.5,177.6,83.5,177.6,83.5,177.5
	C83.5,177.6,83.5,177.6,83.5,177.5C83.5,177.5,83.5,177.5,83.5,177.5z M83.4,177.6C83.4,177.7,83.4,177.7,83.4,177.6
	C83.4,177.7,83.5,177.7,83.4,177.6C83.5,177.6,83.5,177.6,83.4,177.6z M84,176.3c-0.4,0.3-0.5,0.7-0.4,1.2c0,0.1,0,0.1,0,0.2
	C84.1,177.2,84,176.7,84,176.3C84.1,176.2,84.1,176.2,84,176.3z M84.1,176v0.1C84.1,176.1,84.2,176.1,84.1,176c0.1,0,0.1,0,0.1,0
	c0,0,0,0,0-0.1C84.2,175.9,84.2,175.9,84.1,176z M93.1,205.4c0.1-0.6-0.3-1-0.7-1.4c-3.7-4.7-6.1-9.7-6.4-15.5c0-0.8,0-1.7,0-2.6
	c0-0.1,0-0.2,0-0.4c0,0,0-0.1,0-0.1c0-0.2-0.2-0.5-0.6-0.7c-1.5,0.5-1.7,2.7-3.6,3.7v-0.1c0-0.7,0-1.3,0-2c0-0.3,0-0.5,0.1-0.8
	c0.1-0.8,0.2-1.5,0.3-2.1c0.4-1.8,0.7-3.7,1.1-5.5l0,0c-0.3,0.4-0.7,0.7-0.9,1.1c-1.1,2.7-1.8,5.5-2.1,8.3c0,0.3,0,0.7-0.1,1
	c0,0.4,0,0.7-0.1,1.1c0,0.6-0.1,1.3-0.1,2v0.1c0,0.5,0.2,1.1,1,1.2c1-0.5,1.1-1.6,1.5-2.5c0.5-0.8,0.6-2,1.9-2.4
	c0.2,1.6,0.4,3.2,0.7,4.8c0.8,4.5,2.6,8.6,5.1,12.3c0.4,0.6,1.1,1.2,1.7,1.7c0.2,0.1,0.7,0,0.9-0.2c0.1-0.1,0.1-0.2,0.2-0.2
	c0,0,0,0,0,0C93.2,205.8,93.2,205.5,93.1,205.4z M100.3,205.6c-1.3-1.7-2.5-3.5-3.8-5.2c-0.2-0.2-0.5-0.3-0.8-0.4c0.9,2,1.9,4,2.9,6
	c0.2,0.5,0.8,0.8,1.2,1.2c0.1,0.1,0.5,0,0.6-0.1c0.2-0.1,0.3-0.4,0.3-0.6C100.6,206.2,100.5,205.8,100.3,205.6z M76.7,50.8
	c-1.7-1.3-3.7-1.9-5.8-1.2c-3.6,1-6,3.4-7.2,6.8c-1.8,5.2-0.7,10.1,2.6,14.3c3.7,4.7,9.2,4.2,12.1-1c1.6-2.8,2.5-5.9,2.5-8.9
	C80.9,56.7,79.9,53.3,76.7,50.8z M71.4,58.4c-0.5,1.2-1.2,2.2-2.2,3.2c-0.3,0.3-0.8,0.5-1.2,0.7c-1.3,0.5-2.6,0-3-1.4
	c-0.2-0.8-0.3-1.6-0.3-2.4c0-2.1,0.9-4,2.3-5.6c0.5-0.6,1.3-1,2-1.1c2-0.5,3.4,0.8,3.4,3C72.2,56.1,71.9,57.3,71.4,58.4z
	 M138.4,58.4c-1.8-1.2-3.5-2.5-5.5-3.5c-0.8-0.4-1.6-0.7-2.5-0.8c0,0,0,0-0.1,0c-1.4-0.2-2.9-0.1-4.4,0.2c-3.9,1-7.1,3.1-9.7,6.1
	c-0.5,0.6-0.8,1.4-0.9,2.1c-0.1,1.5,0.2,3,0.9,4.3c0.6,1.1,1.6,1.3,2.5,0.3c1.2-1.4,2.3-2.9,3.4-4.3c1.1-1.4,2.2-3,3.5-4.2
	c2.7-2.6,5.8-3,9.2-1.4c1.2,0.6,2.4,1.2,3.7,1.8C138.4,58.8,138.5,58.5,138.4,58.4z M138.4,58.4c-1.8-1.2-3.5-2.5-5.5-3.5
	c-0.8-0.4-1.6-0.7-2.5-0.8c0,0,0,0-0.1,0c-1.4-0.2-2.9-0.1-4.4,0.2c-3.9,1-7.1,3.1-9.7,6.1c-0.5,0.6-0.8,1.4-0.9,2.1
	c-0.1,1.5,0.2,3,0.9,4.3c0.6,1.1,1.6,1.3,2.5,0.3c1.2-1.4,2.3-2.9,3.4-4.3c1.1-1.4,2.2-3,3.5-4.2c2.7-2.6,5.8-3,9.2-1.4
	c1.2,0.6,2.4,1.2,3.7,1.8C138.4,58.8,138.5,58.5,138.4,58.4z M100.3,205.6c-1.3-1.7-2.5-3.5-3.8-5.2c-0.2-0.2-0.5-0.3-0.8-0.4
	c0.9,2,1.9,4,2.9,6c0.2,0.5,0.8,0.8,1.2,1.2c0.1,0.1,0.5,0,0.6-0.1c0.2-0.1,0.3-0.4,0.3-0.6C100.6,206.2,100.5,205.8,100.3,205.6z
	 M93.4,205.3c-0.2-0.5-0.6-1-1-1.4c-3.7-4.6-6.1-9.7-6.4-15.4c0-0.8,0-1.7,0-2.6c0-0.1,0-0.2,0-0.4c0,0,0-0.1,0-0.1
	c0-0.3-0.1-0.6-0.6-0.8c-1.5,0.5-1.7,2.7-3.6,3.7c0-0.7,0-1.3,0-2c0-0.3,0-0.5,0.1-0.8c0.1-0.8,0.2-1.5,0.3-2.2
	c0.4-1.8,0.7-3.6,1.1-5.4c0,0,0-0.1,0-0.1c-0.3,0.4-0.7,0.7-0.9,1.1c-1.1,2.7-1.8,5.5-2.1,8.3c0,0.4,0,0.7-0.1,1.1
	c0,0.4,0,0.7-0.1,1.1c0,0.6-0.1,1.3-0.1,2v0.1c0,0.5,0.2,1,1,1.1c1-0.5,1.1-1.6,1.5-2.5c0.5-0.8,0.6-2,1.9-2.4
	c0.2,1.6,0.4,3.2,0.7,4.8c0.8,4.5,2.6,8.6,5.1,12.3c0.4,0.6,1.1,1.2,1.7,1.7c0.2,0.1,0.7,0,0.9-0.2c0,0,0.1-0.1,0.2-0.1c0,0,0,0,0,0
	C93.3,205.8,93.5,205.5,93.4,205.3z M84.3,175.9c-0.1,0-0.1,0.1-0.1,0.1C84.2,176,84.2,176,84.3,175.9
	C84.3,175.9,84.3,175.9,84.3,175.9C84.3,175.8,84.3,175.8,84.3,175.9z M83.5,177.5C83.6,177.5,83.6,177.5,83.5,177.5
	c0.5-0.3,0.5-0.7,0.5-1.2v-0.2C83.5,176.5,83.4,177,83.5,177.5z M83.5,177.5L83.5,177.5L83.5,177.5
	C83.5,177.5,83.5,177.6,83.5,177.5c0,0.1-0.1,0.1-0.1,0.1c0,0,0,0,0,0L83.5,177.5C83.5,177.6,83.5,177.6,83.5,177.5
	C83.5,177.5,83.5,177.5,83.5,177.5z M76.7,50.8c-1.7-1.3-3.7-1.9-5.8-1.2c-3.6,1-6,3.4-7.2,6.8c-1.8,5.2-0.7,10.1,2.6,14.3
	c3.7,4.7,9.2,4.2,12.1-1c1.6-2.8,2.5-5.9,2.5-8.9C80.9,56.7,79.9,53.3,76.7,50.8z M71.4,58.4c-0.5,1.2-1.2,2.2-2.2,3.2
	c-0.3,0.3-0.8,0.5-1.2,0.7c-1.3,0.5-2.6,0-3-1.4c-0.2-0.8-0.3-1.6-0.3-2.4c0-2.1,0.9-4,2.3-5.6c0.5-0.6,1.3-1,2-1.1
	c2-0.5,3.4,0.8,3.4,3C72.2,56.1,71.9,57.3,71.4,58.4z M36.3,307.6c-0.5,0.4-0.7,0.6-1.1,1c0,0,0,0,0,0c0,0,0,0-0.1,0.1
	c0.5,0.1,0.8,0,1-0.4c0-0.1,0.1-0.1,0.1-0.2c0-0.1,0-0.1,0-0.2C36.3,307.8,36.3,307.8,36.3,307.6C36.3,307.7,36.3,307.6,36.3,307.6
	L36.3,307.6z M36.3,307.6c-0.5,0.4-0.7,0.6-1.1,1c0,0,0,0,0,0c0,0,0,0-0.1,0.1c0.5,0.1,0.8,0,1-0.4c0-0.1,0.1-0.1,0.1-0.2
	c0-0.1,0-0.1,0-0.2C36.3,307.8,36.3,307.8,36.3,307.6C36.3,307.7,36.3,307.6,36.3,307.6L36.3,307.6z M83.5,177.5L83.5,177.5
	L83.5,177.5C83.5,177.5,83.5,177.6,83.5,177.5c0,0.1-0.1,0.1-0.1,0.1c0,0,0,0,0,0L83.5,177.5C83.5,177.6,83.5,177.6,83.5,177.5
	C83.5,177.5,83.5,177.5,83.5,177.5z M83.5,177.5C83.6,177.5,83.6,177.5,83.5,177.5c0.5-0.3,0.5-0.7,0.5-1.2v-0.2
	C83.5,176.5,83.4,177,83.5,177.5z M84.3,175.9c-0.1,0-0.1,0.1-0.1,0.1C84.2,176,84.2,176,84.3,175.9
	C84.3,175.9,84.3,175.9,84.3,175.9C84.3,175.8,84.3,175.8,84.3,175.9z M93.4,205.3c-0.2-0.5-0.6-1-1-1.4c-3.7-4.6-6.1-9.7-6.4-15.4
	c0-0.8,0-1.7,0-2.6c0-0.1,0-0.2,0-0.4c0,0,0-0.1,0-0.1c0-0.3-0.1-0.6-0.6-0.8c-1.5,0.5-1.7,2.7-3.6,3.7c0-0.7,0-1.3,0-2
	c0-0.3,0-0.5,0.1-0.8c0.1-0.8,0.2-1.5,0.3-2.2c0.4-1.8,0.7-3.6,1.1-5.4c0,0,0-0.1,0-0.1c-0.3,0.4-0.7,0.7-0.9,1.1
	c-1.1,2.7-1.8,5.5-2.1,8.3c0,0.4,0,0.7-0.1,1.1c0,0.4,0,0.7-0.1,1.1c0,0.6-0.1,1.3-0.1,2v0.1c0,0.5,0.2,1,1,1.1
	c1-0.5,1.1-1.6,1.5-2.5c0.5-0.8,0.6-2,1.9-2.4c0.2,1.6,0.4,3.2,0.7,4.8c0.8,4.5,2.6,8.6,5.1,12.3c0.4,0.6,1.1,1.2,1.7,1.7
	c0.2,0.1,0.7,0,0.9-0.2c0,0,0.1-0.1,0.2-0.1c0,0,0,0,0,0C93.3,205.8,93.5,205.5,93.4,205.3z M100.3,205.6c-1.3-1.7-2.5-3.5-3.8-5.2
	c-0.2-0.2-0.5-0.3-0.8-0.4c0.9,2,1.9,4,2.9,6c0.2,0.5,0.8,0.8,1.2,1.2c0.1,0.1,0.5,0,0.6-0.1c0.2-0.1,0.3-0.4,0.3-0.6
	C100.6,206.2,100.5,205.8,100.3,205.6z M76.7,50.8c-1.7-1.3-3.7-1.9-5.8-1.2c-3.6,1-6,3.4-7.2,6.8c-1.8,5.2-0.7,10.1,2.6,14.3
	c3.7,4.7,9.2,4.2,12.1-1c1.6-2.8,2.5-5.9,2.5-8.9C80.9,56.7,79.9,53.3,76.7,50.8z M71.4,58.4c-0.5,1.2-1.2,2.2-2.2,3.2
	c-0.3,0.3-0.8,0.5-1.2,0.7c-1.3,0.5-2.6,0-3-1.4c-0.2-0.8-0.3-1.6-0.3-2.4c0-2.1,0.9-4,2.3-5.6c0.5-0.6,1.3-1,2-1.1
	c2-0.5,3.4,0.8,3.4,3C72.2,56.1,71.9,57.3,71.4,58.4z M138.4,58.4c-1.8-1.2-3.5-2.5-5.5-3.5c-0.8-0.4-1.6-0.7-2.5-0.8c0,0,0,0-0.1,0
	c-1.4-0.2-2.9-0.1-4.4,0.2c-3.9,1-7.1,3.1-9.7,6.1c-0.5,0.6-0.8,1.4-0.9,2.1c-0.1,1.5,0.2,3,0.9,4.3c0.6,1.1,1.6,1.3,2.5,0.3
	c1.2-1.4,2.3-2.9,3.4-4.3c1.1-1.4,2.2-3,3.5-4.2c2.7-2.6,5.8-3,9.2-1.4c1.2,0.6,2.4,1.2,3.7,1.8C138.4,58.8,138.5,58.5,138.4,58.4z
	 M138.4,58.4c-1.8-1.2-3.5-2.5-5.5-3.5c-0.8-0.4-1.6-0.7-2.5-0.8c0,0,0,0-0.1,0c-1.4-0.2-2.9-0.1-4.4,0.2c-3.9,1-7.1,3.1-9.7,6.1
	c-0.5,0.6-0.8,1.4-0.9,2.1c-0.1,1.5,0.2,3,0.9,4.3c0.6,1.1,1.6,1.3,2.5,0.3c1.2-1.4,2.3-2.9,3.4-4.3c1.1-1.4,2.2-3,3.5-4.2
	c2.7-2.6,5.8-3,9.2-1.4c1.2,0.6,2.4,1.2,3.7,1.8C138.4,58.8,138.5,58.5,138.4,58.4z M100.3,205.6c-1.3-1.7-2.5-3.5-3.8-5.2
	c-0.2-0.2-0.5-0.3-0.8-0.4c0.9,2,1.9,4,2.9,6c0.2,0.5,0.8,0.8,1.2,1.2c0.1,0.1,0.5,0,0.6-0.1c0.2-0.1,0.3-0.4,0.3-0.6
	C100.6,206.2,100.5,205.8,100.3,205.6z M93.4,205.3c-0.2-0.5-0.6-1-1-1.4c-3.7-4.6-6.1-9.7-6.4-15.4c0-0.8,0-1.7,0-2.6
	c0-0.1,0-0.2,0-0.4c0,0,0-0.1,0-0.1c0-0.3-0.1-0.6-0.6-0.8c-1.5,0.5-1.7,2.7-3.6,3.7c0-0.7,0-1.3,0-2c0-0.3,0-0.5,0.1-0.8
	c0.1-0.8,0.2-1.5,0.3-2.2c0.4-1.8,0.7-3.6,1.1-5.4c0,0,0-0.1,0-0.1c-0.3,0.4-0.7,0.7-0.9,1.1c-1.1,2.7-1.8,5.5-2.1,8.3
	c0,0.4,0,0.7-0.1,1.1c0,0.4,0,0.7-0.1,1.1c0,0.6-0.1,1.3-0.1,2v0.1c0,0.5,0.2,1,1,1.1c1-0.5,1.1-1.6,1.5-2.5c0.5-0.8,0.6-2,1.9-2.4
	c0.2,1.6,0.4,3.2,0.7,4.8c0.8,4.5,2.6,8.6,5.1,12.3c0.4,0.6,1.1,1.2,1.7,1.7c0.2,0.1,0.7,0,0.9-0.2c0,0,0.1-0.1,0.2-0.1c0,0,0,0,0,0
	C93.3,205.8,93.5,205.5,93.4,205.3z M84.3,175.9c-0.1,0-0.1,0.1-0.1,0.1C84.2,176,84.2,176,84.3,175.9
	C84.3,175.9,84.3,175.9,84.3,175.9C84.3,175.8,84.3,175.8,84.3,175.9z M83.5,177.5C83.6,177.5,83.6,177.5,83.5,177.5
	c0.5-0.3,0.5-0.7,0.5-1.2v-0.2C83.5,176.5,83.4,177,83.5,177.5z M83.5,177.5L83.5,177.5L83.5,177.5
	C83.5,177.5,83.5,177.6,83.5,177.5c0,0.1-0.1,0.1-0.1,0.1c0,0,0,0,0,0L83.5,177.5C83.5,177.6,83.5,177.6,83.5,177.5
	C83.5,177.5,83.5,177.5,83.5,177.5z M76.7,50.8c-1.7-1.3-3.7-1.9-5.8-1.2c-3.6,1-6,3.4-7.2,6.8c-1.8,5.2-0.7,10.1,2.6,14.3
	c3.7,4.7,9.2,4.2,12.1-1c1.6-2.8,2.5-5.9,2.5-8.9C80.9,56.7,79.9,53.3,76.7,50.8z M71.4,58.4c-0.5,1.2-1.2,2.2-2.2,3.2
	c-0.3,0.3-0.8,0.5-1.2,0.7c-1.3,0.5-2.6,0-3-1.4c-0.2-0.8-0.3-1.6-0.3-2.4c0-2.1,0.9-4,2.3-5.6c0.5-0.6,1.3-1,2-1.1
	c2-0.5,3.4,0.8,3.4,3C72.2,56.1,71.9,57.3,71.4,58.4z M36.3,307.6c-0.5,0.4-0.7,0.6-1.1,1c0,0,0,0,0,0c0,0,0,0-0.1,0.1
	c0.5,0.1,0.8,0,1-0.4c0-0.1,0.1-0.1,0.1-0.2c0-0.1,0-0.1,0-0.2C36.3,307.8,36.3,307.8,36.3,307.6C36.3,307.7,36.3,307.6,36.3,307.6
	L36.3,307.6z M36.3,307.6c-0.5,0.4-0.7,0.6-1.1,1c0,0,0,0,0,0c0,0,0,0-0.1,0.1c0.5,0.1,0.8,0,1-0.4c0-0.1,0.1-0.1,0.1-0.2
	c0-0.1,0-0.1,0-0.2C36.3,307.8,36.3,307.8,36.3,307.6C36.3,307.7,36.3,307.6,36.3,307.6L36.3,307.6z M83.5,177.5L83.5,177.5
	L83.5,177.5C83.5,177.5,83.5,177.6,83.5,177.5c0,0.1-0.1,0.1-0.1,0.1c0,0,0,0,0,0L83.5,177.5C83.5,177.6,83.5,177.6,83.5,177.5
	C83.5,177.5,83.5,177.5,83.5,177.5z M83.5,177.5C83.6,177.5,83.6,177.5,83.5,177.5c0.5-0.3,0.5-0.7,0.5-1.2v-0.2
	C83.5,176.5,83.4,177,83.5,177.5z M84.3,175.9c-0.1,0-0.1,0.1-0.1,0.1C84.2,176,84.2,176,84.3,175.9
	C84.3,175.9,84.3,175.9,84.3,175.9C84.3,175.8,84.3,175.8,84.3,175.9z M93.4,205.3c-0.2-0.5-0.6-1-1-1.4c-3.7-4.6-6.1-9.7-6.4-15.4
	c0-0.8,0-1.7,0-2.6c0-0.1,0-0.2,0-0.4c0,0,0-0.1,0-0.1c0-0.3-0.1-0.6-0.6-0.8c-1.5,0.5-1.7,2.7-3.6,3.7c0-0.7,0-1.3,0-2
	c0-0.3,0-0.5,0.1-0.8c0.1-0.8,0.2-1.5,0.3-2.2c0.4-1.8,0.7-3.6,1.1-5.4c0,0,0-0.1,0-0.1c-0.3,0.4-0.7,0.7-0.9,1.1
	c-1.1,2.7-1.8,5.5-2.1,8.3c0,0.4,0,0.7-0.1,1.1c0,0.4,0,0.7-0.1,1.1c0,0.6-0.1,1.3-0.1,2v0.1c0,0.5,0.2,1,1,1.1
	c1-0.5,1.1-1.6,1.5-2.5c0.5-0.8,0.6-2,1.9-2.4c0.2,1.6,0.4,3.2,0.7,4.8c0.8,4.5,2.6,8.6,5.1,12.3c0.4,0.6,1.1,1.2,1.7,1.7
	c0.2,0.1,0.7,0,0.9-0.2c0,0,0.1-0.1,0.2-0.1c0,0,0,0,0,0C93.3,205.8,93.5,205.5,93.4,205.3z M100.3,205.6c-1.3-1.7-2.5-3.5-3.8-5.2
	c-0.2-0.2-0.5-0.3-0.8-0.4c0.9,2,1.9,4,2.9,6c0.2,0.5,0.8,0.8,1.2,1.2c0.1,0.1,0.5,0,0.6-0.1c0.2-0.1,0.3-0.4,0.3-0.6
	C100.6,206.2,100.5,205.8,100.3,205.6z M76.7,50.8c-1.7-1.3-3.7-1.9-5.8-1.2c-3.6,1-6,3.4-7.2,6.8c-1.8,5.2-0.7,10.1,2.6,14.3
	c3.7,4.7,9.2,4.2,12.1-1c1.6-2.8,2.5-5.9,2.5-8.9C80.9,56.7,79.9,53.3,76.7,50.8z M71.4,58.4c-0.5,1.2-1.2,2.2-2.2,3.2
	c-0.3,0.3-0.8,0.5-1.2,0.7c-1.3,0.5-2.6,0-3-1.4c-0.2-0.8-0.3-1.6-0.3-2.4c0-2.1,0.9-4,2.3-5.6c0.5-0.6,1.3-1,2-1.1
	c2-0.5,3.4,0.8,3.4,3C72.2,56.1,71.9,57.3,71.4,58.4z M138.4,58.4c-1.8-1.2-3.5-2.5-5.5-3.5c-0.8-0.4-1.6-0.7-2.5-0.8c0,0,0,0-0.1,0
	c-1.4-0.2-2.9-0.1-4.4,0.2c-3.9,1-7.1,3.1-9.7,6.1c-0.5,0.6-0.8,1.4-0.9,2.1c-0.1,1.5,0.2,3,0.9,4.3c0.6,1.1,1.6,1.3,2.5,0.3
	c1.2-1.4,2.3-2.9,3.4-4.3c1.1-1.4,2.2-3,3.5-4.2c2.7-2.6,5.8-3,9.2-1.4c1.2,0.6,2.4,1.2,3.7,1.8C138.4,58.8,138.5,58.5,138.4,58.4z
	 M138.4,58.4c-1.8-1.2-3.5-2.5-5.5-3.5c-0.8-0.4-1.6-0.7-2.5-0.8c0,0,0,0-0.1,0c-1.4-0.2-2.9-0.1-4.4,0.2c-3.9,1-7.1,3.1-9.7,6.1
	c-0.5,0.6-0.8,1.4-0.9,2.1c-0.1,1.5,0.2,3,0.9,4.3c0.6,1.1,1.6,1.3,2.5,0.3c1.2-1.4,2.3-2.9,3.4-4.3c1.1-1.4,2.2-3,3.5-4.2
	c2.7-2.6,5.8-3,9.2-1.4c1.2,0.6,2.4,1.2,3.7,1.8C138.4,58.8,138.5,58.5,138.4,58.4z M100.3,205.6c-1.3-1.7-2.5-3.5-3.8-5.2
	c-0.2-0.2-0.5-0.3-0.8-0.4c0.9,2,1.9,4,2.9,6c0.2,0.5,0.8,0.8,1.2,1.2c0.1,0.1,0.5,0,0.6-0.1c0.2-0.1,0.3-0.4,0.3-0.6
	C100.6,206.2,100.5,205.8,100.3,205.6z M93.4,205.3c-0.2-0.5-0.6-1-1-1.4c-3.7-4.6-6.1-9.7-6.4-15.4c0-0.8,0-1.7,0-2.6
	c0-0.1,0-0.2,0-0.4c0,0,0-0.1,0-0.1c0-0.3-0.1-0.6-0.6-0.8c-1.5,0.5-1.7,2.7-3.6,3.7c0-0.7,0-1.3,0-2c0-0.3,0-0.5,0.1-0.8
	c0.1-0.8,0.2-1.5,0.3-2.2c0.4-1.8,0.7-3.6,1.1-5.4c0,0,0-0.1,0-0.1c-0.3,0.4-0.7,0.7-0.9,1.1c-1.1,2.7-1.8,5.5-2.1,8.3
	c0,0.4,0,0.7-0.1,1.1c0,0.4,0,0.7-0.1,1.1c0,0.6-0.1,1.3-0.1,2v0.1c0,0.5,0.2,1,1,1.1c1-0.5,1.1-1.6,1.5-2.5c0.5-0.8,0.6-2,1.9-2.4
	c0.2,1.6,0.4,3.2,0.7,4.8c0.8,4.5,2.6,8.6,5.1,12.3c0.4,0.6,1.1,1.2,1.7,1.7c0.2,0.1,0.7,0,0.9-0.2c0,0,0.1-0.1,0.2-0.1c0,0,0,0,0,0
	C93.3,205.8,93.5,205.5,93.4,205.3z M84.3,175.9c-0.1,0-0.1,0.1-0.1,0.1C84.2,176,84.2,176,84.3,175.9
	C84.3,175.9,84.3,175.9,84.3,175.9C84.3,175.8,84.3,175.8,84.3,175.9z M83.5,177.5C83.6,177.5,83.6,177.5,83.5,177.5
	c0.5-0.3,0.5-0.7,0.5-1.2v-0.2C83.5,176.5,83.4,177,83.5,177.5z M83.5,177.5L83.5,177.5L83.5,177.5
	C83.5,177.5,83.5,177.6,83.5,177.5c0,0.1-0.1,0.1-0.1,0.1c0,0,0,0,0,0L83.5,177.5C83.5,177.6,83.5,177.6,83.5,177.5
	C83.5,177.5,83.5,177.5,83.5,177.5z M76.7,50.8c-1.7-1.3-3.7-1.9-5.8-1.2c-3.6,1-6,3.4-7.2,6.8c-1.8,5.2-0.7,10.1,2.6,14.3
	c3.7,4.7,9.2,4.2,12.1-1c1.6-2.8,2.5-5.9,2.5-8.9C80.9,56.7,79.9,53.3,76.7,50.8z M71.4,58.4c-0.5,1.2-1.2,2.2-2.2,3.2
	c-0.3,0.3-0.8,0.5-1.2,0.7c-1.3,0.5-2.6,0-3-1.4c-0.2-0.8-0.3-1.6-0.3-2.4c0-2.1,0.9-4,2.3-5.6c0.5-0.6,1.3-1,2-1.1
	c2-0.5,3.4,0.8,3.4,3C72.2,56.1,71.9,57.3,71.4,58.4z M36.3,307.6c-0.5,0.4-0.7,0.6-1.1,1c0,0,0,0,0,0c0,0,0,0-0.1,0.1
	c0.5,0.1,0.8,0,1-0.4c0-0.1,0.1-0.1,0.1-0.2c0-0.1,0-0.1,0-0.2C36.3,307.8,36.3,307.8,36.3,307.6C36.3,307.7,36.3,307.6,36.3,307.6
	L36.3,307.6z M36.3,307.6c-0.5,0.4-0.7,0.6-1.1,1c0,0,0,0,0,0c0,0,0,0-0.1,0.1c0.5,0.1,0.8,0,1-0.4c0-0.1,0.1-0.1,0.1-0.2
	c0-0.1,0-0.1,0-0.2C36.3,307.8,36.3,307.8,36.3,307.6C36.3,307.7,36.3,307.6,36.3,307.6L36.3,307.6z M83.5,177.5L83.5,177.5
	L83.5,177.5C83.5,177.5,83.5,177.6,83.5,177.5c0,0.1-0.1,0.1-0.1,0.1c0,0,0,0,0,0L83.5,177.5C83.5,177.6,83.5,177.6,83.5,177.5
	C83.5,177.5,83.5,177.5,83.5,177.5z M83.5,177.5C83.6,177.5,83.6,177.5,83.5,177.5c0.5-0.3,0.5-0.7,0.5-1.2v-0.2
	C83.5,176.5,83.4,177,83.5,177.5z M84.3,175.9c-0.1,0-0.1,0.1-0.1,0.1C84.2,176,84.2,176,84.3,175.9
	C84.3,175.9,84.3,175.9,84.3,175.9C84.3,175.8,84.3,175.8,84.3,175.9z M93.4,205.3c-0.2-0.5-0.6-1-1-1.4c-3.7-4.6-6.1-9.7-6.4-15.4
	c0-0.8,0-1.7,0-2.6c0-0.1,0-0.2,0-0.4c0,0,0-0.1,0-0.1c0-0.3-0.1-0.6-0.6-0.8c-1.5,0.5-1.7,2.7-3.6,3.7c0-0.7,0-1.3,0-2
	c0-0.3,0-0.5,0.1-0.8c0.1-0.8,0.2-1.5,0.3-2.2c0.4-1.8,0.7-3.6,1.1-5.4c0,0,0-0.1,0-0.1c-0.3,0.4-0.7,0.7-0.9,1.1
	c-1.1,2.7-1.8,5.5-2.1,8.3c0,0.4,0,0.7-0.1,1.1c0,0.4,0,0.7-0.1,1.1c0,0.6-0.1,1.3-0.1,2v0.1c0,0.5,0.2,1,1,1.1
	c1-0.5,1.1-1.6,1.5-2.5c0.5-0.8,0.6-2,1.9-2.4c0.2,1.6,0.4,3.2,0.7,4.8c0.8,4.5,2.6,8.6,5.1,12.3c0.4,0.6,1.1,1.2,1.7,1.7
	c0.2,0.1,0.7,0,0.9-0.2c0,0,0.1-0.1,0.2-0.1c0,0,0,0,0,0C93.3,205.8,93.5,205.5,93.4,205.3z M100.3,205.6c-1.3-1.7-2.5-3.5-3.8-5.2
	c-0.2-0.2-0.5-0.3-0.8-0.4c0.9,2,1.9,4,2.9,6c0.2,0.5,0.8,0.8,1.2,1.2c0.1,0.1,0.5,0,0.6-0.1c0.2-0.1,0.3-0.4,0.3-0.6
	C100.6,206.2,100.5,205.8,100.3,205.6z M76.7,50.8c-1.7-1.3-3.7-1.9-5.8-1.2c-3.6,1-6,3.4-7.2,6.8c-1.8,5.2-0.7,10.1,2.6,14.3
	c3.7,4.7,9.2,4.2,12.1-1c1.6-2.8,2.5-5.9,2.5-8.9C80.9,56.7,79.9,53.3,76.7,50.8z M71.4,58.4c-0.5,1.2-1.2,2.2-2.2,3.2
	c-0.3,0.3-0.8,0.5-1.2,0.7c-1.3,0.5-2.6,0-3-1.4c-0.2-0.8-0.3-1.6-0.3-2.4c0-2.1,0.9-4,2.3-5.6c0.5-0.6,1.3-1,2-1.1
	c2-0.5,3.4,0.8,3.4,3C72.2,56.1,71.9,57.3,71.4,58.4z M138.4,58.4c-1.8-1.2-3.5-2.5-5.5-3.5c-0.8-0.4-1.6-0.7-2.5-0.8c0,0,0,0-0.1,0
	c-1.4-0.2-2.9-0.1-4.4,0.2c-3.9,1-7.1,3.1-9.7,6.1c-0.5,0.6-0.8,1.4-0.9,2.1c-0.1,1.5,0.2,3,0.9,4.3c0.6,1.1,1.6,1.3,2.5,0.3
	c1.2-1.4,2.3-2.9,3.4-4.3c1.1-1.4,2.2-3,3.5-4.2c2.7-2.6,5.8-3,9.2-1.4c1.2,0.6,2.4,1.2,3.7,1.8C138.4,58.8,138.5,58.5,138.4,58.4z
	 M138.4,58.4c-1.8-1.2-3.5-2.5-5.5-3.5c-0.8-0.4-1.6-0.7-2.5-0.8c0,0,0,0-0.1,0c-1.4-0.2-2.9-0.1-4.4,0.2c-3.9,1-7.1,3.1-9.7,6.1
	c-0.5,0.6-0.8,1.4-0.9,2.1c-0.1,1.5,0.2,3,0.9,4.3c0.6,1.1,1.6,1.3,2.5,0.3c1.2-1.4,2.3-2.9,3.4-4.3c1.1-1.4,2.2-3,3.5-4.2
	c2.7-2.6,5.8-3,9.2-1.4c1.2,0.6,2.4,1.2,3.7,1.8C138.4,58.8,138.5,58.5,138.4,58.4z M100.3,205.6c-1.3-1.7-2.5-3.5-3.8-5.2
	c-0.2-0.2-0.5-0.3-0.8-0.4c0.9,2,1.9,4,2.9,6c0.2,0.5,0.8,0.8,1.2,1.2c0.1,0.1,0.5,0,0.6-0.1c0.2-0.1,0.3-0.4,0.3-0.6
	C100.6,206.2,100.5,205.8,100.3,205.6z M93.4,205.3c-0.2-0.5-0.6-1-1-1.4c-3.7-4.6-6.1-9.7-6.4-15.4c0-0.8,0-1.7,0-2.6
	c0-0.1,0-0.2,0-0.4c0,0,0-0.1,0-0.1c0-0.3-0.1-0.6-0.6-0.8c-1.5,0.5-1.7,2.7-3.6,3.7c0-0.7,0-1.3,0-2c0-0.3,0-0.5,0.1-0.8
	c0.1-0.8,0.2-1.5,0.3-2.2c0.4-1.8,0.7-3.6,1.1-5.4c0,0,0-0.1,0-0.1c-0.3,0.4-0.7,0.7-0.9,1.1c-1.1,2.7-1.8,5.5-2.1,8.3
	c0,0.4,0,0.7-0.1,1.1c0,0.4,0,0.7-0.1,1.1c0,0.6-0.1,1.3-0.1,2v0.1c0,0.5,0.2,1,1,1.1c1-0.5,1.1-1.6,1.5-2.5c0.5-0.8,0.6-2,1.9-2.4
	c0.2,1.6,0.4,3.2,0.7,4.8c0.8,4.5,2.6,8.6,5.1,12.3c0.4,0.6,1.1,1.2,1.7,1.7c0.2,0.1,0.7,0,0.9-0.2c0,0,0.1-0.1,0.2-0.1c0,0,0,0,0,0
	C93.3,205.8,93.5,205.5,93.4,205.3z M84.3,175.9c-0.1,0-0.1,0.1-0.1,0.1C84.2,176,84.2,176,84.3,175.9
	C84.3,175.9,84.3,175.9,84.3,175.9C84.3,175.8,84.3,175.8,84.3,175.9z M83.5,177.5C83.6,177.5,83.6,177.5,83.5,177.5
	c0.5-0.3,0.5-0.7,0.5-1.2v-0.2C83.5,176.5,83.4,177,83.5,177.5z M83.5,177.5L83.5,177.5L83.5,177.5
	C83.5,177.5,83.5,177.6,83.5,177.5c0,0.1-0.1,0.1-0.1,0.1c0,0,0,0,0,0L83.5,177.5C83.5,177.6,83.5,177.6,83.5,177.5
	C83.5,177.5,83.5,177.5,83.5,177.5z M76.7,50.8c-1.7-1.3-3.7-1.9-5.8-1.2c-3.6,1-6,3.4-7.2,6.8c-1.8,5.2-0.7,10.1,2.6,14.3
	c3.7,4.7,9.2,4.2,12.1-1c1.6-2.8,2.5-5.9,2.5-8.9C80.9,56.7,79.9,53.3,76.7,50.8z M71.4,58.4c-0.5,1.2-1.2,2.2-2.2,3.2
	c-0.3,0.3-0.8,0.5-1.2,0.7c-1.3,0.5-2.6,0-3-1.4c-0.2-0.8-0.3-1.6-0.3-2.4c0-2.1,0.9-4,2.3-5.6c0.5-0.6,1.3-1,2-1.1
	c2-0.5,3.4,0.8,3.4,3C72.2,56.1,71.9,57.3,71.4,58.4z M36.3,307.6c-0.5,0.4-0.7,0.6-1.1,1c0,0,0,0,0,0c0,0,0,0-0.1,0.1
	c0.5,0.1,0.8,0,1-0.4c0-0.1,0.1-0.1,0.1-0.2c0-0.1,0-0.1,0-0.2C36.3,307.8,36.3,307.8,36.3,307.6C36.3,307.7,36.3,307.6,36.3,307.6
	L36.3,307.6z M83.5,177.5L83.5,177.5L83.5,177.5C83.5,177.5,83.5,177.6,83.5,177.5c0,0.1-0.1,0.1-0.1,0.1c0,0,0,0,0,0L83.5,177.5
	C83.5,177.6,83.5,177.6,83.5,177.5C83.5,177.5,83.5,177.5,83.5,177.5z M83.5,177.5C83.6,177.5,83.6,177.5,83.5,177.5
	c0.5-0.3,0.5-0.7,0.5-1.2v-0.2C83.5,176.5,83.4,177,83.5,177.5z M84.3,175.9c-0.1,0-0.1,0.1-0.1,0.1C84.2,176,84.2,176,84.3,175.9
	C84.3,175.9,84.3,175.9,84.3,175.9C84.3,175.8,84.3,175.8,84.3,175.9z M93.4,205.3c-0.2-0.5-0.6-1-1-1.4c-3.7-4.6-6.1-9.7-6.4-15.4
	c0-0.8,0-1.7,0-2.6c0-0.1,0-0.2,0-0.4c0,0,0-0.1,0-0.1c0-0.3-0.1-0.6-0.6-0.8c-1.5,0.5-1.7,2.7-3.6,3.7c0-0.7,0-1.3,0-2
	c0-0.3,0-0.5,0.1-0.8c0.1-0.8,0.2-1.5,0.3-2.2c0.4-1.8,0.7-3.6,1.1-5.4c0,0,0-0.1,0-0.1c-0.3,0.4-0.7,0.7-0.9,1.1
	c-1.1,2.7-1.8,5.5-2.1,8.3c0,0.4,0,0.7-0.1,1.1c0,0.4,0,0.7-0.1,1.1c0,0.6-0.1,1.3-0.1,2v0.1c0,0.5,0.2,1,1,1.1
	c1-0.5,1.1-1.6,1.5-2.5c0.5-0.8,0.6-2,1.9-2.4c0.2,1.6,0.4,3.2,0.7,4.8c0.8,4.5,2.6,8.6,5.1,12.3c0.4,0.6,1.1,1.2,1.7,1.7
	c0.2,0.1,0.7,0,0.9-0.2c0,0,0.1-0.1,0.2-0.1c0,0,0,0,0,0C93.3,205.8,93.5,205.5,93.4,205.3z M100.3,205.6c-1.3-1.7-2.5-3.5-3.8-5.2
	c-0.2-0.2-0.5-0.3-0.8-0.4c0.9,2,1.9,4,2.9,6c0.2,0.5,0.8,0.8,1.2,1.2c0.1,0.1,0.5,0,0.6-0.1c0.2-0.1,0.3-0.4,0.3-0.6
	C100.6,206.2,100.5,205.8,100.3,205.6z M76.7,50.8c-1.7-1.3-3.7-1.9-5.8-1.2c-3.6,1-6,3.4-7.2,6.8c-1.8,5.2-0.7,10.1,2.6,14.3
	c3.7,4.7,9.2,4.2,12.1-1c1.6-2.8,2.5-5.9,2.5-8.9C80.9,56.7,79.9,53.3,76.7,50.8z M71.4,58.4c-0.5,1.2-1.2,2.2-2.2,3.2
	c-0.3,0.3-0.8,0.5-1.2,0.7c-1.3,0.5-2.6,0-3-1.4c-0.2-0.8-0.3-1.6-0.3-2.4c0-2.1,0.9-4,2.3-5.6c0.5-0.6,1.3-1,2-1.1
	c2-0.5,3.4,0.8,3.4,3C72.2,56.1,71.9,57.3,71.4,58.4z M138.4,58.4c-1.8-1.2-3.5-2.5-5.5-3.5c-0.8-0.4-1.6-0.7-2.5-0.8c0,0,0,0-0.1,0
	c-1.4-0.2-2.9-0.1-4.4,0.2c-3.9,1-7.1,3.1-9.7,6.1c-0.5,0.6-0.8,1.4-0.9,2.1c-0.1,1.5,0.2,3,0.9,4.3c0.6,1.1,1.6,1.3,2.5,0.3
	c1.2-1.4,2.3-2.9,3.4-4.3c1.1-1.4,2.2-3,3.5-4.2c2.7-2.6,5.8-3,9.2-1.4c1.2,0.6,2.4,1.2,3.7,1.8C138.4,58.8,138.5,58.5,138.4,58.4z
	 M138.4,58.4c-1.8-1.2-3.5-2.5-5.5-3.5c-0.8-0.4-1.6-0.7-2.5-0.8c0,0,0,0-0.1,0c-1.4-0.2-2.9-0.1-4.4,0.2c-3.9,1-7.1,3.1-9.7,6.1
	c-0.5,0.6-0.8,1.4-0.9,2.1c-0.1,1.5,0.2,3,0.9,4.3c0.6,1.1,1.6,1.3,2.5,0.3c1.2-1.4,2.3-2.9,3.4-4.3c1.1-1.4,2.2-3,3.5-4.2
	c2.7-2.6,5.8-3,9.2-1.4c1.2,0.6,2.4,1.2,3.7,1.8C138.4,58.8,138.5,58.5,138.4,58.4z M100.3,205.6c-1.3-1.7-2.5-3.5-3.8-5.2
	c-0.2-0.2-0.5-0.3-0.8-0.4c0.9,2,1.9,4,2.9,6c0.2,0.5,0.8,0.8,1.2,1.2c0.1,0.1,0.5,0,0.6-0.1c0.2-0.1,0.3-0.4,0.3-0.6
	C100.6,206.2,100.5,205.8,100.3,205.6z M93.4,205.3c-0.2-0.5-0.6-1-1-1.4c-3.7-4.6-6.1-9.7-6.4-15.4c0-0.8,0-1.7,0-2.6
	c0-0.1,0-0.2,0-0.4c0,0,0-0.1,0-0.1c0-0.3-0.1-0.6-0.6-0.8c-1.5,0.5-1.7,2.7-3.6,3.7c0-0.7,0-1.3,0-2c0-0.3,0-0.5,0.1-0.8
	c0.1-0.8,0.2-1.5,0.3-2.2c0.4-1.8,0.7-3.6,1.1-5.4c0,0,0-0.1,0-0.1c-0.3,0.4-0.7,0.7-0.9,1.1c-1.1,2.7-1.8,5.5-2.1,8.3
	c0,0.4,0,0.7-0.1,1.1c0,0.4,0,0.7-0.1,1.1c0,0.6-0.1,1.3-0.1,2v0.1c0,0.5,0.2,1,1,1.1c1-0.5,1.1-1.6,1.5-2.5c0.5-0.8,0.6-2,1.9-2.4
	c0.2,1.6,0.4,3.2,0.7,4.8c0.8,4.5,2.6,8.6,5.1,12.3c0.4,0.6,1.1,1.2,1.7,1.7c0.2,0.1,0.7,0,0.9-0.2c0,0,0.1-0.1,0.2-0.1c0,0,0,0,0,0
	C93.3,205.8,93.5,205.5,93.4,205.3z M84.3,175.9c-0.1,0-0.1,0.1-0.1,0.1C84.2,176,84.2,176,84.3,175.9
	C84.3,175.9,84.3,175.9,84.3,175.9C84.3,175.8,84.3,175.8,84.3,175.9z M83.5,177.5C83.6,177.5,83.6,177.5,83.5,177.5
	c0.5-0.3,0.5-0.7,0.5-1.2v-0.2C83.5,176.5,83.4,177,83.5,177.5z M83.5,177.5L83.5,177.5L83.5,177.5
	C83.5,177.5,83.5,177.6,83.5,177.5c0,0.1-0.1,0.1-0.1,0.1c0,0,0,0,0,0L83.5,177.5C83.5,177.6,83.5,177.6,83.5,177.5
	C83.5,177.5,83.5,177.5,83.5,177.5z M76.7,50.8c-1.7-1.3-3.7-1.9-5.8-1.2c-3.6,1-6,3.4-7.2,6.8c-1.8,5.2-0.7,10.1,2.6,14.3
	c3.7,4.7,9.2,4.2,12.1-1c1.6-2.8,2.5-5.9,2.5-8.9C80.9,56.7,79.9,53.3,76.7,50.8z M71.4,58.4c-0.5,1.2-1.2,2.2-2.2,3.2
	c-0.3,0.3-0.8,0.5-1.2,0.7c-1.3,0.5-2.6,0-3-1.4c-0.2-0.8-0.3-1.6-0.3-2.4c0-2.1,0.9-4,2.3-5.6c0.5-0.6,1.3-1,2-1.1
	c2-0.5,3.4,0.8,3.4,3C72.2,56.1,71.9,57.3,71.4,58.4z M76.7,50.8c-1.7-1.3-3.7-1.9-5.8-1.2c-3.6,1-6,3.4-7.2,6.8
	c-1.8,5.2-0.7,10.1,2.6,14.3c3.7,4.7,9.2,4.2,12.1-1c1.6-2.8,2.5-5.9,2.5-8.9C80.9,56.7,79.9,53.3,76.7,50.8z M71.4,58.4
	c-0.5,1.2-1.2,2.2-2.2,3.2c-0.3,0.3-0.8,0.5-1.2,0.7c-1.3,0.5-2.6,0-3-1.4c-0.2-0.8-0.3-1.6-0.3-2.4c0-2.1,0.9-4,2.3-5.6
	c0.5-0.6,1.3-1,2-1.1c2-0.5,3.4,0.8,3.4,3C72.2,56.1,71.9,57.3,71.4,58.4z M138.4,58.4c-1.8-1.2-3.5-2.5-5.5-3.5
	c-0.8-0.4-1.6-0.7-2.5-0.8c0,0,0,0-0.1,0c-1.4-0.2-2.9-0.1-4.4,0.2c-3.9,1-7.1,3.1-9.7,6.1c-0.5,0.6-0.8,1.4-0.9,2.1
	c-0.1,1.5,0.2,3,0.9,4.3c0.6,1.1,1.6,1.3,2.5,0.3c1.2-1.4,2.3-2.9,3.4-4.3c1.1-1.4,2.2-3,3.5-4.2c2.7-2.6,5.8-3,9.2-1.4
	c1.2,0.6,2.4,1.2,3.7,1.8C138.4,58.8,138.5,58.5,138.4,58.4z M138.4,58.4c-1.8-1.2-3.5-2.5-5.5-3.5c-0.8-0.4-1.6-0.7-2.5-0.8
	c0,0,0,0-0.1,0c-1.4-0.2-2.9-0.1-4.4,0.2c-3.9,1-7.1,3.1-9.7,6.1c-0.5,0.6-0.8,1.4-0.9,2.1c-0.1,1.5,0.2,3,0.9,4.3
	c0.6,1.1,1.6,1.3,2.5,0.3c1.2-1.4,2.3-2.9,3.4-4.3c1.1-1.4,2.2-3,3.5-4.2c2.7-2.6,5.8-3,9.2-1.4c1.2,0.6,2.4,1.2,3.7,1.8
	C138.4,58.8,138.5,58.5,138.4,58.4z M76.7,50.8c-1.7-1.3-3.7-1.9-5.8-1.2c-3.6,1-6,3.4-7.2,6.8c-1.8,5.2-0.7,10.1,2.6,14.3
	c3.7,4.7,9.2,4.2,12.1-1c1.6-2.8,2.5-5.9,2.5-8.9C80.9,56.7,79.9,53.3,76.7,50.8z M71.4,58.4c-0.5,1.2-1.2,2.2-2.2,3.2
	c-0.3,0.3-0.8,0.5-1.2,0.7c-1.3,0.5-2.6,0-3-1.4c-0.2-0.8-0.3-1.6-0.3-2.4c0-2.1,0.9-4,2.3-5.6c0.5-0.6,1.3-1,2-1.1
	c2-0.5,3.4,0.8,3.4,3C72.2,56.1,71.9,57.3,71.4,58.4z M76.7,50.8c-1.7-1.3-3.7-1.9-5.8-1.2c-3.6,1-6,3.4-7.2,6.8
	c-1.8,5.2-0.7,10.1,2.6,14.3c3.7,4.7,9.2,4.2,12.1-1c1.6-2.8,2.5-5.9,2.5-8.9C80.9,56.7,79.9,53.3,76.7,50.8z M71.4,58.4
	c-0.5,1.2-1.2,2.2-2.2,3.2c-0.3,0.3-0.8,0.5-1.2,0.7c-1.3,0.5-2.6,0-3-1.4c-0.2-0.8-0.3-1.6-0.3-2.4c0-2.1,0.9-4,2.3-5.6
	c0.5-0.6,1.3-1,2-1.1c2-0.5,3.4,0.8,3.4,3C72.2,56.1,71.9,57.3,71.4,58.4z M138.4,58.4c-1.8-1.2-3.5-2.5-5.5-3.5
	c-0.8-0.4-1.6-0.7-2.5-0.8c0,0,0,0-0.1,0c-1.4-0.2-2.9-0.1-4.4,0.2c-3.9,1-7.1,3.1-9.7,6.1c-0.5,0.6-0.8,1.4-0.9,2.1
	c-0.1,1.5,0.2,3,0.9,4.3c0.6,1.1,1.6,1.3,2.5,0.3c1.2-1.4,2.3-2.9,3.4-4.3c1.1-1.4,2.2-3,3.5-4.2c2.7-2.6,5.8-3,9.2-1.4
	c1.2,0.6,2.4,1.2,3.7,1.8C138.4,58.8,138.5,58.5,138.4,58.4z M138.4,58.4c-1.8-1.2-3.5-2.5-5.5-3.5c-0.8-0.4-1.6-0.7-2.5-0.8
	c0,0,0,0-0.1,0c-1.4-0.2-2.9-0.1-4.4,0.2c-3.9,1-7.1,3.1-9.7,6.1c-0.5,0.6-0.8,1.4-0.9,2.1c-0.1,1.5,0.2,3,0.9,4.3
	c0.6,1.1,1.6,1.3,2.5,0.3c1.2-1.4,2.3-2.9,3.4-4.3c1.1-1.4,2.2-3,3.5-4.2c2.7-2.6,5.8-3,9.2-1.4c1.2,0.6,2.4,1.2,3.7,1.8
	C138.4,58.8,138.5,58.5,138.4,58.4z M76.7,50.8c-1.7-1.3-3.7-1.9-5.8-1.2c-3.6,1-6,3.4-7.2,6.8c-1.8,5.2-0.7,10.1,2.6,14.3
	c3.7,4.7,9.2,4.2,12.1-1c1.6-2.8,2.5-5.9,2.5-8.9C80.9,56.7,79.9,53.3,76.7,50.8z M71.4,58.4c-0.5,1.2-1.2,2.2-2.2,3.2
	c-0.3,0.3-0.8,0.5-1.2,0.7c-1.3,0.5-2.6,0-3-1.4c-0.2-0.8-0.3-1.6-0.3-2.4c0-2.1,0.9-4,2.3-5.6c0.5-0.6,1.3-1,2-1.1
	c2-0.5,3.4,0.8,3.4,3C72.2,56.1,71.9,57.3,71.4,58.4z"/>
<path class="st1" d="M35,308.6L35,308.6C35.1,308.7,35.1,308.7,35,308.6z"/>
<path class="st1" d="M35.2,308.6C35.2,308.6,35.2,308.6,35.2,308.6c0.3-0.3,0.6-0.6,1.1-1.1c0,0,0,0.1,0,0.1l0,0c0,0,0,0.1,0,0.1
	c0,0.1,0,0.1,0,0.2c0,0.1,0,0.1,0,0.2c0,0.1,0,0.1-0.1,0.2C36,308.7,35.6,308.8,35.2,308.6C35.2,308.7,35.2,308.6,35.2,308.6z"/>
<path class="st1" d="M84.5,311.7c0,0,0,0.1,0,0.2C84.5,311.8,84.5,311.7,84.5,311.7c-0.1-0.1-0.1-0.2-0.1-0.2c0,0,0,0.1,0,0.1
	C84.5,311.6,84.5,311.7,84.5,311.7z"/>
<path class="st1" d="M171.7,308.7c-1.3-0.3-2.7-0.6-4.1-0.9c0,0-0.1,0-0.1,0c1.4,1.8,2.4,3.8,3.1,6.1c0.6,2.1,1,4.2,1.5,6.5
	c-1.6,0-4.3,0.1-5.2-0.1c-0.5-3.7-1.4-7.1-3.9-9.8c-0.2-0.2-0.4-0.4-0.5-0.6c-0.7-0.7-1.5-1.3-2.5-1.9c4.2,6,4.9,8.2,3.6,12.4
	c-2.8,0.4-5.5,0.1-8.4-0.2c-0.1-0.7-0.3-1.1-0.3-1.7c-0.4-2.8-1.5-5.3-3.3-7.5c-0.1-0.2-0.3-0.4-0.4-0.5c0,0,0,0,0,0
	c-0.2-0.2-0.5-0.3-1.1,0c2,2.9,2.6,6,2,9.5c-0.8,0.1-1.5,0.2-2.1,0.2c-5.1-0.1-10.1-0.2-15.2-0.3c-0.3,0-0.5-0.2-0.9-0.3
	c-0.2-1.6-0.3-3.2-0.7-4.8c-0.4-1.4-1-2.8-1.8-4.1c-0.8-1.4-1.8-2.6-2.9-4c1.3-1.4,2.9-2.5,4.6-3.3c-0.1,0-0.2,0-0.3,0
	c-6-0.4-12.4-0.8-19-1h-0.1c-4.9-0.2-10-0.2-15.2-0.2h-1.3c-5,0-9.9,0.1-14.7,0.2c-0.1,0-0.2,0-0.3,0c-6.8,0.2-13.3,0.5-19.5,1
	c-0.1,0-0.1,0-0.2,0c0.3,0.1,0.6,0.3,0.8,0.4c1.8,0.9,2.3,1.4,3.9,3.3c-2.6,2.7-4.3,5.8-4.9,9.4c0,0.2-0.1,0.5-0.1,0.7
	c-0.1,0.6-0.1,1.1-0.2,1.7c0,0.3,0,0.6,0,0.8c-3.1,0.1-6,0.2-9,0.1c-3-0.1-6.1,0.6-9.2-0.1c-0.1-0.3-0.1-0.6-0.2-0.9
	c0-0.3-0.1-0.6-0.1-0.9c0-0.4,0-0.8,0-1.2c0-0.2,0-0.4,0.1-0.6c0-0.2,0.1-0.4,0.1-0.6c0.2-1.3,0.7-2.5,1.2-3.6
	c0.2-0.4,0.3-0.9,0.6-2c0,0,0,0,0,0c0,0,0-0.1,0-0.1c-2.5,2.5-3.6,5-4.2,7.8c-0.2,0.9-0.5,1.7-0.7,2.6c-2.9,0-5.7,0.5-8.5,0
	c-0.2-0.6-0.3-1.1-0.4-1.7c0-0.2,0-0.4,0-0.6c0-0.5,0-1,0-1.5c0.2-1.9,0.9-3.7,2-5.5c0.5-0.6,1.3-1,1.3-1.9v0c0,0,0-0.1,0-0.1
	c0-0.1,0-0.1,0-0.2c-0.5,0.2-1,0.4-1.4,0.8c-2.2,2.2-3.4,4.9-4.1,7.8c-0.2,1-0.4,2-0.6,3.1c-0.6,0.1-3.8-0.4-5-0.4
	c0-0.1,0-0.2,0-0.2v-0.9c0.6-4.2,1.9-8.1,4.6-11.4c0,0-0.1,0-0.1,0c-1.5,0.3-2.8,0.6-4.2,0.9c-11.2,2.7-17.8,6-17.8,9.6
	c0,8.9,40.8,16.1,91.1,16.1s91.1-7.2,91.1-16.1C188.6,314.6,182.3,311.3,171.7,308.7z M97.7,317.2c1.2,0.1,1.2-1,1.5-1.6
	c2.6-5.2,6.8-8.3,12.5-9.4c5-1,9.6,0.1,13.7,3.1c0.2,0.1,0.4,0.3,0.5,0.4c0.2,0.2,0.4,0.3,0.5,0.5c0.3,0.3,0.6,0.5,0.9,0.8
	c1.8,2,2.8,4.4,3.2,7.2c0,0.1,0,0.2,0,0.2c-0.1,0.2-0.2,0.4-0.2,0.6c0,0.1-0.1,0.2-0.2,0.3c-0.3,0.1-0.6,0.2-0.8,0.2
	c-1.1,0-2.3-0.1-3.4-0.2c-1.3-2.3-1.1-5.2-3.7-7.3c0,0.1,0.1,0.2,0.1,0.3c-0.1-0.1-0.1-0.1-0.2-0.2c0.8,2.6,2.4,4.6,1.3,7
	c-3,0.8-5.9,0.1-8.7-0.1c-1.1-2.2-0.9-4.9-2.7-7.1c0,0.1,0,0.2,0,0.3c0,0-0.1-0.1-0.1-0.2c0.1,2.5,1.3,4.6,0.4,6.8
	c0,0,0,0.1-0.1,0.1c-0.7,0.6-1.6,0.4-2.4,0.4c-3.8,0-7.6-0.1-11.4-0.1c-3.3,0-6.7,0.1-10,0.1c-1.5,0-3,0-4.5-0.1
	c-0.2-0.6-0.4-1.3-0.5-1.9c0-0.1,0-0.2,0-0.3c-0.1-1.8,0.2-3.5,1.2-5h-0.1c0,0-0.1,0-0.1,0c0,0,0-0.1,0.1-0.1
	c-1.1,0.1-1.4,0.9-1.6,1.6c-0.6,1.7-1,3.5-1.6,5.4c-2.7,0.6-5.4,0.7-8.1,0.5c-0.3,0-0.6-0.1-0.8-0.2c0,0-0.1,0-0.1-0.1
	c-0.3-0.3-0.4-0.8-0.3-1.3c0.2-1.6,0.7-3.1,1.6-4.5c0.5-0.8,1.1-1.7,1.5-2.6c-0.1,0-0.2,0.1-0.2,0.2c0-0.1,0.1-0.2,0.1-0.3
	c-3,2-3.8,5.2-4.6,8.4c-1.5,0.7-3,0.4-4.3,0.5c-0.1-0.1-0.1-0.1-0.2-0.2c-0.4-0.6-0.3-1.2-0.2-1.7c0.6-3.5,2.3-6.2,5.1-8.3
	c6.9-5.1,16.6-4.2,22.6,1.5c0.2,0.2,0.5,0.5,0.7,0.8c0.2,0.2,0.4,0.5,0.6,0.7c0.5,0.7,1,1.4,1.5,2.2
	C96.7,315.3,97.2,316.2,97.7,317.2L97.7,317.2C97.7,317.1,97.7,317.2,97.7,317.2z"/>
<path d="M64.1,141.6C64.1,141.6,64.1,141.7,64.1,141.6C64.2,141.7,64.2,141.6,64.1,141.6z M184.9,223.4c-1.4-6.4-4.8-11.1-10.8-13.8
	c-2.8-1.2-5.7-1.9-8.7-1.6c-2.4,0.2-4.8,0.7-7.1,1.1c-0.9,0.1-1.8,0.3-2.6,0.4c-0.2-0.4-0.3-0.6-0.3-0.8c-0.4-6.7-1.6-13.2-2.7-19.8
	c-2.7-16.5-9.1-31.5-18.9-45.1c-1.3-1.8-2.6-3.5-3.7-5.1c0.2-2.6,0.4-5,0.4-7.4c0-2,0.6-3.5,2.5-4.5c1.3-0.7,2.5-1.7,3.7-2.5
	c3.9-2.5,7.5-5.4,10.9-8.4c4.5-4.1,7.8-9.1,9.7-14.9c2.9-8.4,3.6-17,2.5-25.9c-0.7-5.5-1.8-10.9-3.5-16.2c-0.2-0.5-0.7-1.2,0-1.8
	c2,2.6,3.8,5.2,5.8,7.7c2.1,2.6,4.2,5.2,6.9,7.1c2.2-1.1,3.5-2.9,4.6-4.8c1.8-3,2.9-6.3,3.7-9.6c1.5-5.8,1.9-11.8,2.8-17.7
	c0.5-3.7-0.1-7.3,0.2-11c0.2-3.6-1.2-6.5-3.5-9s-4.9-4.5-7.7-6.4c-7-4.6-14.5-8-22.4-10.5c-3.4-1.1-6.9-1.8-10.3-2.7
	c-1.7-0.5-2.9,0-3.9,1.4c-1.2,1.7-2.4,3.3-3.5,5.1c-2.1,3.6-3.5,7.5-4.7,11.5c-0.2,0.6-0.5,1.2-0.7,1.7c-0.4,0.1-0.5,0.2-0.6,0.2
	c-1.2-0.2-2.5-0.4-3.7-0.7c-6.9-1.3-13.9-1.8-20.9-0.3c-0.6,0.1-1.3,0-2-0.1c-4.4-0.8-8.9-1.2-13.4-0.6c-3.2,0.4-6.4,1-9.5,1.5
	C72.8,20,72.1,20,71.3,20C69.2,12.6,66.7,5.4,61,0c-1,0.1-2,0.2-2.9,0.3C46.3,2.9,35.3,7.3,25.3,14c-2.4,1.6-4.5,3.5-6.6,5.5
	c-2.4,2.3-4,5-3.8,8.5c0,0.3-0.1,0.7-0.1,1c-0.1,4.5-0.4,8.9,0.7,13.3c0,0,0,0,0-0.1c0.4,6,1.3,11.9,3,17.6c0.9,2.9,2,5.6,3.7,8.1
	c1,1.5,2.2,2.9,4,3.8c1.9-1.5,3.5-3.1,5-4.8c2.2-2.8,4.3-5.6,6.5-8.4c0.3-0.5,0.5-1.2,1.5-1.1c-0.3,1.1-0.5,2.1-0.8,3
	c-2.1,7-3.3,14.1-3.4,21.4c-0.1,7.1,1,14,3.5,20.6c1.6,4.1,3.8,7.9,6.9,11c4.4,4.5,9.3,8.6,14.9,11.6c1.7,0.9,3.4,1.9,4.8,3.4v11
	c-0.5,0.6-1,1.3-1.4,2c-0.5,0.6-0.8,1.2-1,1.3c-6,8.3-11,17.2-14.5,26.9c-3.6,9.9-5.4,20.2-6.8,30.6c-0.4,2.9-0.7,5.9-1.1,9.1
	c-1-0.2-1.9-0.3-2.8-0.5c-3-0.7-6.1-1.3-9.2-1c-6.2,0.7-14.2,4.2-16.8,13.4c-0.6,2-1,4-1.2,6.1c-0.5,5.2,0,10.3,1,15.4
	c2,9.8,5.5,19,9.8,27.9c4,8.4,8.7,16.5,13.7,24.3c0.5,0.8,1.2,1.6,1.5,2.8c-0.7,0.4-1.3,0.7-1.9,0.9c-4.8,2-8.2,5.5-10.2,9.9
	c-1.6,3.4-2.4,7.3-2.3,11.3c0,0.5,0.1,0.8,0.5,0.9c0.4,0,1.7,0.2,3,0.4c1.3,0.2,2.5,0.4,3,0.4c7.9,0.2,15.9,0.5,23.8,0.5
	c11.8,0.1,23.7,0.1,35.5,0.2h15.9c15.1-0.1,30.1-0.3,45.2-0.4c4,0,8.1-0.1,12.1-0.2c2.8-0.1,9-0.6,11.7-0.7h0.5
	c0.4-0.1,0.8-0.3,0.8-1c0.1-1.1,0.1-2.3-0.1-3.4c-0.4-2.8-1-5.4-2-7.8c-2-4.7-5.5-8.3-11.1-10.5c-0.4-0.2-0.7-0.5-1.3-0.8
	c0.7-1.2,1.4-2.3,2-3.3c6.8-10.7,12.9-21.7,17.6-33.5c3-7.5,5.3-15.2,6.3-23.2C185.8,232.8,185.9,228,184.9,223.4z M145.9,171
	c0.2,0.6,0.4,1.2,0.6,1.9c0.2,0.7,0.5,1.5,0.7,2.2c0.3,0.8,0.5,1.7,0.7,2.5c2.6,9.6,4,19.4,5.6,29.1c0.2,1.1,0.3,2.3-0.3,3.5
	c-3.5,1.3-6.9,0.8-9.9-1.6c-1.8-1.5-3.1-3.4-4.4-5.3c-0.5-0.8-1.1-1.7-1.9-2.8c-0.4,1-0.7,1.5-0.9,2.2c-4.5,14.4-9.6,28.5-13.6,43
	c-3.1,11.2-6.1,22.4-7.5,34c-0.8,7-1.4,14-1.2,21c0,0.4-0.1,1-0.2,1.5l0,0.2c0,0-0.1,0-0.1,0c-1.2,0.3-2.1,0.6-3,0.9
	c-1,0.3-1.9,0.7-2.9,1.2c-0.9,0.5-1.8,1-2.7,1.6c-0.4,0.3-0.7,0.6-1.1,0.9c-0.3,0.3-0.7,0.5-1,0.8c-0.2,0.2-0.3,0.3-0.5,0.5
	c-0.2,0.2-0.3,0.4-0.5,0.6c-0.5,0.6-1,1.2-1.5,1.8c-0.4,0.5-0.6,1.3-1.2,1.8c0,0,0,0-0.1,0.1c-0.2,0.2-0.4,0.3-0.7,0.4
	c-0.1-0.5-0.3-0.8-0.3-1.2c0.1-2.1,0.3-4.1,0.3-6.2c0-1.2,0-2.4,0-3.7c0-8.9,0.6-17.8,1.4-26.6c0.6-7.2,1.1-14.5,1.6-21.7
	c0.6-8.5,1.2-17,2.5-25.4c0.1-0.5-0.1-1-0.2-1.8c-3.3,1.8-6.6,1.4-9.9,1c0,0,0,0.1,0,0.1c-0.1,0.3-0.3,0.5-0.3,0.7
	c0.4,5.8,0.9,11.7,1.3,17.5c0.4,6.2,0.8,12.4,1.1,18.6c0.4,8.5,0.8,17,1,25.5c0.1,4,0.2,8.1,0.3,12.1c0.1,3,0.1,5.9,0.2,8.9
	c0,0.5,0.2,1.1-0.3,1.5c-0.1,0.1-0.2,0.2-0.4,0.2c-1.6-2.5-3.4-4.9-5.9-6.7c-2.4-1.9-5.4-2.8-8.4-3.6c-0.1,0-0.1,0-0.2-0.1
	c0-1.1-0.1-2.1-0.1-3.1c0-13.8-1.9-27.3-5.3-40.6c-4.8-19.2-11.3-37.9-17.5-56.7c-0.1-0.4,0-1-1-0.9c0,0,0,0.1-0.1,0.1
	c-0.6,0.8-1.1,1.7-1.7,2.6c-0.9,1.2-1.8,2.4-2.8,3.6c-0.3,0.3-0.6,0.6-0.9,0.9c-3.1,2.8-6.6,3.4-10.4,1.8c-0.5-0.9-0.3-2-0.2-3.1
	c0.8-5.1,1.6-10.2,2.6-15.3c1.7-9.5,4-18.9,8-27.8c2.8-6.3,6-12.4,9.5-18.4c0.5-0.9,2.1-3.8,3.1-5.5c0.4,0.1,0.9,0.3,1.3,0.5
	c4.6,3.8,9.8,6.4,15.4,8.3c0.4,0.2,0.8,0.5,1.2,0.8c0,0,0.1,0.1,0.2,0.1c-0.2,0.8-0.5,1.4-0.6,2.1c-0.2,1.4-0.7,2.7-0.6,4.1
	c0.1,1.5,0.4,2.9,0.8,4.2c0,0.1,0.1,0.3,0.1,0.4c0.1,0.2,0.1,0.3,0.2,0.5c0.1,0.2,0.1,0.3,0.2,0.5c2.3,5.6,7.3,9.5,14.9,8.9
	c8.6-0.8,14.8-9.7,12.4-18c-0.2-0.9-0.4-1.7-0.6-2.5c3.4-1.4,6.6-2.6,9.7-4.2c3.1-1.6,6-3.7,9.1-5.7c0.3,0.2,0.6,0.5,0.9,0.8
	c1,1.3,2.1,2.5,2.9,3.9c4.8,7.9,9,16,12.2,24.6C145.4,169.7,145.7,170.3,145.9,171z M98.6,98.8c3.9,0,7.8-0.3,11.6-1.2
	c2.3-0.6,4.6-1.4,6.9-2.1c0.7-0.2,1.4-0.5,2.3-0.8c0.3,1.2-0.2,2-0.5,2.8c-1,2.8-2.2,5.5-4,8c-0.4,0.6-1,1.1-1.7,1.8
	c-0.6-0.4-1.1-0.7-1.5-1.1c-0.7-0.8-1.3-1.6-1.9-2.5c-2.2-3.2-2.2-3.3-5.8-3c-4.7,0.4-9.4,0.4-14.1-0.1c-2.1-0.2-3.5,0.4-4.5,2.3
	c-0.8,1.7-1.7,3.3-3.8,4.5c-3.2-3.7-4.9-7.9-6.4-12.6c0.7,0.1,1.1,0,1.5,0.1C83.6,98.2,91.1,98.8,98.6,98.8z M110.4,120.2
	c-0.2,4.4-1,8.6-3.3,12.5c-2,3.5-5.1,5.6-9.1,6.1c-0.9,0.1-1.9,0.1-2.7-0.2c-2.5-0.9-4.8-2.2-6.3-4.5c-3.5-5.1-4.9-10.9-3.5-17.2
	c0.2-1,0.7-2,1.2-2.9c0.8-1.4,1.9-2.3,3.6-2.3c1.9,0,3.8-0.7,6-0.3c0.5,3.1,0.9,6,1.4,9c1.3-2.9,0.5-6.1,1.8-9.1
	c2.4,0,4.7,0.2,6.9,0.9c1.4,0.4,2.5,1.3,2.9,2.7C109.8,116.7,110.5,118.5,110.4,120.2z M91.2,145.1c6.5-3,11.8-1.8,16.2,4.4
	c1.2,1.6,1.6,3.5,1.5,5.4c-0.1,7-5.7,12.2-12,12.2c-1.5,0-3-0.3-4.5-0.9c-4.4-1.8-6.9-5.2-7.3-10.2
	C84.6,150.7,86.8,147.1,91.2,145.1z M136.6,1.5c1.4,0.4,2.5,0.6,3.5,0.9c3.1,1.1,6.3,2.2,9.4,3.4c9.4,3.4,17.6,8.9,25.4,15
	c1.9,1.5,2.9,3.3,3.3,5.8c1.1,6.2,1.2,12.3,0.5,18.5c-0.7,6.8-2.4,13.3-5.5,19.4c-0.6,1.1-1,2.4-2.5,2.9c-0.5-0.5-1.2-0.9-1.7-1.5
	c-2.9-3.1-5.4-6.6-7.7-10.1c-4.9-7.4-9.1-15.2-12.9-23.1c-4-8.5-7.6-17.2-10.8-26.1c-0.4-1.1-0.8-2.2-1-3.3
	C136.5,2.9,136.6,2.3,136.6,1.5z M36,52.3c-2.7,4.4-5.6,8.7-9,12.6c-0.8,0.9-1.7,1.8-2.7,2.9c-0.7-0.7-1.4-1.2-1.7-1.8
	c-1.2-2.4-2.3-4.8-3.2-7.2c-1.6-4.4-2.6-9-3-13.7c-0.1-0.9-0.2-1.8-0.8-2.5c0.1-0.5,0.4-1.1,0.3-1.6c-0.4-5.4,0.3-10.7,1.2-15.9
	c0.2-0.9,0.6-1.7,1.2-2.4c0.8-1,1.8-1.8,2.8-2.6c8.8-7,18.5-12.7,29.4-16.1c2.1-0.7,4.1-1.4,6.2-2.1c0.4-0.1,0.9-0.2,1.5-0.4
	c0.1,0.6,0.3,1.1,0.2,1.6c-0.1,0.9-0.3,1.6-0.6,2.4c-3.4,9.4-7.1,18.6-11.4,27.6c-0.6,1.3-1.2,2.6-1.9,3.8c-1.2,2.4-2.4,4.7-3.7,7
	C39.4,46.7,37.7,49.5,36,52.3z M60.7,121.8c-5.5-3.4-10.3-7.7-14.5-12.6c-2.3-2.8-3.8-6-5-9.4c-2.9-8.5-3.5-17.3-2.5-26.2
	c0.8-7.7,2.6-15.2,5.3-22.4c1.2-3.3,2.6-6.6,4.3-9.8c2.1-3.8,4.1-7.7,5.9-11.7c0.8-1.8,2-3,3.7-3.9c2.8-1.4,5.8-2.3,8.8-2.9
	c6.2-1.2,12.5-2.2,18.8-2.6c0.5,0,1.1-0.1,1.6-0.1c0.5,0,1.1-0.1,1.6-0.1c5.2-0.3,10.5-0.4,15.7-0.1c0.6,0,1.1,0.1,1.7,0.1
	c0.8,0.1,1.7,0.1,2.5,0.2c0.8,0.1,1.6,0.2,2.4,0.2c3.1,0.3,6.2,0.5,9.2,1c3.6,0.6,7.2,1.3,10.8,2c0.3,0.1,0.5,0.1,0.8,0.2
	c0.1,0,0.1,0,0.2,0.1c1.5,0.4,3,1,4.4,1.7c0.1,0,0.1,0.1,0.2,0.1c0.5,0.2,0.9,0.5,1.4,0.8c1,0.6,1.8,1.4,2.3,2.5
	c2.6,5.2,5.4,10.4,8,15.7c2.3,4.7,3.8,9.6,5.2,14.6c2.3,8.5,3.6,17.1,3.1,25.9c-0.3,5.3-1.4,10.5-3.1,15.5
	c-1.5,4.3-3.9,8.1-7.1,11.3c-4.8,4.8-9.9,9.2-15.8,12.7c-3.6,2.1-7.1,4.1-11.1,5.4c-3,1-6,2.4-8.9,3.7c-0.4,0.1-0.8,0.4-1.2,0.4h0
	c-0.2,0-0.4,0-0.7-0.2c0.7-2.3,1.5-4.5,2.2-6.8c0.2-0.6,0.6-1.2,1-1.8c5.6-6.8,8.9-14.7,11.3-23.1c1-3.5,1.5-7.2,2.3-10.8
	c0.3-1.4,0.9-2.8,1.2-4.3c0.1-0.3-0.2-0.8-0.4-1.1c0,0,0,0,0,0c0,0,0,0,0,0c-0.2,0-0.7,0.2-0.8,0.3c-2.6,4.9-7.2,6.9-12,8.7
	c-3.4,1.2-6.9,1.9-10.4,2.4c-1.2,0.1-2.4,0-3.7,0h-0.1c-1-0.9-0.7-2.1-0.7-3.4c2.2-0.9,3-2.8,3.7-5c1.1-3.7,3.1-5.4,6.5-5.6
	c0.4,0,0.8,0,1.3,0c0.3,0,0.5,0,0.8,0.1c0.8,0.1,1.6,0.2,2.3,0.3c0.2,0,0.5,0.1,0.8,0.1c0.3,0,0.6,0.1,0.9,0.1c0,0,0,0,0,0
	c1.5-2.5,1.7-3.5,1.4-7.1c-0.6-0.2-1.3-0.6-2.1-0.8c-2.4-0.5-4.8-1-7.2-1.2c-0.3,0-0.7-0.1-1.1-0.1c-1.2-0.1-2.5-0.1-3.7-0.1
	c-3.3,0.1-6.7,0.1-10,0c-0.7,0-1.4,0-2,0c-0.4,0-0.8,0-1.3,0.1c-0.8,0.1-1.6,0.2-2.4,0.3c-0.5,0.1-1,0.1-1.5,0.2
	c-1.5,0.3-3.1,0.6-4.6,0.9c-0.5,0.1-1,0.4-1.6,0.7c-0.6,2.5,0,4.7,1,7.1c0,0,0.1,0,0.1,0c0.2,0,0.4,0,0.5,0c0.2,0,0.4,0,0.6,0
	c0.2,0,0.3,0,0.5,0c0.1,0,0.3,0,0.4-0.1c0.5,0,1-0.1,1.6-0.2c0.5-0.1,1-0.2,1.5-0.2c0.1,0,0.2,0,0.3,0c0.3,0,0.6,0,0.9,0
	c0.2,0,0.4,0,0.6,0.1c2.7,0.4,4.7,2,5.8,4.7c0.1,0.3,0.2,0.6,0.3,1c0.7,2,1.8,3.7,3.5,5v3.1c-0.7,0.1-1.2,0.2-1.8,0.3
	c-0.2,0-0.3,0-0.5,0h-0.1c-0.4,0-0.7,0-1.1-0.1c-0.4,0-0.7-0.1-1.1-0.1c-0.7-0.1-1.5-0.2-2.2-0.3h0c-4.7-0.7-9.1-2.1-13.4-4.4
	c-2.6-1.4-4.8-3.1-6.2-5.8c-0.2-0.4-0.7-0.7-1.3-1.1c0,0-0.1,0-0.1-0.1c-0.1,0.8-0.3,1.4-0.1,1.7c0.9,1.9,1.1,4,1.4,6
	c1.4,7.7,3.6,15.2,7.1,22.3c1.7,3.4,3.6,6.7,6.1,9.6c0.7,0.8,1.2,1.7,1.4,2.7s0.6,2,0.9,3c0.3,0.9,0.7,1.8,1.3,3.2c0,0,0,0,0,0
	c-1.2-0.4-1.9-0.6-2.6-0.9c-1.6-0.7-3.2-1.3-4.8-2c-1.4-0.6-2.7-1.2-4.1-1.8C70.1,127.1,65.3,124.7,60.7,121.8z M18.8,255.5
	c-2.1-6.5-3.6-13-4.2-19.8c0-0.4-0.1-0.8-0.1-1.2c0-0.4,0-0.8-0.1-1.2c-0.1-1.2-0.1-2.4,0-3.6c0-0.7,0.1-1.5,0.2-2.2
	c0.1-0.7,0.2-1.5,0.4-2.2c2.3-10.6,10.1-14.2,17-14.2c4.2,0,8.3,0.5,12.2,1.8c1.6,0.5,3.2,1.3,4.6,2.3c6,3.9,10.7,9,14.5,15
	c1.8,2.8,3.4,5.7,4.1,9c0.4,1.8,1,3.5,1.5,5.3c0.7,2.6,1.2,5.3,1.6,7.9c0,0,0,0,0,0c0.1,0.9,0.2,1.8,0.3,2.6v0
	c0.1,1.2,0.2,2.3,0.2,3.5c0,1.5,0,2.9,0,4.4c-0.1,2.2-0.3,4.4-0.6,6.5c-0.6,3.6-1.5,7.2-2.8,10.8c-1.3,3.6-3.1,6.9-5.5,9.9
	c-2.3,2.8-5.1,5-8.5,6.3c-1,0.4-2.2,0.8-3.3,0.6c-3.4-0.4-6.9-0.5-10.3-0.2c-0.3,0-0.7-0.1-1.1-0.1c-0.5-0.8-1.1-1.6-1.7-2.5
	C29.6,282.1,23.3,269.2,18.8,255.5z M62.2,317.1c-0.1,0.6-0.1,1.1-0.2,1.7c0,0.3,0,0.6,0,0.8c-3.1,0.1-6,0.2-9,0.1
	c-3-0.1-6.1,0.6-9.2-0.1c-0.1-0.3-0.1-0.6-0.2-0.9c0-0.3-0.1-0.6-0.1-0.9c0-0.4,0-0.8,0-1.2c0-0.2,0-0.4,0.1-0.6
	c0-0.2,0.1-0.4,0.1-0.6c0.2-1.3,0.6-2.5,1.2-3.7c0.2-0.4,0.3-0.9,0.6-1.9c0,0,0-0.1,0-0.1c-2.5,2.5-3.6,5-4.2,7.8
	c-0.2,0.9-0.5,1.7-0.7,2.6c-2.9,0-5.7,0.5-8.5,0c-0.2-0.6-0.3-1.1-0.4-1.7c0-0.2,0-0.4,0-0.6c0-0.5,0-1,0-1.5c0.1-2,0.9-3.8,2-5.6
	c0.4-0.6,1.3-1,1.3-1.8v0c0,0,0-0.1,0-0.1c0-0.1,0-0.1,0-0.2c-0.5,0.2-1,0.4-1.4,0.8c-2.2,2.2-3.4,4.9-4.1,7.8c-0.2,1-0.4,2-0.6,3.1
	c-0.6,0.1-3.8-0.4-5-0.4c0-0.1,0-0.2,0-0.2v-1c0.6-4.2,1.9-8,4.5-11.2c0.5-0.7,1.1-1.3,1.7-1.9c5-4.7,11.1-6.5,17.7-6.4
	c5.2,0.1,10.2,1.5,14.8,3.9c0.2,0.1,0.4,0.2,0.7,0.3c1.8,0.9,2.3,1.4,3.9,3.4c0,0,0,0,0,0c-2.6,2.7-4.3,5.8-4.9,9.4
	C62.3,316.6,62.2,316.9,62.2,317.1z M130.5,318.4c-0.1,0.2-0.2,0.4-0.2,0.6c0,0.1-0.1,0.2-0.2,0.3c0,0,0,0.1,0,0.1
	c-0.3,0.1-0.6,0.2-0.9,0.2c-1.1,0-2.3-0.1-3.4-0.2c-1.3-2.2-1.1-5.1-3.5-7.1c-0.1-0.1-0.1-0.1-0.2-0.2c0.8,2.6,2.4,4.6,1.3,7
	c0,0,0,0,0,0.1c-3,0.8-5.9,0.1-8.8-0.1c-1.1-2.2-0.9-4.8-2.6-6.9c0,0-0.1-0.1-0.1-0.2c0.1,2.5,1.3,4.6,0.4,6.8c0,0,0,0.1-0.1,0.1
	c-0.7,0.7-1.7,0.5-2.5,0.5c-3.8,0-7.6-0.1-11.4-0.1c-3.3,0-6.7,0.1-10,0.1c-1.5,0-3,0-4.5-0.1c-0.2-0.7-0.3-1.4-0.4-2
	c0-0.1,0-0.2,0-0.3c-0.1-1.8,0.2-3.5,1.2-5h-0.1c0,0-0.1,0-0.1,0c-0.9,0.1-1.2,0.9-1.4,1.6c-0.6,1.7-1,3.5-1.6,5.4
	c-2.7,0.6-5.4,0.7-8.1,0.5c-0.4,0-0.7-0.1-0.9-0.3c0,0-0.1,0-0.1-0.1c-0.3-0.3-0.4-0.8-0.3-1.3c0.2-1.6,0.7-3.1,1.6-4.5
	c0.5-0.8,1.1-1.7,1.5-2.6c-0.1,0-0.2,0.1-0.2,0.2c-2.8,2-3.6,5.1-4.4,8.2c-1.5,0.7-3,0.4-4.3,0.5c0,0-0.1-0.1-0.1-0.1
	c-0.1-0.1-0.1-0.1-0.2-0.2c-0.4-0.6-0.3-1.2-0.2-1.7c0.6-3.5,2.3-6.2,5.1-8.3c6.9-5.1,16.6-4.2,22.6,1.5c0.2,0.2,0.5,0.5,0.7,0.8
	c0.2,0.2,0.4,0.5,0.6,0.7c0.6,0.7,1.1,1.5,1.6,2.3c0.5,0.9,1,1.7,1.3,2.6c0,0,0,0.1,0,0.1c1.2,0.1,1.2-1,1.5-1.6
	c2.6-5.2,6.8-8.3,12.5-9.4c5-1,9.6,0.1,13.7,3.1c0.2,0.1,0.4,0.3,0.5,0.4c0.2,0.2,0.4,0.3,0.5,0.5c0.3,0.3,0.6,0.5,0.9,0.8
	c1.8,2,2.9,4.5,3.3,7.3C130.6,318.3,130.6,318.4,130.5,318.4z M160.4,302c0.2,0.1,0.5,0.2,0.7,0.4c0.1,0,0.1,0.1,0.2,0.1
	c2.5,1.4,4.6,3.2,6.3,5.3c1.4,1.8,2.5,3.8,3.1,6.1c0.6,2.1,1,4.2,1.5,6.5c-1.8,0-4.6,0-5.4-0.1c0,0,0-0.1,0-0.1
	c-0.5-3.7-1.4-7.1-3.9-9.8c-0.2-0.2-0.4-0.4-0.5-0.6c-0.7-0.7-1.5-1.3-2.4-1.8c4.2,6,4.9,8.2,3.6,12.4c-2.8,0.4-5.6,0.1-8.5-0.2
	c0,0,0-0.1,0-0.1c-0.1-0.7-0.3-1.1-0.3-1.7c-0.4-2.8-1.5-5.3-3.3-7.5c-0.1-0.2-0.3-0.4-0.4-0.5c0,0,0,0,0,0c-0.2-0.2-0.5-0.2-1,0.1
	c2,2.9,2.6,6,2,9.5c-0.8,0.1-1.5,0.2-2.1,0.2c-5.1-0.1-10.1-0.2-15.2-0.3c-0.3,0-0.6-0.2-1-0.4c0,0,0,0,0,0
	c-0.2-1.6-0.3-3.2-0.7-4.8c-0.4-1.4-1-2.8-1.8-4.1c-0.8-1.4-1.8-2.6-2.9-4c1.3-1.4,2.9-2.5,4.6-3.3c0.1,0,0.1-0.1,0.2-0.1
	c4-1.9,8.1-3.2,12.5-3.6c5-0.6,9.7,0.1,14.1,2.2C159.9,301.8,160.2,301.9,160.4,302z M158.9,294.2c-0.5,0.8-1,1.5-1.5,2.3
	c-0.1,0.2-0.3,0.3-0.5,0.5H149c-0.4,0-0.7,0-1.1,0c-0.2,0-0.3,0-0.5,0.1c-0.2,0-0.3,0.1-0.5,0.1c-0.5,0.1-0.9,0.2-1.3,0.2
	c-0.3,0-0.6,0-0.8,0c-0.2,0-0.3,0-0.5,0c-0.1,0-0.3-0.1-0.4-0.1c-0.9-0.2-1.7-0.6-2.6-1c-2.7-1.3-5.1-3.1-7-5.4
	c-4.1-4.8-6.4-10.4-7.8-16.3c-2.1-8.6-2.1-17.3-0.5-26c0.8-4.3,2.3-8.4,3.5-12.6c0.1-0.4,0.3-0.9,0.5-1.3c3.9-7.3,9-13.6,15.7-18.5
	c3.9-2.9,8.5-4,13.2-4.7c0.4,0,0.9-0.1,1.3-0.1c1.3-0.1,2.6-0.1,3.9-0.1c0.2,0,0.5,0,0.7,0c0.3,0,0.5,0,0.8,0.1c0.2,0,0.5,0,0.7,0.1
	c7.6,1,12.9,5.9,14.7,13.7c0,0.3,0.1,0.7,0.1,1c0.2,2.4,0.3,4.9,0.2,7.4c-0.6,10.1-3.4,19.7-6.9,29.1c-1.8,4.8-3.9,9.5-6.1,14.2
	C165.5,282.8,162.4,288.6,158.9,294.2z"/>
<path class="st2" d="M118.9,97.5c-1,2.8-2.2,5.5-4,8c-0.4,0.6-1,1.1-1.7,1.8c-0.6-0.4-1.1-0.7-1.5-1.1c-0.7-0.8-1.3-1.6-1.9-2.5
	c-2.2-3.2-2.2-3.3-5.8-3c-4.7,0.4-9.4,0.4-14.1-0.1c-2.1-0.2-3.5,0.4-4.5,2.3c-0.9,1.6-1.8,3.2-3.9,4.4c-3.2-3.7-4.9-7.9-6.4-12.6
	c0.7,0.1,1.1,0,1.5,0.1c6.9,3.3,14.4,3.9,21.9,3.9c3.9,0,7.8-0.3,11.6-1.2c2.3-0.6,4.6-1.4,6.9-2.1c0.7-0.2,1.4-0.5,2.3-0.8
	C119.7,95.9,119.2,96.7,118.9,97.5z"/>
<path class="st3" d="M110.3,120.4c-0.2,4.4-1,8.6-3.3,12.5c-2,3.5-5.1,5.6-9.1,6.1c-0.9,0.1-1.9,0.1-2.7-0.2
	c-2.5-0.9-4.8-2.2-6.3-4.5c-3.4-5.3-4.8-11.1-3.4-17.4c0.2-1,0.7-2,1.2-2.9c0.8-1.4,1.9-2.3,3.6-2.3c1.9,0,3.8-0.7,6-0.3
	c0.5,3.1,0.9,6,1.4,9c1.3-2.9,0.5-6.1,1.8-9.1l0,0c2.4,0,4.7,0.2,6.9,0.9c1.4,0.4,2.5,1.3,2.9,2.7
	C109.6,116.8,110.3,118.6,110.3,120.4z"/>
<path class="st4" d="M108.9,154.9L108.9,154.9c-0.2,8.7-8.7,14.6-16.5,11.2c-4.4-1.8-6.9-5.2-7.3-10.2c-0.4-5.3,1.8-8.8,6.1-10.8
	c6.5-3,11.8-1.8,16.2,4.4C108.5,151.1,109,153.1,108.9,154.9z"/>
<path d="M35.1,308.6C35.1,308.7,35.1,308.7,35.1,308.6L35.1,308.6z"/>
<path d="M36.3,307.5c0,0,0,0.1,0,0.1c0,0,0,0.1,0,0.1c0,0.1,0,0.1,0,0.2c0,0.1,0,0.1,0,0.2c0,0.1,0,0.1-0.1,0.2c0,0,0,0.1-0.1,0.1
	c0,0,0,0,0,0c-0.2,0.2-0.5,0.3-0.9,0.2c0,0-0.1,0-0.1,0C35.5,308.3,35.8,308,36.3,307.5z"/>
<path d="M64.8,140.1c-0.3,0.6-0.5,1.1-0.8,1.6C64.3,141.2,64.6,140.6,64.8,140.1z"/>
<path d="M83.5,177.6l-0.1,0.1C83.4,177.7,83.4,177.6,83.5,177.6L83.5,177.6z"/>
<path d="M93.2,206.2c-0.2,0.2-0.7,0.3-0.9,0.2c-0.6-0.5-1.2-1-1.7-1.7c-2.5-3.7-4.3-7.8-5.1-12.3c-0.3-1.6-0.5-3.1-0.7-4.8
	c-1.3,0.4-1.4,1.6-1.9,2.4c-0.5,0.9-0.6,2-1.5,2.5c-0.8-0.1-1-0.7-1-1.2c0-1.4,0-2.8,0.2-4.1c0.3-2.9,1-5.6,2.1-8.3
	c0.2-0.4,0.5-0.8,0.9-1.1c-0.4,1.8-0.7,3.7-1.1,5.5c-0.3,1.5-0.5,3.1-0.4,5c1.9-1,2-3.2,3.6-3.7c0.8,0.3,0.7,0.9,0.6,1.3
	c-0.4,6.9,2.1,12.8,6.4,18c0.4,0.4,0.7,0.9,1,1.4C93.5,205.6,93.4,206,93.2,206.2z"/>
<path d="M95.7,199.9v0.1C95.7,200,95.7,200,95.7,199.9L95.7,199.9L95.7,199.9L95.7,199.9z"/>
<path d="M100.6,206.5c0,0.2-0.1,0.5-0.3,0.6c-0.1,0.1-0.5,0.2-0.6,0.1c-0.4-0.3-0.9-0.7-1.2-1.2c-1-2-1.9-4-2.9-6
	c0.3,0.1,0.6,0.2,0.8,0.4c1.3,1.7,2.6,3.4,3.8,5.2C100.5,205.8,100.6,206.2,100.6,206.5z"/>
<path d="M84.3,175.8c0,0.1-0.1,0.2-0.1,0.3l-0.1-0.1C84.1,175.9,84.2,175.9,84.3,175.8z"/>
<path d="M83.4,177.6C83.4,177.6,83.5,177.5,83.4,177.6C83.5,177.6,83.5,177.6,83.4,177.6L83.4,177.6L83.4,177.6z"/>
<path d="M84.1,176.2c0,0.5,0,1.1-0.5,1.4C83.4,177,83.5,176.5,84.1,176.2z"/>
<path d="M84.2,176.1c0,0-0.1,0-0.1,0.1C84.1,176.1,84.1,176.1,84.2,176.1C84.1,176,84.1,176,84.2,176.1
	C84.1,176,84.2,176.1,84.2,176.1z"/>
<path d="M95.7,199.9L95.7,199.9L95.7,199.9L95.7,199.9z"/>
<path d="M76.7,50.8c-1.7-1.3-3.7-1.9-5.8-1.2c-3.6,1-6,3.4-7.2,6.8c-1.8,5.2-0.7,10.1,2.6,14.3c3.7,4.7,9.2,4.2,12.1-1
	c1.6-2.8,2.5-5.9,2.5-8.9C80.9,56.7,79.9,53.3,76.7,50.8z M69.1,61.6c-0.3,0.3-0.8,0.5-1.2,0.7c-1.3,0.5-2.6,0-3-1.4
	c-0.2-0.8-0.3-1.6-0.3-2.4c0-2.1,0.9-4,2.3-5.6c0.5-0.6,1.3-1,2-1.1c2-0.5,3.4,0.8,3.4,3l0,0C72,57.3,71.1,59.7,69.1,61.6z"/>
<path class="st2" d="M72.3,54.8c-0.3,2.5-1.2,4.9-3.2,6.8c-0.3,0.3-0.8,0.5-1.2,0.7c-1.3,0.5-2.6,0-3-1.4c-0.2-0.8-0.3-1.6-0.3-2.4
	c0-2.1,0.9-4,2.3-5.6c0.5-0.6,1.3-1,2-1.1C70.9,51.4,72.3,52.6,72.3,54.8L72.3,54.8z"/>
<path d="M138.5,59.2c-1.3-0.6-2.5-1.2-3.7-1.8c-3.4-1.6-6.5-1.2-9.2,1.4c-1.3,1.2-2.4,2.8-3.5,4.2c-1.1,1.4-2.2,2.9-3.4,4.3
	c-0.9,1-1.9,0.8-2.5-0.3c-0.8-1.3-1.1-2.8-0.9-4.3c0.1-0.7,0.4-1.6,0.9-2.1c2.6-3,5.8-5.1,9.7-6.1c2.4-0.6,4.8-0.6,7,0.6
	c1.9,1,3.7,2.3,5.5,3.5C138.5,58.5,138.4,58.8,138.5,59.2z"/>
<path d="M138.5,59.2L138.5,59.2L138.5,59.2L138.5,59.2z"/>
<path d="M84.5,311.9c-0.1-0.1-0.1-0.2-0.1-0.2c0-0.1,0-0.1,0-0.2c0,0,0,0.1,0,0.1c0,0,0,0.1,0,0.2C84.5,311.8,84.5,311.8,84.5,311.9
	z"/>
</svg>
