<?xml version="1.0" encoding="utf-8"?>
<!-- Generator: Adobe Illustrator 27.7.0, SVG Export Plug-In . SVG Version: 6.00 Build 0)  -->
<svg version="1.1" id="Layer_1" xmlns="http://www.w3.org/2000/svg" xmlns:xlink="http://www.w3.org/1999/xlink" x="0px" y="0px"
	 viewBox="0 0 427.9 647.9" style="enable-background:new 0 0 427.9 647.9;" xml:space="preserve">
<style type="text/css">
	.st0{fill:#F06592;}
	.st1{opacity:0.3;enable-background:new    ;}
	.st2{fill:#130C0C;}
	.st3{fill:#3B3938;}
	.st4{fill:#FFFFFF;}
</style>
<path class="st0" d="M105.4,71.6c0.6,5-3.8,6-6.8,8.1c-2.7,2.1-4.2,5.2-6.2,7.9c-2.3-6-0.8-11.9,2.4-16.6c1.5-2.2,4.2-3.2,7.1-3.2
	C104.6,67.7,106.1,68.6,105.4,71.6z"/>
<path class="st0" d="M120.5,79.8c5.5-4,9.9-3.8,16.8,1.1C130.8,79.8,125.8,77.8,120.5,79.8z"/>
<path class="st0" d="M110.4,237.6c14.1,6.4,28.1,12.8,43.3,19.8c-2.8,0.1-8.9,1.1-29.1-8.7C119.2,246.2,114.2,242.8,110.4,237.6z"/>
<path class="st0" d="M139,111.9c6.6,1.4,11.1,4.9,13.3,9.8c3.3,7.5,1.3,14.5-4.8,20.6c-6.8,6.8-17,6.1-22.3-1.4
	c-2.9-4-4.6-8.5-4.6-12.8c0-5.9,1.8-10.8,7.7-14.4C131.5,111.8,135.2,110.9,139,111.9z"/>
<path class="st0" d="M145.4,246.8c12.1,3.8,24.1,7.5,36.5,11.4C171.2,259.8,155.4,255.1,145.4,246.8z"/>
<path class="st0" d="M267.9,247.3c-10.6,9.2-23.6,11.6-37.1,12C243.2,255.4,255.5,251.2,267.9,247.3z"/>
<path class="st0" d="M160.5,187.7c1.7-2.5,13.9,3.4,22.1,3.1c26.7-0.9,22-12.8,21.6-16.6c-0.8-7.9-13.9-9.2-20.2-15.8
	c-4.1-4.4-2.9-13.4,10.5-17.7c7.9-2.5,16.3-2.6,24.5-0.9c15.3,3.1,14.3,13.7,10.6,17.7c-2.5,2.7-18.4,7.8-18.3,15.1
	c0.1,4.7-2.8,14.2,15.2,18.2c22.5,5,24.7-4.8,26.9-1.1c2.1,3.4-7.2,6.3-14.6,6.9c-10.9,0.9-24.2-6-30.6-5.8
	c-6.7,0.2-14.4,4.5-28.5,4.2C170.5,194.8,158.4,190.8,160.5,187.7z"/>
<path class="st0" d="M266.6,79.5c6.3-5.4,11.2-5.8,18.5-0.9C278.3,77.8,272.3,76.7,266.6,79.5z"/>
<path class="st0" d="M258.6,129.8c-0.8-2.2-0.8-4.4-0.1-6.6c0.4-1,1-2.2,1.9-2.8c4.7-3.7,10-5.9,16-6.3c3.7-0.2,7.2,0.4,10.2,2.8
	c2.5,2,4.8,4.4,7.1,6.7c0.2-0.1-0.1,0.3,0,0.9c-1.8-1.2-3.4-2.5-5-3.7c-4.6-3.3-9.3-3.6-14-0.5c-2.2,1.4-4.3,3.5-6.3,5.2
	c-2,1.8-4,3.7-6.2,5.4C260.6,132.2,259.2,131.6,258.6,129.8z"/>
<path class="st0" d="M257.4,259c14.6-8.9,30.7-14.7,45.2-23.4c0.2,0.3,0.5,0.7,0.7,1c-4.3,3.3-8.1,7.3-12.8,10
	C279,253.3,259.6,259,257.4,259z"/>
<path class="st0" d="M303.5,67.2c-0.2-3.1,0.9-3.9,3.5-3.9c2.9,0,5.6,1,7.1,3.2c3.2,4.6,4.7,10.6,2.4,16.6c-2-2.7-3.5-5.7-6.2-7.9
	C307.4,73.2,303.8,72.3,303.5,67.2z"/>
<path class="st0" d="M-24.7-12.9V669h470.9V-12.9H-24.7z M63.9,370.5c0.5-16.4,5-31.8,9.7-47.2c6-19.9,12.2-39.7,15.9-60.2
	c1.6-8.4,1.6-17.1,2.9-26.1c4.2,3.1,8,6.2,12.2,8.5c1.9,1.1,3.8,3.1,6.3,1c0.2-2.3-1.8-3-3.1-4.1c-8.2-7.1-22-16.4-32.5-46.4
	c-1.6-4.6-3.1-9.7-4.6-15.3v0c0-0.1,0-0.1-0.1-0.2c0,0,0,0,0,0c-0.8-8.1-2.4-20-1.3-27.9c1.7-12.1,6.8-36.4,18-54.3
	c0.2-0.5,0.4-0.9,0.5-1.4c1-3.1,0.5-6.2-0.3-9.2c-1.4-5.3-2.3-10.6-0.1-16c1.3-4,4-6.8,7.5-9c6.3-4,13.2-4.9,20.4-3.3
	c2.5,0.8,4.8,0.1,7.1-0.9c6.3-2.6,12.3-6.2,19.2-7.4c27.6-8.1,55.6-11.4,84.3-9c20.1,1.7,39.5,5.9,58.2,13.2
	c5.6,2.2,10.9,3.1,16.9,1.7c7.1-1.7,13.5,0.3,18.2,6.4c5.2,5.4,6.8,11.6,5.3,19c-1.1,5.6-1.4,11.5,1.7,16.9c0.9,1.8,1.5,3.7,2.3,5.5
	c4.9,10.5,11.5,26.7,14,44.7c0.7,5.2,0.5,10.2,0.6,15.3c0.1,5-0.6,9.9-1.4,14.7c-0.2,1.2-0.4,2.3-0.6,3.5c-0.3,1.8-1.9,7.3-3.2,12
	c-1.1,3.9-2.2,7.2-2.3,7.6c-4.9,10.9-11.8,20.4-20.1,28.9c-7.1,7.3-15.8,12.5-24.2,18c-0.2,0.1-0.4,0.2-0.6,0.4c-1,3.6,1.6,2.6,3,2
	c3.4-1.4,6.7-2.9,10-4.6c5.2-2.7,10.3-5.7,15-9.3c2,6.4,1.1,12.3,1.8,18.1c2.2,17.3,6.9,33.9,12.5,50.3c6.1,18,12.1,36,15.2,54.8
	c2.1,12.8,0.9,24.9-6,36.1c-3.2,5.3-6.4,10.6-10.4,15.2c-6.2,7.2-13,13.9-20.9,19.2c-0.9,0.6-2,1.6-3.2,1.1
	c-1.5-0.7-1.1-2.3-0.9-3.6c0.4-3.1,0.8-6.3,1.8-9.3c0.4-1.1,0.8-2.5,0.1-3.4c-0.1-0.1-0.2-0.3-0.4-0.4c-0.1-0.1-0.2-0.1-0.4-0.2
	c-0.1,0-0.1,0-0.2-0.1c-0.5-0.2-1-0.1-1.5,0.1c-0.8,0.4-1.5,1.2-2.2,1.8c-3,3.1-2.9,7.3-3.8,11.1c-0.3,1.3,0.3,3.6-1.7,3.7
	c-1.9,0-2.6-2-2.8-3.7c-1.3-15.3,3.8-20.9,5.2-23.8c0.5-1,1.1-2.2,0.1-3c0,0,0,0,0,0c0,0,0,0-0.1-0.1c-1.2-0.9-2.3,0.1-3,0.9
	c-4.1,4.3-9.5,12.7-9,26.7c-4-9.9-6.4-18.6,4.6-41.9c3.6-7.5,9.1-13.9,14.8-20c1-1,2.7-2.4,1.6-3.7c-1.4-1.8-3.1-0.1-4.2,0.9
	c-18.8,16.3-23.2,28.5-24.6,34c-0.5,1.9-1.1,5-1.6,8.4c0,0,0,0,0,0.1c-2,8.5-2.4,47.7,30.8,44.3c19.7-2,20.5-12.6,30.8-19.2
	c4-2.5,15,6.5,15,12.2v0.1c0,1.4-0.1,3-0.2,4.9c-0.1,1.4-4,34.5-7,46.6c-5.5,21.9-15.9,41.6-27.3,60.8c-3.2,5.4-6.8,7.7-12.9,6.2
	c-0.8-0.2-1.6-0.3-2.5-0.4c-5-0.2-10,0.4-14.7,2.3c-1.2,0.5-2.8,1.1-2.5,2.7c0.2,1.9,2,1.9,3.5,2.1c2,0.2,4-0.5,6-0.6
	c6.3-0.2,12.9-0.9,17.9,4.2c1.9,1.9,3.6,4,5.1,6.2c2.8,4.1,5,8.6,6.4,13.5c1.2,4.3-0.3,6-4.6,5.4c-2.5-0.3-2.5-2.3-3-4
	c-2-6.9-5-13.1-11.9-16.4c-1.3-0.6-3-1.4-4.1,0.1c-0.1,0.1-0.2,0.2-0.2,0.3c0,0,0,0,0,0.1c-0.6,1.3,0.5,2.5,1.4,3.5
	c3.1,3.3,5.7,6.9,7.6,11.1c0,0.1,0.1,0.2,0.1,0.3c1.6,5.4,0.8,6.3-4.7,5.5c-2.1-0.3-4.3-0.6-6.4-0.6c-12.7,0.2-23.6-4.2-33.2-12.5
	c-4.1-3.6-8.3-7.2-13.9-8.4c-2.2-0.3-4.5-0.2-6.7,0.2c-3.4,0.9-6.9,0.6-10.4,0.4c-3-0.1-6-0.2-9,0c-17.3,1.4-34.5,1.1-51.8,0.1
	c-5.8-0.3-11.6-1.4-17.4-0.8c-3.2,0.6-5.3,2.8-7.2,5.1c-9.3,10.7-21.4,15.5-35.2,16.7c-2,0.2-4.3,0.8-5.6-1c-1.5-2-0.2-4.2,0.7-6.1
	c1.5-3.2,3.5-6,5.8-8.7c1.1-1.2,2.7-2.7,1.4-4.3c-1.5-1.8-3.4-0.4-4.9,0.5c-1.9,1-3.5,2.6-4.8,4.3c-2.2,3.1-4.2,6.4-5.3,10.1
	c-0.8,2.7-1.9,5.7-5.4,4.1c-3.5-1.6-0.9-4.4-0.2-6.4c1.2-3.3,3.2-6.2,5-9.2c0.6-1,1.4-2.2,0.7-3.3c-0.1-0.1-0.2-0.2-0.3-0.4
	c-1.3-1.3-2.8-0.5-4.1,0.3c-0.5,0.3-1,0.7-1.5,1.1c-2.1,1.7-3.8,3.8-5.1,6.2c-1.4,2.8-2.9,5.6-4.2,8.5c-0.7,1.5-1.8,2.5-3.6,2
	c-2.2-0.6-1.5-2.3-1.2-3.7c0.6-2.8,1.8-5.4,3.3-7.8c0.8-1.3,1.6-2.5,2.4-3.6c4.9-6.9,11-12,20.7-12.3c3.9-0.1,8-0.3,11.9-0.8
	c1-0.1,2.1-0.4,2.3-1.5c0.2-1.1-0.7-1.8-1.6-2.3c-1.8-0.9-3.8-1.4-5.8-1.5c-5.3-0.2-10.7-0.7-15.9,0.9c-3.4,1-5.7,0-7.6-3
	c-10.1-15.8-19.1-32-25.5-49.7c-5.9-16.1-9-32.7-10.5-49.7c-0.4-4.5-0.7-9-0.8-13.6c0,0,0,0,0,0c7.2-25.9,10.9-18.5,14.9-15.9
	c10.3,6.6,11.1,17.2,30.8,19.2c33.1,3.4,35.8-32.1,32.2-46.2c0-0.1,0-0.1-0.1-0.2c-0.3-1.4-0.7-2.8-1.1-4.2
	c-1.5-6.9-6-12.4-9.2-18.5c-0.5-0.8-1.2-1.5-1.8-2.2c-0.5-0.5-1-1.1-1.4-1.7c-4.9-6.1-10.3-11.6-16.5-16.4c-1.1-0.9-2.7-2.1-3.9-0.6
	c-1,1.2,0.4,2.5,1.2,3.4c2.5,2.6,4.7,5.6,7.1,8.3c7.6,8.7,13.5,18.4,16.7,29.6c2.7,8.9,3.8,17.7-2.2,26.9c0.9-7.2-0.4-13.4-2.2-19.4
	c-0.8-2-1.8-3.9-3.3-5.5c-1-1.1-2.2-2.4-3.8-1.7c-1.8,0.8-0.9,2.6-0.6,4c0.8,3.2,2.3,6.2,2.8,9.5c0.8,4.2,2.5,8.4,1.3,12.8
	c-0.5,1.7-1,4-3.1,4c-2.2,0-1.7-2.5-2.2-3.9c-1.5-4.4-2.5-9-6.1-12.3c-0.9-0.8-2-1.5-3.2-0.9c-1.3,0.8-0.7,2.1-0.3,3.2
	c1.2,3.3,3.1,6.3,3.3,9.9c0.1,1.4,0.9,3.3-0.4,4.2c-1.4,1-2.7-0.6-3.9-1.5c-10.5-7.2-19.7-15.8-27.2-26.2
	C68.1,395.5,63.4,384,63.9,370.5z M327.6,577.9c1.9,1.1,3.6,2.4,5,3.7c4.5,4.2,6.8,9.3,9,14.4c0.1,0.1,0.1,0.3,0.1,0.4
	c0.1,0.8-0.4,1.5-1.1,2c0,0,0,0,0,0c-0.4,0.2-0.9,0.4-1.4,0.5c-1.7,0.3-3.4,1.3-4.1-1.2c0-0.1,0-0.1-0.1-0.2
	c-1.4-5.5-3.3-10.7-6-16.7C328.5,579.9,328,578.9,327.6,577.9z"/>
<path class="st1" d="M368.1,599.1c0,15.2-69.8,27.5-155.9,27.5c-86.1,0-155.9-12.3-155.9-27.5c0-5.5,9-10.5,24.5-14.8
	c3.1-0.8,6.4-1.7,9.9-2.4c-0.8,1.2-1.6,2.4-2.4,3.6c-1.5,2.4-2.7,5-3.3,7.8c-0.3,1.4-1,3.1,1.2,3.7c1.7,0.5,2.9-0.5,3.6-2
	c1.3-2.9,2.7-5.7,4.2-8.5c1.3-2.5,3-4.6,5.1-6.2c1.9-0.4,3.9-0.7,5.9-1c0.7,1.1-0.1,2.3-0.7,3.3c-1.8,3-3.8,5.9-5,9.2
	c-0.8,2-3.3,4.8,0.2,6.4c3.5,1.5,4.6-1.4,5.4-4.1c1.1-3.7,3.1-7,5.3-10.1c1.3-1.8,2.8-3.3,4.8-4.3c1.6-0.9,3.4-2.3,4.9-0.5
	c1.3,1.6-0.3,3.1-1.4,4.3c-2.3,2.7-4.3,5.5-5.8,8.7c-0.9,2-2.2,4.1-0.7,6.1c1.3,1.9,3.7,1.2,5.6,1c13.8-1.2,25.8-6,35.2-16.7
	c1.9-2.2,4-4.5,7.2-5.1c5.9-0.6,11.6,0.5,17.4,0.8c17.3,1,34.6,1.3,51.8-0.1c3-0.2,6-0.1,9,0c3.5,0.2,7,0.5,10.4-0.4
	c2.2-0.4,4.4-0.5,6.7-0.2c5.6,1.1,9.8,4.8,13.9,8.4c9.6,8.3,20.5,12.8,33.2,12.5c2.2,0,4.3,0.3,6.4,0.6c5.6,0.8,6.4-0.1,4.7-5.5
	c0-0.1-0.1-0.2-0.1-0.3c-1.8-4.2-4.4-7.8-7.6-11.1c-0.9-1-2-2.2-1.4-3.5c0,0,0-0.1,0-0.1c0-0.1,0.1-0.2,0.2-0.3
	c1.1-1.5,2.9-0.7,4.1-0.1c6.9,3.3,9.9,9.6,11.9,16.4c0.5,1.7,0.4,3.7,3,4c4.3,0.6,5.8-1.1,4.6-5.4c-1.4-4.9-3.5-9.4-6.4-13.5
	c2.4,0.4,4.8,0.9,7.1,1.3c2.7,6,4.6,11.2,6,16.7c0,0.1,0,0.2,0.1,0.2c0.7,2.5,2.4,1.5,4.1,1.2c0.5-0.1,1-0.3,1.4-0.5c0,0,0,0,0,0
	c0.9-0.3,1.4-1,1.1-2c0-0.1-0.1-0.3-0.1-0.4c-2.2-5.1-4.5-10.2-9-14.4c3.5,0.8,6.8,1.5,9.9,2.4C358.7,588.3,368.1,593.5,368.1,599.1
	z"/>
<path d="M103.7,451.8c-19.7-2-20.5-12.6-30.8-19.2c-4-2.5-7.7-10-14.9,15.9c0,0,0,0,0,0c-4.8-2.7,1.9-46.7,3.3-54
	c1,1.5,3.6,4.9,3.9,5.5c6.8,13.7,17.2,24.4,29,33.8c4.6,3.6,11.3,7,15.6,7.2c14.2,0.8,24.5-17.9,26-35.6c0,0.1,0,0.1,0.1,0.2
	C139.4,419.6,136.8,455.1,103.7,451.8z"/>
<path class="st2" d="M347.7,171.5L347.7,171.5z"/>
<path class="st2" d="M342.4,583.9c-3.2-4.3-7.5-7.7-11.8-11.1c-6.3-5-5.6-4.1-1.6-11.1c42.1-73.9,36.6-107.8,28-160.2
	c-0.9-5.4-3.1-10.7-1.8-16.2c2.2-8.9,1.6-17.8-0.2-26.7c-4.1-20.9-11.7-40.8-18.1-61.1c-6.6-20.9-11-42.1-10.5-64.2
	c0.1-2.3,0.1-4.6,1.6-6.6c4.9-6.3,9.8-12.8,12.5-20.3c1-2.7,1.8-5.4,2.6-8c1.7-5.8,2.9-11.2,3.7-16.3c2.8-17.1,1.3-29.9,0.2-36.9
	c-1.7-10.4-4.1-27.1-11.7-40.3c-7.6-13.2-4.6-25.2-4.6-25.7c0-19-14.2-30.6-34.1-27.4c-2.2,0.4-4.2,0.3-6.2-0.5
	c-17.4-7.3-35.6-11.8-54.3-14.1c-39.7-4.8-78.3-0.7-115.3,15.1c-2.4,1-4.6,1.3-7.2,0.9C93.5,50,77.8,65.2,81.5,85.2
	c1.4,7.3,0,11.4-4.9,21.7c-11.7,24.8-16.5,50.6-12.2,77.2c0.7,4.1,1.5,8.3,2.7,12.4c0.3,1.5,0.7,3,1.1,4.4
	c4.7,15.8,15.7,25.3,15.8,28.8c0.5,15.6-0.6,30.9-4.1,46.1c-5.1,22.2-13.2,43.5-18.6,65.6c-3.6,14.7-8.7,29.5-3.7,45.1
	c0.3,0.9,0.1,2-0.1,3c-3.1,13.8-4.5,27.9-5.5,42c-3.2,46.7,4.2,93.2,36.5,133.6c2.9,3.6,3.4,6.7-0.2,9.9c-1.3,1.2-2.6,2.6-3.7,4
	c-1.3,1.7-2.7,3.4-3.9,5.2c-2.3,3.2-4.1,6.6-4.4,10.9c-0.3,4.4,1,6.6,5.6,7.5c16.8,3.4,33.5,3.5,50-1.2c10.6-3,22.6-10.3,27.1-16.2
	c1.8-2.3,3.6-2.9,6.3-2.8c14,0.5,28,0.8,41.9,1.1c15.2,0.3,30.3-0.6,45.4-1.1c2.2-0.1,4.1-0.2,5.8,1.9c9.7,12.1,22.5,18.3,37.9,19.6
	c15.3,1.3,30.6,0.9,45.8-1.4c5.1-0.8,5.9-3.5,5-8.1C346.4,590.4,344.7,587,342.4,583.9z M323.6,598.4c-2.5-0.3-2.5-2.3-3-4
	c-2-6.9-5-13.1-11.9-16.4c-1.3-0.6-3-1.4-4.1,0.1c-0.1,0.1-0.2,0.2-0.2,0.3c0,0,0,0,0,0.1c-0.6,1.3,0.5,2.5,1.4,3.5
	c3.1,3.3,5.7,6.9,7.6,11.1c0,0.1,0.1,0.2,0.1,0.3c1.6,5.4,0.8,6.3-4.7,5.5c-2.1-0.3-4.3-0.6-6.4-0.6c-12.7,0.2-23.6-4.2-33.2-12.5
	c-4.1-3.6-8.3-7.2-13.9-8.4c-2.2-0.3-4.5-0.2-6.7,0.2c-3.4,0.9-6.9,0.6-10.4,0.4c-3-0.1-6-0.2-9,0c-17.3,1.4-34.5,1.1-51.8,0.1
	c-5.8-0.3-11.6-1.4-17.4-0.8c-3.2,0.6-5.3,2.8-7.2,5.1c-9.3,10.7-21.4,15.5-35.2,16.7c-2,0.2-4.3,0.8-5.6-1c-1.5-2-0.2-4.2,0.7-6.1
	c1.5-3.2,3.5-6,5.8-8.7c1.1-1.2,2.7-2.7,1.4-4.3c-1.5-1.8-3.4-0.4-4.9,0.5c-1.9,1-3.5,2.6-4.8,4.3c-2.2,3.1-4.2,6.4-5.3,10.1
	c-0.8,2.7-1.9,5.7-5.4,4.1c-3.5-1.6-0.9-4.4-0.2-6.4c1.2-3.3,3.2-6.2,5-9.2c0.6-1,1.4-2.2,0.7-3.3c-0.1-0.1-0.2-0.2-0.3-0.4
	c-1.3-1.3-2.8-0.5-4.1,0.3c-0.5,0.3-1,0.7-1.5,1.1c-2.1,1.7-3.8,3.8-5.1,6.2c-1.4,2.8-2.9,5.6-4.2,8.5c-0.7,1.5-1.8,2.5-3.6,2
	c-2.2-0.6-1.5-2.3-1.2-3.7c0.6-2.8,1.8-5.4,3.3-7.8c0.8-1.3,1.6-2.5,2.4-3.6c4.9-6.9,11-12,20.7-12.3c3.9-0.1,8-0.3,11.9-0.8
	c1-0.1,2.1-0.4,2.3-1.5c0.2-1.1-0.7-1.8-1.6-2.3c-1.8-0.9-3.8-1.4-5.8-1.5c-5.3-0.2-10.7-0.7-15.9,0.9c-3.4,1-5.7,0-7.6-3
	c-10.1-15.8-19.1-32-25.5-49.7c-5.9-16.1-9-32.7-10.5-49.7c-0.4-4.5-0.7-9-0.8-13.6c0,0,0,0,0,0c-0.3-15.9,1.3-31.7,4.2-47.5
	c1.5,0.8,2.1,2.3,2.8,3.6c7.7,14.1,19.3,24.4,32.5,33.3c6.8,4.6,13.8,6.5,21.7,3.8c7.9-3.5,14.2-8.3,16.7-17.3
	c0-0.1,0.1-0.3,0.1-0.4c1.7-6.2,1.3-12.3,0-18.3c0-0.1,0-0.1-0.1-0.2c-0.3-1.4-0.7-2.8-1.1-4.2c-1.5-6.9-6-12.4-9.2-18.5
	c-0.5-0.8-1.2-1.5-1.8-2.2c-0.5-0.5-1-1.1-1.4-1.7c-4.9-6.1-10.3-11.6-16.5-16.4c-1.1-0.9-2.7-2.1-3.9-0.6c-1,1.2,0.4,2.5,1.2,3.4
	c2.5,2.6,4.7,5.6,7.1,8.3c7.6,8.7,13.5,18.4,16.7,29.6c2.7,8.9,3.8,17.7-2.2,26.9c0.9-7.2-0.4-13.4-2.2-19.4c-0.8-2-1.8-3.9-3.3-5.5
	c-1-1.1-2.2-2.4-3.8-1.7c-1.8,0.8-0.9,2.6-0.6,4c0.8,3.2,2.3,6.2,2.8,9.5c0.8,4.2,2.5,8.4,1.3,12.8c-0.5,1.7-1,4-3.1,4
	c-2.2,0-1.7-2.5-2.2-3.9c-1.5-4.4-2.5-9-6.1-12.3c-0.9-0.8-2-1.5-3.2-0.9c-1.3,0.8-0.7,2.1-0.3,3.2c1.2,3.3,3.1,6.3,3.3,9.9
	c0.1,1.4,0.9,3.3-0.4,4.2c-1.4,1-2.7-0.6-3.9-1.5c-10.5-7.2-19.7-15.8-27.2-26.2c-7.6-10.6-12.3-22.1-11.9-35.7
	c0.5-16.4,5-31.8,9.7-47.2c6-19.9,12.2-39.7,15.9-60.2c1.6-8.4,1.6-17.1,2.9-26.1c4.2,3.1,8,6.2,12.2,8.5c1.9,1.1,3.8,3.1,6.3,1
	c0.2-2.3-1.8-3-3.1-4.1c-8.2-7.1-22-16.4-32.5-46.4c-1.6-4.6-3.1-9.7-4.6-15.3v0c0-0.1,0-0.1-0.1-0.2c0,0,0,0,0,0
	c-0.8-8.1-2.4-20-1.3-27.9c1.7-12.1,6.8-36.4,18-54.3c0.2-0.5,0.4-0.9,0.5-1.4c1-3.1,0.5-6.2-0.3-9.2c-1.4-5.3-2.3-10.6-0.1-16
	c1.3-4,4-6.8,7.5-9c6.3-4,13.2-4.9,20.4-3.3c2.5,0.8,4.8,0.1,7.1-0.9c6.3-2.6,12.3-6.2,19.2-7.4c27.6-8.1,55.6-11.4,84.3-9
	c20.1,1.7,39.5,5.9,58.2,13.2c5.6,2.2,10.9,3.1,16.9,1.7c7.1-1.7,13.5,0.3,18.2,6.4c5.2,5.4,6.8,11.6,5.3,19
	c-1.1,5.6-1.4,11.5,1.7,16.9c0.9,1.8,1.5,3.7,2.3,5.5c4.9,10.5,11.5,26.7,14,44.7c0.7,5.2,0.5,10.2,0.6,15.3c0.1,5-0.6,9.9-1.4,14.7
	c-0.2,1.2-0.4,2.3-0.6,3.5c-0.3,1.8-1.9,7.3-3.2,12c-1.1,3.9-2.2,7.2-2.3,7.6c-4.9,10.9-11.8,20.4-20.1,28.9
	c-7.1,7.3-15.8,12.5-24.2,18c-0.2,0.1-0.4,0.2-0.6,0.4c-1,3.6,1.6,2.6,3,2c3.4-1.4,6.7-2.9,10-4.6c5.2-2.7,10.3-5.7,15-9.3
	c2,6.4,1.1,12.3,1.8,18.1c2.2,17.3,6.9,33.9,12.5,50.3c6.1,18,12.1,36,15.2,54.8c2.1,12.8,0.9,24.9-6,36.1
	c-3.2,5.3-6.4,10.6-10.4,15.2c-6.2,7.2-13,13.9-20.9,19.2c-0.9,0.6-2,1.6-3.2,1.1c-1.5-0.7-1.1-2.3-0.9-3.6c0.4-3.1,0.8-6.3,1.8-9.3
	c0.4-1.1,0.8-2.5,0.1-3.4c-0.1-0.1-0.2-0.3-0.4-0.4c-0.1-0.1-0.2-0.1-0.4-0.2c-0.1,0-0.1,0-0.2-0.1c-0.5-0.2-1-0.1-1.5,0.1
	c-0.8,0.4-1.5,1.2-2.2,1.8c-3,3.1-2.9,7.3-3.8,11.1c-0.3,1.3,0.3,3.6-1.7,3.7c-1.9,0-2.6-2-2.8-3.7c-1.3-15.3,3.8-20.9,5.2-23.8
	c0.5-1,1.1-2.2,0.1-3c0,0,0,0,0,0c0,0,0,0-0.1-0.1c-1.2-0.9-2.3,0.1-3,0.9c-4.1,4.3-9.5,12.7-9,26.7c-4-9.9-6.4-18.6,4.6-41.9
	c3.6-7.5,9.1-13.9,14.8-20c1-1,2.7-2.4,1.6-3.7c-1.4-1.8-3.1-0.1-4.2,0.9c-18.8,16.3-23.2,28.5-24.6,34c-0.5,1.9-1.1,5-1.6,8.4
	c0,0,0,0,0,0.1c-0.5,3.2-0.7,6.7-0.5,9.6c1.5,17.8,11,24.7,25.2,23.9c4.3-0.2,11.1-3.6,15.6-7.2c11.8-9.4,22.2-20,29-33.8
	c0.3-0.6,0.7-1.1,1.7-2.6c1.3,7.3,2.6,13.6,3.6,20c1.2,7.2,1.5,14.6,1.6,21.9c0.2,1.1,0.4,2.8,0.3,5.4v0.1c0,1.4-0.1,3-0.2,4.9
	c-0.1,1.4-4,34.5-7,46.6c-5.5,21.9-15.9,41.6-27.3,60.8c-3.2,5.4-6.8,7.7-12.9,6.2c-0.8-0.2-1.6-0.3-2.5-0.4c-5-0.2-10,0.4-14.7,2.3
	c-1.2,0.5-2.8,1.1-2.5,2.7c0.2,1.9,2,1.9,3.5,2.1c2,0.2,4-0.5,6-0.6c6.3-0.2,12.9-0.9,17.9,4.2c1.9,1.9,3.6,4,5.1,6.2
	c2.8,4.1,5,8.6,6.4,13.5C329.4,597.3,327.9,599,323.6,598.4z M340.5,598.4c-0.4,0.2-0.9,0.4-1.4,0.5c-1.7,0.3-3.4,1.3-4.1-1.2
	c0-0.1,0-0.1-0.1-0.2c-1.4-5.5-3.3-10.7-6-16.7c-0.4-1-0.9-1.9-1.3-2.9c1.9,1.1,3.6,2.4,5,3.7c4.5,4.2,6.8,9.3,9,14.4
	c0.1,0.1,0.1,0.3,0.1,0.4C341.8,597.3,341.3,598,340.5,598.4C340.5,598.4,340.5,598.4,340.5,598.4z"/>
<path class="st3" d="M65.8,197.9L65.8,197.9z"/>
<path d="M356.5,444.5L356.5,444.5c0-5.8-11-14.8-15-12.3c-10.3,6.6-11,17.2-30.8,19.2c-33.2,3.4-32.8-35.8-30.8-44.3c0,0,0,0,0-0.1
	c1.5,17.7,10.5,34.3,24.6,33.5c4.3-0.2,11.1-3.6,15.6-7.2c11.8-9.4,22.2-20,29-33.8c0.3-0.6,0.7-1.1,1.7-2.6
	c1.3,7.3,2.6,13.6,3.6,20C355.8,424.4,362.5,442,356.5,444.5z"/>
<path d="M238.8,196.6c-10.9,0.9-24.2-6-30.6-5.8c-6.7,0.2-14.4,4.5-28.5,4.2c-9.2-0.2-21.3-4.2-19.2-7.3c1.7-2.5,13.9,3.4,22.1,3.1
	c26.7-0.9,22-12.8,21.6-16.6c-0.8-7.9-13.9-9.2-20.2-15.8c-4.1-4.4-2.9-13.4,10.5-17.7c7.9-2.5,16.3-2.6,24.5-0.9
	c15.3,3.1,14.3,13.7,10.6,17.7c-2.5,2.7-18.4,7.8-18.3,15.1c0.1,4.7-2.8,14.2,15.2,18.2c22.5,5,24.7-4.8,26.9-1.1
	C255.4,193.1,246.1,196,238.8,196.6z"/>
<path d="M105.4,71.6c0.6,5-3.8,6-6.8,8.1c-2.7,2.1-4.2,5.2-6.2,7.9c-2.3-6-0.8-11.9,2.4-16.6c1.5-2.2,4.2-3.2,7.1-3.2
	C104.6,67.7,106.1,68.6,105.4,71.6z"/>
<path d="M316.5,83.2c-2-2.7-3.5-5.7-6.2-7.9c-2.9-2.1-6.5-3-6.8-8.1c-0.2-3.1,0.9-3.9,3.5-3.9c2.9,0,5.6,1,7.1,3.2
	C317.4,71.2,318.9,77.2,316.5,83.2z"/>
<path d="M285.1,78.6c-6.9-0.8-12.8-1.8-18.5,0.9C272.9,74.1,277.8,73.7,285.1,78.6z"/>
<path d="M137.2,80.9c-6.4-1.1-11.4-3.1-16.8-1.1C126,75.7,130.4,75.9,137.2,80.9z"/>
<path d="M303.4,236.6c-4.3,3.3-8.1,7.3-12.8,10c-11.6,6.7-31,12.3-33.2,12.4c14.6-8.9,30.7-14.7,45.2-23.4
	C302.9,235.9,303.1,236.3,303.4,236.6z"/>
<path d="M153.8,257.4c-2.8,0.1-8.9,1.1-29.1-8.7c-5.4-2.6-10.4-6-14.2-11.1C124.5,244.1,138.5,250.5,153.8,257.4z"/>
<path d="M267.9,247.3c-10.6,9.2-23.6,11.6-37.1,12C243.2,255.4,255.5,251.2,267.9,247.3z"/>
<path d="M181.9,258.2c-10.7,1.6-26.4-3.1-36.5-11.4C157.5,250.5,169.5,254.3,181.9,258.2z"/>
<g>
	<path d="M275.2,159.4c10.4-0.1,20.7,2.2,30.7,4.9c24,6.9,50.8,18.2,67.2,37.8c3.3,4.1,6,8.6,7.7,13.6l-0.3,0.1
		c-2-4.8-4.9-9.1-8.3-12.9c-17.3-18.7-42.8-29.4-66.7-37.1c-9.9-2.9-20-5.5-30.3-6C275.2,159.7,275.2,159.4,275.2,159.4L275.2,159.4
		z"/>
</g>
<g>
	<path d="M279.8,168.9c10.3,1.4,20.2,5.2,29.7,9.3c22.8,10.3,47.6,25.4,61,47.1c2.6,4.5,4.7,9.4,5.6,14.5l-0.3,0.1
		c-1.3-5-3.6-9.7-6.4-13.9c-14.4-21-38.1-35.3-60.6-46.4c-9.4-4.3-19-8.3-29.1-10.3C279.8,169.2,279.8,168.9,279.8,168.9
		L279.8,168.9z"/>
</g>
<g>
	<path d="M139.6,159.7c-29.7,2.1-77.1,20.6-97,43.1c-3.4,3.8-6.3,8.1-8.3,12.9l-0.3-0.1c1.7-4.9,4.4-9.5,7.7-13.6
		c16.4-19.5,43.2-30.9,67.2-37.8c5-1.4,10.1-2.6,15.2-3.5c5.1-0.9,10.3-1.5,15.5-1.4C139.6,159.4,139.6,159.7,139.6,159.7
		L139.6,159.7z"/>
</g>
<g>
	<path d="M135,169.2c-29.1,6.3-73.3,31.5-89.7,56.7c-2.8,4.3-5.1,8.9-6.4,13.9l-0.3-0.1c0.9-5.1,3-10,5.7-14.5
		c13.4-21.7,38.3-36.8,61-47.1c4.8-2.1,9.6-4,14.5-5.6c4.9-1.6,10-3,15.1-3.7C134.9,168.9,135,169.2,135,169.2L135,169.2z"/>
</g>
<path d="M293.7,124.5c-1.8-1.2-3.4-2.5-5-3.7c-4.6-3.3-9.3-3.6-14-0.5c-2.2,1.4-4.3,3.5-6.3,5.2c-2,1.8-4,3.7-6.2,5.4
	c-1.6,1.2-3,0.6-3.6-1.1c-0.8-2.2-0.8-4.4-0.1-6.6c0.4-1,1-2.2,1.9-2.8c4.7-3.7,10-5.9,16-6.3c3.7-0.2,7.2,0.4,10.2,2.8
	c2.5,2,4.8,4.4,7.1,6.7C293.9,123.5,293.7,123.9,293.7,124.5z"/>
<path d="M152.3,121.8c-2.2-4.9-6.6-8.4-13.3-9.8c-3.9-1-7.6-0.1-10.7,1.7c-5.9,3.6-7.8,8.5-7.8,14.4c0,4.3,1.7,8.8,4.6,12.8
	c5.4,7.5,15.5,8.2,22.3,1.4C153.6,136.3,155.6,129.2,152.3,121.8z M150.1,128.2c-0.7,2-3.1,2.7-5.5,2c-0.7-0.3-1.7-0.6-2.2-1
	c-3.7-2.7-5.4-6.2-5.9-9.8c0-3.2,2.6-5,6.3-4.3c1.3,0.2,2.8,0.7,3.7,1.6c2.6,2.3,4.2,5,4.2,8.1C150.6,125.9,150.5,127.1,150.1,128.2
	z"/>
<path class="st4" d="M150.6,124.8c0,1.2-0.2,2.3-0.6,3.5c-0.7,2-3.1,2.7-5.5,2c-0.7-0.3-1.7-0.6-2.2-1c-3.7-2.7-5.4-6.2-5.9-9.8
	c0-3.2,2.6-5,6.3-4.3c1.3,0.1,2.8,0.7,3.7,1.6C149,119,150.6,121.8,150.6,124.8z"/>
</svg>
