<?xml version="1.0" encoding="UTF-8"?><svg id="Layer_1" xmlns="http://www.w3.org/2000/svg" width="703.59" height="1080" viewBox="0 0 703.59 1080"><path d="m564.7,875.76c17.34-33.22,31.82-67.51,38.47-104.65,3.32-18.52,4.32-37.07-.98-55.47-5.63-19.58-18.43-31.94-37.98-37.44-10.19-2.87-20.42-2.24-30.7-.54-4.85.81-9.46,2.98-14.83,2.89-2.2-15.66-4.34-31.09-6.54-46.52-7.29-51.34-24.84-98.68-55.1-141.05-4.24-5.95-10.26-11.42-12.09-18.05-1.83-6.64.97-14.45.95-21.75-.02-5.66,2.22-9.05,6.84-12.08,14.49-9.49,28.8-19.25,41.64-31.01,13.05-11.95,22.8-26,28.5-42.79,7.81-23.04,10.78-46.58,8.08-70.89-1.81-16.29-4.89-32.26-9.42-47.98-.63-2.19-1.98-4.31-.77-6.81,3.62,1.02,4.65,4.51,6.55,7.05,7,9.34,13.98,18.69,22.28,26.94,8.09,8.06,9.63,7.95,16.88-1.21,6.75-8.51,10.93-18.33,13.54-28.73,7.05-28.22,10.57-56.82,10.35-86-.09-12.28-3.84-22.09-12.53-30.3-3.62-3.43-7.2-6.99-11.22-9.92-31.2-22.75-66.11-36.9-103.77-44.84-5.51-1.16-8.72.64-11.91,4.58-7.21,8.9-12.68,18.77-16.84,29.37-2.31,5.88-4.41,11.88-6.01,17.98-1.31,5.02-3.78,6.54-8.59,4.8-1.55-.56-3.28-.59-4.91-.92-19.42-3.95-38.93-5.21-58.58-1.78-2.94.52-5.85.99-8.91.39-21.64-4.23-43.1-2.34-64.49,2.01-7.79,1.59-7.94,1.49-10.15-6.13-4.49-15.48-10.93-29.95-20.33-43.18-4.71-6.63-9.96-8.42-17.8-6.56-33.04,7.84-64.15,20.14-92.59,38.85-8.66,5.7-16.61,12.27-23.21,20.36-4.79,5.86-7.24,12.35-7.77,20.07-1.52,22.13,1.45,43.88,4.61,65.63,1.82,12.54,4.49,24.92,9.2,36.75,3.23,8.1,7.42,15.6,13.73,21.83,3.58,3.54,6.4,3.42,10.02-.09,9.61-9.34,17.84-19.78,25.71-30.56,2.06-2.81,3.41-6.35,7.97-8.54-1.2,4.05-2.17,7.16-3.04,10.3-7.71,27.81-12.41,55.97-8.59,84.92,3.06,23.1,9.34,45.17,24.78,63.34,13.05,15.35,28.73,27.74,46.11,37.95,2.87,1.69,5.68,3.47,8.62,5.03,4.9,2.58,7.29,6.15,6.66,12.04-.63,5.94-.23,11.99-.39,17.98-.08,2.9.59,5.02,2.36,7.02-.29.38-.56.75-.83,1.12-24.01,32.91-49.19,75.54-59.05,115.23-4.58,18.45-7.89,37.14-10.39,55.98-1.34,10.11-2.68,20.21-4.09,30.92-9.67-2.63-18.4-4.7-27.44-5.06-28.01-1.14-49.73,14.83-56.69,42.03-2.58,10.05-3.7,20.33-2.99,30.71,1.59,23.09,6.99,45.36,14.73,67.13,13.92,39.17,33.75,75.31,55.94,110.29,1.89,2.98,4.77,5.55,4.92,10.07-7.52,3.23-15.11,6.66-21.27,12.44-14.3,13.41-19.47,30.57-20.47,49.47-.27,5.02,2.71,5.69,6.99,6.05,16.95,1.41,33.94,1.92,50.91,2.08,59.96.56,119.92,1.07,179.88,1.1,48.65.03,97.31-.5,145.96-1.11,16.98-.22,33.94-1.48,50.91-2.11,3.88-.14,6.5-1.08,6.41-5.59-.45-22.45-9.8-46.66-32.41-58.13-3.17-1.61-7.09-2-9.66-5.65,1.64-2.72,3.28-5.59,5.06-8.36,10.63-16.55,20.66-33.46,29.77-50.9ZM464.15,78.03c29.44,9.43,57.76,18.96,82.78,36.12,7.97,5.45,15.61,11.38,23.56,16.85,8.41,5.78,12.96,13.06,14.36,23.68,4.36,33.04,1.52,65.05-10.48,96.17-1.55,4.02-3.36,7.98-5.42,11.78-4.44,8.21-5.79,8.37-12,1.71-7.28-7.83-13.51-16.48-19.42-25.35-24.3-36.47-43.4-75.6-59.53-116.25-4.29-10.82-8.27-21.78-12.31-32.7-1.25-3.35-2.8-6.71-1.54-12.01ZM164.63,237.13c-6.43,9.75-13.21,19.25-21.18,27.81-5.42,5.82-7.12,5.7-10.93-1.17-8.5-15.33-13.16-32.04-16.01-49.16-3.53-21.15-3.62-42.36.12-63.63,1.26-7.13,4.27-12.47,9.74-16.68,19.3-14.84,38.89-29.22,61.59-38.69,13.54-5.64,27.34-10.55,41.23-15.2,2.4-.8,4.82-2.53,8.3-.72.3,3.47-.75,6.34-1.75,9.12-18.6,51.88-40.64,102.13-71.11,148.32Zm90.32,196.14c-14.05-7.83-26.72-17.38-38.78-27.99-16.33-14.37-26.67-31.95-31.99-52.98-8.84-34.92-5.65-69.39,3.04-103.68,5.33-21.03,12.51-41.37,23.51-60.29,5.34-9.19,9.88-18.88,14.29-28.57,2.35-5.16,5.73-8.72,10.72-11.21,7.22-3.6,14.81-6.1,22.64-7.68,45.34-9.13,90.99-11.73,137.1-7.09,15.28,1.54,30.32,4.15,45.38,6.8,4.9.86,9.67,2.47,14.45,3.9,10.68,3.18,18.86,8.79,22.94,20.07,3.04,8.39,7.53,16.34,12,24.12,16.35,28.48,24.85,59.47,29.71,91.62,3.73,24.65,2.75,49.09-3.62,73.32-4.86,18.5-13.88,34.17-27.45,47.87-16.86,17.03-36.1,30.71-57.09,41.61-15.24,7.92-31.86,13.18-50.34,20.63,6.01-11.09,6.54-21.54,13.32-30.24,19.05-24.43,28.66-53.09,35.1-83,1.74-8.09,1.51-16.63,5.62-24.19.67-1.24.33-2.63-1.26-3.17-1.53-.52-2.74.34-3.28,1.55-2.09,4.7-5.47,8.36-9.3,11.6-5.13,4.34-11.06,7.41-17.21,10.02-13.62,5.77-27.92,8.79-42.59,10.11-2.77.25-6.5,1.26-7.46-2.88-.8-3.45-1.93-7.36,2.67-9.49,4.45-2.07,5.51-6.35,6.82-10.51,4.7-14.89,12.36-19.73,27.6-17.52,11.81,1.72,12.1,1.51,13.94-10.21,1.34-8.55.71-9.63-7.8-11.64-4.85-1.14-9.77-2.46-14.71-2.71-25.59-1.3-51.22-2.76-76.67,1.89-2.61.48-5.19,1.22-7.74,1.98-1.66.5-3.27,1.63-3.39,3.33-.42,5.71.67,11.25,3.01,16.47,1,2.21,3.18,2.05,5.21,1.76,2.97-.42,5.93-.91,8.91-1.28,11.24-1.38,19.87,3.6,23.57,14,2.1,5.91,3.02,12.06,9.46,15.69,2.96,1.66,2.05,6.13.94,9.25-1,2.81-3.95,2.11-6.11,1.92-19.77-1.75-38.8-6.1-55.96-16.63-6.07-3.73-11.06-8.52-14.22-15.04-.61-1.26-1.68-2.09-3.21-1.61-1.62.51-1.96,1.89-1.29,3.15,4.32,8.18,4.09,17.41,6.02,26.12,6.87,30.9,17.6,59.98,37.56,85.15,5.16,6.51,4.67,15.65,8.27,23.38-21.98-7.33-42.52-16.65-62.33-27.7Zm116.5,33.57c-13.41,14.12-30.48,14.24-43.36-1.16-13.57-16.22-17.11-35.6-11.53-56.19,1.99-7.36,6.86-11.93,15.03-12.21,5.63-.19,11.26-.69,16.89-1.05,7.98.18,15.92.31,23.79,1.98,6.89,1.47,11.52,5.29,13.02,12.12,4.65,21.07,1.01,40.88-13.84,56.51Zm7.33,49.79c-.05,16.76-12.18,29.07-28.71,29.15-16.65.08-29.76-13.11-29.53-29.71.2-15.09,13.79-26.91,31.14-27.1,13.93-.16,27.15,13.33,27.1,27.66Zm-70.57-134.17c-2.44,2.46-4.56,2.32-6.56-.46-7.2-10-12.28-20.93-15.77-33.83,43.26,16.19,85.36,16.6,128.98-.02-3.36,13.16-8.41,23.5-15.01,33.17-2.55,3.73-5.26,3.84-7.92.39-2.84-3.69-5.48-7.54-8.06-11.41-2.43-3.66-5.47-5.46-10.05-4.9-15.59,1.91-31.21,1.87-46.81.01-4.57-.55-7.66,1.22-10.01,4.95-2.66,4.22-5.23,8.51-8.79,12.1Zm-118.07,291.95c.37-3.96,1.44-7.86,1.91-11.82,7.49-62.37,32.27-128.08,66.97-181.09.36-.55.9-1.12,1.2-1.81.14.12.28.23.43.35,14.35,11.31,30.07,19.75,47.56,24.77,5.36,1.53,7.14,3.45,6.61,9.61-1.91,22.01,14.51,39.66,35.59,39.33,20.69-.32,36.53-17.99,34.52-39.4-.51-5.41.54-7.71,5.67-9.19,17.14-4.95,32.99-12.6,46.74-24.11,3.38-2.82,5.64-2.57,8.04.9,2.85,4.1,6.15,7.92,8.73,12.17,12.47,20.54,23.57,41.77,32.35,64.19,12.72,32.52,18.5,66.67,23.81,100.93.82,5.26,1.91,10.51,2.29,15.81.54,7.78-.92,9.18-8.82,9.84-9.23.77-17.04-2.37-23.5-8.87-4.24-4.28-7.66-9.2-10.84-14.32-1.26-2.02-2.05-4.66-4.82-5.65-.73,1.3-1.38,2.1-1.68,3.02-17.88,55.48-37.17,110.51-51.19,167.17-9.64,38.99-14.94,78.48-14.44,118.67.06,4.47-1.9,5.51-5.59,6.47-15.53,4.03-27.73,12.67-35.67,26.89-.6,1.06-1.27,2.47-3.79,1.44.85-82.89,8.98-165.6,16.01-249.11-9.63,3.99-19.14,3.89-29.74,2.28,3.23,41.89,6.95,82.95,7.7,124.16.75,40.99,5.35,81.9,3.58,123.38-2.98-1.28-3.52-3.33-4.59-4.95-7.62-11.59-18-19.43-31.35-23.36-7.9-2.33-7.91-2.43-7.96-10.75-.27-41.54-6.09-82.3-16.51-122.48-13.89-53.57-31.9-105.86-49-158.43-.51-1.54-.6-3.35-2.56-4.03-2.18.57-2.73,2.65-3.73,4.26-3.35,5.38-6.83,10.66-11.32,15.2-6.46,6.52-14.17,9.77-23.43,9.03-8.35-.67-9.92-2.32-9.18-10.5Zm-77.09,102.6c-2.45-12.1-3.31-24.37-3.14-36.74.48-36.51,24.41-57.86,60.71-54.99,24.61,1.94,44.51,12.4,61.1,30.09,5.93,6.32,11.32,13.07,16.37,20.13,15.21,21.27,20.21,46.01,24.07,71.08,1.06,6.87.99,13.93,1.44,20.9,0,22.93-3.68,45.1-13.18,66.1-5.42,11.98-12.56,22.76-23.03,30.95-9.44,7.4-19.58,12.45-32.26,9.41-6.18-1.48-12.6-1.17-18.84.17-4.24.91-6.77-.56-8.98-4.2-28.96-47.81-53.08-97.65-64.26-152.9Zm130.24,222.76c-14.65.3-29.29.61-43.93.98-3.77.1-5.22-1.52-5.4-5.32-.32-6.98.76-11.71,7.33-25.68-8.25,6.86-11.72,14.78-13.85,23.52q-1.84,7.58-9.4,7.89c-3.99.18-7.97.44-11.95.69-4.14.27-5.99-1.6-6.22-5.79-.47-8.65,1.35-16.55,6.93-23.34,1.68-2.03,3.63-3.84,5.74-6.05-6.73,2.41-8.58,3.86-12.36,9.75-4.2,6.57-6.35,13.83-7.69,21.47-.74,4.22-10.88,7.02-13.82,3.97-1.84-1.9-1.18-4.37-.89-6.64,2.32-18.57,10.78-33.48,26.77-43.54,19.53-12.28,40.68-13.73,62.54-8.15,11.64,2.96,22.94,6.91,32.57,14.57,2.95,2.35,3.46,4.21.74,7.24-7.57,8.44-12.18,18.25-12.1,29.83.02,3.58-1.94,4.53-5.01,4.6Zm195.29-.63c-4.95.43-7.96-.84-8.9-6.6-.89-5.49-3.11-10.84-8.79-16.03,1.56,6.39,4.9,10.57,5.44,15.61.58,5.4-.23,6.53-5.49,6.92-1.99.14-4,.12-5.99.03-4.65-.21-9.75.61-13.83-1.05-4.82-1.96-2.79-8.31-4.8-12.39-1.3-2.62-1.6-5.71-4.69-9.18,1.08,5.92,2.2,10.13,2.55,14.4.52,6.26-.85,7.78-7.13,7.83-9.99.09-19.98-.32-29.97-.31-13.31.02-26.63.35-39.94.34-7.44,0-8.72-1.56-8.29-8.72.18-2.95,1.82-5.74.77-9.63-3.47,3.92-3.82,8.49-4.66,12.64-.78,3.87-2.19,5.9-6.41,5.8-5.66-.13-11.32.1-16.98.26-4.59.14-5.67-2.36-5.14-6.37.68-5.24,3.69-9.7,6.35-16.7-6.99,6.22-8.45,12.57-10.25,18.8-1.07,3.69-11.51,6.41-14.26,3.84-1.49-1.39-.67-3.09-.44-4.67,1.42-9.68,6.05-17.45,13.73-23.53,23.82-18.86,60.19-11.65,75.2,15.01,1.58,2.8,2.94,5.71,4.51,8.79,17.09-28.45,36.24-38.87,60.76-33.12,16.69,3.91,33.59,16.96,33.3,36.96-1.98,1.89-4.4.88-6.65,1.07Zm126.64-3.71c.43,3.1,1.86,6.85-3.59,7.42-7.05.72-10.48-.78-11.45-5.75-1.92-9.85-4.57-19.3-13.29-25.51,4.27,7.72,6.37,15.49,6.04,24.08-.19,4.85-2.3,6.54-6.79,6.18-1.66-.14-3.35-.03-4.97-.34-4.57-.86-10.3,1.53-13.49-1.54-2.62-2.52-2.35-7.92-3.72-11.92-2.11-6.17-5.04-11.88-10.91-15.83,3.75,7.24,6.06,14.59,5.69,22.79-.19,4.32-1.59,5.9-5.82,5.78-14.3-.43-28.6-.7-42.91-.97-3.48-.07-5.7-1.1-5.64-5.14.15-12.01-4.99-21.83-12.9-30.46-.63-.69-.9-1.71-1.29-2.49,1.02-2.43,2.99-3.83,4.94-5.01,26.74-16.15,54.83-22.25,84.66-9.59,21.09,8.95,32.35,25.82,35.44,48.3Zm-38.21-67.8c-3.19,5.25-6.5,7.75-12.76,6.19-6.58-1.64-13.3-.67-19.84.56-6.95,1.31-13.13-.38-19.2-3.51-13.24-6.83-22.39-17.59-29.32-30.45-11.14-20.66-15.42-43-16.5-66.24-1.25-27.13,3.8-53.45,13.94-78.06,11.14-27.01,30.3-49.01,56.55-62.55,17.7-9.13,37.65-11.36,57.4-5.92,21.11,5.81,31.19,21.47,34.79,41.99.98,5.54.9,11.26,1.31,16.9-.92,28-8.17,54.63-17.58,80.69-12.7,35.16-29.37,68.45-48.79,100.4Z"/><path d="m561.63,1002.85c-7.05.72-10.48-.78-11.45-5.75-1.92-9.85-4.57-19.3-13.29-25.51,4.27,7.72,6.37,15.49,6.04,24.08-.19,4.85-2.3,6.54-6.79,6.18-1.66-.14-3.35-.03-4.97-.34-4.57-.86-10.3,1.53-13.49-1.54-2.62-2.52-2.35-7.92-3.72-11.92-2.11-6.17-5.04-11.88-10.91-15.83,3.75,7.24,6.06,14.59,5.69,22.79-.19,4.32-1.59,5.9-5.82,5.78-14.3-.43-28.6-.7-42.91-.97-3.48-.07-5.7-1.1-5.64-5.14.15-12.01-4.99-21.83-12.9-30.46-.63-.69-.9-1.71-1.29-2.49,1.02-2.43,2.99-3.83,4.94-5.01,26.74-16.15,54.83-22.25,84.66-9.59,21.09,8.95,32.35,25.82,35.44,48.3.43,3.1,1.86,6.85-3.59,7.42Z" fill="#f3f3f3"/><path d="m445.23,998.07c-1.98,1.89-4.4.88-6.65,1.07-4.95.43-7.96-.84-8.9-6.6-.89-5.49-3.11-10.84-8.79-16.03,1.56,6.39,4.9,10.57,5.44,15.61.58,5.4-.23,6.53-5.49,6.92-1.99.14-4,.12-5.99.03-4.65-.21-9.75.61-13.83-1.05-4.82-1.96-2.79-8.31-4.8-12.39-1.3-2.62-1.6-5.71-4.69-9.18,1.08,5.92,2.2,10.13,2.55,14.4.52,6.26-.85,7.78-7.13,7.83-9.99.09-19.98-.32-29.97-.31-13.31.02-26.63.35-39.94.34-7.44,0-8.72-1.56-8.29-8.72.18-2.95,1.82-5.74.77-9.63-3.47,3.92-3.82,8.49-4.66,12.64-.78,3.87-2.19,5.9-6.41,5.8-5.66-.13-11.32.1-16.98.26-4.59.14-5.67-2.36-5.14-6.37.68-5.24,3.69-9.7,6.35-16.7-6.99,6.22-8.45,12.57-10.25,18.8-1.07,3.69-11.51,6.41-14.26,3.84-1.49-1.39-.67-3.09-.44-4.67,1.42-9.68,6.05-17.45,13.73-23.53,23.82-18.86,60.19-11.65,75.2,15.01,1.58,2.8,2.94,5.71,4.51,8.79,17.09-28.45,36.24-38.87,60.76-33.12,16.69,3.91,33.59,16.96,33.3,36.96Z" fill="#f3f3f3"/><path d="m260.4,965.34c-7.57,8.44-12.18,18.25-12.1,29.83.02,3.58-1.94,4.53-5.01,4.6-14.65.3-29.29.61-43.93.98-3.77.1-5.22-1.52-5.4-5.32-.32-6.98.76-11.71,7.33-25.68-8.25,6.86-11.72,14.78-13.85,23.52q-1.84,7.58-9.4,7.89c-3.99.18-7.97.44-11.95.69-4.14.27-5.99-1.6-6.22-5.79-.47-8.65,1.35-16.55,6.93-23.34,1.68-2.03,3.63-3.84,5.74-6.05-6.73,2.41-8.58,3.86-12.36,9.75-4.2,6.57-6.35,13.83-7.69,21.47-.74,4.22-10.88,7.02-13.82,3.97-1.84-1.9-1.18-4.37-.89-6.64,2.32-18.57,10.78-33.48,26.77-43.54,19.53-12.28,40.68-13.73,62.54-8.15,11.64,2.96,22.94,6.91,32.57,14.57,2.95,2.35,3.46,4.21.74,7.24Z" fill="#f3f3f3"/><path d="m235.74,88.81c-18.6,51.88-40.64,102.13-71.11,148.32-6.43,9.75-13.21,19.25-21.18,27.81-5.42,5.82-7.12,5.7-10.93-1.17-8.5-15.33-13.16-32.04-16.01-49.16-3.53-21.15-3.62-42.36.12-63.63,1.26-7.13,4.27-12.47,9.74-16.68,19.3-14.84,38.89-29.22,61.59-38.69,13.54-5.64,27.34-10.55,41.23-15.2,2.4-.8,4.82-2.53,8.3-.72.3,3.47-.75,6.34-1.75,9.12Z" fill="#f3f3f3"/><path d="m574.37,250.85c-1.55,4.02-3.36,7.98-5.42,11.78-4.44,8.21-5.79,8.37-12,1.71-7.28-7.83-13.51-16.48-19.42-25.35-24.3-36.47-43.4-75.6-59.53-116.25-4.29-10.82-8.27-21.78-12.31-32.7-1.25-3.35-2.8-6.71-1.54-12.01,29.44,9.43,57.76,18.96,82.78,36.12,7.97,5.45,15.61,11.38,23.56,16.85,8.41,5.78,12.96,13.06,14.36,23.68,4.36,33.04,1.52,65.05-10.48,96.17Z" fill="#f3f3f3"/><path d="m414.86,348.15c-3.36,13.16-8.41,23.5-15.01,33.17-2.55,3.73-5.26,3.84-7.92.39-2.84-3.69-5.48-7.54-8.06-11.41-2.43-3.66-5.47-5.46-10.05-4.9-15.59,1.91-31.21,1.87-46.81.01-4.57-.55-7.66,1.22-10.01,4.95-2.66,4.22-5.23,8.51-8.79,12.1-2.44,2.46-4.56,2.32-6.56-.46-7.2-10-12.28-20.93-15.77-33.83,43.26,16.19,85.36,16.6,128.98-.02Z" fill="#f3f3f3"/><path d="m371.45,466.84c-13.41,14.12-30.48,14.24-43.36-1.16-13.57-16.22-17.11-35.6-11.53-56.19,1.99-7.36,6.86-11.93,15.03-12.21,5.63-.19,11.26-.69,16.89-1.05,7.98.18,15.92.31,23.79,1.98,6.89,1.47,11.52,5.29,13.02,12.12,4.65,21.07,1.01,40.88-13.84,56.51Z" fill="#f3f3f3"/><path d="m519.96,280.29c-4.86-32.15-13.36-63.14-29.71-91.62-4.47-7.78-8.96-15.73-12-24.12-4.08-11.28-12.26-16.89-22.94-20.07-4.78-1.43-9.55-3.04-14.45-3.9-15.06-2.65-30.1-5.26-45.38-6.8-46.11-4.64-91.76-2.04-137.1,7.09-7.83,1.58-15.42,4.08-22.64,7.68-4.99,2.49-8.37,6.05-10.72,11.21-4.41,9.69-8.95,19.38-14.29,28.57-11,18.92-18.18,39.26-23.51,60.29-8.69,34.29-11.88,68.76-3.04,103.68,5.32,21.03,15.66,38.61,31.99,52.98,12.06,10.61,24.73,20.16,38.78,27.99,19.81,11.05,40.35,20.37,62.33,27.7-3.6-7.73-3.11-16.87-8.27-23.38-19.96-25.17-30.69-54.25-37.56-85.15-1.93-8.71-1.7-17.94-6.02-26.12-.67-1.26-.33-2.64,1.29-3.15,1.53-.48,2.6.35,3.21,1.61,3.16,6.52,8.15,11.31,14.22,15.04,17.16,10.53,36.19,14.88,55.96,16.63,2.16.19,5.11.89,6.11-1.92,1.11-3.12,2.02-7.59-.94-9.25-6.44-3.63-7.36-9.78-9.46-15.69-3.7-10.4-12.33-15.38-23.57-14-2.98.37-5.94.86-8.91,1.28-2.03.29-4.21.45-5.21-1.76-2.34-5.22-3.43-10.76-3.01-16.47.12-1.7,1.73-2.83,3.39-3.33,2.55-.76,5.13-1.5,7.74-1.98,25.45-4.65,51.08-3.19,76.67-1.89,4.94.25,9.86,1.57,14.71,2.71,8.51,2.01,9.14,3.09,7.8,11.64-1.84,11.72-2.13,11.93-13.94,10.21-15.24-2.21-22.9,2.63-27.6,17.52-1.31,4.16-2.37,8.44-6.82,10.51-4.6,2.13-3.47,6.04-2.67,9.49.96,4.14,4.69,3.13,7.46,2.88,14.67-1.32,28.97-4.34,42.59-10.11,6.15-2.61,12.08-5.68,17.21-10.02,3.83-3.24,7.21-6.9,9.3-11.6.54-1.21,1.75-2.07,3.28-1.55,1.59.54,1.93,1.93,1.26,3.17-4.11,7.56-3.88,16.1-5.62,24.19-6.44,29.91-16.05,58.57-35.1,83-6.78,8.7-7.31,19.15-13.32,30.24,18.48-7.45,35.1-12.71,50.34-20.63,20.99-10.9,40.23-24.58,57.09-41.61,13.57-13.7,22.59-29.37,27.45-47.87,6.37-24.23,7.35-48.67,3.62-73.32Zm-226.8-1.56c-7.37,10.76-18.09,12.43-28.56,4.89-19.77-14.24-19.02-50.12,1.33-63.2,8.05-5.18,17.59-4.59,25.06,1.54,7.81,6.42,11.42,15.29,11.27,27.63-.22,10.59-3.14,20.43-9.1,29.14Zm166.03-38.42c-10.57-5.53-19.88-3.22-28.43,4.4-3.54,3.16-6.1,7.04-8.64,10.95-2.55,3.91-5,7.88-8.32,11.21-5.48,5.48-8.88,4.65-10.97-2.97-1.86-6.78-1.79-13.2,4.63-17.99,2.39-1.79,4.36-4.14,6.8-5.86,15.5-10.92,34.86-16.54,54.69,5.25-3.25-1.66-6.52-3.29-9.76-4.99Z" fill="#f3f3f3"/><path d="m378.78,516.63c-.05,16.76-12.18,29.07-28.71,29.15-16.65.08-29.76-13.11-29.53-29.71.2-15.09,13.79-26.91,31.14-27.1,13.93-.16,27.15,13.33,27.1,27.66Z" fill="#f3f3f3"/><path d="m273.6,827.48c0,22.93-3.68,45.1-13.18,66.1-5.42,11.98-12.56,22.76-23.03,30.95-9.44,7.4-19.58,12.45-32.26,9.41-6.18-1.48-12.6-1.17-18.84.17-4.24.91-6.77-.56-8.98-4.2-28.96-47.81-53.08-97.65-64.26-152.9-2.45-12.1-3.31-24.37-3.14-36.74.48-36.51,24.41-57.86,60.71-54.99,24.61,1.94,44.51,12.4,61.1,30.09,5.93,6.32,11.32,13.07,16.37,20.13,15.21,21.27,20.21,46.01,24.07,71.08,1.06,6.87.99,13.93,1.44,20.9Z" fill="#f3f3f3"/><path d="m593.38,746.54c-.92,28-8.17,54.63-17.58,80.69-12.7,35.16-29.37,68.45-48.79,100.4-3.19,5.25-6.5,7.75-12.76,6.19-6.58-1.64-13.3-.67-19.84.56-6.95,1.31-13.13-.38-19.2-3.51-13.24-6.83-22.39-17.59-29.32-30.45-11.14-20.66-15.42-43-16.5-66.24-1.25-27.13,3.8-53.45,13.94-78.06,11.14-27.01,30.3-49.01,56.55-62.55,17.7-9.13,37.65-11.36,57.4-5.92,21.11,5.81,31.19,21.47,34.79,41.99.98,5.54.9,11.26,1.31,16.9Z" fill="#f3f3f3"/><path d="m337.6,671.21c-3.72,2.95-5.53-1.89-7.18-4.29-10.22-14.82-15.96-31.22-16.32-51.23-5.19,5.01-6.03,10.13-8.52,14.29-.45.75-1.38,1.57-2.19,1.68-1.57.21-2.35-1.24-2.53-2.44-.34-2.28-.4-4.63-.33-6.95.38-11.73,3.25-22.86,8.58-33.42-1.08,10.3-4.56,20.3-4.47,31.81,5.32-3.65,6.17-9.9,10.76-11.91,1.87.67,2.16,1.64,2.08,2.63-1.7,20.03,5.66,37.01,17.61,52.44,1.75,2.27,5.56,4.98,2.51,7.39Z"/><path d="m512.56,675.05c-.38-5.3-1.47-10.55-2.29-15.81-5.31-34.26-11.09-68.41-23.81-100.93-8.78-22.42-19.88-43.65-32.35-64.19-2.58-4.25-5.88-8.07-8.73-12.17-2.4-3.47-4.66-3.72-8.04-.9-13.75,11.51-29.6,19.16-46.74,24.11-5.13,1.48-6.18,3.78-5.67,9.19,2.01,21.41-13.83,39.08-34.52,39.4-21.08.33-37.5-17.32-35.59-39.33.53-6.16-1.25-8.08-6.61-9.61-17.49-5.02-33.21-13.46-47.56-24.77-.15-.12-.29-.23-.43-.35-.3.69-.84,1.26-1.2,1.81-34.7,53.01-59.48,118.72-66.97,181.09-.47,3.96-1.54,7.86-1.91,11.82-.74,8.18.83,9.83,9.18,10.5,9.26.74,16.97-2.51,23.43-9.03,4.49-4.54,7.97-9.82,11.32-15.2,1-1.61,1.55-3.69,3.73-4.26,1.96.68,2.05,2.49,2.56,4.03,17.1,52.57,35.11,104.86,49,158.43,10.42,40.18,16.24,80.94,16.51,122.48.05,8.32.06,8.42,7.96,10.75,13.35,3.93,23.73,11.77,31.35,23.36,1.07,1.62,1.61,3.67,4.59,4.95,1.77-41.48-2.83-82.39-3.58-123.38-.75-41.21-4.47-82.27-7.7-124.16,10.6,1.61,20.11,1.71,29.74-2.28-7.03,83.51-15.16,166.22-16.01,249.11,2.52,1.03,3.19-.38,3.79-1.44,7.94-14.22,20.14-22.86,35.67-26.89,3.69-.96,5.65-2,5.59-6.47-.5-40.19,4.8-79.68,14.44-118.67,14.02-56.66,33.31-111.69,51.19-167.17.3-.92.95-1.72,1.68-3.02,2.77.99,3.56,3.63,4.82,5.65,3.18,5.12,6.6,10.04,10.84,14.32,6.46,6.5,14.27,9.64,23.5,8.87,7.9-.66,9.36-2.06,8.82-9.84Zm-174.96-3.84c-3.72,2.95-5.53-1.89-7.18-4.29-10.22-14.82-15.96-31.22-16.32-51.23-5.19,5.01-6.03,10.13-8.52,14.29-.45.75-1.38,1.57-2.19,1.68-1.57.21-2.35-1.24-2.53-2.44-.34-2.28-.4-4.63-.33-6.95.38-11.73,3.25-22.86,8.58-33.42-1.08,10.3-4.56,20.3-4.47,31.81,5.32-3.65,6.17-9.9,10.76-11.91,1.87.67,2.16,1.64,2.08,2.63-1.7,20.03,5.66,37.01,17.61,52.44,1.75,2.27,5.56,4.98,2.51,7.39Zm21.02,2.78c-1.23.77-2.61-.09-3.44-1.19-4.38-5.8-7.43-12.23-9.04-19.39,4.35,5.47,8.06,11.31,12.87,16.31,1.28,1.33,1.3,3.22-.39,4.27Z" fill="#fff"/><path d="m358.62,673.99c-1.23.77-2.61-.09-3.44-1.19-4.38-5.8-7.43-12.23-9.04-19.39,4.35,5.47,8.06,11.31,12.87,16.31,1.28,1.33,1.3,3.22-.39,4.27Z"/><path d="m290.99,221.96c-7.47-6.13-17.01-6.72-25.06-1.54-20.35,13.08-21.1,48.96-1.33,63.2,10.47,7.54,21.19,5.87,28.56-4.89,5.96-8.71,8.88-18.55,9.1-29.14.15-12.34-3.46-21.21-11.27-27.63Zm-13.82,9.99c-.63,8.57-3.36,15.21-9.03,20.3-5.79,5.18-11.51,3.22-12.89-4.51-1.51-8.47,1.88-15.59,7.67-21.48,2.72-2.77,6.55-3.16,10.18-1.6,3.6,1.54,4.12,4.82,4.07,7.29Z"/><path d="m277.17,231.95c-.63,8.57-3.36,15.21-9.03,20.3-5.79,5.18-11.51,3.22-12.89-4.51-1.51-8.47,1.88-15.59,7.67-21.48,2.72-2.77,6.55-3.16,10.18-1.6,3.6,1.54,4.12,4.82,4.07,7.29Z" fill="#f3f3f3"/><path d="m468.95,245.3c-3.25-1.66-6.52-3.29-9.76-4.99-10.57-5.53-19.88-3.22-28.43,4.4-3.54,3.16-6.1,7.04-8.64,10.95-2.55,3.91-5,7.88-8.32,11.21-5.48,5.48-8.88,4.65-10.97-2.97-1.86-6.78-1.79-13.2,4.63-17.99,2.39-1.79,4.36-4.14,6.8-5.86,15.5-10.92,34.86-16.54,54.69,5.25Z"/></svg>